<svg width="197" height="40" viewBox="0 0 197 40" fill="none" xmlns="http://www.w3.org/2000/svg">
<mask id="mask0_613_17528" style="mask-type:alpha" maskUnits="userSpaceOnUse" x="0" y="4" width="32" height="32">
<path d="M6.56585 19.2226C4.19193 17.6821 3 15.3227 3 12.3333C3 11.687 3.05805 11.0532 3.1714 10.4366C1.17939 13.1044 0 16.4145 0 20C0 28.8366 7.16344 36 16 36C16.4047 36 16.806 35.985 17.2031 35.9554C23.1784 35.5038 26.3333 31.6872 26.3333 27.6667C26.3333 25.4894 25.5253 24.0154 23.9825 23.0143C23.2306 22.5264 22.2753 22.1327 21.102 21.8493L19.0174 26.6667H16.1117L18.379 21.4274C17.643 21.3654 16.8506 21.3333 16 21.3333C15.465 21.3333 14.9432 21.3216 14.4351 21.2977L15.5748 18.6639C15.7149 18.6658 15.8566 18.6667 16 18.6667C17.236 18.6667 18.4016 18.7292 19.4897 18.8607L21.8816 13.3333H24.7872L22.1742 19.3718C23.4093 19.7083 24.5013 20.172 25.4341 20.7774C27.8081 22.3179 29 24.6773 29 27.6667C29 28.313 28.9419 28.9468 28.8286 29.5634C30.8206 26.8956 32 23.5855 32 20C32 11.1634 24.8366 4 16 4C15.5952 4 15.1939 4.01503 14.7967 4.04457C8.82156 4.49628 5.66667 8.31279 5.66667 12.3333C5.66667 14.5106 6.47473 15.9846 8.01748 16.9857C8.76848 17.473 9.72243 17.8663 10.8937 18.1496L12.9779 13.3333H15.8836L10.1137 26.6667H7.20809L9.82164 20.6271C8.58823 20.2907 7.49761 19.8273 6.56585 19.2226Z" fill="#0A0B65"/>
</mask>
<g mask="url(#mask0_613_17528)">
<path d="M6.56585 19.2226C4.19193 17.6821 3 15.3227 3 12.3333C3 11.687 3.05805 11.0532 3.1714 10.4366C1.17939 13.1044 0 16.4145 0 20C0 28.8366 7.16344 36 16 36C16.4047 36 16.806 35.985 17.2031 35.9554C23.1784 35.5038 26.3333 31.6872 26.3333 27.6667C26.3333 25.4894 25.5253 24.0154 23.9825 23.0143C23.2306 22.5264 22.2753 22.1327 21.102 21.8493L19.0174 26.6667H16.1117L18.379 21.4274C17.643 21.3654 16.8506 21.3333 16 21.3333C15.465 21.3333 14.9432 21.3216 14.4351 21.2977L15.5748 18.6639C15.7149 18.6658 15.8566 18.6667 16 18.6667C17.236 18.6667 18.4016 18.7292 19.4897 18.8607L21.8816 13.3333H24.7872L22.1742 19.3718C23.4093 19.7083 24.5013 20.172 25.4341 20.7774C27.8081 22.3179 29 24.6773 29 27.6667C29 28.313 28.9419 28.9468 28.8286 29.5634C30.8206 26.8956 32 23.5855 32 20C32 11.1634 24.8366 4 16 4C15.5952 4 15.1939 4.01503 14.7967 4.04457C8.82156 4.49628 5.66667 8.31279 5.66667 12.3333C5.66667 14.5106 6.47473 15.9846 8.01748 16.9857C8.76848 17.473 9.72243 17.8663 10.8937 18.1496L12.9779 13.3333H15.8836L10.1137 26.6667H7.20809L9.82164 20.6271C8.58823 20.2907 7.49761 19.8273 6.56585 19.2226Z" fill="url(#paint0_linear_613_17528)"/>
<g opacity="0.2">
<ellipse cx="3" cy="37.5" rx="28" ry="28.5" fill="url(#paint1_radial_613_17528)"/>
<ellipse cx="27" cy="5" rx="20" ry="21" fill="url(#paint2_radial_613_17528)" fill-opacity="0.1"/>
<circle cx="36" cy="36" r="32" fill="url(#paint3_radial_613_17528)" fill-opacity="0.2"/>
</g>
<ellipse cx="-0.5" cy="41" rx="29.5" ry="30" fill="url(#paint4_radial_613_17528)" fill-opacity="0.5"/>
</g>
<path d="M48.7399 29V9.4H52.3239V17.548H61.1159V9.4H64.6999V29H61.1159V20.46H52.3239V29H48.7399ZM69.6015 35.16L72.8215 28.076H71.9815L66.5775 15.112H70.4695L74.3615 24.884L78.4215 15.112H82.2295L73.4095 35.16H69.6015ZM84.0125 35.16V15.112H87.2045L87.5965 17.1C88.0445 16.484 88.6325 15.9427 89.3605 15.476C90.1072 15.0093 91.0685 14.776 92.2445 14.776C93.5512 14.776 94.7178 15.0933 95.7445 15.728C96.7712 16.3627 97.5832 17.2307 98.1805 18.332C98.7778 19.4333 99.0765 20.684 99.0765 22.084C99.0765 23.484 98.7778 24.7347 98.1805 25.836C97.5832 26.9187 96.7712 27.7773 95.7445 28.412C94.7178 29.028 93.5512 29.336 92.2445 29.336C91.1992 29.336 90.2845 29.14 89.5005 28.748C88.7165 28.356 88.0818 27.8053 87.5965 27.096V35.16H84.0125ZM91.4885 26.2C92.6272 26.2 93.5698 25.8173 94.3165 25.052C95.0632 24.2867 95.4365 23.2973 95.4365 22.084C95.4365 20.8707 95.0632 19.872 94.3165 19.088C93.5698 18.304 92.6272 17.912 91.4885 17.912C90.3312 17.912 89.3792 18.304 88.6325 19.088C87.9045 19.8533 87.5405 20.8427 87.5405 22.056C87.5405 23.2693 87.9045 24.268 88.6325 25.052C89.3792 25.8173 90.3312 26.2 91.4885 26.2ZM108.466 29.336C107.066 29.336 105.825 29.0373 104.742 28.44C103.659 27.8427 102.81 27.0027 102.194 25.92C101.578 24.8373 101.27 23.5867 101.27 22.168C101.27 20.7307 101.569 19.452 102.166 18.332C102.782 17.212 103.622 16.344 104.686 15.728C105.769 15.0933 107.038 14.776 108.494 14.776C109.857 14.776 111.061 15.0747 112.106 15.672C113.151 16.2693 113.963 17.0907 114.542 18.136C115.139 19.1627 115.438 20.3107 115.438 21.58C115.438 21.7853 115.429 22 115.41 22.224C115.41 22.448 115.401 22.6813 115.382 22.924H104.826C104.901 24.0067 105.274 24.856 105.946 25.472C106.637 26.088 107.467 26.396 108.438 26.396C109.166 26.396 109.773 26.2373 110.258 25.92C110.762 25.584 111.135 25.1547 111.378 24.632H115.018C114.757 25.5093 114.318 26.312 113.702 27.04C113.105 27.7493 112.358 28.3093 111.462 28.72C110.585 29.1307 109.586 29.336 108.466 29.336ZM108.494 17.688C107.617 17.688 106.842 17.94 106.17 18.444C105.498 18.9293 105.069 19.676 104.882 20.684H111.798C111.742 19.7693 111.406 19.0413 110.79 18.5C110.174 17.9587 109.409 17.688 108.494 17.688ZM117.893 29V15.112H121.085L121.421 17.716C121.925 16.82 122.606 16.1107 123.465 15.588C124.342 15.0467 125.369 14.776 126.545 14.776V18.556H125.537C124.753 18.556 124.053 18.6773 123.437 18.92C122.821 19.1627 122.335 19.5827 121.981 20.18C121.645 20.7773 121.477 21.608 121.477 22.672V29H117.893ZM134.174 29.336C132.942 29.336 131.859 29.14 130.926 28.748C129.993 28.3373 129.246 27.7773 128.686 27.068C128.126 26.3587 127.79 25.5373 127.678 24.604H131.29C131.402 25.1453 131.701 25.612 132.186 26.004C132.69 26.3773 133.334 26.564 134.118 26.564C134.902 26.564 135.471 26.4053 135.826 26.088C136.199 25.7707 136.386 25.4067 136.386 24.996C136.386 24.3987 136.125 23.9973 135.602 23.792C135.079 23.568 134.351 23.3533 133.418 23.148C132.821 23.0173 132.214 22.8587 131.598 22.672C130.982 22.4853 130.413 22.252 129.89 21.972C129.386 21.6733 128.975 21.3 128.658 20.852C128.341 20.3853 128.182 19.816 128.182 19.144C128.182 17.912 128.667 16.876 129.638 16.036C130.627 15.196 132.009 14.776 133.782 14.776C135.425 14.776 136.731 15.1587 137.702 15.924C138.691 16.6893 139.279 17.744 139.466 19.088H136.078C135.873 18.0613 135.098 17.548 133.754 17.548C133.082 17.548 132.559 17.6787 132.186 17.94C131.831 18.2013 131.654 18.528 131.654 18.92C131.654 19.3307 131.925 19.6573 132.466 19.9C133.007 20.1427 133.726 20.3667 134.622 20.572C135.593 20.796 136.479 21.048 137.282 21.328C138.103 21.5893 138.757 21.9907 139.242 22.532C139.727 23.0547 139.97 23.8107 139.97 24.8C139.989 25.6587 139.765 26.4333 139.298 27.124C138.831 27.8147 138.159 28.356 137.282 28.748C136.405 29.14 135.369 29.336 134.174 29.336ZM149.389 29.336C147.97 29.336 146.72 29.028 145.637 28.412C144.554 27.796 143.696 26.9373 143.061 25.836C142.445 24.7347 142.137 23.4747 142.137 22.056C142.137 20.6373 142.445 19.3773 143.061 18.276C143.696 17.1747 144.554 16.316 145.637 15.7C146.72 15.084 147.97 14.776 149.389 14.776C151.162 14.776 152.656 15.2427 153.869 16.176C155.082 17.0907 155.857 18.36 156.193 19.984H152.413C152.226 19.312 151.853 18.7893 151.293 18.416C150.752 18.024 150.108 17.828 149.361 17.828C148.372 17.828 147.532 18.2013 146.841 18.948C146.15 19.6947 145.805 20.7307 145.805 22.056C145.805 23.3813 146.15 24.4173 146.841 25.164C147.532 25.9107 148.372 26.284 149.361 26.284C150.108 26.284 150.752 26.0973 151.293 25.724C151.853 25.3507 152.226 24.8187 152.413 24.128H156.193C155.857 25.696 155.082 26.956 153.869 27.908C152.656 28.86 151.162 29.336 149.389 29.336ZM163.602 29.336C162.407 29.336 161.427 29.1493 160.662 28.776C159.897 28.384 159.327 27.8707 158.954 27.236C158.581 26.6013 158.394 25.9013 158.394 25.136C158.394 23.848 158.898 22.8027 159.906 22C160.914 21.1973 162.426 20.796 164.442 20.796H167.97V20.46C167.97 19.508 167.699 18.808 167.158 18.36C166.617 17.912 165.945 17.688 165.142 17.688C164.414 17.688 163.779 17.8653 163.238 18.22C162.697 18.556 162.361 19.06 162.23 19.732H158.73C158.823 18.724 159.159 17.8467 159.738 17.1C160.335 16.3533 161.101 15.784 162.034 15.392C162.967 14.9813 164.013 14.776 165.17 14.776C167.149 14.776 168.707 15.2707 169.846 16.26C170.985 17.2493 171.554 18.6493 171.554 20.46V29H168.502L168.166 26.76C167.755 27.5067 167.177 28.1227 166.43 28.608C165.702 29.0933 164.759 29.336 163.602 29.336ZM164.414 26.536C165.441 26.536 166.234 26.2 166.794 25.528C167.373 24.856 167.737 24.0253 167.886 23.036H164.834C163.882 23.036 163.201 23.2133 162.79 23.568C162.379 23.904 162.174 24.324 162.174 24.828C162.174 25.3693 162.379 25.7893 162.79 26.088C163.201 26.3867 163.742 26.536 164.414 26.536ZM174.414 29V8.84H177.998V29H174.414ZM187.848 29.336C186.448 29.336 185.207 29.0373 184.124 28.44C183.042 27.8427 182.192 27.0027 181.576 25.92C180.96 24.8373 180.652 23.5867 180.652 22.168C180.652 20.7307 180.951 19.452 181.548 18.332C182.164 17.212 183.004 16.344 184.068 15.728C185.151 15.0933 186.42 14.776 187.876 14.776C189.239 14.776 190.443 15.0747 191.488 15.672C192.534 16.2693 193.346 17.0907 193.924 18.136C194.522 19.1627 194.82 20.3107 194.82 21.58C194.82 21.7853 194.811 22 194.792 22.224C194.792 22.448 194.783 22.6813 194.764 22.924H184.208C184.283 24.0067 184.656 24.856 185.328 25.472C186.019 26.088 186.85 26.396 187.82 26.396C188.548 26.396 189.155 26.2373 189.64 25.92C190.144 25.584 190.518 25.1547 190.76 24.632H194.4C194.139 25.5093 193.7 26.312 193.084 27.04C192.487 27.7493 191.74 28.3093 190.844 28.72C189.967 29.1307 188.968 29.336 187.848 29.336ZM187.876 17.688C186.999 17.688 186.224 17.94 185.552 18.444C184.88 18.9293 184.451 19.676 184.264 20.684H191.18C191.124 19.7693 190.788 19.0413 190.172 18.5C189.556 17.9587 188.791 17.688 187.876 17.688Z" fill="white"/>
<defs>
<linearGradient id="paint0_linear_613_17528" x1="11.5" y1="36" x2="32" y2="-6.5" gradientUnits="userSpaceOnUse">
<stop stop-color="#5F75EE"/>
<stop offset="1" stop-color="#BAC4FA"/>
</linearGradient>
<radialGradient id="paint1_radial_613_17528" cx="0" cy="0" r="1" gradientUnits="userSpaceOnUse" gradientTransform="translate(3 37.5) rotate(90) scale(28.5 28)">
<stop stop-color="#FFD17F"/>
<stop offset="1" stop-color="#FFD17F" stop-opacity="0"/>
</radialGradient>
<radialGradient id="paint2_radial_613_17528" cx="0" cy="0" r="1" gradientUnits="userSpaceOnUse" gradientTransform="translate(27 5) rotate(90) scale(21 20)">
<stop stop-color="#53D6FF"/>
<stop offset="1" stop-color="#5FA9EE" stop-opacity="0"/>
<stop offset="1" stop-color="#5FA9EE" stop-opacity="0"/>
</radialGradient>
<radialGradient id="paint3_radial_613_17528" cx="0" cy="0" r="1" gradientUnits="userSpaceOnUse" gradientTransform="translate(36 36) rotate(90) scale(32)">
<stop stop-color="#ED0039"/>
<stop offset="1" stop-color="#ED002B" stop-opacity="0"/>
</radialGradient>
<radialGradient id="paint4_radial_613_17528" cx="0" cy="0" r="1" gradientUnits="userSpaceOnUse" gradientTransform="translate(-0.5 41) rotate(90) scale(30 29.5)">
<stop stop-color="#FEDB9E"/>
<stop offset="1" stop-color="#FEDB9E" stop-opacity="0"/>
</radialGradient>
</defs>
</svg>
