<svg width="80" height="94" viewBox="0 0 80 94" fill="none" xmlns="http://www.w3.org/2000/svg">
<rect width="45.0322" height="45.0322" transform="matrix(0.86601 0.500028 3.18351e-05 1 39 1.49207)" fill="#6E6E6E"/>
<rect width="45.0322" height="45.0322" transform="matrix(0.86601 -0.500028 -3.18351e-05 1 0.00390625 24.0116)" fill="#5A5A5A"/>
<rect width="45.0322" height="45.0322" transform="matrix(0.866041 0.499972 -0.866041 0.499972 39 46.5233)" fill="#AAAAAA"/>
<mask id="path-4-outside-1_376_69461" maskUnits="userSpaceOnUse" x="-1.73208" y="21.0037" width="43.3021" height="75.0014" fill="black">
<rect fill="white" x="-1.73208" y="21.0037" width="43.3021" height="75.0014"/>
<path d="M0 24.0038L38.9983 46.5211L38.9997 91.5533L0.0014336 69.0359L0 24.0038Z"/>
</mask>
<path d="M0 24.0038L38.9983 46.5211L38.9997 91.5533L0.0014336 69.0359L0 24.0038Z" fill="#BAC4FA"/>
<path d="M0 24.0038L-6.36701e-05 22.0038L-1.73202 23.0037L0 24.0038ZM38.9983 46.5211L40.7303 47.5212L38.9982 44.5211L38.9983 46.5211ZM38.9997 91.5533L38.9998 93.5533L40.7317 92.5533L38.9997 91.5533ZM0.0014336 69.0359L-1.73059 68.0359C-1.73055 69.1404 -0.95507 70.4836 0.00149727 71.0359L0.0014336 69.0359ZM6.36701e-05 26.0038L38.9983 48.5211L38.9982 44.5211L-6.36701e-05 22.0038L6.36701e-05 26.0038ZM37.2663 45.521L37.2677 90.5532L40.7317 92.5533L40.7303 47.5212L37.2663 45.521ZM38.9996 89.5533L0.00136993 67.0359L0.00149727 71.0359L38.9998 93.5533L38.9996 89.5533ZM1.73345 70.036L1.73202 25.0038L-1.73202 23.0037L-1.73059 68.0359L1.73345 70.036Z" fill="black" mask="url(#path-4-outside-1_376_69461)"/>
<mask id="path-6-outside-2_376_69461" maskUnits="userSpaceOnUse" x="37.2625" y="20.5181" width="43.3021" height="75.0014" fill="black">
<rect fill="white" x="37.2625" y="20.5181" width="43.3021" height="75.0014"/>
<path d="M38.9961 46.5194L77.9944 24.0021L77.9929 69.0342L38.9947 91.5516L38.9961 46.5194Z"/>
</mask>
<path d="M38.9961 46.5194L77.9944 24.0021L77.9929 69.0342L38.9947 91.5516L38.9961 46.5194Z" fill="#FFD17F"/>
<path d="M38.9961 46.5194L38.9962 44.5194L37.2641 47.5195L38.9961 46.5194ZM77.9944 24.0021L79.7264 23.002L77.9944 22.0021L77.9944 24.0021ZM77.9929 69.0342L77.9929 71.0342C78.9494 70.4819 79.7249 69.1388 79.725 68.0342L77.9929 69.0342ZM38.9947 91.5516L37.2626 92.5516L38.9946 93.5516L38.9947 91.5516ZM38.996 48.5194L77.9943 26.0021L77.9944 22.0021L38.9962 44.5194L38.996 48.5194ZM76.2623 25.0021L76.2609 70.0343L79.725 68.0342L79.7264 23.002L76.2623 25.0021ZM77.993 67.0342L38.9947 89.5516L38.9946 93.5516L77.9929 71.0342L77.993 67.0342ZM40.7267 90.5515L40.7281 45.5194L37.2641 47.5195L37.2626 92.5516L40.7267 90.5515Z" fill="black" mask="url(#path-6-outside-2_376_69461)"/>
<mask id="path-8-outside-3_376_69461" maskUnits="userSpaceOnUse" x="-3.46417" y="-0.990933" width="86.6041" height="49.9972" fill="black">
<rect fill="white" x="-3.46417" y="-0.990933" width="86.6041" height="49.9972"/>
<path d="M0 24.0077L38.9997 1.49286L77.9994 24.0077L38.9997 46.5225L0 24.0077Z"/>
</mask>
<path d="M0 24.0077L38.9997 1.49286L77.9994 24.0077L38.9997 46.5225L0 24.0077Z" fill="white"/>
<path d="M0 24.0077L-1.73208 23.0077V25.0076L0 24.0077ZM38.9997 1.49286L40.7318 0.49291C39.7752 -0.0593439 38.2242 -0.0593434 37.2676 0.49291L38.9997 1.49286ZM77.9994 24.0077L79.7315 25.0076V23.0077L77.9994 24.0077ZM38.9997 46.5225L37.2676 47.5225H40.7318L38.9997 46.5225ZM1.73208 25.0076L40.7318 2.4928L37.2676 0.49291L-1.73208 23.0077L1.73208 25.0076ZM37.2676 2.4928L76.2673 25.0076L79.7315 23.0077L40.7318 0.49291L37.2676 2.4928ZM76.2673 23.0077L37.2676 45.5226L40.7318 47.5225L79.7315 25.0076L76.2673 23.0077ZM40.7318 45.5226L1.73208 23.0077L-1.73208 25.0076L37.2676 47.5225L40.7318 45.5226Z" fill="black" mask="url(#path-8-outside-3_376_69461)"/>
</svg>
