<svg width="91" height="106" viewBox="0 0 91 106" fill="none" xmlns="http://www.w3.org/2000/svg">
<path d="M76.0039 51.0221V51.0247C76.0186 56.6416 74.7062 62.1826 72.1738 67.1962L72.1719 67.2C69.1681 73.2103 64.5502 78.2656 58.8355 81.7997C53.1209 85.3338 46.5352 87.207 39.816 87.2096H39.8138C34.1969 87.2242 28.6559 85.9119 23.6423 83.3795C23.4745 83.2948 23.2862 83.259 23.0991 83.2764L-0.148127 85.4321L7.48208 68.049C7.60211 67.7756 7.59364 67.4628 7.459 67.1962C4.92659 62.1826 3.61426 56.6416 3.62891 51.0247L3.62891 51.0225C3.63151 44.3034 5.50475 37.7176 9.03881 32.003C12.5729 26.2883 17.6282 21.6705 23.6385 18.6666L23.6423 18.6647C28.6559 16.1323 34.1969 14.8199 39.8138 14.8346H39.8164H41.9762C50.8393 15.3303 59.2094 19.0743 65.4868 25.3517C71.7642 31.6291 75.5082 39.9992 76.0039 48.8624V51.0221Z" fill="white" stroke="black" stroke-width="2" stroke-linecap="round" stroke-linejoin="round"/>
<path d="M40.6226 39.8936C42.1035 41.3728 43.2782 43.1293 44.0797 45.0628C44.8813 46.9963 45.2938 49.0688 45.2938 51.1619C45.2938 53.2549 44.8813 55.3275 44.0797 57.261C43.2782 59.1945 42.1035 60.951 40.6226 62.4302M48.1349 32.3813C53.1113 37.3593 55.9069 44.1099 55.9069 51.1486C55.9069 58.1874 53.1113 64.938 48.1349 69.9159M34.6766 51.1486C34.6766 54.0807 32.2997 56.4576 29.3676 56.4576C26.4355 56.4576 24.0586 54.0807 24.0586 51.1486C24.0586 48.2166 26.4355 45.8396 29.3676 45.8396C32.2997 45.8396 34.6766 48.2166 34.6766 51.1486Z" stroke="black" stroke-width="2" stroke-linecap="round" stroke-linejoin="round"/>
</svg>
