<svg width="824" height="47" viewBox="0 0 824 47" fill="none" xmlns="http://www.w3.org/2000/svg">
<path d="M14.474 35.48C10.122 35.48 6.682 34.28 4.154 31.88C1.658 29.448 0.41 25.72 0.41 20.696C0.41 17.752 0.97 15.16 2.09 12.92C3.21 10.648 4.986 8.888 7.418 7.64C9.85 6.36 13.002 5.72 16.874 5.72C19.914 5.72 22.426 5.88 24.41 6.2C26.426 6.52 27.802 6.84 28.538 7.16V8.12L29.498 12.44C28.634 11.8 27.114 11.16 24.938 10.52C22.762 9.88 20.106 9.56 16.97 9.56C14.41 9.56 12.298 10.04 10.634 11C8.97 11.928 7.738 13.224 6.938 14.888C6.17 16.552 5.786 18.488 5.786 20.696C5.786 23 6.138 24.968 6.842 26.6C7.578 28.232 8.73 29.48 10.298 30.344C11.866 31.176 13.914 31.592 16.442 31.592C18.618 31.592 20.346 31.352 21.626 30.872C22.906 30.392 23.818 29.752 24.362 28.952C24.906 28.12 25.178 27.224 25.178 26.264V25.016C25.178 24.28 25.114 23.864 24.986 23.768C24.89 23.64 24.474 23.576 23.738 23.576H22.202C20.41 23.576 18.97 23.688 17.882 23.912C16.826 24.136 16.154 24.36 15.866 24.584L16.346 20.792V19.832H31.466C31.242 19.864 31.018 20.104 30.794 20.552C30.602 20.968 30.506 21.688 30.506 22.712V32.12C30.506 33.144 30.602 33.88 30.794 34.328C31.018 34.776 31.242 35 31.466 35H25.178V33.896L25.274 32.552L25.178 32.456C24.666 33 23.994 33.512 23.162 33.992C22.33 34.44 21.21 34.792 19.802 35.048C18.426 35.336 16.65 35.48 14.474 35.48ZM48.131 35.48C45.603 35.48 43.523 35.192 41.891 34.616C40.259 34.008 38.979 33.176 38.051 32.12C37.123 31.064 36.467 29.832 36.083 28.424C35.731 27.016 35.555 25.48 35.555 23.816C35.555 20.2 36.579 17.336 38.627 15.224C40.707 13.112 43.779 12.056 47.843 12.056C50.211 12.056 52.115 12.376 53.555 13.016C55.027 13.656 56.131 14.504 56.867 15.56C57.635 16.616 58.147 17.768 58.403 19.016C58.691 20.232 58.835 21.432 58.835 22.616V24.872C58.835 24.776 58.387 24.68 57.491 24.584C56.627 24.456 55.155 24.392 53.075 24.392H40.451C40.451 26.76 41.155 28.632 42.563 30.008C43.971 31.384 46.067 32.072 48.851 32.072C51.251 32.072 53.219 31.784 54.755 31.208C56.323 30.6 57.363 30.008 57.875 29.432V30.392L58.355 33.56C57.651 33.976 56.403 34.408 54.611 34.856C52.851 35.272 50.691 35.48 48.131 35.48ZM42.371 21.224H54.035C54.035 20.392 53.859 19.528 53.507 18.632C53.155 17.736 52.531 16.984 51.635 16.376C50.739 15.736 49.475 15.416 47.843 15.416C46.467 15.416 45.267 15.656 44.243 16.136C43.219 16.584 42.419 17.176 41.843 17.912C41.299 18.648 41.027 19.432 41.027 20.264C41.027 20.584 41.123 20.824 41.315 20.984C41.507 21.144 41.859 21.224 42.371 21.224ZM72.3024 35.48C70.0944 35.48 68.4944 35.016 67.5024 34.088C66.5104 33.128 66.0144 31.576 66.0144 29.432V15.896H61.6944V12.536C63.1664 12.536 64.3184 12.36 65.1504 12.008C65.9824 11.624 66.5744 10.968 66.9264 10.04C67.2784 9.112 67.4544 7.816 67.4544 6.152H70.9104V12.536H80.0784C79.8544 12.856 79.6304 13.336 79.4064 13.976C79.2144 14.584 79.1184 15.224 79.1184 15.896H70.9104V28.712C70.9104 30.184 71.1824 31.112 71.7264 31.496C72.2704 31.88 72.9584 32.072 73.7904 32.072C74.5904 32.072 75.3264 31.912 75.9984 31.592C76.7024 31.24 77.3104 30.824 77.8224 30.344C78.3664 29.864 78.7824 29.4 79.0704 28.952V30.44L79.5504 33.176C79.2304 33.496 78.7344 33.848 78.0624 34.232C77.3904 34.584 76.5744 34.872 75.6144 35.096C74.6544 35.352 73.5504 35.48 72.3024 35.48ZM106.014 46.712C104.158 46.712 102.446 46.584 100.878 46.328C99.3418 46.072 97.9978 45.752 96.8458 45.368C95.7258 45.016 94.8618 44.664 94.2538 44.312L95.2138 39.992V38.6C95.6618 39.272 96.3658 39.976 97.3258 40.712C98.2858 41.448 99.4858 42.072 100.926 42.584C102.366 43.096 103.998 43.352 105.822 43.352C107.966 43.352 109.55 43 110.574 42.296C111.63 41.592 112.318 40.616 112.638 39.368C112.99 38.12 113.166 36.696 113.166 35.096V33.32L113.262 32.456L113.166 32.36C112.75 32.904 112.174 33.416 111.438 33.896C110.702 34.376 109.822 34.76 108.798 35.048C107.774 35.336 106.622 35.48 105.342 35.48C102.302 35.48 99.9338 34.968 98.2378 33.944C96.5738 32.92 95.4058 31.528 94.7338 29.768C94.0938 28.008 93.7738 26.024 93.7738 23.816C93.7738 21.576 94.0938 19.576 94.7338 17.816C95.4058 16.056 96.5738 14.664 98.2378 13.64C99.9338 12.584 102.302 12.056 105.342 12.056C106.622 12.056 107.758 12.184 108.75 12.44C109.742 12.664 110.606 12.984 111.342 13.4C112.078 13.784 112.686 14.248 113.166 14.792L113.262 14.744L113.166 13.832V12.536H119.022C118.798 12.568 118.574 12.808 118.35 13.256C118.158 13.704 118.062 14.456 118.062 15.512V33.896C118.062 38.536 117.07 41.832 115.086 43.784C113.134 45.736 110.11 46.712 106.014 46.712ZM105.678 32.072C107.662 32.072 109.198 31.768 110.286 31.16C111.374 30.52 112.126 29.592 112.542 28.376C112.958 27.128 113.166 25.608 113.166 23.816C113.166 22.056 112.942 20.552 112.494 19.304C112.078 18.056 111.326 17.096 110.238 16.424C109.182 15.752 107.662 15.416 105.678 15.416C103.886 15.416 102.478 15.768 101.454 16.472C100.43 17.144 99.6938 18.12 99.2458 19.4C98.8298 20.648 98.6218 22.136 98.6218 23.864C98.6218 25.56 98.8298 27.032 99.2458 28.28C99.6618 29.496 100.382 30.44 101.406 31.112C102.462 31.752 103.886 32.072 105.678 32.072ZM135.502 35.48C132.302 35.48 129.79 34.968 127.966 33.944C126.174 32.92 124.91 31.528 124.174 29.768C123.47 28.008 123.118 26.024 123.118 23.816C123.118 21.576 123.486 19.576 124.222 17.816C124.99 16.056 126.27 14.664 128.062 13.64C129.854 12.584 132.334 12.056 135.502 12.056C138.67 12.056 141.15 12.584 142.942 13.64C144.734 14.664 145.998 16.056 146.734 17.816C147.502 19.576 147.885 21.576 147.885 23.816C147.885 26.024 147.517 28.008 146.781 29.768C146.078 31.528 144.83 32.92 143.038 33.944C141.246 34.968 138.734 35.48 135.502 35.48ZM135.502 32.072C137.486 32.072 139.022 31.752 140.11 31.112C141.198 30.472 141.95 29.544 142.366 28.328C142.782 27.08 142.99 25.576 142.99 23.816C142.99 22.056 142.766 20.552 142.318 19.304C141.902 18.056 141.15 17.096 140.062 16.424C139.006 15.752 137.486 15.416 135.502 15.416C133.55 15.416 132.03 15.768 130.942 16.472C129.854 17.144 129.086 18.12 128.638 19.4C128.222 20.648 128.014 22.136 128.014 23.864C128.014 25.56 128.222 27.032 128.638 28.28C129.054 29.496 129.806 30.44 130.894 31.112C131.982 31.752 133.518 32.072 135.502 32.072ZM151.771 35C151.995 35 152.203 34.776 152.395 34.328C152.619 33.88 152.73 33.144 152.73 32.12V15.416C152.73 14.392 152.619 13.672 152.395 13.256C152.203 12.808 151.995 12.568 151.771 12.536H157.627V32.12C157.627 33.144 157.723 33.88 157.915 34.328C158.139 34.776 158.363 35 158.587 35H151.771ZM154.699 7.928C153.771 7.928 153.051 7.672 152.539 7.16C152.027 6.616 151.771 5.992 151.771 5.288C151.771 4.552 152.011 3.928 152.491 3.416C153.003 2.904 153.739 2.648 154.699 2.648C155.659 2.648 156.379 2.904 156.859 3.416C157.371 3.928 157.627 4.552 157.627 5.288C157.627 5.992 157.371 6.616 156.859 7.16C156.347 7.672 155.627 7.928 154.699 7.928ZM162.692 35C162.916 35 163.124 34.776 163.316 34.328C163.54 33.88 163.652 33.144 163.652 32.12V15.896C163.652 14.872 163.54 14.152 163.316 13.736C163.124 13.288 162.916 13.048 162.692 13.016C164.1 13.016 165.316 12.92 166.34 12.728C167.396 12.504 168.132 12.28 168.548 12.056V14.984L168.452 15.608L168.548 15.704C169.028 15.096 169.636 14.52 170.372 13.976C171.14 13.432 172.084 12.984 173.204 12.632C174.324 12.248 175.636 12.056 177.14 12.056C180.116 12.056 182.388 12.904 183.956 14.6C185.556 16.296 186.356 18.952 186.356 22.568V32.12C186.356 33.144 186.452 33.88 186.644 34.328C186.868 34.776 187.092 35 187.316 35H180.5C180.724 35 180.932 34.776 181.124 34.328C181.348 33.88 181.46 33.144 181.46 32.12V22.712C181.46 20.824 181.22 19.352 180.74 18.296C180.26 17.24 179.588 16.504 178.724 16.088C177.892 15.64 176.916 15.416 175.796 15.416C174.612 15.416 173.46 15.672 172.34 16.184C171.22 16.696 170.308 17.512 169.604 18.632C168.9 19.752 168.548 21.256 168.548 23.144V32.12C168.548 33.144 168.644 33.88 168.836 34.328C169.06 34.776 169.284 35 169.508 35H162.692ZM203.139 46.712C201.283 46.712 199.571 46.584 198.003 46.328C196.467 46.072 195.123 45.752 193.971 45.368C192.851 45.016 191.987 44.664 191.379 44.312L192.339 39.992V38.6C192.787 39.272 193.491 39.976 194.451 40.712C195.411 41.448 196.611 42.072 198.051 42.584C199.491 43.096 201.123 43.352 202.947 43.352C205.091 43.352 206.675 43 207.699 42.296C208.755 41.592 209.443 40.616 209.763 39.368C210.115 38.12 210.291 36.696 210.291 35.096V33.32L210.387 32.456L210.291 32.36C209.875 32.904 209.299 33.416 208.563 33.896C207.827 34.376 206.947 34.76 205.923 35.048C204.899 35.336 203.747 35.48 202.467 35.48C199.427 35.48 197.059 34.968 195.363 33.944C193.699 32.92 192.531 31.528 191.859 29.768C191.219 28.008 190.899 26.024 190.899 23.816C190.899 21.576 191.219 19.576 191.859 17.816C192.531 16.056 193.699 14.664 195.363 13.64C197.059 12.584 199.427 12.056 202.467 12.056C203.747 12.056 204.883 12.184 205.875 12.44C206.867 12.664 207.731 12.984 208.467 13.4C209.203 13.784 209.811 14.248 210.291 14.792L210.387 14.744L210.291 13.832V12.536H216.147C215.923 12.568 215.699 12.808 215.475 13.256C215.283 13.704 215.187 14.456 215.187 15.512V33.896C215.187 38.536 214.195 41.832 212.211 43.784C210.259 45.736 207.235 46.712 203.139 46.712ZM202.803 32.072C204.787 32.072 206.323 31.768 207.411 31.16C208.499 30.52 209.251 29.592 209.667 28.376C210.083 27.128 210.291 25.608 210.291 23.816C210.291 22.056 210.067 20.552 209.619 19.304C209.203 18.056 208.451 17.096 207.363 16.424C206.307 15.752 204.787 15.416 202.803 15.416C201.011 15.416 199.603 15.768 198.579 16.472C197.555 17.144 196.819 18.12 196.371 19.4C195.955 20.648 195.747 22.136 195.747 23.864C195.747 25.56 195.955 27.032 196.371 28.28C196.787 29.496 197.507 30.44 198.531 31.112C199.587 31.752 201.011 32.072 202.803 32.072ZM232.302 35C232.526 35 232.734 34.776 232.926 34.328C233.15 33.88 233.262 33.144 233.262 32.12V15.416C233.262 14.392 233.15 13.672 232.926 13.256C232.734 12.808 232.526 12.568 232.302 12.536H238.158V32.12C238.158 33.144 238.254 33.88 238.446 34.328C238.67 34.776 238.894 35 239.118 35H232.302ZM235.23 7.928C234.302 7.928 233.582 7.672 233.07 7.16C232.558 6.616 232.302 5.992 232.302 5.288C232.302 4.552 232.542 3.928 233.022 3.416C233.534 2.904 234.27 2.648 235.23 2.648C236.19 2.648 236.91 2.904 237.39 3.416C237.902 3.928 238.158 4.552 238.158 5.288C238.158 5.992 237.902 6.616 237.39 7.16C236.878 7.672 236.158 7.928 235.23 7.928ZM243.224 35C243.448 35 243.656 34.776 243.848 34.328C244.072 33.88 244.184 33.144 244.184 32.12V15.896C244.184 14.872 244.072 14.152 243.848 13.736C243.656 13.288 243.448 13.048 243.224 13.016C244.632 13.016 245.848 12.92 246.872 12.728C247.928 12.504 248.664 12.28 249.08 12.056V14.984L248.984 15.608L249.08 15.704C249.56 15.096 250.168 14.52 250.904 13.976C251.672 13.432 252.616 12.984 253.736 12.632C254.856 12.248 256.168 12.056 257.672 12.056C260.648 12.056 262.92 12.904 264.488 14.6C266.088 16.296 266.888 18.952 266.888 22.568V32.12C266.888 33.144 266.984 33.88 267.176 34.328C267.4 34.776 267.624 35 267.848 35H261.032C261.256 35 261.464 34.776 261.656 34.328C261.88 33.88 261.992 33.144 261.992 32.12V22.712C261.992 20.824 261.752 19.352 261.272 18.296C260.792 17.24 260.12 16.504 259.256 16.088C258.424 15.64 257.448 15.416 256.328 15.416C255.144 15.416 253.992 15.672 252.872 16.184C251.752 16.696 250.84 17.512 250.136 18.632C249.432 19.752 249.08 21.256 249.08 23.144V32.12C249.08 33.144 249.176 33.88 249.368 34.328C249.592 34.776 249.816 35 250.04 35H243.224ZM294.529 35.48C291.489 35.48 289.121 34.968 287.425 33.944C285.761 32.92 284.593 31.528 283.921 29.768C283.281 28.008 282.961 26.024 282.961 23.816C282.961 21.576 283.281 19.576 283.921 17.816C284.593 16.056 285.761 14.664 287.425 13.64C289.121 12.584 291.489 12.056 294.529 12.056C295.809 12.056 296.945 12.184 297.937 12.44C298.929 12.664 299.793 12.984 300.529 13.4C301.265 13.784 301.873 14.248 302.353 14.792L302.449 14.744L302.353 13.832V4.76C302.353 3.736 302.241 3.016 302.017 2.6C301.825 2.152 301.617 1.912 301.393 1.88H307.249V32.12C307.249 33.144 307.345 33.88 307.537 34.328C307.761 34.776 307.985 35 308.209 35H302.353V33.512L302.497 32.6L302.353 32.552C301.873 33.096 301.265 33.592 300.529 34.04C299.793 34.488 298.929 34.84 297.937 35.096C296.945 35.352 295.809 35.48 294.529 35.48ZM294.865 32.072C296.497 32.072 297.809 31.832 298.801 31.352C299.793 30.84 300.545 30.184 301.057 29.384C301.569 28.552 301.905 27.656 302.065 26.696C302.257 25.736 302.353 24.776 302.353 23.816C302.353 22.984 302.257 22.088 302.065 21.128C301.873 20.136 301.521 19.208 301.009 18.344C300.497 17.48 299.745 16.776 298.753 16.232C297.761 15.688 296.465 15.416 294.865 15.416C292.177 15.416 290.321 16.184 289.297 17.72C288.305 19.256 287.809 21.304 287.809 23.864C287.809 25.56 288.001 27.032 288.385 28.28C288.801 29.496 289.521 30.44 290.545 31.112C291.569 31.752 293.009 32.072 294.865 32.072ZM322.001 35.48C318.513 35.48 316.065 34.856 314.657 33.608C313.249 32.328 312.545 30.616 312.545 28.472C312.545 26.968 312.913 25.688 313.649 24.632C314.417 23.544 315.553 22.712 317.057 22.136C318.593 21.56 320.529 21.272 322.865 21.272C324.529 21.272 325.969 21.4 327.185 21.656C328.433 21.88 329.441 22.152 330.209 22.472C331.009 22.792 331.569 23.064 331.889 23.288C331.889 21.4 331.649 19.88 331.169 18.728C330.721 17.576 329.985 16.744 328.961 16.232C327.937 15.688 326.545 15.416 324.785 15.416C322.897 15.416 321.201 15.64 319.697 16.088C318.225 16.504 317.041 16.968 316.145 17.48C315.249 17.96 314.689 18.312 314.465 18.536V17.576L313.985 13.976C314.273 13.848 314.897 13.64 315.857 13.352C316.817 13.032 318.081 12.744 319.649 12.488C321.217 12.2 323.057 12.056 325.169 12.056C327.857 12.056 330.049 12.44 331.745 13.208C333.473 13.944 334.737 15.096 335.537 16.664C336.369 18.2 336.785 20.152 336.785 22.52V32.12C336.785 33.016 336.881 33.672 337.073 34.088C337.297 34.472 337.521 34.776 337.745 35H331.889V33.56L331.985 32.648L331.889 32.6C331.377 33.08 330.769 33.496 330.065 33.848C329.361 34.2 328.593 34.504 327.761 34.76C326.929 34.984 326.017 35.16 325.025 35.288C324.065 35.416 323.057 35.48 322.001 35.48ZM323.585 32.072C325.313 32.072 326.801 31.896 328.049 31.544C329.297 31.192 330.241 30.728 330.881 30.152C331.553 29.544 331.889 28.856 331.889 28.088C331.889 27.128 331.249 26.312 329.969 25.64C328.721 24.968 326.769 24.632 324.113 24.632C321.649 24.632 319.905 24.952 318.881 25.592C317.889 26.232 317.393 27.192 317.393 28.472C317.393 29.72 317.873 30.632 318.833 31.208C319.825 31.784 321.409 32.072 323.585 32.072ZM342.184 46.712C340.264 46.712 338.743 46.52 337.623 46.136C336.503 45.752 335.783 45.384 335.463 45.032L336.423 39.992V38.552C336.647 39.224 337.015 39.928 337.527 40.664C338.007 41.432 338.631 42.072 339.399 42.584C340.168 43.096 341.032 43.352 341.992 43.352C343.08 43.352 344.008 43.128 344.776 42.68C345.544 42.264 346.216 41.656 346.792 40.856C347.4 40.056 347.976 39.128 348.52 38.072C349.16 36.792 349.56 35.912 349.72 35.432C349.528 35.176 349.224 34.584 348.808 33.656C348.392 32.728 347.896 31.608 347.32 30.296C346.744 28.952 346.136 27.528 345.496 26.024C344.888 24.52 344.28 23.064 343.672 21.656C343.064 20.248 342.52 19 342.04 17.912C341.56 16.824 341.192 16.04 340.936 15.56C340.392 14.536 339.896 13.784 339.447 13.304C338.999 12.824 338.679 12.568 338.487 12.536H346.312C346.056 12.536 345.88 12.776 345.784 13.256C345.72 13.704 345.896 14.472 346.312 15.56C346.568 16.168 346.92 17.048 347.368 18.2C347.816 19.32 348.312 20.6 348.856 22.04C349.4 23.448 349.96 24.888 350.536 26.36C351.112 27.8 351.64 29.144 352.12 30.392H352.168C352.68 29.08 353.24 27.672 353.848 26.168C354.456 24.664 355.048 23.192 355.624 21.752C356.232 20.312 356.76 19.032 357.208 17.912C357.688 16.792 358.04 15.976 358.264 15.464C358.712 14.44 358.888 13.704 358.792 13.256C358.696 12.808 358.52 12.568 358.264 12.536H365.8C365.608 12.568 365.304 12.808 364.888 13.256C364.504 13.672 364.056 14.392 363.544 15.416C363.256 15.96 362.808 16.888 362.2 18.2C361.624 19.512 360.952 21.016 360.184 22.712C359.416 24.408 358.632 26.168 357.832 27.992C357.032 29.784 356.28 31.48 355.576 33.08C354.872 34.648 354.28 35.944 353.799 36.968C352.808 39.112 351.752 40.904 350.632 42.344C349.544 43.816 348.312 44.904 346.936 45.608C345.56 46.344 343.976 46.712 342.184 46.712ZM380.437 35.48C377.429 35.48 374.901 35.32 372.853 35C370.837 34.68 369.461 34.36 368.725 34.04V33.08L367.717 28.952C368.549 29.624 370.005 30.328 372.085 31.064C374.197 31.768 376.757 32.12 379.765 32.12C381.749 32.12 383.237 31.992 384.229 31.736C385.221 31.448 385.877 31.08 386.197 30.632C386.517 30.152 386.677 29.624 386.677 29.048C386.677 28.376 386.437 27.848 385.957 27.464C385.509 27.048 384.645 26.712 383.365 26.456C382.117 26.168 380.261 25.88 377.797 25.592C375.109 25.272 373.029 24.808 371.557 24.2C370.117 23.592 369.125 22.824 368.581 21.896C368.037 20.936 367.765 19.8 367.765 18.488C367.765 17.464 368.037 16.456 368.581 15.464C369.125 14.472 370.133 13.656 371.605 13.016C373.109 12.376 375.237 12.056 377.989 12.056C380.965 12.056 383.461 12.216 385.477 12.536C387.525 12.856 388.917 13.176 389.653 13.496V14.456L390.613 18.104C389.813 17.528 388.357 16.936 386.245 16.328C384.133 15.72 381.589 15.416 378.613 15.416C376.245 15.416 374.661 15.688 373.861 16.232C373.061 16.744 372.661 17.416 372.661 18.248C372.661 18.728 372.757 19.16 372.949 19.544C373.141 19.896 373.525 20.216 374.101 20.504C374.709 20.792 375.605 21.048 376.789 21.272C378.005 21.496 379.621 21.72 381.637 21.944C384.357 22.232 386.421 22.68 387.829 23.288C389.237 23.896 390.197 24.664 390.709 25.592C391.253 26.488 391.525 27.544 391.525 28.76C391.525 30.072 391.157 31.24 390.421 32.264C389.717 33.256 388.549 34.04 386.917 34.616C385.285 35.192 383.125 35.48 380.437 35.48ZM406.911 35C407.135 35 407.343 34.776 407.535 34.328C407.759 33.88 407.871 33.144 407.871 32.12V15.416C407.871 14.392 407.759 13.672 407.535 13.256C407.343 12.808 407.135 12.568 406.911 12.536H412.767V32.12C412.767 33.144 412.863 33.88 413.055 34.328C413.279 34.776 413.503 35 413.727 35H406.911ZM409.839 7.928C408.911 7.928 408.191 7.672 407.679 7.16C407.167 6.616 406.911 5.992 406.911 5.288C406.911 4.552 407.151 3.928 407.631 3.416C408.143 2.904 408.879 2.648 409.839 2.648C410.799 2.648 411.519 2.904 411.999 3.416C412.511 3.928 412.767 4.552 412.767 5.288C412.767 5.992 412.511 6.616 411.999 7.16C411.487 7.672 410.767 7.928 409.839 7.928ZM417.833 35C418.057 35 418.265 34.776 418.457 34.328C418.681 33.88 418.793 33.144 418.793 32.12V15.896C418.793 14.872 418.681 14.152 418.457 13.736C418.265 13.288 418.057 13.048 417.833 13.016C419.241 13.016 420.457 12.92 421.481 12.728C422.537 12.504 423.273 12.28 423.689 12.056V14.984L423.593 15.608L423.689 15.704C424.169 15.096 424.777 14.52 425.513 13.976C426.281 13.432 427.225 12.984 428.345 12.632C429.465 12.248 430.777 12.056 432.281 12.056C435.257 12.056 437.529 12.904 439.097 14.6C440.697 16.296 441.497 18.952 441.497 22.568V32.12C441.497 33.144 441.593 33.88 441.785 34.328C442.009 34.776 442.233 35 442.457 35H435.641C435.865 35 436.073 34.776 436.265 34.328C436.489 33.88 436.601 33.144 436.601 32.12V22.712C436.601 20.824 436.361 19.352 435.881 18.296C435.401 17.24 434.729 16.504 433.865 16.088C433.033 15.64 432.057 15.416 430.937 15.416C429.753 15.416 428.601 15.672 427.481 16.184C426.361 16.696 425.449 17.512 424.745 18.632C424.041 19.752 423.689 21.256 423.689 23.144V32.12C423.689 33.144 423.785 33.88 423.977 34.328C424.201 34.776 424.425 35 424.649 35H417.833ZM458.999 35.48C455.991 35.48 453.463 35.32 451.415 35C449.399 34.68 448.023 34.36 447.287 34.04V33.08L446.279 28.952C447.111 29.624 448.567 30.328 450.647 31.064C452.759 31.768 455.319 32.12 458.327 32.12C460.311 32.12 461.799 31.992 462.791 31.736C463.783 31.448 464.439 31.08 464.759 30.632C465.079 30.152 465.239 29.624 465.239 29.048C465.239 28.376 464.999 27.848 464.519 27.464C464.071 27.048 463.207 26.712 461.927 26.456C460.679 26.168 458.823 25.88 456.359 25.592C453.671 25.272 451.591 24.808 450.119 24.2C448.679 23.592 447.687 22.824 447.143 21.896C446.599 20.936 446.327 19.8 446.327 18.488C446.327 17.464 446.599 16.456 447.143 15.464C447.687 14.472 448.695 13.656 450.167 13.016C451.671 12.376 453.799 12.056 456.551 12.056C459.527 12.056 462.023 12.216 464.039 12.536C466.087 12.856 467.479 13.176 468.215 13.496V14.456L469.175 18.104C468.375 17.528 466.919 16.936 464.807 16.328C462.695 15.72 460.151 15.416 457.175 15.416C454.807 15.416 453.223 15.688 452.423 16.232C451.623 16.744 451.223 17.416 451.223 18.248C451.223 18.728 451.319 19.16 451.511 19.544C451.703 19.896 452.087 20.216 452.663 20.504C453.271 20.792 454.167 21.048 455.351 21.272C456.567 21.496 458.183 21.72 460.199 21.944C462.919 22.232 464.983 22.68 466.391 23.288C467.799 23.896 468.759 24.664 469.271 25.592C469.815 26.488 470.087 27.544 470.087 28.76C470.087 30.072 469.719 31.24 468.983 32.264C468.279 33.256 467.111 34.04 465.479 34.616C463.847 35.192 461.687 35.48 458.999 35.48ZM483.302 35.48C481.094 35.48 479.494 35.016 478.502 34.088C477.51 33.128 477.014 31.576 477.014 29.432V15.896H472.694V12.536C474.166 12.536 475.318 12.36 476.15 12.008C476.982 11.624 477.574 10.968 477.926 10.04C478.278 9.112 478.454 7.816 478.454 6.152H481.91V12.536H491.078C490.854 12.856 490.63 13.336 490.406 13.976C490.214 14.584 490.118 15.224 490.118 15.896H481.91V28.712C481.91 30.184 482.182 31.112 482.726 31.496C483.27 31.88 483.958 32.072 484.79 32.072C485.59 32.072 486.326 31.912 486.998 31.592C487.702 31.24 488.31 30.824 488.822 30.344C489.366 29.864 489.782 29.4 490.07 28.952V30.44L490.55 33.176C490.23 33.496 489.734 33.848 489.062 34.232C488.39 34.584 487.574 34.872 486.614 35.096C485.654 35.352 484.55 35.48 483.302 35.48ZM505.819 35.48C503.291 35.48 501.211 35.192 499.579 34.616C497.947 34.008 496.667 33.176 495.739 32.12C494.811 31.064 494.155 29.832 493.771 28.424C493.419 27.016 493.243 25.48 493.243 23.816C493.243 20.2 494.267 17.336 496.315 15.224C498.395 13.112 501.467 12.056 505.531 12.056C507.899 12.056 509.803 12.376 511.243 13.016C512.715 13.656 513.819 14.504 514.555 15.56C515.323 16.616 515.835 17.768 516.091 19.016C516.379 20.232 516.523 21.432 516.523 22.616V24.872C516.523 24.776 516.075 24.68 515.179 24.584C514.315 24.456 512.843 24.392 510.763 24.392H498.139C498.139 26.76 498.843 28.632 500.251 30.008C501.659 31.384 503.755 32.072 506.539 32.072C508.939 32.072 510.907 31.784 512.443 31.208C514.011 30.6 515.051 30.008 515.562 29.432V30.392L516.043 33.56C515.339 33.976 514.091 34.408 512.299 34.856C510.539 35.272 508.379 35.48 505.819 35.48ZM500.059 21.224H511.723C511.723 20.392 511.547 19.528 511.195 18.632C510.843 17.736 510.219 16.984 509.323 16.376C508.427 15.736 507.163 15.416 505.531 15.416C504.155 15.416 502.955 15.656 501.931 16.136C500.907 16.584 500.107 17.176 499.531 17.912C498.987 18.648 498.715 19.432 498.715 20.264C498.715 20.584 498.811 20.824 499.003 20.984C499.195 21.144 499.547 21.224 500.059 21.224ZM529.798 35.48C526.31 35.48 523.862 34.856 522.454 33.608C521.046 32.328 520.342 30.616 520.342 28.472C520.342 26.968 520.71 25.688 521.446 24.632C522.214 23.544 523.35 22.712 524.854 22.136C526.39 21.56 528.326 21.272 530.662 21.272C532.326 21.272 533.766 21.4 534.982 21.656C536.23 21.88 537.238 22.152 538.006 22.472C538.806 22.792 539.366 23.064 539.686 23.288C539.686 21.4 539.446 19.88 538.966 18.728C538.518 17.576 537.782 16.744 536.758 16.232C535.734 15.688 534.342 15.416 532.582 15.416C530.694 15.416 528.998 15.64 527.494 16.088C526.022 16.504 524.838 16.968 523.942 17.48C523.046 17.96 522.486 18.312 522.262 18.536V17.576L521.782 13.976C522.07 13.848 522.694 13.64 523.654 13.352C524.614 13.032 525.878 12.744 527.446 12.488C529.014 12.2 530.854 12.056 532.966 12.056C535.654 12.056 537.846 12.44 539.542 13.208C541.27 13.944 542.534 15.096 543.334 16.664C544.166 18.2 544.582 20.152 544.582 22.52V32.12C544.582 33.016 544.678 33.672 544.87 34.088C545.094 34.472 545.318 34.776 545.542 35H539.686V33.56L539.782 32.648L539.686 32.6C539.174 33.08 538.566 33.496 537.862 33.848C537.158 34.2 536.39 34.504 535.558 34.76C534.726 34.984 533.814 35.16 532.822 35.288C531.862 35.416 530.854 35.48 529.798 35.48ZM531.382 32.072C533.11 32.072 534.598 31.896 535.846 31.544C537.094 31.192 538.038 30.728 538.678 30.152C539.35 29.544 539.686 28.856 539.686 28.088C539.686 27.128 539.046 26.312 537.766 25.64C536.518 24.968 534.566 24.632 531.91 24.632C529.446 24.632 527.702 24.952 526.678 25.592C525.686 26.232 525.19 27.192 525.19 28.472C525.19 29.72 525.67 30.632 526.63 31.208C527.622 31.784 529.206 32.072 531.382 32.072ZM560.732 35.48C557.692 35.48 555.324 34.968 553.628 33.944C551.964 32.92 550.796 31.528 550.124 29.768C549.484 28.008 549.164 26.024 549.164 23.816C549.164 21.576 549.484 19.576 550.124 17.816C550.796 16.056 551.964 14.664 553.628 13.64C555.324 12.584 557.692 12.056 560.732 12.056C562.012 12.056 563.148 12.184 564.14 12.44C565.132 12.664 565.996 12.984 566.732 13.4C567.468 13.784 568.076 14.248 568.556 14.792L568.652 14.744L568.556 13.832V4.76C568.556 3.736 568.444 3.016 568.22 2.6C568.028 2.152 567.82 1.912 567.596 1.88H573.452V32.12C573.452 33.144 573.548 33.88 573.74 34.328C573.964 34.776 574.188 35 574.412 35H568.556V33.512L568.7 32.6L568.556 32.552C568.076 33.096 567.468 33.592 566.732 34.04C565.996 34.488 565.132 34.84 564.14 35.096C563.148 35.352 562.012 35.48 560.732 35.48ZM561.068 32.072C562.7 32.072 564.012 31.832 565.004 31.352C565.996 30.84 566.748 30.184 567.26 29.384C567.772 28.552 568.108 27.656 568.268 26.696C568.46 25.736 568.556 24.776 568.556 23.816C568.556 22.984 568.46 22.088 568.268 21.128C568.076 20.136 567.724 19.208 567.212 18.344C566.7 17.48 565.948 16.776 564.956 16.232C563.964 15.688 562.668 15.416 561.068 15.416C558.38 15.416 556.524 16.184 555.5 17.72C554.508 19.256 554.012 21.304 554.012 23.864C554.012 25.56 554.204 27.032 554.588 28.28C555.004 29.496 555.724 30.44 556.748 31.112C557.772 31.752 559.212 32.072 561.068 32.072ZM602.423 35.48C599.223 35.48 596.711 34.968 594.887 33.944C593.095 32.92 591.831 31.528 591.095 29.768C590.391 28.008 590.039 26.024 590.039 23.816C590.039 21.576 590.407 19.576 591.143 17.816C591.911 16.056 593.191 14.664 594.983 13.64C596.775 12.584 599.255 12.056 602.423 12.056C605.591 12.056 608.071 12.584 609.863 13.64C611.655 14.664 612.919 16.056 613.655 17.816C614.423 19.576 614.807 21.576 614.807 23.816C614.807 26.024 614.439 28.008 613.703 29.768C612.999 31.528 611.751 32.92 609.959 33.944C608.167 34.968 605.655 35.48 602.423 35.48ZM602.423 32.072C604.407 32.072 605.943 31.752 607.031 31.112C608.119 30.472 608.871 29.544 609.287 28.328C609.703 27.08 609.911 25.576 609.911 23.816C609.911 22.056 609.687 20.552 609.239 19.304C608.823 18.056 608.071 17.096 606.983 16.424C605.927 15.752 604.407 15.416 602.423 15.416C600.471 15.416 598.951 15.768 597.863 16.472C596.775 17.144 596.007 18.12 595.559 19.4C595.143 20.648 594.935 22.136 594.935 23.864C594.935 25.56 595.143 27.032 595.559 28.28C595.975 29.496 596.727 30.44 597.815 31.112C598.903 31.752 600.439 32.072 602.423 32.072ZM619.844 35C620.068 35 620.276 34.776 620.468 34.328C620.692 33.88 620.804 33.144 620.804 32.12V15.896H616.484V12.536H621.284L621.332 12.44C621.236 12.28 621.044 11.752 620.756 10.856C620.468 9.928 620.324 8.84 620.324 7.592C620.324 5.064 621.044 3.24 622.484 2.12C623.924 0.999998 625.924 0.439999 628.484 0.439999C630.212 0.439999 631.78 0.551998 633.188 0.775997C634.628 0.967999 635.668 1.176 636.308 1.4V2.408L637.268 6.2C637.268 6.04 636.868 5.768 636.068 5.384C635.3 5 634.292 4.648 633.044 4.328C631.796 4.008 630.484 3.848 629.108 3.848C627.764 3.848 626.772 4.152 626.132 4.76C625.524 5.336 625.22 6.456 625.22 8.12V11.096C625.22 11.8 625.284 12.216 625.412 12.344C625.54 12.472 625.972 12.536 626.708 12.536H634.868C634.676 12.856 634.468 13.336 634.244 13.976C634.02 14.584 633.908 15.224 633.908 15.896H625.7V32.12C625.7 33.144 625.812 33.88 626.036 34.328C626.26 34.776 626.468 35 626.66 35H619.844ZM649.583 35C649.807 35 650.015 34.776 650.207 34.328C650.431 33.88 650.543 33.144 650.543 32.12V15.896C650.543 14.872 650.431 14.152 650.207 13.736C650.015 13.288 649.807 13.048 649.583 13.016C650.991 13.016 652.207 12.92 653.231 12.728C654.287 12.504 655.023 12.28 655.439 12.056V14.984L655.343 15.608L655.439 15.704C655.919 15.096 656.447 14.52 657.023 13.976C657.631 13.432 658.415 12.984 659.375 12.632C660.335 12.248 661.567 12.056 663.071 12.056C666.047 12.056 668.319 12.904 669.887 14.6C671.487 16.296 672.287 18.952 672.287 22.568V32.12C672.287 33.144 672.383 33.88 672.575 34.328C672.799 34.776 673.023 35 673.247 35H666.431C666.655 35 666.863 34.776 667.055 34.328C667.279 33.88 667.391 33.144 667.391 32.12V22.712C667.391 20.824 667.151 19.352 666.671 18.296C666.191 17.24 665.519 16.504 664.655 16.088C663.823 15.64 662.847 15.416 661.727 15.416C660.543 15.416 659.471 15.672 658.511 16.184C657.551 16.696 656.799 17.512 656.255 18.632C655.711 19.752 655.439 21.256 655.439 23.144V32.12C655.439 33.144 655.535 33.88 655.727 34.328C655.951 34.776 656.175 35 656.399 35H649.583ZM683.231 35C683.455 35 683.663 34.776 683.855 34.328C684.079 33.88 684.191 33.144 684.191 32.12V22.712C684.191 20.824 683.951 19.352 683.471 18.296C682.991 17.24 682.319 16.504 681.455 16.088C680.623 15.64 679.647 15.416 678.527 15.416C676.671 15.416 675.167 16.008 674.015 17.192C672.863 18.344 672.287 20.312 672.287 23.096L670.319 18.296C670.415 17.944 670.639 17.432 670.991 16.76C671.375 16.088 671.919 15.4 672.623 14.696C673.359 13.96 674.303 13.336 675.455 12.824C676.639 12.312 678.111 12.056 679.871 12.056C681.855 12.056 683.535 12.44 684.911 13.208C686.287 13.944 687.327 15.08 688.031 16.616C688.735 18.152 689.087 20.136 689.087 22.568V32.12C689.087 33.144 689.183 33.88 689.375 34.328C689.599 34.776 689.823 35 690.047 35H683.231ZM706.017 35.48C702.817 35.48 700.305 34.968 698.481 33.944C696.689 32.92 695.425 31.528 694.689 29.768C693.985 28.008 693.633 26.024 693.633 23.816C693.633 21.576 694.001 19.576 694.737 17.816C695.505 16.056 696.785 14.664 698.577 13.64C700.369 12.584 702.849 12.056 706.017 12.056C709.185 12.056 711.665 12.584 713.457 13.64C715.249 14.664 716.513 16.056 717.249 17.816C718.017 19.576 718.401 21.576 718.401 23.816C718.401 26.024 718.033 28.008 717.297 29.768C716.593 31.528 715.345 32.92 713.553 33.944C711.761 34.968 709.249 35.48 706.017 35.48ZM706.017 32.072C708.001 32.072 709.537 31.752 710.625 31.112C711.713 30.472 712.465 29.544 712.881 28.328C713.297 27.08 713.505 25.576 713.505 23.816C713.505 22.056 713.281 20.552 712.833 19.304C712.417 18.056 711.665 17.096 710.577 16.424C709.521 15.752 708.001 15.416 706.017 15.416C704.065 15.416 702.545 15.768 701.457 16.472C700.369 17.144 699.601 18.12 699.153 19.4C698.737 20.648 698.529 22.136 698.529 23.864C698.529 25.56 698.737 27.032 699.153 28.28C699.569 29.496 700.321 30.44 701.409 31.112C702.497 31.752 704.033 32.072 706.017 32.072ZM722.286 35C722.51 35 722.718 34.776 722.91 34.328C723.134 33.88 723.246 33.144 723.246 32.12V15.896C723.246 14.872 723.134 14.152 722.91 13.736C722.718 13.288 722.51 13.048 722.286 13.016C723.694 13.016 724.91 12.92 725.934 12.728C726.99 12.504 727.726 12.28 728.142 12.056V14.984L728.046 15.608L728.142 15.704C728.622 15.096 729.23 14.52 729.966 13.976C730.734 13.432 731.678 12.984 732.798 12.632C733.918 12.248 735.23 12.056 736.734 12.056C739.71 12.056 741.982 12.904 743.55 14.6C745.15 16.296 745.95 18.952 745.95 22.568V32.12C745.95 33.144 746.046 33.88 746.238 34.328C746.462 34.776 746.686 35 746.91 35H740.094C740.318 35 740.526 34.776 740.718 34.328C740.942 33.88 741.054 33.144 741.054 32.12V22.712C741.054 20.824 740.814 19.352 740.334 18.296C739.854 17.24 739.182 16.504 738.318 16.088C737.486 15.64 736.51 15.416 735.39 15.416C734.206 15.416 733.054 15.672 731.934 16.184C730.814 16.696 729.902 17.512 729.198 18.632C728.494 19.752 728.142 21.256 728.142 23.144V32.12C728.142 33.144 728.238 33.88 728.43 34.328C728.654 34.776 728.878 35 729.102 35H722.286ZM760.381 35.48C758.173 35.48 756.573 35.016 755.581 34.088C754.589 33.128 754.093 31.576 754.093 29.432V15.896H749.773V12.536C751.245 12.536 752.397 12.36 753.229 12.008C754.061 11.624 754.653 10.968 755.005 10.04C755.357 9.112 755.533 7.816 755.533 6.152H758.989V12.536H768.157C767.933 12.856 767.709 13.336 767.485 13.976C767.293 14.584 767.197 15.224 767.197 15.896H758.989V28.712C758.989 30.184 759.261 31.112 759.805 31.496C760.349 31.88 761.037 32.072 761.869 32.072C762.669 32.072 763.405 31.912 764.077 31.592C764.781 31.24 765.389 30.824 765.901 30.344C766.445 29.864 766.861 29.4 767.149 28.952V30.44L767.629 33.176C767.309 33.496 766.813 33.848 766.141 34.232C765.469 34.584 764.653 34.872 763.693 35.096C762.733 35.352 761.629 35.48 760.381 35.48ZM770.849 35C771.073 35 771.281 34.776 771.473 34.328C771.697 33.88 771.809 33.144 771.809 32.12V4.76C771.809 3.736 771.697 3.016 771.473 2.6C771.281 2.152 771.073 1.912 770.849 1.88H776.705V14.984L776.609 15.608L776.705 15.704C777.185 15.096 777.793 14.52 778.529 13.976C779.297 13.432 780.241 12.984 781.361 12.632C782.481 12.248 783.793 12.056 785.297 12.056C788.273 12.056 790.545 12.904 792.113 14.6C793.713 16.296 794.513 18.952 794.513 22.568V32.12C794.513 33.144 794.609 33.88 794.801 34.328C795.025 34.776 795.249 35 795.473 35H788.657C788.881 35 789.089 34.776 789.281 34.328C789.505 33.88 789.617 33.144 789.617 32.12V22.712C789.617 20.824 789.377 19.352 788.897 18.296C788.417 17.24 787.745 16.504 786.881 16.088C786.049 15.64 785.073 15.416 783.953 15.416C782.769 15.416 781.617 15.672 780.497 16.184C779.377 16.696 778.465 17.512 777.761 18.632C777.057 19.752 776.705 21.256 776.705 23.144V32.12C776.705 33.144 776.801 33.88 776.993 34.328C777.217 34.776 777.441 35 777.665 35H770.849ZM812.015 35.48C809.007 35.48 806.479 35.32 804.431 35C802.415 34.68 801.039 34.36 800.303 34.04V33.08L799.295 28.952C800.127 29.624 801.583 30.328 803.663 31.064C805.775 31.768 808.335 32.12 811.343 32.12C813.327 32.12 814.815 31.992 815.807 31.736C816.799 31.448 817.455 31.08 817.775 30.632C818.095 30.152 818.255 29.624 818.255 29.048C818.255 28.376 818.015 27.848 817.535 27.464C817.087 27.048 816.223 26.712 814.943 26.456C813.695 26.168 811.839 25.88 809.375 25.592C806.687 25.272 804.607 24.808 803.135 24.2C801.695 23.592 800.703 22.824 800.159 21.896C799.615 20.936 799.343 19.8 799.343 18.488C799.343 17.464 799.615 16.456 800.159 15.464C800.703 14.472 801.711 13.656 803.183 13.016C804.687 12.376 806.815 12.056 809.567 12.056C812.543 12.056 815.039 12.216 817.055 12.536C819.103 12.856 820.495 13.176 821.231 13.496V14.456L822.191 18.104C821.391 17.528 819.935 16.936 817.823 16.328C815.711 15.72 813.167 15.416 810.191 15.416C807.823 15.416 806.239 15.688 805.439 16.232C804.639 16.744 804.239 17.416 804.239 18.248C804.239 18.728 804.335 19.16 804.527 19.544C804.719 19.896 805.103 20.216 805.679 20.504C806.287 20.792 807.183 21.048 808.367 21.272C809.583 21.496 811.199 21.72 813.215 21.944C815.935 22.232 817.999 22.68 819.407 23.288C820.815 23.896 821.775 24.664 822.287 25.592C822.831 26.488 823.103 27.544 823.103 28.76C823.103 30.072 822.735 31.24 821.999 32.264C821.295 33.256 820.127 34.04 818.495 34.616C816.863 35.192 814.703 35.48 812.015 35.48Z" fill="white"/>
</svg>
