<svg width="548" height="575" viewBox="0 0 548 575" fill="none" xmlns="http://www.w3.org/2000/svg">
<g clip-path="url(#clip0_376_69362)">
<path d="M272 42.4641L488 167.214M272 42.4641L56 167.214M272 42.4641V541.464M488 167.214V416.714M488 167.214L56 416.714M488 416.714L272 541.464M488 416.714L56 167.214M272 541.464L56 416.714M56 416.714V167.214" stroke="#BAC4FA" stroke-width="4" stroke-linecap="round" stroke-dasharray="0.25 9"/>
<mask id="path-2-outside-1_376_69362" maskUnits="userSpaceOnUse" x="230.238" y="47.0703" width="46.7158" height="41.0865" fill="black">
<rect fill="white" x="230.238" y="47.0703" width="46.7158" height="41.0865"/>
<path d="M231.969 50.0735L274.789 74.9014L274.79 84.8282L231.97 60.0003L231.969 50.0735Z"/>
</mask>
<path d="M231.969 50.0735L274.789 74.9014L274.79 84.8282L231.97 60.0003L231.969 50.0735Z" fill="#5F75EE"/>
<path d="M231.969 50.0735L231.969 48.0735L230.239 49.0706L231.969 50.0735ZM274.789 74.9014L276.519 75.9043L274.789 72.9014L274.789 74.9014ZM274.79 84.8282L274.79 86.8282L276.521 85.8311L274.79 84.8282ZM231.97 60.0003L230.24 58.9974C230.24 60.1019 231.015 61.4463 231.97 62.0003L231.97 60.0003ZM231.969 52.0735L274.789 76.9014L274.789 72.9014L231.969 48.0735L231.969 52.0735ZM273.059 73.8985L273.06 83.8253L276.521 85.8311L276.519 75.9043L273.059 73.8985ZM274.79 82.8282L231.97 58.0003L231.97 62.0003L274.79 86.8282L274.79 82.8282ZM233.701 61.0032L233.699 51.0764L230.239 49.0706L230.24 58.9974L233.701 61.0032Z" fill="black" mask="url(#path-2-outside-1_376_69362)"/>
<mask id="path-4-outside-2_376_69362" maskUnits="userSpaceOnUse" x="273.058" y="46.8183" width="46.7158" height="41.0865" fill="black">
<rect fill="white" x="273.058" y="46.8183" width="46.7158" height="41.0865"/>
<path d="M274.79 74.9009L317.61 50.073L317.609 59.9998L274.789 84.8277L274.79 74.9009Z"/>
</mask>
<path d="M274.79 74.9009L317.61 50.073L317.609 59.9998L274.789 84.8277L274.79 74.9009Z" fill="#FEDB9E"/>
<path d="M274.79 74.9009L274.79 72.9009L273.06 75.9038L274.79 74.9009ZM317.61 50.073L319.341 49.0701L317.61 48.073L317.61 50.073ZM317.609 59.9998L317.609 61.9998C318.564 61.4458 319.339 60.1014 319.339 58.9969L317.609 59.9998ZM274.789 84.8277L273.059 85.8306L274.789 86.8277L274.789 84.8277ZM274.79 76.9009L317.61 52.073L317.61 48.073L274.79 72.9009L274.79 76.9009ZM315.88 51.0759L315.879 61.0027L319.339 58.9969L319.341 49.0701L315.88 51.0759ZM317.609 57.9998L274.789 82.8277L274.789 86.8277L317.609 61.9998L317.609 57.9998ZM276.519 83.8248L276.521 73.898L273.06 75.9038L273.059 85.8306L276.519 83.8248Z" fill="black" mask="url(#path-4-outside-2_376_69362)"/>
<mask id="path-6-outside-3_376_69362" maskUnits="userSpaceOnUse" x="228.508" y="22.9939" width="93.4342" height="54.167" fill="black">
<rect fill="white" x="228.508" y="22.9939" width="93.4342" height="54.167"/>
<path d="M231.969 50.0774L274.79 25.2522L317.612 50.0774L274.79 74.9025L231.969 50.0774Z"/>
</mask>
<path d="M231.969 50.0774L274.79 25.2522L317.612 50.0774L274.79 74.9025L231.969 50.0774Z" fill="white"/>
<path d="M231.969 50.0774L230.238 49.0743V51.0805L231.969 50.0774ZM274.79 25.2522L276.521 24.2492C275.565 23.6952 274.016 23.6952 273.06 24.2492L274.79 25.2522ZM317.612 50.0774L319.342 51.0805V49.0743L317.612 50.0774ZM274.79 74.9025L273.06 75.9056H276.521L274.79 74.9025ZM233.699 51.0805L276.521 26.2553L273.06 24.2492L230.238 49.0743L233.699 51.0805ZM273.06 26.2553L315.882 51.0805L319.342 49.0743L276.521 24.2492L273.06 26.2553ZM315.882 49.0743L273.06 73.8994L276.521 75.9056L319.342 51.0805L315.882 49.0743ZM276.521 73.8994L233.699 49.0743L230.238 51.0805L273.06 75.9056L276.521 73.8994Z" fill="black" mask="url(#path-6-outside-3_376_69362)"/>
<circle r="24.4977" transform="matrix(0.866009 0.500028 3.1868e-05 1 271.138 30.2113)" fill="#FEDB9E" stroke="black" stroke-width="2" stroke-linecap="round" stroke-linejoin="round"/>
<path d="M255.903 12.9903C256.198 16.6554 257.627 20.3293 260.197 23.739C261.066 24.8922 262.039 25.9793 263.1 27.0063L260.586 32.2644C260.47 32.5066 260.497 32.8777 260.657 33.2516C260.817 33.6255 261.089 33.9521 261.381 34.1205L264.605 35.9818C264.95 36.1812 265.262 36.1247 265.399 35.8379L271.8 22.4524C271.916 22.2102 271.889 21.8391 271.729 21.4652C271.569 21.0913 271.297 20.7647 271.005 20.5963L267.782 18.735C267.436 18.5356 267.124 18.5921 266.987 18.8789L264.972 23.0922C264.071 22.2591 263.337 21.4484 262.75 20.6698C261.308 18.7562 260.536 16.7542 260.536 14.2703C260.536 9.72257 263.614 6.97181 269.864 10.0346C270.283 10.2406 270.707 10.4669 271.134 10.7137C280.46 16.0982 288.02 29.1928 288.02 39.9613C288.021 42.9804 287.427 45.4951 286.367 47.4331C286.072 43.7681 284.643 40.0942 282.073 36.6845C281.203 35.5297 280.228 34.4411 279.165 33.4127L281.679 28.156C281.794 27.9138 281.768 27.5428 281.608 27.1689C281.448 26.7949 281.175 26.4684 280.884 26.3L277.66 24.4386C277.315 24.2392 277.002 24.2958 276.865 24.5826L274.465 29.6013C273.408 28.8723 272.296 28.174 271.135 27.5036C270.979 27.4138 270.826 27.3241 270.674 27.2342C270.325 27.0273 270.007 27.0815 269.868 27.3717L268.604 30.0157C268.491 30.2519 268.513 30.6111 268.664 30.9766C268.815 31.3422 269.074 31.6676 269.358 31.8471C269.936 32.2124 270.529 32.5699 271.135 32.9199C271.604 33.1906 272.055 33.4617 272.49 33.7327L270.464 37.9681C270.349 38.2103 270.375 38.5813 270.535 38.9552C270.696 39.3292 270.968 39.6558 271.259 39.8242L274.483 41.6855C274.828 41.8849 275.141 41.8283 275.278 41.5416L277.293 37.327C278.196 38.1616 278.932 38.9737 279.52 39.7537C280.962 41.6672 281.734 43.6693 281.734 46.1532C281.734 50.7008 278.656 53.4515 272.406 50.3891L255.903 12.9903ZM255.903 12.9903C254.843 14.9284 254.249 17.4431 254.249 20.4622C254.25 31.2306 261.81 44.3252 271.136 49.7098C271.563 49.9564 271.986 50.1826 272.405 50.3886L255.903 12.9903Z" stroke="black" stroke-width="2" stroke-linecap="round" stroke-linejoin="round"/>
<mask id="path-10-outside-4_376_69362" maskUnits="userSpaceOnUse" x="228.369" y="527.573" width="46.765" height="41.0015" fill="black">
<rect fill="white" x="228.369" y="527.573" width="46.765" height="41.0015"/>
<path d="M230.102 530.573L273.398 555.572L273.399 565.568L230.103 540.569L230.102 530.573Z"/>
</mask>
<path d="M230.102 530.573L273.398 555.572L273.399 565.568L230.103 540.569L230.102 530.573Z" fill="#5F75EE"/>
<path d="M230.102 530.573L230.101 528.573L228.37 529.574L230.102 530.573ZM273.398 555.572L275.13 556.572L273.398 553.572L273.398 555.572ZM273.399 565.568L273.4 567.568L275.131 566.567L273.399 565.568ZM230.103 540.569L228.371 539.569C228.371 540.673 229.147 542.016 230.103 542.569L230.103 540.569ZM230.102 532.573L273.398 557.572L273.398 553.572L230.101 528.573L230.102 532.573ZM271.666 554.573L271.667 564.568L275.131 566.567L275.13 556.572L271.666 554.573ZM273.399 563.568L230.103 538.569L230.103 542.569L273.4 567.568L273.399 563.568ZM231.835 541.568L231.834 531.573L228.37 529.574L228.371 539.569L231.835 541.568Z" fill="black" mask="url(#path-10-outside-4_376_69362)"/>
<mask id="path-12-outside-5_376_69362" maskUnits="userSpaceOnUse" x="271.666" y="527.572" width="46.765" height="41.0015" fill="black">
<rect fill="white" x="271.666" y="527.572" width="46.765" height="41.0015"/>
<path d="M273.4 555.573L316.696 530.574L316.694 540.569L273.398 565.568L273.4 555.573Z"/>
</mask>
<path d="M273.4 555.573L316.696 530.574L316.694 540.569L273.398 565.568L273.4 555.573Z" fill="#FEDB9E"/>
<path d="M273.4 555.573L273.4 553.573L271.668 556.573L273.4 555.573ZM316.696 530.574L318.428 529.574L316.696 528.574L316.696 530.574ZM316.694 540.569L316.694 542.569C317.651 542.017 318.426 540.674 318.426 539.569L316.694 540.569ZM273.398 565.568L271.666 566.568L273.398 567.568L273.398 565.568ZM273.4 557.573L316.696 532.574L316.696 528.574L273.4 553.573L273.4 557.573ZM314.964 531.574L314.962 541.569L318.426 539.569L318.428 529.574L314.964 531.574ZM316.695 538.569L273.398 563.568L273.398 567.568L316.694 542.569L316.695 538.569ZM275.13 564.568L275.132 554.573L271.668 556.573L271.666 566.568L275.13 564.568Z" fill="black" mask="url(#path-12-outside-5_376_69362)"/>
<mask id="path-14-outside-6_376_69362" maskUnits="userSpaceOnUse" x="226.637" y="503.579" width="93.5325" height="53.997" fill="black">
<rect fill="white" x="226.637" y="503.579" width="93.5325" height="53.997"/>
<path d="M230.102 530.577L273.399 505.581L316.697 530.577L273.399 555.574L230.102 530.577Z"/>
</mask>
<path d="M230.102 530.577L273.399 505.581L316.697 530.577L273.399 555.574L230.102 530.577Z" fill="white"/>
<path d="M230.102 530.577L228.369 529.577V531.577L230.102 530.577ZM273.399 505.581L275.132 504.581C274.175 504.029 272.624 504.029 271.667 504.581L273.399 505.581ZM316.697 530.577L318.429 531.577V529.577L316.697 530.577ZM273.399 555.574L271.667 556.574H275.132L273.399 555.574ZM231.834 531.577L275.132 506.581L271.667 504.581L228.369 529.577L231.834 531.577ZM271.667 506.581L314.965 531.577L318.429 529.577L275.132 504.581L271.667 506.581ZM314.965 529.577L271.667 554.574L275.132 556.574L318.429 531.577L314.965 529.577ZM275.132 554.574L231.834 529.577L228.369 531.577L271.667 556.574L275.132 554.574Z" fill="black" mask="url(#path-14-outside-6_376_69362)"/>
<path fill-rule="evenodd" clip-rule="evenodd" d="M288.009 515.906C288.009 513.722 286.49 511.075 284.618 509.993L277.836 506.078L264.274 498.247L257.492 494.331C255.62 493.25 254.102 494.144 254.102 496.329L254.102 503.151L254.103 516.103C254.103 518.287 255.621 520.934 257.493 522.015L284.619 537.677C286.491 538.758 288.009 537.864 288.009 535.68L288.009 522.728L288.009 515.906Z" fill="#FEDB9E"/>
<path d="M264.274 498.247L257.492 494.331C255.62 493.25 254.102 494.144 254.102 496.329L254.102 503.151M264.274 498.247L264.274 494.292C264.274 493.243 264.631 492.444 265.267 492.069C265.903 491.695 266.765 491.776 267.664 492.295L274.446 496.211C275.345 496.73 276.207 497.644 276.843 498.753C277.479 499.862 277.836 501.074 277.836 502.123L277.836 506.078M264.274 498.247L277.836 506.078M277.836 506.078L284.618 509.993C286.49 511.075 288.009 513.722 288.009 515.906L288.009 522.728M254.102 503.151L254.103 516.103C254.103 518.287 255.621 520.934 257.493 522.015L284.619 537.677C286.491 538.758 288.009 537.864 288.009 535.68L288.009 522.728M254.102 503.151C259.912 508.64 263.482 512.013 268.744 516.984M288.009 522.728L273.367 519.654" stroke="black" stroke-width="2" stroke-linecap="round" stroke-linejoin="round"/>
<rect width="5.33952" height="8.00928" transform="matrix(0.86601 0.500028 3.18485e-05 1 268.742 513.386)" fill="white" stroke="black" stroke-width="2" stroke-linecap="round" stroke-linejoin="round"/>
<mask id="path-19-outside-7_376_69362" maskUnits="userSpaceOnUse" x="447.369" y="404.456" width="46.765" height="41.0015" fill="black">
<rect fill="white" x="447.369" y="404.456" width="46.765" height="41.0015"/>
<path d="M449.102 407.456L492.398 432.455L492.399 442.45L449.103 417.452L449.102 407.456Z"/>
</mask>
<path d="M449.102 407.456L492.398 432.455L492.399 442.45L449.103 417.452L449.102 407.456Z" fill="#5F75EE"/>
<path d="M449.102 407.456L449.101 405.456L447.37 406.457L449.102 407.456ZM492.398 432.455L494.13 433.455L492.398 430.455L492.398 432.455ZM492.399 442.45L492.4 444.45L494.131 443.45L492.399 442.45ZM449.103 417.452L447.371 416.452C447.371 417.556 448.147 418.899 449.103 419.452L449.103 417.452ZM449.102 409.456L492.398 434.455L492.398 430.455L449.101 405.456L449.102 409.456ZM490.666 431.456L490.667 441.451L494.131 443.45L494.13 433.455L490.666 431.456ZM492.399 440.45L449.103 415.452L449.103 419.452L492.4 444.45L492.399 440.45ZM450.835 418.451L450.834 408.456L447.37 406.457L447.371 416.452L450.835 418.451Z" fill="black" mask="url(#path-19-outside-7_376_69362)"/>
<mask id="path-21-outside-8_376_69362" maskUnits="userSpaceOnUse" x="490.666" y="404.455" width="46.765" height="41.0015" fill="black">
<rect fill="white" x="490.666" y="404.455" width="46.765" height="41.0015"/>
<path d="M492.4 432.456L535.696 407.457L535.694 417.452L492.398 442.451L492.4 432.456Z"/>
</mask>
<path d="M492.4 432.456L535.696 407.457L535.694 417.452L492.398 442.451L492.4 432.456Z" fill="#FEDB9E"/>
<path d="M492.4 432.456L492.4 430.456L490.668 433.455L492.4 432.456ZM535.696 407.457L537.428 406.457L535.696 405.457L535.696 407.457ZM535.694 417.452L535.694 419.452C536.651 418.9 537.426 417.557 537.426 416.452L535.694 417.452ZM492.398 442.451L490.666 443.451L492.398 444.451L492.398 442.451ZM492.4 434.456L535.696 409.457L535.696 405.457L492.4 430.456L492.4 434.456ZM533.964 408.456L533.962 418.452L537.426 416.452L537.428 406.457L533.964 408.456ZM535.695 415.452L492.398 440.451L492.398 444.451L535.694 419.452L535.695 415.452ZM494.13 441.451L494.132 431.456L490.668 433.455L490.666 443.451L494.13 441.451Z" fill="black" mask="url(#path-21-outside-8_376_69362)"/>
<mask id="path-23-outside-9_376_69362" maskUnits="userSpaceOnUse" x="445.637" y="380.462" width="93.5325" height="53.997" fill="black">
<rect fill="white" x="445.637" y="380.462" width="93.5325" height="53.997"/>
<path d="M449.102 407.46L492.399 382.464L535.697 407.46L492.399 432.456L449.102 407.46Z"/>
</mask>
<path d="M449.102 407.46L492.399 382.464L535.697 407.46L492.399 432.456L449.102 407.46Z" fill="white"/>
<path d="M449.102 407.46L447.369 406.46V408.46L449.102 407.46ZM492.399 382.464L494.132 381.464C493.175 380.912 491.624 380.912 490.667 381.464L492.399 382.464ZM535.697 407.46L537.429 408.46V406.46L535.697 407.46ZM492.399 432.456L490.667 433.456H494.132L492.399 432.456ZM450.834 408.46L494.132 383.464L490.667 381.464L447.369 406.46L450.834 408.46ZM490.667 383.464L533.965 408.46L537.429 406.46L494.132 381.464L490.667 383.464ZM533.965 406.46L490.667 431.456L494.132 433.456L537.429 408.46L533.965 406.46ZM494.132 431.456L450.834 406.46L447.369 408.46L490.667 433.456L494.132 431.456Z" fill="black" mask="url(#path-23-outside-9_376_69362)"/>
<path d="M489.102 405.064L501.702 392.464L507.102 397.864L494.502 410.464L489.102 405.064Z" fill="white"/>
<path d="M499.902 394.264L497.202 380.764L471.102 374.464L477.402 400.564L490.902 403.264L499.902 394.264Z" fill="white"/>
<path d="M471.102 374.464L484.756 388.119Z" fill="white"/>
<path d="M487.302 394.264C489.29 394.264 490.902 392.652 490.902 390.664C490.902 388.676 489.29 387.064 487.302 387.064C485.313 387.064 483.702 388.676 483.702 390.664C483.702 392.652 485.313 394.264 487.302 394.264Z" fill="white"/>
<path d="M471.102 374.464L497.202 380.764L499.902 394.264L490.902 403.264L477.402 400.564L471.102 374.464ZM471.102 374.464L484.756 388.119M489.102 405.064L501.702 392.464L507.102 397.864L494.502 410.464L489.102 405.064ZM490.902 390.664C490.902 392.652 489.29 394.264 487.302 394.264C485.313 394.264 483.702 392.652 483.702 390.664C483.702 388.676 485.313 387.064 487.302 387.064C489.29 387.064 490.902 388.676 490.902 390.664Z" stroke="black" stroke-width="2" stroke-linecap="round" stroke-linejoin="round"/>
<mask id="path-27-outside-10_376_69362" maskUnits="userSpaceOnUse" x="11.2679" y="407.456" width="46.765" height="41.0015" fill="black">
<rect fill="white" x="11.2679" y="407.456" width="46.765" height="41.0015"/>
<path d="M13 410.456L56.2963 435.455L56.2979 445.45L13.0016 420.452L13 410.456Z"/>
</mask>
<path d="M13 410.456L56.2963 435.455L56.2979 445.45L13.0016 420.452L13 410.456Z" fill="#5F75EE"/>
<path d="M13 410.456L12.9999 408.456L11.268 409.457L13 410.456ZM56.2963 435.455L58.0283 436.455L56.2963 433.455L56.2963 435.455ZM56.2979 445.45L56.298 447.45L58.0299 446.45L56.2979 445.45ZM13.0016 420.452L11.2696 419.452C11.2697 420.556 12.0452 421.899 13.0017 422.452L13.0016 420.452ZM13.0001 412.456L56.2964 437.455L56.2963 433.455L12.9999 408.456L13.0001 412.456ZM54.5643 434.456L54.5659 444.451L58.0299 446.45L58.0283 436.455L54.5643 434.456ZM56.2979 443.45L13.0015 418.452L13.0017 422.452L56.298 447.45L56.2979 443.45ZM14.7336 421.451L14.732 411.456L11.268 409.457L11.2696 419.452L14.7336 421.451Z" fill="black" mask="url(#path-27-outside-10_376_69362)"/>
<mask id="path-29-outside-11_376_69362" maskUnits="userSpaceOnUse" x="54.5645" y="407.455" width="46.765" height="41.0015" fill="black">
<rect fill="white" x="54.5645" y="407.455" width="46.765" height="41.0015"/>
<path d="M56.2981 435.456L99.5945 410.457L99.5929 420.452L56.2966 445.451L56.2981 435.456Z"/>
</mask>
<path d="M56.2981 435.456L99.5945 410.457L99.5929 420.452L56.2966 445.451L56.2981 435.456Z" fill="#FEDB9E"/>
<path d="M56.2981 435.456L56.2982 433.456L54.5661 436.455L56.2981 435.456ZM99.5945 410.457L101.326 409.457L99.5945 408.457L99.5945 410.457ZM99.5929 420.452L99.5928 422.452C100.549 421.9 101.325 420.557 101.325 419.452L99.5929 420.452ZM56.2966 445.451L54.5645 446.451L56.2965 447.451L56.2966 445.451ZM56.2981 437.456L99.5944 412.457L99.5945 408.457L56.2982 433.456L56.2981 437.456ZM97.8625 411.456L97.8609 421.452L101.325 419.452L101.326 409.457L97.8625 411.456ZM99.5929 418.452L56.2966 443.451L56.2965 447.451L99.5928 422.452L99.5929 418.452ZM58.0286 444.451L58.0302 434.456L54.5661 436.455L54.5645 446.451L58.0286 444.451Z" fill="black" mask="url(#path-29-outside-11_376_69362)"/>
<mask id="path-31-outside-12_376_69362" maskUnits="userSpaceOnUse" x="9.53583" y="383.462" width="93.5325" height="53.997" fill="black">
<rect fill="white" x="9.53583" y="383.462" width="93.5325" height="53.997"/>
<path d="M13 410.46L56.2979 385.464L99.5958 410.46L56.2979 435.456L13 410.46Z"/>
</mask>
<path d="M13 410.46L56.2979 385.464L99.5958 410.46L56.2979 435.456L13 410.46Z" fill="white"/>
<path d="M13 410.46L11.2679 409.46V411.46L13 410.46ZM56.2979 385.464L58.03 384.464C57.0734 383.912 55.5224 383.912 54.5658 384.464L56.2979 385.464ZM99.5958 410.46L101.328 411.46V409.46L99.5958 410.46ZM56.2979 435.456L54.5658 436.456H58.03L56.2979 435.456ZM14.7321 411.46L58.03 386.464L54.5658 384.464L11.2679 409.46L14.7321 411.46ZM54.5658 386.464L97.8638 411.46L101.328 409.46L58.03 384.464L54.5658 386.464ZM97.8638 409.46L54.5658 434.456L58.03 436.456L101.328 411.46L97.8638 409.46ZM58.03 434.456L14.7321 409.46L11.2679 411.46L54.5658 436.456L58.03 434.456Z" fill="black" mask="url(#path-31-outside-12_376_69362)"/>
<path d="M71.1056 375.539L38.661 356.806C36.4212 355.513 34.6055 356.567 34.6056 359.162L34.6064 382.649C34.6064 385.243 36.4223 388.395 38.6621 389.688L71.1066 408.422C73.3464 409.715 75.1621 408.66 75.162 406.066L75.1613 382.578C75.1612 379.984 73.3454 376.832 71.1056 375.539Z" fill="white"/>
<path d="M46.7735 403.767L62.9958 413.133M54.8843 399.055L54.8846 408.45M38.661 356.806L71.1056 375.539C73.3454 376.832 75.1612 379.984 75.1613 382.578L75.162 406.066C75.1621 408.66 73.3464 409.715 71.1066 408.422L38.6621 389.688C36.4223 388.395 34.6064 385.243 34.6064 382.649L34.6056 359.162C34.6055 356.567 36.4212 355.513 38.661 356.806Z" stroke="black" stroke-width="2" stroke-linecap="round" stroke-linejoin="round"/>
<path d="M47.5281 374.097L48.2998 375.838L43.7403 376.851L48.3468 383.209L47.5284 384.087L41.3086 375.501L47.5281 374.097Z" fill="black"/>
<path d="M52.2664 390.225L50.6764 389.306L56.7552 374.187L58.3452 375.105L52.2664 390.225Z" fill="black"/>
<path d="M61.507 392.158L60.7353 390.417L65.2714 389.391L60.6884 383.046L61.5067 382.168L67.7265 390.754L61.507 392.158Z" fill="black"/>
<mask id="path-36-outside-13_376_69362" maskUnits="userSpaceOnUse" x="445.682" y="161.456" width="46.765" height="41.0015" fill="black">
<rect fill="white" x="445.682" y="161.456" width="46.765" height="41.0015"/>
<path d="M447.414 164.456L490.71 189.455L490.712 199.45L447.416 174.452L447.414 164.456Z"/>
</mask>
<path d="M447.414 164.456L490.71 189.455L490.712 199.45L447.416 174.452L447.414 164.456Z" fill="#5F75EE"/>
<path d="M447.414 164.456L447.414 162.456L445.682 163.457L447.414 164.456ZM490.71 189.455L492.442 190.455L490.71 187.455L490.71 189.455ZM490.712 199.45L490.712 201.45L492.444 200.45L490.712 199.45ZM447.416 174.452L445.684 173.452C445.684 174.556 446.459 175.899 447.416 176.452L447.416 174.452ZM447.414 166.456L490.71 191.455L490.71 187.455L447.414 162.456L447.414 166.456ZM488.978 188.456L488.98 198.451L492.444 200.45L492.442 190.455L488.978 188.456ZM490.712 197.45L447.416 172.452L447.416 176.452L490.712 201.45L490.712 197.45ZM449.148 175.451L449.146 165.456L445.682 163.457L445.684 173.452L449.148 175.451Z" fill="black" mask="url(#path-36-outside-13_376_69362)"/>
<mask id="path-38-outside-14_376_69362" maskUnits="userSpaceOnUse" x="488.979" y="161.455" width="46.765" height="41.0015" fill="black">
<rect fill="white" x="488.979" y="161.455" width="46.765" height="41.0015"/>
<path d="M490.712 189.456L534.009 164.457L534.007 174.452L490.711 199.451L490.712 189.456Z"/>
</mask>
<path d="M490.712 189.456L534.009 164.457L534.007 174.452L490.711 199.451L490.712 189.456Z" fill="#FEDB9E"/>
<path d="M490.712 189.456L490.712 187.456L488.98 190.455L490.712 189.456ZM534.009 164.457L535.741 163.457L534.009 162.457L534.009 164.457ZM534.007 174.452L534.007 176.452C534.963 175.9 535.739 174.557 535.739 173.452L534.007 174.452ZM490.711 199.451L488.979 200.451L490.711 201.451L490.711 199.451ZM490.712 191.456L534.008 166.457L534.009 162.457L490.712 187.456L490.712 191.456ZM532.277 165.456L532.275 175.452L535.739 173.452L535.741 163.457L532.277 165.456ZM534.007 172.452L490.711 197.451L490.711 201.451L534.007 176.452L534.007 172.452ZM492.443 198.451L492.444 188.456L488.98 190.455L488.979 200.451L492.443 198.451Z" fill="black" mask="url(#path-38-outside-14_376_69362)"/>
<mask id="path-40-outside-15_376_69362" maskUnits="userSpaceOnUse" x="443.95" y="137.462" width="93.5325" height="53.997" fill="black">
<rect fill="white" x="443.95" y="137.462" width="93.5325" height="53.997"/>
<path d="M447.414 164.46L490.712 139.464L534.01 164.46L490.712 189.456L447.414 164.46Z"/>
</mask>
<path d="M447.414 164.46L490.712 139.464L534.01 164.46L490.712 189.456L447.414 164.46Z" fill="white"/>
<path d="M447.414 164.46L445.682 163.46V165.46L447.414 164.46ZM490.712 139.464L492.444 138.464C491.487 137.912 489.937 137.912 488.98 138.464L490.712 139.464ZM534.01 164.46L535.742 165.46V163.46L534.01 164.46ZM490.712 189.456L488.98 190.456H492.444L490.712 189.456ZM449.146 165.46L492.444 140.464L488.98 138.464L445.682 163.46L449.146 165.46ZM488.98 140.464L532.278 165.46L535.742 163.46L492.444 138.464L488.98 140.464ZM532.278 163.46L488.98 188.456L492.444 190.456L535.742 165.46L532.278 163.46ZM492.444 188.456L449.146 163.46L445.682 165.46L488.98 190.456L492.444 188.456Z" fill="black" mask="url(#path-40-outside-15_376_69362)"/>
<path d="M490.797 122.208L477.297 114.413C476.402 113.896 475.543 113.805 474.91 114.159C474.278 114.513 473.922 115.284 473.922 116.301L473.923 146.999C473.923 148.017 474.279 149.198 474.912 150.283C475.545 151.369 476.403 152.268 477.298 152.785L497.548 164.478C498.443 164.994 499.302 165.086 499.935 164.732C500.568 164.377 500.923 163.607 500.923 162.589L500.922 139.566L490.797 122.208Z" fill="white"/>
<path d="M490.797 122.208L490.797 133.719L500.922 139.566" fill="white"/>
<path d="M484.047 131.741L480.672 129.792Z" fill="white"/>
<path d="M490.797 122.208L477.297 114.413C476.402 113.896 475.543 113.805 474.91 114.159C474.278 114.513 473.922 115.284 473.922 116.301L473.923 146.999C473.923 148.017 474.279 149.198 474.912 150.283C475.545 151.369 476.403 152.268 477.298 152.785L497.548 164.478C498.443 164.994 499.302 165.086 499.935 164.732C500.568 164.377 500.923 163.607 500.923 162.589L500.922 139.566M490.797 122.208L500.922 139.566M490.797 122.208L490.797 133.719L500.922 139.566M494.173 145.261L480.673 137.466M494.173 152.936L480.673 145.141M484.047 131.741L480.672 129.792" stroke="black" stroke-width="2" stroke-linecap="round" stroke-linejoin="round"/>
<path d="M496.062 166.963C499.41 168.896 502.123 167.329 502.123 163.463C502.123 159.598 499.409 154.897 496.061 152.964C492.714 151.031 490 152.598 490 156.463C490 160.329 492.714 165.03 496.062 166.963Z" fill="#FEDB9E"/>
<path d="M492.78 163.958L491.733 172.462L496.062 171.962L500.392 177.462L499.344 167.738" fill="#FEDB9E"/>
<path d="M492.78 163.958L491.733 172.462L496.062 171.962L500.392 177.462L499.344 167.738M502.123 163.463C502.123 167.329 499.41 168.896 496.062 166.963C492.714 165.03 490 160.329 490 156.463C490 152.598 492.714 151.031 496.061 152.964C499.409 154.897 502.123 159.598 502.123 163.463Z" stroke="black" stroke-width="2" stroke-linecap="round" stroke-linejoin="round"/>
<mask id="path-46-outside-16_376_69362" maskUnits="userSpaceOnUse" x="16.2697" y="164.812" width="46.7158" height="41.0865" fill="black">
<rect fill="white" x="16.2697" y="164.812" width="46.7158" height="41.0865"/>
<path d="M18 167.816L60.82 192.644L60.8216 202.57L18.0016 177.742L18 167.816Z"/>
</mask>
<path d="M18 167.816L60.82 192.644L60.8216 202.57L18.0016 177.742L18 167.816Z" fill="#5F75EE"/>
<path d="M18 167.816L17.9999 165.816L16.2698 166.813L18 167.816ZM60.82 192.644L62.5502 193.646L60.8199 190.644L60.82 192.644ZM60.8216 202.57L60.8216 204.57L62.5518 203.573L60.8216 202.57ZM18.0016 177.742L16.2714 176.74C16.2716 177.844 17.0462 179.188 18.0016 179.742L18.0016 177.742ZM18.0001 169.816L60.8201 194.644L60.8199 190.644L17.9999 165.816L18.0001 169.816ZM59.0898 191.641L59.0914 201.567L62.5518 203.573L62.5502 193.646L59.0898 191.641ZM60.8215 200.57L18.0015 175.742L18.0016 179.742L60.8216 204.57L60.8215 200.57ZM19.7318 178.745L19.7302 168.819L16.2698 166.813L16.2714 176.74L19.7318 178.745Z" fill="black" mask="url(#path-46-outside-16_376_69362)"/>
<mask id="path-48-outside-17_376_69362" maskUnits="userSpaceOnUse" x="59.0897" y="164.561" width="46.7158" height="41.0865" fill="black">
<rect fill="white" x="59.0897" y="164.561" width="46.7158" height="41.0865"/>
<path d="M60.8216 192.643L103.642 167.815L103.64 177.742L60.82 202.57L60.8216 192.643Z"/>
</mask>
<path d="M60.8216 192.643L103.642 167.815L103.64 177.742L60.82 202.57L60.8216 192.643Z" fill="#FEDB9E"/>
<path d="M60.8216 192.643L60.8216 190.643L59.0914 193.646L60.8216 192.643ZM103.642 167.815L105.372 166.812L103.642 165.815L103.642 167.815ZM103.64 177.742L103.64 179.742C104.595 179.188 105.37 177.844 105.37 176.739L103.64 177.742ZM60.82 202.57L59.0898 203.573L60.8199 204.57L60.82 202.57ZM60.8215 194.643L103.642 169.815L103.642 165.815L60.8216 190.643L60.8215 194.643ZM101.911 168.818L101.91 178.745L105.37 176.739L105.372 166.812L101.911 168.818ZM103.64 175.742L60.8201 200.57L60.8199 204.57L103.64 179.742L103.64 175.742ZM62.5502 201.567L62.5518 191.64L59.0914 193.646L59.0898 203.573L62.5502 201.567Z" fill="black" mask="url(#path-48-outside-17_376_69362)"/>
<mask id="path-50-outside-18_376_69362" maskUnits="userSpaceOnUse" x="14.5395" y="140.736" width="93.4342" height="54.167" fill="black">
<rect fill="white" x="14.5395" y="140.736" width="93.4342" height="54.167"/>
<path d="M18 167.82L60.8216 142.994L103.643 167.82L60.8216 192.645L18 167.82Z"/>
</mask>
<path d="M18 167.82L60.8216 142.994L103.643 167.82L60.8216 192.645L18 167.82Z" fill="white"/>
<path d="M18 167.82L16.2697 166.816V168.823L18 167.82ZM60.8216 142.994L62.5519 141.991C61.5963 141.437 60.0469 141.437 59.0913 141.991L60.8216 142.994ZM103.643 167.82L105.373 168.823V166.816L103.643 167.82ZM60.8216 192.645L59.0913 193.648H62.5519L60.8216 192.645ZM19.7303 168.823L62.5519 143.998L59.0913 141.991L16.2697 166.816L19.7303 168.823ZM59.0913 143.998L101.913 168.823L105.373 166.816L62.5519 141.991L59.0913 143.998ZM101.913 166.816L59.0913 191.642L62.5519 193.648L105.373 168.823L101.913 166.816ZM62.5519 191.642L19.7303 166.816L16.2697 168.823L59.0913 193.648L62.5519 191.642Z" fill="black" mask="url(#path-50-outside-18_376_69362)"/>
<path d="M73.8276 136.961C73.8277 139.822 73.2661 142.204 72.2639 144.041C71.6952 145.083 71.0693 146.089 70.4316 147.114C70.3617 147.226 70.2917 147.339 70.2216 147.451C69.5154 148.588 68.8029 149.752 68.1696 150.989C66.9039 153.461 65.9245 156.279 65.9246 159.908L65.9247 162.927L49.6934 153.555L49.6933 150.536C49.6931 146.907 48.7135 142.958 47.4476 139.024C46.8142 137.056 46.1016 135.069 45.3953 133.117C45.3252 132.923 45.2552 132.73 45.1853 132.537C44.5475 130.775 43.9216 129.047 43.3527 127.347C42.3504 124.353 41.7886 121.323 41.7885 118.462C41.7882 108.246 48.9602 104.105 57.8075 109.214C66.6547 114.322 73.8273 126.745 73.8276 136.961Z" fill="#FEDB9E" stroke="black" stroke-width="2"/>
<path d="M58.1956 121.464L58.1963 143.462M62.5253 127.964L56.0309 124.214C55.2271 123.75 54.4562 123.673 53.8878 124.001C53.3195 124.329 53.0002 125.035 53.0002 125.963C53.0003 126.892 53.3196 127.966 53.888 128.951C54.4564 129.935 55.2273 130.749 56.0311 131.213L60.3607 133.713C61.1645 134.177 61.9354 134.991 62.5038 135.975C63.0722 136.96 63.3916 138.034 63.3916 138.962C63.3916 139.891 63.0723 140.596 62.504 140.925C61.9356 141.253 61.1648 141.176 60.3609 140.712L53.0006 136.462" stroke="black" stroke-width="2" stroke-linecap="round" stroke-linejoin="round"/>
<path d="M49.6944 160.786L49.6943 158.969L65.9256 166.092L65.9256 167.815L49.6944 160.786ZM49.9984 162.934L65.7696 169.763C65.3471 171.037 64.1147 171.423 62.6602 170.584L50.7146 163.686C50.4355 163.525 50.1826 163.25 49.9984 162.934ZM65.7788 164.013L49.6942 156.955L49.6942 154.726L65.7788 164.013Z" fill="white" stroke="black" stroke-width="2"/>
<path d="M53.4513 166.433L62.1705 171.468C61.8249 172.283 60.9684 172.507 59.9666 171.929L55.6554 169.44C54.6536 168.861 53.797 167.648 53.4513 166.433Z" fill="white" stroke="black" stroke-width="2"/>
<path d="M303.34 367.336V382.826H240.66V367.336C240.66 352.969 233.567 340.343 225.114 327.844C223.229 325.057 221.277 322.277 219.315 319.482C212.427 309.671 205.416 299.685 200.734 288.599L200.724 288.577L200.714 288.555C195.77 278.236 193 266.675 193 254.464C193 210.834 228.37 175.464 272 175.464C315.63 175.464 351 210.834 351 254.464C351 266.675 348.23 278.236 343.286 288.555L343.276 288.577L343.266 288.599C338.584 299.685 331.573 309.671 324.685 319.482C322.723 322.277 320.771 325.057 318.886 327.844C310.433 340.343 303.34 352.969 303.34 367.336Z" fill="#FEDB9E" stroke="black" stroke-width="2"/>
<path d="M269.038 380.24C269.138 381.617 268.103 382.814 266.726 382.914C265.349 383.014 264.151 381.978 264.052 380.601L269.038 380.24ZM261.934 316.766L259.441 316.947C259.379 316.09 259.761 315.261 260.454 314.752C261.146 314.243 262.051 314.125 262.85 314.44L261.934 316.766ZM266.545 325.815L268.998 326.296L266.545 325.815ZM255.947 312.335L253.869 310.946C254.459 310.063 255.543 309.649 256.572 309.915C257.601 310.18 258.349 311.067 258.438 312.126L255.947 312.335ZM247.93 317.463C246.55 317.425 245.463 316.275 245.501 314.895C245.539 313.514 246.689 312.427 248.07 312.465L247.93 317.463ZM264.052 380.601L259.441 316.947L264.428 316.586L269.038 380.24L264.052 380.601ZM262.85 314.44C263.146 314.556 265.369 315.172 267.045 316.969C268.897 318.955 269.846 321.974 268.998 326.296L264.092 325.334C264.701 322.228 263.92 320.949 263.389 320.38C262.683 319.623 261.872 319.428 261.018 319.092L262.85 314.44ZM268.998 326.296C268.614 328.255 267.551 330.145 265.619 330.993C263.589 331.884 261.459 331.262 259.807 329.928C258.183 328.617 256.804 326.498 255.738 323.697C254.662 320.866 253.846 317.182 253.456 312.545L258.438 312.126C258.8 316.425 259.541 319.629 260.412 321.92C261.294 324.241 262.254 325.478 262.948 326.038C263.613 326.575 263.778 326.34 263.609 326.414C263.537 326.446 263.899 326.316 264.092 325.334L268.998 326.296ZM258.026 313.724C256.47 316.052 254.276 316.995 252.335 317.339C250.53 317.659 248.671 317.484 247.93 317.463L248.07 312.465C249.281 312.499 250.318 312.619 251.461 312.416C252.468 312.238 253.272 311.839 253.869 310.946L258.026 313.724Z" fill="#160A2F"/>
<path d="M274.776 381.955C274.684 383.332 275.726 384.524 277.103 384.616C278.481 384.709 279.672 383.667 279.765 382.289L274.776 381.955ZM281.462 319.64L283.956 319.807C284.015 318.933 283.612 318.092 282.894 317.591C282.176 317.089 281.248 316.999 280.448 317.355L281.462 319.64ZM277.271 328.909L274.808 329.338L277.271 328.909ZM288.091 311.484L290.241 310.208C289.69 309.278 288.602 308.808 287.546 309.044C286.49 309.28 285.706 310.168 285.603 311.244L288.091 311.484ZM296.68 317.387C298.06 317.343 299.144 316.19 299.101 314.81C299.057 313.429 297.903 312.346 296.523 312.389L296.68 317.387ZM279.765 382.289L283.956 319.807L278.968 319.472L274.776 381.955L279.765 382.289ZM280.448 317.355C280.194 317.467 278.104 318.125 276.552 320.001C274.886 322.013 274.055 325.015 274.808 329.338L279.733 328.481C279.161 325.194 279.904 323.793 280.404 323.189C281.017 322.447 281.685 322.276 282.476 321.925L280.448 317.355ZM274.808 329.338C275.138 331.235 276.122 333.311 278.202 334.121C280.442 334.994 282.587 333.91 284.084 332.365C285.606 330.794 286.947 328.337 288.039 325.027C289.142 321.68 290.044 317.301 290.58 311.723L285.603 311.244C285.092 316.559 284.248 320.556 283.29 323.461C282.32 326.402 281.284 328.07 280.493 328.885C279.678 329.727 279.577 329.291 280.017 329.463C280.297 329.572 279.928 329.597 279.733 328.481L274.808 329.338ZM285.941 312.759C287.387 315.197 289.788 316.328 291.767 316.858C293.765 317.394 295.679 317.418 296.68 317.387L296.523 312.389C295.75 312.413 294.388 312.385 293.063 312.029C291.719 311.669 290.752 311.069 290.241 310.208L285.941 312.759Z" fill="#160A2F"/>
<path d="M297.702 315.04C288.091 300.205 269.596 304.636 249.389 293.861C228.898 282.934 276.721 282.453 297.702 273.262C319.073 263.901 260.491 269.777 246.24 254.565C231.989 239.354 320.431 235.891 297.702 232.382C290.465 231.265 283.037 230.797 283.037 230.797M264.036 230.797C264.036 230.797 255.226 230.1 247.825 230.797C220.857 233.338 326.202 247.91 296.099 254.565C265.996 261.22 229.747 264.315 247.82 275.164C269.993 288.474 325.016 283.403 292.556 293.861C270.599 300.935 255.75 300.985 247.825 315.04" stroke="white" stroke-width="5" stroke-linecap="round"/>
<path d="M252.492 420.57H291.343V428.889C291.343 431.65 289.105 433.889 286.343 433.889H257.492C254.731 433.889 252.492 431.65 252.492 428.889V420.57Z" fill="white" stroke="black" stroke-width="2"/>
<path d="M240.578 414.974V414.887L303.259 404.578V414.974C303.259 418.84 300.125 421.974 296.259 421.974H247.578C243.712 421.974 240.578 418.84 240.578 414.974ZM303.259 402.551L240.578 412.86V398.293V381.421H303.259V388.081V402.551Z" fill="white" stroke="black" stroke-width="2"/>
<path fill-rule="evenodd" clip-rule="evenodd" d="M310.204 205.312C309.335 206.542 307.639 206.829 306.362 206.03C287.121 193.985 258.15 193.958 238.315 206.097C237.031 206.883 235.338 206.572 234.486 205.331L231.799 201.413C230.948 200.171 231.262 198.469 232.539 197.673C255.782 183.187 289.494 183.14 312.253 197.684C313.521 198.495 313.811 200.201 312.943 201.431L310.204 205.312Z" fill="black"/>
<mask id="mask0_376_69362" style="mask-type:alpha" maskUnits="userSpaceOnUse" x="231" y="129" width="80" height="72">
<path fill-rule="evenodd" clip-rule="evenodd" d="M297.701 199.248C305.864 191.925 311 181.294 311 169.464C311 147.373 293.091 129.464 271 129.464C248.909 129.464 231 147.373 231 169.464C231 181.756 236.544 192.753 245.269 200.09C253.615 196.471 262.823 194.464 272.5 194.464C281.398 194.464 289.901 196.161 297.701 199.248Z" fill="#C4C4C4"/>
</mask>
<g mask="url(#mask0_376_69362)">
<circle cx="271" cy="169.464" r="39" fill="white" stroke="black" stroke-width="2"/>
<circle cx="271" cy="169.464" r="30" fill="#BAC4FA"/>
<path fill-rule="evenodd" clip-rule="evenodd" d="M271.002 200.577C288.184 200.577 302.113 186.648 302.113 169.466C302.113 152.284 288.184 138.355 271.002 138.355C253.82 138.355 239.891 152.284 239.891 169.466C239.891 186.648 253.82 200.577 271.002 200.577ZM247.928 155.651C247.928 160.931 250.025 165.065 254.192 167.769C255.832 168.834 257.758 169.654 259.943 170.251L255.084 181.48H260.322L270.724 157.442H265.486L261.586 166.454C259.5 165.938 257.783 165.225 256.418 164.339C253.525 162.462 252.017 159.685 252.017 155.651C252.017 150.521 254.783 145.612 260.052 142.772C263.429 141.385 267.127 140.62 271.004 140.62C286.934 140.62 299.847 153.534 299.847 169.464C299.847 176.221 297.524 182.435 293.632 187.352C293.928 186.041 294.08 184.683 294.08 183.293C294.08 178.013 291.983 173.879 287.816 171.175C286.14 170.087 284.167 169.255 281.923 168.654L286.775 157.442H281.537L277.075 167.754C275.182 167.533 273.155 167.427 271.004 167.427C270.69 167.427 270.381 167.425 270.076 167.42L268.329 171.458C269.197 171.497 270.089 171.516 271.004 171.516C272.563 171.516 274.018 171.576 275.371 171.691L271.135 181.48H276.373L280.278 172.455C282.43 172.974 284.193 173.698 285.59 174.605C288.483 176.482 289.991 179.258 289.991 183.293C289.991 188.383 287.269 193.254 282.08 196.104C278.669 197.524 274.928 198.307 271.004 198.307C255.074 198.307 242.16 185.394 242.16 169.464C242.16 162.704 244.486 156.486 248.381 151.569C248.082 152.887 247.928 154.253 247.928 155.651Z" fill="black"/>
</g>
</g>
<defs>
<clipPath id="clip0_376_69362">
<rect width="548" height="574" fill="white" transform="translate(0 0.276611)"/>
</clipPath>
</defs>
</svg>
