<svg width="84" height="85" viewBox="0 0 84 85" fill="none" xmlns="http://www.w3.org/2000/svg">
<circle cx="42" cy="42.5532" r="41.5" fill="white" stroke="black"/>
<circle cx="42.1289" cy="42.7095" r="31.5" fill="black" stroke="black" stroke-width="3"/>
<path fill-rule="evenodd" clip-rule="evenodd" d="M25.2057 41.2402C20.9362 38.4696 18.7865 34.2371 18.7865 28.8183C18.7865 26.6728 19.1399 24.6 19.8176 22.654C15.0376 27.9682 12.1289 34.9991 12.1289 42.7094C12.1289 59.278 25.5604 72.7094 42.1289 72.7094C47.3091 72.7094 52.1826 71.3965 56.4349 69.0852C60.2421 66.0748 62.2291 61.8048 62.2291 57.3663C62.2291 53.1657 60.6552 50.2612 57.6325 48.2997C56.1961 47.3676 54.3902 46.6217 52.195 46.0847L48.1213 55.4985H42.7115L47.1324 45.2824C45.7018 45.1567 44.1612 45.0923 42.5078 45.0923C41.5758 45.0923 40.6667 45.073 39.7812 45.0339L41.4905 41.0839C41.8248 41.0895 42.1638 41.0923 42.5078 41.0923C44.7395 41.0923 46.8399 41.2026 48.7985 41.4323L53.4539 30.6743H58.8637L53.8033 42.3683C56.0915 42.9851 58.1024 43.8362 59.8099 44.9443C64.0794 47.7149 66.2291 51.9474 66.2291 57.3663C66.2291 58.6228 66.1079 59.8545 65.8713 61.0503C69.7944 55.9792 72.1289 49.617 72.1289 42.7094C72.1289 26.2674 58.9017 12.9147 42.5078 12.7118V12.8206C29.7233 12.8206 22.7865 20.5252 22.7865 28.8183C22.7865 33.0189 24.3604 35.9233 27.3831 37.8848C28.8148 38.8139 30.6137 39.558 32.7992 40.0946L36.8758 30.6743H42.2856L31.5432 55.4985H26.1334L31.1912 43.8105C28.9117 43.1941 26.9079 42.3449 25.2057 41.2402Z" fill="#BAC4FA"/>
</svg>
