<svg width="96" height="23" viewBox="0 0 96 23" fill="none" xmlns="http://www.w3.org/2000/svg">
<path d="M1.27369 18V5.4H3.57769V10.638H9.22969V5.4H11.5337V18H9.22969V12.51H3.57769V18H1.27369ZM14.6847 21.96L16.7547 17.406H16.2147L12.7407 9.072H15.2427L17.7447 15.354L20.3547 9.072H22.8027L17.1327 21.96H14.6847ZM23.9489 21.96V9.072H26.0009L26.2529 10.35C26.5409 9.954 26.9189 9.606 27.3869 9.306C27.8669 9.006 28.4849 8.856 29.2409 8.856C30.0809 8.856 30.8309 9.06 31.4909 9.468C32.1509 9.876 32.6729 10.434 33.0569 11.142C33.4409 11.85 33.6329 12.654 33.6329 13.554C33.6329 14.454 33.4409 15.258 33.0569 15.966C32.6729 16.662 32.1509 17.214 31.4909 17.622C30.8309 18.018 30.0809 18.216 29.2409 18.216C28.5689 18.216 27.9809 18.09 27.4769 17.838C26.9729 17.586 26.5649 17.232 26.2529 16.776V21.96H23.9489ZM28.7549 16.2C29.4869 16.2 30.0929 15.954 30.5729 15.462C31.0529 14.97 31.2929 14.334 31.2929 13.554C31.2929 12.774 31.0529 12.132 30.5729 11.628C30.0929 11.124 29.4869 10.872 28.7549 10.872C28.0109 10.872 27.3989 11.124 26.9189 11.628C26.4509 12.12 26.2169 12.756 26.2169 13.536C26.2169 14.316 26.4509 14.958 26.9189 15.462C27.3989 15.954 28.0109 16.2 28.7549 16.2ZM39.6691 18.216C38.7691 18.216 37.9711 18.024 37.2751 17.64C36.5791 17.256 36.0331 16.716 35.6371 16.02C35.2411 15.324 35.0431 14.52 35.0431 13.608C35.0431 12.684 35.2351 11.862 35.6191 11.142C36.0151 10.422 36.5551 9.864 37.2391 9.468C37.9351 9.06 38.7511 8.856 39.6871 8.856C40.5631 8.856 41.3371 9.048 42.0091 9.432C42.6811 9.816 43.2031 10.344 43.5751 11.016C43.9591 11.676 44.1511 12.414 44.1511 13.23C44.1511 13.362 44.1451 13.5 44.1331 13.644C44.1331 13.788 44.1271 13.938 44.1151 14.094H37.3291C37.3771 14.79 37.6171 15.336 38.0491 15.732C38.4931 16.128 39.0271 16.326 39.6511 16.326C40.1191 16.326 40.5091 16.224 40.8211 16.02C41.1451 15.804 41.3851 15.528 41.5411 15.192H43.8811C43.7131 15.756 43.4311 16.272 43.0351 16.74C42.6511 17.196 42.1711 17.556 41.5951 17.82C41.0311 18.084 40.3891 18.216 39.6691 18.216ZM39.6871 10.728C39.1231 10.728 38.6251 10.89 38.1931 11.214C37.7611 11.526 37.4851 12.006 37.3651 12.654H41.8111C41.7751 12.066 41.5591 11.598 41.1631 11.25C40.7671 10.902 40.2751 10.728 39.6871 10.728ZM45.7289 18V9.072H47.7809L47.9969 10.746C48.3209 10.17 48.7589 9.714 49.3109 9.378C49.8749 9.03 50.5349 8.856 51.2909 8.856V11.286H50.6429C50.1389 11.286 49.6889 11.364 49.2929 11.52C48.8969 11.676 48.5849 11.946 48.3569 12.33C48.1409 12.714 48.0329 13.248 48.0329 13.932V18H45.7289ZM56.1956 18.216C55.4036 18.216 54.7076 18.09 54.1076 17.838C53.5076 17.574 53.0276 17.214 52.6676 16.758C52.3076 16.302 52.0916 15.774 52.0196 15.174H54.3416C54.4136 15.522 54.6056 15.822 54.9176 16.074C55.2416 16.314 55.6556 16.434 56.1596 16.434C56.6636 16.434 57.0296 16.332 57.2576 16.128C57.4976 15.924 57.6176 15.69 57.6176 15.426C57.6176 15.042 57.4496 14.784 57.1136 14.652C56.7776 14.508 56.3096 14.37 55.7096 14.238C55.3256 14.154 54.9356 14.052 54.5396 13.932C54.1436 13.812 53.7776 13.662 53.4416 13.482C53.1176 13.29 52.8536 13.05 52.6496 12.762C52.4456 12.462 52.3436 12.096 52.3436 11.664C52.3436 10.872 52.6556 10.206 53.2796 9.666C53.9156 9.126 54.8036 8.856 55.9436 8.856C56.9996 8.856 57.8396 9.102 58.4636 9.594C59.0996 10.086 59.4776 10.764 59.5976 11.628H57.4196C57.2876 10.968 56.7896 10.638 55.9256 10.638C55.4936 10.638 55.1576 10.722 54.9176 10.89C54.6896 11.058 54.5756 11.268 54.5756 11.52C54.5756 11.784 54.7496 11.994 55.0976 12.15C55.4456 12.306 55.9076 12.45 56.4836 12.582C57.1076 12.726 57.6776 12.888 58.1936 13.068C58.7216 13.236 59.1416 13.494 59.4536 13.842C59.7656 14.178 59.9216 14.664 59.9216 15.3C59.9336 15.852 59.7896 16.35 59.4896 16.794C59.1896 17.238 58.7576 17.586 58.1936 17.838C57.6296 18.09 56.9636 18.216 56.1956 18.216ZM65.9767 18.216C65.0647 18.216 64.2607 18.018 63.5647 17.622C62.8687 17.226 62.3167 16.674 61.9087 15.966C61.5127 15.258 61.3147 14.448 61.3147 13.536C61.3147 12.624 61.5127 11.814 61.9087 11.106C62.3167 10.398 62.8687 9.846 63.5647 9.45C64.2607 9.054 65.0647 8.856 65.9767 8.856C67.1167 8.856 68.0767 9.156 68.8567 9.756C69.6367 10.344 70.1347 11.16 70.3507 12.204H67.9207C67.8007 11.772 67.5607 11.436 67.2007 11.196C66.8527 10.944 66.4387 10.818 65.9587 10.818C65.3227 10.818 64.7827 11.058 64.3387 11.538C63.8947 12.018 63.6727 12.684 63.6727 13.536C63.6727 14.388 63.8947 15.054 64.3387 15.534C64.7827 16.014 65.3227 16.254 65.9587 16.254C66.4387 16.254 66.8527 16.134 67.2007 15.894C67.5607 15.654 67.8007 15.312 67.9207 14.868H70.3507C70.1347 15.876 69.6367 16.686 68.8567 17.298C68.0767 17.91 67.1167 18.216 65.9767 18.216ZM75.1136 18.216C74.3456 18.216 73.7156 18.096 73.2236 17.856C72.7316 17.604 72.3656 17.274 72.1256 16.866C71.8856 16.458 71.7656 16.008 71.7656 15.516C71.7656 14.688 72.0896 14.016 72.7376 13.5C73.3856 12.984 74.3576 12.726 75.6536 12.726H77.9216V12.51C77.9216 11.898 77.7476 11.448 77.3996 11.16C77.0516 10.872 76.6196 10.728 76.1036 10.728C75.6356 10.728 75.2276 10.842 74.8796 11.07C74.5316 11.286 74.3156 11.61 74.2316 12.042H71.9816C72.0416 11.394 72.2576 10.83 72.6296 10.35C73.0136 9.87 73.5056 9.504 74.1056 9.252C74.7056 8.988 75.3776 8.856 76.1216 8.856C77.3936 8.856 78.3956 9.174 79.1276 9.81C79.8596 10.446 80.2256 11.346 80.2256 12.51V18H78.2636L78.0476 16.56C77.7836 17.04 77.4116 17.436 76.9316 17.748C76.4636 18.06 75.8576 18.216 75.1136 18.216ZM75.6356 16.416C76.2956 16.416 76.8056 16.2 77.1656 15.768C77.5376 15.336 77.7716 14.802 77.8676 14.166H75.9056C75.2936 14.166 74.8556 14.28 74.5916 14.508C74.3276 14.724 74.1956 14.994 74.1956 15.318C74.1956 15.666 74.3276 15.936 74.5916 16.128C74.8556 16.32 75.2036 16.416 75.6356 16.416ZM82.0643 18V5.04H84.3683V18H82.0643ZM90.7005 18.216C89.8005 18.216 89.0025 18.024 88.3065 17.64C87.6105 17.256 87.0645 16.716 86.6685 16.02C86.2725 15.324 86.0745 14.52 86.0745 13.608C86.0745 12.684 86.2665 11.862 86.6505 11.142C87.0465 10.422 87.5865 9.864 88.2705 9.468C88.9665 9.06 89.7825 8.856 90.7185 8.856C91.5945 8.856 92.3685 9.048 93.0405 9.432C93.7125 9.816 94.2345 10.344 94.6065 11.016C94.9905 11.676 95.1825 12.414 95.1825 13.23C95.1825 13.362 95.1765 13.5 95.1645 13.644C95.1645 13.788 95.1585 13.938 95.1465 14.094H88.3605C88.4085 14.79 88.6485 15.336 89.0805 15.732C89.5245 16.128 90.0585 16.326 90.6825 16.326C91.1505 16.326 91.5405 16.224 91.8525 16.02C92.1765 15.804 92.4165 15.528 92.5725 15.192H94.9125C94.7445 15.756 94.4625 16.272 94.0665 16.74C93.6825 17.196 93.2025 17.556 92.6265 17.82C92.0625 18.084 91.4205 18.216 90.7005 18.216ZM90.7185 10.728C90.1545 10.728 89.6565 10.89 89.2245 11.214C88.7925 11.526 88.5165 12.006 88.3965 12.654H92.8425C92.8065 12.066 92.5905 11.598 92.1945 11.25C91.7985 10.902 91.3065 10.728 90.7185 10.728Z" fill="white"/>
</svg>
