<svg width="95" height="17" viewBox="0 0 95 17" fill="none" xmlns="http://www.w3.org/2000/svg">
<path d="M0.273686 13V0.399999H2.57769V5.638H8.22969V0.399999H10.5337V13H8.22969V7.51H2.57769V13H0.273686ZM13.6847 16.96L15.7547 12.406H15.2147L11.7407 4.072H14.2427L16.7447 10.354L19.3547 4.072H21.8027L16.1327 16.96H13.6847ZM22.9489 16.96V4.072H25.0009L25.2529 5.35C25.5409 4.954 25.9189 4.606 26.3869 4.306C26.8669 4.006 27.4849 3.856 28.2409 3.856C29.0809 3.856 29.8309 4.06 30.4909 4.468C31.1509 4.876 31.6729 5.434 32.0569 6.142C32.4409 6.85 32.6329 7.654 32.6329 8.554C32.6329 9.454 32.4409 10.258 32.0569 10.966C31.6729 11.662 31.1509 12.214 30.4909 12.622C29.8309 13.018 29.0809 13.216 28.2409 13.216C27.5689 13.216 26.9809 13.09 26.4769 12.838C25.9729 12.586 25.5649 12.232 25.2529 11.776V16.96H22.9489ZM27.7549 11.2C28.4869 11.2 29.0929 10.954 29.5729 10.462C30.0529 9.97 30.2929 9.334 30.2929 8.554C30.2929 7.774 30.0529 7.132 29.5729 6.628C29.0929 6.124 28.4869 5.872 27.7549 5.872C27.0109 5.872 26.3989 6.124 25.9189 6.628C25.4509 7.12 25.2169 7.756 25.2169 8.536C25.2169 9.316 25.4509 9.958 25.9189 10.462C26.3989 10.954 27.0109 11.2 27.7549 11.2ZM38.6691 13.216C37.7691 13.216 36.9711 13.024 36.2751 12.64C35.5791 12.256 35.0331 11.716 34.6371 11.02C34.2411 10.324 34.0431 9.52 34.0431 8.608C34.0431 7.684 34.2351 6.862 34.6191 6.142C35.0151 5.422 35.5551 4.864 36.2391 4.468C36.9351 4.06 37.7511 3.856 38.6871 3.856C39.5631 3.856 40.3371 4.048 41.0091 4.432C41.6811 4.816 42.2031 5.344 42.5751 6.016C42.9591 6.676 43.1511 7.414 43.1511 8.23C43.1511 8.362 43.1451 8.5 43.1331 8.644C43.1331 8.788 43.1271 8.938 43.1151 9.094H36.3291C36.3771 9.79 36.6171 10.336 37.0491 10.732C37.4931 11.128 38.0271 11.326 38.6511 11.326C39.1191 11.326 39.5091 11.224 39.8211 11.02C40.1451 10.804 40.3851 10.528 40.5411 10.192H42.8811C42.7131 10.756 42.4311 11.272 42.0351 11.74C41.6511 12.196 41.1711 12.556 40.5951 12.82C40.0311 13.084 39.3891 13.216 38.6691 13.216ZM38.6871 5.728C38.1231 5.728 37.6251 5.89 37.1931 6.214C36.7611 6.526 36.4851 7.006 36.3651 7.654H40.8111C40.7751 7.066 40.5591 6.598 40.1631 6.25C39.7671 5.902 39.2751 5.728 38.6871 5.728ZM44.7289 13V4.072H46.7809L46.9969 5.746C47.3209 5.17 47.7589 4.714 48.3109 4.378C48.8749 4.03 49.5349 3.856 50.2909 3.856V6.286H49.6429C49.1389 6.286 48.6889 6.364 48.2929 6.52C47.8969 6.676 47.5849 6.946 47.3569 7.33C47.1409 7.714 47.0329 8.248 47.0329 8.932V13H44.7289ZM55.1956 13.216C54.4036 13.216 53.7076 13.09 53.1076 12.838C52.5076 12.574 52.0276 12.214 51.6676 11.758C51.3076 11.302 51.0916 10.774 51.0196 10.174H53.3416C53.4136 10.522 53.6056 10.822 53.9176 11.074C54.2416 11.314 54.6556 11.434 55.1596 11.434C55.6636 11.434 56.0296 11.332 56.2576 11.128C56.4976 10.924 56.6176 10.69 56.6176 10.426C56.6176 10.042 56.4496 9.784 56.1136 9.652C55.7776 9.508 55.3096 9.37 54.7096 9.238C54.3256 9.154 53.9356 9.052 53.5396 8.932C53.1436 8.812 52.7776 8.662 52.4416 8.482C52.1176 8.29 51.8536 8.05 51.6496 7.762C51.4456 7.462 51.3436 7.096 51.3436 6.664C51.3436 5.872 51.6556 5.206 52.2796 4.666C52.9156 4.126 53.8036 3.856 54.9436 3.856C55.9996 3.856 56.8396 4.102 57.4636 4.594C58.0996 5.086 58.4776 5.764 58.5976 6.628H56.4196C56.2876 5.968 55.7896 5.638 54.9256 5.638C54.4936 5.638 54.1576 5.722 53.9176 5.89C53.6896 6.058 53.5756 6.268 53.5756 6.52C53.5756 6.784 53.7496 6.994 54.0976 7.15C54.4456 7.306 54.9076 7.45 55.4836 7.582C56.1076 7.726 56.6776 7.888 57.1936 8.068C57.7216 8.236 58.1416 8.494 58.4536 8.842C58.7656 9.178 58.9216 9.664 58.9216 10.3C58.9336 10.852 58.7896 11.35 58.4896 11.794C58.1896 12.238 57.7576 12.586 57.1936 12.838C56.6296 13.09 55.9636 13.216 55.1956 13.216ZM64.9767 13.216C64.0647 13.216 63.2607 13.018 62.5647 12.622C61.8687 12.226 61.3167 11.674 60.9087 10.966C60.5127 10.258 60.3147 9.448 60.3147 8.536C60.3147 7.624 60.5127 6.814 60.9087 6.106C61.3167 5.398 61.8687 4.846 62.5647 4.45C63.2607 4.054 64.0647 3.856 64.9767 3.856C66.1167 3.856 67.0767 4.156 67.8567 4.756C68.6367 5.344 69.1347 6.16 69.3507 7.204H66.9207C66.8007 6.772 66.5607 6.436 66.2007 6.196C65.8527 5.944 65.4387 5.818 64.9587 5.818C64.3227 5.818 63.7827 6.058 63.3387 6.538C62.8947 7.018 62.6727 7.684 62.6727 8.536C62.6727 9.388 62.8947 10.054 63.3387 10.534C63.7827 11.014 64.3227 11.254 64.9587 11.254C65.4387 11.254 65.8527 11.134 66.2007 10.894C66.5607 10.654 66.8007 10.312 66.9207 9.868H69.3507C69.1347 10.876 68.6367 11.686 67.8567 12.298C67.0767 12.91 66.1167 13.216 64.9767 13.216ZM74.1136 13.216C73.3456 13.216 72.7156 13.096 72.2236 12.856C71.7316 12.604 71.3656 12.274 71.1256 11.866C70.8856 11.458 70.7656 11.008 70.7656 10.516C70.7656 9.688 71.0896 9.016 71.7376 8.5C72.3856 7.984 73.3576 7.726 74.6536 7.726H76.9216V7.51C76.9216 6.898 76.7476 6.448 76.3996 6.16C76.0516 5.872 75.6196 5.728 75.1036 5.728C74.6356 5.728 74.2276 5.842 73.8796 6.07C73.5316 6.286 73.3156 6.61 73.2316 7.042H70.9816C71.0416 6.394 71.2576 5.83 71.6296 5.35C72.0136 4.87 72.5056 4.504 73.1056 4.252C73.7056 3.988 74.3776 3.856 75.1216 3.856C76.3936 3.856 77.3956 4.174 78.1276 4.81C78.8596 5.446 79.2256 6.346 79.2256 7.51V13H77.2636L77.0476 11.56C76.7836 12.04 76.4116 12.436 75.9316 12.748C75.4636 13.06 74.8576 13.216 74.1136 13.216ZM74.6356 11.416C75.2956 11.416 75.8056 11.2 76.1656 10.768C76.5376 10.336 76.7716 9.802 76.8676 9.166H74.9056C74.2936 9.166 73.8556 9.28 73.5916 9.508C73.3276 9.724 73.1956 9.994 73.1956 10.318C73.1956 10.666 73.3276 10.936 73.5916 11.128C73.8556 11.32 74.2036 11.416 74.6356 11.416ZM81.0643 13V0.0399995H83.3683V13H81.0643ZM89.7005 13.216C88.8005 13.216 88.0025 13.024 87.3065 12.64C86.6105 12.256 86.0645 11.716 85.6685 11.02C85.2725 10.324 85.0745 9.52 85.0745 8.608C85.0745 7.684 85.2665 6.862 85.6505 6.142C86.0465 5.422 86.5865 4.864 87.2705 4.468C87.9665 4.06 88.7825 3.856 89.7185 3.856C90.5945 3.856 91.3685 4.048 92.0405 4.432C92.7125 4.816 93.2345 5.344 93.6065 6.016C93.9905 6.676 94.1825 7.414 94.1825 8.23C94.1825 8.362 94.1765 8.5 94.1645 8.644C94.1645 8.788 94.1585 8.938 94.1465 9.094H87.3605C87.4085 9.79 87.6485 10.336 88.0805 10.732C88.5245 11.128 89.0585 11.326 89.6825 11.326C90.1505 11.326 90.5405 11.224 90.8525 11.02C91.1765 10.804 91.4165 10.528 91.5725 10.192H93.9125C93.7445 10.756 93.4625 11.272 93.0665 11.74C92.6825 12.196 92.2025 12.556 91.6265 12.82C91.0625 13.084 90.4205 13.216 89.7005 13.216ZM89.7185 5.728C89.1545 5.728 88.6565 5.89 88.2245 6.214C87.7925 6.526 87.5165 7.006 87.3965 7.654H91.8425C91.8065 7.066 91.5905 6.598 91.1945 6.25C90.7985 5.902 90.3065 5.728 89.7185 5.728Z" fill="white"/>
</svg>
