<svg width="393" height="39" viewBox="0 0 393 39" fill="none" xmlns="http://www.w3.org/2000/svg">
<path d="M0.103594 29C0.236927 29 0.436927 28.8133 0.703594 28.44C0.996927 28.0667 1.33026 27.44 1.70359 26.56C1.89026 26.16 2.18359 25.48 2.58359 24.52C3.01026 23.5333 3.49026 22.4 4.02359 21.12C4.58359 19.8133 5.15693 18.4533 5.74359 17.04C6.35693 15.6267 6.93026 14.2667 7.46359 12.96C8.02359 11.6533 8.50359 10.5067 8.90359 9.52C9.33026 8.53333 9.62359 7.82667 9.78359 7.4C10.1303 6.54667 10.3169 5.93333 10.3436 5.56C10.3703 5.18667 10.3169 5 10.1836 5H18.9036C18.7969 5 18.7569 5.18667 18.7836 5.56C18.8103 5.90667 18.9969 6.52 19.3436 7.4C19.5036 7.82667 19.7836 8.53333 20.1836 9.52C20.5836 10.48 21.0503 11.6133 21.5836 12.92C22.1169 14.2 22.6769 15.5467 23.2636 16.96C23.8503 18.3733 24.4103 19.7333 24.9436 21.04C25.4769 22.32 25.9569 23.4533 26.3836 24.44C26.8103 25.4267 27.1169 26.1333 27.3036 26.56C27.7036 27.44 28.0903 28.0667 28.4636 28.44C28.8369 28.8133 29.1169 29 29.3036 29H20.2236C20.4369 28.9733 20.6103 28.7733 20.7436 28.4C20.9036 28 20.9036 27.3867 20.7436 26.56C20.7169 26.3733 20.6903 26.2267 20.6636 26.12C20.6369 25.9867 20.5836 25.8 20.5036 25.56C20.3969 25.16 20.2769 24.88 20.1436 24.72C20.0103 24.5333 19.7836 24.4267 19.4636 24.4C19.1703 24.3733 18.6769 24.36 17.9836 24.36H11.1036C10.3836 24.36 9.85026 24.3867 9.50359 24.44C9.15693 24.4667 8.91693 24.56 8.78359 24.72C8.65026 24.88 8.54359 25.1467 8.46359 25.52C8.43693 25.6533 8.39693 25.8267 8.34359 26.04C8.31693 26.2533 8.29026 26.4267 8.26359 26.56C8.07693 27.4133 8.02359 28.0267 8.10359 28.4C8.21026 28.7733 8.34359 28.9733 8.50359 29H0.103594ZM12.1436 19.96H16.8236C17.5969 19.96 18.0236 19.8933 18.1036 19.76C18.1836 19.6267 18.1436 19.3333 17.9836 18.88C17.6369 18.0267 17.2903 17.16 16.9436 16.28C16.5969 15.3733 16.2636 14.4933 15.9436 13.64C15.6503 12.7867 15.3836 12 15.1436 11.28C14.9303 10.5333 14.7436 9.90667 14.5836 9.4H14.5036C14.1303 10.3867 13.7436 11.4267 13.3436 12.52C12.9436 13.6133 12.5703 14.6267 12.2236 15.56C11.8769 16.4933 11.5969 17.2667 11.3836 17.88C11.1703 18.4667 11.0636 18.76 11.0636 18.76C10.8769 19.1867 10.8103 19.4933 10.8636 19.68C10.9169 19.8667 11.3436 19.96 12.1436 19.96ZM31.1623 37.88C31.349 37.88 31.5223 37.6933 31.6823 37.32C31.869 36.9467 31.9623 36.3333 31.9623 35.48V12.68C31.9623 11.8267 31.869 11.2267 31.6823 10.88C31.5223 10.5067 31.349 10.3067 31.1623 10.28H37.6423V10.6L37.5623 11.36L37.6423 11.4C37.909 11.16 38.2957 10.9333 38.8023 10.72C39.3357 10.48 39.9357 10.28 40.6023 10.12C41.2957 9.96 41.989 9.88 42.6823 9.88C45.1623 9.88 47.0823 10.32 48.4423 11.2C49.829 12.0533 50.8023 13.2133 51.3623 14.68C51.9223 16.1467 52.2023 17.8133 52.2023 19.68C52.2023 21.52 51.9223 23.1733 51.3623 24.64C50.829 26.1067 49.869 27.2667 48.4823 28.12C47.1223 28.9733 45.189 29.4 42.6823 29.4C41.6423 29.4 40.669 29.2667 39.7623 29C38.8823 28.76 38.1757 28.4 37.6423 27.92L37.5623 27.96L37.6423 28.76V35.48C37.6423 36.3333 37.7223 36.9467 37.8823 37.32C38.069 37.6933 38.2557 37.88 38.4423 37.88H31.1623ZM41.8823 25.36C43.0023 25.36 43.8957 25.2 44.5623 24.88C45.2557 24.5333 45.749 23.9467 46.0423 23.12C46.3623 22.2933 46.5223 21.1467 46.5223 19.68C46.5223 18.2133 46.3623 17.0667 46.0423 16.24C45.749 15.3867 45.2557 14.7867 44.5623 14.44C43.8957 14.0667 43.0023 13.88 41.8823 13.88C41.0023 13.88 40.2423 14.0933 39.6023 14.52C38.9623 14.92 38.469 15.5467 38.1223 16.4C37.8023 17.2533 37.6423 18.36 37.6423 19.72C37.6423 21.1067 37.8157 22.2133 38.1623 23.04C38.509 23.8667 38.989 24.4667 39.6023 24.84C40.2423 25.1867 41.0023 25.36 41.8823 25.36ZM55.1467 37.88C55.3334 37.88 55.5067 37.6933 55.6667 37.32C55.8534 36.9467 55.9467 36.3333 55.9467 35.48V12.68C55.9467 11.8267 55.8534 11.2267 55.6667 10.88C55.5067 10.5067 55.3334 10.3067 55.1467 10.28H61.6267V10.6L61.5467 11.36L61.6267 11.4C61.8934 11.16 62.2801 10.9333 62.7867 10.72C63.3201 10.48 63.9201 10.28 64.5867 10.12C65.2801 9.96 65.9734 9.88 66.6667 9.88C69.1467 9.88 71.0667 10.32 72.4267 11.2C73.8134 12.0533 74.7867 13.2133 75.3467 14.68C75.9067 16.1467 76.1867 17.8133 76.1867 19.68C76.1867 21.52 75.9067 23.1733 75.3467 24.64C74.8134 26.1067 73.8534 27.2667 72.4667 28.12C71.1067 28.9733 69.1734 29.4 66.6667 29.4C65.6267 29.4 64.6534 29.2667 63.7467 29C62.8667 28.76 62.1601 28.4 61.6267 27.92L61.5467 27.96L61.6267 28.76V35.48C61.6267 36.3333 61.7067 36.9467 61.8667 37.32C62.0534 37.6933 62.2401 37.88 62.4267 37.88H55.1467ZM65.8667 25.36C66.9867 25.36 67.8801 25.2 68.5467 24.88C69.2401 24.5333 69.7334 23.9467 70.0267 23.12C70.3467 22.2933 70.5067 21.1467 70.5067 19.68C70.5067 18.2133 70.3467 17.0667 70.0267 16.24C69.7334 15.3867 69.2401 14.7867 68.5467 14.44C67.8801 14.0667 66.9867 13.88 65.8667 13.88C64.9867 13.88 64.2267 14.0933 63.5867 14.52C62.9467 14.92 62.4534 15.5467 62.1067 16.4C61.7867 17.2533 61.6267 18.36 61.6267 19.72C61.6267 21.1067 61.8001 22.2133 62.1467 23.04C62.4934 23.8667 62.9734 24.4667 63.5867 24.84C64.2267 25.1867 64.9867 25.36 65.8667 25.36ZM79.3711 29C79.5578 29 79.7444 28.8133 79.9311 28.44C80.1178 28.0667 80.2111 27.4533 80.2111 26.6V3.8C80.2111 2.94666 80.1178 2.33333 79.9311 1.96C79.7711 1.58666 79.5978 1.4 79.4111 1.4C81.1711 1.4 82.5978 1.32 83.6911 1.16C84.8111 0.973333 85.5444 0.786666 85.8911 0.599998V26.6C85.8911 27.4533 85.9711 28.0667 86.1311 28.44C86.3178 28.8133 86.5044 29 86.6911 29H79.3711ZM90.9392 38.76C89.3392 38.76 88.0726 38.6 87.1392 38.28C86.2059 37.96 85.6059 37.6533 85.3392 37.36L86.1392 31.16V29.96C86.4592 30.6533 86.8992 31.3733 87.4592 32.12C87.9926 32.8667 88.6192 33.4933 89.3392 34C90.0592 34.5067 90.8059 34.76 91.5792 34.76C92.1126 34.76 92.5926 34.64 93.0192 34.4C93.4726 34.1867 93.8859 33.84 94.2592 33.36C94.6592 32.88 95.0459 32.28 95.4192 31.56C95.9526 30.4933 96.2859 29.76 96.4192 29.36C96.2592 29.1467 95.9926 28.6533 95.6192 27.88C95.2726 27.1067 94.8459 26.1733 94.3392 25.08C93.8592 23.96 93.3392 22.7867 92.7792 21.56C92.2459 20.3067 91.7259 19.0933 91.2192 17.92C90.7392 16.7467 90.2992 15.7067 89.8992 14.8C89.5259 13.8933 89.2459 13.2267 89.0592 12.8C88.6859 11.8933 88.3126 11.2533 87.9392 10.88C87.5392 10.48 87.2326 10.28 87.0192 10.28H95.2192C95.0859 10.28 94.9926 10.4667 94.9392 10.84C94.8859 11.2133 94.9792 11.8667 95.2192 12.8C95.3526 13.3067 95.5659 14.0267 95.8592 14.96C96.1526 15.8667 96.4859 16.8667 96.8592 17.96C97.2592 19.0533 97.6592 20.16 98.0592 21.28C98.4859 22.4 98.8726 23.4267 99.2192 24.36H99.2592C99.6326 23.3733 100.019 22.3067 100.419 21.16C100.846 19.9867 101.259 18.84 101.659 17.72C102.086 16.6 102.446 15.6 102.739 14.72C103.059 13.84 103.299 13.1733 103.459 12.72C103.753 11.8133 103.873 11.1867 103.819 10.84C103.766 10.4667 103.646 10.28 103.459 10.28H111.419C111.206 10.28 110.913 10.4667 110.539 10.84C110.193 11.1867 109.859 11.8 109.539 12.68C109.353 13.16 109.046 13.9467 108.619 15.04C108.193 16.1333 107.686 17.3867 107.099 18.8C106.513 20.2133 105.899 21.6667 105.259 23.16C104.619 24.6533 103.993 26.0667 103.379 27.4C102.793 28.7067 102.273 29.7867 101.819 30.64C100.913 32.4 99.9659 33.88 98.9792 35.08C97.9926 36.28 96.8592 37.1867 95.5792 37.8C94.2992 38.44 92.7526 38.76 90.9392 38.76ZM130.253 29.4C128.413 29.4 127.08 29.0133 126.253 28.24C125.427 27.44 125.013 26.1467 125.013 24.36V14.28H121.413V10.28C122.64 10.28 123.6 10.1333 124.293 9.84C124.987 9.52 125.48 8.97333 125.773 8.2C126.067 7.42667 126.213 6.34667 126.213 4.96H130.693V10.28H137.533C137.347 10.8133 137.16 11.48 136.973 12.28C136.813 13.0533 136.733 13.72 136.733 14.28H130.693V22.16C130.693 23.3867 130.787 24.2267 130.973 24.68C131.16 25.1333 131.6 25.36 132.293 25.36C132.747 25.36 133.24 25.2 133.773 24.88C134.333 24.56 134.867 24.1733 135.373 23.72C135.907 23.24 136.347 22.7867 136.693 22.36V23.6L137.093 27.48C136.773 27.7467 136.293 28.04 135.653 28.36C135.013 28.6533 134.227 28.8933 133.293 29.08C132.387 29.2933 131.373 29.4 130.253 29.4ZM149.438 29.4C146.771 29.4 144.678 28.9733 143.158 28.12C141.665 27.2667 140.611 26.1067 139.998 24.64C139.411 23.1733 139.118 21.52 139.118 19.68C139.118 17.8133 139.425 16.1467 140.038 14.68C140.678 13.2133 141.745 12.0533 143.238 11.2C144.731 10.32 146.798 9.88 149.438 9.88C152.078 9.88 154.145 10.32 155.638 11.2C157.131 12.0533 158.185 13.2133 158.798 14.68C159.438 16.1467 159.758 17.8133 159.758 19.68C159.758 21.52 159.451 23.1733 158.838 24.64C158.251 26.1067 157.211 27.2667 155.718 28.12C154.225 28.9733 152.131 29.4 149.438 29.4ZM149.438 25.36C150.558 25.36 151.451 25.2 152.118 24.88C152.811 24.5333 153.305 23.9467 153.598 23.12C153.918 22.2933 154.078 21.1467 154.078 19.68C154.078 18.2133 153.918 17.0667 153.598 16.24C153.305 15.3867 152.811 14.7867 152.118 14.44C151.451 14.0667 150.558 13.88 149.438 13.88C148.318 13.88 147.411 14.0667 146.718 14.44C146.051 14.8133 145.558 15.4267 145.238 16.28C144.945 17.1333 144.798 18.28 144.798 19.72C144.798 21.1333 144.945 22.2533 145.238 23.08C145.558 23.9067 146.051 24.4933 146.718 24.84C147.411 25.1867 148.318 25.36 149.438 25.36ZM172.574 29C172.761 29 172.948 28.8133 173.134 28.44C173.321 28.0667 173.414 27.4533 173.414 26.6V7.4C173.414 6.54667 173.321 5.94667 173.134 5.6C172.948 5.22667 172.761 5.02667 172.574 5H180.414C180.228 5 180.041 5.18667 179.854 5.56C179.668 5.93333 179.574 6.56 179.574 7.44V13.56C179.574 14.1467 179.641 14.4933 179.774 14.6C179.934 14.7067 180.414 14.76 181.214 14.76H191.494C192.294 14.76 192.761 14.72 192.894 14.64C193.028 14.5333 193.094 14.1733 193.094 13.56V7.4C193.094 6.54667 193.001 5.94667 192.814 5.6C192.628 5.22667 192.441 5.02667 192.254 5H200.094C199.908 5 199.721 5.18667 199.534 5.56C199.348 5.93333 199.254 6.56 199.254 7.44V26.6C199.254 27.4533 199.348 28.0667 199.534 28.44C199.721 28.8133 199.908 29 200.094 29H192.254C192.441 29 192.628 28.8133 192.814 28.44C193.001 28.0667 193.094 27.4533 193.094 26.6V20.36C193.094 19.7467 193.014 19.4 192.854 19.32C192.721 19.2133 192.268 19.16 191.494 19.16H181.214C180.414 19.16 179.934 19.2133 179.774 19.32C179.641 19.4267 179.574 19.7733 179.574 20.36V26.6C179.574 27.4533 179.668 28.0667 179.854 28.44C180.041 28.8133 180.228 29 180.414 29H172.574ZM204.338 38.76C202.738 38.76 201.471 38.6 200.538 38.28C199.604 37.96 199.004 37.6533 198.738 37.36L199.538 31.16V29.96C199.858 30.6533 200.298 31.3733 200.858 32.12C201.391 32.8667 202.018 33.4933 202.738 34C203.458 34.5067 204.204 34.76 204.978 34.76C205.511 34.76 205.991 34.64 206.418 34.4C206.871 34.1867 207.284 33.84 207.658 33.36C208.058 32.88 208.444 32.28 208.818 31.56C209.351 30.4933 209.684 29.76 209.818 29.36C209.658 29.1467 209.391 28.6533 209.018 27.88C208.671 27.1067 208.244 26.1733 207.738 25.08C207.258 23.96 206.738 22.7867 206.178 21.56C205.644 20.3067 205.124 19.0933 204.618 17.92C204.138 16.7467 203.698 15.7067 203.298 14.8C202.924 13.8933 202.644 13.2267 202.458 12.8C202.084 11.8933 201.711 11.2533 201.338 10.88C200.938 10.48 200.631 10.28 200.418 10.28H208.618C208.484 10.28 208.391 10.4667 208.338 10.84C208.284 11.2133 208.378 11.8667 208.618 12.8C208.751 13.3067 208.964 14.0267 209.258 14.96C209.551 15.8667 209.884 16.8667 210.258 17.96C210.658 19.0533 211.058 20.16 211.458 21.28C211.884 22.4 212.271 23.4267 212.618 24.36H212.658C213.031 23.3733 213.418 22.3067 213.818 21.16C214.244 19.9867 214.658 18.84 215.058 17.72C215.484 16.6 215.844 15.6 216.138 14.72C216.458 13.84 216.698 13.1733 216.858 12.72C217.151 11.8133 217.271 11.1867 217.218 10.84C217.164 10.4667 217.044 10.28 216.858 10.28H224.818C224.604 10.28 224.311 10.4667 223.938 10.84C223.591 11.1867 223.258 11.8 222.938 12.68C222.751 13.16 222.444 13.9467 222.018 15.04C221.591 16.1333 221.084 17.3867 220.498 18.8C219.911 20.2133 219.298 21.6667 218.658 23.16C218.018 24.6533 217.391 26.0667 216.778 27.4C216.191 28.7067 215.671 29.7867 215.218 30.64C214.311 32.4 213.364 33.88 212.378 35.08C211.391 36.28 210.258 37.1867 208.978 37.8C207.698 38.44 206.151 38.76 204.338 38.76ZM226.162 37.88C226.349 37.88 226.522 37.6933 226.682 37.32C226.869 36.9467 226.962 36.3333 226.962 35.48V12.68C226.962 11.8267 226.869 11.2267 226.682 10.88C226.522 10.5067 226.349 10.3067 226.162 10.28H232.642V10.6L232.562 11.36L232.642 11.4C232.909 11.16 233.296 10.9333 233.802 10.72C234.336 10.48 234.936 10.28 235.602 10.12C236.296 9.96 236.989 9.88 237.682 9.88C240.162 9.88 242.082 10.32 243.442 11.2C244.829 12.0533 245.802 13.2133 246.362 14.68C246.922 16.1467 247.202 17.8133 247.202 19.68C247.202 21.52 246.922 23.1733 246.362 24.64C245.829 26.1067 244.869 27.2667 243.482 28.12C242.122 28.9733 240.189 29.4 237.682 29.4C236.642 29.4 235.669 29.2667 234.762 29C233.882 28.76 233.176 28.4 232.642 27.92L232.562 27.96L232.642 28.76V35.48C232.642 36.3333 232.722 36.9467 232.882 37.32C233.069 37.6933 233.256 37.88 233.442 37.88H226.162ZM236.882 25.36C238.002 25.36 238.896 25.2 239.562 24.88C240.256 24.5333 240.749 23.9467 241.042 23.12C241.362 22.2933 241.522 21.1467 241.522 19.68C241.522 18.2133 241.362 17.0667 241.042 16.24C240.749 15.3867 240.256 14.7867 239.562 14.44C238.896 14.0667 238.002 13.88 236.882 13.88C236.002 13.88 235.242 14.0933 234.602 14.52C233.962 14.92 233.469 15.5467 233.122 16.4C232.802 17.2533 232.642 18.36 232.642 19.72C232.642 21.1067 232.816 22.2133 233.162 23.04C233.509 23.8667 233.989 24.4667 234.602 24.84C235.242 25.1867 236.002 25.36 236.882 25.36ZM260.467 29.4C258.36 29.4 256.6 29.1867 255.187 28.76C253.8 28.3067 252.693 27.6667 251.867 26.84C251.04 25.9867 250.453 24.96 250.107 23.76C249.76 22.56 249.587 21.2 249.587 19.68C249.587 16.6667 250.427 14.28 252.107 12.52C253.787 10.76 256.36 9.88 259.827 9.88C261.853 9.88 263.493 10.16 264.747 10.72C266.027 11.28 267 12.0267 267.667 12.96C268.333 13.8933 268.787 14.9333 269.027 16.08C269.293 17.2 269.427 18.3333 269.427 19.48V21.36C269.427 21.28 269.053 21.2 268.307 21.12C267.587 21.0133 266.36 20.96 264.627 20.96H255.347C255.347 22.4267 255.787 23.5333 256.667 24.28C257.573 25 259.04 25.36 261.067 25.36C262.773 25.36 264.293 25.16 265.627 24.76C266.987 24.3333 267.973 23.9333 268.587 23.56V24.76L268.987 27.8C268.48 28.1467 267.507 28.5067 266.067 28.88C264.627 29.2267 262.76 29.4 260.467 29.4ZM256.827 17.52H263.747C263.747 16.9333 263.613 16.36 263.347 15.8C263.107 15.24 262.707 14.7867 262.147 14.44C261.587 14.0667 260.813 13.88 259.827 13.88C258.84 13.88 258.04 14.0267 257.427 14.32C256.84 14.6133 256.4 14.9733 256.107 15.4C255.84 15.8267 255.707 16.2667 255.707 16.72C255.707 16.9867 255.787 17.1867 255.947 17.32C256.107 17.4533 256.4 17.52 256.827 17.52ZM272.803 29C272.99 29 273.163 28.8133 273.323 28.44C273.51 28.0667 273.603 27.4533 273.603 26.6V13.08C273.603 12.2267 273.51 11.6267 273.323 11.28C273.163 10.9067 272.99 10.7067 272.803 10.68C273.976 10.68 275.176 10.6 276.403 10.44C277.63 10.2533 278.59 10.0667 279.283 9.88V11.48L279.203 12.16L279.283 12.24C279.47 11.9467 279.763 11.6267 280.163 11.28C280.59 10.9067 281.123 10.5867 281.763 10.32C282.43 10.0267 283.203 9.88 284.083 9.88C285.39 9.88 286.55 10.0667 287.563 10.44C288.576 10.7867 289.296 11.1467 289.723 11.52L288.523 16.88V18.08C288.123 17.52 287.576 16.9467 286.883 16.36C286.216 15.7733 285.47 15.28 284.643 14.88C283.843 14.48 283.016 14.28 282.163 14.28C281.203 14.28 280.483 14.6267 280.003 15.32C279.523 16.0133 279.283 17.1067 279.283 18.6V26.6C279.283 27.4533 279.363 28.0667 279.523 28.44C279.71 28.8133 279.896 29 280.083 29H272.803ZM302.335 29.4C299.962 29.4 297.962 29.2667 296.335 29C294.708 28.7333 293.588 28.4667 292.975 28.2V27L292.135 23.08C292.828 23.5867 294.122 24.0933 296.015 24.6C297.908 25.1067 300.228 25.36 302.975 25.36C303.802 25.36 304.455 25.3067 304.935 25.2C305.442 25.0933 305.802 24.92 306.015 24.68C306.228 24.44 306.335 24.1333 306.335 23.76C306.335 23.3067 306.162 22.96 305.815 22.72C305.495 22.48 304.908 22.2933 304.055 22.16C303.202 22 301.962 21.8133 300.335 21.6C298.282 21.3333 296.655 20.96 295.455 20.48C294.255 19.9733 293.402 19.3333 292.895 18.56C292.415 17.76 292.175 16.7867 292.175 15.64C292.175 14.5733 292.428 13.6133 292.935 12.76C293.468 11.88 294.375 11.1867 295.655 10.68C296.962 10.1467 298.775 9.88 301.095 9.88C303.282 9.88 305.202 10.0133 306.855 10.28C308.508 10.5467 309.695 10.8133 310.415 11.08V12.28L311.215 15.8C310.602 15.4 309.402 14.9867 307.615 14.56C305.828 14.1333 303.562 13.92 300.815 13.92C299.748 13.92 298.988 14.0267 298.535 14.24C298.082 14.4533 297.855 14.8267 297.855 15.36C297.855 15.6267 297.922 15.8533 298.055 16.04C298.215 16.2267 298.508 16.4 298.935 16.56C299.362 16.72 299.975 16.88 300.775 17.04C301.575 17.1733 302.628 17.32 303.935 17.48C306.202 17.7733 307.908 18.1867 309.055 18.72C310.202 19.2267 310.975 19.8667 311.375 20.64C311.775 21.3867 311.975 22.2933 311.975 23.36C311.975 24.72 311.628 25.8533 310.935 26.76C310.268 27.64 309.215 28.3067 307.775 28.76C306.362 29.1867 304.548 29.4 302.335 29.4ZM325.153 29.4C322.38 29.4 320.193 28.9733 318.593 28.12C317.02 27.2667 315.913 26.1067 315.273 24.64C314.633 23.1733 314.313 21.52 314.313 19.68C314.313 16.4267 315.193 13.9867 316.953 12.36C318.74 10.7333 321.34 9.92 324.753 9.92C326.54 9.92 328.167 10.0533 329.633 10.32C331.127 10.5867 332.22 10.84 332.913 11.08V12.28L333.713 16.56C333.127 16 332.06 15.4267 330.513 14.84C328.993 14.2267 327.167 13.92 325.033 13.92C323.887 13.92 322.927 14.1333 322.153 14.56C321.407 14.96 320.847 15.5867 320.473 16.44C320.127 17.2933 319.953 18.3867 319.953 19.72C319.953 21.0267 320.153 22.0933 320.553 22.92C320.953 23.7467 321.607 24.3467 322.513 24.72C323.42 25.0933 324.62 25.28 326.113 25.28C328.007 25.28 329.567 25.04 330.793 24.56C332.047 24.0533 332.887 23.56 333.313 23.08V24.28L333.713 27.48C333.207 27.9067 332.207 28.3333 330.713 28.76C329.247 29.1867 327.393 29.4 325.153 29.4ZM344.781 29.4C342.381 29.4 340.461 28.9333 339.021 28C337.607 27.04 336.901 25.5067 336.901 23.4C336.901 21.9333 337.274 20.7467 338.021 19.84C338.767 18.9333 339.781 18.2667 341.061 17.84C342.367 17.3867 343.847 17.16 345.501 17.16C346.727 17.16 347.767 17.2667 348.621 17.48C349.501 17.6933 350.207 17.92 350.741 18.16C351.274 18.4 351.621 18.5733 351.781 18.68C351.781 17.56 351.661 16.6533 351.421 15.96C351.181 15.24 350.741 14.72 350.101 14.4C349.487 14.0533 348.621 13.88 347.501 13.88C345.874 13.88 344.434 14.04 343.181 14.36C341.927 14.68 340.901 15.0533 340.101 15.48C339.327 15.9067 338.794 16.2667 338.501 16.56V15.36L338.101 11.44C338.287 11.3333 338.781 11.16 339.581 10.92C340.381 10.68 341.474 10.4533 342.861 10.24C344.247 10 345.901 9.88 347.821 9.88C350.461 9.88 352.474 10.2667 353.861 11.04C355.247 11.7867 356.194 12.8667 356.701 14.28C357.234 15.6933 357.501 17.4 357.501 19.4V26.6C357.501 27.3467 357.581 27.8933 357.741 28.24C357.927 28.56 358.114 28.8133 358.301 29H351.821V28.16L351.901 27.4L351.821 27.32C351.607 27.56 351.301 27.8 350.901 28.04C350.501 28.28 350.007 28.5067 349.421 28.72C348.834 28.9067 348.154 29.0667 347.381 29.2C346.607 29.3333 345.741 29.4 344.781 29.4ZM346.661 25.36C347.781 25.36 348.714 25.28 349.461 25.12C350.234 24.9333 350.821 24.6933 351.221 24.4C351.621 24.08 351.821 23.7067 351.821 23.28C351.821 22.6667 351.354 22.16 350.421 21.76C349.514 21.36 348.274 21.16 346.701 21.16C345.181 21.16 344.101 21.3733 343.461 21.8C342.847 22.2267 342.541 22.76 342.541 23.4C342.541 24.2 342.901 24.7333 343.621 25C344.341 25.24 345.354 25.36 346.661 25.36ZM361.832 29C362.019 29 362.205 28.8133 362.392 28.44C362.579 28.0667 362.672 27.4533 362.672 26.6V3.8C362.672 2.94666 362.579 2.33333 362.392 1.96C362.232 1.58666 362.059 1.4 361.872 1.4C363.632 1.4 365.059 1.32 366.152 1.16C367.272 0.973333 368.005 0.786666 368.352 0.599998V26.6C368.352 27.4533 368.432 28.0667 368.592 28.44C368.779 28.8133 368.965 29 369.152 29H361.832ZM383.24 29.4C381.133 29.4 379.373 29.1867 377.96 28.76C376.573 28.3067 375.467 27.6667 374.64 26.84C373.813 25.9867 373.227 24.96 372.88 23.76C372.533 22.56 372.36 21.2 372.36 19.68C372.36 16.6667 373.2 14.28 374.88 12.52C376.56 10.76 379.133 9.88 382.6 9.88C384.627 9.88 386.267 10.16 387.52 10.72C388.8 11.28 389.773 12.0267 390.44 12.96C391.107 13.8933 391.56 14.9333 391.8 16.08C392.067 17.2 392.2 18.3333 392.2 19.48V21.36C392.2 21.28 391.827 21.2 391.08 21.12C390.36 21.0133 389.133 20.96 387.4 20.96H378.12C378.12 22.4267 378.56 23.5333 379.44 24.28C380.347 25 381.813 25.36 383.84 25.36C385.547 25.36 387.067 25.16 388.4 24.76C389.76 24.3333 390.747 23.9333 391.36 23.56V24.76L391.76 27.8C391.253 28.1467 390.28 28.5067 388.84 28.88C387.4 29.2267 385.533 29.4 383.24 29.4ZM379.6 17.52H386.52C386.52 16.9333 386.387 16.36 386.12 15.8C385.88 15.24 385.48 14.7867 384.92 14.44C384.36 14.0667 383.587 13.88 382.6 13.88C381.613 13.88 380.813 14.0267 380.2 14.32C379.613 14.6133 379.173 14.9733 378.88 15.4C378.613 15.8267 378.48 16.2667 378.48 16.72C378.48 16.9867 378.56 17.1867 378.72 17.32C378.88 17.4533 379.173 17.52 379.6 17.52Z" fill="white"/>
</svg>
