<svg width="101" height="214" viewBox="0 0 101 214" fill="none" xmlns="http://www.w3.org/2000/svg">
<path d="M13.0988 109.823C13.6992 107.984 16.3008 107.984 16.9012 109.823L18.7674 115.539C18.9477 116.091 19.3593 116.538 19.8951 116.762L25.602 119.156C27.2374 119.841 27.2374 122.159 25.602 122.844L19.8951 125.238C19.3593 125.462 18.9477 125.909 18.7674 126.461L16.9012 132.177C16.3008 134.016 13.6992 134.016 13.0988 132.177L11.2326 126.461C11.0523 125.909 10.6407 125.462 10.1049 125.238L4.39796 122.844C2.7626 122.159 2.7626 119.841 4.39796 119.156L10.1049 116.762C10.6407 116.538 11.0523 116.091 11.2326 115.539L13.0988 109.823Z" fill="#BAC4FA"/>
<path opacity="0.8" d="M94.4506 59.9115C94.1504 58.992 92.8496 58.992 92.5494 59.9115L91.6163 62.7693C91.5261 63.0455 91.3203 63.2688 91.0524 63.3812L88.199 64.5778C87.3813 64.9207 87.3813 66.0793 88.199 66.4222L91.0524 67.6188C91.3203 67.7312 91.5261 67.9545 91.6163 68.2307L92.5494 71.0885C92.8496 72.008 94.1504 72.008 94.4506 71.0885L95.3837 68.2307C95.4739 67.9545 95.6797 67.7312 95.9476 67.6188L98.801 66.4222C99.6187 66.0793 99.6187 64.9207 98.801 64.5778L95.9476 63.3812C95.6797 63.2688 95.4739 63.0455 95.3837 62.7693L94.4506 59.9115Z" fill="white"/>
<path d="M67.6052 196.608C68.2178 194.795 70.7822 194.795 71.3948 196.608L72.0424 198.525C72.2288 199.077 72.6463 199.52 73.186 199.738L75.4264 200.646C77.0915 201.321 77.0915 203.679 75.4264 204.354L73.186 205.262C72.6463 205.48 72.2288 205.923 72.0424 206.475L71.3948 208.392C70.7822 210.205 68.2178 210.205 67.6052 208.392L66.9576 206.475C66.7712 205.923 66.3537 205.48 65.814 205.262L63.5736 204.354C61.9085 203.679 61.9085 201.321 63.5736 200.646L65.814 199.738C66.3537 199.52 66.7712 199.077 66.9576 198.525L67.6052 196.608Z" fill="white"/>
<path opacity="0.5" d="M66.1995 2.87396C65.8972 1.95891 64.6028 1.95891 64.3005 2.87396L63.7056 4.67458C63.6144 4.95065 63.4075 5.17336 63.1389 5.28468L61.2291 6.07619C60.4062 6.41721 60.4062 7.58279 61.2291 7.92381L63.1389 8.71532C63.4075 8.82664 63.6144 9.04935 63.7056 9.32542L64.3005 11.126C64.6028 12.0411 65.8972 12.0411 66.1995 11.126L66.7944 9.32542C66.8856 9.04935 67.0925 8.82664 67.3611 8.71532L69.2709 7.92381C70.0938 7.58279 70.0938 6.41721 69.2709 6.07619L67.3611 5.28468C67.0925 5.17336 66.8856 4.95065 66.7944 4.67458L66.1995 2.87396Z" fill="#BAC4FA"/>
</svg>
