<svg width="190" height="186" viewBox="0 0 190 186" fill="none" xmlns="http://www.w3.org/2000/svg">
<path d="M75.3994 145.759C74.7953 143.927 72.2047 143.927 71.6006 145.759L68.2499 155.918C68.0678 156.47 67.6544 156.916 67.1174 157.139L57.4492 161.153C55.805 161.835 55.805 164.165 57.4492 164.847L67.1174 168.861C67.6544 169.084 68.0678 169.53 68.2499 170.082L71.6006 180.241C72.2047 182.073 74.7953 182.073 75.3994 180.241L78.7501 170.082C78.9322 169.53 79.3456 169.084 79.8826 168.861L89.5508 164.847C91.195 164.165 91.195 161.835 89.5508 161.153L79.8826 157.139C79.3456 156.916 78.9322 156.47 78.7501 155.918L75.3994 145.759Z" fill="#BAC4FA"/>
<path opacity="0.5" d="M183.451 2.91153C183.15 1.99203 181.85 1.99203 181.549 2.91153L180.616 5.76934C180.526 6.0455 180.32 6.2688 180.052 6.38115L177.199 7.57781C176.381 7.92072 176.381 9.07928 177.199 9.42219L180.052 10.6188C180.32 10.7312 180.526 10.9545 180.616 11.2307L181.549 14.0885C181.85 15.008 183.15 15.008 183.451 14.0885L184.384 11.2307C184.474 10.9545 184.68 10.7312 184.948 10.6188L187.801 9.42219C188.619 9.07928 188.619 7.92072 187.801 7.57781L184.948 6.38115C184.68 6.2688 184.474 6.0455 184.384 5.76934L183.451 2.91153Z" fill="#BAC4FA"/>
<path d="M13.8999 95.7761C13.2968 93.9426 10.7032 93.9426 10.1001 95.7761L9.04496 98.9841C8.86332 99.5363 8.45041 99.9822 7.91372 100.206L4.4354 101.654C2.79358 102.337 2.79358 104.663 4.4354 105.346L7.91372 106.794C8.45041 107.018 8.86332 107.464 9.04496 108.016L10.1001 111.224C10.7032 113.057 13.2968 113.057 13.8999 111.224L14.955 108.016C15.1367 107.464 15.5496 107.018 16.0863 106.794L19.5646 105.346C21.2064 104.663 21.2064 102.337 19.5646 101.654L16.0863 100.206C15.5496 99.9822 15.1367 99.5363 14.955 98.9841L13.8999 95.7761Z" fill="white"/>
</svg>
