<svg width="245" height="264" viewBox="0 0 245 264" fill="none" xmlns="http://www.w3.org/2000/svg">
<path d="M132.397 25.6992C147.927 28.7924 159.917 43.0795 166.584 64.1294C173.238 85.1403 174.493 112.655 168.713 141.675C162.932 170.695 151.23 195.629 137.033 212.487C122.81 229.376 106.26 237.978 90.7307 234.885C75.2011 231.792 63.2103 217.505 56.5439 196.455C49.8899 175.444 48.6346 147.929 54.4149 118.909C60.1952 89.8889 71.8974 64.9551 86.0942 48.0973C100.317 31.2082 116.867 22.6059 132.397 25.6992ZM143.781 27.9666L158.042 30.8073C172.109 33.6091 182.838 47.5794 188.592 68.4786C194.328 89.3145 195.012 116.728 189.229 145.762C183.446 174.795 172.31 199.855 159.028 216.902C145.706 234.002 130.442 242.795 116.376 239.993L102.114 237.153C114.872 235.357 127.535 226.871 138.563 213.775C153.016 196.614 164.841 171.353 170.674 142.066C176.508 112.779 175.264 84.9154 168.49 63.5256C163.321 47.2036 154.877 34.5138 143.781 27.9666Z" fill="#BAC4FA" stroke="black" stroke-width="2"/>
<path d="M54.4137 118.907C60.194 89.8863 71.8962 64.9525 86.093 48.0947C100.316 31.2056 116.866 22.6033 132.396 25.6966C147.925 28.7898 159.916 43.0769 166.583 64.1268C173.237 85.1377 174.492 112.652 168.712 141.673C162.931 170.693 151.229 195.627 137.032 212.485C122.809 229.374 106.259 237.976 90.7295 234.883C75.1998 231.789 63.209 217.502 56.5427 196.452C49.8887 175.441 48.6334 147.927 54.4137 118.907Z" fill="white" stroke="black" stroke-width="2"/>
<path d="M64.5029 121.805C69.4395 97.0201 78.948 75.6362 90.2831 61.0957C101.658 46.5036 114.655 39.0492 126.597 41.4278C138.539 43.8065 147.688 55.6719 152.604 73.509C157.503 91.2829 158.092 114.678 153.155 139.463C148.219 164.247 138.71 185.631 127.375 200.171C116 214.763 103.003 222.218 91.0609 219.839C79.1189 217.461 69.9702 205.595 65.0541 187.758C60.1555 169.984 59.5663 146.589 64.5029 121.805Z" fill="black" stroke="black" stroke-width="2"/>
<path d="M137.004 140.546C141.27 149.91 141.733 163.042 138.568 178.934C137.883 182.37 137.068 185.711 136.134 188.933C143.908 175.736 150.343 158.723 154.139 139.662C163.496 92.6863 153.284 51.0599 131.331 46.6872C130.325 46.4869 129.312 46.3682 128.294 46.3287C112.971 45.7729 101.092 64.5007 96.8345 85.8744C94.5291 97.449 94.9759 105.685 97.7487 111.77C99.1 114.736 101.057 117.302 103.671 119.389L113.951 94.8108L121.17 96.2487L109.99 122.979C111.753 123.673 113.687 124.236 115.801 124.656C117.13 124.921 118.414 125.242 119.651 125.62L114.03 139.058C113.684 138.979 113.333 138.904 112.977 138.833C109.906 138.221 107.076 137.312 104.513 136.074L92.7173 164.275L85.4985 162.837L98.3843 132.029C95.6721 129.629 93.4501 126.623 91.7736 122.944C87.507 113.579 87.0441 100.447 90.2095 84.5548C90.8939 81.1187 91.7092 77.7781 92.6437 74.5566C84.8698 87.7532 78.4348 104.766 74.6382 123.827C65.2814 170.803 75.4932 212.429 97.4467 216.802C98.4524 217.002 99.4652 217.121 100.483 217.16C115.806 217.716 127.686 198.988 131.943 177.615C134.248 166.04 133.801 157.805 131.029 151.719C129.679 148.757 127.725 146.194 125.115 144.108L114.838 168.681L107.619 167.243L136.072 99.2168L143.29 100.655L130.402 131.468C133.11 133.867 135.329 136.87 137.004 140.546Z" fill="white"/>
<path d="M137.004 140.546C141.27 149.91 141.733 163.042 138.568 178.934C137.883 182.37 137.068 185.711 136.134 188.933C143.908 175.736 150.343 158.723 154.139 139.662C163.496 92.6863 153.284 51.0599 131.331 46.6872C130.325 46.4869 129.312 46.3682 128.294 46.3287C112.971 45.7729 101.092 64.5007 96.8345 85.8744C94.5291 97.449 94.9759 105.685 97.7487 111.77C99.1 114.736 101.057 117.302 103.671 119.389L113.951 94.8108L121.17 96.2487L109.99 122.979C111.753 123.673 113.687 124.236 115.801 124.656C117.13 124.921 118.414 125.242 119.651 125.62L114.03 139.058C113.684 138.979 113.333 138.904 112.977 138.833C109.906 138.221 107.076 137.312 104.513 136.074L92.7173 164.275L85.4985 162.837L98.3843 132.029C95.6721 129.629 93.4501 126.623 91.7736 122.944C87.507 113.579 87.0441 100.447 90.2095 84.5548C90.8939 81.1187 91.7092 77.7781 92.6437 74.5566C84.8698 87.7532 78.4348 104.766 74.6382 123.827C65.2814 170.803 75.4932 212.429 97.4467 216.802C98.4524 217.002 99.4652 217.121 100.483 217.16C115.806 217.716 127.686 198.988 131.943 177.615C134.248 166.04 133.801 157.805 131.029 151.719C129.679 148.757 127.725 146.194 125.115 144.108L114.838 168.681L107.619 167.243L136.072 99.2168L143.29 100.655L130.402 131.468C133.11 133.867 135.329 136.87 137.004 140.546Z" fill="url(#paint0_linear_387_17329)"/>
<path d="M75.6191 124.024C80.2754 100.647 88.9118 80.4129 99.0665 66.5957C109.274 52.7067 120.765 45.6045 131.135 47.6701C141.506 49.7356 149.398 60.6988 153.505 77.4389C157.591 94.0925 157.815 116.091 153.158 139.469C148.502 162.847 139.866 183.081 129.711 196.898C119.504 210.787 108.012 217.889 97.6422 215.823C87.272 213.758 79.3791 202.795 75.2724 186.055C71.1869 169.401 70.9627 147.402 75.6191 124.024Z" stroke="black" stroke-width="2"/>
<defs>
<linearGradient id="paint0_linear_387_17329" x1="254.522" y1="-9.79368" x2="77.1376" y2="-59.2843" gradientUnits="userSpaceOnUse">
<stop stop-color="#98A8FF"/>
<stop offset="0.453125" stop-color="#AFA8D7"/>
<stop offset="1" stop-color="#FEDB9E"/>
</linearGradient>
</defs>
</svg>
