<svg width="155" height="204" viewBox="0 0 155 204" fill="none" xmlns="http://www.w3.org/2000/svg">
<path d="M124.43 192.659C109.55 197.873 91.8413 192.253 75.1565 178.544C58.4992 164.857 43.045 143.235 32.7989 116.911C22.5523 90.5848 19.49 64.6318 22.7704 43.975C26.0552 23.2908 35.6458 8.13073 50.507 2.92356C65.3867 -2.29011 83.0953 3.32944 99.7801 17.0392C116.437 30.7263 131.892 52.3476 142.138 78.6722C152.384 104.998 155.447 130.951 152.166 151.608C148.881 172.292 139.291 187.452 124.43 192.659ZM113.232 196.583L99.8996 201.254C86.4174 205.978 69.95 199.986 54.1243 185.948C38.3413 171.947 23.4262 150.125 13.1749 123.787C2.92309 97.4474 -0.687462 71.6724 1.71501 51.3149C4.12342 30.9069 12.5175 16.2346 25.977 11.5185L39.4339 6.80341C29.6222 14.6101 23.3313 27.6917 20.7952 43.6614C17.4489 64.7327 20.5859 91.0466 30.9351 117.636C41.2847 144.227 56.9233 166.15 73.8868 180.089C86.7351 190.646 100.449 196.698 113.232 196.583Z" fill="#BAC4FA" stroke="black" stroke-width="2"/>
<path d="M142.141 78.6722C152.388 104.998 155.45 130.951 152.17 151.608C148.885 172.292 139.294 187.452 124.433 192.659C109.553 197.873 91.8447 192.253 75.16 178.544C58.5027 164.857 43.0485 143.235 32.8024 116.911C22.5558 90.5849 19.4935 64.6318 22.7739 43.975C26.0587 23.2909 35.6492 8.13074 50.5105 2.92356C65.3902 -2.29011 83.0988 3.32944 99.7836 17.0392C116.441 30.7263 131.895 52.3476 142.141 78.6722Z" fill="white" stroke="black" stroke-width="2"/>
<path d="M132.022 81.3392C140.772 103.822 143.848 125.817 141.794 143.181C139.733 160.595 132.571 173.06 121.143 177.064C109.693 181.076 95.6735 176.002 82.1633 164.024C68.6957 152.085 55.9632 133.464 47.2128 110.983C38.462 88.4997 35.3866 66.5045 37.4408 49.1407C39.501 31.7267 46.6635 19.2616 58.0912 15.2575C69.5416 11.2454 83.561 16.32 97.0712 28.2975C110.539 40.2372 123.271 58.8574 132.022 81.3392Z" fill="black" stroke="black" stroke-width="2"/>
<path d="M60.4242 102.123C51.8902 96.6673 44.6273 86.2769 39.0137 71.8545C37.8 68.736 36.7478 65.6299 35.8594 62.561C36.1353 77.0906 39.5483 94.042 46.2812 111.34C62.8746 153.973 93.349 182.568 114.348 175.211C115.309 174.874 116.235 174.467 117.123 173.994C130.474 166.84 130.805 145.8 123.255 126.402C119.166 115.898 114.478 109.46 108.932 105.914C106.229 104.186 103.22 103.082 99.8996 102.692L103.992 127.669L97.0869 130.089L92.6363 102.924C90.7709 103.237 88.8278 103.743 86.8065 104.451C85.5351 104.896 84.2731 105.274 83.0208 105.582L80.7835 91.9264C81.1198 91.8185 81.4583 91.7049 81.799 91.5855C84.7361 90.5563 87.6235 89.8875 90.456 89.616L85.7606 60.9575L92.6654 58.5381L97.7949 89.8464C101.362 90.4415 104.828 91.7696 108.181 93.9134C116.715 99.369 123.978 109.759 129.592 124.182C130.805 127.3 131.858 130.406 132.746 133.475C132.47 118.946 129.057 101.994 122.324 84.696C105.731 42.0638 75.2565 13.4681 54.2578 20.8258C53.2959 21.1628 52.3705 21.5695 51.482 22.0427C38.1313 29.1972 37.8008 50.2369 45.3506 69.6341C49.4391 80.1383 54.1272 86.5767 59.6732 90.1222C62.373 91.8481 65.3785 92.9513 68.6938 93.3427L64.6025 68.371L71.5073 65.9516L82.8336 135.083L75.9288 137.502L70.7984 106.188C67.2356 105.592 63.7738 104.264 60.4242 102.123Z" fill="white"/>
<path d="M121.387 85.0548C129.641 106.262 132.859 126.895 131.432 143.09C129.998 159.356 123.934 170.786 114.012 174.263C104.063 177.749 91.5863 172.778 79.3415 161.289C67.1533 149.852 55.4617 132.18 47.2079 110.974C38.9537 89.7668 35.7363 69.1331 37.1634 52.939C38.5969 36.6721 44.6607 25.2424 54.5832 21.7656C64.5318 18.2798 77.0087 23.2501 89.2535 34.74C101.442 46.1768 113.133 63.849 121.387 85.0548Z" stroke="black" stroke-width="2"/>
</svg>
