<svg width="241" height="246" viewBox="0 0 241 246" fill="none" xmlns="http://www.w3.org/2000/svg">
<path d="M189.594 16.8899C203.634 28.8996 207.899 50.5375 202.977 76.2177C198.065 101.843 184.047 131.167 162.032 158.059C140.016 184.953 114.255 204.223 90.4576 213.678C66.6139 223.151 45.0567 222.674 31.0297 210.676C16.9892 198.666 12.7251 177.028 17.647 151.348C22.5583 125.723 36.5771 96.3992 58.5918 69.5066C80.6073 42.6132 106.369 23.3432 130.166 13.8883C154.01 4.41496 175.567 4.89167 189.594 16.8899ZM200.525 26.2399L212.855 36.7868C225.565 47.6582 228.725 68.2455 222.958 93.2531C217.211 118.175 202.667 147.07 180.641 173.977C158.614 200.884 133.357 220.608 110.383 230.78C87.332 240.986 66.9845 241.43 54.291 230.573L41.8785 219.956C55.7975 225.046 73.1805 223.341 91.4103 216.098C115.697 206.449 141.804 186.872 164.043 159.706C186.283 132.538 200.526 102.824 205.533 76.699C209.29 57.098 207.87 39.3319 200.525 26.2399Z" fill="#BAC4FA" stroke="black" stroke-width="2.60413"/>
<path d="M58.5909 69.5043C80.6063 42.6109 106.368 23.341 130.165 13.8861C154.009 4.4127 175.566 4.88943 189.593 16.8877C203.633 28.8974 207.898 50.5353 202.976 76.2155C198.064 101.841 184.046 131.165 162.031 158.057C140.015 184.951 114.254 204.221 90.4567 213.675C66.6129 223.149 45.0558 222.672 31.0287 210.674C16.9882 198.664 12.7241 177.026 17.646 151.346C22.5573 125.721 36.5761 96.397 58.5909 69.5043Z" fill="white" stroke="black" stroke-width="2.60413"/>
<path d="M66.9104 77.9805C85.7456 54.972 107.354 38.0985 127.027 29.3944C146.751 20.6678 164.26 20.2506 175.221 29.6258C186.192 39.0103 188.878 56.7251 183.95 78.1196C179.035 99.4573 166.594 124.177 147.759 147.185C128.924 170.194 107.316 187.067 87.6428 195.771C67.9188 204.498 50.4096 204.915 39.449 195.54C28.4776 186.155 25.7918 168.441 30.7197 147.046C35.6344 125.708 48.0757 100.988 66.9104 77.9805Z" fill="black" stroke="black" stroke-width="1.73609"/>
<path d="M130.501 138.917C129.634 151.086 122.8 165.012 110.738 179.747C108.13 182.933 105.442 185.945 102.699 188.765C117.952 179.455 133.966 165.414 148.433 147.741C184.087 104.187 196.849 55.0712 176.936 38.0387C176.024 37.2586 175.059 36.5593 174.045 35.9392C158.758 26.6481 136.249 39.3783 120.027 59.1953C111.242 69.9268 107.115 78.7494 106.552 86.6576C106.278 90.5119 106.842 94.2936 108.343 97.9517L132.478 78.2258L139.025 83.8264L112.777 105.28C114.185 107.005 115.841 108.69 117.758 110.329C118.963 111.36 120.092 112.424 121.14 113.521L107.945 124.306C107.637 124.027 107.321 123.749 106.998 123.473C104.213 121.091 101.838 118.536 99.9172 115.79L72.2249 138.424L65.6772 132.823L95.9299 108.097C94.5044 104.058 93.9148 99.6668 94.2552 94.8852C95.1216 82.7164 101.955 68.7898 114.017 54.0553C116.625 50.8694 119.314 47.8573 122.057 45.037C106.803 54.3467 90.79 68.3884 76.3229 86.061C40.6684 129.616 27.9071 178.731 47.8197 195.764C48.7319 196.544 49.6967 197.243 50.7111 197.863C65.9983 207.154 88.5068 194.424 104.729 174.607C113.514 163.875 117.641 155.053 118.204 147.145C118.478 143.295 117.915 139.518 116.419 135.864L92.2887 155.586L85.741 149.985L152.542 95.3876L159.089 100.988L128.831 125.719C130.253 129.755 130.841 134.141 130.501 138.917Z" fill="white"/>
<path d="M130.501 138.917C129.634 151.086 122.8 165.012 110.738 179.747C108.13 182.933 105.442 185.945 102.699 188.765C117.952 179.455 133.966 165.414 148.433 147.741C184.087 104.187 196.849 55.0712 176.936 38.0387C176.024 37.2586 175.059 36.5593 174.045 35.9392C158.758 26.6481 136.249 39.3783 120.027 59.1953C111.242 69.9268 107.115 78.7494 106.552 86.6576C106.278 90.5119 106.842 94.2936 108.343 97.9517L132.478 78.2258L139.025 83.8264L112.777 105.28C114.185 107.005 115.841 108.69 117.758 110.329C118.963 111.36 120.092 112.424 121.14 113.521L107.945 124.306C107.637 124.027 107.321 123.749 106.998 123.473C104.213 121.091 101.838 118.536 99.9172 115.79L72.2249 138.424L65.6772 132.823L95.9299 108.097C94.5044 104.058 93.9148 99.6668 94.2552 94.8852C95.1216 82.7164 101.955 68.7898 114.017 54.0553C116.625 50.8694 119.314 47.8573 122.057 45.037C106.803 54.3467 90.79 68.3884 76.3229 86.061C40.6684 129.616 27.9071 178.731 47.8197 195.764C48.7319 196.544 49.6967 197.243 50.7111 197.863C65.9983 207.154 88.5068 194.424 104.729 174.607C113.514 163.875 117.641 155.053 118.204 147.145C118.478 143.295 117.915 139.518 116.419 135.864L92.2887 155.586L85.741 149.985L152.542 95.3876L159.089 100.988L128.831 125.719C130.253 129.755 130.841 134.141 130.501 138.917Z" fill="url(#paint0_linear_387_16306)"/>
<path d="M77.6646 87.156C95.3682 65.5297 115.35 49.4502 133.276 40.8942C151.34 32.2722 166.677 31.5491 175.806 39.3581C184.961 47.1883 186.965 62.7996 181.843 82.5107C176.761 102.07 164.796 125.016 147.093 146.641C129.389 168.268 109.408 184.347 91.4817 192.903C73.4175 201.525 58.0806 202.248 48.9511 194.439C39.7969 186.609 37.7926 170.998 42.914 151.287C47.996 131.727 59.9618 108.781 77.6646 87.156Z" stroke="black" stroke-width="3.47218"/>
<defs>
<linearGradient id="paint0_linear_387_16306" x1="302.536" y1="174.263" x2="156.521" y2="-65.6808" gradientUnits="userSpaceOnUse">
<stop stop-color="#98A8FF"/>
<stop offset="0.453125" stop-color="#AFA8D7"/>
<stop offset="1" stop-color="#FEDB9E"/>
</linearGradient>
</defs>
</svg>
