<svg width="159" height="156" viewBox="0 0 159 156" fill="none" xmlns="http://www.w3.org/2000/svg">
<path d="M108.543 13.4935C117.651 18.6698 122.156 30.0478 121.77 44.637C121.385 59.1877 116.121 76.6822 106.015 93.634C95.91 110.585 82.9271 123.699 70.1499 131.218C57.3358 138.758 44.9549 140.558 35.8349 135.376C26.7263 130.199 22.2214 118.821 22.6075 104.232C22.9926 89.6815 28.2565 72.187 38.3622 55.2352C48.4675 38.2841 61.4504 25.1699 74.2276 17.6512C87.0417 10.1108 99.4226 8.31074 108.543 13.4935ZM116.835 18.2061L123.846 22.1905C132.067 26.8619 135.847 37.7526 134.911 52.0654C133.979 66.3146 128.371 83.628 118.258 100.592C108.146 117.554 95.4949 130.871 83.2577 138.705C70.9639 146.574 59.3727 148.752 51.1387 144.073L44.1967 140.128C52.4589 141.108 61.8521 138.426 71.1764 132.939C84.2897 125.222 97.4951 111.846 107.739 94.6614C117.983 77.4779 123.377 59.6557 123.773 44.7017C124.054 34.0622 121.799 24.746 116.835 18.2061Z" fill="#BAC4FA" stroke="black" stroke-width="2"/>
<path d="M38.3606 55.2342C48.4659 38.2831 61.4488 25.1689 74.226 17.6502C87.0401 10.1098 99.4211 8.30972 108.541 13.4925C117.65 18.6688 122.155 30.0468 121.768 44.6359C121.383 59.1866 116.119 76.6811 106.014 93.6329C95.9085 110.584 82.9255 123.698 70.1484 131.217C57.3342 138.757 44.9533 140.557 35.8333 135.375C26.7247 130.198 22.2198 118.82 22.6059 104.231C22.991 89.6805 28.2549 72.186 38.3606 55.2342Z" fill="white" stroke="black" stroke-width="2"/>
<path d="M44.1864 59.213C52.8156 44.7379 63.6103 33.3816 74.0448 26.7059C84.5356 19.9942 94.3781 18.1722 101.345 22.1312C108.297 26.0824 111.531 35.3129 110.736 47.523C109.945 59.6698 105.165 74.439 96.5357 88.9148C87.9064 103.39 77.1118 114.746 66.6773 121.422C56.1865 128.134 46.344 129.956 39.3774 125.997C32.4247 122.045 29.1909 112.815 29.9861 100.605C30.7771 88.4581 35.5567 73.6888 44.1864 59.213Z" fill="black" stroke="black" stroke-width="2"/>
<path d="M86.2199 86.3149C86.8811 93.1095 84.2708 101.457 78.7243 110.761C77.5251 112.772 76.2631 114.696 74.9512 116.519C82.8542 109.895 90.744 100.586 97.3964 89.4274C113.791 61.9256 116.462 33.5957 103.361 26.1508C102.761 25.8098 102.139 25.5185 101.495 25.2758C91.7983 21.6472 80.0398 30.8672 72.5802 43.3804C68.5406 50.1566 67.0039 55.4248 67.4336 59.8404C67.6431 61.9925 68.329 64.0225 69.5427 65.8929L81.5712 52.6565L85.8789 55.1045L72.797 69.5003C73.7729 70.3135 74.8883 71.0808 76.1493 71.7974C76.9425 72.2482 77.6944 72.7243 78.4032 73.2269L71.827 80.4635C71.6227 80.3399 71.4143 80.2176 71.2017 80.0968C69.3693 79.0555 67.7572 77.8788 66.3881 76.5528L52.5867 91.7403L48.2789 89.2922L63.3564 72.7005C62.1496 70.6126 61.391 68.2492 61.1312 65.5793C60.4699 58.7847 63.0803 50.4375 68.6267 41.1336C69.826 39.122 71.088 37.1983 72.3999 35.375C64.4969 41.9996 56.6071 51.3078 49.9547 62.4668C33.5597 89.9686 30.8891 118.299 43.9898 125.743C44.5899 126.084 45.2127 126.376 45.8565 126.619C55.553 130.247 67.3113 121.027 74.7709 108.514C78.8105 101.738 80.3472 96.4695 79.9175 92.0539C79.7083 89.9044 79.0237 87.8766 77.8128 86.0081L65.7869 99.2417L61.4791 96.7937L94.7713 60.1579L99.0791 62.606L83.9988 79.2008C85.2032 81.287 85.9604 83.6481 86.2199 86.3149Z" fill="white"/>
<path d="M50.8188 62.9842C58.9587 49.33 68.9424 38.5074 78.4635 32.0331C88.0588 25.5083 96.8526 23.6006 102.871 27.0208C108.874 30.4322 111.515 38.8118 110.444 50.172C109.382 61.4448 104.677 75.2625 96.5365 88.9173C88.3966 102.572 78.4129 113.394 68.8918 119.868C59.2965 126.393 50.5027 128.301 44.4841 124.881C38.4813 121.469 35.8399 113.09 36.9108 101.729C37.9735 90.4567 42.6786 76.639 50.8188 62.9842Z" stroke="black" stroke-width="2"/>
</svg>
