<svg width="140" height="34" viewBox="0 0 140 34" fill="none" xmlns="http://www.w3.org/2000/svg">
<path d="M13.92 33C14.144 33 14.288 32.776 14.352 32.328C14.448 31.88 14.304 31.128 13.92 30.072C13.792 29.72 13.472 29 12.96 27.912C12.448 26.792 11.824 25.448 11.088 23.88C10.352 22.312 9.568 20.664 8.736 18.936C7.904 17.208 7.088 15.544 6.288 13.944C5.52 12.344 4.832 10.936 4.224 9.72C3.616 8.504 3.184 7.656 2.928 7.176C2.384 6.152 1.888 5.416 1.44 4.968C1.024 4.488 0.704 4.232 0.48 4.2H9.36C9.072 4.2 8.88 4.424 8.784 4.872C8.688 5.32 8.88 6.088 9.36 7.176C9.552 7.592 9.856 8.328 10.272 9.384C10.72 10.44 11.232 11.704 11.808 13.176C12.416 14.616 13.056 16.168 13.728 17.832C14.432 19.496 15.12 21.192 15.792 22.92C16.496 24.616 17.152 26.216 17.76 27.72H17.808C18.416 26.184 19.072 24.568 19.776 22.872C20.48 21.144 21.184 19.432 21.888 17.736C22.592 16.04 23.248 14.472 23.856 13.032C24.464 11.56 24.976 10.312 25.392 9.288C25.84 8.232 26.144 7.496 26.304 7.08C26.752 6.056 26.928 5.32 26.832 4.872C26.736 4.424 26.56 4.2 26.304 4.2H34.896C34.704 4.2 34.4 4.424 33.984 4.872C33.6 5.288 33.152 6.008 32.64 7.032C32.416 7.48 32 8.296 31.392 9.48C30.816 10.632 30.128 12.008 29.328 13.608C28.56 15.176 27.744 16.824 26.88 18.552C26.048 20.248 25.248 21.88 24.48 23.448C23.744 25.016 23.104 26.392 22.56 27.576C22.048 28.76 21.728 29.592 21.6 30.072C21.312 31.128 21.2 31.88 21.264 32.328C21.328 32.776 21.44 33 21.6 33H13.92ZM37.5986 33C37.8226 33 38.0306 32.776 38.2226 32.328C38.4466 31.88 38.5586 31.144 38.5586 30.12V13.416C38.5586 12.392 38.4466 11.672 38.2226 11.256C38.0306 10.808 37.8226 10.568 37.5986 10.536H43.4546V30.12C43.4546 31.144 43.5506 31.88 43.7426 32.328C43.9666 32.776 44.1906 33 44.4146 33H37.5986ZM40.5266 5.928C39.5986 5.928 38.8786 5.672 38.3666 5.16C37.8546 4.616 37.5986 3.992 37.5986 3.288C37.5986 2.552 37.8386 1.928 38.3186 1.416C38.8306 0.903998 39.5666 0.647999 40.5266 0.647999C41.4866 0.647999 42.2066 0.903998 42.6866 1.416C43.1986 1.928 43.4546 2.552 43.4546 3.288C43.4546 3.992 43.1986 4.616 42.6866 5.16C42.1746 5.672 41.4546 5.928 40.5266 5.928ZM60.9525 33.48C57.9445 33.48 55.4165 33.32 53.3685 33C51.3525 32.68 49.9765 32.36 49.2405 32.04V31.08L48.2325 26.952C49.0645 27.624 50.5205 28.328 52.6005 29.064C54.7125 29.768 57.2725 30.12 60.2805 30.12C62.2645 30.12 63.7525 29.992 64.7445 29.736C65.7365 29.448 66.3925 29.08 66.7125 28.632C67.0325 28.152 67.1925 27.624 67.1925 27.048C67.1925 26.376 66.9525 25.848 66.4725 25.464C66.0245 25.048 65.1605 24.712 63.8805 24.456C62.6325 24.168 60.7765 23.88 58.3125 23.592C55.6245 23.272 53.5445 22.808 52.0725 22.2C50.6325 21.592 49.6405 20.824 49.0965 19.896C48.5525 18.936 48.2805 17.8 48.2805 16.488C48.2805 15.464 48.5525 14.456 49.0965 13.464C49.6405 12.472 50.6485 11.656 52.1205 11.016C53.6245 10.376 55.7525 10.056 58.5045 10.056C61.4805 10.056 63.9765 10.216 65.9925 10.536C68.0405 10.856 69.4325 11.176 70.1685 11.496V12.456L71.1285 16.104C70.3285 15.528 68.8725 14.936 66.7605 14.328C64.6485 13.72 62.1045 13.416 59.1285 13.416C56.7605 13.416 55.1765 13.688 54.3765 14.232C53.5765 14.744 53.1765 15.416 53.1765 16.248C53.1765 16.728 53.2725 17.16 53.4645 17.544C53.6565 17.896 54.0405 18.216 54.6165 18.504C55.2245 18.792 56.1205 19.048 57.3045 19.272C58.5205 19.496 60.1365 19.72 62.1525 19.944C64.8725 20.232 66.9365 20.68 68.3445 21.288C69.7525 21.896 70.7125 22.664 71.2245 23.592C71.7685 24.488 72.0405 25.544 72.0405 26.76C72.0405 28.072 71.6725 29.24 70.9365 30.264C70.2325 31.256 69.0645 32.04 67.4325 32.616C65.8005 33.192 63.6405 33.48 60.9525 33.48ZM75.8955 33C76.1195 33 76.3275 32.776 76.5195 32.328C76.7435 31.88 76.8555 31.144 76.8555 30.12V13.416C76.8555 12.392 76.7435 11.672 76.5195 11.256C76.3275 10.808 76.1195 10.568 75.8955 10.536H81.7515V30.12C81.7515 31.144 81.8475 31.88 82.0395 32.328C82.2635 32.776 82.4875 33 82.7115 33H75.8955ZM78.8235 5.928C77.8955 5.928 77.1755 5.672 76.6635 5.16C76.1515 4.616 75.8955 3.992 75.8955 3.288C75.8955 2.552 76.1355 1.928 76.6155 1.416C77.1275 0.903998 77.8635 0.647999 78.8235 0.647999C79.7835 0.647999 80.5035 0.903998 80.9835 1.416C81.4955 1.928 81.7515 2.552 81.7515 3.288C81.7515 3.992 81.4955 4.616 80.9835 5.16C80.4715 5.672 79.7515 5.928 78.8235 5.928ZM98.6734 33.48C95.4734 33.48 92.9614 32.968 91.1374 31.944C89.3454 30.92 88.0814 29.528 87.3454 27.768C86.6414 26.008 86.2894 24.024 86.2894 21.816C86.2894 19.576 86.6574 17.576 87.3934 15.816C88.1614 14.056 89.4414 12.664 91.2334 11.64C93.0254 10.584 95.5054 10.056 98.6734 10.056C101.841 10.056 104.321 10.584 106.113 11.64C107.905 12.664 109.169 14.056 109.905 15.816C110.673 17.576 111.057 19.576 111.057 21.816C111.057 24.024 110.689 26.008 109.953 27.768C109.249 29.528 108.001 30.92 106.209 31.944C104.417 32.968 101.905 33.48 98.6734 33.48ZM98.6734 30.072C100.657 30.072 102.193 29.752 103.281 29.112C104.369 28.472 105.121 27.544 105.537 26.328C105.953 25.08 106.161 23.576 106.161 21.816C106.161 20.056 105.937 18.552 105.489 17.304C105.073 16.056 104.321 15.096 103.233 14.424C102.177 13.752 100.657 13.416 98.6734 13.416C96.7214 13.416 95.2014 13.768 94.1134 14.472C93.0254 15.144 92.2574 16.12 91.8094 17.4C91.3934 18.648 91.1854 20.136 91.1854 21.864C91.1854 23.56 91.3934 25.032 91.8094 26.28C92.2254 27.496 92.9774 28.44 94.0654 29.112C95.1534 29.752 96.6894 30.072 98.6734 30.072ZM114.942 33C115.166 33 115.374 32.776 115.566 32.328C115.79 31.88 115.902 31.144 115.902 30.12V13.896C115.902 12.872 115.79 12.152 115.566 11.736C115.374 11.288 115.166 11.048 114.942 11.016C116.35 11.016 117.566 10.92 118.59 10.728C119.646 10.504 120.382 10.28 120.798 10.056V12.984L120.702 13.608L120.798 13.704C121.278 13.096 121.886 12.52 122.622 11.976C123.39 11.432 124.334 10.984 125.454 10.632C126.574 10.248 127.886 10.056 129.39 10.056C132.366 10.056 134.638 10.904 136.206 12.6C137.806 14.296 138.606 16.952 138.606 20.568V30.12C138.606 31.144 138.702 31.88 138.894 32.328C139.118 32.776 139.342 33 139.566 33H132.75C132.974 33 133.182 32.776 133.374 32.328C133.598 31.88 133.71 31.144 133.71 30.12V20.712C133.71 18.824 133.47 17.352 132.99 16.296C132.51 15.24 131.838 14.504 130.974 14.088C130.142 13.64 129.166 13.416 128.046 13.416C126.862 13.416 125.71 13.672 124.59 14.184C123.47 14.696 122.558 15.512 121.854 16.632C121.15 17.752 120.798 19.256 120.798 21.144V30.12C120.798 31.144 120.894 31.88 121.086 32.328C121.31 32.776 121.534 33 121.758 33H114.942Z" fill="#160A2F"/>
</svg>
