<svg width="376" height="536" viewBox="0 0 376 536" fill="none" xmlns="http://www.w3.org/2000/svg">
<g filter="url(#filter0_d_387_16820)">
<rect x="2" y="2.08002" width="364" height="520" rx="4" fill="#EBE8E3"/>
<path d="M94.1781 76.08C94.3275 76.08 94.4768 75.9307 94.6261 75.632C94.7755 75.3334 94.8501 74.8427 94.8501 74.16V58.8C94.8501 58.1173 94.7755 57.6373 94.6261 57.36C94.4768 57.0613 94.3275 56.9013 94.1781 56.88H100.45C100.301 56.88 100.151 57.0293 100.002 57.328C99.8528 57.6267 99.7781 58.128 99.7781 58.832V63.728C99.7781 64.1973 99.8315 64.4747 99.9381 64.56C100.066 64.6454 100.45 64.688 101.09 64.688H109.314C109.954 64.688 110.327 64.656 110.434 64.592C110.541 64.5067 110.594 64.2187 110.594 63.728V58.8C110.594 58.1173 110.519 57.6373 110.37 57.36C110.221 57.0613 110.071 56.9013 109.922 56.88H116.194C116.045 56.88 115.895 57.0293 115.746 57.328C115.597 57.6267 115.522 58.128 115.522 58.832V74.16C115.522 74.8427 115.597 75.3334 115.746 75.632C115.895 75.9307 116.045 76.08 116.194 76.08H109.922C110.071 76.08 110.221 75.9307 110.37 75.632C110.519 75.3334 110.594 74.8427 110.594 74.16V69.168C110.594 68.6774 110.53 68.4 110.402 68.336C110.295 68.2507 109.933 68.208 109.314 68.208H101.09C100.45 68.208 100.066 68.2507 99.9381 68.336C99.8315 68.4214 99.7781 68.6987 99.7781 69.168V74.16C99.7781 74.8427 99.8528 75.3334 100.002 75.632C100.151 75.9307 100.301 76.08 100.45 76.08H94.1781ZM119.589 83.888C118.309 83.888 117.296 83.76 116.549 83.504C115.802 83.248 115.322 83.0027 115.109 82.768L115.749 77.808V76.848C116.005 77.4027 116.357 77.9787 116.805 78.576C117.232 79.1734 117.733 79.6747 118.309 80.08C118.885 80.4854 119.482 80.688 120.101 80.688C120.528 80.688 120.912 80.592 121.253 80.4C121.616 80.2294 121.946 79.952 122.245 79.568C122.565 79.184 122.874 78.704 123.173 78.128C123.6 77.2747 123.866 76.688 123.973 76.368C123.845 76.1974 123.632 75.8027 123.333 75.184C123.056 74.5654 122.714 73.8187 122.309 72.944C121.925 72.048 121.509 71.1094 121.061 70.128C120.634 69.1254 120.218 68.1547 119.813 67.216C119.429 66.2774 119.077 65.4454 118.757 64.72C118.458 63.9947 118.234 63.4613 118.085 63.12C117.786 62.3947 117.488 61.8827 117.189 61.584C116.869 61.264 116.624 61.104 116.453 61.104H123.013C122.906 61.104 122.832 61.2533 122.789 61.552C122.746 61.8507 122.821 62.3733 123.013 63.12C123.12 63.5253 123.29 64.1014 123.525 64.848C123.76 65.5734 124.026 66.3734 124.325 67.248C124.645 68.1227 124.965 69.008 125.285 69.904C125.626 70.8 125.936 71.6214 126.213 72.368H126.245C126.544 71.5787 126.853 70.7254 127.173 69.808C127.514 68.8694 127.845 67.952 128.165 67.056C128.506 66.16 128.794 65.36 129.029 64.656C129.285 63.952 129.477 63.4187 129.605 63.056C129.84 62.3307 129.936 61.8293 129.893 61.552C129.85 61.2533 129.754 61.104 129.605 61.104H135.973C135.802 61.104 135.568 61.2533 135.269 61.552C134.992 61.8293 134.725 62.32 134.469 63.024C134.32 63.408 134.074 64.0374 133.733 64.912C133.392 65.7867 132.986 66.7893 132.517 67.92C132.048 69.0507 131.557 70.2134 131.045 71.408C130.533 72.6027 130.032 73.7334 129.541 74.8C129.072 75.8454 128.656 76.7094 128.293 77.392C127.568 78.8 126.81 79.984 126.021 80.944C125.232 81.904 124.325 82.6294 123.301 83.12C122.277 83.632 121.04 83.888 119.589 83.888ZM137.049 83.184C137.198 83.184 137.337 83.0347 137.465 82.736C137.614 82.4374 137.689 81.9467 137.689 81.264V63.024C137.689 62.3413 137.614 61.8613 137.465 61.584C137.337 61.2854 137.198 61.1253 137.049 61.104H142.233V61.36L142.169 61.968L142.233 62C142.446 61.808 142.755 61.6267 143.161 61.456C143.587 61.264 144.067 61.104 144.601 60.976C145.155 60.848 145.71 60.784 146.265 60.784C148.249 60.784 149.785 61.136 150.873 61.84C151.982 62.5227 152.761 63.4507 153.209 64.624C153.657 65.7974 153.881 67.1307 153.881 68.624C153.881 70.096 153.657 71.4187 153.209 72.592C152.782 73.7654 152.014 74.6934 150.905 75.376C149.817 76.0587 148.27 76.4 146.265 76.4C145.433 76.4 144.654 76.2934 143.929 76.08C143.225 75.888 142.659 75.6 142.233 75.216L142.169 75.248L142.233 75.888V81.264C142.233 81.9467 142.297 82.4374 142.425 82.736C142.574 83.0347 142.723 83.184 142.873 83.184H137.049ZM145.625 73.168C146.521 73.168 147.235 73.04 147.769 72.784C148.323 72.5067 148.718 72.0374 148.953 71.376C149.209 70.7147 149.337 69.7974 149.337 68.624C149.337 67.4507 149.209 66.5333 148.953 65.872C148.718 65.1894 148.323 64.7093 147.769 64.432C147.235 64.1333 146.521 63.984 145.625 63.984C144.921 63.984 144.313 64.1547 143.801 64.496C143.289 64.816 142.894 65.3174 142.617 66C142.361 66.6827 142.233 67.568 142.233 68.656C142.233 69.7654 142.371 70.6507 142.649 71.312C142.926 71.9734 143.31 72.4534 143.801 72.752C144.313 73.0294 144.921 73.168 145.625 73.168ZM164.492 76.4C162.807 76.4 161.399 76.2294 160.268 75.888C159.159 75.5254 158.273 75.0134 157.612 74.352C156.951 73.6694 156.481 72.848 156.204 71.888C155.927 70.928 155.788 69.84 155.788 68.624C155.788 66.2133 156.46 64.304 157.804 62.896C159.148 61.488 161.207 60.784 163.98 60.784C165.601 60.784 166.913 61.008 167.916 61.456C168.94 61.904 169.719 62.5013 170.252 63.248C170.785 63.9947 171.148 64.8267 171.34 65.744C171.553 66.64 171.66 67.5467 171.66 68.464V69.968C171.66 69.904 171.361 69.84 170.764 69.776C170.188 69.6907 169.207 69.648 167.82 69.648H160.396C160.396 70.8214 160.748 71.7067 161.452 72.304C162.177 72.88 163.351 73.168 164.972 73.168C166.337 73.168 167.553 73.008 168.62 72.688C169.708 72.3467 170.497 72.0267 170.988 71.728V72.688L171.308 75.12C170.903 75.3974 170.124 75.6854 168.972 75.984C167.82 76.2614 166.327 76.4 164.492 76.4ZM161.58 66.896H167.116C167.116 66.4267 167.009 65.968 166.796 65.52C166.604 65.072 166.284 64.7093 165.836 64.432C165.388 64.1333 164.769 63.984 163.98 63.984C163.191 63.984 162.551 64.1013 162.06 64.336C161.591 64.5707 161.239 64.8587 161.004 65.2C160.791 65.5414 160.684 65.8934 160.684 66.256C160.684 66.4693 160.748 66.6293 160.876 66.736C161.004 66.8427 161.239 66.896 161.58 66.896ZM174.361 76.08C174.51 76.08 174.649 75.9307 174.777 75.632C174.926 75.3334 175.001 74.8427 175.001 74.16V63.344C175.001 62.6613 174.926 62.1814 174.777 61.904C174.649 61.6053 174.51 61.4453 174.361 61.424C175.3 61.424 176.26 61.36 177.241 61.232C178.222 61.0827 178.99 60.9333 179.545 60.784V62.064L179.481 62.608L179.545 62.672C179.694 62.4373 179.929 62.1814 180.249 61.904C180.59 61.6053 181.017 61.3493 181.529 61.136C182.062 60.9014 182.681 60.784 183.385 60.784C184.43 60.784 185.358 60.9333 186.169 61.232C186.98 61.5093 187.556 61.7973 187.897 62.096L186.937 66.384V67.344C186.617 66.896 186.18 66.4374 185.625 65.968C185.092 65.4987 184.494 65.104 183.833 64.784C183.193 64.464 182.532 64.304 181.849 64.304C181.081 64.304 180.505 64.5813 180.121 65.136C179.737 65.6907 179.545 66.5653 179.545 67.76V74.16C179.545 74.8427 179.609 75.3334 179.737 75.632C179.886 75.9307 180.036 76.08 180.185 76.08H174.361ZM197.834 76.08C197.984 76.08 198.133 75.9307 198.282 75.632C198.432 75.3334 198.506 74.8427 198.506 74.16V58.8C198.506 58.1173 198.432 57.6373 198.282 57.36C198.133 57.0613 197.984 56.9013 197.834 56.88H216.522V57.84L217.162 61.552C216.629 61.3173 215.69 61.072 214.346 60.816C213.002 60.5387 211.381 60.4 209.482 60.4H204.746C204.106 60.4 203.722 60.4534 203.594 60.56C203.488 60.6453 203.434 60.912 203.434 61.36V63.728C203.434 64.1973 203.488 64.4747 203.594 64.56C203.722 64.6454 204.096 64.688 204.714 64.688H209.322C210.56 64.688 211.552 64.624 212.298 64.496C213.066 64.3467 213.568 64.1973 213.802 64.048C213.717 64.4533 213.621 64.9227 213.514 65.456C213.408 65.9894 213.322 66.5014 213.258 66.992C213.194 67.4827 213.162 67.888 213.162 68.208H204.714C204.096 68.208 203.722 68.2507 203.594 68.336C203.488 68.4 203.434 68.6774 203.434 69.168V74.16C203.434 74.864 203.509 75.3654 203.658 75.664C203.808 75.9414 203.957 76.08 204.106 76.08H197.834ZM223.787 76.4C221.867 76.4 220.331 76.0267 219.179 75.28C218.048 74.512 217.483 73.2854 217.483 71.6C217.483 70.4267 217.782 69.4774 218.379 68.752C218.976 68.0267 219.787 67.4934 220.811 67.152C221.856 66.7894 223.04 66.608 224.363 66.608C225.344 66.608 226.176 66.6934 226.859 66.864C227.563 67.0347 228.128 67.216 228.555 67.408C228.982 67.6 229.259 67.7387 229.387 67.824C229.387 66.928 229.291 66.2027 229.099 65.648C228.907 65.072 228.555 64.656 228.043 64.4C227.552 64.1227 226.859 63.984 225.963 63.984C224.662 63.984 223.51 64.112 222.507 64.368C221.504 64.624 220.683 64.9227 220.043 65.264C219.424 65.6053 218.998 65.8933 218.763 66.128V65.168L218.443 62.032C218.592 61.9467 218.987 61.808 219.627 61.616C220.267 61.424 221.142 61.2427 222.251 61.072C223.36 60.88 224.683 60.784 226.219 60.784C228.331 60.784 229.942 61.0933 231.051 61.712C232.16 62.3093 232.918 63.1733 233.323 64.304C233.75 65.4347 233.963 66.8 233.963 68.4V74.16C233.963 74.7574 234.027 75.1947 234.155 75.472C234.304 75.728 234.454 75.9307 234.603 76.08H229.419V75.408L229.483 74.8L229.419 74.736C229.248 74.928 229.003 75.12 228.683 75.312C228.363 75.504 227.968 75.6854 227.499 75.856C227.03 76.0054 226.486 76.1334 225.867 76.24C225.248 76.3467 224.555 76.4 223.787 76.4ZM225.291 73.168C226.187 73.168 226.934 73.104 227.531 72.976C228.15 72.8267 228.619 72.6347 228.939 72.4C229.259 72.144 229.419 71.8454 229.419 71.504C229.419 71.0134 229.046 70.608 228.299 70.288C227.574 69.968 226.582 69.808 225.323 69.808C224.107 69.808 223.243 69.9787 222.731 70.32C222.24 70.6614 221.995 71.088 221.995 71.6C221.995 72.24 222.283 72.6667 222.859 72.88C223.435 73.072 224.246 73.168 225.291 73.168ZM245.268 76.4C243.369 76.4 241.769 76.2934 240.468 76.08C239.167 75.8667 238.271 75.6534 237.78 75.44V74.48L237.108 71.344C237.663 71.7494 238.697 72.1547 240.212 72.56C241.727 72.9654 243.583 73.168 245.78 73.168C246.441 73.168 246.964 73.1254 247.348 73.04C247.753 72.9547 248.041 72.816 248.212 72.624C248.383 72.432 248.468 72.1867 248.468 71.888C248.468 71.5254 248.329 71.248 248.052 71.056C247.796 70.864 247.327 70.7147 246.644 70.608C245.961 70.48 244.969 70.3307 243.668 70.16C242.025 69.9467 240.724 69.648 239.764 69.264C238.804 68.8587 238.121 68.3467 237.716 67.728C237.332 67.088 237.14 66.3094 237.14 65.392C237.14 64.5387 237.343 63.7707 237.748 63.088C238.175 62.384 238.9 61.8293 239.924 61.424C240.969 60.9973 242.42 60.784 244.276 60.784C246.025 60.784 247.561 60.8907 248.884 61.104C250.207 61.3173 251.156 61.5307 251.732 61.744V62.704L252.372 65.52C251.881 65.2 250.921 64.8693 249.492 64.528C248.063 64.1867 246.249 64.016 244.052 64.016C243.199 64.016 242.591 64.1014 242.228 64.272C241.865 64.4427 241.684 64.7413 241.684 65.168C241.684 65.3813 241.737 65.5627 241.844 65.712C241.972 65.8614 242.207 66 242.548 66.128C242.889 66.256 243.38 66.384 244.02 66.512C244.66 66.6187 245.503 66.736 246.548 66.864C248.361 67.0987 249.727 67.4294 250.644 67.856C251.561 68.2614 252.18 68.7734 252.5 69.392C252.82 69.9894 252.98 70.7147 252.98 71.568C252.98 72.656 252.703 73.5627 252.148 74.288C251.615 74.992 250.772 75.5254 249.62 75.888C248.489 76.2294 247.039 76.4 245.268 76.4ZM261.603 76.4C260.131 76.4 259.064 76.0907 258.403 75.472C257.741 74.832 257.411 73.7974 257.411 72.368V64.304H254.531V61.104C255.512 61.104 256.28 60.9867 256.835 60.752C257.389 60.496 257.784 60.0587 258.019 59.44C258.253 58.8213 258.371 57.9573 258.371 56.848H261.955V61.104H267.427C267.277 61.5307 267.128 62.064 266.979 62.704C266.851 63.3227 266.787 63.856 266.787 64.304H261.955V70.608C261.955 71.5894 262.029 72.2614 262.179 72.624C262.328 72.9867 262.68 73.168 263.235 73.168C263.597 73.168 263.992 73.04 264.419 72.784C264.867 72.528 265.293 72.2187 265.699 71.856C266.125 71.472 266.477 71.1094 266.755 70.768V71.76L267.075 74.864C266.819 75.0774 266.435 75.312 265.923 75.568C265.411 75.8027 264.781 75.9947 264.035 76.144C263.309 76.3147 262.499 76.4 261.603 76.4ZM122.475 124.08C122.624 124.08 122.774 123.931 122.923 123.632C123.072 123.333 123.147 122.843 123.147 122.16V106.8C123.147 106.117 123.072 105.637 122.923 105.36C122.774 105.061 122.624 104.901 122.475 104.88H141.163V105.84L141.803 109.552C141.27 109.317 140.331 109.072 138.987 108.816C137.643 108.539 136.022 108.4 134.123 108.4H129.387C128.747 108.4 128.363 108.453 128.235 108.56C128.128 108.645 128.075 108.912 128.075 109.36V111.728C128.075 112.197 128.128 112.475 128.235 112.56C128.363 112.645 128.736 112.688 129.355 112.688H133.963C135.2 112.688 136.192 112.624 136.939 112.496C137.707 112.347 138.208 112.197 138.443 112.048C138.358 112.453 138.262 112.923 138.155 113.456C138.048 113.989 137.963 114.501 137.899 114.992C137.835 115.483 137.803 115.888 137.803 116.208H129.355C128.736 116.208 128.363 116.251 128.235 116.336C128.128 116.4 128.075 116.677 128.075 117.168V122.16C128.075 122.864 128.15 123.365 128.299 123.664C128.448 123.941 128.598 124.08 128.747 124.08H122.475ZM150.31 124.4C149.072 124.4 148.016 124.187 147.141 123.76C146.267 123.312 145.606 122.555 145.158 121.488C144.71 120.4 144.486 118.896 144.486 116.976V111.024C144.486 110.341 144.411 109.851 144.262 109.552C144.134 109.253 143.995 109.104 143.846 109.104H149.734C149.584 109.104 149.424 109.253 149.254 109.552C149.104 109.851 149.03 110.341 149.03 111.024V117.424C149.03 118.768 149.275 119.728 149.766 120.304C150.278 120.88 150.864 121.168 151.526 121.168C152.464 121.168 153.19 120.955 153.702 120.528C154.214 120.08 154.576 119.504 154.79 118.8C155.003 118.075 155.11 117.317 155.11 116.528V111.024C155.11 110.341 155.035 109.861 154.886 109.584C154.758 109.285 154.619 109.125 154.47 109.104H159.654V122.16C159.654 122.843 159.718 123.333 159.846 123.632C159.995 123.931 160.144 124.08 160.294 124.08H155.11V122.832L155.174 122.192L155.11 122.128C154.896 122.448 154.63 122.747 154.31 123.024C153.99 123.301 153.627 123.547 153.222 123.76C152.816 123.952 152.368 124.101 151.878 124.208C151.387 124.336 150.864 124.4 150.31 124.4ZM162.908 124.08C163.057 124.08 163.196 123.931 163.324 123.632C163.473 123.333 163.548 122.843 163.548 122.16V111.344C163.548 110.661 163.473 110.181 163.324 109.904C163.196 109.605 163.057 109.445 162.908 109.424C163.847 109.424 164.807 109.36 165.788 109.232C166.769 109.083 167.537 108.933 168.092 108.784V110.736L168.028 111.152L168.092 111.216C168.156 111.067 168.359 110.8 168.7 110.416C169.041 110.032 169.532 109.669 170.172 109.328C170.812 108.965 171.601 108.784 172.54 108.784C174.524 108.784 176.039 109.349 177.084 110.48C178.151 111.611 178.684 113.381 178.684 115.792V122.16C178.684 122.843 178.748 123.333 178.876 123.632C179.025 123.931 179.175 124.08 179.324 124.08H173.5C173.649 124.08 173.788 123.931 173.916 123.632C174.065 123.333 174.14 122.843 174.14 122.16V115.888C174.14 114.885 174.033 114.107 173.82 113.552C173.607 112.976 173.308 112.571 172.924 112.336C172.561 112.101 172.135 111.984 171.644 111.984C171.047 111.984 170.471 112.133 169.916 112.432C169.383 112.709 168.945 113.157 168.604 113.776C168.263 114.373 168.092 115.173 168.092 116.176V122.16C168.092 122.843 168.156 123.333 168.284 123.632C168.433 123.931 168.583 124.08 168.732 124.08H162.908ZM188.883 124.4C186.985 124.4 185.491 124.059 184.403 123.376C183.337 122.693 182.579 121.765 182.131 120.592C181.705 119.419 181.491 118.096 181.491 116.624C181.491 115.131 181.705 113.797 182.131 112.624C182.579 111.451 183.337 110.523 184.403 109.84C185.491 109.136 186.985 108.784 188.883 108.784C189.523 108.784 190.099 108.837 190.611 108.944C191.145 109.051 191.614 109.2 192.019 109.392C192.446 109.563 192.819 109.787 193.139 110.064L193.203 110.032L193.139 109.424V103.92C193.139 103.237 193.065 102.757 192.915 102.48C192.787 102.181 192.649 102.021 192.499 102H197.683V122.16C197.683 122.843 197.747 123.333 197.875 123.632C198.025 123.931 198.174 124.08 198.323 124.08H193.139V123.664L193.235 123.056L193.139 123.024C192.819 123.301 192.446 123.547 192.019 123.76C191.593 123.952 191.113 124.101 190.579 124.208C190.067 124.336 189.502 124.4 188.883 124.4ZM189.427 121.168C190.131 121.168 190.718 121.061 191.187 120.848C191.678 120.635 192.062 120.336 192.339 119.952C192.638 119.547 192.841 119.067 192.947 118.512C193.075 117.936 193.139 117.307 193.139 116.624C193.139 115.941 193.075 115.323 192.947 114.768C192.819 114.192 192.617 113.701 192.339 113.296C192.062 112.869 191.678 112.549 191.187 112.336C190.718 112.101 190.131 111.984 189.427 111.984C188.403 111.984 187.571 112.336 186.931 113.04C186.313 113.744 186.003 114.949 186.003 116.656C186.003 117.787 186.142 118.683 186.419 119.344C186.697 120.005 187.091 120.475 187.603 120.752C188.115 121.029 188.723 121.168 189.427 121.168ZM201.346 124.08C201.495 124.08 201.644 123.931 201.794 123.632C201.943 123.333 202.018 122.843 202.018 122.16V111.024C202.018 110.341 201.943 109.851 201.794 109.552C201.666 109.253 201.527 109.104 201.378 109.104H206.562V122.16C206.562 122.843 206.626 123.333 206.754 123.632C206.903 123.931 207.052 124.08 207.202 124.08H201.346ZM203.938 106.672C203.148 106.672 202.519 106.459 202.049 106.032C201.58 105.605 201.346 105.019 201.346 104.272C201.346 103.525 201.57 102.939 202.018 102.512C202.487 102.085 203.127 101.872 203.938 101.872C204.748 101.872 205.378 102.085 205.826 102.512C206.295 102.939 206.53 103.525 206.53 104.272C206.53 105.019 206.295 105.605 205.826 106.032C205.378 106.459 204.748 106.672 203.938 106.672ZM210.096 124.08C210.245 124.08 210.384 123.931 210.512 123.632C210.661 123.333 210.736 122.843 210.736 122.16V111.344C210.736 110.661 210.661 110.181 210.512 109.904C210.384 109.605 210.245 109.445 210.096 109.424C211.034 109.424 211.994 109.36 212.976 109.232C213.957 109.083 214.725 108.933 215.28 108.784V110.736L215.216 111.152L215.28 111.216C215.344 111.067 215.546 110.8 215.888 110.416C216.229 110.032 216.72 109.669 217.36 109.328C218 108.965 218.789 108.784 219.728 108.784C221.712 108.784 223.226 109.349 224.272 110.48C225.338 111.611 225.872 113.381 225.872 115.792V122.16C225.872 122.843 225.936 123.333 226.064 123.632C226.213 123.931 226.362 124.08 226.512 124.08H220.688C220.837 124.08 220.976 123.931 221.104 123.632C221.253 123.333 221.328 122.843 221.328 122.16V115.888C221.328 114.885 221.221 114.107 221.008 113.552C220.794 112.976 220.496 112.571 220.112 112.336C219.749 112.101 219.322 111.984 218.832 111.984C218.234 111.984 217.658 112.133 217.104 112.432C216.57 112.709 216.133 113.157 215.792 113.776C215.45 114.373 215.28 115.173 215.28 116.176V122.16C215.28 122.843 215.344 123.333 215.472 123.632C215.621 123.931 215.77 124.08 215.92 124.08H210.096ZM236.839 131.888C235.601 131.888 234.46 131.803 233.415 131.632C232.391 131.461 231.495 131.248 230.727 130.992C229.98 130.757 229.404 130.523 228.999 130.288L229.639 125.488V124.56C229.937 125.136 230.407 125.744 231.047 126.384C231.687 127.024 232.487 127.568 233.447 128.016C234.407 128.464 235.495 128.688 236.711 128.688C237.5 128.688 238.161 128.517 238.695 128.176C239.228 127.856 239.633 127.355 239.911 126.672C240.188 125.989 240.327 125.147 240.327 124.144V123.632L240.391 123.056L240.327 122.992C240.028 123.312 239.623 123.579 239.111 123.792C238.62 123.984 238.076 124.133 237.479 124.24C236.903 124.347 236.327 124.4 235.751 124.4C234.023 124.4 232.636 124.059 231.591 123.376C230.567 122.693 229.82 121.765 229.351 120.592C228.903 119.419 228.679 118.096 228.679 116.624C228.679 115.131 228.903 113.797 229.351 112.624C229.799 111.451 230.535 110.523 231.559 109.84C232.604 109.136 234.001 108.784 235.751 108.784C236.348 108.784 236.935 108.827 237.511 108.912C238.087 108.997 238.62 109.125 239.111 109.296C239.601 109.445 240.007 109.659 240.327 109.936L240.391 109.904L240.327 109.296V109.104H245.511C245.361 109.125 245.212 109.285 245.063 109.584C244.935 109.883 244.871 110.384 244.871 111.088V123.344C244.871 126.437 244.209 128.635 242.887 129.936C241.585 131.237 239.569 131.888 236.839 131.888ZM236.615 121.168C237.361 121.168 238.012 121.04 238.567 120.784C239.121 120.528 239.548 120.069 239.847 119.408C240.167 118.747 240.327 117.819 240.327 116.624C240.327 115.451 240.167 114.533 239.847 113.872C239.548 113.189 239.121 112.709 238.567 112.432C238.012 112.133 237.361 111.984 236.615 111.984C235.911 111.984 235.303 112.133 234.791 112.432C234.279 112.731 233.884 113.221 233.607 113.904C233.329 114.587 233.191 115.504 233.191 116.656C233.191 117.787 233.319 118.683 233.575 119.344C233.852 120.005 234.247 120.475 234.759 120.752C235.271 121.029 235.889 121.168 236.615 121.168Z" fill="#1A1A1A"/>
<circle cx="185" cy="260.58" r="70.5" stroke="black" stroke-width="2" stroke-linecap="round" stroke-dasharray="11 11"/>
<rect x="154" y="168.08" width="60" height="44" fill="white"/>
<path d="M161.871 176.689H193.835" stroke="black" stroke-width="2" stroke-linecap="round"/>
<path d="M161.871 180.725H180.429" stroke="black" stroke-width="2" stroke-linecap="round"/>
<path d="M162.215 189.678H189.863" stroke="black" stroke-width="2" stroke-linecap="round"/>
<path d="M162.215 193.713H183.161" stroke="black" stroke-width="2" stroke-linecap="round"/>
<path d="M190.703 202.588H204.946" stroke="#BAC4FA" stroke-width="4" stroke-linecap="round"/>
<rect x="154" y="168.08" width="60" height="44" stroke="black" stroke-width="2"/>
<circle cx="238.687" cy="295.767" r="31.6866" fill="#FEDB9E" stroke="black" stroke-width="2"/>
<circle cx="238.766" cy="296.08" r="24" fill="white"/>
<path fill-rule="evenodd" clip-rule="evenodd" d="M238.685 321.192C252.725 321.192 264.108 309.809 264.108 295.769C264.108 281.728 252.725 270.346 238.685 270.346C224.644 270.346 213.262 281.728 213.262 295.769C213.262 309.809 224.644 321.192 238.685 321.192ZM220.005 284.489C220.005 288.752 221.694 292.073 225.046 294.249C226.389 295.12 227.971 295.79 229.774 296.276L225.743 305.592H230.023L238.522 285.952H234.241L230.98 293.489C229.248 293.063 227.819 292.472 226.68 291.732C224.262 290.163 223.005 287.838 223.005 284.489C223.005 281.677 224.005 278.954 225.934 276.752C229.578 274.305 233.964 272.877 238.683 272.877C251.327 272.877 261.577 283.127 261.577 295.771C261.577 300.786 259.964 305.425 257.229 309.196C257.328 308.502 257.378 307.795 257.378 307.077C257.378 302.815 255.689 299.493 252.336 297.318C250.992 296.445 249.406 295.774 247.599 295.288L251.639 285.952H247.358L243.638 294.549C242.099 294.37 240.447 294.283 238.691 294.283C238.407 294.283 238.128 294.281 237.852 294.276L236.57 297.238C237.259 297.268 237.966 297.283 238.691 297.283C240.013 297.283 241.245 297.335 242.389 297.437L238.86 305.592H243.14L246.393 298.075C248.13 298.501 249.562 299.093 250.703 299.834C253.121 301.403 254.378 303.728 254.378 307.077C254.378 309.852 253.404 312.539 251.526 314.726C247.863 317.212 243.443 318.664 238.683 318.664C226.039 318.664 215.789 308.414 215.789 295.771C215.789 290.739 217.412 286.087 220.163 282.309C220.058 283.023 220.005 283.75 220.005 284.489Z" fill="black"/>
<rect width="35.2164" height="35.2164" transform="matrix(0.86601 0.500028 3.18351e-05 1 118.5 259.697)" fill="#6E6E6E"/>
<rect width="35.2164" height="35.2164" transform="matrix(0.86601 -0.500028 -3.18351e-05 1 88 277.307)" fill="#5A5A5A"/>
<rect width="35.2164" height="35.2164" transform="matrix(0.866041 0.499972 -0.866041 0.499972 118.5 294.912)" fill="#AAAAAA"/>
<mask id="path-16-outside-1_387_16820" maskUnits="userSpaceOnUse" x="86.2679" y="274.303" width="34.6417" height="60.0011" fill="black">
<rect fill="white" x="86.2679" y="274.303" width="34.6417" height="60.0011"/>
<path d="M88 277.303L118.498 294.912L118.499 330.128L88.0011 312.519L88 277.303Z"/>
</mask>
<path d="M88 277.303L118.498 294.912L118.499 330.128L88.0011 312.519L88 277.303Z" fill="#FEDB9E"/>
<path d="M88 277.303L87.9999 275.303L86.268 276.303L88 277.303ZM118.498 294.912L120.23 295.912L118.498 292.912L118.498 294.912ZM118.499 330.128L118.499 332.128L120.231 331.128L118.499 330.128ZM88.0011 312.519L86.2691 311.519C86.2691 312.624 87.0446 313.967 88.0012 314.519L88.0011 312.519ZM88.0001 279.303L118.498 296.912L118.498 292.912L87.9999 275.303L88.0001 279.303ZM116.766 293.912L116.767 329.128L120.231 331.128L120.23 295.912L116.766 293.912ZM118.499 328.128L88.0011 310.519L88.0012 314.519L118.499 332.128L118.499 328.128ZM89.7331 313.519L89.732 278.303L86.268 276.303L86.2691 311.519L89.7331 313.519Z" fill="black" mask="url(#path-16-outside-1_387_16820)"/>
<mask id="path-18-outside-2_387_16820" maskUnits="userSpaceOnUse" x="116.767" y="273.907" width="34.6417" height="60.0011" fill="black">
<rect fill="white" x="116.767" y="273.907" width="34.6417" height="60.0011"/>
<path d="M118.5 294.908L148.998 277.299L148.997 312.515L118.499 330.124L118.5 294.908Z"/>
</mask>
<path d="M118.5 294.908L148.998 277.299L148.997 312.515L118.499 330.124L118.5 294.908Z" fill="#BAC4FA"/>
<path d="M118.5 294.908L118.5 292.908L116.768 295.908L118.5 294.908ZM148.998 277.299L150.73 276.299L148.998 275.299L148.998 277.299ZM148.997 312.515L148.997 314.515C149.953 313.963 150.729 312.62 150.729 311.515L148.997 312.515ZM118.499 330.124L116.767 331.125L118.499 332.124L118.499 330.124ZM118.5 296.908L148.998 279.299L148.998 275.299L118.5 292.908L118.5 296.908ZM147.266 278.299L147.265 313.515L150.729 311.515L150.73 276.299L147.266 278.299ZM148.997 310.515L118.499 328.124L118.499 332.124L148.997 314.515L148.997 310.515ZM120.231 329.124L120.232 293.908L116.768 295.908L116.767 331.125L120.231 329.124Z" fill="black" mask="url(#path-18-outside-2_387_16820)"/>
<mask id="path-20-outside-3_387_16820" maskUnits="userSpaceOnUse" x="84.5358" y="257.304" width="69.2833" height="39.9978" fill="black">
<rect fill="white" x="84.5358" y="257.304" width="69.2833" height="39.9978"/>
<path d="M88 277.303L118.499 259.695L148.998 277.303L118.499 294.91L88 277.303Z"/>
</mask>
<path d="M88 277.303L118.499 259.695L148.998 277.303L118.499 294.91L88 277.303Z" fill="white"/>
<path d="M88 277.303L86.2679 276.303V278.303L88 277.303ZM118.499 259.695L120.231 258.696C119.274 258.143 117.723 258.143 116.767 258.696L118.499 259.695ZM148.998 277.303L150.73 278.303V276.303L148.998 277.303ZM118.499 294.91L116.767 295.91H120.231L118.499 294.91ZM89.7321 278.303L120.231 260.695L116.767 258.696L86.2679 276.303L89.7321 278.303ZM116.767 260.695L147.266 278.303L150.73 276.303L120.231 258.696L116.767 260.695ZM147.266 276.303L116.767 293.91L120.231 295.91L150.73 278.303L147.266 276.303ZM120.231 293.91L89.7321 276.303L86.2679 278.303L116.767 295.91L120.231 293.91Z" fill="black" mask="url(#path-20-outside-3_387_16820)"/>
<path d="M32.5875 410.08V395.68H38.2775C38.4175 395.68 38.5842 395.687 38.7775 395.7C38.9708 395.707 39.1575 395.727 39.3375 395.76C40.1175 395.88 40.7708 396.147 41.2975 396.56C41.8308 396.973 42.2308 397.497 42.4975 398.13C42.7642 398.757 42.8975 399.453 42.8975 400.22C42.8975 401.333 42.6075 402.3 42.0275 403.12C41.4475 403.933 40.5975 404.443 39.4775 404.65L38.7975 404.76H34.3675V410.08H32.5875ZM41.1575 410.08L38.3175 404.22L40.0775 403.68L43.1975 410.08H41.1575ZM34.3675 403.07H38.2175C38.3442 403.07 38.4875 403.063 38.6475 403.05C38.8142 403.037 38.9708 403.013 39.1175 402.98C39.5775 402.873 39.9508 402.68 40.2375 402.4C40.5308 402.113 40.7442 401.78 40.8775 401.4C41.0108 401.013 41.0775 400.62 41.0775 400.22C41.0775 399.82 41.0108 399.43 40.8775 399.05C40.7442 398.663 40.5308 398.327 40.2375 398.04C39.9508 397.753 39.5775 397.56 39.1175 397.46C38.9708 397.42 38.8142 397.397 38.6475 397.39C38.4875 397.377 38.3442 397.37 38.2175 397.37H34.3675V403.07ZM50.08 410.38C49.02 410.38 48.0933 410.147 47.3 409.68C46.5133 409.207 45.9 408.55 45.46 407.71C45.02 406.863 44.8 405.877 44.8 404.75C44.8 403.57 45.0167 402.55 45.45 401.69C45.8833 400.823 46.4867 400.157 47.26 399.69C48.04 399.217 48.9533 398.98 50 398.98C51.0867 398.98 52.01 399.23 52.77 399.73C53.5367 400.23 54.11 400.943 54.49 401.87C54.8767 402.797 55.0433 403.9 54.99 405.18H53.19V404.54C53.17 403.213 52.9 402.223 52.38 401.57C51.86 400.91 51.0867 400.58 50.06 400.58C48.96 400.58 48.1233 400.933 47.55 401.64C46.9767 402.347 46.69 403.36 46.69 404.68C46.69 405.953 46.9767 406.94 47.55 407.64C48.1233 408.34 48.94 408.69 50 408.69C50.7133 408.69 51.3333 408.527 51.86 408.2C52.3867 407.873 52.8 407.403 53.1 406.79L54.81 407.38C54.39 408.333 53.7567 409.073 52.91 409.6C52.07 410.12 51.1267 410.38 50.08 410.38ZM46.09 405.18V403.75H54.07V405.18H46.09ZM61.7664 410.38C60.6731 410.38 59.7431 410.137 58.9764 409.65C58.2164 409.157 57.6364 408.48 57.2364 407.62C56.8364 406.76 56.6297 405.78 56.6164 404.68C56.6297 403.553 56.8397 402.563 57.2464 401.71C57.6597 400.85 58.2497 400.18 59.0164 399.7C59.7831 399.22 60.7064 398.98 61.7864 398.98C62.9264 398.98 63.9064 399.26 64.7264 399.82C65.5531 400.38 66.1064 401.147 66.3864 402.12L64.6264 402.65C64.3997 402.023 64.0297 401.537 63.5164 401.19C63.0097 400.843 62.4264 400.67 61.7664 400.67C61.0264 400.67 60.4164 400.843 59.9364 401.19C59.4564 401.53 59.0997 402.003 58.8664 402.61C58.6331 403.21 58.5131 403.9 58.5064 404.68C58.5197 405.88 58.7964 406.85 59.3364 407.59C59.8831 408.323 60.6931 408.69 61.7664 408.69C62.4731 408.69 63.0597 408.53 63.5264 408.21C63.9931 407.883 64.3464 407.413 64.5864 406.8L66.3864 407.27C66.0131 408.277 65.4297 409.047 64.6364 409.58C63.8431 410.113 62.8864 410.38 61.7664 410.38ZM72.8144 410.38C71.7544 410.38 70.8277 410.147 70.0344 409.68C69.2477 409.207 68.6344 408.55 68.1944 407.71C67.7544 406.863 67.5344 405.877 67.5344 404.75C67.5344 403.57 67.751 402.55 68.1844 401.69C68.6177 400.823 69.221 400.157 69.9944 399.69C70.7744 399.217 71.6877 398.98 72.7344 398.98C73.821 398.98 74.7444 399.23 75.5044 399.73C76.271 400.23 76.8444 400.943 77.2244 401.87C77.611 402.797 77.7777 403.9 77.7244 405.18H75.9244V404.54C75.9044 403.213 75.6344 402.223 75.1144 401.57C74.5944 400.91 73.821 400.58 72.7944 400.58C71.6944 400.58 70.8577 400.933 70.2844 401.64C69.711 402.347 69.4244 403.36 69.4244 404.68C69.4244 405.953 69.711 406.94 70.2844 407.64C70.8577 408.34 71.6744 408.69 72.7344 408.69C73.4477 408.69 74.0677 408.527 74.5944 408.2C75.121 407.873 75.5344 407.403 75.8344 406.79L77.5444 407.38C77.1244 408.333 76.491 409.073 75.6444 409.6C74.8044 410.12 73.861 410.38 72.8144 410.38ZM68.8244 405.18V403.75H76.8044V405.18H68.8244ZM80.1508 397.37V395.53H81.9308V397.37H80.1508ZM80.1508 410.08V399.28H81.9308V410.08H80.1508ZM87.8513 410.08L83.9313 399.28H85.7313L88.7613 407.81L91.7813 399.28H93.5913L89.6713 410.08H87.8513ZM99.6894 410.38C98.6294 410.38 97.7027 410.147 96.9094 409.68C96.1227 409.207 95.5094 408.55 95.0694 407.71C94.6294 406.863 94.4094 405.877 94.4094 404.75C94.4094 403.57 94.626 402.55 95.0594 401.69C95.4927 400.823 96.096 400.157 96.8694 399.69C97.6494 399.217 98.5627 398.98 99.6094 398.98C100.696 398.98 101.619 399.23 102.379 399.73C103.146 400.23 103.719 400.943 104.099 401.87C104.486 402.797 104.653 403.9 104.599 405.18H102.799V404.54C102.779 403.213 102.509 402.223 101.989 401.57C101.469 400.91 100.696 400.58 99.6694 400.58C98.5694 400.58 97.7327 400.933 97.1594 401.64C96.586 402.347 96.2994 403.36 96.2994 404.68C96.2994 405.953 96.586 406.94 97.1594 407.64C97.7327 408.34 98.5494 408.69 99.6094 408.69C100.323 408.69 100.943 408.527 101.469 408.2C101.996 407.873 102.409 407.403 102.709 406.79L104.419 407.38C103.999 408.333 103.366 409.073 102.519 409.6C101.679 410.12 100.736 410.38 99.6894 410.38ZM95.6994 405.18V403.75H103.679V405.18H95.6994ZM114.93 410.36C114.236 410.36 113.64 410.25 113.14 410.03C112.646 409.81 112.236 409.517 111.91 409.15C111.583 408.783 111.326 408.377 111.14 407.93C110.953 407.483 110.82 407.027 110.74 406.56C110.666 406.093 110.63 405.657 110.63 405.25V399.28H112.43V404.69C112.43 405.197 112.476 405.687 112.57 406.16C112.663 406.633 112.82 407.06 113.04 407.44C113.266 407.82 113.566 408.12 113.94 408.34C114.32 408.56 114.793 408.67 115.36 408.67C115.806 408.67 116.213 408.593 116.58 408.44C116.946 408.287 117.26 408.06 117.52 407.76C117.78 407.453 117.98 407.067 118.12 406.6C118.26 406.133 118.33 405.59 118.33 404.97L119.5 405.33C119.5 406.37 119.31 407.267 118.93 408.02C118.556 408.773 118.026 409.353 117.34 409.76C116.66 410.16 115.856 410.36 114.93 410.36ZM118.53 410.08V407.19H118.33V399.28H120.12V410.08H118.53ZM127.88 410.38C126.866 410.38 126.013 410.13 125.32 409.63C124.626 409.123 124.1 408.44 123.74 407.58C123.386 406.713 123.21 405.743 123.21 404.67C123.21 403.583 123.386 402.61 123.74 401.75C124.1 400.89 124.626 400.213 125.32 399.72C126.02 399.227 126.876 398.98 127.89 398.98C128.89 398.98 129.75 399.23 130.47 399.73C131.196 400.223 131.753 400.9 132.14 401.76C132.526 402.62 132.72 403.59 132.72 404.67C132.72 405.75 132.526 406.72 132.14 407.58C131.753 408.44 131.196 409.123 130.47 409.63C129.75 410.13 128.886 410.38 127.88 410.38ZM122.91 414.88V399.28H124.5V407.23H124.7V414.88H122.91ZM127.66 408.75C128.373 408.75 128.963 408.57 129.43 408.21C129.896 407.85 130.246 407.363 130.48 406.75C130.713 406.13 130.83 405.437 130.83 404.67C130.83 403.91 130.713 403.223 130.48 402.61C130.253 401.997 129.9 401.51 129.42 401.15C128.946 400.79 128.343 400.61 127.61 400.61C126.91 400.61 126.33 400.783 125.87 401.13C125.41 401.47 125.066 401.947 124.84 402.56C124.613 403.167 124.5 403.87 124.5 404.67C124.5 405.457 124.61 406.16 124.83 406.78C125.056 407.393 125.403 407.877 125.87 408.23C126.336 408.577 126.933 408.75 127.66 408.75ZM144.946 410.08C144.306 410.207 143.672 410.257 143.046 410.23C142.426 410.21 141.872 410.087 141.386 409.86C140.899 409.627 140.529 409.267 140.276 408.78C140.062 408.353 139.946 407.923 139.926 407.49C139.912 407.05 139.906 406.553 139.906 406V396.28H141.686V405.92C141.686 406.36 141.689 406.737 141.696 407.05C141.709 407.363 141.779 407.633 141.906 407.86C142.146 408.287 142.526 408.537 143.046 408.61C143.572 408.683 144.206 408.663 144.946 408.55V410.08ZM137.716 400.75V399.28H144.946V400.75H137.716ZM151.289 410.38C150.216 410.38 149.289 410.137 148.509 409.65C147.736 409.163 147.139 408.49 146.719 407.63C146.299 406.77 146.089 405.783 146.089 404.67C146.089 403.537 146.302 402.543 146.729 401.69C147.156 400.837 147.759 400.173 148.539 399.7C149.319 399.22 150.236 398.98 151.289 398.98C152.369 398.98 153.299 399.223 154.079 399.71C154.859 400.19 155.456 400.86 155.869 401.72C156.289 402.573 156.499 403.557 156.499 404.67C156.499 405.797 156.289 406.79 155.869 407.65C155.449 408.503 154.849 409.173 154.069 409.66C153.289 410.14 152.362 410.38 151.289 410.38ZM151.289 408.69C152.409 408.69 153.242 408.317 153.789 407.57C154.336 406.823 154.609 405.857 154.609 404.67C154.609 403.45 154.332 402.48 153.779 401.76C153.226 401.033 152.396 400.67 151.289 400.67C150.536 400.67 149.916 400.84 149.429 401.18C148.942 401.52 148.579 401.99 148.339 402.59C148.099 403.19 147.979 403.883 147.979 404.67C147.979 405.883 148.259 406.857 148.819 407.59C149.379 408.323 150.202 408.69 151.289 408.69ZM166.495 412.06V409.75H168.275V412.06H166.495ZM166.495 396.01V393.69H168.275V396.01H166.495ZM167.525 410.38C166.551 410.38 165.675 410.207 164.895 409.86C164.121 409.507 163.485 409.01 162.985 408.37C162.485 407.723 162.158 406.963 162.005 406.09L163.755 405.8C163.968 406.687 164.418 407.39 165.105 407.91C165.798 408.43 166.631 408.69 167.605 408.69C168.585 408.69 169.378 408.453 169.985 407.98C170.591 407.507 170.895 406.897 170.895 406.15C170.895 405.603 170.731 405.163 170.405 404.83C170.085 404.497 169.545 404.213 168.785 403.98L165.495 402.96C163.528 402.347 162.545 401.173 162.545 399.44C162.545 398.627 162.741 397.917 163.135 397.31C163.535 396.697 164.091 396.223 164.805 395.89C165.525 395.55 166.361 395.383 167.315 395.39C168.241 395.397 169.068 395.57 169.795 395.91C170.521 396.243 171.121 396.723 171.595 397.35C172.075 397.977 172.398 398.727 172.565 399.6L170.765 399.93C170.671 399.363 170.465 398.867 170.145 398.44C169.831 398.013 169.431 397.683 168.945 397.45C168.458 397.21 167.911 397.087 167.305 397.08C166.738 397.073 166.228 397.167 165.775 397.36C165.328 397.553 164.975 397.823 164.715 398.17C164.455 398.517 164.325 398.913 164.325 399.36C164.325 399.847 164.505 400.26 164.865 400.6C165.231 400.933 165.805 401.22 166.585 401.46L169.285 402.26C170.471 402.613 171.328 403.09 171.855 403.69C172.381 404.283 172.645 405.077 172.645 406.07C172.645 406.93 172.431 407.683 172.005 408.33C171.585 408.977 170.988 409.48 170.215 409.84C169.448 410.2 168.551 410.38 167.525 410.38ZM177.246 410.08V397.65L174.536 399.29V397.3L177.246 395.68H179.056V410.08H177.246ZM182.861 410.08V395.68H184.481L189.921 407.15L195.331 395.68H196.971V410.07H195.281V399.59L190.391 410.08H189.441L184.551 399.59V410.08H182.861ZM204.809 410.08V398.69C204.809 398.41 204.822 398.127 204.849 397.84C204.876 397.547 204.936 397.263 205.029 396.99C205.122 396.71 205.276 396.453 205.489 396.22C205.736 395.947 206.006 395.753 206.299 395.64C206.592 395.52 206.889 395.447 207.189 395.42C207.496 395.393 207.786 395.38 208.059 395.38H209.429V396.86H208.159C207.632 396.86 207.239 396.99 206.979 397.25C206.719 397.503 206.589 397.89 206.589 398.41V410.08H204.809ZM202.979 400.75V399.28H209.429V400.75H202.979ZM215.125 410.36C214.432 410.36 213.835 410.25 213.335 410.03C212.842 409.81 212.432 409.517 212.105 409.15C211.778 408.783 211.522 408.377 211.335 407.93C211.148 407.483 211.015 407.027 210.935 406.56C210.862 406.093 210.825 405.657 210.825 405.25V399.28H212.625V404.69C212.625 405.197 212.672 405.687 212.765 406.16C212.858 406.633 213.015 407.06 213.235 407.44C213.462 407.82 213.762 408.12 214.135 408.34C214.515 408.56 214.988 408.67 215.555 408.67C216.002 408.67 216.408 408.593 216.775 408.44C217.142 408.287 217.455 408.06 217.715 407.76C217.975 407.453 218.175 407.067 218.315 406.6C218.455 406.133 218.525 405.59 218.525 404.97L219.695 405.33C219.695 406.37 219.505 407.267 219.125 408.02C218.752 408.773 218.222 409.353 217.535 409.76C216.855 410.16 216.052 410.36 215.125 410.36ZM218.725 410.08V407.19H218.525V399.28H220.315V410.08H218.725ZM230.805 410.08V404.67C230.805 404.157 230.758 403.663 230.665 403.19C230.578 402.717 230.422 402.293 230.195 401.92C229.975 401.54 229.675 401.24 229.295 401.02C228.922 400.8 228.448 400.69 227.875 400.69C227.428 400.69 227.022 400.767 226.655 400.92C226.295 401.067 225.985 401.293 225.725 401.6C225.465 401.907 225.262 402.293 225.115 402.76C224.975 403.22 224.905 403.763 224.905 404.39L223.735 404.03C223.735 402.983 223.922 402.087 224.295 401.34C224.675 400.587 225.205 400.01 225.885 399.61C226.572 399.203 227.378 399 228.305 399C229.005 399 229.602 399.11 230.095 399.33C230.588 399.55 230.998 399.843 231.325 400.21C231.652 400.57 231.908 400.977 232.095 401.43C232.282 401.877 232.412 402.333 232.485 402.8C232.565 403.26 232.605 403.697 232.605 404.11V410.08H230.805ZM223.105 410.08V399.28H224.705V402.17H224.905V410.08H223.105ZM239.347 410.38C238.34 410.38 237.477 410.13 236.757 409.63C236.037 409.123 235.48 408.44 235.087 407.58C234.7 406.72 234.507 405.75 234.507 404.67C234.507 403.59 234.7 402.62 235.087 401.76C235.48 400.9 236.037 400.223 236.757 399.73C237.477 399.23 238.337 398.98 239.337 398.98C240.357 398.98 241.214 399.227 241.907 399.72C242.6 400.213 243.124 400.89 243.477 401.75C243.837 402.61 244.017 403.583 244.017 404.67C244.017 405.743 243.837 406.713 243.477 407.58C243.124 408.44 242.6 409.123 241.907 409.63C241.214 410.13 240.36 410.38 239.347 410.38ZM239.567 408.75C240.294 408.75 240.89 408.577 241.357 408.23C241.824 407.877 242.167 407.393 242.387 406.78C242.614 406.16 242.727 405.457 242.727 404.67C242.727 403.87 242.614 403.167 242.387 402.56C242.167 401.947 241.827 401.47 241.367 401.13C240.907 400.783 240.324 400.61 239.617 400.61C238.884 400.61 238.277 400.79 237.797 401.15C237.324 401.51 236.97 401.997 236.737 402.61C236.51 403.223 236.397 403.91 236.397 404.67C236.397 405.437 236.514 406.13 236.747 406.75C236.98 407.363 237.33 407.85 237.797 408.21C238.27 408.57 238.86 408.75 239.567 408.75ZM242.727 410.08V402.13H242.527V395.68H244.317V410.08H242.727ZM247.319 397.37V395.53H249.099V397.37H247.319ZM247.319 410.08V399.28H249.099V410.08H247.319ZM259.789 410.08V404.67C259.789 404.157 259.743 403.663 259.649 403.19C259.563 402.717 259.406 402.293 259.179 401.92C258.959 401.54 258.659 401.24 258.279 401.02C257.906 400.8 257.433 400.69 256.859 400.69C256.413 400.69 256.006 400.767 255.639 400.92C255.279 401.067 254.969 401.293 254.709 401.6C254.449 401.907 254.246 402.293 254.099 402.76C253.959 403.22 253.889 403.763 253.889 404.39L252.719 404.03C252.719 402.983 252.906 402.087 253.279 401.34C253.659 400.587 254.189 400.01 254.869 399.61C255.556 399.203 256.363 399 257.289 399C257.989 399 258.586 399.11 259.079 399.33C259.573 399.55 259.983 399.843 260.309 400.21C260.636 400.57 260.893 400.977 261.079 401.43C261.266 401.877 261.396 402.333 261.469 402.8C261.549 403.26 261.589 403.697 261.589 404.11V410.08H259.789ZM252.089 410.08V399.28H253.689V402.17H253.889V410.08H252.089ZM268.559 415.18C267.992 415.18 267.439 415.093 266.899 414.92C266.359 414.747 265.862 414.483 265.409 414.13C264.962 413.783 264.589 413.343 264.289 412.81L265.919 411.95C266.186 412.477 266.562 412.86 267.049 413.1C267.542 413.34 268.049 413.46 268.569 413.46C269.256 413.46 269.826 413.333 270.279 413.08C270.732 412.833 271.066 412.463 271.279 411.97C271.499 411.477 271.606 410.863 271.599 410.13V407.18H271.809V399.28H273.389V410.15C273.389 410.443 273.379 410.727 273.359 411C273.346 411.273 273.312 411.543 273.259 411.81C273.119 412.577 272.842 413.207 272.429 413.7C272.016 414.2 271.482 414.57 270.829 414.81C270.176 415.057 269.419 415.18 268.559 415.18ZM268.429 410.38C267.422 410.38 266.559 410.13 265.839 409.63C265.119 409.123 264.562 408.44 264.169 407.58C263.782 406.72 263.589 405.75 263.589 404.67C263.589 403.59 263.782 402.62 264.169 401.76C264.562 400.9 265.119 400.223 265.839 399.73C266.559 399.23 267.419 398.98 268.419 398.98C269.439 398.98 270.296 399.227 270.989 399.72C271.682 400.213 272.206 400.89 272.559 401.75C272.919 402.61 273.099 403.583 273.099 404.67C273.099 405.743 272.919 406.713 272.559 407.58C272.206 408.44 271.682 409.123 270.989 409.63C270.296 410.13 269.442 410.38 268.429 410.38ZM268.649 408.75C269.376 408.75 269.972 408.577 270.439 408.23C270.906 407.877 271.249 407.393 271.469 406.78C271.696 406.16 271.809 405.457 271.809 404.67C271.809 403.87 271.696 403.167 271.469 402.56C271.249 401.947 270.909 401.47 270.449 401.13C269.989 400.783 269.406 400.61 268.699 400.61C267.966 400.61 267.359 400.79 266.879 401.15C266.406 401.51 266.052 401.997 265.819 402.61C265.592 403.223 265.479 403.91 265.479 404.67C265.479 405.437 265.596 406.13 265.829 406.75C266.062 407.363 266.412 407.85 266.879 408.21C267.352 408.57 267.942 408.75 268.649 408.75ZM276.501 410.08V408.12H278.461V410.08H276.501ZM284.576 410.08L289.396 395.68H291.876L296.696 410.08H294.846L290.336 396.72H290.896L286.426 410.08H284.576ZM286.896 406.71V405.04H294.376V406.71H286.896ZM303.446 410.38C302.433 410.38 301.579 410.13 300.886 409.63C300.193 409.123 299.666 408.44 299.306 407.58C298.953 406.713 298.776 405.743 298.776 404.67C298.776 403.583 298.953 402.61 299.306 401.75C299.666 400.89 300.193 400.213 300.886 399.72C301.586 399.227 302.443 398.98 303.456 398.98C304.456 398.98 305.316 399.23 306.036 399.73C306.763 400.223 307.319 400.9 307.706 401.76C308.093 402.62 308.286 403.59 308.286 404.67C308.286 405.75 308.093 406.72 307.706 407.58C307.319 408.44 306.763 409.123 306.036 409.63C305.316 410.13 304.453 410.38 303.446 410.38ZM298.476 414.88V399.28H300.066V407.23H300.266V414.88H298.476ZM303.226 408.75C303.939 408.75 304.529 408.57 304.996 408.21C305.463 407.85 305.813 407.363 306.046 406.75C306.279 406.13 306.396 405.437 306.396 404.67C306.396 403.91 306.279 403.223 306.046 402.61C305.819 401.997 305.466 401.51 304.986 401.15C304.513 400.79 303.909 400.61 303.176 400.61C302.476 400.61 301.896 400.783 301.436 401.13C300.976 401.47 300.633 401.947 300.406 402.56C300.179 403.167 300.066 403.87 300.066 404.67C300.066 405.457 300.176 406.16 300.396 406.78C300.623 407.393 300.969 407.877 301.436 408.23C301.903 408.577 302.499 408.75 303.226 408.75ZM315.438 410.38C314.425 410.38 313.571 410.13 312.878 409.63C312.185 409.123 311.658 408.44 311.298 407.58C310.945 406.713 310.768 405.743 310.768 404.67C310.768 403.583 310.945 402.61 311.298 401.75C311.658 400.89 312.185 400.213 312.878 399.72C313.578 399.227 314.435 398.98 315.448 398.98C316.448 398.98 317.308 399.23 318.028 399.73C318.755 400.223 319.311 400.9 319.698 401.76C320.085 402.62 320.278 403.59 320.278 404.67C320.278 405.75 320.085 406.72 319.698 407.58C319.311 408.44 318.755 409.123 318.028 409.63C317.308 410.13 316.445 410.38 315.438 410.38ZM310.468 414.88V399.28H312.058V407.23H312.258V414.88H310.468ZM315.218 408.75C315.931 408.75 316.521 408.57 316.988 408.21C317.455 407.85 317.805 407.363 318.038 406.75C318.271 406.13 318.388 405.437 318.388 404.67C318.388 403.91 318.271 403.223 318.038 402.61C317.811 401.997 317.458 401.51 316.978 401.15C316.505 400.79 315.901 400.61 315.168 400.61C314.468 400.61 313.888 400.783 313.428 401.13C312.968 401.47 312.625 401.947 312.398 402.56C312.171 403.167 312.058 403.87 312.058 404.67C312.058 405.457 312.168 406.16 312.388 406.78C312.615 407.393 312.961 407.877 313.428 408.23C313.895 408.577 314.491 408.75 315.218 408.75ZM322.67 410.08V395.38H324.45V410.08H322.67ZM328.951 414.88L331.041 409.2L331.071 410.88L326.351 399.28H328.221L331.921 408.61H331.281L334.751 399.28H336.561L330.681 414.88H328.951ZM34.516 429.37V427.53H36.296V429.37H34.516ZM34.516 442.08V431.28H36.296V442.08H34.516ZM46.9865 442.08V436.67C46.9865 436.157 46.9398 435.663 46.8465 435.19C46.7598 434.717 46.6032 434.293 46.3765 433.92C46.1565 433.54 45.8565 433.24 45.4765 433.02C45.1032 432.8 44.6298 432.69 44.0565 432.69C43.6098 432.69 43.2032 432.767 42.8365 432.92C42.4765 433.067 42.1665 433.293 41.9065 433.6C41.6465 433.907 41.4432 434.293 41.2965 434.76C41.1565 435.22 41.0865 435.763 41.0865 436.39L39.9165 436.03C39.9165 434.983 40.1032 434.087 40.4765 433.34C40.8565 432.587 41.3865 432.01 42.0665 431.61C42.7532 431.203 43.5598 431 44.4865 431C45.1865 431 45.7832 431.11 46.2765 431.33C46.7698 431.55 47.1798 431.843 47.5065 432.21C47.8332 432.57 48.0898 432.977 48.2765 433.43C48.4632 433.877 48.5932 434.333 48.6665 434.8C48.7465 435.26 48.7865 435.697 48.7865 436.11V442.08H46.9865ZM39.2865 442.08V431.28H40.8865V434.17H41.0865V442.08H39.2865ZM57.9002 442.08V429.65L55.1902 431.29V429.3L57.9002 427.68H59.7102V442.08H57.9002ZM67.7752 442.38C67.0352 442.38 66.3452 442.227 65.7052 441.92C65.0719 441.613 64.5286 441.193 64.0752 440.66C63.6286 440.12 63.3086 439.5 63.1152 438.8L64.8252 438.34C64.9452 438.813 65.1586 439.223 65.4652 439.57C65.7719 439.91 66.1286 440.177 66.5352 440.37C66.9486 440.557 67.3786 440.65 67.8252 440.65C68.4119 440.65 68.9386 440.51 69.4052 440.23C69.8786 439.943 70.2519 439.567 70.5252 439.1C70.7986 438.627 70.9352 438.11 70.9352 437.55C70.9352 436.97 70.7919 436.447 70.5052 435.98C70.2252 435.507 69.8486 435.133 69.3752 434.86C68.9019 434.587 68.3852 434.45 67.8252 434.45C67.1919 434.45 66.6486 434.583 66.1952 434.85C65.7486 435.11 65.3952 435.43 65.1352 435.81L63.5552 435.21L63.9952 427.68H71.7252V429.37H64.8552L65.6452 428.63L65.2752 434.66L64.8852 434.15C65.2852 433.723 65.7619 433.393 66.3152 433.16C66.8752 432.927 67.4452 432.81 68.0252 432.81C68.9186 432.81 69.7186 433.02 70.4252 433.44C71.1319 433.853 71.6919 434.42 72.1052 435.14C72.5186 435.853 72.7252 436.657 72.7252 437.55C72.7252 438.437 72.4986 439.247 72.0452 439.98C71.5919 440.707 70.9886 441.29 70.2352 441.73C69.4886 442.163 68.6686 442.38 67.7752 442.38ZM92.0307 442.08L92.0407 435.17C92.0407 434.363 91.824 433.733 91.3907 433.28C90.964 432.82 90.4074 432.59 89.7207 432.59C89.3207 432.59 88.9407 432.683 88.5807 432.87C88.2207 433.05 87.9274 433.337 87.7007 433.73C87.474 434.117 87.3607 434.613 87.3607 435.22L86.4207 434.84C86.4074 434.073 86.564 433.403 86.8907 432.83C87.224 432.25 87.6774 431.8 88.2507 431.48C88.824 431.16 89.4707 431 90.1907 431C91.3174 431 92.204 431.343 92.8507 432.03C93.4974 432.71 93.8207 433.627 93.8207 434.78L93.8107 442.08H92.0307ZM79.1107 442.08V431.28H80.7007V434.17H80.9007V442.08H79.1107ZM85.5807 442.08L85.5907 435.24C85.5907 434.413 85.3774 433.767 84.9507 433.3C84.524 432.827 83.9574 432.59 83.2507 432.59C82.5507 432.59 81.984 432.83 81.5507 433.31C81.1174 433.79 80.9007 434.427 80.9007 435.22L79.9607 434.66C79.9607 433.96 80.1274 433.333 80.4607 432.78C80.794 432.227 81.2474 431.793 81.8207 431.48C82.394 431.16 83.044 431 83.7707 431C84.4974 431 85.1307 431.153 85.6707 431.46C86.2107 431.767 86.6274 432.207 86.9207 432.78C87.214 433.347 87.3607 434.023 87.3607 434.81L87.3507 442.08H85.5807ZM96.6254 429.37V427.53H98.4054V429.37H96.6254ZM96.6254 442.08V431.28H98.4054V442.08H96.6254ZM109.096 442.08V436.67C109.096 436.157 109.049 435.663 108.956 435.19C108.869 434.717 108.713 434.293 108.486 433.92C108.266 433.54 107.966 433.24 107.586 433.02C107.213 432.8 106.739 432.69 106.166 432.69C105.719 432.69 105.313 432.767 104.946 432.92C104.586 433.067 104.276 433.293 104.016 433.6C103.756 433.907 103.553 434.293 103.406 434.76C103.266 435.22 103.196 435.763 103.196 436.39L102.026 436.03C102.026 434.983 102.213 434.087 102.586 433.34C102.966 432.587 103.496 432.01 104.176 431.61C104.863 431.203 105.669 431 106.596 431C107.296 431 107.893 431.11 108.386 431.33C108.879 431.55 109.289 431.843 109.616 432.21C109.943 432.57 110.199 432.977 110.386 433.43C110.573 433.877 110.703 434.333 110.776 434.8C110.856 435.26 110.896 435.697 110.896 436.11V442.08H109.096ZM101.396 442.08V431.28H102.996V434.17H103.196V442.08H101.396ZM117.596 442.36C116.902 442.36 116.306 442.25 115.806 442.03C115.312 441.81 114.902 441.517 114.576 441.15C114.249 440.783 113.992 440.377 113.806 439.93C113.619 439.483 113.486 439.027 113.406 438.56C113.332 438.093 113.296 437.657 113.296 437.25V431.28H115.096V436.69C115.096 437.197 115.142 437.687 115.236 438.16C115.329 438.633 115.486 439.06 115.706 439.44C115.932 439.82 116.232 440.12 116.606 440.34C116.986 440.56 117.459 440.67 118.026 440.67C118.472 440.67 118.879 440.593 119.246 440.44C119.612 440.287 119.926 440.06 120.186 439.76C120.446 439.453 120.646 439.067 120.786 438.6C120.926 438.133 120.996 437.59 120.996 436.97L122.166 437.33C122.166 438.37 121.976 439.267 121.596 440.02C121.222 440.773 120.692 441.353 120.006 441.76C119.326 442.16 118.522 442.36 117.596 442.36ZM121.196 442.08V439.19H120.996V431.28H122.786V442.08H121.196ZM131.616 442.08C130.976 442.207 130.342 442.257 129.716 442.23C129.096 442.21 128.542 442.087 128.056 441.86C127.569 441.627 127.199 441.267 126.946 440.78C126.732 440.353 126.616 439.923 126.596 439.49C126.582 439.05 126.576 438.553 126.576 438V428.28H128.356V437.92C128.356 438.36 128.359 438.737 128.366 439.05C128.379 439.363 128.449 439.633 128.576 439.86C128.816 440.287 129.196 440.537 129.716 440.61C130.242 440.683 130.876 440.663 131.616 440.55V442.08ZM124.386 432.75V431.28H131.616V432.75H124.386ZM138.039 442.38C136.979 442.38 136.052 442.147 135.259 441.68C134.472 441.207 133.859 440.55 133.419 439.71C132.979 438.863 132.759 437.877 132.759 436.75C132.759 435.57 132.976 434.55 133.409 433.69C133.842 432.823 134.446 432.157 135.219 431.69C135.999 431.217 136.912 430.98 137.959 430.98C139.046 430.98 139.969 431.23 140.729 431.73C141.496 432.23 142.069 432.943 142.449 433.87C142.836 434.797 143.002 435.9 142.949 437.18H141.149V436.54C141.129 435.213 140.859 434.223 140.339 433.57C139.819 432.91 139.046 432.58 138.019 432.58C136.919 432.58 136.082 432.933 135.509 433.64C134.936 434.347 134.649 435.36 134.649 436.68C134.649 437.953 134.936 438.94 135.509 439.64C136.082 440.34 136.899 440.69 137.959 440.69C138.672 440.69 139.292 440.527 139.819 440.2C140.346 439.873 140.759 439.403 141.059 438.79L142.769 439.38C142.349 440.333 141.716 441.073 140.869 441.6C140.029 442.12 139.086 442.38 138.039 442.38ZM134.049 437.18V435.75H142.029V437.18H134.049ZM149.255 442.37C147.969 442.37 146.912 442.09 146.085 441.53C145.265 440.963 144.762 440.173 144.575 439.16L146.395 438.87C146.542 439.457 146.879 439.923 147.405 440.27C147.932 440.61 148.585 440.78 149.365 440.78C150.105 440.78 150.685 440.627 151.105 440.32C151.525 440.013 151.735 439.597 151.735 439.07C151.735 438.763 151.665 438.517 151.525 438.33C151.385 438.137 151.095 437.957 150.655 437.79C150.222 437.623 149.565 437.423 148.685 437.19C147.732 436.937 146.982 436.673 146.435 436.4C145.889 436.127 145.499 435.81 145.265 435.45C145.032 435.09 144.915 434.653 144.915 434.14C144.915 433.507 145.089 432.953 145.435 432.48C145.782 432 146.265 431.63 146.885 431.37C147.512 431.11 148.239 430.98 149.065 430.98C149.885 430.98 150.619 431.11 151.265 431.37C151.912 431.63 152.432 432 152.825 432.48C153.225 432.953 153.462 433.507 153.535 434.14L151.715 434.47C151.629 433.89 151.349 433.433 150.875 433.1C150.409 432.767 149.805 432.59 149.065 432.57C148.365 432.543 147.795 432.667 147.355 432.94C146.922 433.213 146.705 433.583 146.705 434.05C146.705 434.31 146.785 434.533 146.945 434.72C147.112 434.907 147.415 435.083 147.855 435.25C148.302 435.417 148.949 435.607 149.795 435.82C150.749 436.06 151.499 436.323 152.045 436.61C152.599 436.89 152.992 437.223 153.225 437.61C153.459 437.99 153.575 438.46 153.575 439.02C153.575 440.06 153.192 440.88 152.425 441.48C151.659 442.073 150.602 442.37 149.255 442.37ZM162.855 442.38C162.048 442.38 161.371 442.233 160.825 441.94C160.285 441.64 159.875 441.247 159.595 440.76C159.321 440.273 159.185 439.74 159.185 439.16C159.185 438.593 159.291 438.103 159.505 437.69C159.725 437.27 160.031 436.923 160.425 436.65C160.818 436.37 161.288 436.15 161.835 435.99C162.348 435.85 162.921 435.73 163.555 435.63C164.195 435.523 164.841 435.427 165.495 435.34C166.148 435.253 166.758 435.17 167.325 435.09L166.685 435.46C166.705 434.5 166.511 433.79 166.105 433.33C165.705 432.87 165.011 432.64 164.025 432.64C163.371 432.64 162.798 432.79 162.305 433.09C161.818 433.383 161.475 433.863 161.275 434.53L159.585 434.02C159.845 433.073 160.348 432.33 161.095 431.79C161.841 431.25 162.825 430.98 164.045 430.98C165.025 430.98 165.865 431.157 166.565 431.51C167.271 431.857 167.778 432.383 168.085 433.09C168.238 433.423 168.335 433.787 168.375 434.18C168.415 434.567 168.435 434.973 168.435 435.4V442.08H166.855V439.49L167.225 439.73C166.818 440.603 166.248 441.263 165.515 441.71C164.788 442.157 163.901 442.38 162.855 442.38ZM163.125 440.89C163.765 440.89 164.318 440.777 164.785 440.55C165.258 440.317 165.638 440.013 165.925 439.64C166.211 439.26 166.398 438.847 166.485 438.4C166.585 438.067 166.638 437.697 166.645 437.29C166.658 436.877 166.665 436.56 166.665 436.34L167.285 436.61C166.705 436.69 166.135 436.767 165.575 436.84C165.015 436.913 164.485 436.993 163.985 437.08C163.485 437.16 163.035 437.257 162.635 437.37C162.341 437.463 162.065 437.583 161.805 437.73C161.551 437.877 161.345 438.067 161.185 438.3C161.031 438.527 160.955 438.81 160.955 439.15C160.955 439.443 161.028 439.723 161.175 439.99C161.328 440.257 161.561 440.473 161.875 440.64C162.195 440.807 162.611 440.89 163.125 440.89ZM178.725 442.08V436.67C178.725 436.157 178.678 435.663 178.585 435.19C178.498 434.717 178.341 434.293 178.115 433.92C177.895 433.54 177.595 433.24 177.215 433.02C176.841 432.8 176.368 432.69 175.795 432.69C175.348 432.69 174.941 432.767 174.575 432.92C174.215 433.067 173.905 433.293 173.645 433.6C173.385 433.907 173.181 434.293 173.035 434.76C172.895 435.22 172.825 435.763 172.825 436.39L171.655 436.03C171.655 434.983 171.841 434.087 172.215 433.34C172.595 432.587 173.125 432.01 173.805 431.61C174.491 431.203 175.298 431 176.225 431C176.925 431 177.521 431.11 178.015 431.33C178.508 431.55 178.918 431.843 179.245 432.21C179.571 432.57 179.828 432.977 180.015 433.43C180.201 433.877 180.331 434.333 180.405 434.8C180.485 435.26 180.525 435.697 180.525 436.11V442.08H178.725ZM171.025 442.08V431.28H172.625V434.17H172.825V442.08H171.025ZM187.267 442.38C186.26 442.38 185.397 442.13 184.677 441.63C183.957 441.123 183.4 440.44 183.007 439.58C182.62 438.72 182.427 437.75 182.427 436.67C182.427 435.59 182.62 434.62 183.007 433.76C183.4 432.9 183.957 432.223 184.677 431.73C185.397 431.23 186.257 430.98 187.257 430.98C188.277 430.98 189.134 431.227 189.827 431.72C190.52 432.213 191.044 432.89 191.397 433.75C191.757 434.61 191.937 435.583 191.937 436.67C191.937 437.743 191.757 438.713 191.397 439.58C191.044 440.44 190.52 441.123 189.827 441.63C189.134 442.13 188.28 442.38 187.267 442.38ZM187.487 440.75C188.214 440.75 188.81 440.577 189.277 440.23C189.744 439.877 190.087 439.393 190.307 438.78C190.534 438.16 190.647 437.457 190.647 436.67C190.647 435.87 190.534 435.167 190.307 434.56C190.087 433.947 189.747 433.47 189.287 433.13C188.827 432.783 188.244 432.61 187.537 432.61C186.804 432.61 186.197 432.79 185.717 433.15C185.244 433.51 184.89 433.997 184.657 434.61C184.43 435.223 184.317 435.91 184.317 436.67C184.317 437.437 184.434 438.13 184.667 438.75C184.9 439.363 185.25 439.85 185.717 440.21C186.19 440.57 186.78 440.75 187.487 440.75ZM190.647 442.08V434.13H190.447V427.68H192.237V442.08H190.647ZM200.543 446.88L202.633 441.2L202.663 442.88L197.943 431.28H199.813L203.513 440.61H202.873L206.343 431.28H208.153L202.273 446.88H200.543ZM214.014 442.38C212.94 442.38 212.014 442.137 211.234 441.65C210.46 441.163 209.864 440.49 209.444 439.63C209.024 438.77 208.814 437.783 208.814 436.67C208.814 435.537 209.027 434.543 209.454 433.69C209.88 432.837 210.484 432.173 211.264 431.7C212.044 431.22 212.96 430.98 214.014 430.98C215.094 430.98 216.024 431.223 216.804 431.71C217.584 432.19 218.18 432.86 218.594 433.72C219.014 434.573 219.224 435.557 219.224 436.67C219.224 437.797 219.014 438.79 218.594 439.65C218.174 440.503 217.574 441.173 216.794 441.66C216.014 442.14 215.087 442.38 214.014 442.38ZM214.014 440.69C215.134 440.69 215.967 440.317 216.514 439.57C217.06 438.823 217.334 437.857 217.334 436.67C217.334 435.45 217.057 434.48 216.504 433.76C215.95 433.033 215.12 432.67 214.014 432.67C213.26 432.67 212.64 432.84 212.154 433.18C211.667 433.52 211.304 433.99 211.064 434.59C210.824 435.19 210.704 435.883 210.704 436.67C210.704 437.883 210.984 438.857 211.544 439.59C212.104 440.323 212.927 440.69 214.014 440.69ZM225.525 442.36C224.832 442.36 224.235 442.25 223.735 442.03C223.242 441.81 222.832 441.517 222.505 441.15C222.179 440.783 221.922 440.377 221.735 439.93C221.549 439.483 221.415 439.027 221.335 438.56C221.262 438.093 221.225 437.657 221.225 437.25V431.28H223.025V436.69C223.025 437.197 223.072 437.687 223.165 438.16C223.259 438.633 223.415 439.06 223.635 439.44C223.862 439.82 224.162 440.12 224.535 440.34C224.915 440.56 225.389 440.67 225.955 440.67C226.402 440.67 226.809 440.593 227.175 440.44C227.542 440.287 227.855 440.06 228.115 439.76C228.375 439.453 228.575 439.067 228.715 438.6C228.855 438.133 228.925 437.59 228.925 436.97L230.095 437.33C230.095 438.37 229.905 439.267 229.525 440.02C229.152 440.773 228.622 441.353 227.935 441.76C227.255 442.16 226.452 442.36 225.525 442.36ZM229.125 442.08V439.19H228.925V431.28H230.715V442.08H229.125ZM233.615 432.18L233.725 431.35C234.005 431.37 234.215 431.317 234.355 431.19C234.495 431.063 234.585 430.89 234.625 430.67C234.665 430.45 234.672 430.207 234.645 429.94H233.615V427.68H235.575V430.24C235.575 430.94 235.402 431.467 235.055 431.82C234.715 432.173 234.235 432.293 233.615 432.18ZM239.164 442.08V427.38H240.944V442.08H239.164ZM244.145 442.08V427.38H245.925V442.08H244.145ZM252.929 442.08V431.28H254.519V433.89L254.259 433.55C254.386 433.217 254.549 432.91 254.749 432.63C254.956 432.35 255.186 432.12 255.439 431.94C255.719 431.713 256.036 431.54 256.389 431.42C256.743 431.3 257.103 431.23 257.469 431.21C257.836 431.183 258.179 431.207 258.499 431.28V432.95C258.126 432.85 257.716 432.823 257.269 432.87C256.823 432.917 256.409 433.08 256.029 433.36C255.683 433.607 255.413 433.907 255.219 434.26C255.033 434.613 254.903 434.997 254.829 435.41C254.756 435.817 254.719 436.233 254.719 436.66V442.08H252.929ZM264.875 442.38C263.815 442.38 262.888 442.147 262.095 441.68C261.308 441.207 260.695 440.55 260.255 439.71C259.815 438.863 259.595 437.877 259.595 436.75C259.595 435.57 259.812 434.55 260.245 433.69C260.678 432.823 261.282 432.157 262.055 431.69C262.835 431.217 263.748 430.98 264.795 430.98C265.882 430.98 266.805 431.23 267.565 431.73C268.332 432.23 268.905 432.943 269.285 433.87C269.672 434.797 269.838 435.9 269.785 437.18H267.985V436.54C267.965 435.213 267.695 434.223 267.175 433.57C266.655 432.91 265.882 432.58 264.855 432.58C263.755 432.58 262.918 432.933 262.345 433.64C261.772 434.347 261.485 435.36 261.485 436.68C261.485 437.953 261.772 438.94 262.345 439.64C262.918 440.34 263.735 440.69 264.795 440.69C265.508 440.69 266.128 440.527 266.655 440.2C267.182 439.873 267.595 439.403 267.895 438.79L269.605 439.38C269.185 440.333 268.552 441.073 267.705 441.6C266.865 442.12 265.922 442.38 264.875 442.38ZM260.885 437.18V435.75H268.865V437.18H260.885ZM276.561 442.38C275.468 442.38 274.538 442.137 273.771 441.65C273.011 441.157 272.431 440.48 272.031 439.62C271.631 438.76 271.425 437.78 271.411 436.68C271.425 435.553 271.635 434.563 272.041 433.71C272.455 432.85 273.045 432.18 273.811 431.7C274.578 431.22 275.501 430.98 276.581 430.98C277.721 430.98 278.701 431.26 279.521 431.82C280.348 432.38 280.901 433.147 281.181 434.12L279.421 434.65C279.195 434.023 278.825 433.537 278.311 433.19C277.805 432.843 277.221 432.67 276.561 432.67C275.821 432.67 275.211 432.843 274.731 433.19C274.251 433.53 273.895 434.003 273.661 434.61C273.428 435.21 273.308 435.9 273.301 436.68C273.315 437.88 273.591 438.85 274.131 439.59C274.678 440.323 275.488 440.69 276.561 440.69C277.268 440.69 277.855 440.53 278.321 440.21C278.788 439.883 279.141 439.413 279.381 438.8L281.181 439.27C280.808 440.277 280.225 441.047 279.431 441.58C278.638 442.113 277.681 442.38 276.561 442.38ZM283.129 429.37V427.53H284.909V429.37H283.129ZM283.129 442.08V431.28H284.909V442.08H283.129ZM292.59 442.38C291.53 442.38 290.603 442.147 289.81 441.68C289.023 441.207 288.41 440.55 287.97 439.71C287.53 438.863 287.31 437.877 287.31 436.75C287.31 435.57 287.526 434.55 287.96 433.69C288.393 432.823 288.996 432.157 289.77 431.69C290.55 431.217 291.463 430.98 292.51 430.98C293.596 430.98 294.52 431.23 295.28 431.73C296.046 432.23 296.62 432.943 297 433.87C297.386 434.797 297.553 435.9 297.5 437.18H295.7V436.54C295.68 435.213 295.41 434.223 294.89 433.57C294.37 432.91 293.596 432.58 292.57 432.58C291.47 432.58 290.633 432.933 290.06 433.64C289.486 434.347 289.2 435.36 289.2 436.68C289.2 437.953 289.486 438.94 290.06 439.64C290.633 440.34 291.45 440.69 292.51 440.69C293.223 440.69 293.843 440.527 294.37 440.2C294.896 439.873 295.31 439.403 295.61 438.79L297.32 439.38C296.9 440.333 296.266 441.073 295.42 441.6C294.58 442.12 293.636 442.38 292.59 442.38ZM288.6 437.18V435.75H296.58V437.18H288.6ZM302.256 442.08L298.336 431.28H300.136L303.166 439.81L306.186 431.28H307.996L304.076 442.08H302.256ZM314.094 442.38C313.034 442.38 312.107 442.147 311.314 441.68C310.527 441.207 309.914 440.55 309.474 439.71C309.034 438.863 308.814 437.877 308.814 436.75C308.814 435.57 309.03 434.55 309.464 433.69C309.897 432.823 310.5 432.157 311.274 431.69C312.054 431.217 312.967 430.98 314.014 430.98C315.1 430.98 316.024 431.23 316.784 431.73C317.55 432.23 318.124 432.943 318.504 433.87C318.89 434.797 319.057 435.9 319.004 437.18H317.204V436.54C317.184 435.213 316.914 434.223 316.394 433.57C315.874 432.91 315.1 432.58 314.074 432.58C312.974 432.58 312.137 432.933 311.564 433.64C310.99 434.347 310.704 435.36 310.704 436.68C310.704 437.953 310.99 438.94 311.564 439.64C312.137 440.34 312.954 440.69 314.014 440.69C314.727 440.69 315.347 440.527 315.874 440.2C316.4 439.873 316.814 439.403 317.114 438.79L318.824 439.38C318.404 440.333 317.77 441.073 316.924 441.6C316.084 442.12 315.14 442.38 314.094 442.38ZM310.104 437.18V435.75H318.084V437.18H310.104ZM328.304 442.38C327.497 442.38 326.821 442.233 326.274 441.94C325.734 441.64 325.324 441.247 325.044 440.76C324.771 440.273 324.634 439.74 324.634 439.16C324.634 438.593 324.741 438.103 324.954 437.69C325.174 437.27 325.481 436.923 325.874 436.65C326.267 436.37 326.737 436.15 327.284 435.99C327.797 435.85 328.371 435.73 329.004 435.63C329.644 435.523 330.291 435.427 330.944 435.34C331.597 435.253 332.207 435.17 332.774 435.09L332.134 435.46C332.154 434.5 331.961 433.79 331.554 433.33C331.154 432.87 330.461 432.64 329.474 432.64C328.821 432.64 328.247 432.79 327.754 433.09C327.267 433.383 326.924 433.863 326.724 434.53L325.034 434.02C325.294 433.073 325.797 432.33 326.544 431.79C327.291 431.25 328.274 430.98 329.494 430.98C330.474 430.98 331.314 431.157 332.014 431.51C332.721 431.857 333.227 432.383 333.534 433.09C333.687 433.423 333.784 433.787 333.824 434.18C333.864 434.567 333.884 434.973 333.884 435.4V442.08H332.304V439.49L332.674 439.73C332.267 440.603 331.697 441.263 330.964 441.71C330.237 442.157 329.351 442.38 328.304 442.38ZM328.574 440.89C329.214 440.89 329.767 440.777 330.234 440.55C330.707 440.317 331.087 440.013 331.374 439.64C331.661 439.26 331.847 438.847 331.934 438.4C332.034 438.067 332.087 437.697 332.094 437.29C332.107 436.877 332.114 436.56 332.114 436.34L332.734 436.61C332.154 436.69 331.584 436.767 331.024 436.84C330.464 436.913 329.934 436.993 329.434 437.08C328.934 437.16 328.484 437.257 328.084 437.37C327.791 437.463 327.514 437.583 327.254 437.73C327.001 437.877 326.794 438.067 326.634 438.3C326.481 438.527 326.404 438.81 326.404 439.15C326.404 439.443 326.477 439.723 326.624 439.99C326.777 440.257 327.011 440.473 327.324 440.64C327.644 440.807 328.061 440.89 328.574 440.89ZM63.9369 474.38C62.9302 474.38 62.0669 474.13 61.3469 473.63C60.6269 473.123 60.0702 472.44 59.6769 471.58C59.2902 470.72 59.0969 469.75 59.0969 468.67C59.0969 467.59 59.2902 466.62 59.6769 465.76C60.0702 464.9 60.6269 464.223 61.3469 463.73C62.0669 463.23 62.9269 462.98 63.9269 462.98C64.9469 462.98 65.8035 463.227 66.4969 463.72C67.1902 464.213 67.7135 464.89 68.0669 465.75C68.4269 466.61 68.6069 467.583 68.6069 468.67C68.6069 469.743 68.4269 470.713 68.0669 471.58C67.7135 472.44 67.1902 473.123 66.4969 473.63C65.8035 474.13 64.9502 474.38 63.9369 474.38ZM64.1569 472.75C64.8835 472.75 65.4802 472.577 65.9469 472.23C66.4135 471.877 66.7569 471.393 66.9769 470.78C67.2035 470.16 67.3169 469.457 67.3169 468.67C67.3169 467.87 67.2035 467.167 66.9769 466.56C66.7569 465.947 66.4169 465.47 65.9569 465.13C65.4969 464.783 64.9135 464.61 64.2069 464.61C63.4735 464.61 62.8669 464.79 62.3869 465.15C61.9135 465.51 61.5602 465.997 61.3269 466.61C61.1002 467.223 60.9869 467.91 60.9869 468.67C60.9869 469.437 61.1035 470.13 61.3369 470.75C61.5702 471.363 61.9202 471.85 62.3869 472.21C62.8602 472.57 63.4502 472.75 64.1569 472.75ZM67.3169 474.08V466.13H67.1169V459.68H68.9069V474.08H67.3169ZM76.3886 474.38C75.3286 474.38 74.4019 474.147 73.6086 473.68C72.8219 473.207 72.2086 472.55 71.7686 471.71C71.3286 470.863 71.1086 469.877 71.1086 468.75C71.1086 467.57 71.3253 466.55 71.7586 465.69C72.1919 464.823 72.7953 464.157 73.5686 463.69C74.3486 463.217 75.2619 462.98 76.3086 462.98C77.3953 462.98 78.3186 463.23 79.0786 463.73C79.8453 464.23 80.4186 464.943 80.7986 465.87C81.1853 466.797 81.3519 467.9 81.2986 469.18H79.4986V468.54C79.4786 467.213 79.2086 466.223 78.6886 465.57C78.1686 464.91 77.3953 464.58 76.3686 464.58C75.2686 464.58 74.4319 464.933 73.8586 465.64C73.2853 466.347 72.9986 467.36 72.9986 468.68C72.9986 469.953 73.2853 470.94 73.8586 471.64C74.4319 472.34 75.2486 472.69 76.3086 472.69C77.0219 472.69 77.6419 472.527 78.1686 472.2C78.6953 471.873 79.1086 471.403 79.4086 470.79L81.1186 471.38C80.6986 472.333 80.0653 473.073 79.2186 473.6C78.3786 474.12 77.4353 474.38 76.3886 474.38ZM72.3986 469.18V467.75H80.3786V469.18H72.3986ZM88.075 474.38C86.9817 474.38 86.0517 474.137 85.285 473.65C84.525 473.157 83.945 472.48 83.545 471.62C83.145 470.76 82.9383 469.78 82.925 468.68C82.9383 467.553 83.1483 466.563 83.555 465.71C83.9683 464.85 84.5583 464.18 85.325 463.7C86.0917 463.22 87.015 462.98 88.095 462.98C89.235 462.98 90.215 463.26 91.035 463.82C91.8617 464.38 92.415 465.147 92.695 466.12L90.935 466.65C90.7083 466.023 90.3383 465.537 89.825 465.19C89.3183 464.843 88.735 464.67 88.075 464.67C87.335 464.67 86.725 464.843 86.245 465.19C85.765 465.53 85.4083 466.003 85.175 466.61C84.9417 467.21 84.8217 467.9 84.815 468.68C84.8283 469.88 85.105 470.85 85.645 471.59C86.1917 472.323 87.0017 472.69 88.075 472.69C88.7817 472.69 89.3683 472.53 89.835 472.21C90.3017 471.883 90.655 471.413 90.895 470.8L92.695 471.27C92.3217 472.277 91.7383 473.047 90.945 473.58C90.1517 474.113 89.195 474.38 88.075 474.38ZM94.643 461.37V459.53H96.423V461.37H94.643ZM94.643 474.08V463.28H96.423V474.08H94.643ZM103.503 474.37C102.217 474.37 101.16 474.09 100.333 473.53C99.5134 472.963 99.0101 472.173 98.8234 471.16L100.643 470.87C100.79 471.457 101.127 471.923 101.653 472.27C102.18 472.61 102.833 472.78 103.613 472.78C104.353 472.78 104.933 472.627 105.353 472.32C105.773 472.013 105.983 471.597 105.983 471.07C105.983 470.763 105.913 470.517 105.773 470.33C105.633 470.137 105.343 469.957 104.903 469.79C104.47 469.623 103.813 469.423 102.933 469.19C101.98 468.937 101.23 468.673 100.683 468.4C100.137 468.127 99.7468 467.81 99.5134 467.45C99.2801 467.09 99.1634 466.653 99.1634 466.14C99.1634 465.507 99.3368 464.953 99.6834 464.48C100.03 464 100.513 463.63 101.133 463.37C101.76 463.11 102.487 462.98 103.313 462.98C104.133 462.98 104.867 463.11 105.513 463.37C106.16 463.63 106.68 464 107.073 464.48C107.473 464.953 107.71 465.507 107.783 466.14L105.963 466.47C105.877 465.89 105.597 465.433 105.123 465.1C104.657 464.767 104.053 464.59 103.313 464.57C102.613 464.543 102.043 464.667 101.603 464.94C101.17 465.213 100.953 465.583 100.953 466.05C100.953 466.31 101.033 466.533 101.193 466.72C101.36 466.907 101.663 467.083 102.103 467.25C102.55 467.417 103.197 467.607 104.043 467.82C104.997 468.06 105.747 468.323 106.293 468.61C106.847 468.89 107.24 469.223 107.473 469.61C107.707 469.99 107.823 470.46 107.823 471.02C107.823 472.06 107.44 472.88 106.673 473.48C105.907 474.073 104.85 474.37 103.503 474.37ZM110.229 461.37V459.53H112.009V461.37H110.229ZM110.229 474.08V463.28H112.009V474.08H110.229ZM119.609 474.38C118.536 474.38 117.609 474.137 116.829 473.65C116.056 473.163 115.459 472.49 115.039 471.63C114.619 470.77 114.409 469.783 114.409 468.67C114.409 467.537 114.623 466.543 115.049 465.69C115.476 464.837 116.079 464.173 116.859 463.7C117.639 463.22 118.556 462.98 119.609 462.98C120.689 462.98 121.619 463.223 122.399 463.71C123.179 464.19 123.776 464.86 124.189 465.72C124.609 466.573 124.819 467.557 124.819 468.67C124.819 469.797 124.609 470.79 124.189 471.65C123.769 472.503 123.169 473.173 122.389 473.66C121.609 474.14 120.683 474.38 119.609 474.38ZM119.609 472.69C120.729 472.69 121.563 472.317 122.109 471.57C122.656 470.823 122.929 469.857 122.929 468.67C122.929 467.45 122.653 466.48 122.099 465.76C121.546 465.033 120.716 464.67 119.609 464.67C118.856 464.67 118.236 464.84 117.749 465.18C117.263 465.52 116.899 465.99 116.659 466.59C116.419 467.19 116.299 467.883 116.299 468.67C116.299 469.883 116.579 470.857 117.139 471.59C117.699 472.323 118.523 472.69 119.609 472.69ZM134.711 474.08V468.67C134.711 468.157 134.664 467.663 134.571 467.19C134.484 466.717 134.328 466.293 134.101 465.92C133.881 465.54 133.581 465.24 133.201 465.02C132.828 464.8 132.354 464.69 131.781 464.69C131.334 464.69 130.928 464.767 130.561 464.92C130.201 465.067 129.891 465.293 129.631 465.6C129.371 465.907 129.168 466.293 129.021 466.76C128.881 467.22 128.811 467.763 128.811 468.39L127.641 468.03C127.641 466.983 127.828 466.087 128.201 465.34C128.581 464.587 129.111 464.01 129.791 463.61C130.478 463.203 131.284 463 132.211 463C132.911 463 133.508 463.11 134.001 463.33C134.494 463.55 134.904 463.843 135.231 464.21C135.558 464.57 135.814 464.977 136.001 465.43C136.188 465.877 136.318 466.333 136.391 466.8C136.471 467.26 136.511 467.697 136.511 468.11V474.08H134.711ZM127.011 474.08V463.28H128.611V466.17H128.811V474.08H127.011ZM146.185 474.38C145.378 474.38 144.702 474.233 144.155 473.94C143.615 473.64 143.205 473.247 142.925 472.76C142.652 472.273 142.515 471.74 142.515 471.16C142.515 470.593 142.622 470.103 142.835 469.69C143.055 469.27 143.362 468.923 143.755 468.65C144.148 468.37 144.618 468.15 145.165 467.99C145.678 467.85 146.252 467.73 146.885 467.63C147.525 467.523 148.172 467.427 148.825 467.34C149.478 467.253 150.088 467.17 150.655 467.09L150.015 467.46C150.035 466.5 149.842 465.79 149.435 465.33C149.035 464.87 148.342 464.64 147.355 464.64C146.702 464.64 146.128 464.79 145.635 465.09C145.148 465.383 144.805 465.863 144.605 466.53L142.915 466.02C143.175 465.073 143.678 464.33 144.425 463.79C145.172 463.25 146.155 462.98 147.375 462.98C148.355 462.98 149.195 463.157 149.895 463.51C150.602 463.857 151.108 464.383 151.415 465.09C151.568 465.423 151.665 465.787 151.705 466.18C151.745 466.567 151.765 466.973 151.765 467.4V474.08H150.185V471.49L150.555 471.73C150.148 472.603 149.578 473.263 148.845 473.71C148.118 474.157 147.232 474.38 146.185 474.38ZM146.455 472.89C147.095 472.89 147.648 472.777 148.115 472.55C148.588 472.317 148.968 472.013 149.255 471.64C149.542 471.26 149.728 470.847 149.815 470.4C149.915 470.067 149.968 469.697 149.975 469.29C149.988 468.877 149.995 468.56 149.995 468.34L150.615 468.61C150.035 468.69 149.465 468.767 148.905 468.84C148.345 468.913 147.815 468.993 147.315 469.08C146.815 469.16 146.365 469.257 145.965 469.37C145.672 469.463 145.395 469.583 145.135 469.73C144.882 469.877 144.675 470.067 144.515 470.3C144.362 470.527 144.285 470.81 144.285 471.15C144.285 471.443 144.358 471.723 144.505 471.99C144.658 472.257 144.892 472.473 145.205 472.64C145.525 472.807 145.942 472.89 146.455 472.89ZM158.445 474.37C157.158 474.37 156.102 474.09 155.275 473.53C154.455 472.963 153.952 472.173 153.765 471.16L155.585 470.87C155.732 471.457 156.068 471.923 156.595 472.27C157.122 472.61 157.775 472.78 158.555 472.78C159.295 472.78 159.875 472.627 160.295 472.32C160.715 472.013 160.925 471.597 160.925 471.07C160.925 470.763 160.855 470.517 160.715 470.33C160.575 470.137 160.285 469.957 159.845 469.79C159.412 469.623 158.755 469.423 157.875 469.19C156.922 468.937 156.172 468.673 155.625 468.4C155.078 468.127 154.688 467.81 154.455 467.45C154.222 467.09 154.105 466.653 154.105 466.14C154.105 465.507 154.278 464.953 154.625 464.48C154.972 464 155.455 463.63 156.075 463.37C156.702 463.11 157.428 462.98 158.255 462.98C159.075 462.98 159.808 463.11 160.455 463.37C161.102 463.63 161.622 464 162.015 464.48C162.415 464.953 162.652 465.507 162.725 466.14L160.905 466.47C160.818 465.89 160.538 465.433 160.065 465.1C159.598 464.767 158.995 464.59 158.255 464.57C157.555 464.543 156.985 464.667 156.545 464.94C156.112 465.213 155.895 465.583 155.895 466.05C155.895 466.31 155.975 466.533 156.135 466.72C156.302 466.907 156.605 467.083 157.045 467.25C157.492 467.417 158.138 467.607 158.985 467.82C159.938 468.06 160.688 468.323 161.235 468.61C161.788 468.89 162.182 469.223 162.415 469.61C162.648 469.99 162.765 470.46 162.765 471.02C162.765 472.06 162.382 472.88 161.615 473.48C160.848 474.073 159.792 474.37 158.445 474.37ZM173.054 474.37C171.768 474.37 170.711 474.09 169.884 473.53C169.064 472.963 168.561 472.173 168.374 471.16L170.194 470.87C170.341 471.457 170.678 471.923 171.204 472.27C171.731 472.61 172.384 472.78 173.164 472.78C173.904 472.78 174.484 472.627 174.904 472.32C175.324 472.013 175.534 471.597 175.534 471.07C175.534 470.763 175.464 470.517 175.324 470.33C175.184 470.137 174.894 469.957 174.454 469.79C174.021 469.623 173.364 469.423 172.484 469.19C171.531 468.937 170.781 468.673 170.234 468.4C169.688 468.127 169.298 467.81 169.064 467.45C168.831 467.09 168.714 466.653 168.714 466.14C168.714 465.507 168.888 464.953 169.234 464.48C169.581 464 170.064 463.63 170.684 463.37C171.311 463.11 172.038 462.98 172.864 462.98C173.684 462.98 174.418 463.11 175.064 463.37C175.711 463.63 176.231 464 176.624 464.48C177.024 464.953 177.261 465.507 177.334 466.14L175.514 466.47C175.428 465.89 175.148 465.433 174.674 465.1C174.208 464.767 173.604 464.59 172.864 464.57C172.164 464.543 171.594 464.667 171.154 464.94C170.721 465.213 170.504 465.583 170.504 466.05C170.504 466.31 170.584 466.533 170.744 466.72C170.911 466.907 171.214 467.083 171.654 467.25C172.101 467.417 172.748 467.607 173.594 467.82C174.548 468.06 175.298 468.323 175.844 468.61C176.398 468.89 176.791 469.223 177.024 469.61C177.258 469.99 177.374 470.46 177.374 471.02C177.374 472.06 176.991 472.88 176.224 473.48C175.458 474.073 174.401 474.37 173.054 474.37ZM184.18 474.38C183.106 474.38 182.18 474.137 181.4 473.65C180.626 473.163 180.03 472.49 179.61 471.63C179.19 470.77 178.98 469.783 178.98 468.67C178.98 467.537 179.193 466.543 179.62 465.69C180.046 464.837 180.65 464.173 181.43 463.7C182.21 463.22 183.126 462.98 184.18 462.98C185.26 462.98 186.19 463.223 186.97 463.71C187.75 464.19 188.346 464.86 188.76 465.72C189.18 466.573 189.39 467.557 189.39 468.67C189.39 469.797 189.18 470.79 188.76 471.65C188.34 472.503 187.74 473.173 186.96 473.66C186.18 474.14 185.253 474.38 184.18 474.38ZM184.18 472.69C185.3 472.69 186.133 472.317 186.68 471.57C187.226 470.823 187.5 469.857 187.5 468.67C187.5 467.45 187.223 466.48 186.67 465.76C186.116 465.033 185.286 464.67 184.18 464.67C183.426 464.67 182.806 464.84 182.32 465.18C181.833 465.52 181.47 465.99 181.23 466.59C180.99 467.19 180.87 467.883 180.87 468.67C180.87 469.883 181.15 470.857 181.71 471.59C182.27 472.323 183.093 472.69 184.18 472.69ZM196.191 474.38C195.118 474.38 194.191 474.137 193.411 473.65C192.638 473.163 192.041 472.49 191.621 471.63C191.201 470.77 190.991 469.783 190.991 468.67C190.991 467.537 191.205 466.543 191.631 465.69C192.058 464.837 192.661 464.173 193.441 463.7C194.221 463.22 195.138 462.98 196.191 462.98C197.271 462.98 198.201 463.223 198.981 463.71C199.761 464.19 200.358 464.86 200.771 465.72C201.191 466.573 201.401 467.557 201.401 468.67C201.401 469.797 201.191 470.79 200.771 471.65C200.351 472.503 199.751 473.173 198.971 473.66C198.191 474.14 197.265 474.38 196.191 474.38ZM196.191 472.69C197.311 472.69 198.145 472.317 198.691 471.57C199.238 470.823 199.511 469.857 199.511 468.67C199.511 467.45 199.235 466.48 198.681 465.76C198.128 465.033 197.298 464.67 196.191 464.67C195.438 464.67 194.818 464.84 194.331 465.18C193.845 465.52 193.481 465.99 193.241 466.59C193.001 467.19 192.881 467.883 192.881 468.67C192.881 469.883 193.161 470.857 193.721 471.59C194.281 472.323 195.105 472.69 196.191 472.69ZM211.293 474.08V468.67C211.293 468.157 211.246 467.663 211.153 467.19C211.066 466.717 210.91 466.293 210.683 465.92C210.463 465.54 210.163 465.24 209.783 465.02C209.41 464.8 208.936 464.69 208.363 464.69C207.916 464.69 207.51 464.767 207.143 464.92C206.783 465.067 206.473 465.293 206.213 465.6C205.953 465.907 205.75 466.293 205.603 466.76C205.463 467.22 205.393 467.763 205.393 468.39L204.223 468.03C204.223 466.983 204.41 466.087 204.783 465.34C205.163 464.587 205.693 464.01 206.373 463.61C207.06 463.203 207.866 463 208.793 463C209.493 463 210.09 463.11 210.583 463.33C211.076 463.55 211.486 463.843 211.813 464.21C212.14 464.57 212.396 464.977 212.583 465.43C212.77 465.877 212.9 466.333 212.973 466.8C213.053 467.26 213.093 467.697 213.093 468.11V474.08H211.293ZM203.593 474.08V463.28H205.193V466.17H205.393V474.08H203.593ZM222.767 474.38C221.96 474.38 221.284 474.233 220.737 473.94C220.197 473.64 219.787 473.247 219.507 472.76C219.234 472.273 219.097 471.74 219.097 471.16C219.097 470.593 219.204 470.103 219.417 469.69C219.637 469.27 219.944 468.923 220.337 468.65C220.73 468.37 221.2 468.15 221.747 467.99C222.26 467.85 222.834 467.73 223.467 467.63C224.107 467.523 224.754 467.427 225.407 467.34C226.06 467.253 226.67 467.17 227.237 467.09L226.597 467.46C226.617 466.5 226.424 465.79 226.017 465.33C225.617 464.87 224.924 464.64 223.937 464.64C223.284 464.64 222.71 464.79 222.217 465.09C221.73 465.383 221.387 465.863 221.187 466.53L219.497 466.02C219.757 465.073 220.26 464.33 221.007 463.79C221.754 463.25 222.737 462.98 223.957 462.98C224.937 462.98 225.777 463.157 226.477 463.51C227.184 463.857 227.69 464.383 227.997 465.09C228.15 465.423 228.247 465.787 228.287 466.18C228.327 466.567 228.347 466.973 228.347 467.4V474.08H226.767V471.49L227.137 471.73C226.73 472.603 226.16 473.263 225.427 473.71C224.7 474.157 223.814 474.38 222.767 474.38ZM223.037 472.89C223.677 472.89 224.23 472.777 224.697 472.55C225.17 472.317 225.55 472.013 225.837 471.64C226.124 471.26 226.31 470.847 226.397 470.4C226.497 470.067 226.55 469.697 226.557 469.29C226.57 468.877 226.577 468.56 226.577 468.34L227.197 468.61C226.617 468.69 226.047 468.767 225.487 468.84C224.927 468.913 224.397 468.993 223.897 469.08C223.397 469.16 222.947 469.257 222.547 469.37C222.254 469.463 221.977 469.583 221.717 469.73C221.464 469.877 221.257 470.067 221.097 470.3C220.944 470.527 220.867 470.81 220.867 471.15C220.867 471.443 220.94 471.723 221.087 471.99C221.24 472.257 221.474 472.473 221.787 472.64C222.107 472.807 222.524 472.89 223.037 472.89ZM235.027 474.37C233.74 474.37 232.684 474.09 231.857 473.53C231.037 472.963 230.534 472.173 230.347 471.16L232.167 470.87C232.314 471.457 232.65 471.923 233.177 472.27C233.704 472.61 234.357 472.78 235.137 472.78C235.877 472.78 236.457 472.627 236.877 472.32C237.297 472.013 237.507 471.597 237.507 471.07C237.507 470.763 237.437 470.517 237.297 470.33C237.157 470.137 236.867 469.957 236.427 469.79C235.994 469.623 235.337 469.423 234.457 469.19C233.504 468.937 232.754 468.673 232.207 468.4C231.66 468.127 231.27 467.81 231.037 467.45C230.804 467.09 230.687 466.653 230.687 466.14C230.687 465.507 230.86 464.953 231.207 464.48C231.554 464 232.037 463.63 232.657 463.37C233.284 463.11 234.01 462.98 234.837 462.98C235.657 462.98 236.39 463.11 237.037 463.37C237.684 463.63 238.204 464 238.597 464.48C238.997 464.953 239.234 465.507 239.307 466.14L237.487 466.47C237.4 465.89 237.12 465.433 236.647 465.1C236.18 464.767 235.577 464.59 234.837 464.57C234.137 464.543 233.567 464.667 233.127 464.94C232.694 465.213 232.477 465.583 232.477 466.05C232.477 466.31 232.557 466.533 232.717 466.72C232.884 466.907 233.187 467.083 233.627 467.25C234.074 467.417 234.72 467.607 235.567 467.82C236.52 468.06 237.27 468.323 237.817 468.61C238.37 468.89 238.764 469.223 238.997 469.61C239.23 469.99 239.347 470.46 239.347 471.02C239.347 472.06 238.964 472.88 238.197 473.48C237.43 474.073 236.374 474.37 235.027 474.37ZM248.066 474.08V461.65L245.356 463.29V461.3L248.066 459.68H249.876V474.08H248.066ZM253.481 468.51V467.04H259.481V468.51H253.481ZM264.38 474.08L261.08 463.27L262.85 463.28L265.26 471.18L267.69 463.28H269.26L271.68 471.18L274.1 463.28H275.86L272.56 474.08H271.08L268.47 465.87L265.86 474.08H264.38ZM281.955 474.38C280.895 474.38 279.968 474.147 279.175 473.68C278.388 473.207 277.775 472.55 277.335 471.71C276.895 470.863 276.675 469.877 276.675 468.75C276.675 467.57 276.892 466.55 277.325 465.69C277.758 464.823 278.362 464.157 279.135 463.69C279.915 463.217 280.828 462.98 281.875 462.98C282.962 462.98 283.885 463.23 284.645 463.73C285.412 464.23 285.985 464.943 286.365 465.87C286.752 466.797 286.918 467.9 286.865 469.18H285.065V468.54C285.045 467.213 284.775 466.223 284.255 465.57C283.735 464.91 282.962 464.58 281.935 464.58C280.835 464.58 279.998 464.933 279.425 465.64C278.852 466.347 278.565 467.36 278.565 468.68C278.565 469.953 278.852 470.94 279.425 471.64C279.998 472.34 280.815 472.69 281.875 472.69C282.588 472.69 283.208 472.527 283.735 472.2C284.262 471.873 284.675 471.403 284.975 470.79L286.685 471.38C286.265 472.333 285.632 473.073 284.785 473.6C283.945 474.12 283.002 474.38 281.955 474.38ZM277.965 469.18V467.75H285.945V469.18H277.965ZM293.771 474.38C292.711 474.38 291.785 474.147 290.991 473.68C290.205 473.207 289.591 472.55 289.151 471.71C288.711 470.863 288.491 469.877 288.491 468.75C288.491 467.57 288.708 466.55 289.141 465.69C289.575 464.823 290.178 464.157 290.951 463.69C291.731 463.217 292.645 462.98 293.691 462.98C294.778 462.98 295.701 463.23 296.461 463.73C297.228 464.23 297.801 464.943 298.181 465.87C298.568 466.797 298.735 467.9 298.681 469.18H296.881V468.54C296.861 467.213 296.591 466.223 296.071 465.57C295.551 464.91 294.778 464.58 293.751 464.58C292.651 464.58 291.815 464.933 291.241 465.64C290.668 466.347 290.381 467.36 290.381 468.68C290.381 469.953 290.668 470.94 291.241 471.64C291.815 472.34 292.631 472.69 293.691 472.69C294.405 472.69 295.025 472.527 295.551 472.2C296.078 471.873 296.491 471.403 296.791 470.79L298.501 471.38C298.081 472.333 297.448 473.073 296.601 473.6C295.761 474.12 294.818 474.38 293.771 474.38ZM289.781 469.18V467.75H297.761V469.18H289.781ZM300.898 474.08L300.908 459.68H302.708V468.48L307.238 463.28H309.548L304.778 468.68L310.108 474.08H307.618L302.708 468.88V474.08H300.898Z" fill="#1A1A1A"/>
<rect x="2" y="2.08002" width="364" height="520" rx="4" stroke="black" stroke-width="3"/>
</g>
<defs>
<filter id="filter0_d_387_16820" x="0.5" y="0.580017" width="375" height="535" filterUnits="userSpaceOnUse" color-interpolation-filters="sRGB">
<feFlood flood-opacity="0" result="BackgroundImageFix"/>
<feColorMatrix in="SourceAlpha" type="matrix" values="0 0 0 0 0 0 0 0 0 0 0 0 0 0 0 0 0 0 127 0" result="hardAlpha"/>
<feOffset dx="8" dy="12"/>
<feComposite in2="hardAlpha" operator="out"/>
<feColorMatrix type="matrix" values="0 0 0 0 0.0862745 0 0 0 0 0.0392157 0 0 0 0 0.184314 0 0 0 1 0"/>
<feBlend mode="normal" in2="BackgroundImageFix" result="effect1_dropShadow_387_16820"/>
<feBlend mode="normal" in="SourceGraphic" in2="effect1_dropShadow_387_16820" result="shape"/>
</filter>
</defs>
</svg>
