<svg width="376" height="536" viewBox="0 0 376 536" fill="none" xmlns="http://www.w3.org/2000/svg">
<g filter="url(#filter0_d_387_16820)">
<rect x="2" y="2.08002" width="364" height="520" rx="4" fill="#EBE8E3"/>
<path d="M94.1781 76.08C94.3275 76.08 94.4768 75.9307 94.6261 75.632C94.7755 75.3334 94.8501 74.8427 94.8501 74.16V58.8C94.8501 58.1173 94.7755 57.6373 94.6261 57.36C94.4768 57.0613 94.3275 56.9013 94.1781 56.88H100.45C100.301 56.88 100.151 57.0293 100.002 57.328C99.8528 57.6267 99.7781 58.128 99.7781 58.832V63.728C99.7781 64.1973 99.8315 64.4747 99.9381 64.56C100.066 64.6454 100.45 64.688 101.09 64.688H109.314C109.954 64.688 110.327 64.656 110.434 64.592C110.541 64.5067 110.594 64.2187 110.594 63.728V58.8C110.594 58.1173 110.519 57.6373 110.37 57.36C110.221 57.0613 110.071 56.9013 109.922 56.88H116.194C116.045 56.88 115.895 57.0293 115.746 57.328C115.597 57.6267 115.522 58.128 115.522 58.832V74.16C115.522 74.8427 115.597 75.3334 115.746 75.632C115.895 75.9307 116.045 76.08 116.194 76.08H109.922C110.071 76.08 110.221 75.9307 110.37 75.632C110.519 75.3334 110.594 74.8427 110.594 74.16V69.168C110.594 68.6774 110.53 68.4 110.402 68.336C110.295 68.2507 109.933 68.208 109.314 68.208H101.09C100.45 68.208 100.066 68.2507 99.9381 68.336C99.8315 68.4214 99.7781 68.6987 99.7781 69.168V74.16C99.7781 74.8427 99.8528 75.3334 100.002 75.632C100.151 75.9307 100.301 76.08 100.45 76.08H94.1781ZM119.589 83.888C118.309 83.888 117.296 83.76 116.549 83.504C115.802 83.248 115.322 83.0027 115.109 82.768L115.749 77.808V76.848C116.005 77.4027 116.357 77.9787 116.805 78.576C117.232 79.1734 117.733 79.6747 118.309 80.08C118.885 80.4854 119.482 80.688 120.101 80.688C120.528 80.688 120.912 80.592 121.253 80.4C121.616 80.2294 121.946 79.952 122.245 79.568C122.565 79.184 122.874 78.704 123.173 78.128C123.6 77.2747 123.866 76.688 123.973 76.368C123.845 76.1974 123.632 75.8027 123.333 75.184C123.056 74.5654 122.714 73.8187 122.309 72.944C121.925 72.048 121.509 71.1094 121.061 70.128C120.634 69.1254 120.218 68.1547 119.813 67.216C119.429 66.2774 119.077 65.4454 118.757 64.72C118.458 63.9947 118.234 63.4613 118.085 63.12C117.786 62.3947 117.488 61.8827 117.189 61.584C116.869 61.264 116.624 61.104 116.453 61.104H123.013C122.906 61.104 122.832 61.2533 122.789 61.552C122.746 61.8507 122.821 62.3733 123.013 63.12C123.12 63.5253 123.29 64.1014 123.525 64.848C123.76 65.5734 124.026 66.3734 124.325 67.248C124.645 68.1227 124.965 69.008 125.285 69.904C125.626 70.8 125.936 71.6214 126.213 72.368H126.245C126.544 71.5787 126.853 70.7254 127.173 69.808C127.514 68.8694 127.845 67.952 128.165 67.056C128.506 66.16 128.794 65.36 129.029 64.656C129.285 63.952 129.477 63.4187 129.605 63.056C129.84 62.3307 129.936 61.8293 129.893 61.552C129.85 61.2533 129.754 61.104 129.605 61.104H135.973C135.802 61.104 135.568 61.2533 135.269 61.552C134.992 61.8293 134.725 62.32 134.469 63.024C134.32 63.408 134.074 64.0374 133.733 64.912C133.392 65.7867 132.986 66.7893 132.517 67.92C132.048 69.0507 131.557 70.2134 131.045 71.408C130.533 72.6027 130.032 73.7334 129.541 74.8C129.072 75.8454 128.656 76.7094 128.293 77.392C127.568 78.8 126.81 79.984 126.021 80.944C125.232 81.904 124.325 82.6294 123.301 83.12C122.277 83.632 121.04 83.888 119.589 83.888ZM137.049 83.184C137.198 83.184 137.337 83.0347 137.465 82.736C137.614 82.4374 137.689 81.9467 137.689 81.264V63.024C137.689 62.3413 137.614 61.8613 137.465 61.584C137.337 61.2854 137.198 61.1253 137.049 61.104H142.233V61.36L142.169 61.968L142.233 62C142.446 61.808 142.755 61.6267 143.161 61.456C143.587 61.264 144.067 61.104 144.601 60.976C145.155 60.848 145.71 60.784 146.265 60.784C148.249 60.784 149.785 61.136 150.873 61.84C151.982 62.5227 152.761 63.4507 153.209 64.624C153.657 65.7974 153.881 67.1307 153.881 68.624C153.881 70.096 153.657 71.4187 153.209 72.592C152.782 73.7654 152.014 74.6934 150.905 75.376C149.817 76.0587 148.27 76.4 146.265 76.4C145.433 76.4 144.654 76.2934 143.929 76.08C143.225 75.888 142.659 75.6 142.233 75.216L142.169 75.248L142.233 75.888V81.264C142.233 81.9467 142.297 82.4374 142.425 82.736C142.574 83.0347 142.723 83.184 142.873 83.184H137.049ZM145.625 73.168C146.521 73.168 147.235 73.04 147.769 72.784C148.323 72.5067 148.718 72.0374 148.953 71.376C149.209 70.7147 149.337 69.7974 149.337 68.624C149.337 67.4507 149.209 66.5333 148.953 65.872C148.718 65.1894 148.323 64.7093 147.769 64.432C147.235 64.1333 146.521 63.984 145.625 63.984C144.921 63.984 144.313 64.1547 143.801 64.496C143.289 64.816 142.894 65.3174 142.617 66C142.361 66.6827 142.233 67.568 142.233 68.656C142.233 69.7654 142.371 70.6507 142.649 71.312C142.926 71.9734 143.31 72.4534 143.801 72.752C144.313 73.0294 144.921 73.168 145.625 73.168ZM164.492 76.4C162.807 76.4 161.399 76.2294 160.268 75.888C159.159 75.5254 158.273 75.0134 157.612 74.352C156.951 73.6694 156.481 72.848 156.204 71.888C155.927 70.928 155.788 69.84 155.788 68.624C155.788 66.2133 156.46 64.304 157.804 62.896C159.148 61.488 161.207 60.784 163.98 60.784C165.601 60.784 166.913 61.008 167.916 61.456C168.94 61.904 169.719 62.5013 170.252 63.248C170.785 63.9947 171.148 64.8267 171.34 65.744C171.553 66.64 171.66 67.5467 171.66 68.464V69.968C171.66 69.904 171.361 69.84 170.764 69.776C170.188 69.6907 169.207 69.648 167.82 69.648H160.396C160.396 70.8214 160.748 71.7067 161.452 72.304C162.177 72.88 163.351 73.168 164.972 73.168C166.337 73.168 167.553 73.008 168.62 72.688C169.708 72.3467 170.497 72.0267 170.988 71.728V72.688L171.308 75.12C170.903 75.3974 170.124 75.6854 168.972 75.984C167.82 76.2614 166.327 76.4 164.492 76.4ZM161.58 66.896H167.116C167.116 66.4267 167.009 65.968 166.796 65.52C166.604 65.072 166.284 64.7093 165.836 64.432C165.388 64.1333 164.769 63.984 163.98 63.984C163.191 63.984 162.551 64.1013 162.06 64.336C161.591 64.5707 161.239 64.8587 161.004 65.2C160.791 65.5414 160.684 65.8934 160.684 66.256C160.684 66.4693 160.748 66.6293 160.876 66.736C161.004 66.8427 161.239 66.896 161.58 66.896ZM174.361 76.08C174.51 76.08 174.649 75.9307 174.777 75.632C174.926 75.3334 175.001 74.8427 175.001 74.16V63.344C175.001 62.6613 174.926 62.1814 174.777 61.904C174.649 61.6053 174.51 61.4453 174.361 61.424C175.3 61.424 176.26 61.36 177.241 61.232C178.222 61.0827 178.99 60.9333 179.545 60.784V62.064L179.481 62.608L179.545 62.672C179.694 62.4373 179.929 62.1814 180.249 61.904C180.59 61.6053 181.017 61.3493 181.529 61.136C182.062 60.9014 182.681 60.784 183.385 60.784C184.43 60.784 185.358 60.9333 186.169 61.232C186.98 61.5093 187.556 61.7973 187.897 62.096L186.937 66.384V67.344C186.617 66.896 186.18 66.4374 185.625 65.968C185.092 65.4987 184.494 65.104 183.833 64.784C183.193 64.464 182.532 64.304 181.849 64.304C181.081 64.304 180.505 64.5813 180.121 65.136C179.737 65.6907 179.545 66.5653 179.545 67.76V74.16C179.545 74.8427 179.609 75.3334 179.737 75.632C179.886 75.9307 180.036 76.08 180.185 76.08H174.361ZM197.834 76.08C197.984 76.08 198.133 75.9307 198.282 75.632C198.432 75.3334 198.506 74.8427 198.506 74.16V58.8C198.506 58.1173 198.432 57.6373 198.282 57.36C198.133 57.0613 197.984 56.9013 197.834 56.88H216.522V57.84L217.162 61.552C216.629 61.3173 215.69 61.072 214.346 60.816C213.002 60.5387 211.381 60.4 209.482 60.4H204.746C204.106 60.4 203.722 60.4534 203.594 60.56C203.488 60.6453 203.434 60.912 203.434 61.36V63.728C203.434 64.1973 203.488 64.4747 203.594 64.56C203.722 64.6454 204.096 64.688 204.714 64.688H209.322C210.56 64.688 211.552 64.624 212.298 64.496C213.066 64.3467 213.568 64.1973 213.802 64.048C213.717 64.4533 213.621 64.9227 213.514 65.456C213.408 65.9894 213.322 66.5014 213.258 66.992C213.194 67.4827 213.162 67.888 213.162 68.208H204.714C204.096 68.208 203.722 68.2507 203.594 68.336C203.488 68.4 203.434 68.6774 203.434 69.168V74.16C203.434 74.864 203.509 75.3654 203.658 75.664C203.808 75.9414 203.957 76.08 204.106 76.08H197.834ZM223.787 76.4C221.867 76.4 220.331 76.0267 219.179 75.28C218.048 74.512 217.483 73.2854 217.483 71.6C217.483 70.4267 217.782 69.4774 218.379 68.752C218.976 68.0267 219.787 67.4934 220.811 67.152C221.856 66.7894 223.04 66.608 224.363 66.608C225.344 66.608 226.176 66.6934 226.859 66.864C227.563 67.0347 228.128 67.216 228.555 67.408C228.982 67.6 229.259 67.7387 229.387 67.824C229.387 66.928 229.291 66.2027 229.099 65.648C228.907 65.072 228.555 64.656 228.043 64.4C227.552 64.1227 226.859 63.984 225.963 63.984C224.662 63.984 223.51 64.112 222.507 64.368C221.504 64.624 220.683 64.9227 220.043 65.264C219.424 65.6053 218.998 65.8933 218.763 66.128V65.168L218.443 62.032C218.592 61.9467 218.987 61.808 219.627 61.616C220.267 61.424 221.142 61.2427 222.251 61.072C223.36 60.88 224.683 60.784 226.219 60.784C228.331 60.784 229.942 61.0933 231.051 61.712C232.16 62.3093 232.918 63.1733 233.323 64.304C233.75 65.4347 233.963 66.8 233.963 68.4V74.16C233.963 74.7574 234.027 75.1947 234.155 75.472C234.304 75.728 234.454 75.9307 234.603 76.08H229.419V75.408L229.483 74.8L229.419 74.736C229.248 74.928 229.003 75.12 228.683 75.312C228.363 75.504 227.968 75.6854 227.499 75.856C227.03 76.0054 226.486 76.1334 225.867 76.24C225.248 76.3467 224.555 76.4 223.787 76.4ZM225.291 73.168C226.187 73.168 226.934 73.104 227.531 72.976C228.15 72.8267 228.619 72.6347 228.939 72.4C229.259 72.144 229.419 71.8454 229.419 71.504C229.419 71.0134 229.046 70.608 228.299 70.288C227.574 69.968 226.582 69.808 225.323 69.808C224.107 69.808 223.243 69.9787 222.731 70.32C222.24 70.6614 221.995 71.088 221.995 71.6C221.995 72.24 222.283 72.6667 222.859 72.88C223.435 73.072 224.246 73.168 225.291 73.168ZM245.268 76.4C243.369 76.4 241.769 76.2934 240.468 76.08C239.167 75.8667 238.271 75.6534 237.78 75.44V74.48L237.108 71.344C237.663 71.7494 238.697 72.1547 240.212 72.56C241.727 72.9654 243.583 73.168 245.78 73.168C246.441 73.168 246.964 73.1254 247.348 73.04C247.753 72.9547 248.041 72.816 248.212 72.624C248.383 72.432 248.468 72.1867 248.468 71.888C248.468 71.5254 248.329 71.248 248.052 71.056C247.796 70.864 247.327 70.7147 246.644 70.608C245.961 70.48 244.969 70.3307 243.668 70.16C242.025 69.9467 240.724 69.648 239.764 69.264C238.804 68.8587 238.121 68.3467 237.716 67.728C237.332 67.088 237.14 66.3094 237.14 65.392C237.14 64.5387 237.343 63.7707 237.748 63.088C238.175 62.384 238.9 61.8293 239.924 61.424C240.969 60.9973 242.42 60.784 244.276 60.784C246.025 60.784 247.561 60.8907 248.884 61.104C250.207 61.3173 251.156 61.5307 251.732 61.744V62.704L252.372 65.52C251.881 65.2 250.921 64.8693 249.492 64.528C248.063 64.1867 246.249 64.016 244.052 64.016C243.199 64.016 242.591 64.1014 242.228 64.272C241.865 64.4427 241.684 64.7413 241.684 65.168C241.684 65.3813 241.737 65.5627 241.844 65.712C241.972 65.8614 242.207 66 242.548 66.128C242.889 66.256 243.38 66.384 244.02 66.512C244.66 66.6187 245.503 66.736 246.548 66.864C248.361 67.0987 249.727 67.4294 250.644 67.856C251.561 68.2614 252.18 68.7734 252.5 69.392C252.82 69.9894 252.98 70.7147 252.98 71.568C252.98 72.656 252.703 73.5627 252.148 74.288C251.615 74.992 250.772 75.5254 249.62 75.888C248.489 76.2294 247.039 76.4 245.268 76.4ZM261.603 76.4C260.131 76.4 259.064 76.0907 258.403 75.472C257.741 74.832 257.411 73.7974 257.411 72.368V64.304H254.531V61.104C255.512 61.104 256.28 60.9867 256.835 60.752C257.389 60.496 257.784 60.0587 258.019 59.44C258.253 58.8213 258.371 57.9573 258.371 56.848H261.955V61.104H267.427C267.277 61.5307 267.128 62.064 266.979 62.704C266.851 63.3227 266.787 63.856 266.787 64.304H261.955V70.608C261.955 71.5894 262.029 72.2614 262.179 72.624C262.328 72.9867 262.68 73.168 263.235 73.168C263.597 73.168 263.992 73.04 264.419 72.784C264.867 72.528 265.293 72.2187 265.699 71.856C266.125 71.472 266.477 71.1094 266.755 70.768V71.76L267.075 74.864C266.819 75.0774 266.435 75.312 265.923 75.568C265.411 75.8027 264.781 75.9947 264.035 76.144C263.309 76.3147 262.499 76.4 261.603 76.4ZM122.475 124.08C122.624 124.08 122.774 123.931 122.923 123.632C123.072 123.333 123.147 122.843 123.147 122.16V106.8C123.147 106.117 123.072 105.637 122.923 105.36C122.774 105.061 122.624 104.901 122.475 104.88H141.163V105.84L141.803 109.552C141.27 109.317 140.331 109.072 138.987 108.816C137.643 108.539 136.022 108.4 134.123 108.4H129.387C128.747 108.4 128.363 108.453 128.235 108.56C128.128 108.645 128.075 108.912 128.075 109.36V111.728C128.075 112.197 128.128 112.475 128.235 112.56C128.363 112.645 128.736 112.688 129.355 112.688H133.963C135.2 112.688 136.192 112.624 136.939 112.496C137.707 112.347 138.208 112.197 138.443 112.048C138.358 112.453 138.262 112.923 138.155 113.456C138.048 113.989 137.963 114.501 137.899 114.992C137.835 115.483 137.803 115.888 137.803 116.208H129.355C128.736 116.208 128.363 116.251 128.235 116.336C128.128 116.4 128.075 116.677 128.075 117.168V122.16C128.075 122.864 128.15 123.365 128.299 123.664C128.448 123.941 128.598 124.08 128.747 124.08H122.475ZM150.31 124.4C149.072 124.4 148.016 124.187 147.141 123.76C146.267 123.312 145.606 122.555 145.158 121.488C144.71 120.4 144.486 118.896 144.486 116.976V111.024C144.486 110.341 144.411 109.851 144.262 109.552C144.134 109.253 143.995 109.104 143.846 109.104H149.734C149.584 109.104 149.424 109.253 149.254 109.552C149.104 109.851 149.03 110.341 149.03 111.024V117.424C149.03 118.768 149.275 119.728 149.766 120.304C150.278 120.88 150.864 121.168 151.526 121.168C152.464 121.168 153.19 120.955 153.702 120.528C154.214 120.08 154.576 119.504 154.79 118.8C155.003 118.075 155.11 117.317 155.11 116.528V111.024C155.11 110.341 155.035 109.861 154.886 109.584C154.758 109.285 154.619 109.125 154.47 109.104H159.654V122.16C159.654 122.843 159.718 123.333 159.846 123.632C159.995 123.931 160.144 124.08 160.294 124.08H155.11V122.832L155.174 122.192L155.11 122.128C154.896 122.448 154.63 122.747 154.31 123.024C153.99 123.301 153.627 123.547 153.222 123.76C152.816 123.952 152.368 124.101 151.878 124.208C151.387 124.336 150.864 124.4 150.31 124.4ZM162.908 124.08C163.057 124.08 163.196 123.931 163.324 123.632C163.473 123.333 163.548 122.843 163.548 122.16V111.344C163.548 110.661 163.473 110.181 163.324 109.904C163.196 109.605 163.057 109.445 162.908 109.424C163.847 109.424 164.807 109.36 165.788 109.232C166.769 109.083 167.537 108.933 168.092 108.784V110.736L168.028 111.152L168.092 111.216C168.156 111.067 168.359 110.8 168.7 110.416C169.041 110.032 169.532 109.669 170.172 109.328C170.812 108.965 171.601 108.784 172.54 108.784C174.524 108.784 176.039 109.349 177.084 110.48C178.151 111.611 178.684 113.381 178.684 115.792V122.16C178.684 122.843 178.748 123.333 178.876 123.632C179.025 123.931 179.175 124.08 179.324 124.08H173.5C173.649 124.08 173.788 123.931 173.916 123.632C174.065 123.333 174.14 122.843 174.14 122.16V115.888C174.14 114.885 174.033 114.107 173.82 113.552C173.607 112.976 173.308 112.571 172.924 112.336C172.561 112.101 172.135 111.984 171.644 111.984C171.047 111.984 170.471 112.133 169.916 112.432C169.383 112.709 168.945 113.157 168.604 113.776C168.263 114.373 168.092 115.173 168.092 116.176V122.16C168.092 122.843 168.156 123.333 168.284 123.632C168.433 123.931 168.583 124.08 168.732 124.08H162.908ZM188.883 124.4C186.985 124.4 185.491 124.059 184.403 123.376C183.337 122.693 182.579 121.765 182.131 120.592C181.705 119.419 181.491 118.096 181.491 116.624C181.491 115.131 181.705 113.797 182.131 112.624C182.579 111.451 183.337 110.523 184.403 109.84C185.491 109.136 186.985 108.784 188.883 108.784C189.523 108.784 190.099 108.837 190.611 108.944C191.145 109.051 191.614 109.2 192.019 109.392C192.446 109.563 192.819 109.787 193.139 110.064L193.203 110.032L193.139 109.424V103.92C193.139 103.237 193.065 102.757 192.915 102.48C192.787 102.181 192.649 102.021 192.499 102H197.683V122.16C197.683 122.843 197.747 123.333 197.875 123.632C198.025 123.931 198.174 124.08 198.323 124.08H193.139V123.664L193.235 123.056L193.139 123.024C192.819 123.301 192.446 123.547 192.019 123.76C191.593 123.952 191.113 124.101 190.579 124.208C190.067 124.336 189.502 124.4 188.883 124.4ZM189.427 121.168C190.131 121.168 190.718 121.061 191.187 120.848C191.678 120.635 192.062 120.336 192.339 119.952C192.638 119.547 192.841 119.067 192.947 118.512C193.075 117.936 193.139 117.307 193.139 116.624C193.139 115.941 193.075 115.323 192.947 114.768C192.819 114.192 192.617 113.701 192.339 113.296C192.062 112.869 191.678 112.549 191.187 112.336C190.718 112.101 190.131 111.984 189.427 111.984C188.403 111.984 187.571 112.336 186.931 113.04C186.313 113.744 186.003 114.949 186.003 116.656C186.003 117.787 186.142 118.683 186.419 119.344C186.697 120.005 187.091 120.475 187.603 120.752C188.115 121.029 188.723 121.168 189.427 121.168ZM201.346 124.08C201.495 124.08 201.644 123.931 201.794 123.632C201.943 123.333 202.018 122.843 202.018 122.16V111.024C202.018 110.341 201.943 109.851 201.794 109.552C201.666 109.253 201.527 109.104 201.378 109.104H206.562V122.16C206.562 122.843 206.626 123.333 206.754 123.632C206.903 123.931 207.052 124.08 207.202 124.08H201.346ZM203.938 106.672C203.148 106.672 202.519 106.459 202.049 106.032C201.58 105.605 201.346 105.019 201.346 104.272C201.346 103.525 201.57 102.939 202.018 102.512C202.487 102.085 203.127 101.872 203.938 101.872C204.748 101.872 205.378 102.085 205.826 102.512C206.295 102.939 206.53 103.525 206.53 104.272C206.53 105.019 206.295 105.605 205.826 106.032C205.378 106.459 204.748 106.672 203.938 106.672ZM210.096 124.08C210.245 124.08 210.384 123.931 210.512 123.632C210.661 123.333 210.736 122.843 210.736 122.16V111.344C210.736 110.661 210.661 110.181 210.512 109.904C210.384 109.605 210.245 109.445 210.096 109.424C211.034 109.424 211.994 109.36 212.976 109.232C213.957 109.083 214.725 108.933 215.28 108.784V110.736L215.216 111.152L215.28 111.216C215.344 111.067 215.546 110.8 215.888 110.416C216.229 110.032 216.72 109.669 217.36 109.328C218 108.965 218.789 108.784 219.728 108.784C221.712 108.784 223.226 109.349 224.272 110.48C225.338 111.611 225.872 113.381 225.872 115.792V122.16C225.872 122.843 225.936 123.333 226.064 123.632C226.213 123.931 226.362 124.08 226.512 124.08H220.688C220.837 124.08 220.976 123.931 221.104 123.632C221.253 123.333 221.328 122.843 221.328 122.16V115.888C221.328 114.885 221.221 114.107 221.008 113.552C220.794 112.976 220.496 112.571 220.112 112.336C219.749 112.101 219.322 111.984 218.832 111.984C218.234 111.984 217.658 112.133 217.104 112.432C216.57 112.709 216.133 113.157 215.792 113.776C215.45 114.373 215.28 115.173 215.28 116.176V122.16C215.28 122.843 215.344 123.333 215.472 123.632C215.621 123.931 215.77 124.08 215.92 124.08H210.096ZM236.839 131.888C235.601 131.888 234.46 131.803 233.415 131.632C232.391 131.461 231.495 131.248 230.727 130.992C229.98 130.757 229.404 130.523 228.999 130.288L229.639 125.488V124.56C229.937 125.136 230.407 125.744 231.047 126.384C231.687 127.024 232.487 127.568 233.447 128.016C234.407 128.464 235.495 128.688 236.711 128.688C237.5 128.688 238.161 128.517 238.695 128.176C239.228 127.856 239.633 127.355 239.911 126.672C240.188 125.989 240.327 125.147 240.327 124.144V123.632L240.391 123.056L240.327 122.992C240.028 123.312 239.623 123.579 239.111 123.792C238.62 123.984 238.076 124.133 237.479 124.24C236.903 124.347 236.327 124.4 235.751 124.4C234.023 124.4 232.636 124.059 231.591 123.376C230.567 122.693 229.82 121.765 229.351 120.592C228.903 119.419 228.679 118.096 228.679 116.624C228.679 115.131 228.903 113.797 229.351 112.624C229.799 111.451 230.535 110.523 231.559 109.84C232.604 109.136 234.001 108.784 235.751 108.784C236.348 108.784 236.935 108.827 237.511 108.912C238.087 108.997 238.62 109.125 239.111 109.296C239.601 109.445 240.007 109.659 240.327 109.936L240.391 109.904L240.327 109.296V109.104H245.511C245.361 109.125 245.212 109.285 245.063 109.584C244.935 109.883 244.871 110.384 244.871 111.088V123.344C244.871 126.437 244.209 128.635 242.887 129.936C241.585 131.237 239.569 131.888 236.839 131.888ZM236.615 121.168C237.361 121.168 238.012 121.04 238.567 120.784C239.121 120.528 239.548 120.069 239.847 119.408C240.167 118.747 240.327 117.819 240.327 116.624C240.327 115.451 240.167 114.533 239.847 113.872C239.548 113.189 239.121 112.709 238.567 112.432C238.012 112.133 237.361 111.984 236.615 111.984C235.911 111.984 235.303 112.133 234.791 112.432C234.279 112.731 233.884 113.221 233.607 113.904C233.329 114.587 233.191 115.504 233.191 116.656C233.191 117.787 233.319 118.683 233.575 119.344C233.852 120.005 234.247 120.475 234.759 120.752C235.271 121.029 235.889 121.168 236.615 121.168Z" fill="#1A1A1A"/>
<circle cx="185" cy="260.58" r="70.5" stroke="black" stroke-width="2" stroke-linecap="round" stroke-dasharray="11 11"/>
<rect x="154" y="168.08" width="60" height="44" fill="white"/>
<path d="M161.871 176.689H193.835" stroke="black" stroke-width="2" stroke-linecap="round"/>
<path d="M161.871 180.725H180.429" stroke="black" stroke-width="2" stroke-linecap="round"/>
<path d="M162.215 189.678H189.863" stroke="black" stroke-width="2" stroke-linecap="round"/>
<path d="M162.215 193.713H183.161" stroke="black" stroke-width="2" stroke-linecap="round"/>
<path d="M190.703 202.588H204.946" stroke="#BAC4FA" stroke-width="4" stroke-linecap="round"/>
<rect x="154" y="168.08" width="60" height="44" stroke="black" stroke-width="2"/>
<circle cx="238.687" cy="295.767" r="31.6866" fill="#FEDB9E" stroke="black" stroke-width="2"/>
<circle cx="238.766" cy="296.08" r="24" fill="white"/>
<path fill-rule="evenodd" clip-rule="evenodd" d="M238.685 321.192C252.725 321.192 264.108 309.809 264.108 295.769C264.108 281.728 252.725 270.346 238.685 270.346C224.644 270.346 213.262 281.728 213.262 295.769C213.262 309.809 224.644 321.192 238.685 321.192ZM220.005 284.489C220.005 288.752 221.694 292.073 225.046 294.249C226.389 295.12 227.971 295.79 229.774 296.276L225.743 305.592H230.023L238.522 285.952H234.241L230.98 293.489C229.248 293.063 227.819 292.472 226.68 291.732C224.262 290.163 223.005 287.838 223.005 284.489C223.005 281.677 224.005 278.954 225.934 276.752C229.578 274.305 233.964 272.877 238.683 272.877C251.327 272.877 261.577 283.127 261.577 295.771C261.577 300.786 259.964 305.425 257.229 309.196C257.328 308.502 257.378 307.795 257.378 307.077C257.378 302.815 255.689 299.493 252.336 297.318C250.992 296.445 249.406 295.774 247.599 295.288L251.639 285.952H247.358L243.638 294.549C242.099 294.37 240.447 294.283 238.691 294.283C238.407 294.283 238.128 294.281 237.852 294.276L236.57 297.238C237.259 297.268 237.966 297.283 238.691 297.283C240.013 297.283 241.245 297.335 242.389 297.437L238.86 305.592H243.14L246.393 298.075C248.13 298.501 249.562 299.093 250.703 299.834C253.121 301.403 254.378 303.728 254.378 307.077C254.378 309.852 253.404 312.539 251.526 314.726C247.863 317.212 243.443 318.664 238.683 318.664C226.039 318.664 215.789 308.414 215.789 295.771C215.789 290.739 217.412 286.087 220.163 282.309C220.058 283.023 220.005 283.75 220.005 284.489Z" fill="black"/>
<rect width="35.2164" height="35.2164" transform="matrix(0.86601 0.500028 3.18351e-05 1 118.5 259.697)" fill="#6E6E6E"/>
<rect width="35.2164" height="35.2164" transform="matrix(0.86601 -0.500028 -3.18351e-05 1 88 277.307)" fill="#5A5A5A"/>
<rect width="35.2164" height="35.2164" transform="matrix(0.866041 0.499972 -0.866041 0.499972 118.5 294.912)" fill="#AAAAAA"/>
<mask id="path-16-outside-1_387_16820" maskUnits="userSpaceOnUse" x="86.2679" y="274.303" width="34.6417" height="60.0011" fill="black">
<rect fill="white" x="86.2679" y="274.303" width="34.6417" height="60.0011"/>
<path d="M88 277.303L118.498 294.912L118.499 330.128L88.0011 312.519L88 277.303Z"/>
</mask>
<path d="M88 277.303L118.498 294.912L118.499 330.128L88.0011 312.519L88 277.303Z" fill="#FEDB9E"/>
<path d="M88 277.303L87.9999 275.303L86.268 276.303L88 277.303ZM118.498 294.912L120.23 295.912L118.498 292.912L118.498 294.912ZM118.499 330.128L118.499 332.128L120.231 331.128L118.499 330.128ZM88.0011 312.519L86.2691 311.519C86.2691 312.624 87.0446 313.967 88.0012 314.519L88.0011 312.519ZM88.0001 279.303L118.498 296.912L118.498 292.912L87.9999 275.303L88.0001 279.303ZM116.766 293.912L116.767 329.128L120.231 331.128L120.23 295.912L116.766 293.912ZM118.499 328.128L88.0011 310.519L88.0012 314.519L118.499 332.128L118.499 328.128ZM89.7331 313.519L89.732 278.303L86.268 276.303L86.2691 311.519L89.7331 313.519Z" fill="black" mask="url(#path-16-outside-1_387_16820)"/>
<mask id="path-18-outside-2_387_16820" maskUnits="userSpaceOnUse" x="116.767" y="273.907" width="34.6417" height="60.0011" fill="black">
<rect fill="white" x="116.767" y="273.907" width="34.6417" height="60.0011"/>
<path d="M118.5 294.908L148.998 277.299L148.997 312.515L118.499 330.124L118.5 294.908Z"/>
</mask>
<path d="M118.5 294.908L148.998 277.299L148.997 312.515L118.499 330.124L118.5 294.908Z" fill="#BAC4FA"/>
<path d="M118.5 294.908L118.5 292.908L116.768 295.908L118.5 294.908ZM148.998 277.299L150.73 276.299L148.998 275.299L148.998 277.299ZM148.997 312.515L148.997 314.515C149.953 313.963 150.729 312.62 150.729 311.515L148.997 312.515ZM118.499 330.124L116.767 331.125L118.499 332.124L118.499 330.124ZM118.5 296.908L148.998 279.299L148.998 275.299L118.5 292.908L118.5 296.908ZM147.266 278.299L147.265 313.515L150.729 311.515L150.73 276.299L147.266 278.299ZM148.997 310.515L118.499 328.124L118.499 332.124L148.997 314.515L148.997 310.515ZM120.231 329.124L120.232 293.908L116.768 295.908L116.767 331.125L120.231 329.124Z" fill="black" mask="url(#path-18-outside-2_387_16820)"/>
<mask id="path-20-outside-3_387_16820" maskUnits="userSpaceOnUse" x="84.5358" y="257.304" width="69.2833" height="39.9978" fill="black">
<rect fill="white" x="84.5358" y="257.304" width="69.2833" height="39.9978"/>
<path d="M88 277.303L118.499 259.695L148.998 277.303L118.499 294.91L88 277.303Z"/>
</mask>
<path d="M88 277.303L118.499 259.695L148.998 277.303L118.499 294.91L88 277.303Z" fill="white"/>
<path d="M88 277.303L86.2679 276.303V278.303L88 277.303ZM118.499 259.695L120.231 258.696C119.274 258.143 117.723 258.143 116.767 258.696L118.499 259.695ZM148.998 277.303L150.73 278.303V276.303L148.998 277.303ZM118.499 294.91L116.767 295.91H120.231L118.499 294.91ZM89.7321 278.303L120.231 260.695L116.767 258.696L86.2679 276.303L89.7321 278.303ZM116.767 260.695L147.266 278.303L150.73 276.303L120.231 258.696L116.767 260.695ZM147.266 276.303L116.767 293.91L120.231 295.91L150.73 278.303L147.266 276.303ZM120.231 293.91L89.7321 276.303L86.2679 278.303L116.767 295.91L120.231 293.91Z" fill="black" mask="url(#path-20-outside-3_387_16820)"/>
<path d="M36.3375 410.08V395.68H42.0275C42.1675 395.68 42.3342 395.687 42.5275 395.7C42.7208 395.707 42.9075 395.727 43.0875 395.76C43.8675 395.88 44.5208 396.147 45.0475 396.56C45.5808 396.973 45.9808 397.497 46.2475 398.13C46.5142 398.757 46.6475 399.453 46.6475 400.22C46.6475 401.333 46.3575 402.3 45.7775 403.12C45.1975 403.933 44.3475 404.443 43.2275 404.65L42.5475 404.76H38.1175V410.08H36.3375ZM44.9075 410.08L42.0675 404.22L43.8275 403.68L46.9475 410.08H44.9075ZM38.1175 403.07H41.9675C42.0942 403.07 42.2375 403.063 42.3975 403.05C42.5642 403.037 42.7208 403.013 42.8675 402.98C43.3275 402.873 43.7008 402.68 43.9875 402.4C44.2808 402.113 44.4942 401.78 44.6275 401.4C44.7608 401.013 44.8275 400.62 44.8275 400.22C44.8275 399.82 44.7608 399.43 44.6275 399.05C44.4942 398.663 44.2808 398.327 43.9875 398.04C43.7008 397.753 43.3275 397.56 42.8675 397.46C42.7208 397.42 42.5642 397.397 42.3975 397.39C42.2375 397.377 42.0942 397.37 41.9675 397.37H38.1175V403.07ZM53.83 410.38C52.77 410.38 51.8433 410.147 51.05 409.68C50.2633 409.207 49.65 408.55 49.21 407.71C48.77 406.863 48.55 405.877 48.55 404.75C48.55 403.57 48.7667 402.55 49.2 401.69C49.6333 400.823 50.2367 400.157 51.01 399.69C51.79 399.217 52.7033 398.98 53.75 398.98C54.8367 398.98 55.76 399.23 56.52 399.73C57.2867 400.23 57.86 400.943 58.24 401.87C58.6267 402.797 58.7933 403.9 58.74 405.18H56.94V404.54C56.92 403.213 56.65 402.223 56.13 401.57C55.61 400.91 54.8367 400.58 53.81 400.58C52.71 400.58 51.8733 400.933 51.3 401.64C50.7267 402.347 50.44 403.36 50.44 404.68C50.44 405.953 50.7267 406.94 51.3 407.64C51.8733 408.34 52.69 408.69 53.75 408.69C54.4633 408.69 55.0833 408.527 55.61 408.2C56.1367 407.873 56.55 407.403 56.85 406.79L58.56 407.38C58.14 408.333 57.5067 409.073 56.66 409.6C55.82 410.12 54.8767 410.38 53.83 410.38ZM49.84 405.18V403.75H57.82V405.18H49.84ZM65.5164 410.38C64.4231 410.38 63.4931 410.137 62.7264 409.65C61.9664 409.157 61.3864 408.48 60.9864 407.62C60.5864 406.76 60.3797 405.78 60.3664 404.68C60.3797 403.553 60.5897 402.563 60.9964 401.71C61.4097 400.85 61.9997 400.18 62.7664 399.7C63.5331 399.22 64.4564 398.98 65.5364 398.98C66.6764 398.98 67.6564 399.26 68.4764 399.82C69.3031 400.38 69.8564 401.147 70.1364 402.12L68.3764 402.65C68.1497 402.023 67.7797 401.537 67.2664 401.19C66.7597 400.843 66.1764 400.67 65.5164 400.67C64.7764 400.67 64.1664 400.843 63.6864 401.19C63.2064 401.53 62.8497 402.003 62.6164 402.61C62.3831 403.21 62.2631 403.9 62.2564 404.68C62.2697 405.88 62.5464 406.85 63.0864 407.59C63.6331 408.323 64.4431 408.69 65.5164 408.69C66.2231 408.69 66.8097 408.53 67.2764 408.21C67.7431 407.883 68.0964 407.413 68.3364 406.8L70.1364 407.27C69.7631 408.277 69.1797 409.047 68.3864 409.58C67.5931 410.113 66.6364 410.38 65.5164 410.38ZM76.5644 410.38C75.5044 410.38 74.5777 410.147 73.7844 409.68C72.9977 409.207 72.3844 408.55 71.9444 407.71C71.5044 406.863 71.2844 405.877 71.2844 404.75C71.2844 403.57 71.501 402.55 71.9344 401.69C72.3677 400.823 72.971 400.157 73.7444 399.69C74.5244 399.217 75.4377 398.98 76.4844 398.98C77.571 398.98 78.4944 399.23 79.2544 399.73C80.021 400.23 80.5944 400.943 80.9744 401.87C81.361 402.797 81.5277 403.9 81.4744 405.18H79.6744V404.54C79.6544 403.213 79.3844 402.223 78.8644 401.57C78.3444 400.91 77.571 400.58 76.5444 400.58C75.4444 400.58 74.6077 400.933 74.0344 401.64C73.461 402.347 73.1744 403.36 73.1744 404.68C73.1744 405.953 73.461 406.94 74.0344 407.64C74.6077 408.34 75.4244 408.69 76.4844 408.69C77.1977 408.69 77.8177 408.527 78.3444 408.2C78.871 407.873 79.2844 407.403 79.5844 406.79L81.2944 407.38C80.8744 408.333 80.241 409.073 79.3944 409.6C78.5544 410.12 77.611 410.38 76.5644 410.38ZM72.5744 405.18V403.75H80.5544V405.18H72.5744ZM83.9008 397.37V395.53H85.6808V397.37H83.9008ZM83.9008 410.08V399.28H85.6808V410.08H83.9008ZM91.6013 410.08L87.6813 399.28H89.4813L92.5113 407.81L95.5313 399.28H97.3413L93.4213 410.08H91.6013ZM103.439 410.38C102.379 410.38 101.453 410.147 100.659 409.68C99.8727 409.207 99.2594 408.55 98.8194 407.71C98.3794 406.863 98.1594 405.877 98.1594 404.75C98.1594 403.57 98.376 402.55 98.8094 401.69C99.2427 400.823 99.846 400.157 100.619 399.69C101.399 399.217 102.313 398.98 103.359 398.98C104.446 398.98 105.369 399.23 106.129 399.73C106.896 400.23 107.469 400.943 107.849 401.87C108.236 402.797 108.403 403.9 108.349 405.18H106.549V404.54C106.529 403.213 106.259 402.223 105.739 401.57C105.219 400.91 104.446 400.58 103.419 400.58C102.319 400.58 101.483 400.933 100.909 401.64C100.336 402.347 100.049 403.36 100.049 404.68C100.049 405.953 100.336 406.94 100.909 407.64C101.483 408.34 102.299 408.69 103.359 408.69C104.073 408.69 104.693 408.527 105.219 408.2C105.746 407.873 106.159 407.403 106.459 406.79L108.169 407.38C107.749 408.333 107.116 409.073 106.269 409.6C105.429 410.12 104.486 410.38 103.439 410.38ZM99.4494 405.18V403.75H107.429V405.18H99.4494ZM118.68 410.36C117.986 410.36 117.39 410.25 116.89 410.03C116.396 409.81 115.986 409.517 115.66 409.15C115.333 408.783 115.076 408.377 114.89 407.93C114.703 407.483 114.57 407.027 114.49 406.56C114.416 406.093 114.38 405.657 114.38 405.25V399.28H116.18V404.69C116.18 405.197 116.226 405.687 116.32 406.16C116.413 406.633 116.57 407.06 116.79 407.44C117.016 407.82 117.316 408.12 117.69 408.34C118.07 408.56 118.543 408.67 119.11 408.67C119.556 408.67 119.963 408.593 120.33 408.44C120.696 408.287 121.01 408.06 121.27 407.76C121.53 407.453 121.73 407.067 121.87 406.6C122.01 406.133 122.08 405.59 122.08 404.97L123.25 405.33C123.25 406.37 123.06 407.267 122.68 408.02C122.306 408.773 121.776 409.353 121.09 409.76C120.41 410.16 119.606 410.36 118.68 410.36ZM122.28 410.08V407.19H122.08V399.28H123.87V410.08H122.28ZM131.63 410.38C130.616 410.38 129.763 410.13 129.07 409.63C128.376 409.123 127.85 408.44 127.49 407.58C127.136 406.713 126.96 405.743 126.96 404.67C126.96 403.583 127.136 402.61 127.49 401.75C127.85 400.89 128.376 400.213 129.07 399.72C129.77 399.227 130.626 398.98 131.64 398.98C132.64 398.98 133.5 399.23 134.22 399.73C134.946 400.223 135.503 400.9 135.89 401.76C136.276 402.62 136.47 403.59 136.47 404.67C136.47 405.75 136.276 406.72 135.89 407.58C135.503 408.44 134.946 409.123 134.22 409.63C133.5 410.13 132.636 410.38 131.63 410.38ZM126.66 414.88V399.28H128.25V407.23H128.45V414.88H126.66ZM131.41 408.75C132.123 408.75 132.713 408.57 133.18 408.21C133.646 407.85 133.996 407.363 134.23 406.75C134.463 406.13 134.58 405.437 134.58 404.67C134.58 403.91 134.463 403.223 134.23 402.61C134.003 401.997 133.65 401.51 133.17 401.15C132.696 400.79 132.093 400.61 131.36 400.61C130.66 400.61 130.08 400.783 129.62 401.13C129.16 401.47 128.816 401.947 128.59 402.56C128.363 403.167 128.25 403.87 128.25 404.67C128.25 405.457 128.36 406.16 128.58 406.78C128.806 407.393 129.153 407.877 129.62 408.23C130.086 408.577 130.683 408.75 131.41 408.75ZM148.696 410.08C148.056 410.207 147.422 410.257 146.796 410.23C146.176 410.21 145.622 410.087 145.136 409.86C144.649 409.627 144.279 409.267 144.026 408.78C143.812 408.353 143.696 407.923 143.676 407.49C143.662 407.05 143.656 406.553 143.656 406V396.28H145.436V405.92C145.436 406.36 145.439 406.737 145.446 407.05C145.459 407.363 145.529 407.633 145.656 407.86C145.896 408.287 146.276 408.537 146.796 408.61C147.322 408.683 147.956 408.663 148.696 408.55V410.08ZM141.466 400.75V399.28H148.696V400.75H141.466ZM155.039 410.38C153.966 410.38 153.039 410.137 152.259 409.65C151.486 409.163 150.889 408.49 150.469 407.63C150.049 406.77 149.839 405.783 149.839 404.67C149.839 403.537 150.052 402.543 150.479 401.69C150.906 400.837 151.509 400.173 152.289 399.7C153.069 399.22 153.986 398.98 155.039 398.98C156.119 398.98 157.049 399.223 157.829 399.71C158.609 400.19 159.206 400.86 159.619 401.72C160.039 402.573 160.249 403.557 160.249 404.67C160.249 405.797 160.039 406.79 159.619 407.65C159.199 408.503 158.599 409.173 157.819 409.66C157.039 410.14 156.112 410.38 155.039 410.38ZM155.039 408.69C156.159 408.69 156.992 408.317 157.539 407.57C158.086 406.823 158.359 405.857 158.359 404.67C158.359 403.45 158.082 402.48 157.529 401.76C156.976 401.033 156.146 400.67 155.039 400.67C154.286 400.67 153.666 400.84 153.179 401.18C152.692 401.52 152.329 401.99 152.089 402.59C151.849 403.19 151.729 403.883 151.729 404.67C151.729 405.883 152.009 406.857 152.569 407.59C153.129 408.323 153.952 408.69 155.039 408.69ZM170.245 412.06V409.75H172.025V412.06H170.245ZM170.245 396.01V393.69H172.025V396.01H170.245ZM171.275 410.38C170.301 410.38 169.425 410.207 168.645 409.86C167.871 409.507 167.235 409.01 166.735 408.37C166.235 407.723 165.908 406.963 165.755 406.09L167.505 405.8C167.718 406.687 168.168 407.39 168.855 407.91C169.548 408.43 170.381 408.69 171.355 408.69C172.335 408.69 173.128 408.453 173.735 407.98C174.341 407.507 174.645 406.897 174.645 406.15C174.645 405.603 174.481 405.163 174.155 404.83C173.835 404.497 173.295 404.213 172.535 403.98L169.245 402.96C167.278 402.347 166.295 401.173 166.295 399.44C166.295 398.627 166.491 397.917 166.885 397.31C167.285 396.697 167.841 396.223 168.555 395.89C169.275 395.55 170.111 395.383 171.065 395.39C171.991 395.397 172.818 395.57 173.545 395.91C174.271 396.243 174.871 396.723 175.345 397.35C175.825 397.977 176.148 398.727 176.315 399.6L174.515 399.93C174.421 399.363 174.215 398.867 173.895 398.44C173.581 398.013 173.181 397.683 172.695 397.45C172.208 397.21 171.661 397.087 171.055 397.08C170.488 397.073 169.978 397.167 169.525 397.36C169.078 397.553 168.725 397.823 168.465 398.17C168.205 398.517 168.075 398.913 168.075 399.36C168.075 399.847 168.255 400.26 168.615 400.6C168.981 400.933 169.555 401.22 170.335 401.46L173.035 402.26C174.221 402.613 175.078 403.09 175.605 403.69C176.131 404.283 176.395 405.077 176.395 406.07C176.395 406.93 176.181 407.683 175.755 408.33C175.335 408.977 174.738 409.48 173.965 409.84C173.198 410.2 172.301 410.38 171.275 410.38ZM180.996 410.08V397.65L178.286 399.29V397.3L180.996 395.68H182.806V410.08H180.996ZM186.611 410.08V395.68H188.231L193.671 407.15L199.081 395.68H200.721V410.07H199.031V399.59L194.141 410.08H193.191L188.301 399.59V410.08H186.611ZM208.559 410.08V398.69C208.559 398.41 208.572 398.127 208.599 397.84C208.626 397.547 208.686 397.263 208.779 396.99C208.872 396.71 209.026 396.453 209.239 396.22C209.486 395.947 209.756 395.753 210.049 395.64C210.342 395.52 210.639 395.447 210.939 395.42C211.246 395.393 211.536 395.38 211.809 395.38H213.179V396.86H211.909C211.382 396.86 210.989 396.99 210.729 397.25C210.469 397.503 210.339 397.89 210.339 398.41V410.08H208.559ZM206.729 400.75V399.28H213.179V400.75H206.729ZM214.775 410.08V399.28H216.365V401.89L216.105 401.55C216.232 401.217 216.395 400.91 216.595 400.63C216.802 400.35 217.032 400.12 217.285 399.94C217.565 399.713 217.882 399.54 218.235 399.42C218.588 399.3 218.948 399.23 219.315 399.21C219.682 399.183 220.025 399.207 220.345 399.28V400.95C219.972 400.85 219.562 400.823 219.115 400.87C218.668 400.917 218.255 401.08 217.875 401.36C217.528 401.607 217.258 401.907 217.065 402.26C216.878 402.613 216.748 402.997 216.675 403.41C216.602 403.817 216.565 404.233 216.565 404.66V410.08H214.775ZM226.641 410.38C225.567 410.38 224.641 410.137 223.861 409.65C223.087 409.163 222.491 408.49 222.071 407.63C221.651 406.77 221.441 405.783 221.441 404.67C221.441 403.537 221.654 402.543 222.081 401.69C222.507 400.837 223.111 400.173 223.891 399.7C224.671 399.22 225.587 398.98 226.641 398.98C227.721 398.98 228.651 399.223 229.431 399.71C230.211 400.19 230.807 400.86 231.221 401.72C231.641 402.573 231.851 403.557 231.851 404.67C231.851 405.797 231.641 406.79 231.221 407.65C230.801 408.503 230.201 409.173 229.421 409.66C228.641 410.14 227.714 410.38 226.641 410.38ZM226.641 408.69C227.761 408.69 228.594 408.317 229.141 407.57C229.687 406.823 229.961 405.857 229.961 404.67C229.961 403.45 229.684 402.48 229.131 401.76C228.577 401.033 227.747 400.67 226.641 400.67C225.887 400.67 225.267 400.84 224.781 401.18C224.294 401.52 223.931 401.99 223.691 402.59C223.451 403.19 223.331 403.883 223.331 404.67C223.331 405.883 223.611 406.857 224.171 407.59C224.731 408.323 225.554 408.69 226.641 408.69ZM246.962 410.08L246.972 403.17C246.972 402.363 246.756 401.733 246.322 401.28C245.896 400.82 245.339 400.59 244.652 400.59C244.252 400.59 243.872 400.683 243.512 400.87C243.152 401.05 242.859 401.337 242.632 401.73C242.406 402.117 242.292 402.613 242.292 403.22L241.352 402.84C241.339 402.073 241.496 401.403 241.822 400.83C242.156 400.25 242.609 399.8 243.182 399.48C243.756 399.16 244.402 399 245.122 399C246.249 399 247.136 399.343 247.782 400.03C248.429 400.71 248.752 401.627 248.752 402.78L248.742 410.08H246.962ZM234.042 410.08V399.28H235.632V402.17H235.832V410.08H234.042ZM240.512 410.08L240.522 403.24C240.522 402.413 240.309 401.767 239.882 401.3C239.456 400.827 238.889 400.59 238.182 400.59C237.482 400.59 236.916 400.83 236.482 401.31C236.049 401.79 235.832 402.427 235.832 403.22L234.892 402.66C234.892 401.96 235.059 401.333 235.392 400.78C235.726 400.227 236.179 399.793 236.752 399.48C237.326 399.16 237.976 399 238.702 399C239.429 399 240.062 399.153 240.602 399.46C241.142 399.767 241.559 400.207 241.852 400.78C242.146 401.347 242.292 402.023 242.292 402.81L242.282 410.08H240.512ZM251.677 410.08V408.12H253.637V410.08H251.677ZM259.752 410.08L264.572 395.68H267.052L271.872 410.08H270.022L265.512 396.72H266.072L261.602 410.08H259.752ZM262.072 406.71V405.04H269.552V406.71H262.072ZM278.622 410.38C277.608 410.38 276.755 410.13 276.062 409.63C275.368 409.123 274.842 408.44 274.482 407.58C274.128 406.713 273.952 405.743 273.952 404.67C273.952 403.583 274.128 402.61 274.482 401.75C274.842 400.89 275.368 400.213 276.062 399.72C276.762 399.227 277.618 398.98 278.632 398.98C279.632 398.98 280.492 399.23 281.212 399.73C281.938 400.223 282.495 400.9 282.882 401.76C283.268 402.62 283.462 403.59 283.462 404.67C283.462 405.75 283.268 406.72 282.882 407.58C282.495 408.44 281.938 409.123 281.212 409.63C280.492 410.13 279.628 410.38 278.622 410.38ZM273.652 414.88V399.28H275.242V407.23H275.442V414.88H273.652ZM278.402 408.75C279.115 408.75 279.705 408.57 280.172 408.21C280.638 407.85 280.988 407.363 281.222 406.75C281.455 406.13 281.572 405.437 281.572 404.67C281.572 403.91 281.455 403.223 281.222 402.61C280.995 401.997 280.642 401.51 280.162 401.15C279.688 400.79 279.085 400.61 278.352 400.61C277.652 400.61 277.072 400.783 276.612 401.13C276.152 401.47 275.808 401.947 275.582 402.56C275.355 403.167 275.242 403.87 275.242 404.67C275.242 405.457 275.352 406.16 275.572 406.78C275.798 407.393 276.145 407.877 276.612 408.23C277.078 408.577 277.675 408.75 278.402 408.75ZM290.614 410.38C289.601 410.38 288.747 410.13 288.054 409.63C287.361 409.123 286.834 408.44 286.474 407.58C286.121 406.713 285.944 405.743 285.944 404.67C285.944 403.583 286.121 402.61 286.474 401.75C286.834 400.89 287.361 400.213 288.054 399.72C288.754 399.227 289.611 398.98 290.624 398.98C291.624 398.98 292.484 399.23 293.204 399.73C293.931 400.223 294.487 400.9 294.874 401.76C295.261 402.62 295.454 403.59 295.454 404.67C295.454 405.75 295.261 406.72 294.874 407.58C294.487 408.44 293.931 409.123 293.204 409.63C292.484 410.13 291.621 410.38 290.614 410.38ZM285.644 414.88V399.28H287.234V407.23H287.434V414.88H285.644ZM290.394 408.75C291.107 408.75 291.697 408.57 292.164 408.21C292.631 407.85 292.981 407.363 293.214 406.75C293.447 406.13 293.564 405.437 293.564 404.67C293.564 403.91 293.447 403.223 293.214 402.61C292.987 401.997 292.634 401.51 292.154 401.15C291.681 400.79 291.077 400.61 290.344 400.61C289.644 400.61 289.064 400.783 288.604 401.13C288.144 401.47 287.801 401.947 287.574 402.56C287.347 403.167 287.234 403.87 287.234 404.67C287.234 405.457 287.344 406.16 287.564 406.78C287.791 407.393 288.137 407.877 288.604 408.23C289.071 408.577 289.667 408.75 290.394 408.75ZM297.846 410.08V395.38H299.626V410.08H297.846ZM304.127 414.88L306.217 409.2L306.247 410.88L301.527 399.28H303.397L307.097 408.61H306.457L309.927 399.28H311.737L305.857 414.88H304.127ZM317.592 397.37V395.53H319.372V397.37H317.592ZM317.592 410.08V399.28H319.372V410.08H317.592ZM330.063 410.08V404.67C330.063 404.157 330.016 403.663 329.923 403.19C329.836 402.717 329.679 402.293 329.453 401.92C329.233 401.54 328.933 401.24 328.553 401.02C328.179 400.8 327.706 400.69 327.133 400.69C326.686 400.69 326.279 400.767 325.913 400.92C325.553 401.067 325.243 401.293 324.983 401.6C324.723 401.907 324.519 402.293 324.373 402.76C324.233 403.22 324.163 403.763 324.163 404.39L322.993 404.03C322.993 402.983 323.179 402.087 323.553 401.34C323.933 400.587 324.463 400.01 325.143 399.61C325.829 399.203 326.636 399 327.563 399C328.263 399 328.859 399.11 329.353 399.33C329.846 399.55 330.256 399.843 330.583 400.21C330.909 400.57 331.166 400.977 331.353 401.43C331.539 401.877 331.669 402.333 331.743 402.8C331.823 403.26 331.863 403.697 331.863 404.11V410.08H330.063ZM322.363 410.08V399.28H323.963V402.17H324.163V410.08H322.363ZM47.3631 442.08V429.65L44.6531 431.29V429.3L47.3631 427.68H49.1731V442.08H47.3631ZM57.2381 442.38C56.4981 442.38 55.8081 442.227 55.1681 441.92C54.5348 441.613 53.9915 441.193 53.5381 440.66C53.0915 440.12 52.7715 439.5 52.5781 438.8L54.2881 438.34C54.4081 438.813 54.6215 439.223 54.9281 439.57C55.2348 439.91 55.5915 440.177 55.9981 440.37C56.4115 440.557 56.8415 440.65 57.2881 440.65C57.8748 440.65 58.4015 440.51 58.8681 440.23C59.3415 439.943 59.7148 439.567 59.9881 439.1C60.2615 438.627 60.3981 438.11 60.3981 437.55C60.3981 436.97 60.2548 436.447 59.9681 435.98C59.6881 435.507 59.3115 435.133 58.8381 434.86C58.3648 434.587 57.8481 434.45 57.2881 434.45C56.6548 434.45 56.1115 434.583 55.6581 434.85C55.2115 435.11 54.8581 435.43 54.5981 435.81L53.0181 435.21L53.4581 427.68H61.1881V429.37H54.3181L55.1081 428.63L54.7381 434.66L54.3481 434.15C54.7481 433.723 55.2248 433.393 55.7781 433.16C56.3381 432.927 56.9081 432.81 57.4881 432.81C58.3815 432.81 59.1815 433.02 59.8881 433.44C60.5948 433.853 61.1548 434.42 61.5681 435.14C61.9815 435.853 62.1881 436.657 62.1881 437.55C62.1881 438.437 61.9615 439.247 61.5081 439.98C61.0548 440.707 60.4515 441.29 59.6981 441.73C58.9515 442.163 58.1315 442.38 57.2381 442.38ZM81.4936 442.08L81.5036 435.17C81.5036 434.363 81.2869 433.733 80.8536 433.28C80.4269 432.82 79.8703 432.59 79.1836 432.59C78.7836 432.59 78.4036 432.683 78.0436 432.87C77.6836 433.05 77.3903 433.337 77.1636 433.73C76.9369 434.117 76.8236 434.613 76.8236 435.22L75.8836 434.84C75.8703 434.073 76.0269 433.403 76.3536 432.83C76.6869 432.25 77.1403 431.8 77.7136 431.48C78.2869 431.16 78.9336 431 79.6536 431C80.7803 431 81.6669 431.343 82.3136 432.03C82.9603 432.71 83.2836 433.627 83.2836 434.78L83.2736 442.08H81.4936ZM68.5736 442.08V431.28H70.1636V434.17H70.3636V442.08H68.5736ZM75.0436 442.08L75.0536 435.24C75.0536 434.413 74.8403 433.767 74.4136 433.3C73.9869 432.827 73.4203 432.59 72.7136 432.59C72.0136 432.59 71.4469 432.83 71.0136 433.31C70.5803 433.79 70.3636 434.427 70.3636 435.22L69.4236 434.66C69.4236 433.96 69.5903 433.333 69.9236 432.78C70.2569 432.227 70.7103 431.793 71.2836 431.48C71.8569 431.16 72.5069 431 73.2336 431C73.9603 431 74.5936 431.153 75.1336 431.46C75.6736 431.767 76.0903 432.207 76.3836 432.78C76.6769 433.347 76.8236 434.023 76.8236 434.81L76.8136 442.08H75.0436ZM86.0883 429.37V427.53H87.8683V429.37H86.0883ZM86.0883 442.08V431.28H87.8683V442.08H86.0883ZM98.5588 442.08V436.67C98.5588 436.157 98.5121 435.663 98.4188 435.19C98.3321 434.717 98.1754 434.293 97.9488 433.92C97.7288 433.54 97.4288 433.24 97.0488 433.02C96.6754 432.8 96.2021 432.69 95.6288 432.69C95.1821 432.69 94.7754 432.767 94.4088 432.92C94.0488 433.067 93.7388 433.293 93.4788 433.6C93.2188 433.907 93.0154 434.293 92.8688 434.76C92.7288 435.22 92.6588 435.763 92.6588 436.39L91.4888 436.03C91.4888 434.983 91.6754 434.087 92.0488 433.34C92.4288 432.587 92.9588 432.01 93.6388 431.61C94.3254 431.203 95.1321 431 96.0588 431C96.7588 431 97.3554 431.11 97.8488 431.33C98.3421 431.55 98.7521 431.843 99.0788 432.21C99.4054 432.57 99.6621 432.977 99.8488 433.43C100.035 433.877 100.165 434.333 100.239 434.8C100.319 435.26 100.359 435.697 100.359 436.11V442.08H98.5588ZM90.8588 442.08V431.28H92.4588V434.17H92.6588V442.08H90.8588ZM107.059 442.36C106.365 442.36 105.769 442.25 105.269 442.03C104.775 441.81 104.365 441.517 104.039 441.15C103.712 440.783 103.455 440.377 103.269 439.93C103.082 439.483 102.949 439.027 102.869 438.56C102.795 438.093 102.759 437.657 102.759 437.25V431.28H104.559V436.69C104.559 437.197 104.605 437.687 104.699 438.16C104.792 438.633 104.949 439.06 105.169 439.44C105.395 439.82 105.695 440.12 106.069 440.34C106.449 440.56 106.922 440.67 107.489 440.67C107.935 440.67 108.342 440.593 108.709 440.44C109.075 440.287 109.389 440.06 109.649 439.76C109.909 439.453 110.109 439.067 110.249 438.6C110.389 438.133 110.459 437.59 110.459 436.97L111.629 437.33C111.629 438.37 111.439 439.267 111.059 440.02C110.685 440.773 110.155 441.353 109.469 441.76C108.789 442.16 107.985 442.36 107.059 442.36ZM110.659 442.08V439.19H110.459V431.28H112.249V442.08H110.659ZM121.078 442.08C120.438 442.207 119.805 442.257 119.178 442.23C118.558 442.21 118.005 442.087 117.518 441.86C117.032 441.627 116.662 441.267 116.408 440.78C116.195 440.353 116.078 439.923 116.058 439.49C116.045 439.05 116.038 438.553 116.038 438V428.28H117.818V437.92C117.818 438.36 117.822 438.737 117.828 439.05C117.842 439.363 117.912 439.633 118.038 439.86C118.278 440.287 118.658 440.537 119.178 440.61C119.705 440.683 120.338 440.663 121.078 440.55V442.08ZM113.848 432.75V431.28H121.078V432.75H113.848ZM127.502 442.38C126.442 442.38 125.515 442.147 124.722 441.68C123.935 441.207 123.322 440.55 122.882 439.71C122.442 438.863 122.222 437.877 122.222 436.75C122.222 435.57 122.439 434.55 122.872 433.69C123.305 432.823 123.909 432.157 124.682 431.69C125.462 431.217 126.375 430.98 127.422 430.98C128.509 430.98 129.432 431.23 130.192 431.73C130.959 432.23 131.532 432.943 131.912 433.87C132.299 434.797 132.465 435.9 132.412 437.18H130.612V436.54C130.592 435.213 130.322 434.223 129.802 433.57C129.282 432.91 128.509 432.58 127.482 432.58C126.382 432.58 125.545 432.933 124.972 433.64C124.399 434.347 124.112 435.36 124.112 436.68C124.112 437.953 124.399 438.94 124.972 439.64C125.545 440.34 126.362 440.69 127.422 440.69C128.135 440.69 128.755 440.527 129.282 440.2C129.809 439.873 130.222 439.403 130.522 438.79L132.232 439.38C131.812 440.333 131.179 441.073 130.332 441.6C129.492 442.12 128.549 442.38 127.502 442.38ZM123.512 437.18V435.75H131.492V437.18H123.512ZM138.718 442.37C137.432 442.37 136.375 442.09 135.548 441.53C134.728 440.963 134.225 440.173 134.038 439.16L135.858 438.87C136.005 439.457 136.342 439.923 136.868 440.27C137.395 440.61 138.048 440.78 138.828 440.78C139.568 440.78 140.148 440.627 140.568 440.32C140.988 440.013 141.198 439.597 141.198 439.07C141.198 438.763 141.128 438.517 140.988 438.33C140.848 438.137 140.558 437.957 140.118 437.79C139.685 437.623 139.028 437.423 138.148 437.19C137.195 436.937 136.445 436.673 135.898 436.4C135.352 436.127 134.962 435.81 134.728 435.45C134.495 435.09 134.378 434.653 134.378 434.14C134.378 433.507 134.552 432.953 134.898 432.48C135.245 432 135.728 431.63 136.348 431.37C136.975 431.11 137.702 430.98 138.528 430.98C139.348 430.98 140.082 431.11 140.728 431.37C141.375 431.63 141.895 432 142.288 432.48C142.688 432.953 142.925 433.507 142.998 434.14L141.178 434.47C141.092 433.89 140.812 433.433 140.338 433.1C139.872 432.767 139.268 432.59 138.528 432.57C137.828 432.543 137.258 432.667 136.818 432.94C136.385 433.213 136.168 433.583 136.168 434.05C136.168 434.31 136.248 434.533 136.408 434.72C136.575 434.907 136.878 435.083 137.318 435.25C137.765 435.417 138.412 435.607 139.258 435.82C140.212 436.06 140.962 436.323 141.508 436.61C142.062 436.89 142.455 437.223 142.688 437.61C142.922 437.99 143.038 438.46 143.038 439.02C143.038 440.06 142.655 440.88 141.888 441.48C141.122 442.073 140.065 442.37 138.718 442.37ZM152.318 442.38C151.511 442.38 150.834 442.233 150.288 441.94C149.748 441.64 149.338 441.247 149.058 440.76C148.784 440.273 148.648 439.74 148.648 439.16C148.648 438.593 148.754 438.103 148.968 437.69C149.188 437.27 149.494 436.923 149.888 436.65C150.281 436.37 150.751 436.15 151.298 435.99C151.811 435.85 152.384 435.73 153.018 435.63C153.658 435.523 154.304 435.427 154.958 435.34C155.611 435.253 156.221 435.17 156.788 435.09L156.148 435.46C156.168 434.5 155.974 433.79 155.568 433.33C155.168 432.87 154.474 432.64 153.488 432.64C152.834 432.64 152.261 432.79 151.768 433.09C151.281 433.383 150.938 433.863 150.738 434.53L149.048 434.02C149.308 433.073 149.811 432.33 150.558 431.79C151.304 431.25 152.288 430.98 153.508 430.98C154.488 430.98 155.328 431.157 156.028 431.51C156.734 431.857 157.241 432.383 157.548 433.09C157.701 433.423 157.798 433.787 157.838 434.18C157.878 434.567 157.898 434.973 157.898 435.4V442.08H156.318V439.49L156.688 439.73C156.281 440.603 155.711 441.263 154.978 441.71C154.251 442.157 153.364 442.38 152.318 442.38ZM152.588 440.89C153.228 440.89 153.781 440.777 154.248 440.55C154.721 440.317 155.101 440.013 155.388 439.64C155.674 439.26 155.861 438.847 155.948 438.4C156.048 438.067 156.101 437.697 156.108 437.29C156.121 436.877 156.128 436.56 156.128 436.34L156.748 436.61C156.168 436.69 155.598 436.767 155.038 436.84C154.478 436.913 153.948 436.993 153.448 437.08C152.948 437.16 152.498 437.257 152.098 437.37C151.804 437.463 151.528 437.583 151.268 437.73C151.014 437.877 150.808 438.067 150.648 438.3C150.494 438.527 150.418 438.81 150.418 439.15C150.418 439.443 150.491 439.723 150.638 439.99C150.791 440.257 151.024 440.473 151.338 440.64C151.658 440.807 152.074 440.89 152.588 440.89ZM168.188 442.08V436.67C168.188 436.157 168.141 435.663 168.048 435.19C167.961 434.717 167.804 434.293 167.578 433.92C167.358 433.54 167.058 433.24 166.678 433.02C166.304 432.8 165.831 432.69 165.258 432.69C164.811 432.69 164.404 432.767 164.038 432.92C163.678 433.067 163.368 433.293 163.108 433.6C162.848 433.907 162.644 434.293 162.498 434.76C162.358 435.22 162.288 435.763 162.288 436.39L161.118 436.03C161.118 434.983 161.304 434.087 161.678 433.34C162.058 432.587 162.588 432.01 163.268 431.61C163.954 431.203 164.761 431 165.688 431C166.388 431 166.984 431.11 167.478 431.33C167.971 431.55 168.381 431.843 168.708 432.21C169.034 432.57 169.291 432.977 169.478 433.43C169.664 433.877 169.794 434.333 169.868 434.8C169.948 435.26 169.988 435.697 169.988 436.11V442.08H168.188ZM160.488 442.08V431.28H162.088V434.17H162.288V442.08H160.488ZM176.73 442.38C175.723 442.38 174.86 442.13 174.14 441.63C173.42 441.123 172.863 440.44 172.47 439.58C172.083 438.72 171.89 437.75 171.89 436.67C171.89 435.59 172.083 434.62 172.47 433.76C172.863 432.9 173.42 432.223 174.14 431.73C174.86 431.23 175.72 430.98 176.72 430.98C177.74 430.98 178.597 431.227 179.29 431.72C179.983 432.213 180.507 432.89 180.86 433.75C181.22 434.61 181.4 435.583 181.4 436.67C181.4 437.743 181.22 438.713 180.86 439.58C180.507 440.44 179.983 441.123 179.29 441.63C178.597 442.13 177.743 442.38 176.73 442.38ZM176.95 440.75C177.677 440.75 178.273 440.577 178.74 440.23C179.207 439.877 179.55 439.393 179.77 438.78C179.997 438.16 180.11 437.457 180.11 436.67C180.11 435.87 179.997 435.167 179.77 434.56C179.55 433.947 179.21 433.47 178.75 433.13C178.29 432.783 177.707 432.61 177 432.61C176.267 432.61 175.66 432.79 175.18 433.15C174.707 433.51 174.353 433.997 174.12 434.61C173.893 435.223 173.78 435.91 173.78 436.67C173.78 437.437 173.897 438.13 174.13 438.75C174.363 439.363 174.713 439.85 175.18 440.21C175.653 440.57 176.243 440.75 176.95 440.75ZM180.11 442.08V434.13H179.91V427.68H181.7V442.08H180.11ZM190.005 446.88L192.095 441.2L192.125 442.88L187.405 431.28H189.275L192.975 440.61H192.335L195.805 431.28H197.615L191.735 446.88H190.005ZM203.477 442.38C202.403 442.38 201.477 442.137 200.697 441.65C199.923 441.163 199.327 440.49 198.907 439.63C198.487 438.77 198.277 437.783 198.277 436.67C198.277 435.537 198.49 434.543 198.917 433.69C199.343 432.837 199.947 432.173 200.727 431.7C201.507 431.22 202.423 430.98 203.477 430.98C204.557 430.98 205.487 431.223 206.267 431.71C207.047 432.19 207.643 432.86 208.057 433.72C208.477 434.573 208.687 435.557 208.687 436.67C208.687 437.797 208.477 438.79 208.057 439.65C207.637 440.503 207.037 441.173 206.257 441.66C205.477 442.14 204.55 442.38 203.477 442.38ZM203.477 440.69C204.597 440.69 205.43 440.317 205.977 439.57C206.523 438.823 206.797 437.857 206.797 436.67C206.797 435.45 206.52 434.48 205.967 433.76C205.413 433.033 204.583 432.67 203.477 432.67C202.723 432.67 202.103 432.84 201.617 433.18C201.13 433.52 200.767 433.99 200.527 434.59C200.287 435.19 200.167 435.883 200.167 436.67C200.167 437.883 200.447 438.857 201.007 439.59C201.567 440.323 202.39 440.69 203.477 440.69ZM214.988 442.36C214.295 442.36 213.698 442.25 213.198 442.03C212.705 441.81 212.295 441.517 211.968 441.15C211.642 440.783 211.385 440.377 211.198 439.93C211.012 439.483 210.878 439.027 210.798 438.56C210.725 438.093 210.688 437.657 210.688 437.25V431.28H212.488V436.69C212.488 437.197 212.535 437.687 212.628 438.16C212.722 438.633 212.878 439.06 213.098 439.44C213.325 439.82 213.625 440.12 213.998 440.34C214.378 440.56 214.852 440.67 215.418 440.67C215.865 440.67 216.272 440.593 216.638 440.44C217.005 440.287 217.318 440.06 217.578 439.76C217.838 439.453 218.038 439.067 218.178 438.6C218.318 438.133 218.388 437.59 218.388 436.97L219.558 437.33C219.558 438.37 219.368 439.267 218.988 440.02C218.615 440.773 218.085 441.353 217.398 441.76C216.718 442.16 215.915 442.36 214.988 442.36ZM218.588 442.08V439.19H218.388V431.28H220.178V442.08H218.588ZM223.078 432.18L223.188 431.35C223.468 431.37 223.678 431.317 223.818 431.19C223.958 431.063 224.048 430.89 224.088 430.67C224.128 430.45 224.135 430.207 224.108 429.94H223.078V427.68H225.038V430.24C225.038 430.94 224.865 431.467 224.518 431.82C224.178 432.173 223.698 432.293 223.078 432.18ZM228.627 442.08V427.38H230.407V442.08H228.627ZM233.608 442.08V427.38H235.388V442.08H233.608ZM242.392 442.08V431.28H243.982V433.89L243.722 433.55C243.849 433.217 244.012 432.91 244.212 432.63C244.419 432.35 244.649 432.12 244.902 431.94C245.182 431.713 245.499 431.54 245.852 431.42C246.206 431.3 246.566 431.23 246.932 431.21C247.299 431.183 247.642 431.207 247.962 431.28V432.95C247.589 432.85 247.179 432.823 246.732 432.87C246.286 432.917 245.872 433.08 245.492 433.36C245.146 433.607 244.876 433.907 244.682 434.26C244.496 434.613 244.366 434.997 244.292 435.41C244.219 435.817 244.182 436.233 244.182 436.66V442.08H242.392ZM254.338 442.38C253.278 442.38 252.351 442.147 251.558 441.68C250.771 441.207 250.158 440.55 249.718 439.71C249.278 438.863 249.058 437.877 249.058 436.75C249.058 435.57 249.274 434.55 249.708 433.69C250.141 432.823 250.744 432.157 251.518 431.69C252.298 431.217 253.211 430.98 254.258 430.98C255.344 430.98 256.268 431.23 257.028 431.73C257.794 432.23 258.368 432.943 258.748 433.87C259.134 434.797 259.301 435.9 259.248 437.18H257.448V436.54C257.428 435.213 257.158 434.223 256.638 433.57C256.118 432.91 255.344 432.58 254.318 432.58C253.218 432.58 252.381 432.933 251.808 433.64C251.234 434.347 250.948 435.36 250.948 436.68C250.948 437.953 251.234 438.94 251.808 439.64C252.381 440.34 253.198 440.69 254.258 440.69C254.971 440.69 255.591 440.527 256.118 440.2C256.644 439.873 257.058 439.403 257.358 438.79L259.068 439.38C258.648 440.333 258.014 441.073 257.168 441.6C256.328 442.12 255.384 442.38 254.338 442.38ZM250.348 437.18V435.75H258.328V437.18H250.348ZM266.024 442.38C264.931 442.38 264.001 442.137 263.234 441.65C262.474 441.157 261.894 440.48 261.494 439.62C261.094 438.76 260.888 437.78 260.874 436.68C260.888 435.553 261.098 434.563 261.504 433.71C261.918 432.85 262.508 432.18 263.274 431.7C264.041 431.22 264.964 430.98 266.044 430.98C267.184 430.98 268.164 431.26 268.984 431.82C269.811 432.38 270.364 433.147 270.644 434.12L268.884 434.65C268.658 434.023 268.288 433.537 267.774 433.19C267.268 432.843 266.684 432.67 266.024 432.67C265.284 432.67 264.674 432.843 264.194 433.19C263.714 433.53 263.358 434.003 263.124 434.61C262.891 435.21 262.771 435.9 262.764 436.68C262.778 437.88 263.054 438.85 263.594 439.59C264.141 440.323 264.951 440.69 266.024 440.69C266.731 440.69 267.318 440.53 267.784 440.21C268.251 439.883 268.604 439.413 268.844 438.8L270.644 439.27C270.271 440.277 269.688 441.047 268.894 441.58C268.101 442.113 267.144 442.38 266.024 442.38ZM272.592 429.37V427.53H274.372V429.37H272.592ZM272.592 442.08V431.28H274.372V442.08H272.592ZM282.053 442.38C280.993 442.38 280.066 442.147 279.273 441.68C278.486 441.207 277.873 440.55 277.433 439.71C276.993 438.863 276.773 437.877 276.773 436.75C276.773 435.57 276.989 434.55 277.423 433.69C277.856 432.823 278.459 432.157 279.233 431.69C280.013 431.217 280.926 430.98 281.973 430.98C283.059 430.98 283.983 431.23 284.743 431.73C285.509 432.23 286.083 432.943 286.463 433.87C286.849 434.797 287.016 435.9 286.963 437.18H285.163V436.54C285.143 435.213 284.873 434.223 284.353 433.57C283.833 432.91 283.059 432.58 282.033 432.58C280.933 432.58 280.096 432.933 279.523 433.64C278.949 434.347 278.663 435.36 278.663 436.68C278.663 437.953 278.949 438.94 279.523 439.64C280.096 440.34 280.913 440.69 281.973 440.69C282.686 440.69 283.306 440.527 283.833 440.2C284.359 439.873 284.773 439.403 285.073 438.79L286.783 439.38C286.363 440.333 285.729 441.073 284.883 441.6C284.043 442.12 283.099 442.38 282.053 442.38ZM278.063 437.18V435.75H286.043V437.18H278.063ZM291.718 442.08L287.798 431.28H289.598L292.628 439.81L295.648 431.28H297.458L293.538 442.08H291.718ZM303.557 442.38C302.497 442.38 301.57 442.147 300.777 441.68C299.99 441.207 299.377 440.55 298.937 439.71C298.497 438.863 298.277 437.877 298.277 436.75C298.277 435.57 298.493 434.55 298.927 433.69C299.36 432.823 299.963 432.157 300.737 431.69C301.517 431.217 302.43 430.98 303.477 430.98C304.563 430.98 305.487 431.23 306.247 431.73C307.013 432.23 307.587 432.943 307.967 433.87C308.353 434.797 308.52 435.9 308.467 437.18H306.667V436.54C306.647 435.213 306.377 434.223 305.857 433.57C305.337 432.91 304.563 432.58 303.537 432.58C302.437 432.58 301.6 432.933 301.027 433.64C300.453 434.347 300.167 435.36 300.167 436.68C300.167 437.953 300.453 438.94 301.027 439.64C301.6 440.34 302.417 440.69 303.477 440.69C304.19 440.69 304.81 440.527 305.337 440.2C305.863 439.873 306.277 439.403 306.577 438.79L308.287 439.38C307.867 440.333 307.233 441.073 306.387 441.6C305.547 442.12 304.603 442.38 303.557 442.38ZM299.567 437.18V435.75H307.547V437.18H299.567ZM317.767 442.38C316.96 442.38 316.284 442.233 315.737 441.94C315.197 441.64 314.787 441.247 314.507 440.76C314.234 440.273 314.097 439.74 314.097 439.16C314.097 438.593 314.204 438.103 314.417 437.69C314.637 437.27 314.944 436.923 315.337 436.65C315.73 436.37 316.2 436.15 316.747 435.99C317.26 435.85 317.834 435.73 318.467 435.63C319.107 435.523 319.754 435.427 320.407 435.34C321.06 435.253 321.67 435.17 322.237 435.09L321.597 435.46C321.617 434.5 321.424 433.79 321.017 433.33C320.617 432.87 319.924 432.64 318.937 432.64C318.284 432.64 317.71 432.79 317.217 433.09C316.73 433.383 316.387 433.863 316.187 434.53L314.497 434.02C314.757 433.073 315.26 432.33 316.007 431.79C316.754 431.25 317.737 430.98 318.957 430.98C319.937 430.98 320.777 431.157 321.477 431.51C322.184 431.857 322.69 432.383 322.997 433.09C323.15 433.423 323.247 433.787 323.287 434.18C323.327 434.567 323.347 434.973 323.347 435.4V442.08H321.767V439.49L322.137 439.73C321.73 440.603 321.16 441.263 320.427 441.71C319.7 442.157 318.814 442.38 317.767 442.38ZM318.037 440.89C318.677 440.89 319.23 440.777 319.697 440.55C320.17 440.317 320.55 440.013 320.837 439.64C321.124 439.26 321.31 438.847 321.397 438.4C321.497 438.067 321.55 437.697 321.557 437.29C321.57 436.877 321.577 436.56 321.577 436.34L322.197 436.61C321.617 436.69 321.047 436.767 320.487 436.84C319.927 436.913 319.397 436.993 318.897 437.08C318.397 437.16 317.947 437.257 317.547 437.37C317.254 437.463 316.977 437.583 316.717 437.73C316.464 437.877 316.257 438.067 316.097 438.3C315.944 438.527 315.867 438.81 315.867 439.15C315.867 439.443 315.94 439.723 316.087 439.99C316.24 440.257 316.474 440.473 316.787 440.64C317.107 440.807 317.524 440.89 318.037 440.89ZM63.9369 474.38C62.9302 474.38 62.0669 474.13 61.3469 473.63C60.6269 473.123 60.0702 472.44 59.6769 471.58C59.2902 470.72 59.0969 469.75 59.0969 468.67C59.0969 467.59 59.2902 466.62 59.6769 465.76C60.0702 464.9 60.6269 464.223 61.3469 463.73C62.0669 463.23 62.9269 462.98 63.9269 462.98C64.9469 462.98 65.8035 463.227 66.4969 463.72C67.1902 464.213 67.7135 464.89 68.0669 465.75C68.4269 466.61 68.6069 467.583 68.6069 468.67C68.6069 469.743 68.4269 470.713 68.0669 471.58C67.7135 472.44 67.1902 473.123 66.4969 473.63C65.8035 474.13 64.9502 474.38 63.9369 474.38ZM64.1569 472.75C64.8835 472.75 65.4802 472.577 65.9469 472.23C66.4135 471.877 66.7569 471.393 66.9769 470.78C67.2035 470.16 67.3169 469.457 67.3169 468.67C67.3169 467.87 67.2035 467.167 66.9769 466.56C66.7569 465.947 66.4169 465.47 65.9569 465.13C65.4969 464.783 64.9135 464.61 64.2069 464.61C63.4735 464.61 62.8669 464.79 62.3869 465.15C61.9135 465.51 61.5602 465.997 61.3269 466.61C61.1002 467.223 60.9869 467.91 60.9869 468.67C60.9869 469.437 61.1035 470.13 61.3369 470.75C61.5702 471.363 61.9202 471.85 62.3869 472.21C62.8602 472.57 63.4502 472.75 64.1569 472.75ZM67.3169 474.08V466.13H67.1169V459.68H68.9069V474.08H67.3169ZM76.3886 474.38C75.3286 474.38 74.4019 474.147 73.6086 473.68C72.8219 473.207 72.2086 472.55 71.7686 471.71C71.3286 470.863 71.1086 469.877 71.1086 468.75C71.1086 467.57 71.3253 466.55 71.7586 465.69C72.1919 464.823 72.7953 464.157 73.5686 463.69C74.3486 463.217 75.2619 462.98 76.3086 462.98C77.3953 462.98 78.3186 463.23 79.0786 463.73C79.8453 464.23 80.4186 464.943 80.7986 465.87C81.1853 466.797 81.3519 467.9 81.2986 469.18H79.4986V468.54C79.4786 467.213 79.2086 466.223 78.6886 465.57C78.1686 464.91 77.3953 464.58 76.3686 464.58C75.2686 464.58 74.4319 464.933 73.8586 465.64C73.2853 466.347 72.9986 467.36 72.9986 468.68C72.9986 469.953 73.2853 470.94 73.8586 471.64C74.4319 472.34 75.2486 472.69 76.3086 472.69C77.0219 472.69 77.6419 472.527 78.1686 472.2C78.6953 471.873 79.1086 471.403 79.4086 470.79L81.1186 471.38C80.6986 472.333 80.0653 473.073 79.2186 473.6C78.3786 474.12 77.4353 474.38 76.3886 474.38ZM72.3986 469.18V467.75H80.3786V469.18H72.3986ZM88.075 474.38C86.9817 474.38 86.0517 474.137 85.285 473.65C84.525 473.157 83.945 472.48 83.545 471.62C83.145 470.76 82.9383 469.78 82.925 468.68C82.9383 467.553 83.1483 466.563 83.555 465.71C83.9683 464.85 84.5583 464.18 85.325 463.7C86.0917 463.22 87.015 462.98 88.095 462.98C89.235 462.98 90.215 463.26 91.035 463.82C91.8617 464.38 92.415 465.147 92.695 466.12L90.935 466.65C90.7083 466.023 90.3383 465.537 89.825 465.19C89.3183 464.843 88.735 464.67 88.075 464.67C87.335 464.67 86.725 464.843 86.245 465.19C85.765 465.53 85.4083 466.003 85.175 466.61C84.9417 467.21 84.8217 467.9 84.815 468.68C84.8283 469.88 85.105 470.85 85.645 471.59C86.1917 472.323 87.0017 472.69 88.075 472.69C88.7817 472.69 89.3683 472.53 89.835 472.21C90.3017 471.883 90.655 471.413 90.895 470.8L92.695 471.27C92.3217 472.277 91.7383 473.047 90.945 473.58C90.1517 474.113 89.195 474.38 88.075 474.38ZM94.643 461.37V459.53H96.423V461.37H94.643ZM94.643 474.08V463.28H96.423V474.08H94.643ZM103.503 474.37C102.217 474.37 101.16 474.09 100.333 473.53C99.5134 472.963 99.0101 472.173 98.8234 471.16L100.643 470.87C100.79 471.457 101.127 471.923 101.653 472.27C102.18 472.61 102.833 472.78 103.613 472.78C104.353 472.78 104.933 472.627 105.353 472.32C105.773 472.013 105.983 471.597 105.983 471.07C105.983 470.763 105.913 470.517 105.773 470.33C105.633 470.137 105.343 469.957 104.903 469.79C104.47 469.623 103.813 469.423 102.933 469.19C101.98 468.937 101.23 468.673 100.683 468.4C100.137 468.127 99.7468 467.81 99.5134 467.45C99.2801 467.09 99.1634 466.653 99.1634 466.14C99.1634 465.507 99.3368 464.953 99.6834 464.48C100.03 464 100.513 463.63 101.133 463.37C101.76 463.11 102.487 462.98 103.313 462.98C104.133 462.98 104.867 463.11 105.513 463.37C106.16 463.63 106.68 464 107.073 464.48C107.473 464.953 107.71 465.507 107.783 466.14L105.963 466.47C105.877 465.89 105.597 465.433 105.123 465.1C104.657 464.767 104.053 464.59 103.313 464.57C102.613 464.543 102.043 464.667 101.603 464.94C101.17 465.213 100.953 465.583 100.953 466.05C100.953 466.31 101.033 466.533 101.193 466.72C101.36 466.907 101.663 467.083 102.103 467.25C102.55 467.417 103.197 467.607 104.043 467.82C104.997 468.06 105.747 468.323 106.293 468.61C106.847 468.89 107.24 469.223 107.473 469.61C107.707 469.99 107.823 470.46 107.823 471.02C107.823 472.06 107.44 472.88 106.673 473.48C105.907 474.073 104.85 474.37 103.503 474.37ZM110.229 461.37V459.53H112.009V461.37H110.229ZM110.229 474.08V463.28H112.009V474.08H110.229ZM119.609 474.38C118.536 474.38 117.609 474.137 116.829 473.65C116.056 473.163 115.459 472.49 115.039 471.63C114.619 470.77 114.409 469.783 114.409 468.67C114.409 467.537 114.623 466.543 115.049 465.69C115.476 464.837 116.079 464.173 116.859 463.7C117.639 463.22 118.556 462.98 119.609 462.98C120.689 462.98 121.619 463.223 122.399 463.71C123.179 464.19 123.776 464.86 124.189 465.72C124.609 466.573 124.819 467.557 124.819 468.67C124.819 469.797 124.609 470.79 124.189 471.65C123.769 472.503 123.169 473.173 122.389 473.66C121.609 474.14 120.683 474.38 119.609 474.38ZM119.609 472.69C120.729 472.69 121.563 472.317 122.109 471.57C122.656 470.823 122.929 469.857 122.929 468.67C122.929 467.45 122.653 466.48 122.099 465.76C121.546 465.033 120.716 464.67 119.609 464.67C118.856 464.67 118.236 464.84 117.749 465.18C117.263 465.52 116.899 465.99 116.659 466.59C116.419 467.19 116.299 467.883 116.299 468.67C116.299 469.883 116.579 470.857 117.139 471.59C117.699 472.323 118.523 472.69 119.609 472.69ZM134.711 474.08V468.67C134.711 468.157 134.664 467.663 134.571 467.19C134.484 466.717 134.328 466.293 134.101 465.92C133.881 465.54 133.581 465.24 133.201 465.02C132.828 464.8 132.354 464.69 131.781 464.69C131.334 464.69 130.928 464.767 130.561 464.92C130.201 465.067 129.891 465.293 129.631 465.6C129.371 465.907 129.168 466.293 129.021 466.76C128.881 467.22 128.811 467.763 128.811 468.39L127.641 468.03C127.641 466.983 127.828 466.087 128.201 465.34C128.581 464.587 129.111 464.01 129.791 463.61C130.478 463.203 131.284 463 132.211 463C132.911 463 133.508 463.11 134.001 463.33C134.494 463.55 134.904 463.843 135.231 464.21C135.558 464.57 135.814 464.977 136.001 465.43C136.188 465.877 136.318 466.333 136.391 466.8C136.471 467.26 136.511 467.697 136.511 468.11V474.08H134.711ZM127.011 474.08V463.28H128.611V466.17H128.811V474.08H127.011ZM146.185 474.38C145.378 474.38 144.702 474.233 144.155 473.94C143.615 473.64 143.205 473.247 142.925 472.76C142.652 472.273 142.515 471.74 142.515 471.16C142.515 470.593 142.622 470.103 142.835 469.69C143.055 469.27 143.362 468.923 143.755 468.65C144.148 468.37 144.618 468.15 145.165 467.99C145.678 467.85 146.252 467.73 146.885 467.63C147.525 467.523 148.172 467.427 148.825 467.34C149.478 467.253 150.088 467.17 150.655 467.09L150.015 467.46C150.035 466.5 149.842 465.79 149.435 465.33C149.035 464.87 148.342 464.64 147.355 464.64C146.702 464.64 146.128 464.79 145.635 465.09C145.148 465.383 144.805 465.863 144.605 466.53L142.915 466.02C143.175 465.073 143.678 464.33 144.425 463.79C145.172 463.25 146.155 462.98 147.375 462.98C148.355 462.98 149.195 463.157 149.895 463.51C150.602 463.857 151.108 464.383 151.415 465.09C151.568 465.423 151.665 465.787 151.705 466.18C151.745 466.567 151.765 466.973 151.765 467.4V474.08H150.185V471.49L150.555 471.73C150.148 472.603 149.578 473.263 148.845 473.71C148.118 474.157 147.232 474.38 146.185 474.38ZM146.455 472.89C147.095 472.89 147.648 472.777 148.115 472.55C148.588 472.317 148.968 472.013 149.255 471.64C149.542 471.26 149.728 470.847 149.815 470.4C149.915 470.067 149.968 469.697 149.975 469.29C149.988 468.877 149.995 468.56 149.995 468.34L150.615 468.61C150.035 468.69 149.465 468.767 148.905 468.84C148.345 468.913 147.815 468.993 147.315 469.08C146.815 469.16 146.365 469.257 145.965 469.37C145.672 469.463 145.395 469.583 145.135 469.73C144.882 469.877 144.675 470.067 144.515 470.3C144.362 470.527 144.285 470.81 144.285 471.15C144.285 471.443 144.358 471.723 144.505 471.99C144.658 472.257 144.892 472.473 145.205 472.64C145.525 472.807 145.942 472.89 146.455 472.89ZM158.445 474.37C157.158 474.37 156.102 474.09 155.275 473.53C154.455 472.963 153.952 472.173 153.765 471.16L155.585 470.87C155.732 471.457 156.068 471.923 156.595 472.27C157.122 472.61 157.775 472.78 158.555 472.78C159.295 472.78 159.875 472.627 160.295 472.32C160.715 472.013 160.925 471.597 160.925 471.07C160.925 470.763 160.855 470.517 160.715 470.33C160.575 470.137 160.285 469.957 159.845 469.79C159.412 469.623 158.755 469.423 157.875 469.19C156.922 468.937 156.172 468.673 155.625 468.4C155.078 468.127 154.688 467.81 154.455 467.45C154.222 467.09 154.105 466.653 154.105 466.14C154.105 465.507 154.278 464.953 154.625 464.48C154.972 464 155.455 463.63 156.075 463.37C156.702 463.11 157.428 462.98 158.255 462.98C159.075 462.98 159.808 463.11 160.455 463.37C161.102 463.63 161.622 464 162.015 464.48C162.415 464.953 162.652 465.507 162.725 466.14L160.905 466.47C160.818 465.89 160.538 465.433 160.065 465.1C159.598 464.767 158.995 464.59 158.255 464.57C157.555 464.543 156.985 464.667 156.545 464.94C156.112 465.213 155.895 465.583 155.895 466.05C155.895 466.31 155.975 466.533 156.135 466.72C156.302 466.907 156.605 467.083 157.045 467.25C157.492 467.417 158.138 467.607 158.985 467.82C159.938 468.06 160.688 468.323 161.235 468.61C161.788 468.89 162.182 469.223 162.415 469.61C162.648 469.99 162.765 470.46 162.765 471.02C162.765 472.06 162.382 472.88 161.615 473.48C160.848 474.073 159.792 474.37 158.445 474.37ZM173.054 474.37C171.768 474.37 170.711 474.09 169.884 473.53C169.064 472.963 168.561 472.173 168.374 471.16L170.194 470.87C170.341 471.457 170.678 471.923 171.204 472.27C171.731 472.61 172.384 472.78 173.164 472.78C173.904 472.78 174.484 472.627 174.904 472.32C175.324 472.013 175.534 471.597 175.534 471.07C175.534 470.763 175.464 470.517 175.324 470.33C175.184 470.137 174.894 469.957 174.454 469.79C174.021 469.623 173.364 469.423 172.484 469.19C171.531 468.937 170.781 468.673 170.234 468.4C169.688 468.127 169.298 467.81 169.064 467.45C168.831 467.09 168.714 466.653 168.714 466.14C168.714 465.507 168.888 464.953 169.234 464.48C169.581 464 170.064 463.63 170.684 463.37C171.311 463.11 172.038 462.98 172.864 462.98C173.684 462.98 174.418 463.11 175.064 463.37C175.711 463.63 176.231 464 176.624 464.48C177.024 464.953 177.261 465.507 177.334 466.14L175.514 466.47C175.428 465.89 175.148 465.433 174.674 465.1C174.208 464.767 173.604 464.59 172.864 464.57C172.164 464.543 171.594 464.667 171.154 464.94C170.721 465.213 170.504 465.583 170.504 466.05C170.504 466.31 170.584 466.533 170.744 466.72C170.911 466.907 171.214 467.083 171.654 467.25C172.101 467.417 172.748 467.607 173.594 467.82C174.548 468.06 175.298 468.323 175.844 468.61C176.398 468.89 176.791 469.223 177.024 469.61C177.258 469.99 177.374 470.46 177.374 471.02C177.374 472.06 176.991 472.88 176.224 473.48C175.458 474.073 174.401 474.37 173.054 474.37ZM184.18 474.38C183.106 474.38 182.18 474.137 181.4 473.65C180.626 473.163 180.03 472.49 179.61 471.63C179.19 470.77 178.98 469.783 178.98 468.67C178.98 467.537 179.193 466.543 179.62 465.69C180.046 464.837 180.65 464.173 181.43 463.7C182.21 463.22 183.126 462.98 184.18 462.98C185.26 462.98 186.19 463.223 186.97 463.71C187.75 464.19 188.346 464.86 188.76 465.72C189.18 466.573 189.39 467.557 189.39 468.67C189.39 469.797 189.18 470.79 188.76 471.65C188.34 472.503 187.74 473.173 186.96 473.66C186.18 474.14 185.253 474.38 184.18 474.38ZM184.18 472.69C185.3 472.69 186.133 472.317 186.68 471.57C187.226 470.823 187.5 469.857 187.5 468.67C187.5 467.45 187.223 466.48 186.67 465.76C186.116 465.033 185.286 464.67 184.18 464.67C183.426 464.67 182.806 464.84 182.32 465.18C181.833 465.52 181.47 465.99 181.23 466.59C180.99 467.19 180.87 467.883 180.87 468.67C180.87 469.883 181.15 470.857 181.71 471.59C182.27 472.323 183.093 472.69 184.18 472.69ZM196.191 474.38C195.118 474.38 194.191 474.137 193.411 473.65C192.638 473.163 192.041 472.49 191.621 471.63C191.201 470.77 190.991 469.783 190.991 468.67C190.991 467.537 191.205 466.543 191.631 465.69C192.058 464.837 192.661 464.173 193.441 463.7C194.221 463.22 195.138 462.98 196.191 462.98C197.271 462.98 198.201 463.223 198.981 463.71C199.761 464.19 200.358 464.86 200.771 465.72C201.191 466.573 201.401 467.557 201.401 468.67C201.401 469.797 201.191 470.79 200.771 471.65C200.351 472.503 199.751 473.173 198.971 473.66C198.191 474.14 197.265 474.38 196.191 474.38ZM196.191 472.69C197.311 472.69 198.145 472.317 198.691 471.57C199.238 470.823 199.511 469.857 199.511 468.67C199.511 467.45 199.235 466.48 198.681 465.76C198.128 465.033 197.298 464.67 196.191 464.67C195.438 464.67 194.818 464.84 194.331 465.18C193.845 465.52 193.481 465.99 193.241 466.59C193.001 467.19 192.881 467.883 192.881 468.67C192.881 469.883 193.161 470.857 193.721 471.59C194.281 472.323 195.105 472.69 196.191 472.69ZM211.293 474.08V468.67C211.293 468.157 211.246 467.663 211.153 467.19C211.066 466.717 210.91 466.293 210.683 465.92C210.463 465.54 210.163 465.24 209.783 465.02C209.41 464.8 208.936 464.69 208.363 464.69C207.916 464.69 207.51 464.767 207.143 464.92C206.783 465.067 206.473 465.293 206.213 465.6C205.953 465.907 205.75 466.293 205.603 466.76C205.463 467.22 205.393 467.763 205.393 468.39L204.223 468.03C204.223 466.983 204.41 466.087 204.783 465.34C205.163 464.587 205.693 464.01 206.373 463.61C207.06 463.203 207.866 463 208.793 463C209.493 463 210.09 463.11 210.583 463.33C211.076 463.55 211.486 463.843 211.813 464.21C212.14 464.57 212.396 464.977 212.583 465.43C212.77 465.877 212.9 466.333 212.973 466.8C213.053 467.26 213.093 467.697 213.093 468.11V474.08H211.293ZM203.593 474.08V463.28H205.193V466.17H205.393V474.08H203.593ZM222.767 474.38C221.96 474.38 221.284 474.233 220.737 473.94C220.197 473.64 219.787 473.247 219.507 472.76C219.234 472.273 219.097 471.74 219.097 471.16C219.097 470.593 219.204 470.103 219.417 469.69C219.637 469.27 219.944 468.923 220.337 468.65C220.73 468.37 221.2 468.15 221.747 467.99C222.26 467.85 222.834 467.73 223.467 467.63C224.107 467.523 224.754 467.427 225.407 467.34C226.06 467.253 226.67 467.17 227.237 467.09L226.597 467.46C226.617 466.5 226.424 465.79 226.017 465.33C225.617 464.87 224.924 464.64 223.937 464.64C223.284 464.64 222.71 464.79 222.217 465.09C221.73 465.383 221.387 465.863 221.187 466.53L219.497 466.02C219.757 465.073 220.26 464.33 221.007 463.79C221.754 463.25 222.737 462.98 223.957 462.98C224.937 462.98 225.777 463.157 226.477 463.51C227.184 463.857 227.69 464.383 227.997 465.09C228.15 465.423 228.247 465.787 228.287 466.18C228.327 466.567 228.347 466.973 228.347 467.4V474.08H226.767V471.49L227.137 471.73C226.73 472.603 226.16 473.263 225.427 473.71C224.7 474.157 223.814 474.38 222.767 474.38ZM223.037 472.89C223.677 472.89 224.23 472.777 224.697 472.55C225.17 472.317 225.55 472.013 225.837 471.64C226.124 471.26 226.31 470.847 226.397 470.4C226.497 470.067 226.55 469.697 226.557 469.29C226.57 468.877 226.577 468.56 226.577 468.34L227.197 468.61C226.617 468.69 226.047 468.767 225.487 468.84C224.927 468.913 224.397 468.993 223.897 469.08C223.397 469.16 222.947 469.257 222.547 469.37C222.254 469.463 221.977 469.583 221.717 469.73C221.464 469.877 221.257 470.067 221.097 470.3C220.944 470.527 220.867 470.81 220.867 471.15C220.867 471.443 220.94 471.723 221.087 471.99C221.24 472.257 221.474 472.473 221.787 472.64C222.107 472.807 222.524 472.89 223.037 472.89ZM235.027 474.37C233.74 474.37 232.684 474.09 231.857 473.53C231.037 472.963 230.534 472.173 230.347 471.16L232.167 470.87C232.314 471.457 232.65 471.923 233.177 472.27C233.704 472.61 234.357 472.78 235.137 472.78C235.877 472.78 236.457 472.627 236.877 472.32C237.297 472.013 237.507 471.597 237.507 471.07C237.507 470.763 237.437 470.517 237.297 470.33C237.157 470.137 236.867 469.957 236.427 469.79C235.994 469.623 235.337 469.423 234.457 469.19C233.504 468.937 232.754 468.673 232.207 468.4C231.66 468.127 231.27 467.81 231.037 467.45C230.804 467.09 230.687 466.653 230.687 466.14C230.687 465.507 230.86 464.953 231.207 464.48C231.554 464 232.037 463.63 232.657 463.37C233.284 463.11 234.01 462.98 234.837 462.98C235.657 462.98 236.39 463.11 237.037 463.37C237.684 463.63 238.204 464 238.597 464.48C238.997 464.953 239.234 465.507 239.307 466.14L237.487 466.47C237.4 465.89 237.12 465.433 236.647 465.1C236.18 464.767 235.577 464.59 234.837 464.57C234.137 464.543 233.567 464.667 233.127 464.94C232.694 465.213 232.477 465.583 232.477 466.05C232.477 466.31 232.557 466.533 232.717 466.72C232.884 466.907 233.187 467.083 233.627 467.25C234.074 467.417 234.72 467.607 235.567 467.82C236.52 468.06 237.27 468.323 237.817 468.61C238.37 468.89 238.764 469.223 238.997 469.61C239.23 469.99 239.347 470.46 239.347 471.02C239.347 472.06 238.964 472.88 238.197 473.48C237.43 474.073 236.374 474.37 235.027 474.37ZM248.066 474.08V461.65L245.356 463.29V461.3L248.066 459.68H249.876V474.08H248.066ZM253.481 468.51V467.04H259.481V468.51H253.481ZM264.38 474.08L261.08 463.27L262.85 463.28L265.26 471.18L267.69 463.28H269.26L271.68 471.18L274.1 463.28H275.86L272.56 474.08H271.08L268.47 465.87L265.86 474.08H264.38ZM281.955 474.38C280.895 474.38 279.968 474.147 279.175 473.68C278.388 473.207 277.775 472.55 277.335 471.71C276.895 470.863 276.675 469.877 276.675 468.75C276.675 467.57 276.892 466.55 277.325 465.69C277.758 464.823 278.362 464.157 279.135 463.69C279.915 463.217 280.828 462.98 281.875 462.98C282.962 462.98 283.885 463.23 284.645 463.73C285.412 464.23 285.985 464.943 286.365 465.87C286.752 466.797 286.918 467.9 286.865 469.18H285.065V468.54C285.045 467.213 284.775 466.223 284.255 465.57C283.735 464.91 282.962 464.58 281.935 464.58C280.835 464.58 279.998 464.933 279.425 465.64C278.852 466.347 278.565 467.36 278.565 468.68C278.565 469.953 278.852 470.94 279.425 471.64C279.998 472.34 280.815 472.69 281.875 472.69C282.588 472.69 283.208 472.527 283.735 472.2C284.262 471.873 284.675 471.403 284.975 470.79L286.685 471.38C286.265 472.333 285.632 473.073 284.785 473.6C283.945 474.12 283.002 474.38 281.955 474.38ZM277.965 469.18V467.75H285.945V469.18H277.965ZM293.771 474.38C292.711 474.38 291.785 474.147 290.991 473.68C290.205 473.207 289.591 472.55 289.151 471.71C288.711 470.863 288.491 469.877 288.491 468.75C288.491 467.57 288.708 466.55 289.141 465.69C289.575 464.823 290.178 464.157 290.951 463.69C291.731 463.217 292.645 462.98 293.691 462.98C294.778 462.98 295.701 463.23 296.461 463.73C297.228 464.23 297.801 464.943 298.181 465.87C298.568 466.797 298.735 467.9 298.681 469.18H296.881V468.54C296.861 467.213 296.591 466.223 296.071 465.57C295.551 464.91 294.778 464.58 293.751 464.58C292.651 464.58 291.815 464.933 291.241 465.64C290.668 466.347 290.381 467.36 290.381 468.68C290.381 469.953 290.668 470.94 291.241 471.64C291.815 472.34 292.631 472.69 293.691 472.69C294.405 472.69 295.025 472.527 295.551 472.2C296.078 471.873 296.491 471.403 296.791 470.79L298.501 471.38C298.081 472.333 297.448 473.073 296.601 473.6C295.761 474.12 294.818 474.38 293.771 474.38ZM289.781 469.18V467.75H297.761V469.18H289.781ZM300.898 474.08L300.908 459.68H302.708V468.48L307.238 463.28H309.548L304.778 468.68L310.108 474.08H307.618L302.708 468.88V474.08H300.898Z" fill="#1A1A1A"/>
<rect x="2" y="2.08002" width="364" height="520" rx="4" stroke="black" stroke-width="3"/>
</g>
<defs>
<filter id="filter0_d_387_16820" x="0.5" y="0.580017" width="375" height="535" filterUnits="userSpaceOnUse" color-interpolation-filters="sRGB">
<feFlood flood-opacity="0" result="BackgroundImageFix"/>
<feColorMatrix in="SourceAlpha" type="matrix" values="0 0 0 0 0 0 0 0 0 0 0 0 0 0 0 0 0 0 127 0" result="hardAlpha"/>
<feOffset dx="8" dy="12"/>
<feComposite in2="hardAlpha" operator="out"/>
<feColorMatrix type="matrix" values="0 0 0 0 0.0862745 0 0 0 0 0.0392157 0 0 0 0 0.184314 0 0 0 1 0"/>
<feBlend mode="normal" in2="BackgroundImageFix" result="effect1_dropShadow_387_16820"/>
<feBlend mode="normal" in="SourceGraphic" in2="effect1_dropShadow_387_16820" result="shape"/>
</filter>
</defs>
</svg>
