<svg width="376" height="536" viewBox="0 0 376 536" fill="none" xmlns="http://www.w3.org/2000/svg">
<g filter="url(#filter0_d_387_16863)">
<rect x="2" y="2.08002" width="364" height="520" rx="4" fill="#EBE8E3"/>
<path d="M69.1503 76.08C69.2996 76.08 69.4489 75.9307 69.5983 75.632C69.7476 75.3334 69.8223 74.8427 69.8223 74.16V61.36C69.8223 60.8907 69.7689 60.6133 69.6623 60.528C69.5556 60.4427 69.1823 60.4 68.5423 60.4H66.2063C64.9689 60.4 63.9663 60.5387 63.1983 60.816C62.4516 61.072 61.9609 61.3173 61.7263 61.552L62.3663 57.84V56.88H82.2063V57.84L82.8463 61.552C82.6116 61.3173 82.1103 61.072 81.3423 60.816C80.5956 60.5387 79.6036 60.4 78.3663 60.4H76.0623C75.4009 60.4 75.0169 60.4427 74.9103 60.528C74.8036 60.6133 74.7503 60.8907 74.7503 61.36V74.16C74.7503 74.8427 74.8249 75.3334 74.9743 75.632C75.1236 75.9307 75.2729 76.08 75.4223 76.08H69.1503ZM84.5643 76.08C84.7136 76.08 84.8523 75.9307 84.9803 75.632C85.1296 75.3334 85.2043 74.8427 85.2043 74.16V55.92C85.2043 55.2373 85.1296 54.7573 84.9803 54.48C84.8523 54.1814 84.7136 54.0213 84.5643 54H89.7483V62.736L89.6843 63.152L89.7483 63.216C89.8123 63.0667 90.0149 62.8 90.3563 62.416C90.6976 62.032 91.1883 61.6693 91.8283 61.328C92.4683 60.9653 93.2576 60.784 94.1963 60.784C96.1803 60.784 97.6949 61.3493 98.7403 62.48C99.8069 63.6107 100.34 65.3814 100.34 67.792V74.16C100.34 74.8427 100.404 75.3334 100.532 75.632C100.682 75.9307 100.831 76.08 100.98 76.08H95.1563C95.3056 76.08 95.4443 75.9307 95.5723 75.632C95.7216 75.3334 95.7963 74.8427 95.7963 74.16V67.888C95.7963 66.8854 95.6896 66.1067 95.4763 65.552C95.2629 64.976 94.9643 64.5707 94.5803 64.336C94.2176 64.1013 93.7909 63.984 93.3003 63.984C92.7029 63.984 92.1269 64.1333 91.5723 64.432C91.0389 64.7093 90.6016 65.1573 90.2603 65.776C89.9189 66.3734 89.7483 67.1734 89.7483 68.176V74.16C89.7483 74.8427 89.8123 75.3334 89.9403 75.632C90.0896 75.9307 90.2389 76.08 90.3883 76.08H84.5643ZM111.852 76.4C110.166 76.4 108.758 76.2294 107.628 75.888C106.518 75.5254 105.633 75.0134 104.972 74.352C104.31 73.6694 103.841 72.848 103.564 71.888C103.286 70.928 103.148 69.84 103.148 68.624C103.148 66.2133 103.82 64.304 105.164 62.896C106.508 61.488 108.566 60.784 111.34 60.784C112.961 60.784 114.273 61.008 115.276 61.456C116.3 61.904 117.078 62.5013 117.612 63.248C118.145 63.9947 118.508 64.8267 118.7 65.744C118.913 66.64 119.02 67.5467 119.02 68.464V69.968C119.02 69.904 118.721 69.84 118.124 69.776C117.548 69.6907 116.566 69.648 115.18 69.648H107.756C107.756 70.8214 108.108 71.7067 108.812 72.304C109.537 72.88 110.71 73.168 112.332 73.168C113.697 73.168 114.913 73.008 115.98 72.688C117.068 72.3467 117.857 72.0267 118.347 71.728V72.688L118.668 75.12C118.262 75.3974 117.484 75.6854 116.332 75.984C115.18 76.2614 113.686 76.4 111.852 76.4ZM108.94 66.896H114.476C114.476 66.4267 114.369 65.968 114.156 65.52C113.964 65.072 113.644 64.7093 113.196 64.432C112.748 64.1333 112.129 63.984 111.34 63.984C110.55 63.984 109.91 64.1013 109.42 64.336C108.95 64.5707 108.598 64.8587 108.364 65.2C108.15 65.5414 108.044 65.8934 108.044 66.256C108.044 66.4693 108.108 66.6293 108.236 66.736C108.364 66.8427 108.598 66.896 108.94 66.896ZM129.6 76.08C129.749 76.08 129.899 75.9307 130.048 75.632C130.197 75.3334 130.272 74.8427 130.272 74.16V58.8C130.272 58.1173 130.197 57.6373 130.048 57.36C129.899 57.0613 129.749 56.9013 129.6 56.88H135.872C135.723 56.88 135.573 57.0293 135.424 57.328C135.275 57.6267 135.2 58.128 135.2 58.832V63.728C135.2 64.1973 135.253 64.4747 135.36 64.56C135.488 64.6454 135.872 64.688 136.512 64.688H144.736C145.376 64.688 145.749 64.656 145.856 64.592C145.963 64.5067 146.016 64.2187 146.016 63.728V58.8C146.016 58.1173 145.941 57.6373 145.792 57.36C145.643 57.0613 145.493 56.9013 145.344 56.88H151.616C151.467 56.88 151.317 57.0293 151.168 57.328C151.019 57.6267 150.944 58.128 150.944 58.832V74.16C150.944 74.8427 151.019 75.3334 151.168 75.632C151.317 75.9307 151.467 76.08 151.616 76.08H145.344C145.493 76.08 145.643 75.9307 145.792 75.632C145.941 75.3334 146.016 74.8427 146.016 74.16V69.168C146.016 68.6774 145.952 68.4 145.824 68.336C145.717 68.2507 145.355 68.208 144.736 68.208H136.512C135.872 68.208 135.488 68.2507 135.36 68.336C135.253 68.4214 135.2 68.6987 135.2 69.168V74.16C135.2 74.8427 135.275 75.3334 135.424 75.632C135.573 75.9307 135.723 76.08 135.872 76.08H129.6ZM155.011 83.888C153.731 83.888 152.717 83.76 151.971 83.504C151.224 83.248 150.744 83.0027 150.531 82.768L151.171 77.808V76.848C151.427 77.4027 151.779 77.9787 152.227 78.576C152.653 79.1734 153.155 79.6747 153.731 80.08C154.307 80.4854 154.904 80.688 155.523 80.688C155.949 80.688 156.333 80.592 156.675 80.4C157.037 80.2294 157.368 79.952 157.667 79.568C157.987 79.184 158.296 78.704 158.595 78.128C159.021 77.2747 159.288 76.688 159.395 76.368C159.267 76.1974 159.053 75.8027 158.755 75.184C158.477 74.5654 158.136 73.8187 157.731 72.944C157.347 72.048 156.931 71.1094 156.483 70.128C156.056 69.1254 155.64 68.1547 155.235 67.216C154.851 66.2774 154.499 65.4454 154.179 64.72C153.88 63.9947 153.656 63.4613 153.507 63.12C153.208 62.3947 152.909 61.8827 152.611 61.584C152.291 61.264 152.045 61.104 151.875 61.104H158.435C158.328 61.104 158.253 61.2533 158.211 61.552C158.168 61.8507 158.243 62.3733 158.435 63.12C158.541 63.5253 158.712 64.1014 158.947 64.848C159.181 65.5734 159.448 66.3734 159.747 67.248C160.067 68.1227 160.387 69.008 160.707 69.904C161.048 70.8 161.357 71.6214 161.635 72.368H161.667C161.965 71.5787 162.275 70.7254 162.595 69.808C162.936 68.8694 163.267 67.952 163.587 67.056C163.928 66.16 164.216 65.36 164.451 64.656C164.707 63.952 164.899 63.4187 165.027 63.056C165.261 62.3307 165.357 61.8293 165.315 61.552C165.272 61.2533 165.176 61.104 165.027 61.104H171.395C171.224 61.104 170.989 61.2533 170.691 61.552C170.413 61.8293 170.147 62.32 169.891 63.024C169.741 63.408 169.496 64.0374 169.155 64.912C168.813 65.7867 168.408 66.7893 167.939 67.92C167.469 69.0507 166.979 70.2134 166.467 71.408C165.955 72.6027 165.453 73.7334 164.963 74.8C164.493 75.8454 164.077 76.7094 163.715 77.392C162.989 78.8 162.232 79.984 161.443 80.944C160.653 81.904 159.747 82.6294 158.723 83.12C157.699 83.632 156.461 83.888 155.011 83.888ZM172.471 83.184C172.62 83.184 172.759 83.0347 172.887 82.736C173.036 82.4374 173.111 81.9467 173.111 81.264V63.024C173.111 62.3413 173.036 61.8613 172.887 61.584C172.759 61.2854 172.62 61.1253 172.471 61.104H177.655V61.36L177.591 61.968L177.655 62C177.868 61.808 178.177 61.6267 178.583 61.456C179.009 61.264 179.489 61.104 180.023 60.976C180.577 60.848 181.132 60.784 181.687 60.784C183.671 60.784 185.207 61.136 186.295 61.84C187.404 62.5227 188.183 63.4507 188.631 64.624C189.079 65.7974 189.303 67.1307 189.303 68.624C189.303 70.096 189.079 71.4187 188.631 72.592C188.204 73.7654 187.436 74.6934 186.327 75.376C185.239 76.0587 183.692 76.4 181.687 76.4C180.855 76.4 180.076 76.2934 179.351 76.08C178.647 75.888 178.081 75.6 177.655 75.216L177.591 75.248L177.655 75.888V81.264C177.655 81.9467 177.719 82.4374 177.847 82.736C177.996 83.0347 178.145 83.184 178.295 83.184H172.471ZM181.047 73.168C181.943 73.168 182.657 73.04 183.191 72.784C183.745 72.5067 184.14 72.0374 184.375 71.376C184.631 70.7147 184.759 69.7974 184.759 68.624C184.759 67.4507 184.631 66.5333 184.375 65.872C184.14 65.1894 183.745 64.7093 183.191 64.432C182.657 64.1333 181.943 63.984 181.047 63.984C180.343 63.984 179.735 64.1547 179.223 64.496C178.711 64.816 178.316 65.3174 178.039 66C177.783 66.6827 177.655 67.568 177.655 68.656C177.655 69.7654 177.793 70.6507 178.071 71.312C178.348 71.9734 178.732 72.4534 179.223 72.752C179.735 73.0294 180.343 73.168 181.047 73.168ZM199.914 76.4C198.229 76.4 196.821 76.2294 195.69 75.888C194.581 75.5254 193.695 75.0134 193.034 74.352C192.373 73.6694 191.903 72.848 191.626 71.888C191.349 70.928 191.21 69.84 191.21 68.624C191.21 66.2133 191.882 64.304 193.226 62.896C194.57 61.488 196.629 60.784 199.402 60.784C201.023 60.784 202.335 61.008 203.338 61.456C204.362 61.904 205.141 62.5013 205.674 63.248C206.207 63.9947 206.57 64.8267 206.762 65.744C206.975 66.64 207.082 67.5467 207.082 68.464V69.968C207.082 69.904 206.783 69.84 206.186 69.776C205.61 69.6907 204.629 69.648 203.242 69.648H195.818C195.818 70.8214 196.17 71.7067 196.874 72.304C197.599 72.88 198.773 73.168 200.394 73.168C201.759 73.168 202.975 73.008 204.042 72.688C205.13 72.3467 205.919 72.0267 206.41 71.728V72.688L206.73 75.12C206.325 75.3974 205.546 75.6854 204.394 75.984C203.242 76.2614 201.749 76.4 199.914 76.4ZM197.002 66.896H202.538C202.538 66.4267 202.431 65.968 202.218 65.52C202.026 65.072 201.706 64.7093 201.258 64.432C200.81 64.1333 200.191 63.984 199.402 63.984C198.613 63.984 197.973 64.1013 197.482 64.336C197.013 64.5707 196.661 64.8587 196.426 65.2C196.213 65.5414 196.106 65.8934 196.106 66.256C196.106 66.4693 196.17 66.6293 196.298 66.736C196.426 66.8427 196.661 66.896 197.002 66.896ZM209.783 76.08C209.932 76.08 210.071 75.9307 210.199 75.632C210.348 75.3334 210.423 74.8427 210.423 74.16V63.344C210.423 62.6613 210.348 62.1814 210.199 61.904C210.071 61.6053 209.932 61.4453 209.783 61.424C210.722 61.424 211.682 61.36 212.663 61.232C213.644 61.0827 214.412 60.9333 214.967 60.784V62.064L214.903 62.608L214.967 62.672C215.116 62.4373 215.351 62.1814 215.671 61.904C216.012 61.6053 216.439 61.3493 216.951 61.136C217.484 60.9014 218.103 60.784 218.807 60.784C219.852 60.784 220.78 60.9333 221.591 61.232C222.402 61.5093 222.978 61.7973 223.319 62.096L222.359 66.384V67.344C222.039 66.896 221.602 66.4374 221.047 65.968C220.514 65.4987 219.916 65.104 219.255 64.784C218.615 64.464 217.954 64.304 217.271 64.304C216.503 64.304 215.927 64.5813 215.543 65.136C215.159 65.6907 214.967 66.5653 214.967 67.76V74.16C214.967 74.8427 215.031 75.3334 215.159 75.632C215.308 75.9307 215.458 76.08 215.607 76.08H209.783ZM233.409 76.4C231.51 76.4 229.91 76.2934 228.609 76.08C227.307 75.8667 226.411 75.6534 225.921 75.44V74.48L225.249 71.344C225.803 71.7494 226.838 72.1547 228.353 72.56C229.867 72.9654 231.723 73.168 233.921 73.168C234.582 73.168 235.105 73.1254 235.489 73.04C235.894 72.9547 236.182 72.816 236.353 72.624C236.523 72.432 236.609 72.1867 236.609 71.888C236.609 71.5254 236.47 71.248 236.193 71.056C235.937 70.864 235.467 70.7147 234.785 70.608C234.102 70.48 233.11 70.3307 231.809 70.16C230.166 69.9467 228.865 69.648 227.905 69.264C226.945 68.8587 226.262 68.3467 225.857 67.728C225.473 67.088 225.281 66.3094 225.281 65.392C225.281 64.5387 225.483 63.7707 225.889 63.088C226.315 62.384 227.041 61.8293 228.065 61.424C229.11 60.9973 230.561 60.784 232.417 60.784C234.166 60.784 235.702 60.8907 237.025 61.104C238.347 61.3173 239.297 61.5307 239.873 61.744V62.704L240.513 65.52C240.022 65.2 239.062 64.8693 237.633 64.528C236.203 64.1867 234.39 64.016 232.193 64.016C231.339 64.016 230.731 64.1014 230.369 64.272C230.006 64.4427 229.825 64.7413 229.825 65.168C229.825 65.3813 229.878 65.5627 229.985 65.712C230.113 65.8614 230.347 66 230.689 66.128C231.03 66.256 231.521 66.384 232.161 66.512C232.801 66.6187 233.643 66.736 234.689 66.864C236.502 67.0987 237.867 67.4294 238.785 67.856C239.702 68.2614 240.321 68.7734 240.641 69.392C240.961 69.9894 241.121 70.7147 241.121 71.568C241.121 72.656 240.843 73.5627 240.289 74.288C239.755 74.992 238.913 75.5254 237.761 75.888C236.63 76.2294 235.179 76.4 233.409 76.4ZM251.663 76.4C249.445 76.4 247.695 76.0587 246.415 75.376C245.157 74.6934 244.271 73.7654 243.759 72.592C243.247 71.4187 242.991 70.096 242.991 68.624C242.991 66.0213 243.695 64.0693 245.103 62.768C246.533 61.4667 248.613 60.816 251.343 60.816C252.773 60.816 254.074 60.9227 255.247 61.136C256.442 61.3493 257.317 61.552 257.871 61.744V62.704L258.511 66.128C258.042 65.68 257.189 65.2214 255.951 64.752C254.735 64.2614 253.274 64.016 251.567 64.016C250.65 64.016 249.882 64.1867 249.263 64.528C248.666 64.848 248.218 65.3493 247.919 66.032C247.642 66.7147 247.503 67.5894 247.503 68.656C247.503 69.7014 247.663 70.5547 247.983 71.216C248.303 71.8774 248.826 72.3574 249.551 72.656C250.277 72.9547 251.237 73.104 252.431 73.104C253.946 73.104 255.194 72.912 256.175 72.528C257.178 72.1227 257.85 71.728 258.191 71.344V72.304L258.511 74.864C258.106 75.2054 257.306 75.5467 256.111 75.888C254.938 76.2294 253.455 76.4 251.663 76.4ZM267.365 76.4C265.445 76.4 263.909 76.0267 262.757 75.28C261.627 74.512 261.061 73.2854 261.061 71.6C261.061 70.4267 261.36 69.4774 261.957 68.752C262.555 68.0267 263.365 67.4934 264.389 67.152C265.435 66.7894 266.619 66.608 267.941 66.608C268.923 66.608 269.755 66.6934 270.437 66.864C271.141 67.0347 271.707 67.216 272.133 67.408C272.56 67.6 272.837 67.7387 272.965 67.824C272.965 66.928 272.869 66.2027 272.677 65.648C272.485 65.072 272.133 64.656 271.621 64.4C271.131 64.1227 270.437 63.984 269.541 63.984C268.24 63.984 267.088 64.112 266.085 64.368C265.083 64.624 264.261 64.9227 263.621 65.264C263.003 65.6053 262.576 65.8933 262.341 66.128V65.168L262.021 62.032C262.171 61.9467 262.565 61.808 263.205 61.616C263.845 61.424 264.72 61.2427 265.829 61.072C266.939 60.88 268.261 60.784 269.797 60.784C271.909 60.784 273.52 61.0933 274.629 61.712C275.739 62.3093 276.496 63.1733 276.901 64.304C277.328 65.4347 277.541 66.8 277.541 68.4V74.16C277.541 74.7574 277.605 75.1947 277.733 75.472C277.883 75.728 278.032 75.9307 278.181 76.08H272.997V75.408L273.061 74.8L272.997 74.736C272.827 74.928 272.581 75.12 272.261 75.312C271.941 75.504 271.547 75.6854 271.077 75.856C270.608 76.0054 270.064 76.1334 269.445 76.24C268.827 76.3467 268.133 76.4 267.365 76.4ZM268.869 73.168C269.765 73.168 270.512 73.104 271.109 72.976C271.728 72.8267 272.197 72.6347 272.517 72.4C272.837 72.144 272.997 71.8454 272.997 71.504C272.997 71.0134 272.624 70.608 271.877 70.288C271.152 69.968 270.16 69.808 268.901 69.808C267.685 69.808 266.821 69.9787 266.309 70.32C265.819 70.6614 265.573 71.088 265.573 71.6C265.573 72.24 265.861 72.6667 266.437 72.88C267.013 73.072 267.824 73.168 268.869 73.168ZM281.006 76.08C281.156 76.08 281.305 75.9307 281.454 75.632C281.604 75.3334 281.678 74.8427 281.678 74.16V55.92C281.678 55.2373 281.604 54.7467 281.454 54.448C281.326 54.1493 281.188 54 281.038 54C282.446 54 283.588 53.936 284.462 53.808C285.358 53.6587 285.945 53.5093 286.222 53.36V74.16C286.222 74.8427 286.286 75.3334 286.414 75.632C286.564 75.9307 286.713 76.08 286.862 76.08H281.006ZM298.133 76.4C296.447 76.4 295.039 76.2294 293.909 75.888C292.799 75.5254 291.914 75.0134 291.253 74.352C290.591 73.6694 290.122 72.848 289.845 71.888C289.567 70.928 289.429 69.84 289.429 68.624C289.429 66.2133 290.101 64.304 291.445 62.896C292.789 61.488 294.847 60.784 297.621 60.784C299.242 60.784 300.554 61.008 301.557 61.456C302.581 61.904 303.359 62.5013 303.893 63.248C304.426 63.9947 304.789 64.8267 304.981 65.744C305.194 66.64 305.301 67.5467 305.301 68.464V69.968C305.301 69.904 305.002 69.84 304.405 69.776C303.829 69.6907 302.847 69.648 301.461 69.648H294.037C294.037 70.8214 294.389 71.7067 295.093 72.304C295.818 72.88 296.991 73.168 298.613 73.168C299.978 73.168 301.194 73.008 302.261 72.688C303.349 72.3467 304.138 72.0267 304.629 71.728V72.688L304.949 75.12C304.543 75.3974 303.765 75.6854 302.613 75.984C301.461 76.2614 299.967 76.4 298.133 76.4ZM295.221 66.896H300.757C300.757 66.4267 300.65 65.968 300.437 65.52C300.245 65.072 299.925 64.7093 299.477 64.432C299.029 64.1333 298.41 63.984 297.621 63.984C296.831 63.984 296.191 64.1013 295.701 64.336C295.231 64.5707 294.879 64.8587 294.645 65.2C294.431 65.5414 294.325 65.8934 294.325 66.256C294.325 66.4693 294.389 66.6293 294.517 66.736C294.645 66.8427 294.879 66.896 295.221 66.896ZM111.053 124.4C107.384 124.4 104.632 123.611 102.797 122.032C100.984 120.432 100.077 117.915 100.077 114.48C100.077 112.496 100.45 110.768 101.197 109.296C101.944 107.803 103.128 106.64 104.749 105.808C106.37 104.976 108.472 104.56 111.053 104.56C113.08 104.56 114.765 104.667 116.109 104.88C117.453 105.093 118.36 105.307 118.829 105.52V106.48L119.469 110C119.064 109.723 118.456 109.435 117.645 109.136C116.856 108.837 115.906 108.592 114.797 108.4C113.688 108.187 112.461 108.08 111.117 108.08C109.645 108.08 108.45 108.315 107.533 108.784C106.637 109.253 105.976 109.968 105.549 110.928C105.144 111.867 104.941 113.051 104.941 114.48C104.941 115.909 105.144 117.093 105.549 118.032C105.976 118.971 106.701 119.675 107.725 120.144C108.77 120.613 110.21 120.848 112.045 120.848C113.88 120.848 115.405 120.592 116.621 120.08C117.858 119.568 118.701 119.077 119.149 118.608V119.568L119.469 122.8C119.106 123.141 118.221 123.493 116.813 123.856C115.426 124.219 113.506 124.4 111.053 124.4ZM129.95 124.4C127.817 124.4 126.142 124.059 124.926 123.376C123.732 122.693 122.889 121.765 122.398 120.592C121.929 119.419 121.694 118.096 121.694 116.624C121.694 115.131 121.94 113.797 122.43 112.624C122.942 111.451 123.796 110.523 124.99 109.84C126.185 109.136 127.838 108.784 129.95 108.784C132.062 108.784 133.716 109.136 134.91 109.84C136.105 110.523 136.948 111.451 137.438 112.624C137.95 113.797 138.206 115.131 138.206 116.624C138.206 118.096 137.961 119.419 137.47 120.592C137.001 121.765 136.169 122.693 134.974 123.376C133.78 124.059 132.105 124.4 129.95 124.4ZM129.95 121.168C130.846 121.168 131.561 121.04 132.094 120.784C132.649 120.507 133.044 120.037 133.278 119.376C133.534 118.715 133.662 117.797 133.662 116.624C133.662 115.451 133.534 114.533 133.278 113.872C133.044 113.189 132.649 112.709 132.094 112.432C131.561 112.133 130.846 111.984 129.95 111.984C129.054 111.984 128.329 112.133 127.774 112.432C127.241 112.731 126.846 113.221 126.59 113.904C126.356 114.587 126.238 115.504 126.238 116.656C126.238 117.787 126.356 118.683 126.59 119.344C126.846 120.005 127.241 120.475 127.774 120.752C128.329 121.029 129.054 121.168 129.95 121.168ZM140.58 124.08C140.729 124.08 140.868 123.931 140.996 123.632C141.145 123.333 141.22 122.843 141.22 122.16V111.344C141.22 110.661 141.145 110.181 140.996 109.904C140.868 109.605 140.729 109.445 140.58 109.424C141.519 109.424 142.479 109.36 143.46 109.232C144.441 109.083 145.209 108.933 145.764 108.784V110.736L145.7 111.152L145.764 111.216C145.828 111.067 146.031 110.8 146.372 110.416C146.713 110.032 147.204 109.669 147.844 109.328C148.484 108.965 149.273 108.784 150.212 108.784C152.196 108.784 153.711 109.349 154.756 110.48C155.823 111.611 156.356 113.381 156.356 115.792V122.16C156.356 122.843 156.42 123.333 156.548 123.632C156.697 123.931 156.847 124.08 156.996 124.08H151.172C151.321 124.08 151.46 123.931 151.588 123.632C151.737 123.333 151.812 122.843 151.812 122.16V115.888C151.812 114.885 151.705 114.107 151.492 113.552C151.279 112.976 150.98 112.571 150.596 112.336C150.233 112.101 149.807 111.984 149.316 111.984C148.719 111.984 148.143 112.133 147.588 112.432C147.055 112.709 146.617 113.157 146.276 113.776C145.935 114.373 145.764 115.173 145.764 116.176V122.16C145.764 122.843 145.828 123.333 145.956 123.632C146.105 123.931 146.255 124.08 146.404 124.08H140.58ZM161.732 124.08C161.881 124.059 162.02 123.899 162.148 123.6C162.297 123.301 162.372 122.821 162.372 122.16V116.176C162.372 115.323 162.287 114.587 162.116 113.968C161.967 113.328 161.711 112.837 161.348 112.496C160.985 112.155 160.495 111.984 159.876 111.984C158.831 111.984 157.977 112.357 157.316 113.104C156.676 113.851 156.356 114.981 156.356 116.496H154.02C154.02 115.472 154.18 114.501 154.5 113.584C154.82 112.645 155.279 111.824 155.876 111.12C156.473 110.395 157.188 109.829 158.02 109.424C158.852 108.997 159.769 108.784 160.772 108.784C162.052 108.784 163.151 109.019 164.068 109.488C164.985 109.936 165.689 110.693 166.18 111.76C166.671 112.827 166.916 114.277 166.916 116.112V122.16C166.916 122.821 166.98 123.301 167.108 123.6C167.257 123.899 167.407 124.059 167.556 124.08H161.732ZM170.174 124.08C170.323 124.08 170.462 123.931 170.59 123.632C170.739 123.333 170.814 122.843 170.814 122.16V111.344C170.814 110.661 170.739 110.181 170.59 109.904C170.462 109.605 170.323 109.445 170.174 109.424C171.112 109.424 172.072 109.36 173.054 109.232C174.035 109.083 174.803 108.933 175.358 108.784V110.736L175.294 111.152L175.358 111.216C175.422 111.067 175.624 110.8 175.966 110.416C176.307 110.032 176.798 109.669 177.438 109.328C178.078 108.965 178.867 108.784 179.806 108.784C181.79 108.784 183.304 109.349 184.35 110.48C185.416 111.611 185.95 113.381 185.95 115.792V122.16C185.95 122.843 186.014 123.333 186.142 123.632C186.291 123.931 186.44 124.08 186.59 124.08H180.766C180.915 124.08 181.054 123.931 181.182 123.632C181.331 123.333 181.406 122.843 181.406 122.16V115.888C181.406 114.885 181.299 114.107 181.086 113.552C180.872 112.976 180.574 112.571 180.19 112.336C179.827 112.101 179.4 111.984 178.91 111.984C178.312 111.984 177.736 112.133 177.182 112.432C176.648 112.709 176.211 113.157 175.87 113.776C175.528 114.373 175.358 115.173 175.358 116.176V122.16C175.358 122.843 175.422 123.333 175.55 123.632C175.699 123.931 175.848 124.08 175.998 124.08H170.174ZM191.326 124.08C191.475 124.059 191.614 123.899 191.742 123.6C191.891 123.301 191.966 122.821 191.966 122.16V116.176C191.966 115.323 191.88 114.587 191.71 113.968C191.56 113.328 191.304 112.837 190.942 112.496C190.579 112.155 190.088 111.984 189.47 111.984C188.424 111.984 187.571 112.357 186.91 113.104C186.27 113.851 185.95 114.981 185.95 116.496H183.614C183.614 115.472 183.774 114.501 184.094 113.584C184.414 112.645 184.872 111.824 185.47 111.12C186.067 110.395 186.782 109.829 187.614 109.424C188.446 108.997 189.363 108.784 190.366 108.784C191.646 108.784 192.744 109.019 193.662 109.488C194.579 109.936 195.283 110.693 195.774 111.76C196.264 112.827 196.51 114.277 196.51 116.112V122.16C196.51 122.821 196.574 123.301 196.702 123.6C196.851 123.899 197 124.059 197.15 124.08H191.326ZM206.231 124.4C204.994 124.4 203.938 124.187 203.063 123.76C202.189 123.312 201.527 122.555 201.079 121.488C200.631 120.4 200.407 118.896 200.407 116.976V111.024C200.407 110.341 200.333 109.851 200.183 109.552C200.055 109.253 199.917 109.104 199.767 109.104H205.655C205.506 109.104 205.346 109.253 205.175 109.552C205.026 109.851 204.951 110.341 204.951 111.024V117.424C204.951 118.768 205.197 119.728 205.687 120.304C206.199 120.88 206.786 121.168 207.447 121.168C208.386 121.168 209.111 120.955 209.623 120.528C210.135 120.08 210.498 119.504 210.711 118.8C210.925 118.075 211.031 117.317 211.031 116.528V111.024C211.031 110.341 210.957 109.861 210.807 109.584C210.679 109.285 210.541 109.125 210.391 109.104H215.575V122.16C215.575 122.843 215.639 123.333 215.767 123.632C215.917 123.931 216.066 124.08 216.215 124.08H211.031V122.832L211.095 122.192L211.031 122.128C210.818 122.448 210.551 122.747 210.231 123.024C209.911 123.301 209.549 123.547 209.143 123.76C208.738 123.952 208.29 124.101 207.799 124.208C207.309 124.336 206.786 124.4 206.231 124.4ZM218.83 124.08C218.979 124.08 219.118 123.931 219.246 123.632C219.395 123.333 219.47 122.843 219.47 122.16V111.344C219.47 110.661 219.395 110.181 219.246 109.904C219.118 109.605 218.979 109.445 218.83 109.424C219.769 109.424 220.729 109.36 221.71 109.232C222.691 109.083 223.459 108.933 224.014 108.784V110.736L223.95 111.152L224.014 111.216C224.078 111.067 224.281 110.8 224.622 110.416C224.963 110.032 225.454 109.669 226.094 109.328C226.734 108.965 227.523 108.784 228.462 108.784C230.446 108.784 231.961 109.349 233.006 110.48C234.073 111.611 234.606 113.381 234.606 115.792V122.16C234.606 122.843 234.67 123.333 234.798 123.632C234.947 123.931 235.097 124.08 235.246 124.08H229.422C229.571 124.08 229.71 123.931 229.838 123.632C229.987 123.333 230.062 122.843 230.062 122.16V115.888C230.062 114.885 229.955 114.107 229.742 113.552C229.529 112.976 229.23 112.571 228.846 112.336C228.483 112.101 228.057 111.984 227.566 111.984C226.969 111.984 226.393 112.133 225.838 112.432C225.305 112.709 224.867 113.157 224.526 113.776C224.185 114.373 224.014 115.173 224.014 116.176V122.16C224.014 122.843 224.078 123.333 224.206 123.632C224.355 123.931 224.505 124.08 224.654 124.08H218.83ZM237.861 124.08C238.01 124.08 238.16 123.931 238.309 123.632C238.458 123.333 238.533 122.843 238.533 122.16V111.024C238.533 110.341 238.458 109.851 238.309 109.552C238.181 109.253 238.042 109.104 237.893 109.104H243.077V122.16C243.077 122.843 243.141 123.333 243.269 123.632C243.418 123.931 243.568 124.08 243.717 124.08H237.861ZM240.453 106.672C239.664 106.672 239.034 106.459 238.565 106.032C238.096 105.605 237.861 105.019 237.861 104.272C237.861 103.525 238.085 102.939 238.533 102.512C239.002 102.085 239.642 101.872 240.453 101.872C241.264 101.872 241.893 102.085 242.341 102.512C242.81 102.939 243.045 103.525 243.045 104.272C243.045 105.019 242.81 105.605 242.341 106.032C241.893 106.459 241.264 106.672 240.453 106.672ZM252.915 124.4C251.443 124.4 250.376 124.091 249.715 123.472C249.054 122.832 248.723 121.797 248.723 120.368V112.304H245.843V109.104C246.824 109.104 247.592 108.987 248.147 108.752C248.702 108.496 249.096 108.059 249.331 107.44C249.566 106.821 249.683 105.957 249.683 104.848H253.267V109.104H258.739C258.59 109.531 258.44 110.064 258.291 110.704C258.163 111.323 258.099 111.856 258.099 112.304H253.267V118.608C253.267 119.589 253.342 120.261 253.491 120.624C253.64 120.987 253.992 121.168 254.547 121.168C254.91 121.168 255.304 121.04 255.731 120.784C256.179 120.528 256.606 120.219 257.011 119.856C257.438 119.472 257.79 119.109 258.067 118.768V119.76L258.387 122.864C258.131 123.077 257.747 123.312 257.235 123.568C256.723 123.803 256.094 123.995 255.347 124.144C254.622 124.315 253.811 124.4 252.915 124.4ZM260.839 131.888C259.559 131.888 258.546 131.76 257.799 131.504C257.052 131.248 256.572 131.003 256.359 130.768L256.999 125.808V124.848C257.255 125.403 257.607 125.979 258.055 126.576C258.482 127.173 258.983 127.675 259.559 128.08C260.135 128.485 260.732 128.688 261.351 128.688C261.778 128.688 262.162 128.592 262.503 128.4C262.866 128.229 263.196 127.952 263.495 127.568C263.815 127.184 264.124 126.704 264.423 126.128C264.85 125.275 265.116 124.688 265.223 124.368C265.095 124.197 264.882 123.803 264.583 123.184C264.306 122.565 263.964 121.819 263.559 120.944C263.175 120.048 262.759 119.109 262.311 118.128C261.884 117.125 261.468 116.155 261.063 115.216C260.679 114.277 260.327 113.445 260.007 112.72C259.708 111.995 259.484 111.461 259.335 111.12C259.036 110.395 258.738 109.883 258.439 109.584C258.119 109.264 257.874 109.104 257.703 109.104H264.263C264.156 109.104 264.082 109.253 264.039 109.552C263.996 109.851 264.071 110.373 264.263 111.12C264.37 111.525 264.54 112.101 264.775 112.848C265.01 113.573 265.276 114.373 265.575 115.248C265.895 116.123 266.215 117.008 266.535 117.904C266.876 118.8 267.186 119.621 267.463 120.368H267.495C267.794 119.579 268.103 118.725 268.423 117.808C268.764 116.869 269.095 115.952 269.415 115.056C269.756 114.16 270.044 113.36 270.279 112.656C270.535 111.952 270.727 111.419 270.855 111.056C271.09 110.331 271.186 109.829 271.143 109.552C271.1 109.253 271.004 109.104 270.855 109.104H277.223C277.052 109.104 276.818 109.253 276.519 109.552C276.242 109.829 275.975 110.32 275.719 111.024C275.57 111.408 275.324 112.037 274.983 112.912C274.642 113.787 274.236 114.789 273.767 115.92C273.298 117.051 272.807 118.213 272.295 119.408C271.783 120.603 271.282 121.733 270.791 122.8C270.322 123.845 269.906 124.709 269.543 125.392C268.818 126.8 268.06 127.984 267.271 128.944C266.482 129.904 265.575 130.629 264.551 131.12C263.527 131.632 262.29 131.888 260.839 131.888Z" fill="#1A1A1A"/>
<path d="M190.946 270.417L188.676 283.586L227.22 286.455C227.22 286.455 255.869 289.343 265.763 283.586C268.229 282.151 265.864 275.789 264.262 271.179C261.524 263.303 258.001 257.492 250.408 254.931L239.681 251.314C238.579 250.942 237.415 250.752 236.241 250.752H217.953C216.705 250.752 215.468 250.967 214.305 251.386L204.48 254.931C197.303 257.521 192.154 263.413 190.946 270.417Z" fill="white" stroke="black" stroke-width="2" stroke-linecap="round" stroke-linejoin="round"/>
<path fill-rule="evenodd" clip-rule="evenodd" d="M227.223 237.478C231.636 237.478 235.442 240.577 236.337 244.898L237.38 249.939C237.472 250.379 237.532 250.821 237.564 251.262C239.14 252.228 240.071 253.422 240.071 254.715C240.071 257.927 234.319 263.174 227.223 263.174C220.127 263.174 214.375 257.927 214.375 254.715C214.375 253.413 215.321 252.21 216.918 251.241C216.942 250.732 217.007 250.221 217.113 249.711L218.109 244.898C219.004 240.577 222.81 237.478 227.223 237.478Z" fill="white"/>
<path d="M248.212 225.447C248.212 240.083 239.085 253.383 227.827 253.383C216.568 253.383 207.441 240.083 207.441 225.447C207.441 210.811 216.568 200.381 227.827 200.381C239.085 200.381 248.212 210.811 248.212 225.447Z" fill="white" stroke="black" stroke-width="2" stroke-linecap="round" stroke-linejoin="round"/>
<path d="M103.437 270.417C103.437 270.417 100.246 278.449 101.167 283.586C102.582 291.476 139.711 286.455 139.711 286.455L178.255 283.586L176.753 271.179C175.858 263.785 170.492 257.492 162.899 254.931L152.172 251.314C151.07 250.942 149.906 250.752 148.733 250.752H130.445C129.196 250.752 127.959 250.967 126.796 251.386L116.971 254.931C109.794 257.521 104.645 263.413 103.437 270.417Z" fill="#FEDB9E" stroke="black" stroke-width="2" stroke-linecap="round" stroke-linejoin="round"/>
<path fill-rule="evenodd" clip-rule="evenodd" d="M139.715 237.478C144.128 237.478 147.934 240.577 148.829 244.898L149.873 249.939C149.964 250.379 150.025 250.821 150.056 251.262C151.632 252.228 152.563 253.422 152.563 254.715C152.563 257.927 146.811 263.174 139.715 263.174C132.619 263.174 126.867 257.927 126.867 254.715C126.867 253.413 127.813 252.21 129.41 251.241C129.435 250.732 129.499 250.221 129.605 249.711L130.602 244.898C131.496 240.577 135.303 237.478 139.715 237.478Z" fill="#FEDB9E"/>
<path d="M160.705 225.447C160.705 240.083 151.578 253.383 140.319 253.383C129.06 253.383 119.934 240.083 119.934 225.447C119.934 210.811 129.06 200.381 140.319 200.381C151.578 200.381 160.705 210.811 160.705 225.447Z" fill="#FEDB9E" stroke="black" stroke-width="2" stroke-linecap="round" stroke-linejoin="round"/>
<path fill-rule="evenodd" clip-rule="evenodd" d="M127.766 313.186C126.469 305.956 130.962 294.652 130.962 294.652C132.661 284.794 139.909 276.501 150.009 272.857L163.838 267.868C165.474 267.277 167.215 266.975 168.973 266.975H194.712C196.363 266.975 198.002 267.242 199.552 267.765L214.65 272.857C225.337 276.461 232.888 285.317 234.148 295.725C234.148 295.725 237.644 306.457 236.262 313.186" fill="#BAC4FA"/>
<path d="M127.766 313.186C126.469 305.956 130.962 294.652 130.962 294.652C132.661 284.794 139.909 276.501 150.009 272.857L163.838 267.868C165.474 267.277 167.215 266.975 168.973 266.975H194.712C196.363 266.975 198.002 267.242 199.552 267.765L214.65 272.857C225.337 276.461 232.888 285.317 234.148 295.725C234.148 295.725 237.644 306.457 236.262 313.186C233.204 328.061 203.94 328.202 181.436 328.061C159.361 327.922 130.306 327.343 127.766 313.186Z" fill="#BAC4FA"/>
<path fill-rule="evenodd" clip-rule="evenodd" d="M127.766 313.186C126.469 305.956 130.962 294.652 130.962 294.652C132.661 284.794 139.909 276.501 150.009 272.857L163.838 267.868C165.474 267.277 167.215 266.975 168.973 266.975H194.712C196.363 266.975 198.002 267.242 199.552 267.765L214.65 272.857C225.337 276.461 232.888 285.317 234.148 295.725C234.148 295.725 237.644 306.457 236.262 313.186" stroke="black" stroke-width="2" stroke-linecap="round" stroke-linejoin="round"/>
<path d="M127.766 313.186C126.469 305.956 130.962 294.652 130.962 294.652C132.661 284.794 139.909 276.501 150.009 272.857L163.838 267.868C165.474 267.277 167.215 266.975 168.973 266.975H194.712C196.363 266.975 198.002 267.242 199.552 267.765L214.65 272.857C225.337 276.461 232.888 285.317 234.148 295.725C234.148 295.725 237.644 306.457 236.262 313.186C233.204 328.061 203.94 328.202 181.436 328.061C159.361 327.922 130.306 327.343 127.766 313.186Z" stroke="black" stroke-width="2" stroke-linecap="round" stroke-linejoin="round"/>
<path fill-rule="evenodd" clip-rule="evenodd" d="M182.016 247.885C188.227 247.885 193.583 252.246 194.843 258.327L196.312 265.422C196.441 266.042 196.526 266.664 196.57 267.285C198.788 268.644 200.099 270.325 200.099 272.144C200.099 276.664 192.003 284.05 182.016 284.05C172.029 284.05 163.934 276.664 163.934 272.144C163.934 270.311 165.264 268.619 167.512 267.254C167.547 266.538 167.638 265.819 167.786 265.101L169.189 258.327C170.449 252.246 175.806 247.885 182.016 247.885Z" fill="#BAC4FA"/>
<path d="M211.558 230.509C211.558 251.109 198.712 270.677 182.867 270.677C167.021 270.677 154.176 251.109 154.176 230.509C154.176 209.91 167.021 196.08 182.867 196.08C198.712 196.08 211.558 209.91 211.558 230.509Z" fill="#BAC4FA" stroke="black" stroke-width="2" stroke-linecap="round" stroke-linejoin="round"/>
<path d="M46.4665 410.38C45.0332 410.38 43.8165 410.063 42.8165 409.43C41.8165 408.797 41.0532 407.917 40.5265 406.79C40.0065 405.663 39.7465 404.36 39.7465 402.88C39.7465 401.4 40.0065 400.097 40.5265 398.97C41.0532 397.843 41.8165 396.963 42.8165 396.33C43.8165 395.697 45.0332 395.38 46.4665 395.38C48.1332 395.38 49.5032 395.803 50.5765 396.65C51.6565 397.497 52.3998 398.637 52.8065 400.07L50.9965 400.55C50.7032 399.477 50.1798 398.63 49.4265 398.01C48.6732 397.39 47.6865 397.08 46.4665 397.08C45.3932 397.08 44.4998 397.323 43.7865 397.81C43.0732 398.297 42.5365 398.977 42.1765 399.85C41.8165 400.717 41.6332 401.727 41.6265 402.88C41.6198 404.027 41.7965 405.037 42.1565 405.91C42.5165 406.777 43.0565 407.457 43.7765 407.95C44.4965 408.437 45.3932 408.68 46.4665 408.68C47.6865 408.68 48.6732 408.37 49.4265 407.75C50.1798 407.123 50.7032 406.277 50.9965 405.21L52.8065 405.69C52.3998 407.117 51.6565 408.257 50.5765 409.11C49.5032 409.957 48.1332 410.38 46.4665 410.38ZM59.5996 410.38C58.5263 410.38 57.5996 410.137 56.8196 409.65C56.0463 409.163 55.4496 408.49 55.0296 407.63C54.6096 406.77 54.3996 405.783 54.3996 404.67C54.3996 403.537 54.6129 402.543 55.0396 401.69C55.4663 400.837 56.0696 400.173 56.8496 399.7C57.6296 399.22 58.5463 398.98 59.5996 398.98C60.6796 398.98 61.6096 399.223 62.3896 399.71C63.1696 400.19 63.7663 400.86 64.1796 401.72C64.5996 402.573 64.8096 403.557 64.8096 404.67C64.8096 405.797 64.5996 406.79 64.1796 407.65C63.7596 408.503 63.1596 409.173 62.3796 409.66C61.5996 410.14 60.6729 410.38 59.5996 410.38ZM59.5996 408.69C60.7196 408.69 61.5529 408.317 62.0996 407.57C62.6463 406.823 62.9196 405.857 62.9196 404.67C62.9196 403.45 62.6429 402.48 62.0896 401.76C61.5363 401.033 60.7063 400.67 59.5996 400.67C58.8463 400.67 58.2263 400.84 57.7396 401.18C57.2529 401.52 56.8896 401.99 56.6496 402.59C56.4096 403.19 56.2896 403.883 56.2896 404.67C56.2896 405.883 56.5696 406.857 57.1296 407.59C57.6896 408.323 58.5129 408.69 59.5996 408.69ZM79.9213 410.08L79.9313 403.17C79.9313 402.363 79.7147 401.733 79.2813 401.28C78.8547 400.82 78.298 400.59 77.6113 400.59C77.2113 400.59 76.8313 400.683 76.4713 400.87C76.1113 401.05 75.818 401.337 75.5913 401.73C75.3647 402.117 75.2513 402.613 75.2513 403.22L74.3113 402.84C74.298 402.073 74.4547 401.403 74.7813 400.83C75.1147 400.25 75.568 399.8 76.1413 399.48C76.7147 399.16 77.3613 399 78.0813 399C79.208 399 80.0947 399.343 80.7413 400.03C81.388 400.71 81.7113 401.627 81.7113 402.78L81.7013 410.08H79.9213ZM67.0013 410.08V399.28H68.5913V402.17H68.7913V410.08H67.0013ZM73.4713 410.08L73.4813 403.24C73.4813 402.413 73.268 401.767 72.8413 401.3C72.4147 400.827 71.848 400.59 71.1413 400.59C70.4413 400.59 69.8747 400.83 69.4413 401.31C69.008 401.79 68.7913 402.427 68.7913 403.22L67.8513 402.66C67.8513 401.96 68.018 401.333 68.3513 400.78C68.6847 400.227 69.138 399.793 69.7113 399.48C70.2847 399.16 70.9347 399 71.6613 399C72.388 399 73.0213 399.153 73.5613 399.46C74.1013 399.767 74.518 400.207 74.8113 400.78C75.1047 401.347 75.2513 402.023 75.2513 402.81L75.2413 410.08H73.4713ZM97.226 410.08L97.236 403.17C97.236 402.363 97.0193 401.733 96.586 401.28C96.1593 400.82 95.6027 400.59 94.916 400.59C94.516 400.59 94.136 400.683 93.776 400.87C93.416 401.05 93.1227 401.337 92.896 401.73C92.6693 402.117 92.556 402.613 92.556 403.22L91.616 402.84C91.6027 402.073 91.7593 401.403 92.086 400.83C92.4193 400.25 92.8727 399.8 93.446 399.48C94.0193 399.16 94.666 399 95.386 399C96.5127 399 97.3993 399.343 98.046 400.03C98.6927 400.71 99.016 401.627 99.016 402.78L99.006 410.08H97.226ZM84.306 410.08V399.28H85.896V402.17H86.096V410.08H84.306ZM90.776 410.08L90.786 403.24C90.786 402.413 90.5727 401.767 90.146 401.3C89.7193 400.827 89.1527 400.59 88.446 400.59C87.746 400.59 87.1793 400.83 86.746 401.31C86.3127 401.79 86.096 402.427 86.096 403.22L85.156 402.66C85.156 401.96 85.3227 401.333 85.656 400.78C85.9893 400.227 86.4427 399.793 87.016 399.48C87.5893 399.16 88.2393 399 88.966 399C89.6927 399 90.326 399.153 90.866 399.46C91.406 399.767 91.8227 400.207 92.116 400.78C92.4093 401.347 92.556 402.023 92.556 402.81L92.546 410.08H90.776ZM105.721 410.36C105.027 410.36 104.431 410.25 103.931 410.03C103.437 409.81 103.027 409.517 102.701 409.15C102.374 408.783 102.117 408.377 101.931 407.93C101.744 407.483 101.611 407.027 101.531 406.56C101.457 406.093 101.421 405.657 101.421 405.25V399.28H103.221V404.69C103.221 405.197 103.267 405.687 103.361 406.16C103.454 406.633 103.611 407.06 103.831 407.44C104.057 407.82 104.357 408.12 104.731 408.34C105.111 408.56 105.584 408.67 106.151 408.67C106.597 408.67 107.004 408.593 107.371 408.44C107.737 408.287 108.051 408.06 108.311 407.76C108.571 407.453 108.771 407.067 108.911 406.6C109.051 406.133 109.121 405.59 109.121 404.97L110.291 405.33C110.291 406.37 110.101 407.267 109.721 408.02C109.347 408.773 108.817 409.353 108.131 409.76C107.451 410.16 106.647 410.36 105.721 410.36ZM109.321 410.08V407.19H109.121V399.28H110.911V410.08H109.321ZM121.401 410.08V404.67C121.401 404.157 121.354 403.663 121.261 403.19C121.174 402.717 121.017 402.293 120.791 401.92C120.571 401.54 120.271 401.24 119.891 401.02C119.517 400.8 119.044 400.69 118.471 400.69C118.024 400.69 117.617 400.767 117.251 400.92C116.891 401.067 116.581 401.293 116.321 401.6C116.061 401.907 115.857 402.293 115.711 402.76C115.571 403.22 115.501 403.763 115.501 404.39L114.331 404.03C114.331 402.983 114.517 402.087 114.891 401.34C115.271 400.587 115.801 400.01 116.481 399.61C117.167 399.203 117.974 399 118.901 399C119.601 399 120.197 399.11 120.691 399.33C121.184 399.55 121.594 399.843 121.921 400.21C122.247 400.57 122.504 400.977 122.691 401.43C122.877 401.877 123.007 402.333 123.081 402.8C123.161 403.26 123.201 403.697 123.201 404.11V410.08H121.401ZM113.701 410.08V399.28H115.301V402.17H115.501V410.08H113.701ZM126 397.37V395.53H127.78V397.37H126ZM126 410.08V399.28H127.78V410.08H126ZM136.811 410.08C136.171 410.207 135.538 410.257 134.911 410.23C134.291 410.21 133.738 410.087 133.251 409.86C132.764 409.627 132.394 409.267 132.141 408.78C131.928 408.353 131.811 407.923 131.791 407.49C131.778 407.05 131.771 406.553 131.771 406V396.28H133.551V405.92C133.551 406.36 133.554 406.737 133.561 407.05C133.574 407.363 133.644 407.633 133.771 407.86C134.011 408.287 134.391 408.537 134.911 408.61C135.438 408.683 136.071 408.663 136.811 408.55V410.08ZM129.581 400.75V399.28H136.811V400.75H129.581ZM140.211 414.88L142.301 409.2L142.331 410.88L137.611 399.28H139.481L143.181 408.61H142.541L146.011 399.28H147.821L141.941 414.88H140.211ZM158.076 410.38C157.003 410.38 156.076 410.137 155.296 409.65C154.523 409.163 153.926 408.49 153.506 407.63C153.086 406.77 152.876 405.783 152.876 404.67C152.876 403.537 153.09 402.543 153.516 401.69C153.943 400.837 154.546 400.173 155.326 399.7C156.106 399.22 157.023 398.98 158.076 398.98C159.156 398.98 160.086 399.223 160.866 399.71C161.646 400.19 162.243 400.86 162.656 401.72C163.076 402.573 163.286 403.557 163.286 404.67C163.286 405.797 163.076 406.79 162.656 407.65C162.236 408.503 161.636 409.173 160.856 409.66C160.076 410.14 159.15 410.38 158.076 410.38ZM158.076 408.69C159.196 408.69 160.03 408.317 160.576 407.57C161.123 406.823 161.396 405.857 161.396 404.67C161.396 403.45 161.12 402.48 160.566 401.76C160.013 401.033 159.183 400.67 158.076 400.67C157.323 400.67 156.703 400.84 156.216 401.18C155.73 401.52 155.366 401.99 155.126 402.59C154.886 403.19 154.766 403.883 154.766 404.67C154.766 405.883 155.046 406.857 155.606 407.59C156.166 408.323 156.99 408.69 158.076 408.69ZM166.518 410.08V398.69C166.518 398.41 166.531 398.127 166.558 397.84C166.585 397.547 166.645 397.263 166.738 396.99C166.831 396.71 166.985 396.453 167.198 396.22C167.445 395.947 167.715 395.753 168.008 395.64C168.301 395.52 168.598 395.447 168.898 395.42C169.205 395.393 169.495 395.38 169.768 395.38H171.138V396.86H169.868C169.341 396.86 168.948 396.99 168.688 397.25C168.428 397.503 168.298 397.89 168.298 398.41V410.08H166.518ZM164.688 400.75V399.28H171.138V400.75H164.688ZM184.428 410.08V404.67C184.428 404.157 184.381 403.663 184.288 403.19C184.201 402.717 184.045 402.293 183.818 401.92C183.598 401.54 183.298 401.24 182.918 401.02C182.545 400.8 182.071 400.69 181.498 400.69C181.051 400.69 180.645 400.767 180.278 400.92C179.918 401.067 179.608 401.293 179.348 401.6C179.088 401.907 178.885 402.293 178.738 402.76C178.598 403.22 178.528 403.763 178.528 404.39L177.358 404.03C177.358 402.983 177.545 402.087 177.918 401.34C178.298 400.587 178.828 400.01 179.508 399.61C180.195 399.203 181.001 399 181.928 399C182.628 399 183.225 399.11 183.718 399.33C184.211 399.55 184.621 399.843 184.948 400.21C185.275 400.57 185.531 400.977 185.718 401.43C185.905 401.877 186.035 402.333 186.108 402.8C186.188 403.26 186.228 403.697 186.228 404.11V410.08H184.428ZM176.728 410.08V395.68H178.328V403.63H178.528V410.08H176.728ZM189.028 397.37V395.53H190.808V397.37H189.028ZM189.028 410.08V399.28H190.808V410.08H189.028ZM198.178 415.18C197.612 415.18 197.058 415.093 196.518 414.92C195.978 414.747 195.482 414.483 195.028 414.13C194.582 413.783 194.208 413.343 193.908 412.81L195.538 411.95C195.805 412.477 196.182 412.86 196.668 413.1C197.162 413.34 197.668 413.46 198.188 413.46C198.875 413.46 199.445 413.333 199.898 413.08C200.352 412.833 200.685 412.463 200.898 411.97C201.118 411.477 201.225 410.863 201.218 410.13V407.18H201.428V399.28H203.008V410.15C203.008 410.443 202.998 410.727 202.978 411C202.965 411.273 202.932 411.543 202.878 411.81C202.738 412.577 202.462 413.207 202.048 413.7C201.635 414.2 201.102 414.57 200.448 414.81C199.795 415.057 199.038 415.18 198.178 415.18ZM198.048 410.38C197.042 410.38 196.178 410.13 195.458 409.63C194.738 409.123 194.182 408.44 193.788 407.58C193.402 406.72 193.208 405.75 193.208 404.67C193.208 403.59 193.402 402.62 193.788 401.76C194.182 400.9 194.738 400.223 195.458 399.73C196.178 399.23 197.038 398.98 198.038 398.98C199.058 398.98 199.915 399.227 200.608 399.72C201.302 400.213 201.825 400.89 202.178 401.75C202.538 402.61 202.718 403.583 202.718 404.67C202.718 405.743 202.538 406.713 202.178 407.58C201.825 408.44 201.302 409.123 200.608 409.63C199.915 410.13 199.062 410.38 198.048 410.38ZM198.268 408.75C198.995 408.75 199.592 408.577 200.058 408.23C200.525 407.877 200.868 407.393 201.088 406.78C201.315 406.16 201.428 405.457 201.428 404.67C201.428 403.87 201.315 403.167 201.088 402.56C200.868 401.947 200.528 401.47 200.068 401.13C199.608 400.783 199.025 400.61 198.318 400.61C197.585 400.61 196.978 400.79 196.498 401.15C196.025 401.51 195.672 401.997 195.438 402.61C195.212 403.223 195.098 403.91 195.098 404.67C195.098 405.437 195.215 406.13 195.448 406.75C195.682 407.363 196.032 407.85 196.498 408.21C196.972 408.57 197.562 408.75 198.268 408.75ZM213.49 410.08V404.67C213.49 404.157 213.444 403.663 213.35 403.19C213.264 402.717 213.107 402.293 212.88 401.92C212.66 401.54 212.36 401.24 211.98 401.02C211.607 400.8 211.134 400.69 210.56 400.69C210.114 400.69 209.707 400.767 209.34 400.92C208.98 401.067 208.67 401.293 208.41 401.6C208.15 401.907 207.947 402.293 207.8 402.76C207.66 403.22 207.59 403.763 207.59 404.39L206.42 404.03C206.42 402.983 206.607 402.087 206.98 401.34C207.36 400.587 207.89 400.01 208.57 399.61C209.257 399.203 210.064 399 210.99 399C211.69 399 212.287 399.11 212.78 399.33C213.274 399.55 213.684 399.843 214.01 400.21C214.337 400.57 214.594 400.977 214.78 401.43C214.967 401.877 215.097 402.333 215.17 402.8C215.25 403.26 215.29 403.697 215.29 404.11V410.08H213.49ZM205.79 410.08V395.68H207.39V403.63H207.59V410.08H205.79ZM217.69 404.51V403.04H223.69V404.51H217.69ZM231.249 410.38C230.235 410.38 229.382 410.13 228.689 409.63C227.995 409.123 227.469 408.44 227.109 407.58C226.755 406.713 226.579 405.743 226.579 404.67C226.579 403.583 226.755 402.61 227.109 401.75C227.469 400.89 227.995 400.213 228.689 399.72C229.389 399.227 230.245 398.98 231.259 398.98C232.259 398.98 233.119 399.23 233.839 399.73C234.565 400.223 235.122 400.9 235.509 401.76C235.895 402.62 236.089 403.59 236.089 404.67C236.089 405.75 235.895 406.72 235.509 407.58C235.122 408.44 234.565 409.123 233.839 409.63C233.119 410.13 232.255 410.38 231.249 410.38ZM226.279 414.88V399.28H227.869V407.23H228.069V414.88H226.279ZM231.029 408.75C231.742 408.75 232.332 408.57 232.799 408.21C233.265 407.85 233.615 407.363 233.849 406.75C234.082 406.13 234.199 405.437 234.199 404.67C234.199 403.91 234.082 403.223 233.849 402.61C233.622 401.997 233.269 401.51 232.789 401.15C232.315 400.79 231.712 400.61 230.979 400.61C230.279 400.61 229.699 400.783 229.239 401.13C228.779 401.47 228.435 401.947 228.209 402.56C227.982 403.167 227.869 403.87 227.869 404.67C227.869 405.457 227.979 406.16 228.199 406.78C228.425 407.393 228.772 407.877 229.239 408.23C229.705 408.577 230.302 408.75 231.029 408.75ZM242.961 410.38C241.901 410.38 240.974 410.147 240.181 409.68C239.394 409.207 238.781 408.55 238.341 407.71C237.901 406.863 237.681 405.877 237.681 404.75C237.681 403.57 237.898 402.55 238.331 401.69C238.764 400.823 239.368 400.157 240.141 399.69C240.921 399.217 241.834 398.98 242.881 398.98C243.968 398.98 244.891 399.23 245.651 399.73C246.418 400.23 246.991 400.943 247.371 401.87C247.758 402.797 247.924 403.9 247.871 405.18H246.071V404.54C246.051 403.213 245.781 402.223 245.261 401.57C244.741 400.91 243.968 400.58 242.941 400.58C241.841 400.58 241.004 400.933 240.431 401.64C239.858 402.347 239.571 403.36 239.571 404.68C239.571 405.953 239.858 406.94 240.431 407.64C241.004 408.34 241.821 408.69 242.881 408.69C243.594 408.69 244.214 408.527 244.741 408.2C245.268 407.873 245.681 407.403 245.981 406.79L247.691 407.38C247.271 408.333 246.638 409.073 245.791 409.6C244.951 410.12 244.008 410.38 242.961 410.38ZM238.971 405.18V403.75H246.951V405.18H238.971ZM250.097 410.08V399.28H251.687V401.89L251.427 401.55C251.554 401.217 251.717 400.91 251.917 400.63C252.124 400.35 252.354 400.12 252.607 399.94C252.887 399.713 253.204 399.54 253.557 399.42C253.911 399.3 254.271 399.23 254.637 399.21C255.004 399.183 255.347 399.207 255.667 399.28V400.95C255.294 400.85 254.884 400.823 254.437 400.87C253.991 400.917 253.577 401.08 253.197 401.36C252.851 401.607 252.581 401.907 252.387 402.26C252.201 402.613 252.071 402.997 251.997 403.41C251.924 403.817 251.887 404.233 251.887 404.66V410.08H250.097ZM258.588 410.08V398.69C258.588 398.41 258.602 398.127 258.628 397.84C258.655 397.547 258.715 397.263 258.808 396.99C258.902 396.71 259.055 396.453 259.268 396.22C259.515 395.947 259.785 395.753 260.078 395.64C260.372 395.52 260.668 395.447 260.968 395.42C261.275 395.393 261.565 395.38 261.838 395.38H263.208V396.86H261.938C261.412 396.86 261.018 396.99 260.758 397.25C260.498 397.503 260.368 397.89 260.368 398.41V410.08H258.588ZM256.758 400.75V399.28H263.208V400.75H256.758ZM269.014 410.38C267.94 410.38 267.014 410.137 266.234 409.65C265.46 409.163 264.864 408.49 264.444 407.63C264.024 406.77 263.814 405.783 263.814 404.67C263.814 403.537 264.027 402.543 264.454 401.69C264.88 400.837 265.484 400.173 266.264 399.7C267.044 399.22 267.96 398.98 269.014 398.98C270.094 398.98 271.024 399.223 271.804 399.71C272.584 400.19 273.18 400.86 273.594 401.72C274.014 402.573 274.224 403.557 274.224 404.67C274.224 405.797 274.014 406.79 273.594 407.65C273.174 408.503 272.574 409.173 271.794 409.66C271.014 410.14 270.087 410.38 269.014 410.38ZM269.014 408.69C270.134 408.69 270.967 408.317 271.514 407.57C272.06 406.823 272.334 405.857 272.334 404.67C272.334 403.45 272.057 402.48 271.504 401.76C270.95 401.033 270.12 400.67 269.014 400.67C268.26 400.67 267.64 400.84 267.154 401.18C266.667 401.52 266.304 401.99 266.064 402.59C265.824 403.19 265.704 403.883 265.704 404.67C265.704 405.883 265.984 406.857 266.544 407.59C267.104 408.323 267.927 408.69 269.014 408.69ZM276.425 410.08V399.28H278.015V401.89L277.755 401.55C277.882 401.217 278.045 400.91 278.245 400.63C278.452 400.35 278.682 400.12 278.935 399.94C279.215 399.713 279.532 399.54 279.885 399.42C280.239 399.3 280.599 399.23 280.965 399.21C281.332 399.183 281.675 399.207 281.995 399.28V400.95C281.622 400.85 281.212 400.823 280.765 400.87C280.319 400.917 279.905 401.08 279.525 401.36C279.179 401.607 278.909 401.907 278.715 402.26C278.529 402.613 278.399 402.997 278.325 403.41C278.252 403.817 278.215 404.233 278.215 404.66V410.08H276.425ZM296.796 410.08L296.806 403.17C296.806 402.363 296.59 401.733 296.156 401.28C295.73 400.82 295.173 400.59 294.486 400.59C294.086 400.59 293.706 400.683 293.346 400.87C292.986 401.05 292.693 401.337 292.466 401.73C292.24 402.117 292.126 402.613 292.126 403.22L291.186 402.84C291.173 402.073 291.33 401.403 291.656 400.83C291.99 400.25 292.443 399.8 293.016 399.48C293.59 399.16 294.236 399 294.956 399C296.083 399 296.97 399.343 297.616 400.03C298.263 400.71 298.586 401.627 298.586 402.78L298.576 410.08H296.796ZM283.876 410.08V399.28H285.466V402.17H285.666V410.08H283.876ZM290.346 410.08L290.356 403.24C290.356 402.413 290.143 401.767 289.716 401.3C289.29 400.827 288.723 400.59 288.016 400.59C287.316 400.59 286.75 400.83 286.316 401.31C285.883 401.79 285.666 402.427 285.666 403.22L284.726 402.66C284.726 401.96 284.893 401.333 285.226 400.78C285.56 400.227 286.013 399.793 286.586 399.48C287.16 399.16 287.81 399 288.536 399C289.263 399 289.896 399.153 290.436 399.46C290.976 399.767 291.393 400.207 291.686 400.78C291.98 401.347 292.126 402.023 292.126 402.81L292.116 410.08H290.346ZM301.391 397.37V395.53H303.171V397.37H301.391ZM301.391 410.08V399.28H303.171V410.08H301.391ZM313.861 410.08V404.67C313.861 404.157 313.815 403.663 313.721 403.19C313.635 402.717 313.478 402.293 313.251 401.92C313.031 401.54 312.731 401.24 312.351 401.02C311.978 400.8 311.505 400.69 310.931 400.69C310.485 400.69 310.078 400.767 309.711 400.92C309.351 401.067 309.041 401.293 308.781 401.6C308.521 401.907 308.318 402.293 308.171 402.76C308.031 403.22 307.961 403.763 307.961 404.39L306.791 404.03C306.791 402.983 306.978 402.087 307.351 401.34C307.731 400.587 308.261 400.01 308.941 399.61C309.628 399.203 310.435 399 311.361 399C312.061 399 312.658 399.11 313.151 399.33C313.645 399.55 314.055 399.843 314.381 400.21C314.708 400.57 314.965 400.977 315.151 401.43C315.338 401.877 315.468 402.333 315.541 402.8C315.621 403.26 315.661 403.697 315.661 404.11V410.08H313.861ZM306.161 410.08V399.28H307.761V402.17H307.961V410.08H306.161ZM322.631 415.18C322.065 415.18 321.511 415.093 320.971 414.92C320.431 414.747 319.935 414.483 319.481 414.13C319.035 413.783 318.661 413.343 318.361 412.81L319.991 411.95C320.258 412.477 320.635 412.86 321.121 413.1C321.615 413.34 322.121 413.46 322.641 413.46C323.328 413.46 323.898 413.333 324.351 413.08C324.805 412.833 325.138 412.463 325.351 411.97C325.571 411.477 325.678 410.863 325.671 410.13V407.18H325.881V399.28H327.461V410.15C327.461 410.443 327.451 410.727 327.431 411C327.418 411.273 327.385 411.543 327.331 411.81C327.191 412.577 326.915 413.207 326.501 413.7C326.088 414.2 325.555 414.57 324.901 414.81C324.248 415.057 323.491 415.18 322.631 415.18ZM322.501 410.38C321.495 410.38 320.631 410.13 319.911 409.63C319.191 409.123 318.635 408.44 318.241 407.58C317.855 406.72 317.661 405.75 317.661 404.67C317.661 403.59 317.855 402.62 318.241 401.76C318.635 400.9 319.191 400.223 319.911 399.73C320.631 399.23 321.491 398.98 322.491 398.98C323.511 398.98 324.368 399.227 325.061 399.72C325.755 400.213 326.278 400.89 326.631 401.75C326.991 402.61 327.171 403.583 327.171 404.67C327.171 405.743 326.991 406.713 326.631 407.58C326.278 408.44 325.755 409.123 325.061 409.63C324.368 410.13 323.515 410.38 322.501 410.38ZM322.721 408.75C323.448 408.75 324.045 408.577 324.511 408.23C324.978 407.877 325.321 407.393 325.541 406.78C325.768 406.16 325.881 405.457 325.881 404.67C325.881 403.87 325.768 403.167 325.541 402.56C325.321 401.947 324.981 401.47 324.521 401.13C324.061 400.783 323.478 400.61 322.771 400.61C322.038 400.61 321.431 400.79 320.951 401.15C320.478 401.51 320.125 401.997 319.891 402.61C319.665 403.223 319.551 403.91 319.551 404.67C319.551 405.437 319.668 406.13 319.901 406.75C320.135 407.363 320.485 407.85 320.951 408.21C321.425 408.57 322.015 408.75 322.721 408.75ZM42.0699 442.08V427.68H46.5099C46.6566 427.68 46.9133 427.683 47.2799 427.69C47.6466 427.697 47.9966 427.723 48.3299 427.77C49.4433 427.917 50.3733 428.323 51.1199 428.99C51.8733 429.65 52.4399 430.49 52.8199 431.51C53.1999 432.53 53.3899 433.653 53.3899 434.88C53.3899 436.107 53.1999 437.23 52.8199 438.25C52.4399 439.27 51.8733 440.113 51.1199 440.78C50.3733 441.44 49.4433 441.843 48.3299 441.99C47.9966 442.03 47.6433 442.057 47.2699 442.07C46.9033 442.077 46.6499 442.08 46.5099 442.08H42.0699ZM43.8999 440.38H46.5099C46.7633 440.38 47.0466 440.373 47.3599 440.36C47.6733 440.34 47.9466 440.31 48.1799 440.27C48.9666 440.123 49.6033 439.793 50.0899 439.28C50.5766 438.767 50.9333 438.127 51.1599 437.36C51.3866 436.593 51.4999 435.767 51.4999 434.88C51.4999 433.973 51.3833 433.137 51.1499 432.37C50.9233 431.603 50.5666 430.967 50.0799 430.46C49.5933 429.953 48.9599 429.63 48.1799 429.49C47.9466 429.443 47.6699 429.413 47.3499 429.4C47.0299 429.387 46.7499 429.38 46.5099 429.38H43.8999V440.38ZM54.2926 442.08L59.1126 427.68H61.5926L66.4126 442.08H64.5626L60.0526 428.72H60.6126L56.1426 442.08H54.2926ZM56.6126 438.71V437.04H64.0926V438.71H56.6126ZM73.7321 442.38C72.2988 442.38 71.0821 442.063 70.0821 441.43C69.0821 440.797 68.3188 439.917 67.7921 438.79C67.2721 437.663 67.0121 436.36 67.0121 434.88C67.0121 433.4 67.2721 432.097 67.7921 430.97C68.3188 429.843 69.0821 428.963 70.0821 428.33C71.0821 427.697 72.2988 427.38 73.7321 427.38C75.1721 427.38 76.3921 427.697 77.3921 428.33C78.3921 428.963 79.1521 429.843 79.6721 430.97C80.1921 432.097 80.4521 433.4 80.4521 434.88C80.4521 436.36 80.1921 437.663 79.6721 438.79C79.1521 439.917 78.3921 440.797 77.3921 441.43C76.3921 442.063 75.1721 442.38 73.7321 442.38ZM73.7321 440.68C74.8054 440.687 75.6988 440.447 76.4121 439.96C77.1321 439.467 77.6688 438.783 78.0221 437.91C78.3821 437.037 78.5621 436.027 78.5621 434.88C78.5621 433.727 78.3821 432.717 78.0221 431.85C77.6688 430.983 77.1321 430.307 76.4121 429.82C75.6988 429.333 74.8054 429.087 73.7321 429.08C72.6588 429.073 71.7654 429.313 71.0521 429.8C70.3454 430.287 69.8121 430.967 69.4521 431.84C69.0921 432.713 68.9088 433.727 68.9021 434.88C68.8954 436.027 69.0721 437.033 69.4321 437.9C69.7921 438.767 70.3288 439.447 71.0421 439.94C71.7621 440.427 72.6588 440.673 73.7321 440.68ZM86.5405 442.37C85.2539 442.37 84.1972 442.09 83.3705 441.53C82.5505 440.963 82.0472 440.173 81.8605 439.16L83.6805 438.87C83.8272 439.457 84.1639 439.923 84.6905 440.27C85.2172 440.61 85.8705 440.78 86.6505 440.78C87.3905 440.78 87.9705 440.627 88.3905 440.32C88.8105 440.013 89.0205 439.597 89.0205 439.07C89.0205 438.763 88.9505 438.517 88.8105 438.33C88.6705 438.137 88.3805 437.957 87.9405 437.79C87.5072 437.623 86.8505 437.423 85.9705 437.19C85.0172 436.937 84.2672 436.673 83.7205 436.4C83.1739 436.127 82.7839 435.81 82.5505 435.45C82.3172 435.09 82.2005 434.653 82.2005 434.14C82.2005 433.507 82.3739 432.953 82.7205 432.48C83.0672 432 83.5505 431.63 84.1705 431.37C84.7972 431.11 85.5239 430.98 86.3505 430.98C87.1705 430.98 87.9039 431.11 88.5505 431.37C89.1972 431.63 89.7172 432 90.1105 432.48C90.5105 432.953 90.7472 433.507 90.8205 434.14L89.0005 434.47C88.9139 433.89 88.6339 433.433 88.1605 433.1C87.6939 432.767 87.0905 432.59 86.3505 432.57C85.6505 432.543 85.0805 432.667 84.6405 432.94C84.2072 433.213 83.9905 433.583 83.9905 434.05C83.9905 434.31 84.0705 434.533 84.2305 434.72C84.3972 434.907 84.7005 435.083 85.1405 435.25C85.5872 435.417 86.2339 435.607 87.0805 435.82C88.0339 436.06 88.7839 436.323 89.3305 436.61C89.8839 436.89 90.2772 437.223 90.5105 437.61C90.7439 437.99 90.8605 438.46 90.8605 439.02C90.8605 440.06 90.4772 440.88 89.7105 441.48C88.9439 442.073 87.8872 442.37 86.5405 442.37ZM92.866 444.32L92.976 443.49C93.256 443.51 93.466 443.457 93.606 443.33C93.746 443.203 93.836 443.03 93.876 442.81C93.916 442.59 93.9227 442.347 93.896 442.08H92.866V439.82H94.826V442.38C94.826 443.08 94.6527 443.607 94.306 443.96C93.966 444.313 93.486 444.433 92.866 444.32ZM103.666 442.08V430.69C103.666 430.41 103.68 430.127 103.706 429.84C103.733 429.547 103.793 429.263 103.886 428.99C103.98 428.71 104.133 428.453 104.346 428.22C104.593 427.947 104.863 427.753 105.156 427.64C105.45 427.52 105.746 427.447 106.046 427.42C106.353 427.393 106.643 427.38 106.916 427.38H108.286V428.86H107.016C106.49 428.86 106.096 428.99 105.836 429.25C105.576 429.503 105.446 429.89 105.446 430.41V442.08H103.666ZM101.836 432.75V431.28H108.286V432.75H101.836ZM114.092 442.38C113.018 442.38 112.092 442.137 111.312 441.65C110.538 441.163 109.942 440.49 109.522 439.63C109.102 438.77 108.892 437.783 108.892 436.67C108.892 435.537 109.105 434.543 109.532 433.69C109.958 432.837 110.562 432.173 111.342 431.7C112.122 431.22 113.038 430.98 114.092 430.98C115.172 430.98 116.102 431.223 116.882 431.71C117.662 432.19 118.258 432.86 118.672 433.72C119.092 434.573 119.302 435.557 119.302 436.67C119.302 437.797 119.092 438.79 118.672 439.65C118.252 440.503 117.652 441.173 116.872 441.66C116.092 442.14 115.165 442.38 114.092 442.38ZM114.092 440.69C115.212 440.69 116.045 440.317 116.592 439.57C117.138 438.823 117.412 437.857 117.412 436.67C117.412 435.45 117.135 434.48 116.582 433.76C116.028 433.033 115.198 432.67 114.092 432.67C113.338 432.67 112.718 432.84 112.232 433.18C111.745 433.52 111.382 433.99 111.142 434.59C110.902 435.19 110.782 435.883 110.782 436.67C110.782 437.883 111.062 438.857 111.622 439.59C112.182 440.323 113.005 440.69 114.092 440.69ZM125.604 442.36C124.91 442.36 124.314 442.25 123.814 442.03C123.32 441.81 122.91 441.517 122.584 441.15C122.257 440.783 122 440.377 121.814 439.93C121.627 439.483 121.494 439.027 121.414 438.56C121.34 438.093 121.304 437.657 121.304 437.25V431.28H123.104V436.69C123.104 437.197 123.15 437.687 123.244 438.16C123.337 438.633 123.494 439.06 123.714 439.44C123.94 439.82 124.24 440.12 124.614 440.34C124.994 440.56 125.467 440.67 126.034 440.67C126.48 440.67 126.887 440.593 127.254 440.44C127.62 440.287 127.934 440.06 128.194 439.76C128.454 439.453 128.654 439.067 128.794 438.6C128.934 438.133 129.004 437.59 129.004 436.97L130.174 437.33C130.174 438.37 129.984 439.267 129.604 440.02C129.23 440.773 128.7 441.353 128.014 441.76C127.334 442.16 126.53 442.36 125.604 442.36ZM129.204 442.08V439.19H129.004V431.28H130.794V442.08H129.204ZM141.283 442.08V436.67C141.283 436.157 141.237 435.663 141.143 435.19C141.057 434.717 140.9 434.293 140.673 433.92C140.453 433.54 140.153 433.24 139.773 433.02C139.4 432.8 138.927 432.69 138.353 432.69C137.907 432.69 137.5 432.767 137.133 432.92C136.773 433.067 136.463 433.293 136.203 433.6C135.943 433.907 135.74 434.293 135.593 434.76C135.453 435.22 135.383 435.763 135.383 436.39L134.213 436.03C134.213 434.983 134.4 434.087 134.773 433.34C135.153 432.587 135.683 432.01 136.363 431.61C137.05 431.203 137.857 431 138.783 431C139.483 431 140.08 431.11 140.573 431.33C141.067 431.55 141.477 431.843 141.803 432.21C142.13 432.57 142.387 432.977 142.573 433.43C142.76 433.877 142.89 434.333 142.963 434.8C143.043 435.26 143.083 435.697 143.083 436.11V442.08H141.283ZM133.583 442.08V431.28H135.183V434.17H135.383V442.08H133.583ZM149.826 442.38C148.819 442.38 147.956 442.13 147.236 441.63C146.516 441.123 145.959 440.44 145.566 439.58C145.179 438.72 144.986 437.75 144.986 436.67C144.986 435.59 145.179 434.62 145.566 433.76C145.959 432.9 146.516 432.223 147.236 431.73C147.956 431.23 148.816 430.98 149.816 430.98C150.836 430.98 151.692 431.227 152.386 431.72C153.079 432.213 153.602 432.89 153.956 433.75C154.316 434.61 154.496 435.583 154.496 436.67C154.496 437.743 154.316 438.713 153.956 439.58C153.602 440.44 153.079 441.123 152.386 441.63C151.692 442.13 150.839 442.38 149.826 442.38ZM150.046 440.75C150.772 440.75 151.369 440.577 151.836 440.23C152.302 439.877 152.646 439.393 152.866 438.78C153.092 438.16 153.206 437.457 153.206 436.67C153.206 435.87 153.092 435.167 152.866 434.56C152.646 433.947 152.306 433.47 151.846 433.13C151.386 432.783 150.802 432.61 150.096 432.61C149.362 432.61 148.756 432.79 148.276 433.15C147.802 433.51 147.449 433.997 147.216 434.61C146.989 435.223 146.876 435.91 146.876 436.67C146.876 437.437 146.992 438.13 147.226 438.75C147.459 439.363 147.809 439.85 148.276 440.21C148.749 440.57 149.339 440.75 150.046 440.75ZM153.206 442.08V434.13H153.006V427.68H154.796V442.08H153.206ZM162.277 442.38C161.217 442.38 160.291 442.147 159.497 441.68C158.711 441.207 158.097 440.55 157.657 439.71C157.217 438.863 156.997 437.877 156.997 436.75C156.997 435.57 157.214 434.55 157.647 433.69C158.081 432.823 158.684 432.157 159.457 431.69C160.237 431.217 161.151 430.98 162.197 430.98C163.284 430.98 164.207 431.23 164.967 431.73C165.734 432.23 166.307 432.943 166.687 433.87C167.074 434.797 167.241 435.9 167.187 437.18H165.387V436.54C165.367 435.213 165.097 434.223 164.577 433.57C164.057 432.91 163.284 432.58 162.257 432.58C161.157 432.58 160.321 432.933 159.747 433.64C159.174 434.347 158.887 435.36 158.887 436.68C158.887 437.953 159.174 438.94 159.747 439.64C160.321 440.34 161.137 440.69 162.197 440.69C162.911 440.69 163.531 440.527 164.057 440.2C164.584 439.873 164.997 439.403 165.297 438.79L167.007 439.38C166.587 440.333 165.954 441.073 165.107 441.6C164.267 442.12 163.324 442.38 162.277 442.38ZM158.287 437.18V435.75H166.267V437.18H158.287ZM169.414 442.08V431.28H171.004V433.89L170.744 433.55C170.87 433.217 171.034 432.91 171.234 432.63C171.44 432.35 171.67 432.12 171.924 431.94C172.204 431.713 172.52 431.54 172.874 431.42C173.227 431.3 173.587 431.23 173.954 431.21C174.32 431.183 174.664 431.207 174.984 431.28V432.95C174.61 432.85 174.2 432.823 173.754 432.87C173.307 432.917 172.894 433.08 172.514 433.36C172.167 433.607 171.897 433.907 171.704 434.26C171.517 434.613 171.387 434.997 171.314 435.41C171.24 435.817 171.204 436.233 171.204 436.66V442.08H169.414ZM180.564 442.37C179.277 442.37 178.221 442.09 177.394 441.53C176.574 440.963 176.071 440.173 175.884 439.16L177.704 438.87C177.851 439.457 178.187 439.923 178.714 440.27C179.241 440.61 179.894 440.78 180.674 440.78C181.414 440.78 181.994 440.627 182.414 440.32C182.834 440.013 183.044 439.597 183.044 439.07C183.044 438.763 182.974 438.517 182.834 438.33C182.694 438.137 182.404 437.957 181.964 437.79C181.531 437.623 180.874 437.423 179.994 437.19C179.041 436.937 178.291 436.673 177.744 436.4C177.197 436.127 176.807 435.81 176.574 435.45C176.341 435.09 176.224 434.653 176.224 434.14C176.224 433.507 176.397 432.953 176.744 432.48C177.091 432 177.574 431.63 178.194 431.37C178.821 431.11 179.547 430.98 180.374 430.98C181.194 430.98 181.927 431.11 182.574 431.37C183.221 431.63 183.741 432 184.134 432.48C184.534 432.953 184.771 433.507 184.844 434.14L183.024 434.47C182.937 433.89 182.657 433.433 182.184 433.1C181.717 432.767 181.114 432.59 180.374 432.57C179.674 432.543 179.104 432.667 178.664 432.94C178.231 433.213 178.014 433.583 178.014 434.05C178.014 434.31 178.094 434.533 178.254 434.72C178.421 434.907 178.724 435.083 179.164 435.25C179.611 435.417 180.257 435.607 181.104 435.82C182.057 436.06 182.807 436.323 183.354 436.61C183.907 436.89 184.301 437.223 184.534 437.61C184.767 437.99 184.884 438.46 184.884 439.02C184.884 440.06 184.501 440.88 183.734 441.48C182.967 442.073 181.911 442.37 180.564 442.37ZM186.889 444.32L186.999 443.49C187.279 443.51 187.489 443.457 187.629 443.33C187.769 443.203 187.859 443.03 187.899 442.81C187.939 442.59 187.946 442.347 187.919 442.08H186.889V439.82H188.849V442.38C188.849 443.08 188.676 443.607 188.329 443.96C187.989 444.313 187.509 444.433 186.889 444.32ZM198.96 442.08L195.66 431.27L197.43 431.28L199.84 439.18L202.27 431.28H203.84L206.26 439.18L208.68 431.28H210.44L207.14 442.08H205.66L203.05 433.87L200.44 442.08H198.96ZM216.535 442.38C215.475 442.38 214.548 442.147 213.755 441.68C212.968 441.207 212.355 440.55 211.915 439.71C211.475 438.863 211.255 437.877 211.255 436.75C211.255 435.57 211.472 434.55 211.905 433.69C212.338 432.823 212.942 432.157 213.715 431.69C214.495 431.217 215.408 430.98 216.455 430.98C217.542 430.98 218.465 431.23 219.225 431.73C219.992 432.23 220.565 432.943 220.945 433.87C221.332 434.797 221.498 435.9 221.445 437.18H219.645V436.54C219.625 435.213 219.355 434.223 218.835 433.57C218.315 432.91 217.542 432.58 216.515 432.58C215.415 432.58 214.578 432.933 214.005 433.64C213.432 434.347 213.145 435.36 213.145 436.68C213.145 437.953 213.432 438.94 214.005 439.64C214.578 440.34 215.395 440.69 216.455 440.69C217.168 440.69 217.788 440.527 218.315 440.2C218.842 439.873 219.255 439.403 219.555 438.79L221.265 439.38C220.845 440.333 220.212 441.073 219.365 441.6C218.525 442.12 217.582 442.38 216.535 442.38ZM212.545 437.18V435.75H220.525V437.18H212.545ZM228.631 442.38C227.618 442.38 226.765 442.13 226.071 441.63C225.378 441.123 224.851 440.44 224.491 439.58C224.138 438.713 223.961 437.743 223.961 436.67C223.961 435.583 224.138 434.61 224.491 433.75C224.851 432.89 225.378 432.213 226.071 431.72C226.771 431.227 227.628 430.98 228.641 430.98C229.641 430.98 230.501 431.23 231.221 431.73C231.948 432.223 232.505 432.9 232.891 433.76C233.278 434.62 233.471 435.59 233.471 436.67C233.471 437.75 233.278 438.72 232.891 439.58C232.505 440.44 231.948 441.123 231.221 441.63C230.501 442.13 229.638 442.38 228.631 442.38ZM223.661 442.08V427.68H225.451V434.13H225.251V442.08H223.661ZM228.411 440.75C229.125 440.75 229.715 440.57 230.181 440.21C230.648 439.85 230.998 439.363 231.231 438.75C231.465 438.13 231.581 437.437 231.581 436.67C231.581 435.91 231.465 435.223 231.231 434.61C231.005 433.997 230.651 433.51 230.171 433.15C229.698 432.79 229.095 432.61 228.361 432.61C227.661 432.61 227.081 432.783 226.621 433.13C226.161 433.47 225.818 433.947 225.591 434.56C225.365 435.167 225.251 435.87 225.251 436.67C225.251 437.457 225.361 438.16 225.581 438.78C225.808 439.393 226.155 439.877 226.621 440.23C227.088 440.577 227.685 440.75 228.411 440.75ZM239.614 442.36C238.9 442.36 238.237 442.23 237.624 441.97C237.01 441.703 236.48 441.33 236.034 440.85C235.594 440.363 235.27 439.787 235.064 439.12L236.774 438.63C236.994 439.297 237.36 439.803 237.874 440.15C238.387 440.497 238.964 440.667 239.604 440.66C240.19 440.647 240.697 440.513 241.124 440.26C241.557 440 241.89 439.647 242.124 439.2C242.364 438.753 242.484 438.237 242.484 437.65C242.484 436.757 242.217 436.033 241.684 435.48C241.15 434.92 240.45 434.64 239.584 434.64C239.344 434.64 239.09 434.673 238.824 434.74C238.564 434.807 238.32 434.9 238.094 435.02L237.234 433.61L242.574 428.78L242.804 429.38H235.634V427.68H244.124V429.39L239.574 433.75L239.554 433.12C240.507 433.053 241.34 433.21 242.054 433.59C242.767 433.97 243.32 434.513 243.714 435.22C244.114 435.927 244.314 436.737 244.314 437.65C244.314 438.57 244.107 439.383 243.694 440.09C243.28 440.797 242.72 441.353 242.014 441.76C241.307 442.16 240.507 442.36 239.614 442.36ZM255.598 442.38C254.538 442.38 253.611 442.147 252.818 441.68C252.031 441.207 251.418 440.55 250.978 439.71C250.538 438.863 250.318 437.877 250.318 436.75C250.318 435.57 250.534 434.55 250.968 433.69C251.401 432.823 252.004 432.157 252.778 431.69C253.558 431.217 254.471 430.98 255.518 430.98C256.604 430.98 257.528 431.23 258.288 431.73C259.054 432.23 259.628 432.943 260.008 433.87C260.394 434.797 260.561 435.9 260.508 437.18H258.708V436.54C258.688 435.213 258.418 434.223 257.898 433.57C257.378 432.91 256.604 432.58 255.578 432.58C254.478 432.58 253.641 432.933 253.068 433.64C252.494 434.347 252.208 435.36 252.208 436.68C252.208 437.953 252.494 438.94 253.068 439.64C253.641 440.34 254.458 440.69 255.518 440.69C256.231 440.69 256.851 440.527 257.378 440.2C257.904 439.873 258.318 439.403 258.618 438.79L260.328 439.38C259.908 440.333 259.274 441.073 258.428 441.6C257.588 442.12 256.644 442.38 255.598 442.38ZM251.608 437.18V435.75H259.588V437.18H251.608ZM261.143 442.08L265.273 436.62L261.233 431.28H263.353L266.313 435.24L269.243 431.28H271.363L267.323 436.62L271.463 442.08H269.333L266.313 438L263.273 442.08H261.143ZM278.026 442.38C277.013 442.38 276.159 442.13 275.466 441.63C274.773 441.123 274.246 440.44 273.886 439.58C273.533 438.713 273.356 437.743 273.356 436.67C273.356 435.583 273.533 434.61 273.886 433.75C274.246 432.89 274.773 432.213 275.466 431.72C276.166 431.227 277.023 430.98 278.036 430.98C279.036 430.98 279.896 431.23 280.616 431.73C281.343 432.223 281.899 432.9 282.286 433.76C282.673 434.62 282.866 435.59 282.866 436.67C282.866 437.75 282.673 438.72 282.286 439.58C281.899 440.44 281.343 441.123 280.616 441.63C279.896 442.13 279.033 442.38 278.026 442.38ZM273.056 446.88V431.28H274.646V439.23H274.846V446.88H273.056ZM277.806 440.75C278.519 440.75 279.109 440.57 279.576 440.21C280.043 439.85 280.393 439.363 280.626 438.75C280.859 438.13 280.976 437.437 280.976 436.67C280.976 435.91 280.859 435.223 280.626 434.61C280.399 433.997 280.046 433.51 279.566 433.15C279.093 432.79 278.489 432.61 277.756 432.61C277.056 432.61 276.476 432.783 276.016 433.13C275.556 433.47 275.213 433.947 274.986 434.56C274.759 435.167 274.646 435.87 274.646 436.67C274.646 437.457 274.756 438.16 274.976 438.78C275.203 439.393 275.549 439.877 276.016 440.23C276.483 440.577 277.079 440.75 277.806 440.75ZM289.738 442.38C288.678 442.38 287.752 442.147 286.958 441.68C286.172 441.207 285.558 440.55 285.118 439.71C284.678 438.863 284.458 437.877 284.458 436.75C284.458 435.57 284.675 434.55 285.108 433.69C285.542 432.823 286.145 432.157 286.918 431.69C287.698 431.217 288.612 430.98 289.658 430.98C290.745 430.98 291.668 431.23 292.428 431.73C293.195 432.23 293.768 432.943 294.148 433.87C294.535 434.797 294.702 435.9 294.648 437.18H292.848V436.54C292.828 435.213 292.558 434.223 292.038 433.57C291.518 432.91 290.745 432.58 289.718 432.58C288.618 432.58 287.782 432.933 287.208 433.64C286.635 434.347 286.348 435.36 286.348 436.68C286.348 437.953 286.635 438.94 287.208 439.64C287.782 440.34 288.598 440.69 289.658 440.69C290.372 440.69 290.992 440.527 291.518 440.2C292.045 439.873 292.458 439.403 292.758 438.79L294.468 439.38C294.048 440.333 293.415 441.073 292.568 441.6C291.728 442.12 290.785 442.38 289.738 442.38ZM285.748 437.18V435.75H293.728V437.18H285.748ZM296.875 442.08V431.28H298.465V433.89L298.205 433.55C298.331 433.217 298.495 432.91 298.695 432.63C298.901 432.35 299.131 432.12 299.385 431.94C299.665 431.713 299.981 431.54 300.335 431.42C300.688 431.3 301.048 431.23 301.415 431.21C301.781 431.183 302.125 431.207 302.445 431.28V432.95C302.071 432.85 301.661 432.823 301.215 432.87C300.768 432.917 300.355 433.08 299.975 433.36C299.628 433.607 299.358 433.907 299.165 434.26C298.978 434.613 298.848 434.997 298.775 435.41C298.701 435.817 298.665 436.233 298.665 436.66V442.08H296.875ZM310.366 442.08C309.726 442.207 309.092 442.257 308.466 442.23C307.846 442.21 307.292 442.087 306.806 441.86C306.319 441.627 305.949 441.267 305.696 440.78C305.482 440.353 305.366 439.923 305.346 439.49C305.332 439.05 305.326 438.553 305.326 438V428.28H307.106V437.92C307.106 438.36 307.109 438.737 307.116 439.05C307.129 439.363 307.199 439.633 307.326 439.86C307.566 440.287 307.946 440.537 308.466 440.61C308.992 440.683 309.626 440.663 310.366 440.55V442.08ZM303.136 432.75V431.28H310.366V432.75H303.136ZM316.638 442.37C315.352 442.37 314.295 442.09 313.468 441.53C312.648 440.963 312.145 440.173 311.958 439.16L313.778 438.87C313.925 439.457 314.262 439.923 314.788 440.27C315.315 440.61 315.968 440.78 316.748 440.78C317.488 440.78 318.068 440.627 318.488 440.32C318.908 440.013 319.118 439.597 319.118 439.07C319.118 438.763 319.048 438.517 318.908 438.33C318.768 438.137 318.478 437.957 318.038 437.79C317.605 437.623 316.948 437.423 316.068 437.19C315.115 436.937 314.365 436.673 313.818 436.4C313.272 436.127 312.882 435.81 312.648 435.45C312.415 435.09 312.298 434.653 312.298 434.14C312.298 433.507 312.472 432.953 312.818 432.48C313.165 432 313.648 431.63 314.268 431.37C314.895 431.11 315.622 430.98 316.448 430.98C317.268 430.98 318.002 431.11 318.648 431.37C319.295 431.63 319.815 432 320.208 432.48C320.608 432.953 320.845 433.507 320.918 434.14L319.098 434.47C319.012 433.89 318.732 433.433 318.258 433.1C317.792 432.767 317.188 432.59 316.448 432.57C315.748 432.543 315.178 432.667 314.738 432.94C314.305 433.213 314.088 433.583 314.088 434.05C314.088 434.31 314.168 434.533 314.328 434.72C314.495 434.907 314.798 435.083 315.238 435.25C315.685 435.417 316.332 435.607 317.178 435.82C318.132 436.06 318.882 436.323 319.428 436.61C319.982 436.89 320.375 437.223 320.608 437.61C320.842 437.99 320.958 438.46 320.958 439.02C320.958 440.06 320.575 440.88 319.808 441.48C319.042 442.073 317.985 442.37 316.638 442.37ZM322.964 444.32L323.074 443.49C323.354 443.51 323.564 443.457 323.704 443.33C323.844 443.203 323.934 443.03 323.974 442.81C324.014 442.59 324.02 442.347 323.994 442.08H322.964V439.82H324.924V442.38C324.924 443.08 324.75 443.607 324.404 443.96C324.064 444.313 323.584 444.433 322.964 444.32ZM85.0423 474.38C84.2356 474.38 83.5589 474.233 83.0123 473.94C82.4723 473.64 82.0623 473.247 81.7823 472.76C81.5089 472.273 81.3723 471.74 81.3723 471.16C81.3723 470.593 81.4789 470.103 81.6923 469.69C81.9123 469.27 82.2189 468.923 82.6123 468.65C83.0056 468.37 83.4756 468.15 84.0223 467.99C84.5356 467.85 85.1089 467.73 85.7423 467.63C86.3823 467.523 87.0289 467.427 87.6823 467.34C88.3356 467.253 88.9456 467.17 89.5123 467.09L88.8723 467.46C88.8923 466.5 88.6989 465.79 88.2923 465.33C87.8923 464.87 87.1989 464.64 86.2123 464.64C85.5589 464.64 84.9856 464.79 84.4923 465.09C84.0056 465.383 83.6623 465.863 83.4623 466.53L81.7723 466.02C82.0323 465.073 82.5356 464.33 83.2823 463.79C84.0289 463.25 85.0123 462.98 86.2323 462.98C87.2123 462.98 88.0523 463.157 88.7523 463.51C89.4589 463.857 89.9656 464.383 90.2723 465.09C90.4256 465.423 90.5223 465.787 90.5623 466.18C90.6023 466.567 90.6223 466.973 90.6223 467.4V474.08H89.0423V471.49L89.4123 471.73C89.0056 472.603 88.4356 473.263 87.7023 473.71C86.9756 474.157 86.0889 474.38 85.0423 474.38ZM85.3123 472.89C85.9523 472.89 86.5056 472.777 86.9723 472.55C87.4456 472.317 87.8256 472.013 88.1123 471.64C88.3989 471.26 88.5856 470.847 88.6723 470.4C88.7723 470.067 88.8256 469.697 88.8323 469.29C88.8456 468.877 88.8523 468.56 88.8523 468.34L89.4723 468.61C88.8923 468.69 88.3223 468.767 87.7623 468.84C87.2023 468.913 86.6723 468.993 86.1723 469.08C85.6723 469.16 85.2223 469.257 84.8223 469.37C84.5289 469.463 84.2523 469.583 83.9923 469.73C83.7389 469.877 83.5323 470.067 83.3723 470.3C83.2189 470.527 83.1423 470.81 83.1423 471.15C83.1423 471.443 83.2156 471.723 83.3623 471.99C83.5156 472.257 83.7489 472.473 84.0623 472.64C84.3823 472.807 84.7989 472.89 85.3123 472.89ZM100.912 474.08V468.67C100.912 468.157 100.866 467.663 100.772 467.19C100.686 466.717 100.529 466.293 100.302 465.92C100.082 465.54 99.7823 465.24 99.4023 465.02C99.0289 464.8 98.5556 464.69 97.9823 464.69C97.5356 464.69 97.1289 464.767 96.7623 464.92C96.4023 465.067 96.0923 465.293 95.8323 465.6C95.5723 465.907 95.3689 466.293 95.2223 466.76C95.0823 467.22 95.0123 467.763 95.0123 468.39L93.8423 468.03C93.8423 466.983 94.0289 466.087 94.4023 465.34C94.7823 464.587 95.3123 464.01 95.9923 463.61C96.6789 463.203 97.4856 463 98.4123 463C99.1123 463 99.7089 463.11 100.202 463.33C100.696 463.55 101.106 463.843 101.432 464.21C101.759 464.57 102.016 464.977 102.202 465.43C102.389 465.877 102.519 466.333 102.592 466.8C102.672 467.26 102.712 467.697 102.712 468.11V474.08H100.912ZM93.2123 474.08V463.28H94.8123V466.17H95.0123V474.08H93.2123ZM109.454 474.38C108.448 474.38 107.584 474.13 106.864 473.63C106.144 473.123 105.588 472.44 105.194 471.58C104.808 470.72 104.614 469.75 104.614 468.67C104.614 467.59 104.808 466.62 105.194 465.76C105.588 464.9 106.144 464.223 106.864 463.73C107.584 463.23 108.444 462.98 109.444 462.98C110.464 462.98 111.321 463.227 112.014 463.72C112.708 464.213 113.231 464.89 113.584 465.75C113.944 466.61 114.124 467.583 114.124 468.67C114.124 469.743 113.944 470.713 113.584 471.58C113.231 472.44 112.708 473.123 112.014 473.63C111.321 474.13 110.468 474.38 109.454 474.38ZM109.674 472.75C110.401 472.75 110.998 472.577 111.464 472.23C111.931 471.877 112.274 471.393 112.494 470.78C112.721 470.16 112.834 469.457 112.834 468.67C112.834 467.87 112.721 467.167 112.494 466.56C112.274 465.947 111.934 465.47 111.474 465.13C111.014 464.783 110.431 464.61 109.724 464.61C108.991 464.61 108.384 464.79 107.904 465.15C107.431 465.51 107.078 465.997 106.844 466.61C106.618 467.223 106.504 467.91 106.504 468.67C106.504 469.437 106.621 470.13 106.854 470.75C107.088 471.363 107.438 471.85 107.904 472.21C108.378 472.57 108.968 472.75 109.674 472.75ZM112.834 474.08V466.13H112.634V459.68H114.424V474.08H112.834ZM121.43 474.08V459.38H123.21V474.08H121.43ZM126.411 461.37V459.53H128.191V461.37H126.411ZM126.411 474.08V463.28H128.191V474.08H126.411ZM131.181 474.08L131.191 459.68H132.991V468.48L137.521 463.28H139.831L135.061 468.68L140.391 474.08H137.901L132.991 468.88V474.08H131.181ZM145.871 474.38C144.811 474.38 143.884 474.147 143.091 473.68C142.304 473.207 141.691 472.55 141.251 471.71C140.811 470.863 140.591 469.877 140.591 468.75C140.591 467.57 140.808 466.55 141.241 465.69C141.674 464.823 142.278 464.157 143.051 463.69C143.831 463.217 144.744 462.98 145.791 462.98C146.878 462.98 147.801 463.23 148.561 463.73C149.328 464.23 149.901 464.943 150.281 465.87C150.668 466.797 150.834 467.9 150.781 469.18H148.981V468.54C148.961 467.213 148.691 466.223 148.171 465.57C147.651 464.91 146.878 464.58 145.851 464.58C144.751 464.58 143.914 464.933 143.341 465.64C142.768 466.347 142.481 467.36 142.481 468.68C142.481 469.953 142.768 470.94 143.341 471.64C143.914 472.34 144.731 472.69 145.791 472.69C146.504 472.69 147.124 472.527 147.651 472.2C148.178 471.873 148.591 471.403 148.891 470.79L150.601 471.38C150.181 472.333 149.548 473.073 148.701 473.6C147.861 474.12 146.918 474.38 145.871 474.38ZM141.881 469.18V467.75H149.861V469.18H141.881ZM152.807 468.51V467.04H158.807V468.51H152.807ZM174.316 474.08L174.326 467.17C174.326 466.363 174.109 465.733 173.676 465.28C173.249 464.82 172.693 464.59 172.006 464.59C171.606 464.59 171.226 464.683 170.866 464.87C170.506 465.05 170.213 465.337 169.986 465.73C169.759 466.117 169.646 466.613 169.646 467.22L168.706 466.84C168.693 466.073 168.849 465.403 169.176 464.83C169.509 464.25 169.963 463.8 170.536 463.48C171.109 463.16 171.756 463 172.476 463C173.603 463 174.489 463.343 175.136 464.03C175.783 464.71 176.106 465.627 176.106 466.78L176.096 474.08H174.316ZM161.396 474.08V463.28H162.986V466.17H163.186V474.08H161.396ZM167.866 474.08L167.876 467.24C167.876 466.413 167.663 465.767 167.236 465.3C166.809 464.827 166.243 464.59 165.536 464.59C164.836 464.59 164.269 464.83 163.836 465.31C163.403 465.79 163.186 466.427 163.186 467.22L162.246 466.66C162.246 465.96 162.413 465.333 162.746 464.78C163.079 464.227 163.533 463.793 164.106 463.48C164.679 463.16 165.329 463 166.056 463C166.783 463 167.416 463.153 167.956 463.46C168.496 463.767 168.913 464.207 169.206 464.78C169.499 465.347 169.646 466.023 169.646 466.81L169.636 474.08H167.866ZM178.911 461.37V459.53H180.691V461.37H178.911ZM178.911 474.08V463.28H180.691V474.08H178.911ZM191.381 474.08V468.67C191.381 468.157 191.334 467.663 191.241 467.19C191.154 466.717 190.998 466.293 190.771 465.92C190.551 465.54 190.251 465.24 189.871 465.02C189.498 464.8 189.024 464.69 188.451 464.69C188.004 464.69 187.598 464.767 187.231 464.92C186.871 465.067 186.561 465.293 186.301 465.6C186.041 465.907 185.838 466.293 185.691 466.76C185.551 467.22 185.481 467.763 185.481 468.39L184.311 468.03C184.311 466.983 184.498 466.087 184.871 465.34C185.251 464.587 185.781 464.01 186.461 463.61C187.148 463.203 187.954 463 188.881 463C189.581 463 190.178 463.11 190.671 463.33C191.164 463.55 191.574 463.843 191.901 464.21C192.228 464.57 192.484 464.977 192.671 465.43C192.858 465.877 192.988 466.333 193.061 466.8C193.141 467.26 193.181 467.697 193.181 468.11V474.08H191.381ZM183.681 474.08V463.28H185.281V466.17H185.481V474.08H183.681ZM199.923 474.38C198.917 474.38 198.053 474.13 197.333 473.63C196.613 473.123 196.057 472.44 195.663 471.58C195.277 470.72 195.083 469.75 195.083 468.67C195.083 467.59 195.277 466.62 195.663 465.76C196.057 464.9 196.613 464.223 197.333 463.73C198.053 463.23 198.913 462.98 199.913 462.98C200.933 462.98 201.79 463.227 202.483 463.72C203.177 464.213 203.7 464.89 204.053 465.75C204.413 466.61 204.593 467.583 204.593 468.67C204.593 469.743 204.413 470.713 204.053 471.58C203.7 472.44 203.177 473.123 202.483 473.63C201.79 474.13 200.937 474.38 199.923 474.38ZM200.143 472.75C200.87 472.75 201.467 472.577 201.933 472.23C202.4 471.877 202.743 471.393 202.963 470.78C203.19 470.16 203.303 469.457 203.303 468.67C203.303 467.87 203.19 467.167 202.963 466.56C202.743 465.947 202.403 465.47 201.943 465.13C201.483 464.783 200.9 464.61 200.193 464.61C199.46 464.61 198.853 464.79 198.373 465.15C197.9 465.51 197.547 465.997 197.313 466.61C197.087 467.223 196.973 467.91 196.973 468.67C196.973 469.437 197.09 470.13 197.323 470.75C197.557 471.363 197.907 471.85 198.373 472.21C198.847 472.57 199.437 472.75 200.143 472.75ZM203.303 474.08V466.13H203.103V459.68H204.893V474.08H203.303ZM212.375 474.38C211.315 474.38 210.388 474.147 209.595 473.68C208.808 473.207 208.195 472.55 207.755 471.71C207.315 470.863 207.095 469.877 207.095 468.75C207.095 467.57 207.312 466.55 207.745 465.69C208.178 464.823 208.782 464.157 209.555 463.69C210.335 463.217 211.248 462.98 212.295 462.98C213.382 462.98 214.305 463.23 215.065 463.73C215.832 464.23 216.405 464.943 216.785 465.87C217.172 466.797 217.338 467.9 217.285 469.18H215.485V468.54C215.465 467.213 215.195 466.223 214.675 465.57C214.155 464.91 213.382 464.58 212.355 464.58C211.255 464.58 210.418 464.933 209.845 465.64C209.272 466.347 208.985 467.36 208.985 468.68C208.985 469.953 209.272 470.94 209.845 471.64C210.418 472.34 211.235 472.69 212.295 472.69C213.008 472.69 213.628 472.527 214.155 472.2C214.682 471.873 215.095 471.403 215.395 470.79L217.105 471.38C216.685 472.333 216.052 473.073 215.205 473.6C214.365 474.12 213.422 474.38 212.375 474.38ZM208.385 469.18V467.75H216.365V469.18H208.385ZM223.751 474.38C222.745 474.38 221.881 474.13 221.161 473.63C220.441 473.123 219.885 472.44 219.491 471.58C219.105 470.72 218.911 469.75 218.911 468.67C218.911 467.59 219.105 466.62 219.491 465.76C219.885 464.9 220.441 464.223 221.161 463.73C221.881 463.23 222.741 462.98 223.741 462.98C224.761 462.98 225.618 463.227 226.311 463.72C227.005 464.213 227.528 464.89 227.881 465.75C228.241 466.61 228.421 467.583 228.421 468.67C228.421 469.743 228.241 470.713 227.881 471.58C227.528 472.44 227.005 473.123 226.311 473.63C225.618 474.13 224.765 474.38 223.751 474.38ZM223.971 472.75C224.698 472.75 225.295 472.577 225.761 472.23C226.228 471.877 226.571 471.393 226.791 470.78C227.018 470.16 227.131 469.457 227.131 468.67C227.131 467.87 227.018 467.167 226.791 466.56C226.571 465.947 226.231 465.47 225.771 465.13C225.311 464.783 224.728 464.61 224.021 464.61C223.288 464.61 222.681 464.79 222.201 465.15C221.728 465.51 221.375 465.997 221.141 466.61C220.915 467.223 220.801 467.91 220.801 468.67C220.801 469.437 220.918 470.13 221.151 470.75C221.385 471.363 221.735 471.85 222.201 472.21C222.675 472.57 223.265 472.75 223.971 472.75ZM227.131 474.08V466.13H226.931V459.68H228.721V474.08H227.131ZM240.487 474.38C239.474 474.38 238.62 474.13 237.927 473.63C237.234 473.123 236.707 472.44 236.347 471.58C235.994 470.713 235.817 469.743 235.817 468.67C235.817 467.583 235.994 466.61 236.347 465.75C236.707 464.89 237.234 464.213 237.927 463.72C238.627 463.227 239.484 462.98 240.497 462.98C241.497 462.98 242.357 463.23 243.077 463.73C243.804 464.223 244.36 464.9 244.747 465.76C245.134 466.62 245.327 467.59 245.327 468.67C245.327 469.75 245.134 470.72 244.747 471.58C244.36 472.44 243.804 473.123 243.077 473.63C242.357 474.13 241.494 474.38 240.487 474.38ZM235.517 478.88V463.28H237.107V471.23H237.307V478.88H235.517ZM240.267 472.75C240.98 472.75 241.57 472.57 242.037 472.21C242.504 471.85 242.854 471.363 243.087 470.75C243.32 470.13 243.437 469.437 243.437 468.67C243.437 467.91 243.32 467.223 243.087 466.61C242.86 465.997 242.507 465.51 242.027 465.15C241.554 464.79 240.95 464.61 240.217 464.61C239.517 464.61 238.937 464.783 238.477 465.13C238.017 465.47 237.674 465.947 237.447 466.56C237.22 467.167 237.107 467.87 237.107 468.67C237.107 469.457 237.217 470.16 237.437 470.78C237.664 471.393 238.01 471.877 238.477 472.23C238.944 472.577 239.54 472.75 240.267 472.75ZM252.199 474.38C251.139 474.38 250.212 474.147 249.419 473.68C248.632 473.207 248.019 472.55 247.579 471.71C247.139 470.863 246.919 469.877 246.919 468.75C246.919 467.57 247.136 466.55 247.569 465.69C248.002 464.823 248.606 464.157 249.379 463.69C250.159 463.217 251.072 462.98 252.119 462.98C253.206 462.98 254.129 463.23 254.889 463.73C255.656 464.23 256.229 464.943 256.609 465.87C256.996 466.797 257.162 467.9 257.109 469.18H255.309V468.54C255.289 467.213 255.019 466.223 254.499 465.57C253.979 464.91 253.206 464.58 252.179 464.58C251.079 464.58 250.242 464.933 249.669 465.64C249.096 466.347 248.809 467.36 248.809 468.68C248.809 469.953 249.096 470.94 249.669 471.64C250.242 472.34 251.059 472.69 252.119 472.69C252.832 472.69 253.452 472.527 253.979 472.2C254.506 471.873 254.919 471.403 255.219 470.79L256.929 471.38C256.509 472.333 255.876 473.073 255.029 473.6C254.189 474.12 253.246 474.38 252.199 474.38ZM248.209 469.18V467.75H256.189V469.18H248.209ZM264.016 474.38C262.956 474.38 262.029 474.147 261.236 473.68C260.449 473.207 259.836 472.55 259.396 471.71C258.956 470.863 258.736 469.877 258.736 468.75C258.736 467.57 258.952 466.55 259.386 465.69C259.819 464.823 260.422 464.157 261.196 463.69C261.976 463.217 262.889 462.98 263.936 462.98C265.022 462.98 265.946 463.23 266.706 463.73C267.472 464.23 268.046 464.943 268.426 465.87C268.812 466.797 268.979 467.9 268.926 469.18H267.126V468.54C267.106 467.213 266.836 466.223 266.316 465.57C265.796 464.91 265.022 464.58 263.996 464.58C262.896 464.58 262.059 464.933 261.486 465.64C260.912 466.347 260.626 467.36 260.626 468.68C260.626 469.953 260.912 470.94 261.486 471.64C262.059 472.34 262.876 472.69 263.936 472.69C264.649 472.69 265.269 472.527 265.796 472.2C266.322 471.873 266.736 471.403 267.036 470.79L268.746 471.38C268.326 472.333 267.692 473.073 266.846 473.6C266.006 474.12 265.062 474.38 264.016 474.38ZM260.026 469.18V467.75H268.006V469.18H260.026ZM271.152 474.08V463.28H272.742V465.89L272.482 465.55C272.609 465.217 272.772 464.91 272.972 464.63C273.179 464.35 273.409 464.12 273.662 463.94C273.942 463.713 274.259 463.54 274.612 463.42C274.965 463.3 275.325 463.23 275.692 463.21C276.059 463.183 276.402 463.207 276.722 463.28V464.95C276.349 464.85 275.939 464.823 275.492 464.87C275.045 464.917 274.632 465.08 274.252 465.36C273.905 465.607 273.635 465.907 273.442 466.26C273.255 466.613 273.125 466.997 273.052 467.41C272.979 467.817 272.942 468.233 272.942 468.66V474.08H271.152ZM282.302 474.37C281.016 474.37 279.959 474.09 279.132 473.53C278.312 472.963 277.809 472.173 277.622 471.16L279.442 470.87C279.589 471.457 279.926 471.923 280.452 472.27C280.979 472.61 281.632 472.78 282.412 472.78C283.152 472.78 283.732 472.627 284.152 472.32C284.572 472.013 284.782 471.597 284.782 471.07C284.782 470.763 284.712 470.517 284.572 470.33C284.432 470.137 284.142 469.957 283.702 469.79C283.269 469.623 282.612 469.423 281.732 469.19C280.779 468.937 280.029 468.673 279.482 468.4C278.936 468.127 278.546 467.81 278.312 467.45C278.079 467.09 277.962 466.653 277.962 466.14C277.962 465.507 278.136 464.953 278.482 464.48C278.829 464 279.312 463.63 279.932 463.37C280.559 463.11 281.286 462.98 282.112 462.98C282.932 462.98 283.666 463.11 284.312 463.37C284.959 463.63 285.479 464 285.872 464.48C286.272 464.953 286.509 465.507 286.582 466.14L284.762 466.47C284.676 465.89 284.396 465.433 283.922 465.1C283.456 464.767 282.852 464.59 282.112 464.57C281.412 464.543 280.842 464.667 280.402 464.94C279.969 465.213 279.752 465.583 279.752 466.05C279.752 466.31 279.832 466.533 279.992 466.72C280.159 466.907 280.462 467.083 280.902 467.25C281.349 467.417 281.996 467.607 282.842 467.82C283.796 468.06 284.546 468.323 285.092 468.61C285.646 468.89 286.039 469.223 286.272 469.61C286.506 469.99 286.622 470.46 286.622 471.02C286.622 472.06 286.239 472.88 285.472 473.48C284.706 474.073 283.649 474.37 282.302 474.37Z" fill="#1A1A1A"/>
<rect x="2" y="2.08002" width="364" height="520" rx="4" stroke="black" stroke-width="3"/>
</g>
<defs>
<filter id="filter0_d_387_16863" x="0.5" y="0.580017" width="375" height="535" filterUnits="userSpaceOnUse" color-interpolation-filters="sRGB">
<feFlood flood-opacity="0" result="BackgroundImageFix"/>
<feColorMatrix in="SourceAlpha" type="matrix" values="0 0 0 0 0 0 0 0 0 0 0 0 0 0 0 0 0 0 127 0" result="hardAlpha"/>
<feOffset dx="8" dy="12"/>
<feComposite in2="hardAlpha" operator="out"/>
<feColorMatrix type="matrix" values="0 0 0 0 0.0862745 0 0 0 0 0.0392157 0 0 0 0 0.184314 0 0 0 1 0"/>
<feBlend mode="normal" in2="BackgroundImageFix" result="effect1_dropShadow_387_16863"/>
<feBlend mode="normal" in="SourceGraphic" in2="effect1_dropShadow_387_16863" result="shape"/>
</filter>
</defs>
</svg>
