<svg width="200" height="201" viewBox="0 0 200 201" fill="none" xmlns="http://www.w3.org/2000/svg">
<g clip-path="url(#clip0_444_19547)">
<g clip-path="url(#clip1_444_19547)">
<path d="M72.0181 43.5683L71.8853 42.4204L70.7683 42.7166C69.6221 43.0207 68.5661 43.1465 67.5987 43.0961C65.2271 42.9726 63.3706 41.7888 62.063 39.5241C61.7133 38.9184 61.4396 38.2903 61.2407 37.6483L60.0591 37.7395C60.1481 37.1767 60.2666 36.6192 60.4138 36.0692C60.6181 35.3062 60.8777 34.5582 61.191 33.8316C60.9311 35.7918 61.3263 37.7265 62.2888 39.3937C63.5568 41.5898 65.3376 42.7172 67.6123 42.8357C68.6582 42.8901 69.8039 42.731 71.0418 42.3698L71.8521 42.1333L71.755 41.2949L71.2055 36.5449L71.8263 36.1865L73.2402 48.4062L72.6193 48.7647L72.0181 43.5683ZM91.7143 44.4491C91.5123 45.2035 91.2562 45.9433 90.9477 46.6622C91.1993 44.7126 90.8032 42.7895 89.8457 41.1312C88.5778 38.935 86.797 37.8076 84.5223 37.6892C83.4758 37.6347 82.3294 37.794 81.0906 38.1557L80.2805 38.3922L80.3775 39.2306L80.9257 43.969L80.3049 44.3274L79.8025 39.9855L79.6431 38.6078L78.3863 39.1943C77.6746 39.5264 76.9325 39.9144 76.1598 40.3596L76.1272 40.0776C77.0976 39.5227 78.033 39.0501 78.9314 38.664L79.6156 38.37L79.53 37.6303L78.891 32.1077L79.5119 31.7492L80.1144 36.9571L80.2473 38.1052L81.3643 37.8087C82.5113 37.5043 83.568 37.3784 84.5359 37.4288C86.9075 37.5523 88.764 38.736 90.0716 41.0008C90.4192 41.6028 90.6918 42.2272 90.8903 42.8652L92.0698 42.7732C91.9807 43.3379 91.862 43.8974 91.7143 44.4491ZM89.01 32.7848C90.0962 34.6661 90.7269 36.6844 90.9365 38.713C89.3669 36.7145 87.2392 35.5668 84.6399 35.4315C83.7758 35.3865 82.8854 35.4548 81.9734 35.6226L81.3236 30.0071L81.1487 28.4948L79.8303 29.256L77.3221 30.7041L76.7533 31.0325L76.8288 31.685L77.459 37.1321C76.6555 37.5059 75.8361 37.936 75.0021 38.4175C74.857 38.5012 74.7134 38.5826 74.5713 38.6618L74.153 38.8947L73.6381 34.4444L73.4631 32.9321L72.1447 33.6933L69.6366 35.1413L69.0677 35.4698L69.1432 36.1223L69.6678 40.6565C68.9342 40.8134 68.2855 40.868 67.7163 40.8384C66.1824 40.7585 64.9835 40.0611 64.0209 38.3937C63.1309 36.8522 62.8646 35.0118 63.3584 33.1707C63.5461 32.471 63.8449 31.7664 64.2662 31.0746C65.4162 29.596 66.866 28.3096 68.5911 27.3136C75.7405 23.1859 84.8823 25.6354 89.01 32.7848ZM75.3024 48.8289L74.6768 43.422L75.7982 42.8397C76.2384 42.6111 76.6833 42.3667 77.1325 42.1074C77.4209 41.9409 77.7034 41.7836 77.9801 41.6353L78.4931 46.0695L78.6681 47.5818L79.9865 46.8206L82.4946 45.3726L83.0635 45.0441L82.988 44.3916L82.4647 39.8688C83.1992 39.7115 83.8485 39.6568 84.4183 39.6865C85.9522 39.7664 87.151 40.4638 88.1137 42.1312C89.0037 43.6726 89.2699 45.5131 88.7761 47.3542C88.594 48.0332 88.3073 48.7168 87.9055 49.3887C86.7489 50.89 85.2849 52.1956 83.5388 53.2037C76.3894 57.3314 67.2476 54.8818 63.1199 47.7325C62.0341 45.8517 61.4034 43.8342 61.1936 41.8062C62.7637 43.8081 64.8929 44.9579 67.4947 45.0934C68.3581 45.1383 69.2479 45.0702 70.1591 44.9026L70.8076 50.5068L70.9825 52.0191L72.3009 51.2579L74.8091 49.8098L75.3779 49.4814L75.3024 48.8289ZM94.3498 29.7008C97.2647 34.7495 97.8581 40.4995 96.4605 45.7198C95.0621 50.943 91.6722 55.6295 86.6208 58.5459C76.5211 64.377 63.6067 60.9166 57.7756 50.8169C54.8608 45.7682 54.2674 40.0182 55.665 34.7979C57.0634 29.5747 60.4532 24.8882 65.5047 21.9717C75.6043 16.1407 88.5188 19.6011 94.3498 29.7008ZM85.1647 56.0221C89.5185 53.5084 92.4416 49.4658 93.6462 44.9664C94.8502 40.4694 94.3392 35.5098 91.8269 31.1585C86.8007 22.4529 75.6689 19.4701 66.9633 24.4963C62.6096 27.0099 59.6864 31.0526 58.4818 35.552C57.2779 40.049 57.7889 45.0085 60.3011 49.3599C65.3273 58.0655 76.4591 61.0483 85.1647 56.0221Z" fill="black" stroke="black" stroke-width="2"/>
<path d="M66.5545 19.1871L66.8641 18.0315C76.7896 12.5505 89.2882 15.8995 95.1434 25.6089L94.8338 26.7645C88.4336 17.8394 76.5597 14.6578 66.5545 19.1871Z" fill="white" stroke="black" stroke-width="2" stroke-linejoin="round"/>
<path d="M69.0053 23.4796L69.3246 22.288C76.899 18.1617 86.3938 20.7059 90.8903 28.0665L90.571 29.2581C85.5652 22.6399 76.6497 20.251 69.0053 23.4796Z" fill="white" stroke="black" stroke-width="2" stroke-linejoin="round"/>
<path d="M69.6269 24.5781L69.9494 23.3744C76.924 19.5935 85.6528 21.9323 89.8025 28.694L89.48 29.8977C84.8328 23.8643 76.6682 21.6766 69.6269 24.5781Z" fill="white" stroke="black" stroke-width="2" stroke-linejoin="round"/>
<path d="M79.4162 29.4959L79.6858 28.4895L79.7445 28.4556L79.4748 29.462L79.4162 29.4959Z" fill="white" stroke="black" stroke-width="2" stroke-linejoin="round"/>
<path d="M65.5993 26.9264C66.1453 26.2735 66.7523 25.6619 67.418 25.1008L67.232 25.795C66.6599 26.1441 66.1153 26.5222 65.5993 26.9264Z" fill="white" stroke="black" stroke-width="2" stroke-linejoin="round"/>
<path d="M96.5037 28.2625C97.0585 29.564 97.4726 30.8975 97.7512 32.2442C97.3506 31.1637 96.8641 30.1003 96.2893 29.0627L96.5037 28.2625Z" fill="white" stroke="black" stroke-width="2" stroke-linejoin="round"/>
<path d="M64.1443 20.4515C63.1277 21.0627 62.1747 21.7404 61.2875 22.4758C62.2021 21.4488 63.2275 20.501 64.3587 19.6513L64.1443 20.4515Z" fill="white" stroke="black" stroke-width="2" stroke-linejoin="round"/>
<mask id="path-9-inside-1_444_19547" fill="white">
<path d="M82.1111 33.1037L81.3335 26.3835L80.3318 30.122L81.1094 36.8421L82.1111 33.1037Z"/>
</mask>
<path d="M82.1111 33.1037L81.3335 26.3835L80.3318 30.122L81.1094 36.8421L82.1111 33.1037Z" fill="white"/>
<path d="M81.3335 26.3835L83.3203 26.1537C83.2099 25.2 82.4375 24.4592 81.48 24.3889C80.5225 24.3186 79.6502 24.9386 79.4017 25.8659L81.3335 26.3835ZM82.1111 33.1037L84.0429 33.6213C84.1082 33.3778 84.1268 33.1242 84.0978 32.8738L82.1111 33.1037ZM81.1094 36.8421L79.1226 37.072C79.233 38.0257 80.0054 38.7664 80.9629 38.8368C81.9204 38.9071 82.7927 38.2871 83.0412 37.3598L81.1094 36.8421ZM80.3318 30.122L78.4 29.6043C78.3347 29.8478 78.3161 30.1015 78.3451 30.3519L80.3318 30.122ZM79.3468 26.6134L80.1243 33.3336L84.0978 32.8738L83.3203 26.1537L79.3468 26.6134ZM80.1792 32.5861L79.1775 36.3245L83.0412 37.3598L84.0429 33.6213L80.1792 32.5861ZM83.0961 36.6123L82.3186 29.8921L78.3451 30.3519L79.1226 37.072L83.0961 36.6123ZM82.2637 30.6396L83.2654 26.9012L79.4017 25.8659L78.4 29.6043L82.2637 30.6396Z" fill="black" mask="url(#path-9-inside-1_444_19547)"/>
<path d="M90.9468 32.1503L91.1328 31.4562C91.4287 32.2747 91.6486 33.1078 91.795 33.9464C91.5503 33.3385 91.2678 32.7388 90.9468 32.1503Z" fill="white" stroke="black" stroke-width="2" stroke-linejoin="round"/>
<path d="M92.2291 30.7991C92.5774 31.7188 92.8366 32.6564 93.0096 33.601C92.732 32.8971 92.4075 32.2031 92.0351 31.523L92.2291 30.7991Z" fill="white" stroke="black" stroke-width="2" stroke-linejoin="round"/>
<path d="M66.6024 24.7094C65.9398 25.1121 65.3118 25.5509 64.7194 26.0218C65.3415 25.2902 66.0348 24.6078 66.7963 23.9855L66.6024 24.7094Z" fill="white" stroke="black" stroke-width="2" stroke-linejoin="round"/>
<mask id="path-14-inside-2_444_19547" fill="white">
<path d="M78.8245 27.8315L79.539 34.0067L78.5373 37.7451L77.8228 31.57L78.8245 27.8315Z"/>
</mask>
<path d="M78.8245 27.8315L79.539 34.0067L78.5373 37.7451L77.8228 31.57L78.8245 27.8315Z" fill="white"/>
<path d="M79.539 34.0067L81.4709 34.5243C81.5361 34.2808 81.5547 34.0272 81.5258 33.7768L79.539 34.0067ZM78.8245 27.8315L80.8113 27.6017C80.7009 26.648 79.9285 25.9072 78.971 25.8369C78.0135 25.7666 77.1412 26.3866 76.8927 27.3139L78.8245 27.8315ZM77.8228 31.57L75.891 31.0523C75.8257 31.2958 75.8071 31.5495 75.8361 31.7999L77.8228 31.57ZM78.5373 37.7451L76.5506 37.975C76.6609 38.9287 77.4334 39.6694 78.3908 39.7398C79.3483 39.8101 80.2207 39.1901 80.4692 38.2628L78.5373 37.7451ZM81.5258 33.7768L80.8113 27.6017L76.8378 28.0614L77.5523 34.2366L81.5258 33.7768ZM76.8927 27.3139L75.891 31.0523L79.7547 32.0876L80.7564 28.3492L76.8927 27.3139ZM75.8361 31.7999L76.5506 37.975L80.5241 37.5153L79.8096 31.3401L75.8361 31.7999ZM80.4692 38.2628L81.4709 34.5243L77.6072 33.489L76.6055 37.2275L80.4692 38.2628Z" fill="black" mask="url(#path-14-inside-2_444_19547)"/>
<path d="M82.4915 35.5375L82.9209 33.9351C83.3889 33.832 83.8412 33.7602 84.2777 33.7195L83.8215 35.422C83.3841 35.4342 82.9406 35.4732 82.4915 35.5375Z" fill="white" stroke="black" stroke-width="2" stroke-linejoin="round"/>
<mask id="path-17-inside-3_444_19547" fill="white">
<path d="M63.3958 29.1727C63.6134 28.3612 63.9605 27.5521 64.4454 26.7663L63.4437 30.5047C62.9588 31.2906 62.6117 32.0996 62.394 32.9111L63.3958 29.1727Z"/>
</mask>
<path d="M63.3958 29.1727C63.6134 28.3612 63.9605 27.5521 64.4454 26.7663L63.4437 30.5047C62.9588 31.2906 62.6117 32.0996 62.394 32.9111L63.3958 29.1727Z" fill="white"/>
<path d="M64.4454 26.7663L66.3773 27.2839C66.6341 26.3252 66.1491 25.3231 65.2377 24.9299C64.3264 24.5367 63.2645 24.8713 62.7433 25.716L64.4454 26.7663ZM63.3958 29.1727L61.464 28.6546L61.4639 28.655L63.3958 29.1727ZM62.394 32.9111L60.4622 32.3935C60.1763 33.4603 60.8094 34.5569 61.8762 34.8429C62.943 35.1289 64.0397 34.496 64.3258 33.4292L62.394 32.9111ZM63.4437 30.5047L65.1458 31.5549C65.2478 31.3895 65.3252 31.2101 65.3755 31.0223L63.4437 30.5047ZM62.7433 25.716C62.1598 26.6617 61.7336 27.6494 61.464 28.6546L65.3275 29.6908C65.4932 29.0729 65.7612 28.4425 66.1475 27.8165L62.7433 25.716ZM61.4639 28.655L60.4622 32.3935L64.3259 33.4287L65.3276 29.6903L61.4639 28.655ZM64.3258 33.4292C64.4915 32.8114 64.7595 32.1809 65.1458 31.5549L61.7416 29.4545C61.1581 30.4002 60.7319 31.3879 60.4623 32.393L64.3258 33.4292ZM65.3755 31.0223L66.3773 27.2839L62.5136 26.2486L61.5118 29.9871L65.3755 31.0223Z" fill="black" mask="url(#path-17-inside-3_444_19547)"/>
<path d="M85.8557 35.5725L86.3378 33.7736C88.2136 34.0795 89.7297 35.1223 90.8663 36.9138L90.5187 38.211C89.2643 36.8181 87.6977 35.9156 85.8557 35.5725Z" fill="white" stroke="black" stroke-width="2" stroke-linejoin="round"/>
<path d="M71.7287 33.9342L71.9983 32.9278L72.057 32.894L71.7873 33.9004L71.7287 33.9342Z" fill="white" stroke="black" stroke-width="2" stroke-linejoin="round"/>
<path d="M82.7647 37.7818L83.1905 36.1927C83.5287 36.1108 83.8498 36.0499 84.1541 36.0083L83.7041 37.6881C83.3985 37.703 83.0853 37.7344 82.7647 37.7818Z" fill="white" stroke="black" stroke-width="2" stroke-linejoin="round"/>
<path d="M85.7316 37.8564L86.2153 36.0511C87.2772 36.285 88.1609 36.901 88.908 38.0474L88.5421 39.4128C87.7363 38.6234 86.7986 38.1073 85.7316 37.8564Z" fill="white" stroke="black" stroke-width="2" stroke-linejoin="round"/>
<mask id="path-23-inside-4_444_19547" fill="white">
<path d="M92.8476 38.8295C92.6268 38.12 92.3242 37.4276 91.94 36.7622L90.9383 40.5006C91.3225 41.1661 91.6251 41.8584 91.8459 42.5679L92.8476 38.8295Z"/>
</mask>
<path d="M92.8476 38.8295C92.6268 38.12 92.3242 37.4276 91.94 36.7622L90.9383 40.5006C91.3225 41.1661 91.6251 41.8584 91.8459 42.5679L92.8476 38.8295Z" fill="white"/>
<path d="M91.94 36.7622L93.6721 35.7622C93.2676 35.0616 92.481 34.6737 91.679 34.7793C90.877 34.8849 90.2176 35.4632 90.0082 36.2445L91.94 36.7622ZM92.8476 38.8295L94.7795 39.3471C94.8773 38.9819 94.8697 38.5963 94.7573 38.2353L92.8476 38.8295ZM91.8459 42.5679L89.9362 43.1622C90.2008 44.0124 90.9955 44.5853 91.8858 44.5675C92.776 44.5498 93.5473 43.9456 93.7778 43.0856L91.8459 42.5679ZM90.9383 40.5006L89.0065 39.983C88.8692 40.4953 88.9411 41.0412 89.2063 41.5006L90.9383 40.5006ZM90.208 37.7622C90.519 38.3008 90.7617 38.8572 90.9379 39.4237L94.7573 38.2353C94.492 37.3827 94.1295 36.5544 93.6721 35.7622L90.208 37.7622ZM90.9158 38.3119L89.914 42.0503L93.7778 43.0856L94.7795 39.3471L90.9158 38.3119ZM93.7556 41.9737C93.4903 41.1211 93.1278 40.2929 92.6704 39.5006L89.2063 41.5006C89.5173 42.0393 89.7599 42.5957 89.9362 43.1622L93.7556 41.9737ZM92.8702 41.0183L93.8719 37.2798L90.0082 36.2445L89.0065 39.983L92.8702 41.0183Z" fill="black" mask="url(#path-23-inside-4_444_19547)"/>
<path d="M77.0665 37.3189L77.3646 36.2062C77.5819 36.0842 77.7974 35.9664 78.0111 35.8528L77.6976 37.0228C77.4883 37.1177 77.2779 37.2164 77.0665 37.3189Z" fill="white" stroke="black" stroke-width="2" stroke-linejoin="round"/>
<mask id="path-26-inside-5_444_19547" fill="white">
<path d="M64.1587 35.1533C63.1367 33.3832 62.8343 31.2712 63.3954 29.1753L62.3947 32.9098C61.8322 35.007 62.1344 37.1205 63.157 38.8918L64.1587 35.1533Z"/>
</mask>
<path d="M64.1587 35.1533C63.1367 33.3832 62.8343 31.2712 63.3954 29.1753L62.3947 32.9098C61.8322 35.007 62.1344 37.1205 63.157 38.8918L64.1587 35.1533Z" fill="white"/>
<path d="M62.4306 28.9123C62.4302 28.9138 62.4298 28.9152 62.4294 28.9166L64.3614 29.4339C64.3617 29.4327 64.362 29.4315 64.3623 29.4304L62.4306 28.9123ZM63.3954 29.1753L65.3274 29.6924C65.613 28.6255 64.9797 27.5291 63.9128 27.2433C62.8459 26.9576 61.7494 27.5908 61.4635 28.6576L63.3954 29.1753ZM64.1587 35.1533L66.0906 35.671C66.2279 35.1586 66.156 34.6127 65.8908 34.1533L64.1587 35.1533ZM63.157 38.8918L61.425 39.8918C61.8294 40.5923 62.6161 40.9802 63.4181 40.8747C64.2201 40.7691 64.8795 40.1908 65.0889 39.4094L63.157 38.8918ZM62.3947 32.9098L64.3265 33.4279L64.3266 33.4274L62.3947 32.9098ZM61.4634 28.6581C60.7653 31.2662 61.1395 33.9239 62.4267 36.1533L65.8908 34.1533C65.134 32.8425 64.9034 31.2763 65.3274 29.6924L61.4634 28.6581ZM62.2269 34.6357L61.2252 38.3741L65.0889 39.4094L66.0906 35.671L62.2269 34.6357ZM64.8891 37.8918C64.1318 36.5801 63.9014 35.0128 64.3265 33.4279L60.463 32.3917C59.7631 35.0013 60.137 37.6609 61.425 39.8918L64.8891 37.8918ZM64.3266 33.4274L65.3272 29.6929L61.4635 28.6576L60.4629 32.3922L64.3266 33.4274Z" fill="black" mask="url(#path-26-inside-5_444_19547)"/>
<mask id="path-28-inside-6_444_19547" fill="white">
<path d="M76.5058 35.5434C76.3564 35.6297 76.2082 35.7137 76.0615 35.7954L75.0598 39.5338C75.2065 39.4521 75.3546 39.3681 75.5041 39.2818L76.5058 35.5434Z"/>
</mask>
<path d="M76.5058 35.5434C76.3564 35.6297 76.2082 35.7137 76.0615 35.7954L75.0598 39.5338C75.2065 39.4521 75.3546 39.3681 75.5041 39.2818L76.5058 35.5434Z" fill="white"/>
<path d="M76.0615 35.7954L75.0886 34.048C74.6157 34.3113 74.2697 34.755 74.1296 35.2778L76.0615 35.7954ZM76.5058 35.5434L78.4377 36.061C78.647 35.2797 78.3651 34.4491 77.7233 33.9567C77.0816 33.4643 76.2064 33.4069 75.5058 33.8114L76.5058 35.5434ZM75.5041 39.2818L76.5041 41.0139C76.9635 40.7487 77.2987 40.3118 77.436 39.7995L75.5041 39.2818ZM75.0598 39.5338L73.1279 39.0162C72.92 39.7921 73.1965 40.6171 73.8299 41.111C74.4634 41.605 75.3309 41.672 76.0327 41.2813L75.0598 39.5338ZM77.0344 37.5428C77.1904 37.4559 77.3476 37.3668 77.5058 37.2755L75.5058 33.8114C75.3651 33.8926 75.2261 33.9714 75.0886 34.048L77.0344 37.5428ZM74.574 35.0258L73.5723 38.7642L77.436 39.7995L78.4377 36.061L74.574 35.0258ZM74.5041 37.5498C74.3634 37.631 74.2244 37.7099 74.0869 37.7864L76.0327 41.2813C76.1887 41.1944 76.3459 41.1053 76.5041 41.0139L74.5041 37.5498ZM76.9916 40.0515L77.9933 36.313L74.1296 35.2778L73.1279 39.0162L76.9916 40.0515Z" fill="black" mask="url(#path-28-inside-6_444_19547)"/>
<mask id="path-30-inside-7_444_19547" fill="white">
<path d="M71.139 32.2688L71.7641 37.6713L70.7624 41.4097L70.1373 36.0073L71.139 32.2688Z"/>
</mask>
<path d="M71.139 32.2688L71.7641 37.6713L70.7624 41.4097L70.1373 36.0073L71.139 32.2688Z" fill="white"/>
<path d="M71.7641 37.6713L73.696 38.1889C73.7612 37.9454 73.7798 37.6918 73.7509 37.4414L71.7641 37.6713ZM71.139 32.2688L73.1258 32.039C73.0154 31.0853 72.243 30.3445 71.2855 30.2742C70.328 30.2039 69.4557 30.8239 69.2072 31.7512L71.139 32.2688ZM70.1373 36.0073L68.2055 35.4896C68.1402 35.7331 68.1216 35.9868 68.1506 36.2372L70.1373 36.0073ZM70.7624 41.4097L68.7757 41.6396C68.886 42.5933 69.6584 43.334 70.6159 43.4044C71.5734 43.4747 72.4458 42.8547 72.6943 41.9274L70.7624 41.4097ZM73.7509 37.4414L73.1258 32.039L69.1523 32.4987L69.7774 37.9012L73.7509 37.4414ZM69.2072 31.7512L68.2055 35.4896L72.0692 36.5249L73.0709 32.7865L69.2072 31.7512ZM68.1506 36.2372L68.7757 41.6396L72.7491 41.1799L72.1241 35.7774L68.1506 36.2372ZM72.6943 41.9274L73.696 38.1889L69.8323 37.1537L68.8306 40.8921L72.6943 41.9274Z" fill="black" mask="url(#path-30-inside-7_444_19547)"/>
<mask id="path-32-inside-8_444_19547" fill="white">
<path d="M77.6357 37.5019C78.3961 37.0628 79.1215 36.6833 79.8124 36.361L78.8106 40.0994C78.1198 40.4218 77.3944 40.8013 76.634 41.2403L77.6357 37.5019Z"/>
</mask>
<path d="M77.6357 37.5019C78.3961 37.0628 79.1215 36.6833 79.8124 36.361L78.8106 40.0994C78.1198 40.4218 77.3944 40.8013 76.634 41.2403L77.6357 37.5019Z" fill="white"/>
<path d="M79.8124 36.361L81.7442 36.8786C81.9454 36.1277 81.6933 35.3283 81.0977 34.8287C80.5022 34.3291 79.6711 34.2199 78.9666 34.5486L79.8124 36.361ZM77.6357 37.5019L76.6357 35.7698C76.1763 36.035 75.8411 36.4719 75.7038 36.9842L77.6357 37.5019ZM76.634 41.2403L74.7021 40.7227C74.4928 41.504 74.7747 42.3346 75.4165 42.827C76.0582 43.3194 76.9334 43.3768 77.634 42.9724L76.634 41.2403ZM78.8106 40.0994L79.6563 41.9118C80.1919 41.6619 80.5895 41.1879 80.7425 40.617L78.8106 40.0994ZM78.9666 34.5486C78.2173 34.8982 77.4404 35.3052 76.6357 35.7698L78.6357 39.2339C79.3518 38.8205 80.0256 38.4684 80.6581 38.1734L78.9666 34.5486ZM75.7038 36.9842L74.7021 40.7227L78.5658 41.7579L79.5676 38.0195L75.7038 36.9842ZM77.634 42.9724C78.3501 42.5589 79.0239 42.2069 79.6563 41.9118L77.9649 38.287C77.2156 38.6366 76.4387 39.0437 75.634 39.5082L77.634 42.9724ZM80.7425 40.617L81.7442 36.8786L77.8805 35.8433L76.8788 39.5818L80.7425 40.617Z" fill="black" mask="url(#path-32-inside-8_444_19547)"/>
<mask id="path-34-inside-9_444_19547" fill="white">
<path d="M82.9971 40.7672L82.3733 35.3763L81.3716 39.1148L81.9954 44.5057L82.9971 40.7672Z"/>
</mask>
<path d="M82.9971 40.7672L82.3733 35.3763L81.3716 39.1148L81.9954 44.5057L82.9971 40.7672Z" fill="white"/>
<path d="M82.3733 35.3763L84.3601 35.1465C84.2497 34.1928 83.4773 33.452 82.5198 33.3817C81.5623 33.3114 80.6899 33.9314 80.4415 34.8587L82.3733 35.3763ZM82.9971 40.7672L84.9289 41.2849C84.9942 41.0414 85.0128 40.7878 84.9838 40.5374L82.9971 40.7672ZM81.9954 44.5057L80.0086 44.7356C80.119 45.6893 80.8914 46.43 81.8489 46.5003C82.8064 46.5706 83.6787 45.9507 83.9272 45.0233L81.9954 44.5057ZM81.3716 39.1148L79.4398 38.5971C79.3745 38.8406 79.3559 39.0943 79.3849 39.3447L81.3716 39.1148ZM80.3866 35.6062L81.0103 40.9971L84.9838 40.5374L84.3601 35.1465L80.3866 35.6062ZM81.0652 40.2496L80.0635 43.9881L83.9272 45.0233L84.9289 41.2849L81.0652 40.2496ZM83.9821 44.2758L83.3583 38.8849L79.3849 39.3447L80.0086 44.7356L83.9821 44.2758ZM83.3035 39.6324L84.3052 35.894L80.4415 34.8587L79.4398 38.5971L83.3035 39.6324Z" fill="black" mask="url(#path-34-inside-9_444_19547)"/>
<mask id="path-36-inside-10_444_19547" fill="white">
<path d="M76.0623 35.7961L76.3419 38.2128L75.3402 41.9513L75.0606 39.5345L76.0623 35.7961Z"/>
</mask>
<path d="M76.0623 35.7961L76.3419 38.2128L75.3402 41.9513L75.0606 39.5345L76.0623 35.7961Z" fill="white"/>
<path d="M76.3419 38.2128L78.2738 38.7304C78.339 38.487 78.3576 38.2333 78.3287 37.9829L76.3419 38.2128ZM76.0623 35.7961L78.049 35.5662C77.9387 34.6125 77.1663 33.8718 76.2088 33.8015C75.2513 33.7312 74.3789 34.3511 74.1304 35.2785L76.0623 35.7961ZM75.0606 39.5345L73.1287 39.0169C73.0635 39.2604 73.0449 39.514 73.0738 39.7644L75.0606 39.5345ZM75.3402 41.9513L73.3535 42.1811C73.4638 43.1348 74.2362 43.8756 75.1937 43.9459C76.1512 44.0162 77.0236 43.3962 77.2721 42.4689L75.3402 41.9513ZM78.3287 37.9829L78.049 35.5662L74.0755 36.026L74.3552 38.4427L78.3287 37.9829ZM74.1304 35.2785L73.1287 39.0169L76.9924 40.0522L77.9941 36.3137L74.1304 35.2785ZM73.0738 39.7644L73.3535 42.1811L77.3269 41.7214L77.0473 39.3047L73.0738 39.7644ZM77.2721 42.4689L78.2738 38.7304L74.4101 37.6952L73.4083 41.4336L77.2721 42.4689Z" fill="black" mask="url(#path-36-inside-10_444_19547)"/>
<mask id="path-38-inside-11_444_19547" fill="white">
<path d="M89.9824 37.8912C91.0051 39.6624 91.3072 41.7759 90.7447 43.8732L89.7441 47.6076C90.3051 45.5117 90.0027 43.3997 88.9807 41.6296L89.9824 37.8912Z"/>
</mask>
<path d="M89.9824 37.8912C91.0051 39.6624 91.3072 41.7759 90.7447 43.8732L89.7441 47.6076C90.3051 45.5117 90.0027 43.3997 88.9807 41.6296L89.9824 37.8912Z" fill="white"/>
<path d="M88.778 47.3491C88.7777 47.3504 88.7774 47.3515 88.7772 47.3524L90.7088 47.8709C90.7093 47.8691 90.7097 47.8675 90.7101 47.8661L88.778 47.3491ZM90.7447 43.8732L88.813 43.3551L88.8128 43.3556L90.7447 43.8732ZM89.9824 37.8912L91.7145 36.8912C91.31 36.1906 90.5234 35.8027 89.7214 35.9083C88.9194 36.0139 88.2599 36.5922 88.0506 37.3735L89.9824 37.8912ZM88.9807 41.6296L87.0489 41.112C86.9116 41.6243 86.9834 42.1702 87.2487 42.6296L88.9807 41.6296ZM89.7441 47.6076L87.8121 47.0904C87.5265 48.1574 88.1598 49.2538 89.2267 49.5395C90.2935 49.8252 91.3901 49.1921 91.6759 48.1252L89.7441 47.6076ZM92.6764 44.3913C93.3764 41.7817 93.0025 39.122 91.7145 36.8912L88.2504 38.8912C89.0076 40.2028 89.2381 41.7702 88.813 43.3551L92.6764 44.3913ZM88.0506 37.3735L87.0489 41.112L90.9126 42.1472L91.9143 38.4088L88.0506 37.3735ZM87.2487 42.6296C88.0055 43.9404 88.236 45.5066 87.8121 47.0904L91.676 48.1248C92.3742 45.5167 91.9999 42.859 90.7128 40.6296L87.2487 42.6296ZM91.6759 48.1252L92.6765 44.3908L88.8128 43.3556L87.8122 47.09L91.6759 48.1252Z" fill="black" mask="url(#path-38-inside-11_444_19547)"/>
<mask id="path-40-inside-12_444_19547" fill="white">
<path d="M76.3388 38.2128C76.765 37.9915 77.1967 37.7544 77.6339 37.502L76.6322 41.2404C76.195 41.4929 75.7632 41.73 75.3371 41.9513L76.3388 38.2128Z"/>
</mask>
<path d="M76.3388 38.2128C76.765 37.9915 77.1967 37.7544 77.6339 37.502L76.6322 41.2404C76.195 41.4929 75.7632 41.73 75.3371 41.9513L76.3388 38.2128Z" fill="white"/>
<path d="M77.6339 37.502L79.5658 38.0196C79.7751 37.2383 79.4932 36.4077 78.8515 35.9153C78.2097 35.4228 77.3345 35.3655 76.6339 35.7699L77.6339 37.502ZM76.3388 38.2128L75.4172 36.4378C74.9189 36.6966 74.5523 37.1528 74.407 37.6952L76.3388 38.2128ZM75.3371 41.9513L73.4053 41.4336C73.2001 42.1993 73.4665 43.0139 74.0845 43.5104C74.7024 44.0069 75.5553 44.0915 76.2588 43.7262L75.3371 41.9513ZM76.6322 41.2404L77.6322 42.9725C78.0916 42.7073 78.4268 42.2704 78.5641 41.7581L76.6322 41.2404ZM76.6339 35.7699C76.2207 36.0085 75.8151 36.2312 75.4172 36.4378L77.2605 39.9878C77.7148 39.7519 78.1727 39.5003 78.6339 39.234L76.6339 35.7699ZM74.407 37.6952L73.4053 41.4336L77.269 42.4689L78.2707 38.7305L74.407 37.6952ZM76.2588 43.7262C76.7131 43.4903 77.171 43.2388 77.6322 42.9725L75.6322 39.5084C75.219 39.747 74.8134 39.9697 74.4155 40.1763L76.2588 43.7262ZM78.5641 41.7581L79.5658 38.0196L75.7021 36.9844L74.7004 40.7228L78.5641 41.7581Z" fill="black" mask="url(#path-40-inside-12_444_19547)"/>
<mask id="path-42-inside-13_444_19547" fill="white">
<path d="M79.815 36.3602L80.4923 42.2143L79.4906 45.9527L78.8132 40.0986L79.815 36.3602Z"/>
</mask>
<path d="M79.815 36.3602L80.4923 42.2143L79.4906 45.9527L78.8132 40.0986L79.815 36.3602Z" fill="white"/>
<path d="M80.4923 42.2143L82.4242 42.7319C82.4894 42.4885 82.508 42.2348 82.479 41.9844L80.4923 42.2143ZM79.815 36.3602L81.8017 36.1303C81.6914 35.1766 80.9189 34.4358 79.9614 34.3655C79.0039 34.2952 78.1316 34.9152 77.8831 35.8425L79.815 36.3602ZM78.8132 40.0986L76.8814 39.581C76.8161 39.8244 76.7975 40.0781 76.8265 40.3285L78.8132 40.0986ZM79.4906 45.9527L77.5038 46.1826C77.6142 47.1363 78.3866 47.8771 79.3441 47.9474C80.3016 48.0177 81.174 47.3977 81.4224 46.4704L79.4906 45.9527ZM82.479 41.9844L81.8017 36.1303L77.8282 36.59L78.5056 42.4442L82.479 41.9844ZM77.8831 35.8425L76.8814 39.581L80.7451 40.6162L81.7468 36.8778L77.8831 35.8425ZM76.8265 40.3285L77.5038 46.1826L81.4773 45.7229L80.8 39.8687L76.8265 40.3285ZM81.4224 46.4704L82.4242 42.7319L78.5605 41.6967L77.5587 45.4351L81.4224 46.4704Z" fill="black" mask="url(#path-42-inside-13_444_19547)"/>
<mask id="path-44-inside-14_444_19547" fill="white">
<path d="M75.3156 45.2034L73.6513 30.8189L72.6496 34.5573L74.3139 48.9419L75.3156 45.2034Z"/>
</mask>
<path d="M75.3156 45.2034L73.6513 30.8189L72.6496 34.5573L74.3139 48.9419L75.3156 45.2034Z" fill="white"/>
<path d="M73.6513 30.8189L75.638 30.589C75.5277 29.6353 74.7552 28.8946 73.7978 28.8243C72.8403 28.754 71.9679 29.3739 71.7194 30.3013L73.6513 30.8189ZM75.3156 45.2034L77.2475 45.721C77.3127 45.4776 77.3313 45.2239 77.3024 44.9735L75.3156 45.2034ZM74.3139 48.9419L72.3272 49.1717C72.4375 50.1254 73.2099 50.8662 74.1674 50.9365C75.1249 51.0068 75.9973 50.3868 76.2458 49.4595L74.3139 48.9419ZM72.6496 34.5573L70.7177 34.0397C70.6525 34.2832 70.6338 34.5368 70.6628 34.7872L72.6496 34.5573ZM71.6645 31.0488L73.3289 45.4333L77.3024 44.9735L75.638 30.589L71.6645 31.0488ZM73.3838 44.6858L72.3821 48.4242L76.2458 49.4595L77.2475 45.721L73.3838 44.6858ZM76.3007 48.712L74.6363 34.3275L70.6628 34.7872L72.3272 49.1717L76.3007 48.712ZM74.5814 35.075L75.5831 31.3365L71.7194 30.3013L70.7177 34.0397L74.5814 35.075Z" fill="black" mask="url(#path-44-inside-14_444_19547)"/>
<mask id="path-46-inside-15_444_19547" fill="white">
<path d="M61.2863 34.2052C61.5074 34.9191 61.8113 35.6157 62.1978 36.2851L61.1961 40.0235C60.8096 39.3541 60.5057 38.6576 60.2846 37.9436L61.2863 34.2052Z"/>
</mask>
<path d="M61.2863 34.2052C61.5074 34.9191 61.8113 35.6157 62.1978 36.2851L61.1961 40.0235C60.8096 39.3541 60.5057 38.6576 60.2846 37.9436L61.2863 34.2052Z" fill="white"/>
<path d="M62.1978 36.2851L64.1296 36.8027C64.2669 36.2904 64.195 35.7445 63.9298 35.2851L62.1978 36.2851ZM61.2863 34.2052L63.1968 33.6135C62.9332 32.7625 62.1385 32.1884 61.2478 32.2056C60.357 32.2227 59.585 32.827 59.3545 33.6876L61.2863 34.2052ZM60.2846 37.9436L58.3527 37.426C58.2551 37.7904 58.2625 38.175 58.3741 38.5353L60.2846 37.9436ZM61.1961 40.0235L59.464 41.0235C59.8685 41.7241 60.6551 42.112 61.4571 42.0064C62.2591 41.9008 62.9186 41.3225 63.1279 40.5412L61.1961 40.0235ZM63.9298 35.2851C63.617 34.7433 63.3733 34.1835 63.1968 33.6135L59.3758 34.7969C59.6415 35.6548 60.0056 36.4882 60.4657 37.2851L63.9298 35.2851ZM59.3545 33.6876L58.3527 37.426L62.2165 38.4613L63.2182 34.7228L59.3545 33.6876ZM58.3741 38.5353C58.6398 39.3932 59.0039 40.2266 59.464 41.0235L62.9281 39.0235C62.6153 38.4817 62.3716 37.9219 62.1951 37.3519L58.3741 38.5353ZM63.1279 40.5412L64.1296 36.8027L60.2659 35.7674L59.2642 39.5059L63.1279 40.5412Z" fill="black" mask="url(#path-46-inside-15_444_19547)"/>
<path d="M64.2344 38.736L64.6003 37.3706C65.4061 38.16 66.3438 38.6761 67.4108 38.927L66.9271 40.7323C65.8652 40.4984 64.9815 39.8824 64.2344 38.736Z" fill="white" stroke="black" stroke-width="2" stroke-linejoin="round"/>
<path d="M69.4346 39.0964C69.7395 39.0814 70.0521 39.0502 70.372 39.0029L69.9461 40.5922C69.6086 40.6739 69.2883 40.7346 68.9845 40.7761L69.4346 39.0964Z" fill="white" stroke="black" stroke-width="2" stroke-linejoin="round"/>
<path d="M81.0802 43.8796L81.3499 42.8732L81.4085 42.8394L81.1389 43.8457L81.0802 43.8796Z" fill="white" stroke="black" stroke-width="2" stroke-linejoin="round"/>
<path d="M62.2727 39.8708L62.6203 38.5736C63.8747 39.9665 65.4413 40.869 67.2832 41.212L66.8012 43.011C64.9253 42.705 63.4093 41.6623 62.2727 39.8708Z" fill="white" stroke="black" stroke-width="2" stroke-linejoin="round"/>
<mask id="path-52-inside-16_444_19547" fill="white">
<path d="M90.7453 43.873C90.5338 44.6616 90.2 45.4478 89.7364 46.2127L88.7347 49.9511C89.1983 49.1862 89.5321 48.4 89.7435 47.6115L90.7453 43.873Z"/>
</mask>
<path d="M90.7453 43.873C90.5338 44.6616 90.2 45.4478 89.7364 46.2127L88.7347 49.9511C89.1983 49.1862 89.5321 48.4 89.7435 47.6115L90.7453 43.873Z" fill="white"/>
<path d="M89.7364 46.2127L88.0261 45.176C87.9281 45.3376 87.8535 45.5124 87.8046 45.695L89.7364 46.2127ZM90.7453 43.873L92.6771 44.3907C92.963 43.3238 92.3299 42.2272 91.2631 41.9412C90.1963 41.6552 89.0997 42.2881 88.8135 43.3549L90.7453 43.873ZM89.7435 47.6115L91.6753 48.1296L91.6754 48.1291L89.7435 47.6115ZM88.7347 49.9511L86.8029 49.4335C86.5452 50.3951 87.034 51.3998 87.9497 51.7906C88.8654 52.1814 89.929 51.8392 90.4451 50.9878L88.7347 49.9511ZM91.4468 47.2493C92.0052 46.328 92.415 45.3678 92.677 44.3911L88.8135 43.3549C88.6525 43.9553 88.3949 44.5675 88.0261 45.176L91.4468 47.2493ZM88.8134 43.3554L87.8117 47.0938L91.6754 48.1291L92.6771 44.3907L88.8134 43.3554ZM87.8118 47.0934C87.6508 47.6938 87.3932 48.306 87.0244 48.9144L90.4451 50.9878C91.0035 50.0665 91.4133 49.1062 91.6753 48.1296L87.8118 47.0934ZM90.6666 50.4687L91.6683 46.7303L87.8046 45.695L86.8029 49.4335L90.6666 50.4687Z" fill="black" mask="url(#path-52-inside-16_444_19547)"/>
<path d="M68.8587 43.066L69.3149 41.3635C69.7517 41.3514 70.1946 41.3124 70.643 41.2483L70.2136 42.8509C69.7462 42.9537 69.2947 43.0254 68.8587 43.066Z" fill="white" stroke="black" stroke-width="2" stroke-linejoin="round"/>
<path d="M86.5282 52.0684C87.1908 51.6656 87.8188 51.2268 88.4112 50.756C87.7891 51.4875 87.0958 52.17 86.3343 52.7922L86.5282 52.0684Z" fill="white" stroke="black" stroke-width="2" stroke-linejoin="round"/>
<path d="M61.0978 45.2563L60.9038 45.9801C60.5554 45.0604 60.2963 44.1228 60.1233 43.1782C60.4009 43.8821 60.7253 44.5762 61.0978 45.2563Z" fill="white" stroke="black" stroke-width="2" stroke-linejoin="round"/>
<path d="M62.1873 44.6273L62.0013 45.3215C61.7054 44.5029 61.4855 43.6698 61.3391 42.8312C61.5838 43.4391 61.8663 44.0388 62.1873 44.6273Z" fill="white" stroke="black" stroke-width="2" stroke-linejoin="round"/>
<mask id="path-58-inside-17_444_19547" fill="white">
<path d="M72.0288 39.944L72.805 46.6526L71.8033 50.3911L71.0271 43.6824L72.0288 39.944Z"/>
</mask>
<path d="M72.0288 39.944L72.805 46.6526L71.8033 50.3911L71.0271 43.6824L72.0288 39.944Z" fill="white"/>
<path d="M72.805 46.6526L74.7369 47.1703C74.8021 46.9268 74.8207 46.6732 74.7917 46.4228L72.805 46.6526ZM72.0288 39.944L74.0155 39.7141C73.9052 38.7604 73.1327 38.0197 72.1753 37.9494C71.2178 37.879 70.3454 38.499 70.0969 39.4263L72.0288 39.944ZM71.0271 43.6824L69.0952 43.1648C69.03 43.4083 69.0114 43.6619 69.0403 43.9123L71.0271 43.6824ZM71.8033 50.3911L69.8165 50.6209C69.9269 51.5746 70.6993 52.3154 71.6568 52.3857C72.6143 52.456 73.4867 51.8361 73.7351 50.9087L71.8033 50.3911ZM74.7917 46.4228L74.0155 39.7141L70.042 40.1739L70.8183 46.8825L74.7917 46.4228ZM70.0969 39.4263L69.0952 43.1648L72.9589 44.2001L73.9606 40.4616L70.0969 39.4263ZM69.0403 43.9123L69.8165 50.6209L73.79 50.1612L73.0138 43.4525L69.0403 43.9123ZM73.7351 50.9087L74.7369 47.1703L70.8731 46.135L69.8714 49.8734L73.7351 50.9087Z" fill="black" mask="url(#path-58-inside-17_444_19547)"/>
<path d="M85.7162 51.6763L85.9022 50.9821C86.4744 50.633 87.0189 50.2548 87.5349 49.8507C86.9889 50.5036 86.3819 51.1151 85.7162 51.6763Z" fill="white" stroke="black" stroke-width="2" stroke-linejoin="round"/>
<path d="M73.3927 48.3179L73.6624 47.3116L73.721 47.2777L73.4514 48.2841L73.3927 48.3179Z" fill="white" stroke="black" stroke-width="2" stroke-linejoin="round"/>
<path d="M63.6528 46.8789C68.2999 52.9123 76.4645 55.1 83.5058 52.1985L83.1833 53.4023C76.2087 57.1832 67.4799 54.8443 63.3302 48.0826L63.6528 46.8789Z" fill="white" stroke="black" stroke-width="2" stroke-linejoin="round"/>
<path d="M62.2402 48.7117L62.5595 47.5201C67.5654 54.1384 76.4809 56.5273 84.1252 53.2987L83.8059 54.4902C76.2316 58.6165 66.7367 56.0724 62.2402 48.7117Z" fill="white" stroke="black" stroke-width="2" stroke-linejoin="round"/>
<circle cx="77.0653" cy="36.5192" r="21.1161" fill="white" stroke="black" stroke-width="2"/>
<circle cx="77.5" cy="36.58" r="16.5" fill="white"/>
<circle cx="77.5" cy="36.58" r="16.5" fill="url(#paint0_linear_444_19547)"/>
<path fill-rule="evenodd" clip-rule="evenodd" d="M77.0686 53.7216C86.5687 53.7216 94.27 46.0203 94.27 36.5202C94.27 27.0201 86.5687 19.3188 77.0686 19.3188C67.5685 19.3188 59.8672 27.0201 59.8672 36.5202C59.8672 46.0203 67.5685 53.7216 77.0686 53.7216ZM64.2969 28.883C64.2969 31.8022 65.4564 34.0879 67.7606 35.5832C68.6773 36.1781 69.7552 36.6349 70.9798 36.9662L68.2979 43.1638H71.194L76.9449 29.8743H74.0488L71.8888 34.8658C70.7169 34.5796 69.7549 34.1822 68.9913 33.6867C67.3917 32.6487 66.5577 31.1136 66.5577 28.883C66.5577 27.4884 66.9274 26.1234 67.6495 24.9095C70.2196 22.8229 73.4959 21.5725 77.0643 21.5725C85.3197 21.5725 92.012 28.2648 92.012 36.5202C92.012 39.3816 91.208 42.0553 89.8135 44.3276C89.8143 44.2739 89.8147 44.2201 89.8147 44.1662C89.8147 41.2471 88.6553 38.9613 86.351 37.466C85.435 36.8716 84.3581 36.415 83.1345 36.0838L85.8216 29.8743H82.9255L80.4565 35.5798C79.3976 35.4543 78.262 35.3942 77.0558 35.3942C76.8837 35.3942 76.7138 35.3929 76.5463 35.3903L75.5801 37.6231C76.0593 37.6445 76.5514 37.655 77.0558 37.655C77.9352 37.655 78.7544 37.6891 79.5149 37.7556L77.1746 43.1638H80.0707L82.2256 38.1841C83.3963 38.4703 84.3574 38.8674 85.1203 39.3625C86.7199 40.4005 87.5539 41.9356 87.5539 44.1662C87.5539 45.5645 87.1823 46.9329 86.4565 48.1492C83.8899 50.2248 80.6223 51.4678 77.0643 51.4678C68.809 51.4678 62.1167 44.7755 62.1167 36.5202C62.1167 33.6706 62.9141 31.0072 64.2979 28.741C64.2973 28.7883 64.2969 28.8356 64.2969 28.883Z" fill="black"/>
<path d="M67.5487 17.6921L49.832 27.9207" stroke="black" stroke-width="2" stroke-linecap="round"/>
<path d="M60.6223 33.8063L27.3438 53.0197" stroke="black" stroke-width="2" stroke-linecap="round"/>
<path d="M71.0913 52.0989L41.8828 68.9624" stroke="black" stroke-width="2" stroke-linecap="round"/>
<path d="M72.5153 57.7601L61.0234 64.395" stroke="black" stroke-width="2" stroke-linecap="round"/>
<path d="M85.6186 59.0935L41.5664 84.527" stroke="black" stroke-width="2" stroke-linecap="round"/>
<path d="M49.0181 161.568L48.8853 160.42L47.7683 160.717C46.6221 161.021 45.5661 161.146 44.5987 161.096C42.2271 160.973 40.3706 159.789 39.063 157.524C38.7133 156.918 38.4396 156.29 38.2407 155.648L37.0591 155.739C37.1481 155.177 37.2666 154.619 37.4138 154.069C37.6181 153.306 37.8777 152.558 38.191 151.832C37.9311 153.792 38.3263 155.726 39.2888 157.394C40.5568 159.59 42.3376 160.717 44.6123 160.836C45.6582 160.89 46.8039 160.731 48.0418 160.37L48.8521 160.133L48.755 159.295L48.2055 154.545L48.8263 154.186L50.2402 166.406L49.6193 166.765L49.0181 161.568ZM68.7143 162.449C68.5123 163.203 68.2562 163.943 67.9477 164.662C68.1993 162.713 67.8032 160.789 66.8458 159.131C65.5778 156.935 63.797 155.808 61.5223 155.689C60.4758 155.635 59.3294 155.794 58.0906 156.156L57.2805 156.392L57.3775 157.231L57.9257 161.969L57.3049 162.327L56.8025 157.985L56.6431 156.608L55.3863 157.194C54.6746 157.526 53.9325 157.914 53.1598 158.36L53.1272 158.078C54.0977 157.523 55.033 157.05 55.9314 156.664L56.6156 156.37L56.53 155.63L55.891 150.108L56.5119 149.749L57.1144 154.957L57.2473 156.105L58.3643 155.809C59.5113 155.504 60.568 155.378 61.5359 155.429C63.9075 155.552 65.764 156.736 67.0716 159.001C67.4192 159.603 67.6918 160.227 67.8903 160.865L69.0698 160.773C68.9807 161.338 68.862 161.897 68.7143 162.449ZM66.01 150.785C67.0962 152.666 67.7269 154.684 67.9365 156.713C66.3669 154.714 64.2392 153.567 61.6399 153.431C60.7759 153.386 59.8854 153.455 58.9734 153.623L58.3236 148.007L58.1487 146.495L56.8303 147.256L54.3221 148.704L53.7533 149.032L53.8288 149.685L54.459 155.132C53.6555 155.506 52.8361 155.936 52.0021 156.417C51.857 156.501 51.7134 156.583 51.5713 156.662L51.153 156.895L50.6381 152.444L50.4631 150.932L49.1447 151.693L46.6366 153.141L46.0677 153.47L46.1432 154.122L46.6678 158.656C45.9342 158.813 45.2856 158.868 44.7163 158.838C43.1824 158.758 41.9835 158.061 41.0209 156.394C40.1309 154.852 39.8646 153.012 40.3584 151.171C40.5461 150.471 40.8449 149.766 41.2662 149.075C42.4162 147.596 43.866 146.31 45.5911 145.314C52.7405 141.186 61.8823 143.635 66.01 150.785ZM52.3024 166.829L51.6768 161.422L52.7982 160.84C53.2384 160.611 53.6833 160.367 54.1325 160.107C54.4209 159.941 54.7034 159.784 54.9801 159.635L55.4931 164.069L55.6681 165.582L56.9865 164.821L59.4946 163.372L60.0635 163.044L59.988 162.392L59.4647 157.869C60.1992 157.711 60.8485 157.657 61.4183 157.686C62.9522 157.766 64.151 158.464 65.1137 160.131C66.0037 161.673 66.2699 163.513 65.7761 165.354C65.594 166.033 65.3073 166.717 64.9056 167.389C63.7489 168.89 62.2849 170.196 60.5388 171.204C53.3895 175.331 44.2476 172.882 40.1199 165.732C39.0341 163.852 38.4034 161.834 38.1936 159.806C39.7637 161.808 41.8929 162.958 44.4947 163.093C45.3581 163.138 46.2479 163.07 47.1591 162.903L47.8076 168.507L47.9825 170.019L49.3009 169.258L51.8091 167.81L52.3779 167.481L52.3024 166.829ZM71.3498 147.701C74.2647 152.749 74.8581 158.499 73.4605 163.72C72.0621 168.943 68.6722 173.629 63.6208 176.546C53.5211 182.377 40.6067 178.916 34.7756 168.817C31.8608 163.768 31.2674 158.018 32.665 152.798C34.0634 147.575 37.4532 142.888 42.5047 139.972C52.6043 134.141 65.5188 137.601 71.3498 147.701ZM62.1647 174.022C66.5185 171.508 69.4416 167.466 70.6462 162.966C71.8502 158.469 71.3392 153.51 68.8269 149.158C63.8007 140.453 52.6689 137.47 43.9633 142.496C39.6096 145.01 36.6864 149.053 35.4818 153.552C34.2779 158.049 34.7889 163.008 37.3012 167.36C42.3273 176.065 53.4591 179.048 62.1647 174.022Z" fill="black" stroke="black" stroke-width="2"/>
<path d="M43.5545 137.187L43.8641 136.031C53.7896 130.55 66.2882 133.899 72.1434 143.609L71.8338 144.764C65.4336 135.839 53.5597 132.658 43.5545 137.187Z" fill="white" stroke="black" stroke-width="2" stroke-linejoin="round"/>
<path d="M46.0053 141.48L46.3246 140.288C53.899 136.162 63.3938 138.706 67.8903 146.066L67.571 147.258C62.5652 140.64 53.6497 138.251 46.0053 141.48Z" fill="white" stroke="black" stroke-width="2" stroke-linejoin="round"/>
<path d="M46.6308 142.578L46.9534 141.374C53.9279 137.593 62.6567 139.932 66.8064 146.694L66.4839 147.898C61.8367 141.864 53.6721 139.677 46.6308 142.578Z" fill="white" stroke="black" stroke-width="2" stroke-linejoin="round"/>
<path d="M56.4162 147.496L56.6858 146.489L56.7445 146.456L56.4748 147.462L56.4162 147.496Z" fill="white" stroke="black" stroke-width="2" stroke-linejoin="round"/>
<path d="M42.5993 144.926C43.1453 144.273 43.7523 143.662 44.418 143.101L44.232 143.795C43.6599 144.144 43.1153 144.522 42.5993 144.926Z" fill="white" stroke="black" stroke-width="2" stroke-linejoin="round"/>
<path d="M73.5076 146.262C74.0624 147.564 74.4765 148.897 74.7551 150.244C74.3545 149.164 73.868 148.1 73.2932 147.063L73.5076 146.262Z" fill="white" stroke="black" stroke-width="2" stroke-linejoin="round"/>
<path d="M41.1443 138.451C40.1277 139.063 39.1747 139.74 38.2875 140.476C39.2021 139.449 40.2275 138.501 41.3587 137.651L41.1443 138.451Z" fill="white" stroke="black" stroke-width="2" stroke-linejoin="round"/>
<mask id="path-80-inside-18_444_19547" fill="white">
<path d="M59.1111 151.104L58.3335 144.383L57.3318 148.122L58.1094 154.842L59.1111 151.104Z"/>
</mask>
<path d="M59.1111 151.104L58.3335 144.383L57.3318 148.122L58.1094 154.842L59.1111 151.104Z" fill="white"/>
<path d="M58.3335 144.383L60.3203 144.154C60.2099 143.2 59.4375 142.459 58.48 142.389C57.5225 142.319 56.6502 142.938 56.4017 143.866L58.3335 144.383ZM59.1111 151.104L61.0429 151.621C61.1082 151.378 61.1268 151.124 61.0978 150.874L59.1111 151.104ZM58.1094 154.842L56.1226 155.072C56.233 156.026 57.0054 156.766 57.9629 156.837C58.9204 156.907 59.7927 156.287 60.0412 155.36L58.1094 154.842ZM57.3318 148.122L55.4 147.604C55.3347 147.848 55.3161 148.101 55.3451 148.352L57.3318 148.122ZM56.3468 144.613L57.1243 151.333L61.0978 150.874L60.3203 144.154L56.3468 144.613ZM57.1792 150.586L56.1775 154.324L60.0412 155.36L61.0429 151.621L57.1792 150.586ZM60.0961 154.612L59.3186 147.892L55.3451 148.352L56.1226 155.072L60.0961 154.612ZM59.2637 148.64L60.2654 144.901L56.4017 143.866L55.4 147.604L59.2637 148.64Z" fill="black" mask="url(#path-80-inside-18_444_19547)"/>
<path d="M67.9468 150.15L68.1328 149.456C68.4287 150.275 68.6486 151.108 68.795 151.946C68.5503 151.338 68.2678 150.739 67.9468 150.15Z" fill="white" stroke="black" stroke-width="2" stroke-linejoin="round"/>
<path d="M69.2291 148.799C69.5774 149.719 69.8366 150.656 70.0096 151.601C69.732 150.897 69.4075 150.203 69.0351 149.523L69.2291 148.799Z" fill="white" stroke="black" stroke-width="2" stroke-linejoin="round"/>
<path d="M43.6024 142.709C42.9398 143.112 42.3118 143.551 41.7194 144.022C42.3415 143.29 43.0348 142.608 43.7963 141.985L43.6024 142.709Z" fill="white" stroke="black" stroke-width="2" stroke-linejoin="round"/>
<mask id="path-85-inside-19_444_19547" fill="white">
<path d="M55.8245 145.831L56.539 152.007L55.5373 155.745L54.8228 149.57L55.8245 145.831Z"/>
</mask>
<path d="M55.8245 145.831L56.539 152.007L55.5373 155.745L54.8228 149.57L55.8245 145.831Z" fill="white"/>
<path d="M56.539 152.007L58.4709 152.524C58.5361 152.281 58.5547 152.027 58.5258 151.777L56.539 152.007ZM55.8245 145.831L57.8113 145.602C57.7009 144.648 56.9285 143.907 55.971 143.837C55.0135 143.767 54.1412 144.386 53.8927 145.314L55.8245 145.831ZM54.8228 149.57L52.891 149.052C52.8257 149.296 52.8071 149.549 52.8361 149.8L54.8228 149.57ZM55.5373 155.745L53.5506 155.975C53.6609 156.929 54.4334 157.669 55.3908 157.74C56.3483 157.81 57.2207 157.19 57.4692 156.263L55.5373 155.745ZM58.5258 151.777L57.8113 145.602L53.8378 146.061L54.5523 152.236L58.5258 151.777ZM53.8927 145.314L52.891 149.052L56.7547 150.088L57.7564 146.349L53.8927 145.314ZM52.8361 149.8L53.5506 155.975L57.5241 155.515L56.8096 149.34L52.8361 149.8ZM57.4692 156.263L58.4709 152.524L54.6072 151.489L53.6055 155.227L57.4692 156.263Z" fill="black" mask="url(#path-85-inside-19_444_19547)"/>
<path d="M59.4915 153.537L59.9209 151.935C60.3889 151.832 60.8412 151.76 61.2777 151.719L60.8215 153.422C60.3841 153.434 59.9406 153.473 59.4915 153.537Z" fill="white" stroke="black" stroke-width="2" stroke-linejoin="round"/>
<mask id="path-88-inside-20_444_19547" fill="white">
<path d="M40.3958 147.173C40.6134 146.361 40.9605 145.552 41.4454 144.766L40.4437 148.505C39.9588 149.291 39.6117 150.1 39.394 150.911L40.3958 147.173Z"/>
</mask>
<path d="M40.3958 147.173C40.6134 146.361 40.9605 145.552 41.4454 144.766L40.4437 148.505C39.9588 149.291 39.6117 150.1 39.394 150.911L40.3958 147.173Z" fill="white"/>
<path d="M41.4454 144.766L43.3773 145.284C43.6341 144.325 43.1491 143.323 42.2377 142.93C41.3264 142.537 40.2645 142.871 39.7433 143.716L41.4454 144.766ZM40.3958 147.173L38.464 146.655L38.4639 146.655L40.3958 147.173ZM39.394 150.911L37.4622 150.393C37.1763 151.46 37.8094 152.557 38.8762 152.843C39.943 153.129 41.0397 152.496 41.3258 151.429L39.394 150.911ZM40.4437 148.505L42.1458 149.555C42.2478 149.389 42.3252 149.21 42.3755 149.022L40.4437 148.505ZM39.7433 143.716C39.1598 144.662 38.7336 145.649 38.464 146.655L42.3275 147.691C42.4932 147.073 42.7612 146.442 43.1475 145.816L39.7433 143.716ZM38.4639 146.655L37.4622 150.393L41.3259 151.429L42.3276 147.69L38.4639 146.655ZM41.3258 151.429C41.4915 150.811 41.7595 150.181 42.1458 149.555L38.7416 147.454C38.1581 148.4 37.7319 149.388 37.4623 150.393L41.3258 151.429ZM42.3755 149.022L43.3773 145.284L39.5136 144.249L38.5118 147.987L42.3755 149.022Z" fill="black" mask="url(#path-88-inside-20_444_19547)"/>
<path d="M62.8557 153.572L63.3378 151.774C65.2136 152.079 66.7297 153.122 67.8663 154.914L67.5187 156.211C66.2643 154.818 64.6977 153.916 62.8557 153.572Z" fill="white" stroke="black" stroke-width="2" stroke-linejoin="round"/>
<path d="M48.7287 151.934L48.9983 150.928L49.057 150.894L48.7873 151.9L48.7287 151.934Z" fill="white" stroke="black" stroke-width="2" stroke-linejoin="round"/>
<path d="M59.7647 155.782L60.1905 154.193C60.5287 154.111 60.8498 154.05 61.1541 154.008L60.7041 155.688C60.3985 155.703 60.0853 155.734 59.7647 155.782Z" fill="white" stroke="black" stroke-width="2" stroke-linejoin="round"/>
<path d="M62.7316 155.856L63.2153 154.051C64.2772 154.285 65.1609 154.901 65.908 156.047L65.5421 157.413C64.7363 156.623 63.7986 156.107 62.7316 155.856Z" fill="white" stroke="black" stroke-width="2" stroke-linejoin="round"/>
<mask id="path-94-inside-21_444_19547" fill="white">
<path d="M69.8476 156.829C69.6268 156.12 69.3242 155.428 68.94 154.762L67.9383 158.501C68.3225 159.166 68.6251 159.858 68.8459 160.568L69.8476 156.829Z"/>
</mask>
<path d="M69.8476 156.829C69.6268 156.12 69.3242 155.428 68.94 154.762L67.9383 158.501C68.3225 159.166 68.6251 159.858 68.8459 160.568L69.8476 156.829Z" fill="white"/>
<path d="M68.94 154.762L70.6721 153.762C70.2676 153.062 69.481 152.674 68.679 152.779C67.877 152.885 67.2176 153.463 67.0082 154.244L68.94 154.762ZM69.8476 156.829L71.7795 157.347C71.8773 156.982 71.8697 156.596 71.7573 156.235L69.8476 156.829ZM68.8459 160.568L66.9362 161.162C67.2008 162.012 67.9955 162.585 68.8858 162.567C69.776 162.55 70.5473 161.946 70.7778 161.085L68.8459 160.568ZM67.9383 158.501L66.0065 157.983C65.8692 158.495 65.9411 159.041 66.2063 159.501L67.9383 158.501ZM67.208 155.762C67.519 156.301 67.7617 156.857 67.9379 157.424L71.7573 156.235C71.492 155.383 71.1295 154.554 70.6721 153.762L67.208 155.762ZM67.9158 156.312L66.914 160.05L70.7778 161.085L71.7795 157.347L67.9158 156.312ZM70.7556 159.974C70.4903 159.121 70.1278 158.293 69.6704 157.501L66.2063 159.501C66.5173 160.039 66.7599 160.596 66.9362 161.162L70.7556 159.974ZM69.8702 159.018L70.8719 155.28L67.0082 154.244L66.0065 157.983L69.8702 159.018Z" fill="black" mask="url(#path-94-inside-21_444_19547)"/>
<path d="M54.0665 155.319L54.3646 154.206C54.5819 154.084 54.7974 153.966 55.0111 153.853L54.6976 155.023C54.4883 155.118 54.2779 155.216 54.0665 155.319Z" fill="white" stroke="black" stroke-width="2" stroke-linejoin="round"/>
<mask id="path-97-inside-22_444_19547" fill="white">
<path d="M41.1587 153.153C40.1367 151.383 39.8343 149.271 40.3954 147.175L39.3947 150.91C38.8322 153.007 39.1344 155.12 40.157 156.892L41.1587 153.153Z"/>
</mask>
<path d="M41.1587 153.153C40.1367 151.383 39.8343 149.271 40.3954 147.175L39.3947 150.91C38.8322 153.007 39.1344 155.12 40.157 156.892L41.1587 153.153Z" fill="white"/>
<path d="M39.4306 146.912C39.4302 146.914 39.4298 146.915 39.4294 146.917L41.3614 147.434C41.3617 147.433 41.362 147.431 41.3623 147.43L39.4306 146.912ZM40.3954 147.175L42.3274 147.692C42.613 146.625 41.9797 145.529 40.9128 145.243C39.8459 144.958 38.7494 145.591 38.4635 146.658L40.3954 147.175ZM41.1587 153.153L43.0906 153.671C43.2279 153.159 43.156 152.613 42.8908 152.153L41.1587 153.153ZM40.157 156.892L38.425 157.892C38.8294 158.592 39.6161 158.98 40.4181 158.875C41.2201 158.769 41.8795 158.191 42.0889 157.409L40.157 156.892ZM39.3947 150.91L41.3265 151.428L41.3266 151.427L39.3947 150.91ZM38.4634 146.658C37.7653 149.266 38.1395 151.924 39.4267 154.153L42.8908 152.153C42.134 150.842 41.9034 149.276 42.3274 147.692L38.4634 146.658ZM39.2269 152.636L38.2252 156.374L42.0889 157.409L43.0906 153.671L39.2269 152.636ZM41.8891 155.892C41.1318 154.58 40.9014 153.013 41.3265 151.428L37.463 150.392C36.7631 153.001 37.137 155.661 38.425 157.892L41.8891 155.892ZM41.3266 151.427L42.3272 147.693L38.4635 146.658L37.4629 150.392L41.3266 151.427Z" fill="black" mask="url(#path-97-inside-22_444_19547)"/>
<mask id="path-99-inside-23_444_19547" fill="white">
<path d="M53.5058 153.543C53.3564 153.63 53.2082 153.714 53.0615 153.795L52.0598 157.534C52.2065 157.452 52.3546 157.368 52.5041 157.282L53.5058 153.543Z"/>
</mask>
<path d="M53.5058 153.543C53.3564 153.63 53.2082 153.714 53.0615 153.795L52.0598 157.534C52.2065 157.452 52.3546 157.368 52.5041 157.282L53.5058 153.543Z" fill="white"/>
<path d="M53.0615 153.795L52.0886 152.048C51.6157 152.311 51.2697 152.755 51.1296 153.278L53.0615 153.795ZM53.5058 153.543L55.4377 154.061C55.647 153.28 55.3651 152.449 54.7233 151.957C54.0816 151.464 53.2064 151.407 52.5058 151.811L53.5058 153.543ZM52.5041 157.282L53.5041 159.014C53.9635 158.749 54.2987 158.312 54.436 157.799L52.5041 157.282ZM52.0598 157.534L50.1279 157.016C49.92 157.792 50.1965 158.617 50.8299 159.111C51.4634 159.605 52.3309 159.672 53.0327 159.281L52.0598 157.534ZM54.0344 155.543C54.1904 155.456 54.3476 155.367 54.5058 155.275L52.5058 151.811C52.3651 151.892 52.2261 151.971 52.0886 152.048L54.0344 155.543ZM51.574 153.026L50.5723 156.764L54.436 157.799L55.4377 154.061L51.574 153.026ZM51.5041 155.55C51.3634 155.631 51.2244 155.71 51.0869 155.786L53.0327 159.281C53.1887 159.194 53.3459 159.105 53.5041 159.014L51.5041 155.55ZM53.9916 158.051L54.9933 154.313L51.1296 153.278L50.1279 157.016L53.9916 158.051Z" fill="black" mask="url(#path-99-inside-23_444_19547)"/>
<mask id="path-101-inside-24_444_19547" fill="white">
<path d="M48.139 150.269L48.7641 155.671L47.7624 159.41L47.1373 154.007L48.139 150.269Z"/>
</mask>
<path d="M48.139 150.269L48.7641 155.671L47.7624 159.41L47.1373 154.007L48.139 150.269Z" fill="white"/>
<path d="M48.7641 155.671L50.696 156.189C50.7612 155.945 50.7798 155.692 50.7509 155.441L48.7641 155.671ZM48.139 150.269L50.1258 150.039C50.0154 149.085 49.243 148.344 48.2855 148.274C47.328 148.204 46.4557 148.824 46.2072 149.751L48.139 150.269ZM47.1373 154.007L45.2055 153.49C45.1402 153.733 45.1216 153.987 45.1506 154.237L47.1373 154.007ZM47.7624 159.41L45.7757 159.64C45.886 160.593 46.6584 161.334 47.6159 161.404C48.5734 161.475 49.4458 160.855 49.6943 159.927L47.7624 159.41ZM50.7509 155.441L50.1258 150.039L46.1523 150.499L46.7774 155.901L50.7509 155.441ZM46.2072 149.751L45.2055 153.49L49.0692 154.525L50.0709 150.786L46.2072 149.751ZM45.1506 154.237L45.7757 159.64L49.7491 159.18L49.1241 153.777L45.1506 154.237ZM49.6943 159.927L50.696 156.189L46.8323 155.154L45.8306 158.892L49.6943 159.927Z" fill="black" mask="url(#path-101-inside-24_444_19547)"/>
<mask id="path-103-inside-25_444_19547" fill="white">
<path d="M54.6357 155.502C55.3961 155.063 56.1215 154.683 56.8124 154.361L55.8106 158.099C55.1198 158.422 54.3944 158.801 53.634 159.24L54.6357 155.502Z"/>
</mask>
<path d="M54.6357 155.502C55.3961 155.063 56.1215 154.683 56.8124 154.361L55.8106 158.099C55.1198 158.422 54.3944 158.801 53.634 159.24L54.6357 155.502Z" fill="white"/>
<path d="M56.8124 154.361L58.7442 154.879C58.9454 154.128 58.6933 153.328 58.0977 152.829C57.5022 152.329 56.6711 152.22 55.9666 152.548L56.8124 154.361ZM54.6357 155.502L53.6357 153.77C53.1763 154.035 52.8411 154.472 52.7038 154.984L54.6357 155.502ZM53.634 159.24L51.7021 158.723C51.4928 159.504 51.7747 160.334 52.4165 160.827C53.0582 161.319 53.9334 161.377 54.634 160.972L53.634 159.24ZM55.8106 158.099L56.6563 159.912C57.1919 159.662 57.5895 159.188 57.7425 158.617L55.8106 158.099ZM55.9666 152.548C55.2173 152.898 54.4404 153.305 53.6357 153.77L55.6357 157.234C56.3518 156.82 57.0256 156.468 57.6581 156.173L55.9666 152.548ZM52.7038 154.984L51.7021 158.723L55.5658 159.758L56.5676 156.019L52.7038 154.984ZM54.634 160.972C55.3501 160.559 56.0239 160.207 56.6563 159.912L54.9649 156.287C54.2156 156.637 53.4387 157.044 52.634 157.508L54.634 160.972ZM57.7425 158.617L58.7442 154.879L54.8805 153.843L53.8788 157.582L57.7425 158.617Z" fill="black" mask="url(#path-103-inside-25_444_19547)"/>
<mask id="path-105-inside-26_444_19547" fill="white">
<path d="M59.9971 158.767L59.3733 153.376L58.3716 157.115L58.9954 162.506L59.9971 158.767Z"/>
</mask>
<path d="M59.9971 158.767L59.3733 153.376L58.3716 157.115L58.9954 162.506L59.9971 158.767Z" fill="white"/>
<path d="M59.3733 153.376L61.3601 153.146C61.2497 152.193 60.4773 151.452 59.5198 151.382C58.5623 151.311 57.6899 151.931 57.4415 152.859L59.3733 153.376ZM59.9971 158.767L61.9289 159.285C61.9942 159.041 62.0128 158.788 61.9838 158.537L59.9971 158.767ZM58.9954 162.506L57.0086 162.735C57.119 163.689 57.8914 164.43 58.8489 164.5C59.8064 164.571 60.6787 163.951 60.9272 163.023L58.9954 162.506ZM58.3716 157.115L56.4398 156.597C56.3745 156.841 56.3559 157.094 56.3849 157.345L58.3716 157.115ZM57.3866 153.606L58.0103 158.997L61.9838 158.537L61.3601 153.146L57.3866 153.606ZM58.0652 158.25L57.0635 161.988L60.9272 163.023L61.9289 159.285L58.0652 158.25ZM60.9821 162.276L60.3583 156.885L56.3849 157.345L57.0086 162.735L60.9821 162.276ZM60.3035 157.632L61.3052 153.894L57.4415 152.859L56.4398 156.597L60.3035 157.632Z" fill="black" mask="url(#path-105-inside-26_444_19547)"/>
<mask id="path-107-inside-27_444_19547" fill="white">
<path d="M53.0623 153.796L53.3419 156.213L52.3402 159.951L52.0606 157.534L53.0623 153.796Z"/>
</mask>
<path d="M53.0623 153.796L53.3419 156.213L52.3402 159.951L52.0606 157.534L53.0623 153.796Z" fill="white"/>
<path d="M53.3419 156.213L55.2738 156.73C55.339 156.487 55.3576 156.233 55.3287 155.983L53.3419 156.213ZM53.0623 153.796L55.049 153.566C54.9387 152.612 54.1663 151.872 53.2088 151.801C52.2513 151.731 51.3789 152.351 51.1304 153.278L53.0623 153.796ZM52.0606 157.534L50.1287 157.017C50.0635 157.26 50.0449 157.514 50.0738 157.764L52.0606 157.534ZM52.3402 159.951L50.3535 160.181C50.4638 161.135 51.2362 161.875 52.1937 161.946C53.1512 162.016 54.0236 161.396 54.2721 160.469L52.3402 159.951ZM55.3287 155.983L55.049 153.566L51.0755 154.026L51.3552 156.443L55.3287 155.983ZM51.1304 153.278L50.1287 157.017L53.9924 158.052L54.9941 154.314L51.1304 153.278ZM50.0738 157.764L50.3535 160.181L54.3269 159.721L54.0473 157.305L50.0738 157.764ZM54.2721 160.469L55.2738 156.73L51.4101 155.695L50.4084 159.434L54.2721 160.469Z" fill="black" mask="url(#path-107-inside-27_444_19547)"/>
<mask id="path-109-inside-28_444_19547" fill="white">
<path d="M66.9863 155.891C68.009 157.662 68.3111 159.776 67.7486 161.873L66.748 165.608C67.309 163.512 67.0066 161.4 65.9846 159.63L66.9863 155.891Z"/>
</mask>
<path d="M66.9863 155.891C68.009 157.662 68.3111 159.776 67.7486 161.873L66.748 165.608C67.309 163.512 67.0066 161.4 65.9846 159.63L66.9863 155.891Z" fill="white"/>
<path d="M65.782 165.349C65.7816 165.35 65.7813 165.351 65.7811 165.352L67.7127 165.871C67.7132 165.869 67.7136 165.867 67.714 165.866L65.782 165.349ZM67.7486 161.873L65.8169 161.355L65.8168 161.355L67.7486 161.873ZM66.9863 155.891L68.7184 154.891C68.3139 154.191 67.5273 153.803 66.7253 153.908C65.9233 154.014 65.2638 154.592 65.0545 155.373L66.9863 155.891ZM65.9846 159.63L64.0528 159.112C63.9155 159.624 63.9873 160.17 64.2526 160.63L65.9846 159.63ZM66.748 165.608L64.816 165.09C64.5304 166.157 65.1637 167.254 66.2306 167.539C67.2974 167.825 68.394 167.192 68.6798 166.125L66.748 165.608ZM69.6803 162.391C70.3803 159.782 70.0064 157.122 68.7184 154.891L65.2543 156.891C66.0116 158.203 66.242 159.77 65.8169 161.355L69.6803 162.391ZM65.0545 155.373L64.0528 159.112L67.9165 160.147L68.9182 156.409L65.0545 155.373ZM64.2526 160.63C65.0094 161.94 65.24 163.507 64.816 165.09L68.68 166.125C69.3781 163.517 69.0038 160.859 67.7167 158.63L64.2526 160.63ZM68.6798 166.125L69.6805 162.391L65.8168 161.355L64.8161 165.09L68.6798 166.125Z" fill="black" mask="url(#path-109-inside-28_444_19547)"/>
<mask id="path-111-inside-29_444_19547" fill="white">
<path d="M53.3427 156.213C53.7689 155.991 54.2006 155.754 54.6378 155.502L53.6361 159.24C53.1989 159.493 52.7671 159.73 52.341 159.951L53.3427 156.213Z"/>
</mask>
<path d="M53.3427 156.213C53.7689 155.991 54.2006 155.754 54.6378 155.502L53.6361 159.24C53.1989 159.493 52.7671 159.73 52.341 159.951L53.3427 156.213Z" fill="white"/>
<path d="M54.6378 155.502L56.5697 156.02C56.7791 155.238 56.4971 154.408 55.8554 153.915C55.2136 153.423 54.3384 153.365 53.6378 153.77L54.6378 155.502ZM53.3427 156.213L52.4211 154.438C51.9228 154.697 51.5562 155.153 51.4109 155.695L53.3427 156.213ZM52.341 159.951L50.4092 159.434C50.204 160.199 50.4704 161.014 51.0884 161.51C51.7063 162.007 52.5592 162.091 53.2627 161.726L52.341 159.951ZM53.6361 159.24L54.6361 160.972C55.0955 160.707 55.4307 160.27 55.568 159.758L53.6361 159.24ZM53.6378 153.77C53.2246 154.008 52.819 154.231 52.4211 154.438L54.2644 157.988C54.7187 157.752 55.1766 157.5 55.6378 157.234L53.6378 153.77ZM51.4109 155.695L50.4092 159.434L54.2729 160.469L55.2746 156.73L51.4109 155.695ZM53.2627 161.726C53.717 161.49 54.1749 161.239 54.6361 160.972L52.6361 157.508C52.2229 157.747 51.8173 157.97 51.4194 158.176L53.2627 161.726ZM55.568 159.758L56.5697 156.02L52.706 154.984L51.7043 158.723L55.568 159.758Z" fill="black" mask="url(#path-111-inside-29_444_19547)"/>
<mask id="path-113-inside-30_444_19547" fill="white">
<path d="M56.815 154.36L57.4923 160.214L56.4906 163.953L55.8132 158.099L56.815 154.36Z"/>
</mask>
<path d="M56.815 154.36L57.4923 160.214L56.4906 163.953L55.8132 158.099L56.815 154.36Z" fill="white"/>
<path d="M57.4923 160.214L59.4242 160.732C59.4894 160.488 59.508 160.235 59.479 159.984L57.4923 160.214ZM56.815 154.36L58.8017 154.13C58.6914 153.177 57.9189 152.436 56.9614 152.365C56.0039 152.295 55.1316 152.915 54.8831 153.842L56.815 154.36ZM55.8132 158.099L53.8814 157.581C53.8161 157.824 53.7975 158.078 53.8265 158.328L55.8132 158.099ZM56.4906 163.953L54.5038 164.183C54.6142 165.136 55.3866 165.877 56.3441 165.947C57.3016 166.018 58.174 165.398 58.4224 164.47L56.4906 163.953ZM59.479 159.984L58.8017 154.13L54.8282 154.59L55.5056 160.444L59.479 159.984ZM54.8831 153.842L53.8814 157.581L57.7451 158.616L58.7468 154.878L54.8831 153.842ZM53.8265 158.328L54.5038 164.183L58.4773 163.723L57.8 157.869L53.8265 158.328ZM58.4224 164.47L59.4242 160.732L55.5605 159.697L54.5587 163.435L58.4224 164.47Z" fill="black" mask="url(#path-113-inside-30_444_19547)"/>
<mask id="path-115-inside-31_444_19547" fill="white">
<path d="M52.3156 163.203L50.6513 148.819L49.6496 152.557L51.3139 166.942L52.3156 163.203Z"/>
</mask>
<path d="M52.3156 163.203L50.6513 148.819L49.6496 152.557L51.3139 166.942L52.3156 163.203Z" fill="white"/>
<path d="M50.6513 148.819L52.638 148.589C52.5277 147.635 51.7552 146.895 50.7977 146.824C49.8403 146.754 48.9679 147.374 48.7194 148.301L50.6513 148.819ZM52.3156 163.203L54.2475 163.721C54.3127 163.478 54.3313 163.224 54.3024 162.973L52.3156 163.203ZM51.3139 166.942L49.3272 167.172C49.4375 168.125 50.21 168.866 51.1674 168.936C52.1249 169.007 52.9973 168.387 53.2458 167.459L51.3139 166.942ZM49.6496 152.557L47.7177 152.04C47.6525 152.283 47.6338 152.537 47.6628 152.787L49.6496 152.557ZM48.6645 149.049L50.3289 163.433L54.3024 162.973L52.638 148.589L48.6645 149.049ZM50.3838 162.686L49.3821 166.424L53.2458 167.459L54.2475 163.721L50.3838 162.686ZM53.3007 166.712L51.6363 152.327L47.6628 152.787L49.3272 167.172L53.3007 166.712ZM51.5814 153.075L52.5831 149.336L48.7194 148.301L47.7177 152.04L51.5814 153.075Z" fill="black" mask="url(#path-115-inside-31_444_19547)"/>
<mask id="path-117-inside-32_444_19547" fill="white">
<path d="M38.2902 152.205C38.5113 152.919 38.8152 153.616 39.2017 154.285L38.2 158.023C37.8135 157.354 37.5096 156.658 37.2885 155.944L38.2902 152.205Z"/>
</mask>
<path d="M38.2902 152.205C38.5113 152.919 38.8152 153.616 39.2017 154.285L38.2 158.023C37.8135 157.354 37.5096 156.658 37.2885 155.944L38.2902 152.205Z" fill="white"/>
<path d="M39.2017 154.285L41.1335 154.803C41.2708 154.29 41.199 153.744 40.9337 153.285L39.2017 154.285ZM38.2902 152.205L40.2007 151.613C39.9371 150.762 39.1424 150.188 38.2517 150.206C37.3609 150.223 36.5889 150.827 36.3584 151.687L38.2902 152.205ZM37.2885 155.944L35.3567 155.426C35.259 155.79 35.2664 156.175 35.378 156.535L37.2885 155.944ZM38.2 158.023L36.4679 159.023C36.8724 159.724 37.659 160.112 38.461 160.006C39.263 159.901 39.9225 159.322 40.1318 158.541L38.2 158.023ZM40.9337 153.285C40.6209 152.743 40.3772 152.183 40.2007 151.613L36.3797 152.797C36.6454 153.655 37.0095 154.488 37.4696 155.285L40.9337 153.285ZM36.3584 151.687L35.3567 155.426L39.2204 156.461L40.2221 152.723L36.3584 151.687ZM35.378 156.535C35.6437 157.393 36.0078 158.227 36.4679 159.023L39.932 157.023C39.6192 156.482 39.3755 155.922 39.199 155.352L35.378 156.535ZM40.1318 158.541L41.1335 154.803L37.2698 153.767L36.2681 157.506L40.1318 158.541Z" fill="black" mask="url(#path-117-inside-32_444_19547)"/>
<path d="M41.2344 156.736L41.6003 155.371C42.4061 156.16 43.3438 156.676 44.4108 156.927L43.9271 158.732C42.8652 158.498 41.9815 157.882 41.2344 156.736Z" fill="white" stroke="black" stroke-width="2" stroke-linejoin="round"/>
<path d="M46.4346 157.096C46.7395 157.081 47.0521 157.05 47.372 157.003L46.9461 158.592C46.6086 158.674 46.2883 158.735 45.9845 158.776L46.4346 157.096Z" fill="white" stroke="black" stroke-width="2" stroke-linejoin="round"/>
<path d="M58.0802 161.88L58.3499 160.873L58.4085 160.839L58.1389 161.846L58.0802 161.88Z" fill="white" stroke="black" stroke-width="2" stroke-linejoin="round"/>
<path d="M39.2727 157.871L39.6203 156.574C40.8747 157.966 42.4413 158.869 44.2832 159.212L43.8012 161.011C41.9253 160.705 40.4093 159.662 39.2727 157.871Z" fill="white" stroke="black" stroke-width="2" stroke-linejoin="round"/>
<mask id="path-123-inside-33_444_19547" fill="white">
<path d="M67.7492 161.873C67.5377 162.661 67.2039 163.448 66.7403 164.213L65.7386 167.951C66.2022 167.186 66.536 166.4 66.7475 165.611L67.7492 161.873Z"/>
</mask>
<path d="M67.7492 161.873C67.5377 162.661 67.2039 163.448 66.7403 164.213L65.7386 167.951C66.2022 167.186 66.536 166.4 66.7475 165.611L67.7492 161.873Z" fill="white"/>
<path d="M66.7403 164.213L65.03 163.176C64.932 163.338 64.8574 163.512 64.8085 163.695L66.7403 164.213ZM67.7492 161.873L69.681 162.391C69.9669 161.324 69.3338 160.227 68.267 159.941C67.2002 159.655 66.1036 160.288 65.8174 161.355L67.7492 161.873ZM66.7475 165.611L68.6792 166.13L68.6793 166.129L66.7475 165.611ZM65.7386 167.951L63.8068 167.433C63.5491 168.395 64.0379 169.4 64.9536 169.791C65.8693 170.181 66.9329 169.839 67.449 168.988L65.7386 167.951ZM68.4507 165.249C69.0091 164.328 69.4189 163.368 69.6809 162.391L65.8174 161.355C65.6564 161.955 65.3988 162.567 65.03 163.176L68.4507 165.249ZM65.8173 161.355L64.8156 165.094L68.6793 166.129L69.681 162.391L65.8173 161.355ZM64.8157 165.093C64.6547 165.694 64.3971 166.306 64.0283 166.914L67.449 168.988C68.0074 168.066 68.4172 167.106 68.6792 166.13L64.8157 165.093ZM67.6705 168.469L68.6722 164.73L64.8085 163.695L63.8068 167.433L67.6705 168.469Z" fill="black" mask="url(#path-123-inside-33_444_19547)"/>
<path d="M45.8587 161.066L46.3149 159.363C46.7517 159.351 47.1946 159.312 47.643 159.248L47.2136 160.851C46.7462 160.954 46.2947 161.025 45.8587 161.066Z" fill="white" stroke="black" stroke-width="2" stroke-linejoin="round"/>
<path d="M63.5321 170.068C64.1947 169.666 64.8227 169.227 65.4151 168.756C64.793 169.487 64.0997 170.17 63.3382 170.792L63.5321 170.068Z" fill="white" stroke="black" stroke-width="2" stroke-linejoin="round"/>
<path d="M38.0978 163.256L37.9038 163.98C37.5555 163.06 37.2963 162.123 37.1233 161.178C37.4009 161.882 37.7253 162.576 38.0978 163.256Z" fill="white" stroke="black" stroke-width="2" stroke-linejoin="round"/>
<path d="M39.1873 162.627L39.0013 163.321C38.7054 162.503 38.4855 161.67 38.3391 160.831C38.5838 161.439 38.8663 162.039 39.1873 162.627Z" fill="white" stroke="black" stroke-width="2" stroke-linejoin="round"/>
<mask id="path-129-inside-34_444_19547" fill="white">
<path d="M49.0288 157.944L49.805 164.653L48.8033 168.391L48.0271 161.682L49.0288 157.944Z"/>
</mask>
<path d="M49.0288 157.944L49.805 164.653L48.8033 168.391L48.0271 161.682L49.0288 157.944Z" fill="white"/>
<path d="M49.805 164.653L51.7369 165.17C51.8021 164.927 51.8207 164.673 51.7917 164.423L49.805 164.653ZM49.0288 157.944L51.0155 157.714C50.9052 156.76 50.1327 156.02 49.1753 155.949C48.2178 155.879 47.3454 156.499 47.0969 157.426L49.0288 157.944ZM48.0271 161.682L46.0952 161.165C46.03 161.408 46.0114 161.662 46.0403 161.912L48.0271 161.682ZM48.8033 168.391L46.8165 168.621C46.9269 169.575 47.6993 170.315 48.6568 170.386C49.6143 170.456 50.4867 169.836 50.7351 168.909L48.8033 168.391ZM51.7917 164.423L51.0155 157.714L47.042 158.174L47.8183 164.882L51.7917 164.423ZM47.0969 157.426L46.0952 161.165L49.9589 162.2L50.9606 158.462L47.0969 157.426ZM46.0403 161.912L46.8165 168.621L50.79 168.161L50.0138 161.452L46.0403 161.912ZM50.7351 168.909L51.7369 165.17L47.8731 164.135L46.8714 167.873L50.7351 168.909Z" fill="black" mask="url(#path-129-inside-34_444_19547)"/>
<path d="M62.7162 169.676L62.9022 168.982C63.4744 168.633 64.0189 168.255 64.5349 167.851C63.9889 168.503 63.3819 169.115 62.7162 169.676Z" fill="white" stroke="black" stroke-width="2" stroke-linejoin="round"/>
<path d="M50.3927 166.318L50.6624 165.311L50.721 165.278L50.4514 166.284L50.3927 166.318Z" fill="white" stroke="black" stroke-width="2" stroke-linejoin="round"/>
<path d="M40.6528 164.879C45.2999 170.912 53.4645 173.1 60.5058 170.198L60.1833 171.402C53.2087 175.183 44.4799 172.844 40.3302 166.083L40.6528 164.879Z" fill="white" stroke="black" stroke-width="2" stroke-linejoin="round"/>
<path d="M39.2441 166.712L39.5634 165.52C44.5693 172.138 53.4848 174.527 61.1291 171.299L60.8099 172.49C53.2355 176.616 43.7406 174.072 39.2441 166.712Z" fill="white" stroke="black" stroke-width="2" stroke-linejoin="round"/>
<circle cx="54.077" cy="154.519" r="21.1161" fill="white" stroke="black" stroke-width="2"/>
<path fill-rule="evenodd" clip-rule="evenodd" d="M54.0803 171.722C63.5804 171.722 71.2817 164.02 71.2817 154.52C71.2817 145.02 63.5804 137.319 54.0803 137.319C44.5802 137.319 36.8789 145.02 36.8789 154.52C36.8789 164.02 44.5802 171.722 54.0803 171.722ZM41.3087 146.883C41.3087 149.802 42.4681 152.088 44.7724 153.583C45.689 154.178 46.7669 154.635 47.9916 154.966L45.3096 161.164H48.2058L53.9566 147.874H51.0605L48.9005 152.866C47.7286 152.58 46.7666 152.182 46.003 151.687C44.4034 150.649 43.5694 149.114 43.5694 146.883C43.5694 145.488 43.9391 144.123 44.6612 142.909C47.2313 140.823 50.5076 139.573 54.076 139.573C62.3314 139.573 69.0237 146.265 69.0237 154.52C69.0237 157.382 68.2197 160.055 66.8252 162.328C66.826 162.274 66.8264 162.22 66.8264 162.166C66.8264 159.247 65.667 156.961 63.3627 155.466C62.4467 154.872 61.3698 154.415 60.1462 154.084L62.8333 147.874H59.9372L57.4682 153.58C56.4093 153.454 55.2737 153.394 54.0675 153.394C53.8954 153.394 53.7255 153.393 53.558 153.39L52.5918 155.623C53.0711 155.644 53.5631 155.655 54.0675 155.655C54.947 155.655 55.7661 155.689 56.5266 155.756L54.1863 161.164H57.0824L59.2374 156.184C60.408 156.47 61.3691 156.867 62.1321 157.362C63.7317 158.4 64.5657 159.936 64.5657 162.166C64.5657 163.564 64.1941 164.933 63.4682 166.149C60.9016 168.225 57.634 169.468 54.076 169.468C45.8207 169.468 39.1284 162.776 39.1284 154.52C39.1284 151.671 39.9258 149.007 41.3096 146.741C41.309 146.788 41.3087 146.836 41.3087 146.883Z" fill="black"/>
<path d="M44.5526 135.692L26.8359 145.921" stroke="black" stroke-width="2" stroke-linecap="round"/>
<path d="M23.4801 147.856L21.0859 149.238" stroke="black" stroke-width="2" stroke-linecap="round"/>
<path d="M31.3829 159.955L22.2852 165.207" stroke="black" stroke-width="2" stroke-linecap="round"/>
<path d="M47.5153 175.76L36.0234 182.395" stroke="black" stroke-width="2" stroke-linecap="round"/>
<path d="M62.6225 177.093L18.5703 202.527" stroke="black" stroke-width="2" stroke-linecap="round"/>
<path d="M42.1442 165.873L23.2305 176.793" stroke="black" stroke-width="2" stroke-linecap="round"/>
<path d="M19.8787 178.728L14.1328 182.046" stroke="black" stroke-width="2" stroke-linecap="round"/>
<path d="M149.433 109.971L149.3 108.823L148.183 109.119C146.045 109.686 144.05 109.928 142.201 109.831C137.611 109.592 134.018 107.277 131.53 102.968C130.868 101.821 130.349 100.629 129.971 99.4101L128.027 99.5602C127.08 105.981 128.213 112.757 131.71 118.814C139.951 133.088 158.203 137.978 172.477 129.737C175.992 127.708 178.939 125.07 181.262 122.033L181.295 121.99L181.323 121.944C182.209 120.482 182.85 118.973 183.258 117.453C184.344 113.403 183.762 109.308 181.779 105.874C179.61 102.116 176.624 100.251 172.809 100.052C171.028 99.9595 169.047 100.23 166.871 100.865L166.061 101.101L166.158 101.94L167.211 111.037L164.562 112.567L163.512 103.491L163.352 102.113L162.096 102.7C160.817 103.296 159.479 103.997 158.082 104.803C157.74 105.001 157.401 105.192 157.064 105.379L156.803 103.129C156.881 103.084 156.959 103.039 157.037 102.994C158.896 101.921 160.692 101.008 162.42 100.265L163.105 99.9709L163.019 99.2312L161.802 88.7152L164.451 87.1857L165.683 97.8278L165.815 98.9758L166.932 98.6794C169.071 98.1118 171.068 97.8698 172.918 97.9662C177.508 98.2052 181.101 100.521 183.588 104.83C184.247 105.97 184.764 107.154 185.141 108.366L187.085 108.214C188.029 101.796 186.896 95.024 183.401 88.9702C175.159 74.6963 156.907 69.8057 142.633 78.0467C139.161 80.0513 136.243 82.6498 133.934 85.6406L133.902 85.6821L133.874 85.7266C132.948 87.2279 132.281 88.7805 131.861 90.345C130.775 94.3943 131.357 98.4899 133.34 101.923C135.509 105.682 138.495 107.547 142.309 107.745C144.09 107.838 146.07 107.568 148.244 106.934L149.054 106.698L148.957 105.859L147.902 96.7405L150.551 95.2111L153.311 119.063L150.662 120.592L149.433 109.971ZM148.85 122.334L149.025 123.847L150.343 123.085L154.879 120.466L155.448 120.138L155.373 119.485L152.363 93.469L152.188 91.9567L150.869 92.7179L146.333 95.3369L145.764 95.6654L145.84 96.3179L146.871 105.235C145.196 105.657 143.713 105.816 142.413 105.748C139.34 105.588 136.936 104.153 135.072 100.923C133.355 97.9495 132.844 94.4 133.793 90.8631C134.156 89.5073 134.736 88.1485 135.549 86.8212C137.697 84.0507 140.407 81.6415 143.633 79.7788C156.951 72.09 173.98 76.6528 181.668 89.9702C184.22 94.3896 185.422 99.2161 185.403 103.975C185.376 103.927 185.348 103.878 185.32 103.83C182.529 98.9943 178.355 96.2466 173.022 95.9689C171.267 95.8775 169.436 96.0563 167.539 96.4741L166.263 85.4436L166.088 83.9313L164.77 84.6925L160.233 87.3115L159.664 87.64L159.74 88.2925L160.947 98.728C159.351 99.4465 157.713 100.295 156.037 101.262C155.771 101.416 155.508 101.565 155.247 101.71L154.663 102.035L154.74 102.699L155.246 107.07L155.413 108.511L156.7 107.842C157.485 107.435 158.279 106.999 159.082 106.535C159.98 106.017 160.848 105.546 161.687 105.122L162.75 114.309L162.925 115.821L164.244 115.06L168.78 112.441L169.349 112.112L169.273 111.46L168.244 102.564C169.921 102.141 171.405 101.982 172.705 102.05C175.779 102.21 178.183 103.645 180.047 106.874C181.764 109.848 182.275 113.398 181.326 116.935C180.973 118.251 180.417 119.57 179.64 120.861C177.48 123.674 174.743 126.12 171.477 128.005C158.16 135.694 141.131 131.131 133.442 117.814C130.89 113.394 129.688 108.567 129.707 103.808C129.737 103.861 129.768 103.915 129.798 103.968C132.59 108.803 136.764 111.551 142.097 111.829C143.85 111.92 145.68 111.742 147.576 111.324L148.85 122.334ZM191.326 84.3923C196.71 93.7167 197.805 104.338 195.224 113.978C192.642 123.624 186.381 132.281 177.051 137.667C158.398 148.437 134.546 142.046 123.776 123.392C118.393 114.068 117.297 103.447 119.878 93.8063C122.46 84.1607 128.722 75.5037 138.051 70.1173C156.705 59.3478 180.557 65.7389 191.326 84.3923ZM173.609 131.702C181.29 127.267 186.447 120.136 188.572 112.197C190.697 104.263 189.795 95.5143 185.363 87.8374C176.495 72.4789 156.856 67.2167 141.498 76.0839C133.817 80.5186 128.66 87.6495 126.535 95.5885C124.411 103.523 125.312 112.272 129.745 119.949C138.612 135.307 158.251 140.569 173.609 131.702ZM186.64 111.68C184.646 119.128 179.812 125.811 172.609 129.97C158.207 138.285 139.792 133.35 131.477 118.949C127.32 111.749 126.474 103.549 128.467 96.1057C130.461 88.6583 135.295 81.9747 142.498 77.816C156.9 69.501 175.316 74.4355 183.631 88.8374C187.787 96.0366 188.633 104.237 186.64 111.68Z" fill="black" stroke="black" stroke-width="2"/>
<path d="M139.116 67.2685L140.219 63.1517C158.699 52.7358 182.132 59.0146 192.928 77.275L191.825 81.3919C180.422 63.9875 157.693 57.8973 139.116 67.2685Z" fill="white" stroke="black" stroke-width="2" stroke-linejoin="round"/>
<path d="M143.562 74.9876L144.672 70.8481C158.9 62.8855 176.898 67.708 185.238 81.7179L184.129 85.8574C175.205 72.6773 157.881 68.0356 143.562 74.9876Z" fill="white" stroke="black" stroke-width="2" stroke-linejoin="round"/>
<path d="M144.693 76.9594L145.804 72.8122C158.948 65.4753 175.559 69.9263 183.274 82.852L182.162 86.9993C173.872 74.8944 157.925 70.6215 144.693 76.9594Z" fill="white" stroke="black" stroke-width="2" stroke-linejoin="round"/>
<path d="M162.327 86.1024L163.407 82.073L165.494 80.8682L164.414 84.8976L162.327 86.1024Z" fill="white" stroke="black" stroke-width="2" stroke-linejoin="round"/>
<path d="M136.777 82.4602L137.452 79.9434C139.09 77.8526 141.051 75.9706 143.314 74.3778L142.275 78.2566C140.244 79.4664 138.408 80.8815 136.777 82.4602Z" fill="white" stroke="black" stroke-width="2" stroke-linejoin="round"/>
<path d="M194.322 79.8253C197.414 86.0562 198.687 92.7675 198.312 99.3191C197.717 93.9951 196.064 88.7032 193.27 83.7505L194.322 79.8253Z" fill="white" stroke="black" stroke-width="2" stroke-linejoin="round"/>
<path d="M136.694 68.5947C131.798 71.4867 127.72 75.2432 124.543 79.5568C127.494 73.6955 131.952 68.5196 137.745 64.6694L136.694 68.5947Z" fill="white" stroke="black" stroke-width="2" stroke-linejoin="round"/>
<path d="M167.472 90.8767L167.066 92.3904L166.284 85.633L166.69 84.1193L167.472 90.8767Z" fill="white" stroke="black" stroke-width="2" stroke-linejoin="round"/>
<path d="M183.605 89.3325L184.644 85.4537C186.755 90.0087 187.53 94.8935 187.099 99.6292C186.592 96.1062 185.442 92.6177 183.605 89.3325Z" fill="white" stroke="black" stroke-width="2" stroke-linejoin="round"/>
<path d="M186.614 84.3071C188.925 89.2035 189.802 94.4611 189.383 99.5676C188.856 95.6782 187.603 91.8232 185.571 88.1985L186.614 84.3071Z" fill="white" stroke="black" stroke-width="2" stroke-linejoin="round"/>
<path d="M141.14 76.2938C137.568 78.417 134.555 81.129 132.154 84.2339C134.344 79.6018 137.732 75.4872 142.182 72.4024L141.14 76.2938Z" fill="white" stroke="black" stroke-width="2" stroke-linejoin="round"/>
<path d="M161.748 88.2519L162.153 86.7383L162.821 92.5099L162.416 94.0236L161.748 88.2519Z" fill="white" stroke="black" stroke-width="2" stroke-linejoin="round"/>
<path d="M168.071 96.3624L169.3 91.7764C170.762 91.4232 172.156 91.2264 173.481 91.1901L172.207 95.9457C170.869 95.9388 169.489 96.0821 168.071 96.3624Z" fill="white" stroke="black" stroke-width="2" stroke-linejoin="round"/>
<mask id="path-158-inside-35_444_19547" fill="white">
<path d="M134.642 83.8415C135.036 82.3738 135.663 80.9105 136.54 79.4892L134.729 86.2507C133.852 87.672 133.224 89.1353 132.83 90.603L134.642 83.8415Z"/>
</mask>
<path d="M134.642 83.8415C135.036 82.3738 135.663 80.9105 136.54 79.4892L134.729 86.2507C133.852 87.672 133.224 89.1353 132.83 90.603L134.642 83.8415Z" fill="white"/>
<path d="M136.54 79.4892L138.472 80.0068C138.729 79.0481 138.244 78.046 137.333 77.6528C136.421 77.2596 135.359 77.5943 134.838 78.439L136.54 79.4892ZM134.642 83.8415L132.71 83.3234L132.71 83.3239L134.642 83.8415ZM132.83 90.603L130.898 90.0853C130.612 91.1522 131.246 92.2488 132.312 92.5348C133.379 92.8208 134.476 92.1879 134.762 91.1211L132.83 90.603ZM134.729 86.2507L136.431 87.3009C136.533 87.1355 136.61 86.9561 136.66 86.7683L134.729 86.2507ZM134.838 78.439C133.863 80.0202 133.156 81.6621 132.71 83.3234L136.574 84.3596C136.915 83.0856 137.464 81.8009 138.242 80.5394L134.838 78.439ZM132.71 83.3239L130.898 90.0853L134.762 91.1206L136.574 84.3591L132.71 83.3239ZM134.762 91.1211C135.104 89.847 135.652 88.5624 136.431 87.3009L133.027 85.2004C132.051 86.7816 131.344 88.4235 130.898 90.0849L134.762 91.1211ZM136.66 86.7683L138.472 80.0068L134.608 78.9716L132.797 85.733L136.66 86.7683Z" fill="black" mask="url(#path-158-inside-35_444_19547)"/>
<path d="M174.248 96.0758L175.537 91.2664C179.621 91.7084 182.868 93.8786 185.196 97.7135L184.07 101.917C181.587 98.5994 178.277 96.5912 174.248 96.0758Z" fill="white" stroke="black" stroke-width="2" stroke-linejoin="round"/>
<path d="M148.425 94.1298L149.505 90.1003L151.592 88.8955L150.512 92.925L148.425 94.1298Z" fill="white" stroke="black" stroke-width="2" stroke-linejoin="round"/>
<path d="M168.562 100.435L169.785 95.8713C171.053 95.534 172.212 95.3452 173.268 95.2892L171.997 100.033C170.92 100.043 169.774 100.177 168.562 100.435Z" fill="white" stroke="black" stroke-width="2" stroke-linejoin="round"/>
<path d="M174.03 100.175L175.32 95.3589C177.905 95.6997 179.987 97.051 181.653 99.7598L180.515 104.006C178.766 101.825 176.606 100.575 174.03 100.175Z" fill="white" stroke="black" stroke-width="2" stroke-linejoin="round"/>
<path d="M186.868 101.332L185.907 104.918C185.786 104.675 185.66 104.434 185.528 104.194L186.539 100.422C186.657 100.723 186.767 101.027 186.868 101.332Z" fill="white" stroke="black" stroke-width="2" stroke-linejoin="round"/>
<path d="M158.116 100.114L159.211 96.0256C160.27 95.4233 161.308 94.8736 162.325 94.3785L161.188 98.6203C160.18 99.0668 159.156 99.5656 158.116 100.114Z" fill="white" stroke="black" stroke-width="2" stroke-linejoin="round"/>
<path d="M133.972 98.4484C133.256 96.263 133.121 93.8861 133.643 91.4988C133.947 92.6412 134.386 93.7453 134.952 94.7918L133.972 98.4484Z" fill="white" stroke="black" stroke-width="2" stroke-linejoin="round"/>
<mask id="path-167-inside-36_444_19547" fill="white">
<path d="M158.352 95.3638C158.082 95.5199 157.814 95.6718 157.548 95.8196L155.737 102.581C156.002 102.433 156.27 102.281 156.54 102.125L158.352 95.3638Z"/>
</mask>
<path d="M158.352 95.3638C158.082 95.5199 157.814 95.6718 157.548 95.8196L155.737 102.581C156.002 102.433 156.27 102.281 156.54 102.125L158.352 95.3638Z" fill="white"/>
<path d="M157.548 95.8196L156.575 94.0722C156.103 94.3355 155.757 94.7792 155.616 95.302L157.548 95.8196ZM158.352 95.3638L160.284 95.8815C160.493 95.1001 160.211 94.2696 159.569 93.7771C158.928 93.2847 158.053 93.2273 157.352 93.6318L158.352 95.3638ZM156.54 102.125L157.54 103.857C158 103.592 158.335 103.155 158.472 102.643L156.54 102.125ZM155.737 102.581L153.805 102.063C153.597 102.839 153.873 103.664 154.507 104.158C155.14 104.652 156.008 104.719 156.71 104.329L155.737 102.581ZM158.521 97.567C158.796 97.4141 159.073 97.257 159.352 97.0959L157.352 93.6318C157.09 93.7828 156.832 93.9296 156.575 94.0722L158.521 97.567ZM156.42 94.8462L154.608 101.608L158.472 102.643L160.284 95.8815L156.42 94.8462ZM155.54 100.393C155.279 100.544 155.02 100.691 154.764 100.834L156.71 104.329C156.984 104.176 157.261 104.019 157.54 103.857L155.54 100.393ZM157.668 103.099L159.48 96.3373L155.616 95.302L153.805 102.063L157.668 103.099Z" fill="black" mask="url(#path-167-inside-36_444_19547)"/>
<path d="M147.85 96.2774L148.255 94.7637L148.762 99.1379L148.356 100.652L147.85 96.2774Z" fill="white" stroke="black" stroke-width="2" stroke-linejoin="round"/>
<path d="M160.158 103.659L161.254 99.5668C161.777 99.2696 162.29 98.9888 162.793 98.7241L161.675 102.898C161.178 103.136 160.672 103.39 160.158 103.659Z" fill="white" stroke="black" stroke-width="2" stroke-linejoin="round"/>
<path d="M169.08 104.737L168.674 106.251L168.171 101.898L168.576 100.384L169.08 104.737Z" fill="white" stroke="black" stroke-width="2" stroke-linejoin="round"/>
<mask id="path-172-inside-37_444_19547" fill="white">
<path d="M157.546 95.8209L158.052 100.192L156.24 106.953L155.734 102.582L157.546 95.8209Z"/>
</mask>
<path d="M157.546 95.8209L158.052 100.192L156.24 106.953L155.734 102.582L157.546 95.8209Z" fill="white"/>
<path d="M158.052 100.192L159.984 100.709C160.049 100.466 160.068 100.212 160.039 99.9619L158.052 100.192ZM157.546 95.8209L159.533 95.591C159.422 94.6373 158.65 93.8966 157.693 93.8262C156.735 93.7559 155.863 94.3759 155.614 95.3032L157.546 95.8209ZM155.734 102.582L153.802 102.065C153.737 102.308 153.719 102.562 153.748 102.812L155.734 102.582ZM156.24 106.953L154.253 107.183C154.364 108.137 155.136 108.878 156.094 108.948C157.051 109.018 157.923 108.398 158.172 107.471L156.24 106.953ZM160.039 99.9619L159.533 95.591L155.559 96.0507L156.065 100.422L160.039 99.9619ZM155.614 95.3032L153.802 102.065L157.666 103.1L159.478 96.3385L155.614 95.3032ZM153.748 102.812L154.253 107.183L158.227 106.723L157.721 102.352L153.748 102.812ZM158.172 107.471L159.984 100.709L156.12 99.6742L154.308 106.436L158.172 107.471Z" fill="black" mask="url(#path-172-inside-37_444_19547)"/>
<path d="M182.97 102.581C183.686 104.767 183.821 107.144 183.299 109.531C182.995 108.389 182.556 107.285 181.99 106.238L182.97 102.581Z" fill="white" stroke="black" stroke-width="2" stroke-linejoin="round"/>
<mask id="path-175-inside-38_444_19547" fill="white">
<path d="M158.052 100.192C158.823 99.7916 159.604 99.3627 160.395 98.9062L158.583 105.668C157.792 106.124 157.011 106.553 156.24 106.953L158.052 100.192Z"/>
</mask>
<path d="M158.052 100.192C158.823 99.7916 159.604 99.3627 160.395 98.9062L158.583 105.668C157.792 106.124 157.011 106.553 156.24 106.953L158.052 100.192Z" fill="white"/>
<path d="M160.395 98.9062L162.326 99.4238C162.536 98.6425 162.254 97.8119 161.612 97.3195C160.97 96.8271 160.095 96.7697 159.395 97.1741L160.395 98.9062ZM158.052 100.192L157.131 98.4168C156.632 98.6756 156.266 99.1318 156.12 99.6742L158.052 100.192ZM156.24 106.953L154.309 106.436C154.103 107.201 154.37 108.016 154.988 108.512C155.606 109.009 156.459 109.094 157.162 108.728L156.24 106.953ZM158.583 105.668L159.583 107.4C160.042 107.135 160.377 106.698 160.515 106.185L158.583 105.668ZM159.395 97.1741C158.628 97.6168 157.873 98.0313 157.131 98.4168L158.974 101.967C159.773 101.552 160.58 101.109 161.395 100.638L159.395 97.1741ZM156.12 99.6742L154.309 106.436L158.172 107.471L159.984 100.709L156.12 99.6742ZM157.162 108.728C157.961 108.313 158.768 107.87 159.583 107.4L157.583 103.936C156.816 104.378 156.061 104.793 155.319 105.178L157.162 108.728ZM160.515 106.185L162.326 99.4238L158.463 98.3886L156.651 105.15L160.515 106.185Z" fill="black" mask="url(#path-175-inside-38_444_19547)"/>
<path d="M163.539 103.677L163.945 102.163L164.545 107.354L164.14 108.868L163.539 103.677Z" fill="white" stroke="black" stroke-width="2" stroke-linejoin="round"/>
<path d="M155.18 112.761L154.774 114.274L152.389 93.655L152.794 92.1413L155.18 112.761Z" fill="white" stroke="black" stroke-width="2" stroke-linejoin="round"/>
<path d="M130.058 99.6806L131.017 96.0994C131.141 96.3482 131.27 96.5953 131.405 96.8406L130.394 100.613C130.272 100.304 130.16 99.9934 130.058 99.6806Z" fill="white" stroke="black" stroke-width="2" stroke-linejoin="round"/>
<path d="M135.284 101.271L136.422 97.0252C138.171 99.2057 140.331 100.456 142.907 100.856L141.617 105.672C139.032 105.331 136.95 103.98 135.284 101.271Z" fill="white" stroke="black" stroke-width="2" stroke-linejoin="round"/>
<path d="M144.94 100.999C146.017 100.99 147.161 100.856 148.372 100.598L147.149 105.162C145.883 105.499 144.724 105.687 143.669 105.743L144.94 100.999Z" fill="white" stroke="black" stroke-width="2" stroke-linejoin="round"/>
<path d="M165.339 112.117L166.419 108.088L168.506 106.883L167.426 110.913L165.339 112.117Z" fill="white" stroke="black" stroke-width="2" stroke-linejoin="round"/>
<path d="M131.741 103.319L132.867 99.1154C135.351 102.433 138.66 104.442 142.689 104.957L141.4 109.766C137.316 109.324 134.069 107.154 131.741 103.319Z" fill="white" stroke="black" stroke-width="2" stroke-linejoin="round"/>
<mask id="path-184-inside-39_444_19547" fill="white">
<path d="M184.108 110.429C183.726 111.855 183.122 113.277 182.284 114.661L180.472 121.422C181.311 120.039 181.914 118.617 182.297 117.191L184.108 110.429Z"/>
</mask>
<path d="M184.108 110.429C183.726 111.855 183.122 113.277 182.284 114.661L180.472 121.422C181.311 120.039 181.914 118.617 182.297 117.191L184.108 110.429Z" fill="white"/>
<path d="M182.284 114.661L180.574 113.624C180.476 113.786 180.401 113.96 180.352 114.143L182.284 114.661ZM184.108 110.429L186.04 110.947C186.326 109.88 185.693 108.783 184.626 108.497C183.56 108.211 182.463 108.844 182.177 109.911L184.108 110.429ZM182.297 117.191L184.228 117.709L184.229 117.708L182.297 117.191ZM180.472 121.422L178.54 120.904C178.283 121.866 178.771 122.871 179.687 123.262C180.603 123.652 181.666 123.31 182.182 122.459L180.472 121.422ZM183.994 115.697C184.928 114.158 185.607 112.561 186.04 110.947L182.177 109.911C181.845 111.149 181.317 112.397 180.574 113.624L183.994 115.697ZM182.177 109.911L180.365 116.673L184.229 117.708L186.04 110.947L182.177 109.911ZM180.365 116.672C180.033 117.911 179.505 119.158 178.762 120.385L182.182 122.459C183.116 120.919 183.795 119.323 184.228 117.709L180.365 116.672ZM182.404 121.94L184.216 115.178L180.352 114.143L178.54 120.904L182.404 121.94Z" fill="black" mask="url(#path-184-inside-39_444_19547)"/>
<path d="M143.45 109.844L144.724 105.089C146.06 105.096 147.439 104.953 148.856 104.673L147.627 109.259C146.166 109.612 144.773 109.808 143.45 109.844Z" fill="white" stroke="black" stroke-width="2" stroke-linejoin="round"/>
<path d="M175.787 124.727C179.359 122.604 182.371 119.892 184.772 116.787C182.582 121.419 179.194 125.533 174.744 128.618L175.787 124.727Z" fill="white" stroke="black" stroke-width="2" stroke-linejoin="round"/>
<path d="M131.348 112.825L130.306 116.716C127.994 111.82 127.117 106.562 127.537 101.456C128.064 105.345 129.317 109.2 131.348 112.825Z" fill="white" stroke="black" stroke-width="2" stroke-linejoin="round"/>
<path d="M132.279 115.567C130.168 111.011 129.393 106.127 129.824 101.391C130.331 104.914 131.481 108.403 133.318 111.688L132.279 115.567Z" fill="white" stroke="black" stroke-width="2" stroke-linejoin="round"/>
<path d="M149.457 110.159L149.862 108.645L150.642 115.382L150.236 116.895L149.457 110.159Z" fill="white" stroke="black" stroke-width="2" stroke-linejoin="round"/>
<path d="M173.611 126.642L174.65 122.763C176.711 121.535 178.572 120.096 180.22 118.489L179.555 120.971C177.9 123.104 175.912 125.022 173.611 126.642Z" fill="white" stroke="black" stroke-width="2" stroke-linejoin="round"/>
<path d="M151.437 120.145L152.516 116.115L154.603 114.911L153.524 118.94L151.437 120.145Z" fill="white" stroke="black" stroke-width="2" stroke-linejoin="round"/>
<path d="M134.766 114.019C143.056 126.124 159.003 130.397 172.235 124.059L171.124 128.206C157.98 135.543 141.369 131.092 133.655 118.166L134.766 114.019Z" fill="white" stroke="black" stroke-width="2" stroke-linejoin="round"/>
<path d="M131.686 119.303L132.795 115.164C141.72 128.344 159.043 132.986 173.362 126.034L172.252 130.173C158.024 138.136 140.026 133.313 131.686 119.303Z" fill="white" stroke="black" stroke-width="2" stroke-linejoin="round"/>
<circle cx="159.367" cy="97.1292" r="39" fill="white" stroke="black" stroke-width="2"/>
<path d="M189 97.08C189 113.664 175.777 127.08 159.5 127.08C143.223 127.08 130 113.664 130 97.08C130 80.4961 143.223 67.08 159.5 67.08C175.777 67.08 189 80.4961 189 97.08Z" fill="#FEDB9E" stroke="black" stroke-width="2"/>
<path fill-rule="evenodd" clip-rule="evenodd" d="M159.369 128.242C176.551 128.242 190.48 114.313 190.48 97.1309C190.48 79.9487 176.551 66.0198 159.369 66.0198C142.187 66.0198 128.258 79.9487 128.258 97.1309C128.258 114.313 142.187 128.242 159.369 128.242ZM136.295 83.3181C136.295 88.5978 138.392 92.7318 142.559 95.4363C144.217 96.5118 146.165 97.3377 148.379 97.9369L143.528 109.147H148.766L159.168 85.1109H153.93L150.023 94.1382C147.905 93.6205 146.166 92.9021 144.785 92.0063C141.892 90.1289 140.384 87.3525 140.384 83.3181C140.384 78.1876 143.15 73.2793 148.42 70.439C151.796 69.0521 155.494 68.2874 159.371 68.2874C175.301 68.2874 188.214 81.2011 188.214 97.1309C188.214 103.888 185.891 110.102 181.999 115.019C182.295 113.708 182.447 112.35 182.447 110.96C182.447 105.68 180.35 101.546 176.183 98.8416C174.524 97.7655 172.575 96.9393 170.359 96.34L175.218 85.1109H169.98L165.515 95.4293C163.602 95.2029 161.55 95.0945 159.371 95.0945C159.059 95.0945 158.751 95.0921 158.447 95.0874L156.7 99.1256C157.567 99.1644 158.458 99.1834 159.371 99.1834C160.959 99.1834 162.439 99.2449 163.812 99.3648L159.579 109.147H164.817L168.715 100.139C170.835 100.657 172.576 101.375 173.957 102.272C176.85 104.149 178.358 106.925 178.358 110.96C178.358 116.05 175.636 120.921 170.447 123.771C167.036 125.191 163.295 125.974 159.371 125.974C143.441 125.974 130.527 113.061 130.527 97.1309C130.527 90.3706 132.853 84.1535 136.748 79.236C136.449 80.5542 136.295 81.9201 136.295 83.3181Z" fill="black"/>
<path d="M140.34 63.0807L108.297 81.5807" stroke="black" stroke-width="2" stroke-linecap="round"/>
<path d="M102.232 85.0807L97.9023 87.5807" stroke="black" stroke-width="2" stroke-linecap="round"/>
<path d="M122.388 84.991L62.1992 119.741" stroke="black" stroke-width="2" stroke-linecap="round"/>
<path d="M118.333 106.963L101.879 116.463" stroke="black" stroke-width="2" stroke-linecap="round"/>
<path d="M148.554 125.31L95.7266 155.81" stroke="black" stroke-width="2" stroke-linecap="round"/>
<path d="M156.554 139.167L135.77 151.167" stroke="black" stroke-width="2" stroke-linecap="round"/>
<path d="M176.643 137.961L96.9688 183.961" stroke="black" stroke-width="2" stroke-linecap="round"/>
<path d="M137.79 117.668L103.582 137.418" stroke="black" stroke-width="2" stroke-linecap="round"/>
<path d="M97.5212 140.918L87.1289 146.918" stroke="black" stroke-width="2" stroke-linecap="round"/>
</g>
</g>
<defs>
<linearGradient id="paint0_linear_444_19547" x1="62.0313" y1="75.3308" x2="114.761" y2="49.652" gradientUnits="userSpaceOnUse">
<stop stop-color="#98A8FF"/>
<stop offset="0.453125" stop-color="#AFA8D7"/>
<stop offset="1" stop-color="#FEDB9E"/>
</linearGradient>
<clipPath id="clip0_444_19547">
<rect width="200" height="200" fill="white" transform="translate(0 0.0800171)"/>
</clipPath>
<clipPath id="clip1_444_19547">
<rect width="200" height="200" fill="white" transform="translate(4 5.16003)"/>
</clipPath>
</defs>
</svg>
