<svg width="200" height="201" viewBox="0 0 200 201" fill="none" xmlns="http://www.w3.org/2000/svg">
<path d="M106.946 108.417L104.676 121.586L143.22 124.455C143.22 124.455 171.869 127.343 181.763 121.586C184.229 120.151 181.864 113.789 180.262 109.179C177.524 101.303 174.001 95.4922 166.408 92.9314L155.681 89.3136C154.579 88.942 153.415 88.7519 152.241 88.7519H133.953C132.705 88.7519 131.468 88.9671 130.305 89.3865L120.48 92.9314C113.303 95.5206 108.154 101.413 106.946 108.417Z" fill="white" stroke="black" stroke-width="2" stroke-linecap="round" stroke-linejoin="round"/>
<path fill-rule="evenodd" clip-rule="evenodd" d="M143.223 75.4785C147.636 75.4785 151.442 78.5771 152.337 82.898L153.38 87.9387C153.472 88.3793 153.532 88.8214 153.564 89.2625C155.14 90.2284 156.071 91.4223 156.071 92.7148C156.071 95.9269 150.319 101.174 143.223 101.174C136.127 101.174 130.375 95.9269 130.375 92.7148C130.375 91.4125 131.321 90.2102 132.918 89.2409C132.942 88.7321 133.007 88.2207 133.113 87.7112L134.109 82.898C135.004 78.5771 138.81 75.4785 143.223 75.4785Z" fill="white"/>
<path d="M164.212 63.4473C164.212 78.0835 155.085 91.383 143.827 91.383C132.568 91.383 123.441 78.0835 123.441 63.4473C123.441 48.8112 132.568 38.3808 143.827 38.3808C155.085 38.3808 164.212 48.8112 164.212 63.4473Z" fill="white" stroke="black" stroke-width="2" stroke-linecap="round" stroke-linejoin="round"/>
<path d="M19.4373 108.417C19.4373 108.417 16.2456 116.449 17.167 121.586C18.5824 129.476 55.7109 124.455 55.7109 124.455L94.2547 121.586L92.7528 109.179C91.8576 101.785 86.4925 95.4922 78.8992 92.9314L68.1721 89.3136C67.0704 88.942 65.9061 88.7519 64.7327 88.7519H46.4447C45.1962 88.7519 43.9588 88.9671 42.7964 89.3865L32.971 92.9314C25.7943 95.5206 20.6449 101.413 19.4373 108.417Z" fill="#FEDB9E" stroke="black" stroke-width="2" stroke-linecap="round" stroke-linejoin="round"/>
<path fill-rule="evenodd" clip-rule="evenodd" d="M55.7151 75.4785C60.1278 75.4785 63.9339 78.5771 64.8287 82.898L65.8727 87.9387C65.9639 88.3793 66.0246 88.8214 66.0558 89.2625C67.6318 90.2284 68.5631 91.4223 68.5631 92.7148C68.5631 95.9269 62.8109 101.174 55.7151 101.174C48.6194 101.174 42.8672 95.9269 42.8672 92.7148C42.8672 91.4125 43.8127 90.2102 45.41 89.2409C45.4345 88.7321 45.4992 88.2207 45.6047 87.7112L46.6015 82.898C47.4964 78.5771 51.3025 75.4785 55.7151 75.4785Z" fill="#FEDB9E"/>
<path d="M76.7045 63.4473C76.7045 78.0835 67.5776 91.383 56.319 91.383C45.0605 91.383 35.9336 78.0835 35.9336 63.4473C35.9336 48.8112 45.0605 38.3808 56.319 38.3808C67.5776 38.3808 76.7045 48.8112 76.7045 63.4473Z" fill="#FEDB9E" stroke="black" stroke-width="2" stroke-linecap="round" stroke-linejoin="round"/>
<path fill-rule="evenodd" clip-rule="evenodd" d="M43.7663 151.186C42.4695 143.956 46.9616 132.652 46.9616 132.652C48.6612 122.794 55.9087 114.501 66.0093 110.857L79.8379 105.868C81.4737 105.277 83.2154 104.975 84.9725 104.975H110.712C112.363 104.975 114.002 105.242 115.552 105.765L130.65 110.857C141.337 114.461 148.888 123.317 150.148 133.725C150.148 133.725 153.644 144.458 152.262 151.186" fill="#BAC4FA"/>
<path d="M43.7663 151.186C42.4695 143.956 46.9616 132.652 46.9616 132.652C48.6612 122.794 55.9087 114.501 66.0093 110.857L79.8379 105.868C81.4737 105.277 83.2154 104.975 84.9725 104.975H110.712C112.363 104.975 114.002 105.242 115.552 105.765L130.65 110.857C141.337 114.461 148.888 123.317 150.148 133.725C150.148 133.725 153.644 144.458 152.262 151.186C149.204 166.061 119.94 166.202 97.4362 166.061C75.3614 165.922 46.3061 165.343 43.7663 151.186Z" fill="#BAC4FA"/>
<path d="M43.7663 151.186C42.4695 143.956 46.9616 132.652 46.9616 132.652C48.6612 122.794 55.9087 114.501 66.0093 110.857L79.8379 105.868C81.4737 105.277 83.2154 104.975 84.9725 104.975H110.712C112.363 104.975 114.002 105.242 115.552 105.765L130.65 110.857C141.337 114.461 148.888 123.317 150.148 133.725C150.148 133.725 153.644 144.457 152.262 151.186C149.204 166.061 119.94 166.202 97.4362 166.061C75.3614 165.922 46.3061 165.343 43.7663 151.186Z" stroke="black" stroke-width="2" stroke-linecap="round" stroke-linejoin="round"/>
<path fill-rule="evenodd" clip-rule="evenodd" d="M98.0162 85.8847C104.227 85.8847 109.583 90.2458 110.843 96.3272L112.312 103.422C112.441 104.042 112.526 104.664 112.57 105.285C114.788 106.644 116.099 108.325 116.099 110.144C116.099 114.664 108.003 122.05 98.0162 122.05C88.0294 122.05 79.9336 114.664 79.9336 110.144C79.9336 108.311 81.2644 106.619 83.5124 105.254C83.5469 104.538 83.638 103.819 83.7865 103.101L85.1894 96.3272C86.4489 90.2458 91.8057 85.8847 98.0162 85.8847Z" fill="#BAC4FA"/>
<path d="M127.558 68.5093C127.558 89.1086 114.712 108.677 98.8668 108.677C83.0212 108.677 70.1758 89.1086 70.1758 68.5093C70.1758 47.91 83.0212 34.08 98.8668 34.08C114.712 34.08 127.558 47.91 127.558 68.5093Z" fill="#BAC4FA" stroke="black" stroke-width="2" stroke-linecap="round" stroke-linejoin="round"/>
</svg>
