<svg width="200" height="200" viewBox="0 0 200 200" fill="none" xmlns="http://www.w3.org/2000/svg">
<circle cx="101" cy="98.5" r="70.5" stroke="black" stroke-width="2" stroke-linecap="round" stroke-dasharray="11 11"/>
<rect x="70" y="6" width="60" height="44" fill="white"/>
<path d="M77.8711 14.6094H109.835" stroke="black" stroke-width="2" stroke-linecap="round"/>
<path d="M77.8711 18.6445H96.4292" stroke="black" stroke-width="2" stroke-linecap="round"/>
<path d="M78.2148 27.5977H105.863" stroke="black" stroke-width="2" stroke-linecap="round"/>
<path d="M78.2148 31.6328H99.1608" stroke="black" stroke-width="2" stroke-linecap="round"/>
<path d="M106.703 40.5078H120.946" stroke="#BAC4FA" stroke-width="4" stroke-linecap="round"/>
<rect x="70" y="6" width="60" height="44" stroke="black" stroke-width="2"/>
<circle cx="154.687" cy="133.687" r="31.6866" fill="#FEDB9E" stroke="black" stroke-width="2"/>
<circle cx="154.766" cy="134" r="24" fill="white"/>
<path fill-rule="evenodd" clip-rule="evenodd" d="M154.685 159.112C168.725 159.112 180.108 147.729 180.108 133.689C180.108 119.648 168.725 108.266 154.685 108.266C140.644 108.266 129.262 119.648 129.262 133.689C129.262 147.729 140.644 159.112 154.685 159.112ZM136.005 122.409C136.005 126.672 137.694 129.993 141.046 132.169C142.389 133.04 143.971 133.71 145.774 134.196L141.743 143.512H146.023L154.522 123.872H150.241L146.98 131.409C145.248 130.983 143.819 130.391 142.68 129.652C140.262 128.083 139.005 125.758 139.005 122.409C139.005 119.597 140.005 116.874 141.934 114.672C145.578 112.225 149.964 110.797 154.683 110.797C167.327 110.797 177.577 121.047 177.577 133.691C177.577 138.706 175.964 143.345 173.229 147.116C173.328 146.422 173.378 145.715 173.378 144.997C173.378 140.735 171.689 137.413 168.336 135.238C166.992 134.365 165.406 133.694 163.599 133.208L167.639 123.872H163.358L159.638 132.469C158.099 132.29 156.447 132.203 154.691 132.203C154.407 132.203 154.128 132.201 153.852 132.196L152.57 135.158C153.259 135.188 153.966 135.203 154.691 135.203C156.013 135.203 157.245 135.255 158.389 135.357L154.86 143.512H159.14L162.393 135.995C164.13 136.421 165.562 137.013 166.703 137.754C169.121 139.323 170.378 141.648 170.378 144.997C170.378 147.772 169.404 150.459 167.526 152.646C163.863 155.132 159.443 156.584 154.683 156.584C142.039 156.584 131.789 146.334 131.789 133.691C131.789 128.659 133.412 124.007 136.163 120.229C136.058 120.943 136.005 121.67 136.005 122.409Z" fill="black"/>
<rect width="35.2164" height="35.2164" transform="matrix(0.86601 0.500028 3.18351e-05 1 34.5 97.6172)" fill="#6E6E6E"/>
<rect width="35.2164" height="35.2164" transform="matrix(0.86601 -0.500028 -3.18351e-05 1 4 115.227)" fill="#5A5A5A"/>
<rect width="35.2164" height="35.2164" transform="matrix(0.866041 0.499972 -0.866041 0.499972 34.5 132.832)" fill="#AAAAAA"/>
<mask id="path-14-outside-1_376_69483" maskUnits="userSpaceOnUse" x="2.26792" y="112.223" width="34.6417" height="60.0011" fill="black">
<rect fill="white" x="2.26792" y="112.223" width="34.6417" height="60.0011"/>
<path d="M4 115.223L34.4977 132.832L34.4988 168.048L4.00112 150.439L4 115.223Z"/>
</mask>
<path d="M4 115.223L34.4977 132.832L34.4988 168.048L4.00112 150.439L4 115.223Z" fill="#FEDB9E"/>
<path d="M4 115.223L3.99994 113.223L2.26798 114.223L4 115.223ZM34.4977 132.832L36.2297 133.832L34.4976 130.832L34.4977 132.832ZM34.4988 168.048L34.4989 170.048L36.2308 169.048L34.4988 168.048ZM4.00112 150.439L2.2691 149.439C2.26914 150.544 3.04462 151.887 4.00118 152.439L4.00112 150.439ZM4.00006 117.223L34.4978 134.832L34.4976 130.832L3.99994 113.223L4.00006 117.223ZM32.7657 131.832L32.7668 167.048L36.2308 169.048L36.2297 133.832L32.7657 131.832ZM34.4988 166.048L4.00106 148.439L4.00118 152.439L34.4989 170.048L34.4988 166.048ZM5.73314 151.439L5.73202 116.223L2.26798 114.223L2.2691 149.439L5.73314 151.439Z" fill="black" mask="url(#path-14-outside-1_376_69483)"/>
<mask id="path-16-outside-2_376_69483" maskUnits="userSpaceOnUse" x="32.7668" y="111.827" width="34.6417" height="60.0011" fill="black">
<rect fill="white" x="32.7668" y="111.827" width="34.6417" height="60.0011"/>
<path d="M34.5 132.828L64.9977 115.219L64.9966 150.435L34.4989 168.044L34.5 132.828Z"/>
</mask>
<path d="M34.5 132.828L64.9977 115.219L64.9966 150.435L34.4989 168.044L34.5 132.828Z" fill="#BAC4FA"/>
<path d="M34.5 132.828L34.5001 130.828L32.768 133.828L34.5 132.828ZM64.9977 115.219L66.7297 114.219L64.9978 113.219L64.9977 115.219ZM64.9966 150.435L64.9965 152.435C65.9531 151.883 66.7286 150.54 66.7286 149.435L64.9966 150.435ZM34.4989 168.044L32.7669 169.045L34.4988 170.044L34.4989 168.044ZM34.4999 134.828L64.9976 117.219L64.9978 113.219L34.5001 130.828L34.4999 134.828ZM63.2657 116.219L63.2646 151.435L66.7286 149.435L66.7297 114.219L63.2657 116.219ZM64.9966 148.435L34.4989 166.044L34.4988 170.044L64.9965 152.435L64.9966 148.435ZM36.2309 167.044L36.232 131.828L32.768 133.828L32.7669 169.045L36.2309 167.044Z" fill="black" mask="url(#path-16-outside-2_376_69483)"/>
<mask id="path-18-outside-3_376_69483" maskUnits="userSpaceOnUse" x="0.535835" y="95.2238" width="69.2833" height="39.9978" fill="black">
<rect fill="white" x="0.535835" y="95.2238" width="69.2833" height="39.9978"/>
<path d="M4 115.223L34.4988 97.6154L64.9976 115.223L34.4988 132.83L4 115.223Z"/>
</mask>
<path d="M4 115.223L34.4988 97.6154L64.9976 115.223L34.4988 132.83L4 115.223Z" fill="white"/>
<path d="M4 115.223L2.26792 114.223V116.223L4 115.223ZM34.4988 97.6154L36.2309 96.6155C35.2743 96.0632 33.7233 96.0633 32.7667 96.6155L34.4988 97.6154ZM64.9976 115.223L66.7297 116.223V114.223L64.9976 115.223ZM34.4988 132.83L32.7667 133.83H36.2309L34.4988 132.83ZM5.73208 116.223L36.2309 98.6154L32.7667 96.6155L2.26792 114.223L5.73208 116.223ZM32.7667 98.6154L63.2656 116.223L66.7297 114.223L36.2309 96.6155L32.7667 98.6154ZM63.2656 114.223L32.7667 131.83L36.2309 133.83L66.7297 116.223L63.2656 114.223ZM36.2309 131.83L5.73208 114.223L2.26792 116.223L32.7667 133.83L36.2309 131.83Z" fill="black" mask="url(#path-18-outside-3_376_69483)"/>
</svg>
