<svg width="200" height="200" viewBox="0 0 200 200" fill="none" xmlns="http://www.w3.org/2000/svg">
<path d="M106.946 108.337L104.676 121.506L143.22 124.375C143.22 124.375 171.869 127.263 181.763 121.506C184.229 120.071 181.864 113.709 180.262 109.099C177.524 101.223 174.001 95.4122 166.408 92.8513L155.681 89.2336C154.579 88.862 153.415 88.6719 152.241 88.6719H133.953C132.705 88.6719 131.468 88.8871 130.305 89.3065L120.48 92.8513C113.303 95.4406 108.154 101.333 106.946 108.337Z" fill="white" stroke="black" stroke-width="2" stroke-linecap="round" stroke-linejoin="round"/>
<path fill-rule="evenodd" clip-rule="evenodd" d="M143.223 75.3984C147.636 75.3984 151.442 78.4971 152.337 82.818L153.38 87.8587C153.472 88.2992 153.532 88.7414 153.564 89.1824C155.14 90.1483 156.071 91.3423 156.071 92.6348C156.071 95.8468 150.319 101.094 143.223 101.094C136.127 101.094 130.375 95.8468 130.375 92.6348C130.375 91.3325 131.321 90.1302 132.918 89.1609C132.942 88.6521 133.007 88.1407 133.113 87.6312L134.109 82.818C135.004 78.4971 138.81 75.3984 143.223 75.3984Z" fill="white"/>
<path d="M164.212 63.3673C164.212 78.0035 155.085 91.303 143.827 91.303C132.568 91.303 123.441 78.0035 123.441 63.3673C123.441 48.7312 132.568 38.3008 143.827 38.3008C155.085 38.3008 164.212 48.7312 164.212 63.3673Z" fill="white" stroke="black" stroke-width="2" stroke-linecap="round" stroke-linejoin="round"/>
<path d="M19.4373 108.337C19.4373 108.337 16.2456 116.369 17.167 121.506C18.5824 129.396 55.7109 124.375 55.7109 124.375L94.2547 121.506L92.7528 109.099C91.8576 101.705 86.4925 95.4122 78.8992 92.8513L68.1721 89.2336C67.0704 88.862 65.9061 88.6719 64.7327 88.6719H46.4447C45.1962 88.6719 43.9588 88.8871 42.7964 89.3065L32.971 92.8513C25.7943 95.4406 20.6449 101.333 19.4373 108.337Z" fill="#FEDB9E" stroke="black" stroke-width="2" stroke-linecap="round" stroke-linejoin="round"/>
<path fill-rule="evenodd" clip-rule="evenodd" d="M55.7151 75.3984C60.1278 75.3984 63.9339 78.4971 64.8287 82.818L65.8727 87.8587C65.9639 88.2992 66.0246 88.7414 66.0558 89.1824C67.6318 90.1483 68.5631 91.3423 68.5631 92.6348C68.5631 95.8468 62.8109 101.094 55.7151 101.094C48.6194 101.094 42.8672 95.8468 42.8672 92.6348C42.8672 91.3325 43.8127 90.1302 45.41 89.1609C45.4345 88.6521 45.4992 88.1407 45.6047 87.6312L46.6015 82.818C47.4964 78.4971 51.3025 75.3984 55.7151 75.3984Z" fill="#FEDB9E"/>
<path d="M76.7045 63.3673C76.7045 78.0035 67.5776 91.303 56.319 91.303C45.0605 91.303 35.9336 78.0035 35.9336 63.3673C35.9336 48.7312 45.0605 38.3008 56.319 38.3008C67.5776 38.3008 76.7045 48.7312 76.7045 63.3673Z" fill="#FEDB9E" stroke="black" stroke-width="2" stroke-linecap="round" stroke-linejoin="round"/>
<path fill-rule="evenodd" clip-rule="evenodd" d="M43.7663 151.106C42.4695 143.876 46.9616 132.572 46.9616 132.572C48.6612 122.714 55.9087 114.421 66.0093 110.777L79.8379 105.788C81.4737 105.197 83.2154 104.895 84.9725 104.895H110.712C112.363 104.895 114.002 105.162 115.552 105.685L130.65 110.777C141.337 114.381 148.888 123.237 150.148 133.645C150.148 133.645 153.644 144.377 152.262 151.106" fill="#BAC4FA"/>
<path d="M43.7663 151.106C42.4695 143.876 46.9616 132.572 46.9616 132.572C48.6612 122.714 55.9087 114.421 66.0093 110.777L79.8379 105.788C81.4737 105.197 83.2154 104.895 84.9725 104.895H110.712C112.363 104.895 114.002 105.162 115.552 105.685L130.65 110.777C141.337 114.381 148.888 123.237 150.148 133.645C150.148 133.645 153.644 144.377 152.262 151.106C149.204 165.981 119.94 166.122 97.4362 165.981C75.3614 165.842 46.3061 165.263 43.7663 151.106Z" fill="#BAC4FA"/>
<path d="M43.7663 151.106C42.4695 143.876 46.9616 132.572 46.9616 132.572C48.6612 122.714 55.9087 114.421 66.0093 110.777L79.8379 105.788C81.4737 105.197 83.2154 104.895 84.9725 104.895H110.712C112.363 104.895 114.002 105.162 115.552 105.685L130.65 110.777C141.337 114.381 148.888 123.237 150.148 133.645C150.148 133.645 153.644 144.377 152.262 151.106C149.204 165.981 119.94 166.122 97.4362 165.981C75.3614 165.842 46.3061 165.263 43.7663 151.106Z" stroke="black" stroke-width="2" stroke-linecap="round" stroke-linejoin="round"/>
<path fill-rule="evenodd" clip-rule="evenodd" d="M98.0162 85.8047C104.227 85.8047 109.583 90.1658 110.843 96.2472L112.312 103.342C112.441 103.962 112.526 104.584 112.57 105.205C114.788 106.564 116.099 108.245 116.099 110.064C116.099 114.584 108.003 121.97 98.0162 121.97C88.0294 121.97 79.9336 114.584 79.9336 110.064C79.9336 108.231 81.2644 106.539 83.5124 105.174C83.5469 104.458 83.638 103.738 83.7865 103.021L85.1894 96.2472C86.4489 90.1658 91.8057 85.8047 98.0162 85.8047Z" fill="#BAC4FA"/>
<path d="M127.558 68.4293C127.558 89.0286 114.712 108.597 98.8668 108.597C83.0212 108.597 70.1758 89.0286 70.1758 68.4293C70.1758 47.8299 83.0212 34 98.8668 34C114.712 34 127.558 47.8299 127.558 68.4293Z" fill="#BAC4FA" stroke="black" stroke-width="2" stroke-linecap="round" stroke-linejoin="round"/>
</svg>
