<svg width="200" height="200" viewBox="0 0 200 200" fill="none" xmlns="http://www.w3.org/2000/svg">
<g clip-path="url(#clip0_376_69543)">
<path d="M99.9387 33.4766L160.327 68.2653M99.9387 33.4766L39.5508 68.2653M99.9387 33.4766V103.054M160.327 68.2653V137.843M160.327 68.2653L39.5508 137.843M160.327 137.843L99.9387 172.631M160.327 137.843L99.9387 103.054M99.9387 172.631L39.5508 137.843M99.9387 172.631V103.054M39.5508 137.843V68.2653M39.5508 68.2653L99.9387 103.054" stroke="black" stroke-width="2" stroke-linecap="round" stroke-dasharray="0.25 5"/>
<mask id="path-2-outside-1_376_69543" maskUnits="userSpaceOnUse" x="69.6291" y="34.157" width="32.009" height="29.5592" fill="black">
<rect fill="white" x="69.6291" y="34.157" width="32.009" height="29.5592"/>
<path d="M71.3594 37.1602L99.466 53.4569L99.467 59.9728L71.3604 43.676L71.3594 37.1602Z"/>
</mask>
<path d="M71.3594 37.1602L99.466 53.4569L99.467 59.9728L71.3604 43.676L71.3594 37.1602Z" fill="#5F75EE"/>
<path d="M71.3594 37.1602L71.3593 35.1602L69.6292 36.1572L71.3594 37.1602ZM99.466 53.4569L101.196 54.4598L99.466 51.4569L99.466 53.4569ZM99.467 59.9728L99.4671 61.9728L101.197 60.9757L99.467 59.9728ZM71.3604 43.676L69.6302 42.6731C69.6304 43.7776 70.405 45.122 71.3605 45.676L71.3604 43.676ZM71.3594 39.1602L99.4661 55.4569L99.466 51.4569L71.3593 35.1602L71.3594 39.1602ZM97.7358 52.454L97.7368 58.9699L101.197 60.9757L101.196 54.4598L97.7358 52.454ZM99.467 57.9728L71.3603 41.676L71.3605 45.676L99.4671 61.9728L99.467 57.9728ZM73.0906 44.6789L73.0896 38.1631L69.6292 36.1572L69.6302 42.6731L73.0906 44.6789Z" fill="black" mask="url(#path-2-outside-1_376_69543)"/>
<mask id="path-4-outside-2_376_69543" maskUnits="userSpaceOnUse" x="97.7383" y="33.901" width="32.009" height="29.5592" fill="black">
<rect fill="white" x="97.7383" y="33.901" width="32.009" height="29.5592"/>
<path d="M99.4696 53.4566L127.576 37.1598L127.575 43.6756L99.4685 59.9724L99.4696 53.4566Z"/>
</mask>
<path d="M99.4696 53.4566L127.576 37.1598L127.575 43.6756L99.4685 59.9724L99.4696 53.4566Z" fill="black"/>
<path d="M99.4696 53.4566L99.4696 51.4566L97.7394 54.4595L99.4696 53.4566ZM127.576 37.1598L129.306 36.1569L127.576 35.1598L127.576 37.1598ZM127.575 43.6756L127.575 45.6756C128.531 45.1216 129.305 43.7773 129.305 42.6727L127.575 43.6756ZM99.4685 59.9724L97.7383 60.9753L99.4685 61.9724L99.4685 59.9724ZM99.4695 55.4566L127.576 39.1598L127.576 35.1598L99.4696 51.4566L99.4695 55.4566ZM125.846 38.1627L125.845 44.6785L129.305 42.6727L129.306 36.1569L125.846 38.1627ZM127.575 41.6756L99.4686 57.9724L99.4685 61.9724L127.575 45.6756L127.575 41.6756ZM101.199 58.9695L101.2 52.4536L97.7394 54.4595L97.7383 60.9753L101.199 58.9695Z" fill="black" mask="url(#path-4-outside-2_376_69543)"/>
<mask id="path-6-outside-3_376_69543" maskUnits="userSpaceOnUse" x="67.8989" y="18.6069" width="64.0197" height="37.1144" fill="black">
<rect fill="white" x="67.8989" y="18.6069" width="64.0197" height="37.1144"/>
<path d="M71.3594 37.1641L99.4671 20.8691L127.575 37.1641L99.4671 53.459L71.3594 37.1641Z"/>
</mask>
<path d="M71.3594 37.1641L99.4671 20.8691L127.575 37.1641L99.4671 53.459L71.3594 37.1641Z" fill="white"/>
<path d="M71.3594 37.1641L69.6291 36.161V38.1672L71.3594 37.1641ZM99.4671 20.8691L101.197 19.866C100.242 19.312 98.6924 19.312 97.7368 19.866L99.4671 20.8691ZM127.575 37.1641L129.305 38.1672V36.161L127.575 37.1641ZM99.4671 53.459L97.7368 54.4621H101.197L99.4671 53.459ZM73.0896 38.1672L101.197 21.8722L97.7368 19.866L69.6291 36.161L73.0896 38.1672ZM97.7368 21.8722L125.844 38.1672L129.305 36.161L101.197 19.866L97.7368 21.8722ZM125.844 36.161L97.7368 52.456L101.197 54.4621L129.305 38.1672L125.844 36.161ZM101.197 52.456L73.0896 36.161L69.6291 38.1672L97.7368 54.4621L101.197 52.456Z" fill="black" mask="url(#path-6-outside-3_376_69543)"/>
<circle r="16.08" transform="matrix(0.866009 0.500028 3.1868e-05 1 97.0666 24.1205)" fill="white" stroke="black" stroke-width="2" stroke-linecap="round" stroke-linejoin="round"/>
<path d="M86.9439 13.9639C87.3321 16.0443 88.2571 18.119 89.7246 20.066C90.2338 20.7416 90.7925 21.3806 91.3932 21.9861L89.8691 25.1732C89.7533 25.4154 89.78 25.7864 89.9401 26.1603C90.1002 26.5342 90.3723 26.8608 90.664 27.0292L92.78 28.251C93.1253 28.4504 93.4376 28.3938 93.5747 28.107L95.207 24.6936C95.3594 25.0446 95.6112 25.3548 95.8861 25.5285C96.2706 25.7715 96.6643 26.0089 97.0665 26.2412C97.2166 26.3279 97.3639 26.4146 97.5084 26.5012L96.3532 28.917C96.2373 29.1592 96.264 29.5302 96.4241 29.9042C96.5843 30.2781 96.8563 30.6047 97.148 30.7731L99.264 31.9948C99.6093 32.1942 99.9216 32.1376 100.059 31.8509L101.275 29.3083C101.73 29.75 102.104 30.1748 102.408 30.5779C103.263 31.7112 103.726 32.8865 103.726 34.412C103.726 37.1897 101.85 38.9548 97.8788 37.0088L86.9439 13.9639ZM86.9439 13.9639C86.5147 15.0592 86.2805 16.376 86.2805 17.8922C86.2807 24.7708 91.1099 33.1352 97.0668 36.5747C97.3397 36.7322 97.6101 36.8767 97.8777 37.0082L86.9439 13.9639ZM107.189 34.276C106.801 32.1956 105.876 30.1209 104.408 28.1739C103.898 27.4972 103.338 26.8572 102.737 26.2508L104.26 23.0647C104.376 22.8225 104.349 22.4515 104.189 22.0776C104.029 21.7037 103.757 21.3771 103.465 21.2087L101.349 19.9869C101.004 19.7875 100.692 19.8441 100.555 20.1309L99.0649 23.2462C98.4254 22.8135 97.7583 22.3982 97.0663 21.9987C96.9656 21.9405 96.8661 21.8824 96.7679 21.8242C96.7161 21.7935 96.6649 21.7686 96.615 21.7493L97.7762 19.3209C97.892 19.0787 97.8654 18.7077 97.7052 18.3338C97.5451 17.9598 97.273 17.6333 96.9814 17.4649L94.8654 16.2431C94.5201 16.0437 94.2078 16.1003 94.0706 16.387L92.8552 18.9287C92.4013 18.488 92.0277 18.0642 91.7245 17.662C90.8703 16.5287 90.4071 15.3534 90.407 13.8279C90.4069 11.0501 92.2826 9.28499 96.2544 11.2313C96.5222 11.363 96.7928 11.5075 97.066 11.6652C103.023 15.1047 107.852 23.4691 107.852 30.3476C107.852 31.8639 107.618 33.1807 107.189 34.276Z" stroke="black" stroke-width="2" stroke-linecap="round" stroke-linejoin="round"/>
<mask id="path-10-outside-4_376_69543" maskUnits="userSpaceOnUse" x="130.971" y="69.8554" width="32.0427" height="29.501" fill="black">
<rect fill="white" x="130.971" y="69.8554" width="32.0427" height="29.501"/>
<path d="M132.703 72.8555L161.122 89.2646L161.123 95.8253L132.704 79.4162L132.703 72.8555Z"/>
</mask>
<path d="M132.703 72.8555L161.122 89.2646L161.123 95.8253L132.704 79.4162L132.703 72.8555Z" fill="#5F75EE"/>
<path d="M132.703 72.8555L132.703 70.8555L130.971 71.8557L132.703 72.8555ZM161.122 89.2646L162.854 90.2643L161.122 87.2646L161.122 89.2646ZM161.123 95.8253L161.124 97.8253L162.855 96.8251L161.123 95.8253ZM132.704 79.4162L130.972 78.4165C130.972 79.521 131.748 80.864 132.704 81.4162L132.704 79.4162ZM132.703 74.8555L161.122 91.2646L161.122 87.2646L132.703 70.8555L132.703 74.8555ZM159.39 88.2648L159.391 94.8256L162.855 96.8251L162.854 90.2643L159.39 88.2648ZM161.123 93.8253L132.704 77.4162L132.704 81.4162L161.124 97.8253L161.123 93.8253ZM134.436 80.416L134.435 73.8552L130.971 71.8557L130.972 78.4165L134.436 80.416Z" fill="black" mask="url(#path-10-outside-4_376_69543)"/>
<mask id="path-12-outside-5_376_69543" maskUnits="userSpaceOnUse" x="159.393" y="69.7608" width="32.0427" height="29.501" fill="black">
<rect fill="white" x="159.393" y="69.7608" width="32.0427" height="29.501"/>
<path d="M161.126 89.2612L189.545 72.8521L189.544 79.4129L161.125 95.822L161.126 89.2612Z"/>
</mask>
<path d="M161.126 89.2612L189.545 72.8521L189.544 79.4129L161.125 95.822L161.126 89.2612Z" fill="black"/>
<path d="M161.126 89.2612L161.126 87.2612L159.394 90.261L161.126 89.2612ZM189.545 72.8521L191.277 71.8524L189.545 70.8521L189.545 72.8521ZM189.544 79.4129L189.544 81.4129C190.5 80.8606 191.276 79.5177 191.276 78.4131L189.544 79.4129ZM161.125 95.822L159.393 96.8218L161.125 97.822L161.125 95.822ZM161.126 91.2612L189.545 74.8521L189.545 70.8521L161.126 87.2612L161.126 91.2612ZM187.813 73.8519L187.812 80.4127L191.276 78.4131L191.277 71.8524L187.813 73.8519ZM189.544 77.4129L161.125 93.822L161.125 97.822L189.544 81.4129L189.544 77.4129ZM162.857 94.8222L162.858 88.2615L159.394 90.261L159.393 96.8218L162.857 94.8222Z" fill="black" mask="url(#path-12-outside-5_376_69543)"/>
<mask id="path-14-outside-6_376_69543" maskUnits="userSpaceOnUse" x="129.239" y="54.3565" width="64.0871" height="36.998" fill="black">
<rect fill="white" x="129.239" y="54.3565" width="64.0871" height="36.998"/>
<path d="M132.703 72.8555L161.123 56.4482L189.544 72.8555L161.123 89.2628L132.703 72.8555Z"/>
</mask>
<path d="M132.703 72.8555L161.123 56.4482L189.544 72.8555L161.123 89.2628L132.703 72.8555Z" fill="white"/>
<path d="M132.703 72.8555L130.971 71.8555V73.8554L132.703 72.8555ZM161.123 56.4482L162.856 55.4482C161.899 54.896 160.348 54.896 159.391 55.4482L161.123 56.4482ZM189.544 72.8555L191.276 73.8554V71.8555L189.544 72.8555ZM161.123 89.2628L159.391 90.2627H162.856L161.123 89.2628ZM134.435 73.8554L162.856 57.4481L159.391 55.4482L130.971 71.8555L134.435 73.8554ZM159.391 57.4481L187.812 73.8554L191.276 71.8555L162.856 55.4482L159.391 57.4481ZM187.812 71.8555L159.391 88.2628L162.856 90.2627L191.276 73.8554L187.812 71.8555ZM162.856 88.2628L134.435 71.8555L130.971 73.8554L159.391 90.2627L162.856 88.2628Z" fill="black" mask="url(#path-14-outside-6_376_69543)"/>
<path d="M161.17 45.1221L152.309 40.0057C151.722 39.6664 151.158 39.6065 150.743 39.8389C150.327 40.0714 150.094 40.5773 150.094 41.2453L150.094 61.3951C150.094 62.0631 150.328 62.8386 150.743 63.5508C151.159 64.263 151.722 64.8537 152.31 65.193L165.602 72.8677C166.189 73.2069 166.753 73.2669 167.168 73.0344C167.584 72.8019 167.817 72.2961 167.817 71.628L167.817 56.5157L161.17 45.1221Z" fill="white"/>
<path d="M161.17 45.1221L161.171 52.6783L167.817 56.5157" fill="white"/>
<path d="M156.74 51.3795L154.525 50.1003L156.74 51.3795Z" fill="white"/>
<path d="M161.17 45.1221L152.309 40.0057C151.722 39.6664 151.158 39.6065 150.743 39.8389C150.327 40.0714 150.094 40.5773 150.094 41.2453L150.094 61.3951C150.094 62.0631 150.328 62.8386 150.743 63.5508C151.159 64.263 151.722 64.8537 152.31 65.193L165.602 72.8677C166.189 73.2069 166.753 73.2669 167.168 73.0344C167.584 72.8019 167.817 72.2961 167.817 71.628L167.817 56.5157M161.17 45.1221L167.817 56.5157M161.17 45.1221L161.171 52.6783L167.817 56.5157M163.386 60.2543L154.525 55.1378M163.386 65.2917L154.525 60.1753M156.74 51.3795L154.525 50.1003" stroke="black" stroke-width="2" stroke-linecap="round" stroke-linejoin="round"/>
<path d="M164.635 74.4976C166.833 75.7663 168.614 74.7379 168.614 72.2006C168.614 69.6632 166.832 66.5777 164.635 65.309C162.438 64.0402 160.656 65.0687 160.656 67.606C160.656 70.1434 162.438 73.2288 164.635 74.4976Z" fill="white"/>
<path d="M162.481 72.5252L161.793 78.1073L164.635 77.7792L167.477 81.3891L166.789 75.0063" fill="white"/>
<path d="M162.481 72.5252L161.793 78.1073L164.635 77.7792L167.477 81.3891L166.789 75.0063M168.614 72.2006C168.614 74.7379 166.833 75.7663 164.635 74.4976C162.438 73.2288 160.656 70.1434 160.656 67.606C160.656 65.0687 162.438 64.0402 164.635 65.309C166.832 66.5777 168.614 69.6632 168.614 72.2006Z" stroke="black" stroke-width="2" stroke-linecap="round" stroke-linejoin="round"/>
<mask id="path-20-outside-7_376_69543" maskUnits="userSpaceOnUse" x="9.26974" y="70.0905" width="32.009" height="29.5592" fill="black">
<rect fill="white" x="9.26974" y="70.0905" width="32.009" height="29.5592"/>
<path d="M11 73.0938L39.1066 89.3905L39.1077 95.9064L11.001 79.6096L11 73.0938Z"/>
</mask>
<path d="M11 73.0938L39.1066 89.3905L39.1077 95.9064L11.001 79.6096L11 73.0938Z" fill="#5F75EE"/>
<path d="M11 73.0938L10.9999 71.0938L9.2698 72.0908L11 73.0938ZM39.1066 89.3905L40.8368 90.3934L39.1066 87.3905L39.1066 89.3905ZM39.1077 95.9064L39.1077 97.9064L40.8379 96.9093L39.1077 95.9064ZM11.001 79.6096L9.27084 78.6067C9.27101 79.7112 10.0456 81.0556 11.0011 81.6096L11.001 79.6096ZM11.0001 75.0938L39.1067 91.3905L39.1066 87.3905L10.9999 71.0938L11.0001 75.0938ZM37.3764 88.3876L37.3775 94.9035L40.8379 96.9093L40.8368 90.3934L37.3764 88.3876ZM39.1076 93.9064L11.001 77.6096L11.0011 81.6096L39.1077 97.9064L39.1076 93.9064ZM12.7312 80.6125L12.7302 74.0967L9.2698 72.0908L9.27084 78.6067L12.7312 80.6125Z" fill="black" mask="url(#path-20-outside-7_376_69543)"/>
<mask id="path-22-outside-8_376_69543" maskUnits="userSpaceOnUse" x="37.375" y="69.8346" width="32.009" height="29.5592" fill="black">
<rect fill="white" x="37.375" y="69.8346" width="32.009" height="29.5592"/>
<path d="M39.1063 89.3901L67.2129 73.0934L67.2119 79.6092L39.1053 95.906L39.1063 89.3901Z"/>
</mask>
<path d="M39.1063 89.3901L67.2129 73.0934L67.2119 79.6092L39.1053 95.906L39.1063 89.3901Z" fill="black"/>
<path d="M39.1063 89.3901L39.1064 87.3901L37.3761 90.3931L39.1063 89.3901ZM67.2129 73.0934L68.9431 72.0905L67.213 71.0934L67.2129 73.0934ZM67.2119 79.6092L67.2118 81.6092C68.1673 81.0552 68.9419 79.7108 68.9421 78.6063L67.2119 79.6092ZM39.1053 95.906L37.3751 96.9089L39.1052 97.906L39.1053 95.906ZM39.1062 91.3901L67.2129 75.0934L67.213 71.0934L39.1064 87.3901L39.1062 91.3901ZM65.4827 74.0963L65.4817 80.6121L68.9421 78.6063L68.9431 72.0905L65.4827 74.0963ZM67.212 77.6092L39.1053 93.906L39.1052 97.906L67.2118 81.6092L67.212 77.6092ZM40.8355 94.9031L40.8365 88.3872L37.3761 90.3931L37.3751 96.9089L40.8355 94.9031Z" fill="black" mask="url(#path-22-outside-8_376_69543)"/>
<mask id="path-24-outside-9_376_69543" maskUnits="userSpaceOnUse" x="7.53948" y="54.5404" width="64.0197" height="37.1144" fill="black">
<rect fill="white" x="7.53948" y="54.5404" width="64.0197" height="37.1144"/>
<path d="M11 73.0977L39.1077 56.8027L67.2154 73.0977L39.1077 89.3926L11 73.0977Z"/>
</mask>
<path d="M11 73.0977L39.1077 56.8027L67.2154 73.0977L39.1077 89.3926L11 73.0977Z" fill="white"/>
<path d="M11 73.0977L9.26974 72.0946V74.1007L11 73.0977ZM39.1077 56.8027L40.8379 55.7996C39.8823 55.2456 38.333 55.2456 37.3774 55.7996L39.1077 56.8027ZM67.2154 73.0977L68.9456 74.1007V72.0946L67.2154 73.0977ZM39.1077 89.3926L37.3774 90.3957H40.8379L39.1077 89.3926ZM12.7303 74.1007L40.8379 57.8058L37.3774 55.7996L9.26974 72.0946L12.7303 74.1007ZM37.3774 57.8058L65.4851 74.1007L68.9456 72.0946L40.8379 55.7996L37.3774 57.8058ZM65.4851 72.0946L37.3774 88.3896L40.8379 90.3957L68.9456 74.1007L65.4851 72.0946ZM40.8379 88.3896L12.7303 72.0946L9.26974 74.1007L37.3774 90.3957L40.8379 88.3896Z" fill="black" mask="url(#path-24-outside-9_376_69543)"/>
<path d="M46.3472 57.1829C45.9766 57.8622 45.5686 58.5179 45.1496 59.1913C45.1038 59.2649 45.0579 59.3387 45.0119 59.4128C44.5484 60.1587 44.077 60.9286 43.6574 61.7483C42.819 63.3859 42.1569 65.2764 42.157 67.7294L42.157 69.3675L32.098 63.5595L32.098 61.9214C32.0979 59.4684 31.4357 56.8133 30.5971 54.2074C30.1774 52.9031 29.706 51.5888 29.2424 50.3076C29.1964 50.1804 29.1505 50.0536 29.1047 49.9272C28.6857 48.7699 28.2776 47.6429 27.9069 46.5356C27.2678 44.6265 26.9094 42.6939 26.9094 40.8687C26.9092 34.3528 31.4836 31.7117 37.1265 34.9699C42.7694 38.228 47.3442 46.1518 47.3444 52.6678C47.3445 54.4929 46.9862 56.0117 46.3472 57.1829Z" fill="white" stroke="black" stroke-width="2"/>
<path d="M37.3791 42.6683L37.3795 57.1075M40.2211 46.9345L35.9582 44.4732C35.4306 44.1685 34.9246 44.1184 34.5515 44.3338C34.1785 44.5492 33.9689 45.0124 33.9689 45.6217C33.9689 46.2309 34.1785 46.9362 34.5516 47.5824C34.9247 48.2286 35.4307 48.7628 35.9583 49.0675L38.8003 50.7084C39.3279 51.013 39.8339 51.5472 40.207 52.1934C40.5801 52.8396 40.7897 53.5449 40.7897 54.1542C40.7897 54.7634 40.5801 55.2267 40.2071 55.4421C39.834 55.6574 39.328 55.6073 38.8004 55.3027L33.9691 52.5131" stroke="black" stroke-width="2" stroke-linecap="round" stroke-linejoin="round"/>
<path d="M32.0965 65.0157L42.1555 70.8236L42.1555 71.049L42.1556 73.4998C42.1556 74.677 41.3292 75.1541 40.3097 74.5655L32.4687 70.0381C32.2632 69.9195 32.0967 69.631 32.0966 69.3937L32.0966 66.8749L32.0965 65.0157Z" fill="white" stroke="black" stroke-width="2"/>
<path d="M39.4523 75.5255C39.2234 75.6711 38.9003 75.6576 38.5421 75.4508L35.7123 73.8168C35.3541 73.61 35.0309 73.2503 34.802 72.8405L39.4523 75.5255Z" fill="white" stroke="black" stroke-width="2"/>
<mask id="path-30-outside-10_376_69543" maskUnits="userSpaceOnUse" x="131.424" y="137.465" width="32.0427" height="29.501" fill="black">
<rect fill="white" x="131.424" y="137.465" width="32.0427" height="29.501"/>
<path d="M133.156 140.465L161.576 156.874L161.577 163.435L133.157 147.026L133.156 140.465Z"/>
</mask>
<path d="M133.156 140.465L161.576 156.874L161.577 163.435L133.157 147.026L133.156 140.465Z" fill="#5F75EE"/>
<path d="M133.156 140.465L133.156 138.465L131.424 139.465L133.156 140.465ZM161.576 156.874L163.308 157.874L161.575 154.874L161.576 156.874ZM161.577 163.435L161.577 165.435L163.309 164.434L161.577 163.435ZM133.157 147.026L131.425 146.026C131.425 147.13 132.201 148.473 133.157 149.026L133.157 147.026ZM133.156 142.465L161.576 158.874L161.575 154.874L133.156 138.465L133.156 142.465ZM159.844 155.874L159.845 162.435L163.309 164.434L163.308 157.874L159.844 155.874ZM161.577 161.435L133.157 145.026L133.157 149.026L161.577 165.435L161.577 161.435ZM134.889 148.025L134.888 141.465L131.424 139.465L131.425 146.026L134.889 148.025Z" fill="black" mask="url(#path-30-outside-10_376_69543)"/>
<mask id="path-32-outside-11_376_69543" maskUnits="userSpaceOnUse" x="159.846" y="137.37" width="32.0427" height="29.501" fill="black">
<rect fill="white" x="159.846" y="137.37" width="32.0427" height="29.501"/>
<path d="M161.579 156.871L189.998 140.462L189.997 147.022L161.578 163.431L161.579 156.871Z"/>
</mask>
<path d="M161.579 156.871L189.998 140.462L189.997 147.022L161.578 163.431L161.579 156.871Z" fill="black"/>
<path d="M161.579 156.871L161.579 154.871L159.847 157.87L161.579 156.871ZM189.998 140.462L191.73 139.462L189.998 138.462L189.998 140.462ZM189.997 147.022L189.997 149.022C190.954 148.47 191.729 147.127 191.729 146.023L189.997 147.022ZM161.578 163.431L159.846 164.431L161.578 165.431L161.578 163.431ZM161.579 158.871L189.998 142.462L189.998 138.462L161.579 154.871L161.579 158.871ZM188.266 141.461L188.265 148.022L191.729 146.023L191.73 139.462L188.266 141.461ZM189.997 145.022L161.578 161.431L161.578 165.431L189.997 149.022L189.997 145.022ZM163.31 162.432L163.311 155.871L159.847 157.87L159.846 164.431L163.31 162.432Z" fill="black" mask="url(#path-32-outside-11_376_69543)"/>
<mask id="path-34-outside-12_376_69543" maskUnits="userSpaceOnUse" x="129.692" y="121.966" width="64.0871" height="36.998" fill="black">
<rect fill="white" x="129.692" y="121.966" width="64.0871" height="36.998"/>
<path d="M133.156 140.465L161.577 124.058L189.997 140.465L161.577 156.872L133.156 140.465Z"/>
</mask>
<path d="M133.156 140.465L161.577 124.058L189.997 140.465L161.577 156.872L133.156 140.465Z" fill="white"/>
<path d="M133.156 140.465L131.424 139.465V141.465L133.156 140.465ZM161.577 124.058L163.309 123.058C162.352 122.505 160.801 122.505 159.845 123.058L161.577 124.058ZM189.997 140.465L191.729 141.465V139.465L189.997 140.465ZM161.577 156.872L159.845 157.872H163.309L161.577 156.872ZM134.888 141.465L163.309 125.058L159.845 123.058L131.424 139.465L134.888 141.465ZM159.845 125.058L188.265 141.465L191.729 139.465L163.309 123.058L159.845 125.058ZM188.265 139.465L159.845 155.872L163.309 157.872L191.729 141.465L188.265 139.465ZM163.309 155.872L134.888 139.465L131.424 141.465L159.845 157.872L163.309 155.872Z" fill="black" mask="url(#path-34-outside-12_376_69543)"/>
<path d="M159.409 138.894L167.679 130.624L171.224 134.168L162.953 142.439L159.409 138.894Z" fill="white"/>
<path d="M166.498 131.805L164.726 122.944L147.594 118.809L151.729 135.94L160.59 137.713L166.498 131.805Z" fill="white"/>
<path d="M147.594 118.809L156.557 127.771L147.594 118.809Z" fill="white"/>
<path d="M158.227 131.805C159.532 131.805 160.59 130.747 160.59 129.442C160.59 128.137 159.532 127.079 158.227 127.079C156.922 127.079 155.864 128.137 155.864 129.442C155.864 130.747 156.922 131.805 158.227 131.805Z" fill="white"/>
<path d="M147.594 118.809L164.726 122.944L166.498 131.805L160.59 137.713L151.729 135.94L147.594 118.809ZM147.594 118.809L156.557 127.771M159.409 138.894L167.679 130.624L171.224 134.168L162.953 142.439L159.409 138.894ZM160.59 129.442C160.59 130.747 159.532 131.805 158.227 131.805C156.922 131.805 155.864 130.747 155.864 129.442C155.864 128.137 156.922 127.079 158.227 127.079C159.532 127.079 160.59 128.137 160.59 129.442Z" stroke="black" stroke-width="2" stroke-linecap="round" stroke-linejoin="round"/>
<mask id="path-38-outside-13_376_69543" maskUnits="userSpaceOnUse" x="9.26792" y="137.465" width="32.0427" height="29.501" fill="black">
<rect fill="white" x="9.26792" y="137.465" width="32.0427" height="29.501"/>
<path d="M11 140.465L39.4193 156.874L39.4203 163.435L11.001 147.026L11 140.465Z"/>
</mask>
<path d="M11 140.465L39.4193 156.874L39.4203 163.435L11.001 147.026L11 140.465Z" fill="#5F75EE"/>
<path d="M11 140.465L10.9999 138.465L9.26798 139.465L11 140.465ZM39.4193 156.874L41.1513 157.874L39.4192 154.874L39.4193 156.874ZM39.4203 163.435L39.4204 165.435L41.1524 164.434L39.4203 163.435ZM11.001 147.026L9.26903 146.026C9.2692 147.13 10.0446 148.473 11.0011 149.026L11.001 147.026ZM11.0001 142.465L39.4194 158.874L39.4192 154.874L10.9999 138.465L11.0001 142.465ZM37.6873 155.874L37.6883 162.435L41.1524 164.434L41.1513 157.874L37.6873 155.874ZM39.4203 161.435L11.001 145.026L11.0011 149.026L39.4204 165.435L39.4203 161.435ZM12.7331 148.025L12.732 141.465L9.26798 139.465L9.26903 146.026L12.7331 148.025Z" fill="black" mask="url(#path-38-outside-13_376_69543)"/>
<mask id="path-40-outside-14_376_69543" maskUnits="userSpaceOnUse" x="37.6857" y="137.37" width="32.0427" height="29.501" fill="black">
<rect fill="white" x="37.6857" y="137.37" width="32.0427" height="29.501"/>
<path d="M39.4188 156.871L67.8381 140.462L67.8371 147.022L39.4178 163.431L39.4188 156.871Z"/>
</mask>
<path d="M39.4188 156.871L67.8381 140.462L67.8371 147.022L39.4178 163.431L39.4188 156.871Z" fill="black"/>
<path d="M39.4188 156.871L39.4189 154.871L37.6868 157.87L39.4188 156.871ZM67.8381 140.462L69.5701 139.462L67.8382 138.462L67.8381 140.462ZM67.8371 147.022L67.837 149.022C68.7935 148.47 69.5689 147.127 69.5691 146.023L67.8371 147.022ZM39.4178 163.431L37.6857 164.431L39.4177 165.431L39.4178 163.431ZM39.4187 158.871L67.838 142.462L67.8382 138.462L39.4189 154.871L39.4187 158.871ZM66.1061 141.461L66.105 148.022L69.5691 146.023L69.5701 139.462L66.1061 141.461ZM67.8371 145.022L39.4178 161.431L39.4177 165.431L67.837 149.022L67.8371 145.022ZM41.1498 162.432L41.1508 155.871L37.6868 157.87L37.6857 164.431L41.1498 162.432Z" fill="black" mask="url(#path-40-outside-14_376_69543)"/>
<mask id="path-42-outside-15_376_69543" maskUnits="userSpaceOnUse" x="7.53583" y="121.966" width="64.0871" height="36.998" fill="black">
<rect fill="white" x="7.53583" y="121.966" width="64.0871" height="36.998"/>
<path d="M11 140.465L39.4203 124.058L67.8407 140.465L39.4203 156.872L11 140.465Z"/>
</mask>
<path d="M11 140.465L39.4203 124.058L67.8407 140.465L39.4203 156.872L11 140.465Z" fill="white"/>
<path d="M11 140.465L9.26792 139.465V141.465L11 140.465ZM39.4203 124.058L41.1524 123.058C40.1958 122.505 38.6449 122.505 37.6883 123.058L39.4203 124.058ZM67.8407 140.465L69.5728 141.465V139.465L67.8407 140.465ZM39.4203 156.872L37.6883 157.872H41.1524L39.4203 156.872ZM12.7321 141.465L41.1524 125.058L37.6883 123.058L9.26792 139.465L12.7321 141.465ZM37.6883 125.058L66.1086 141.465L69.5728 139.465L41.1524 123.058L37.6883 125.058ZM66.1086 139.465L37.6883 155.872L41.1524 157.872L69.5728 141.465L66.1086 139.465ZM41.1524 155.872L12.7321 139.465L9.26792 141.465L37.6883 157.872L41.1524 155.872Z" fill="black" mask="url(#path-42-outside-15_376_69543)"/>
<path d="M49.1419 117.544L27.8456 105.248C26.3754 104.399 25.1836 105.091 25.1837 106.794L25.1842 122.211C25.1842 123.914 26.3761 125.983 27.8463 126.832L49.1426 139.128C50.6128 139.977 51.8046 139.285 51.8045 137.582L51.804 122.165C51.804 120.462 50.6121 118.393 49.1419 117.544Z" fill="white"/>
<path d="M33.1706 136.073L43.8187 142.221M38.4945 132.98L38.4947 139.147M27.8456 105.248L49.1419 117.544C50.6121 118.393 51.804 120.462 51.804 122.165L51.8045 137.582C51.8046 139.285 50.6128 139.977 49.1426 139.128L27.8463 126.832C26.3761 125.983 25.1842 123.914 25.1842 122.211L25.1837 106.794C25.1836 105.091 26.3754 104.399 27.8456 105.248Z" stroke="black" stroke-width="2" stroke-linecap="round" stroke-linejoin="round"/>
<path d="M33.6645 116.598L34.171 117.741L31.1782 118.405L34.2018 122.579L33.6647 123.155L29.582 117.519L33.6645 116.598Z" fill="black"/>
<path d="M36.7746 127.184L35.731 126.581L39.721 116.657L40.7647 117.259L36.7746 127.184Z" fill="black"/>
<path d="M42.8401 128.453L42.3336 127.31L45.311 126.636L42.3027 122.471L42.8399 121.895L46.9225 127.531L42.8401 128.453Z" fill="black"/>
<mask id="path-47-outside-16_376_69543" maskUnits="userSpaceOnUse" x="70.3773" y="173.644" width="32.0427" height="29.501" fill="black">
<rect fill="white" x="70.3773" y="173.644" width="32.0427" height="29.501"/>
<path d="M72.1094 176.645L100.529 193.054L100.53 199.614L72.1104 183.205L72.1094 176.645Z"/>
</mask>
<path d="M72.1094 176.645L100.529 193.054L100.53 199.614L72.1104 183.205L72.1094 176.645Z" fill="#5F75EE"/>
<path d="M72.1094 176.645L72.1093 174.645L70.3774 175.645L72.1094 176.645ZM100.529 193.054L102.261 194.053L100.529 191.054L100.529 193.054ZM100.53 199.614L100.53 201.614L102.262 200.614L100.53 199.614ZM72.1104 183.205L70.3784 182.206C70.3786 183.31 71.154 184.653 72.1105 185.205L72.1104 183.205ZM72.1094 178.645L100.529 195.054L100.529 191.054L72.1093 174.645L72.1094 178.645ZM98.7967 192.054L98.7977 198.615L102.262 200.614L102.261 194.053L98.7967 192.054ZM100.53 197.614L72.1104 181.205L72.1105 185.205L100.53 201.614L100.53 197.614ZM73.8424 184.205L73.8414 177.644L70.3774 175.645L70.3784 182.206L73.8424 184.205Z" fill="black" mask="url(#path-47-outside-16_376_69543)"/>
<mask id="path-49-outside-17_376_69543" maskUnits="userSpaceOnUse" x="98.7989" y="173.55" width="32.0427" height="29.501" fill="black">
<rect fill="white" x="98.7989" y="173.55" width="32.0427" height="29.501"/>
<path d="M100.532 193.05L128.951 176.641L128.95 183.202L100.531 199.611L100.532 193.05Z"/>
</mask>
<path d="M100.532 193.05L128.951 176.641L128.95 183.202L100.531 199.611L100.532 193.05Z" fill="black"/>
<path d="M100.532 193.05L100.532 191.05L98.8001 194.05L100.532 193.05ZM128.951 176.641L130.683 175.641L128.951 174.641L128.951 176.641ZM128.95 183.202L128.95 185.202C129.907 184.65 130.682 183.307 130.682 182.202L128.95 183.202ZM100.531 199.611L98.799 200.611L100.531 201.611L100.531 199.611ZM100.532 195.05L128.951 178.641L128.951 174.641L100.532 191.05L100.532 195.05ZM127.219 177.641L127.218 184.202L130.682 182.202L130.683 175.641L127.219 177.641ZM128.95 181.202L100.531 197.611L100.531 201.611L128.95 185.202L128.95 181.202ZM102.263 198.611L102.264 192.051L98.8001 194.05L98.799 200.611L102.263 198.611Z" fill="black" mask="url(#path-49-outside-17_376_69543)"/>
<mask id="path-51-outside-18_376_69543" maskUnits="userSpaceOnUse" x="68.6452" y="158.146" width="64.0871" height="36.998" fill="black">
<rect fill="white" x="68.6452" y="158.146" width="64.0871" height="36.998"/>
<path d="M72.1094 176.645L100.53 160.237L128.95 176.645L100.53 193.052L72.1094 176.645Z"/>
</mask>
<path d="M72.1094 176.645L100.53 160.237L128.95 176.645L100.53 193.052L72.1094 176.645Z" fill="white"/>
<path d="M72.1094 176.645L70.3773 175.645V177.644L72.1094 176.645ZM100.53 160.237L102.262 159.237C101.305 158.685 99.7542 158.685 98.7976 159.237L100.53 160.237ZM128.95 176.645L130.682 177.644V175.645L128.95 176.645ZM100.53 193.052L98.7976 194.052H102.262L100.53 193.052ZM73.8415 177.644L102.262 161.237L98.7976 159.237L70.3773 175.645L73.8415 177.644ZM98.7976 161.237L127.218 177.644L130.682 175.645L102.262 159.237L98.7976 161.237ZM127.218 175.645L98.7976 192.052L102.262 194.052L130.682 177.644L127.218 175.645ZM102.262 192.052L73.8415 175.645L70.3773 177.644L98.7976 194.052L102.262 192.052Z" fill="black" mask="url(#path-51-outside-18_376_69543)"/>
<path fill-rule="evenodd" clip-rule="evenodd" d="M110.116 167.013C110.116 165.579 109.119 163.842 107.89 163.132L103.439 160.562L94.5363 155.422L90.0851 152.852C88.856 152.142 87.8596 152.729 87.8596 154.163L87.8598 158.641L87.86 167.142C87.8601 168.576 88.8566 170.313 90.0857 171.023L107.891 181.304C109.12 182.013 110.116 181.426 110.116 179.993L110.116 171.491L110.116 167.013Z" fill="white"/>
<path d="M94.5363 155.422L90.0851 152.852C88.856 152.142 87.8596 152.729 87.8596 154.163L87.8598 158.641M94.5363 155.422L94.5363 152.826C94.5362 152.138 94.7707 151.613 95.1881 151.367C95.6054 151.121 96.1715 151.174 96.7618 151.515L101.213 154.085C101.803 154.426 102.369 155.026 102.787 155.754C103.204 156.482 103.439 157.278 103.439 157.966L103.439 160.562M94.5363 155.422L103.439 160.562M103.439 160.562L107.89 163.132C109.119 163.842 110.116 165.579 110.116 167.013L110.116 171.491M87.8598 158.641L87.86 167.142C87.8601 168.576 88.8566 170.313 90.0857 171.023L107.891 181.304C109.12 182.013 110.116 181.426 110.116 179.993L110.116 171.491M87.8598 158.641C91.6735 162.244 94.0168 164.458 97.4704 167.721M110.116 171.491L100.505 169.473" stroke="black" stroke-width="2" stroke-linecap="round" stroke-linejoin="round"/>
<rect width="3.50481" height="5.25721" transform="matrix(0.86601 0.500028 3.18485e-05 1 97.4688 165.359)" fill="white" stroke="black" stroke-width="2" stroke-linecap="round" stroke-linejoin="round"/>
</g>
<defs>
<clipPath id="clip0_376_69543">
<rect width="200" height="200" fill="white"/>
</clipPath>
</defs>
</svg>
