<svg width="724" height="46" viewBox="0 0 724 46" fill="none" xmlns="http://www.w3.org/2000/svg">
<path d="M10.7626 34.56C8.04259 34.56 5.75459 34.304 3.89859 33.792C2.04259 33.28 0.762594 32.784 0.0585938 32.304L1.01859 27.36V26.4C1.46659 27.008 2.10659 27.648 2.93859 28.32C3.80259 28.992 4.82659 29.568 6.01059 30.048C7.19459 30.496 8.49059 30.72 9.89859 30.72C12.2666 30.72 13.8986 30.224 14.7946 29.232C15.7226 28.24 16.1866 26.496 16.1866 24V8.16C16.1866 7.136 16.0746 6.416 15.8506 6C15.6266 5.552 15.4026 5.312 15.1786 5.28H22.5706C22.3466 5.28 22.1226 5.504 21.8986 5.952C21.6746 6.4 21.5626 7.152 21.5626 8.208V24C21.5626 26.816 21.1146 28.992 20.2186 30.528C19.3546 32.032 18.1066 33.088 16.4746 33.696C14.8746 34.272 12.9706 34.56 10.7626 34.56Z" fill="#1A1A1A"/>
<path d="M39.0376 34.56C35.8376 34.56 33.3256 34.048 31.5016 33.024C29.7096 32 28.4456 30.608 27.7096 28.848C27.0056 27.088 26.6536 25.104 26.6536 22.896C26.6536 20.656 27.0216 18.656 27.7576 16.896C28.5256 15.136 29.8056 13.744 31.5976 12.72C33.3896 11.664 35.8696 11.136 39.0376 11.136C42.2056 11.136 44.6856 11.664 46.4776 12.72C48.2696 13.744 49.5336 15.136 50.2696 16.896C51.0376 18.656 51.4216 20.656 51.4216 22.896C51.4216 25.104 51.0536 27.088 50.3176 28.848C49.6136 30.608 48.3656 32 46.5736 33.024C44.7816 34.048 42.2696 34.56 39.0376 34.56ZM39.0376 31.152C41.0216 31.152 42.5576 30.832 43.6456 30.192C44.7336 29.552 45.4856 28.624 45.9016 27.408C46.3176 26.16 46.5256 24.656 46.5256 22.896C46.5256 21.136 46.3016 19.632 45.8536 18.384C45.4376 17.136 44.6856 16.176 43.5976 15.504C42.5416 14.832 41.0216 14.496 39.0376 14.496C37.0856 14.496 35.5656 14.848 34.4776 15.552C33.3896 16.224 32.6216 17.2 32.1736 18.48C31.7576 19.728 31.5496 21.216 31.5496 22.944C31.5496 24.64 31.7576 26.112 32.1736 27.36C32.5896 28.576 33.3416 29.52 34.4296 30.192C35.5176 30.832 37.0536 31.152 39.0376 31.152Z" fill="#1A1A1A"/>
<path d="M55.3066 34.08C55.5306 34.08 55.7386 33.856 55.9306 33.408C56.1546 32.96 56.2666 32.224 56.2666 31.2V14.496C56.2666 13.472 56.1546 12.752 55.9306 12.336C55.7386 11.888 55.5306 11.648 55.3066 11.616H61.1626V31.2C61.1626 32.224 61.2586 32.96 61.4506 33.408C61.6746 33.856 61.8986 34.08 62.1226 34.08H55.3066ZM58.2346 7.008C57.3066 7.008 56.5866 6.752 56.0746 6.24C55.5626 5.696 55.3066 5.072 55.3066 4.368C55.3066 3.632 55.5466 3.008 56.0266 2.496C56.5386 1.984 57.2746 1.728 58.2346 1.728C59.1946 1.728 59.9146 1.984 60.3946 2.496C60.9066 3.008 61.1626 3.632 61.1626 4.368C61.1626 5.072 60.9066 5.696 60.3946 6.24C59.8826 6.752 59.1626 7.008 58.2346 7.008Z" fill="#1A1A1A"/>
<path d="M66.2285 34.08C66.4525 34.08 66.6605 33.856 66.8525 33.408C67.0765 32.96 67.1885 32.224 67.1885 31.2V14.976C67.1885 13.952 67.0765 13.232 66.8525 12.816C66.6605 12.368 66.4525 12.128 66.2285 12.096C67.6365 12.096 68.8525 12 69.8765 11.808C70.9325 11.584 71.6685 11.36 72.0845 11.136V14.064L71.9885 14.688L72.0845 14.784C72.5645 14.176 73.1725 13.6 73.9085 13.056C74.6765 12.512 75.6205 12.064 76.7405 11.712C77.8605 11.328 79.1725 11.136 80.6765 11.136C83.6525 11.136 85.9245 11.984 87.4925 13.68C89.0925 15.376 89.8925 18.032 89.8925 21.648V31.2C89.8925 32.224 89.9885 32.96 90.1805 33.408C90.4045 33.856 90.6285 34.08 90.8525 34.08H84.0365C84.2605 34.08 84.4685 33.856 84.6605 33.408C84.8845 32.96 84.9965 32.224 84.9965 31.2V21.792C84.9965 19.904 84.7565 18.432 84.2765 17.376C83.7965 16.32 83.1245 15.584 82.2605 15.168C81.4285 14.72 80.4525 14.496 79.3325 14.496C78.1485 14.496 76.9965 14.752 75.8765 15.264C74.7565 15.776 73.8445 16.592 73.1405 17.712C72.4365 18.832 72.0845 20.336 72.0845 22.224V31.2C72.0845 32.224 72.1805 32.96 72.3725 33.408C72.5965 33.856 72.8205 34.08 73.0445 34.08H66.2285Z" fill="#1A1A1A"/>
<path d="M115.854 34.56C113.646 34.56 112.046 34.096 111.054 33.168C110.062 32.208 109.566 30.656 109.566 28.512V14.976H105.246V11.616C106.718 11.616 107.87 11.44 108.702 11.088C109.534 10.704 110.126 10.048 110.478 9.12C110.83 8.192 111.006 6.896 111.006 5.232H114.462V11.616H123.63C123.406 11.936 123.182 12.416 122.958 13.056C122.766 13.664 122.67 14.304 122.67 14.976H114.462V27.792C114.462 29.264 114.734 30.192 115.278 30.576C115.822 30.96 116.51 31.152 117.342 31.152C118.142 31.152 118.878 30.992 119.55 30.672C120.254 30.32 120.862 29.904 121.374 29.424C121.918 28.944 122.334 28.48 122.622 28.032V29.52L123.102 32.256C122.782 32.576 122.286 32.928 121.614 33.312C120.942 33.664 120.126 33.952 119.166 34.176C118.206 34.432 117.102 34.56 115.854 34.56Z" fill="#1A1A1A"/>
<path d="M126.322 34.08C126.546 34.08 126.754 33.856 126.946 33.408C127.17 32.96 127.282 32.224 127.282 31.2V3.84C127.282 2.816 127.17 2.096 126.946 1.68C126.754 1.232 126.546 0.992001 126.322 0.959999H132.178V14.064L132.082 14.688L132.178 14.784C132.658 14.176 133.266 13.6 134.002 13.056C134.77 12.512 135.714 12.064 136.834 11.712C137.954 11.328 139.266 11.136 140.77 11.136C143.746 11.136 146.018 11.984 147.586 13.68C149.186 15.376 149.986 18.032 149.986 21.648V31.2C149.986 32.224 150.082 32.96 150.274 33.408C150.498 33.856 150.722 34.08 150.946 34.08H144.13C144.354 34.08 144.562 33.856 144.754 33.408C144.978 32.96 145.09 32.224 145.09 31.2V21.792C145.09 19.904 144.85 18.432 144.37 17.376C143.89 16.32 143.218 15.584 142.354 15.168C141.522 14.72 140.546 14.496 139.426 14.496C138.242 14.496 137.09 14.752 135.97 15.264C134.85 15.776 133.938 16.592 133.234 17.712C132.53 18.832 132.178 20.336 132.178 22.224V31.2C132.178 32.224 132.274 32.96 132.466 33.408C132.69 33.856 132.914 34.08 133.138 34.08H126.322Z" fill="#1A1A1A"/>
<path d="M167.105 34.56C164.577 34.56 162.497 34.272 160.865 33.696C159.233 33.088 157.953 32.256 157.025 31.2C156.097 30.144 155.441 28.912 155.057 27.504C154.705 26.096 154.529 24.56 154.529 22.896C154.529 19.28 155.553 16.416 157.601 14.304C159.681 12.192 162.753 11.136 166.817 11.136C169.185 11.136 171.089 11.456 172.529 12.096C174.001 12.736 175.105 13.584 175.841 14.64C176.609 15.696 177.121 16.848 177.377 18.096C177.665 19.312 177.809 20.512 177.809 21.696V23.952C177.809 23.856 177.361 23.76 176.465 23.664C175.601 23.536 174.129 23.472 172.049 23.472H159.425C159.425 25.84 160.129 27.712 161.537 29.088C162.945 30.464 165.041 31.152 167.825 31.152C170.225 31.152 172.193 30.864 173.729 30.288C175.297 29.68 176.337 29.088 176.849 28.512V29.472L177.329 32.64C176.625 33.056 175.377 33.488 173.585 33.936C171.825 34.352 169.665 34.56 167.105 34.56ZM161.345 20.304H173.009C173.009 19.472 172.833 18.608 172.481 17.712C172.129 16.816 171.505 16.064 170.609 15.456C169.713 14.816 168.449 14.496 166.817 14.496C165.441 14.496 164.241 14.736 163.217 15.216C162.193 15.664 161.393 16.256 160.817 16.992C160.273 17.728 160.001 18.512 160.001 19.344C160.001 19.664 160.097 19.904 160.289 20.064C160.481 20.224 160.833 20.304 161.345 20.304Z" fill="#1A1A1A"/>
<path d="M194.119 34.08C194.343 34.08 194.567 33.856 194.791 33.408C195.015 32.96 195.127 32.224 195.127 31.2V8.16C195.127 7.136 195.015 6.416 194.791 6C194.567 5.552 194.343 5.312 194.119 5.28H201.511C201.287 5.28 201.063 5.504 200.839 5.952C200.615 6.4 200.503 7.152 200.503 8.208V16.032C200.503 16.736 200.583 17.152 200.743 17.28C200.935 17.408 201.511 17.472 202.471 17.472H216.823C217.783 17.472 218.343 17.424 218.503 17.328C218.663 17.2 218.743 16.768 218.743 16.032V8.16C218.743 7.136 218.631 6.416 218.407 6C218.183 5.552 217.959 5.312 217.735 5.28H225.127C224.903 5.28 224.679 5.504 224.455 5.952C224.231 6.4 224.119 7.152 224.119 8.208V31.2C224.119 32.224 224.231 32.96 224.455 33.408C224.679 33.856 224.903 34.08 225.127 34.08H217.735C217.959 34.08 218.183 33.856 218.407 33.408C218.631 32.96 218.743 32.224 218.743 31.2V22.752C218.743 22.016 218.647 21.6 218.455 21.504C218.295 21.376 217.751 21.312 216.823 21.312H202.471C201.511 21.312 200.935 21.376 200.743 21.504C200.583 21.632 200.503 22.048 200.503 22.752V31.2C200.503 32.224 200.615 32.96 200.839 33.408C201.063 33.856 201.287 34.08 201.511 34.08H194.119Z" fill="#1A1A1A"/>
<path d="M230.485 45.792C228.565 45.792 227.045 45.6 225.925 45.216C224.805 44.832 224.085 44.464 223.765 44.112L224.725 39.072V37.632C224.949 38.304 225.317 39.008 225.829 39.744C226.309 40.512 226.933 41.152 227.701 41.664C228.469 42.176 229.333 42.432 230.293 42.432C231.381 42.432 232.309 42.208 233.077 41.76C233.845 41.344 234.517 40.736 235.093 39.936C235.701 39.136 236.277 38.208 236.821 37.152C237.461 35.872 237.861 34.992 238.021 34.512C237.829 34.256 237.525 33.664 237.109 32.736C236.693 31.808 236.197 30.688 235.621 29.376C235.045 28.032 234.437 26.608 233.797 25.104C233.189 23.6 232.581 22.144 231.973 20.736C231.365 19.328 230.821 18.08 230.341 16.992C229.861 15.904 229.493 15.12 229.237 14.64C228.693 13.616 228.197 12.864 227.749 12.384C227.301 11.904 226.981 11.648 226.789 11.616H234.613C234.357 11.616 234.181 11.856 234.085 12.336C234.021 12.784 234.197 13.552 234.613 14.64C234.869 15.248 235.221 16.128 235.669 17.28C236.117 18.4 236.613 19.68 237.157 21.12C237.701 22.528 238.261 23.968 238.837 25.44C239.413 26.88 239.941 28.224 240.421 29.472H240.469C240.981 28.16 241.541 26.752 242.149 25.248C242.757 23.744 243.349 22.272 243.925 20.832C244.533 19.392 245.061 18.112 245.509 16.992C245.989 15.872 246.341 15.056 246.565 14.544C247.013 13.52 247.189 12.784 247.093 12.336C246.997 11.888 246.821 11.648 246.565 11.616H254.101C253.909 11.648 253.605 11.888 253.189 12.336C252.805 12.752 252.357 13.472 251.845 14.496C251.557 15.04 251.109 15.968 250.501 17.28C249.925 18.592 249.253 20.096 248.485 21.792C247.717 23.488 246.933 25.248 246.133 27.072C245.333 28.864 244.581 30.56 243.877 32.16C243.173 33.728 242.581 35.024 242.101 36.048C241.109 38.192 240.053 39.984 238.933 41.424C237.845 42.896 236.613 43.984 235.237 44.688C233.861 45.424 232.277 45.792 230.485 45.792Z" fill="#1A1A1A"/>
<path d="M256.307 44.736C256.531 44.736 256.739 44.512 256.931 44.064C257.155 43.616 257.267 42.88 257.267 41.856V14.496C257.267 13.472 257.155 12.752 256.931 12.336C256.739 11.888 256.531 11.648 256.307 11.616H262.163V12.576L262.067 13.488L262.163 13.584C262.579 13.168 263.139 12.784 263.843 12.432C264.579 12.048 265.443 11.744 266.435 11.52C267.427 11.264 268.499 11.136 269.651 11.136C272.627 11.136 274.979 11.664 276.707 12.72C278.435 13.744 279.667 15.136 280.403 16.896C281.171 18.656 281.555 20.656 281.555 22.896C281.555 25.104 281.187 27.088 280.451 28.848C279.715 30.608 278.483 32 276.755 33.024C275.027 34.048 272.659 34.56 269.651 34.56C267.891 34.56 266.403 34.352 265.187 33.936C264.003 33.52 262.995 32.944 262.163 32.208L262.067 32.256L262.163 33.168V41.856C262.163 42.88 262.259 43.616 262.451 44.064C262.675 44.512 262.899 44.736 263.123 44.736H256.307ZM269.171 31.152C271.155 31.152 272.691 30.832 273.779 30.192C274.867 29.552 275.619 28.624 276.035 27.408C276.451 26.16 276.659 24.656 276.659 22.896C276.659 21.136 276.435 19.632 275.987 18.384C275.571 17.136 274.819 16.176 273.731 15.504C272.675 14.832 271.155 14.496 269.171 14.496C267.251 14.496 265.779 14.88 264.755 15.648C263.763 16.416 263.075 17.44 262.691 18.72C262.339 20 262.163 21.408 262.163 22.944C262.163 24.512 262.355 25.92 262.739 27.168C263.155 28.416 263.859 29.392 264.851 30.096C265.875 30.8 267.315 31.152 269.171 31.152Z" fill="#1A1A1A"/>
<path d="M297.511 34.56C294.983 34.56 292.903 34.272 291.271 33.696C289.639 33.088 288.359 32.256 287.431 31.2C286.503 30.144 285.847 28.912 285.463 27.504C285.111 26.096 284.935 24.56 284.935 22.896C284.935 19.28 285.959 16.416 288.007 14.304C290.087 12.192 293.159 11.136 297.223 11.136C299.591 11.136 301.495 11.456 302.935 12.096C304.407 12.736 305.511 13.584 306.247 14.64C307.015 15.696 307.527 16.848 307.783 18.096C308.071 19.312 308.215 20.512 308.215 21.696V23.952C308.215 23.856 307.767 23.76 306.871 23.664C306.007 23.536 304.535 23.472 302.455 23.472H289.831C289.831 25.84 290.535 27.712 291.943 29.088C293.351 30.464 295.447 31.152 298.231 31.152C300.631 31.152 302.599 30.864 304.135 30.288C305.703 29.68 306.743 29.088 307.255 28.512V29.472L307.735 32.64C307.031 33.056 305.783 33.488 303.991 33.936C302.231 34.352 300.071 34.56 297.511 34.56ZM291.751 20.304H303.415C303.415 19.472 303.239 18.608 302.887 17.712C302.535 16.816 301.911 16.064 301.015 15.456C300.119 14.816 298.855 14.496 297.223 14.496C295.847 14.496 294.647 14.736 293.623 15.216C292.599 15.664 291.799 16.256 291.223 16.992C290.679 17.728 290.407 18.512 290.407 19.344C290.407 19.664 290.503 19.904 290.695 20.064C290.887 20.224 291.239 20.304 291.751 20.304Z" fill="#1A1A1A"/>
<path d="M312.322 34.08C312.546 34.08 312.754 33.856 312.946 33.408C313.17 32.96 313.282 32.224 313.282 31.2V14.976C313.282 13.952 313.17 13.232 312.946 12.816C312.754 12.368 312.546 12.128 312.322 12.096C313.73 12.096 314.946 12 315.97 11.808C317.026 11.584 317.762 11.36 318.178 11.136V13.536L318.082 14.352L318.178 14.448C318.658 13.808 319.234 13.248 319.906 12.768C320.61 12.256 321.41 11.856 322.306 11.568C323.202 11.28 324.226 11.136 325.378 11.136C326.882 11.136 328.178 11.36 329.266 11.808C330.386 12.224 331.186 12.656 331.666 13.104L330.706 17.136V18.576C330.29 18.064 329.682 17.536 328.882 16.992C328.114 16.416 327.234 15.936 326.242 15.552C325.25 15.168 324.194 14.976 323.074 14.976C321.794 14.976 320.658 15.488 319.666 16.512C318.674 17.536 318.178 19.232 318.178 21.6V31.2C318.178 32.224 318.274 32.96 318.466 33.408C318.69 33.856 318.914 34.08 319.138 34.08H312.322Z" fill="#1A1A1A"/>
<path d="M347.254 34.56C344.246 34.56 341.718 34.4 339.67 34.08C337.654 33.76 336.278 33.44 335.542 33.12V32.16L334.534 28.032C335.366 28.704 336.822 29.408 338.902 30.144C341.014 30.848 343.574 31.2 346.582 31.2C348.566 31.2 350.054 31.072 351.046 30.816C352.038 30.528 352.694 30.16 353.014 29.712C353.334 29.232 353.494 28.704 353.494 28.128C353.494 27.456 353.254 26.928 352.774 26.544C352.326 26.128 351.462 25.792 350.182 25.536C348.934 25.248 347.078 24.96 344.614 24.672C341.926 24.352 339.846 23.888 338.374 23.28C336.934 22.672 335.942 21.904 335.398 20.976C334.854 20.016 334.582 18.88 334.582 17.568C334.582 16.544 334.854 15.536 335.398 14.544C335.942 13.552 336.95 12.736 338.422 12.096C339.926 11.456 342.054 11.136 344.806 11.136C347.782 11.136 350.278 11.296 352.294 11.616C354.342 11.936 355.734 12.256 356.47 12.576V13.536L357.43 17.184C356.63 16.608 355.174 16.016 353.062 15.408C350.95 14.8 348.406 14.496 345.43 14.496C343.062 14.496 341.478 14.768 340.678 15.312C339.878 15.824 339.478 16.496 339.478 17.328C339.478 17.808 339.574 18.24 339.766 18.624C339.958 18.976 340.342 19.296 340.918 19.584C341.526 19.872 342.422 20.128 343.606 20.352C344.822 20.576 346.438 20.8 348.454 21.024C351.174 21.312 353.238 21.76 354.646 22.368C356.054 22.976 357.014 23.744 357.526 24.672C358.07 25.568 358.342 26.624 358.342 27.84C358.342 29.152 357.974 30.32 357.238 31.344C356.534 32.336 355.366 33.12 353.734 33.696C352.102 34.272 349.942 34.56 347.254 34.56Z" fill="#1A1A1A"/>
<path d="M374.677 34.56C371.349 34.56 368.725 34.048 366.805 33.024C364.917 32 363.589 30.608 362.821 28.848C362.053 27.088 361.669 25.104 361.669 22.896C361.669 18.992 362.725 16.064 364.837 14.112C366.981 12.16 370.101 11.184 374.197 11.184C376.693 11.184 378.789 11.344 380.485 11.664C382.181 11.984 383.349 12.288 383.989 12.576V13.536L384.949 17.712C384.309 17.04 383.093 16.352 381.301 15.648C379.509 14.912 377.253 14.544 374.533 14.544C373.157 14.544 371.845 14.784 370.597 15.264C369.381 15.712 368.389 16.544 367.621 17.76C366.885 18.976 366.517 20.704 366.517 22.944C366.517 25.12 366.917 26.816 367.717 28.032C368.517 29.216 369.621 30.032 371.029 30.48C372.437 30.928 374.037 31.152 375.829 31.152C378.101 31.152 379.973 30.8 381.445 30.096C382.949 29.392 383.957 28.704 384.469 28.032V28.992L384.949 32.256C384.341 32.768 383.141 33.28 381.349 33.792C379.589 34.304 377.365 34.56 374.677 34.56Z" fill="#1A1A1A"/>
<path d="M398.225 34.56C394.737 34.56 392.289 33.936 390.881 32.688C389.473 31.408 388.769 29.696 388.769 27.552C388.769 26.048 389.137 24.768 389.873 23.712C390.641 22.624 391.777 21.792 393.281 21.216C394.817 20.64 396.753 20.352 399.089 20.352C400.753 20.352 402.193 20.48 403.409 20.736C404.657 20.96 405.665 21.232 406.433 21.552C407.233 21.872 407.793 22.144 408.113 22.368C408.113 20.48 407.873 18.96 407.393 17.808C406.945 16.656 406.209 15.824 405.185 15.312C404.161 14.768 402.769 14.496 401.009 14.496C399.121 14.496 397.425 14.72 395.921 15.168C394.449 15.584 393.265 16.048 392.369 16.56C391.473 17.04 390.913 17.392 390.689 17.616V16.656L390.209 13.056C390.497 12.928 391.121 12.72 392.081 12.432C393.041 12.112 394.305 11.824 395.873 11.568C397.441 11.28 399.281 11.136 401.393 11.136C404.081 11.136 406.273 11.52 407.969 12.288C409.697 13.024 410.961 14.176 411.761 15.744C412.593 17.28 413.009 19.232 413.009 21.6V31.2C413.009 32.096 413.105 32.752 413.297 33.168C413.521 33.552 413.745 33.856 413.969 34.08H408.113V32.64L408.209 31.728L408.113 31.68C407.601 32.16 406.993 32.576 406.289 32.928C405.585 33.28 404.817 33.584 403.985 33.84C403.153 34.064 402.241 34.24 401.249 34.368C400.289 34.496 399.281 34.56 398.225 34.56ZM399.809 31.152C401.537 31.152 403.025 30.976 404.273 30.624C405.521 30.272 406.465 29.808 407.105 29.232C407.777 28.624 408.113 27.936 408.113 27.168C408.113 26.208 407.473 25.392 406.193 24.72C404.945 24.048 402.993 23.712 400.337 23.712C397.873 23.712 396.129 24.032 395.105 24.672C394.113 25.312 393.617 26.272 393.617 27.552C393.617 28.8 394.097 29.712 395.057 30.288C396.049 30.864 397.633 31.152 399.809 31.152Z" fill="#1A1A1A"/>
<path d="M418.311 34.08C418.535 34.08 418.743 33.856 418.935 33.408C419.159 32.96 419.271 32.224 419.271 31.2V3.84C419.271 2.816 419.159 2.096 418.935 1.68C418.743 1.232 418.535 0.992001 418.311 0.959999C419.719 0.959999 420.935 0.863999 421.959 0.672C423.015 0.448001 423.751 0.224001 424.167 0V31.2C424.167 32.224 424.263 32.96 424.455 33.408C424.679 33.856 424.903 34.08 425.127 34.08H418.311Z" fill="#1A1A1A"/>
<path d="M441.792 34.56C439.264 34.56 437.184 34.272 435.552 33.696C433.92 33.088 432.64 32.256 431.712 31.2C430.784 30.144 430.128 28.912 429.744 27.504C429.392 26.096 429.216 24.56 429.216 22.896C429.216 19.28 430.24 16.416 432.288 14.304C434.368 12.192 437.44 11.136 441.504 11.136C443.872 11.136 445.776 11.456 447.216 12.096C448.688 12.736 449.792 13.584 450.528 14.64C451.296 15.696 451.808 16.848 452.064 18.096C452.352 19.312 452.496 20.512 452.496 21.696V23.952C452.496 23.856 452.048 23.76 451.152 23.664C450.288 23.536 448.816 23.472 446.736 23.472H434.112C434.112 25.84 434.816 27.712 436.224 29.088C437.632 30.464 439.728 31.152 442.512 31.152C444.912 31.152 446.88 30.864 448.416 30.288C449.984 29.68 451.024 29.088 451.536 28.512V29.472L452.016 32.64C451.312 33.056 450.064 33.488 448.272 33.936C446.512 34.352 444.352 34.56 441.792 34.56ZM436.032 20.304H447.696C447.696 19.472 447.52 18.608 447.168 17.712C446.816 16.816 446.192 16.064 445.296 15.456C444.4 14.816 443.136 14.496 441.504 14.496C440.128 14.496 438.928 14.736 437.904 15.216C436.88 15.664 436.08 16.256 435.504 16.992C434.96 17.728 434.688 18.512 434.688 19.344C434.688 19.664 434.784 19.904 434.976 20.064C435.168 20.224 435.52 20.304 436.032 20.304Z" fill="#1A1A1A"/>
<path d="M468.807 34.08C469.031 34.08 469.255 33.856 469.479 33.408C469.703 32.96 469.815 32.224 469.815 31.2V8.16C469.815 7.136 469.703 6.416 469.479 6C469.255 5.552 469.031 5.312 468.807 5.28H495.831V6.24L496.791 10.848C495.991 10.496 494.583 10.128 492.567 9.744C490.551 9.328 488.119 9.12 485.271 9.12H477.159C476.199 9.12 475.623 9.2 475.431 9.36C475.271 9.488 475.191 9.888 475.191 10.56V16.032C475.191 16.736 475.271 17.152 475.431 17.28C475.623 17.408 476.183 17.472 477.111 17.472H485.031C486.887 17.472 488.375 17.376 489.495 17.184C490.647 16.96 491.399 16.736 491.751 16.512C491.623 16.928 491.479 17.424 491.319 18C491.159 18.576 491.031 19.152 490.935 19.728C490.839 20.304 490.791 20.832 490.791 21.312H477.111C476.183 21.312 475.623 21.376 475.431 21.504C475.271 21.6 475.191 22.016 475.191 22.752V28.704C475.191 29.44 475.271 29.872 475.431 30C475.591 30.128 476.151 30.192 477.111 30.192H491.079C492.935 30.192 494.423 29.984 495.543 29.568C496.695 29.12 497.447 28.688 497.799 28.272L496.839 32.592V34.08H468.807Z" fill="#1A1A1A"/>
<path d="M513.427 34.56C510.099 34.56 507.475 34.048 505.555 33.024C503.667 32 502.339 30.608 501.571 28.848C500.803 27.088 500.419 25.104 500.419 22.896C500.419 18.992 501.475 16.064 503.587 14.112C505.731 12.16 508.851 11.184 512.947 11.184C515.443 11.184 517.539 11.344 519.235 11.664C520.931 11.984 522.099 12.288 522.739 12.576V13.536L523.699 17.712C523.059 17.04 521.843 16.352 520.051 15.648C518.259 14.912 516.003 14.544 513.283 14.544C511.907 14.544 510.595 14.784 509.347 15.264C508.131 15.712 507.139 16.544 506.371 17.76C505.635 18.976 505.267 20.704 505.267 22.944C505.267 25.12 505.667 26.816 506.467 28.032C507.267 29.216 508.371 30.032 509.779 30.48C511.187 30.928 512.787 31.152 514.579 31.152C516.851 31.152 518.723 30.8 520.195 30.096C521.699 29.392 522.707 28.704 523.219 28.032V28.992L523.699 32.256C523.091 32.768 521.891 33.28 520.099 33.792C518.339 34.304 516.115 34.56 513.427 34.56Z" fill="#1A1A1A"/>
<path d="M539.663 34.56C536.463 34.56 533.951 34.048 532.127 33.024C530.335 32 529.071 30.608 528.335 28.848C527.631 27.088 527.279 25.104 527.279 22.896C527.279 20.656 527.647 18.656 528.383 16.896C529.151 15.136 530.431 13.744 532.223 12.72C534.015 11.664 536.495 11.136 539.663 11.136C542.831 11.136 545.311 11.664 547.103 12.72C548.895 13.744 550.159 15.136 550.895 16.896C551.663 18.656 552.047 20.656 552.047 22.896C552.047 25.104 551.679 27.088 550.943 28.848C550.239 30.608 548.991 32 547.199 33.024C545.407 34.048 542.895 34.56 539.663 34.56ZM539.663 31.152C541.647 31.152 543.183 30.832 544.271 30.192C545.359 29.552 546.111 28.624 546.527 27.408C546.943 26.16 547.151 24.656 547.151 22.896C547.151 21.136 546.927 19.632 546.479 18.384C546.063 17.136 545.311 16.176 544.223 15.504C543.167 14.832 541.647 14.496 539.663 14.496C537.711 14.496 536.191 14.848 535.103 15.552C534.015 16.224 533.247 17.2 532.799 18.48C532.383 19.728 532.175 21.216 532.175 22.944C532.175 24.64 532.383 26.112 532.799 27.36C533.215 28.576 533.967 29.52 535.055 30.192C536.143 30.832 537.679 31.152 539.663 31.152Z" fill="#1A1A1A"/>
<path d="M568.364 34.56C565.356 34.56 562.828 34.4 560.78 34.08C558.764 33.76 557.388 33.44 556.652 33.12V32.16L555.644 28.032C556.476 28.704 557.932 29.408 560.012 30.144C562.124 30.848 564.684 31.2 567.692 31.2C569.676 31.2 571.164 31.072 572.156 30.816C573.148 30.528 573.804 30.16 574.124 29.712C574.444 29.232 574.604 28.704 574.604 28.128C574.604 27.456 574.364 26.928 573.884 26.544C573.436 26.128 572.572 25.792 571.292 25.536C570.044 25.248 568.188 24.96 565.724 24.672C563.036 24.352 560.956 23.888 559.484 23.28C558.044 22.672 557.052 21.904 556.508 20.976C555.964 20.016 555.692 18.88 555.692 17.568C555.692 16.544 555.964 15.536 556.508 14.544C557.052 13.552 558.06 12.736 559.532 12.096C561.036 11.456 563.164 11.136 565.916 11.136C568.892 11.136 571.388 11.296 573.404 11.616C575.452 11.936 576.844 12.256 577.58 12.576V13.536L578.54 17.184C577.74 16.608 576.284 16.016 574.172 15.408C572.06 14.8 569.516 14.496 566.54 14.496C564.172 14.496 562.588 14.768 561.788 15.312C560.988 15.824 560.588 16.496 560.588 17.328C560.588 17.808 560.684 18.24 560.876 18.624C561.068 18.976 561.452 19.296 562.028 19.584C562.636 19.872 563.532 20.128 564.716 20.352C565.932 20.576 567.548 20.8 569.564 21.024C572.284 21.312 574.348 21.76 575.756 22.368C577.164 22.976 578.124 23.744 578.636 24.672C579.18 25.568 579.452 26.624 579.452 27.84C579.452 29.152 579.084 30.32 578.348 31.344C577.644 32.336 576.476 33.12 574.844 33.696C573.212 34.272 571.052 34.56 568.364 34.56Z" fill="#1A1A1A"/>
<path d="M583.595 45.792C581.675 45.792 580.155 45.6 579.035 45.216C577.915 44.832 577.195 44.464 576.875 44.112L577.835 39.072V37.632C578.059 38.304 578.427 39.008 578.939 39.744C579.419 40.512 580.043 41.152 580.811 41.664C581.579 42.176 582.443 42.432 583.403 42.432C584.491 42.432 585.419 42.208 586.187 41.76C586.955 41.344 587.627 40.736 588.203 39.936C588.811 39.136 589.387 38.208 589.931 37.152C590.571 35.872 590.971 34.992 591.131 34.512C590.939 34.256 590.635 33.664 590.219 32.736C589.803 31.808 589.307 30.688 588.731 29.376C588.155 28.032 587.547 26.608 586.907 25.104C586.299 23.6 585.691 22.144 585.083 20.736C584.475 19.328 583.931 18.08 583.451 16.992C582.971 15.904 582.603 15.12 582.347 14.64C581.803 13.616 581.307 12.864 580.859 12.384C580.411 11.904 580.091 11.648 579.899 11.616H587.723C587.467 11.616 587.291 11.856 587.195 12.336C587.131 12.784 587.307 13.552 587.723 14.64C587.979 15.248 588.331 16.128 588.779 17.28C589.227 18.4 589.723 19.68 590.267 21.12C590.811 22.528 591.371 23.968 591.947 25.44C592.523 26.88 593.051 28.224 593.531 29.472H593.579C594.091 28.16 594.651 26.752 595.259 25.248C595.867 23.744 596.459 22.272 597.035 20.832C597.643 19.392 598.171 18.112 598.619 16.992C599.099 15.872 599.451 15.056 599.675 14.544C600.123 13.52 600.299 12.784 600.203 12.336C600.107 11.888 599.931 11.648 599.675 11.616H607.211C607.019 11.648 606.715 11.888 606.299 12.336C605.915 12.752 605.467 13.472 604.955 14.496C604.667 15.04 604.219 15.968 603.611 17.28C603.035 18.592 602.363 20.096 601.595 21.792C600.827 23.488 600.043 25.248 599.243 27.072C598.443 28.864 597.691 30.56 596.987 32.16C596.283 33.728 595.691 35.024 595.211 36.048C594.219 38.192 593.163 39.984 592.043 41.424C590.955 42.896 589.723 43.984 588.347 44.688C586.971 45.424 585.387 45.792 583.595 45.792Z" fill="#1A1A1A"/>
<path d="M621.848 34.56C618.84 34.56 616.312 34.4 614.264 34.08C612.248 33.76 610.872 33.44 610.136 33.12V32.16L609.128 28.032C609.96 28.704 611.416 29.408 613.496 30.144C615.608 30.848 618.168 31.2 621.176 31.2C623.16 31.2 624.648 31.072 625.64 30.816C626.632 30.528 627.288 30.16 627.608 29.712C627.928 29.232 628.088 28.704 628.088 28.128C628.088 27.456 627.848 26.928 627.368 26.544C626.92 26.128 626.056 25.792 624.776 25.536C623.528 25.248 621.672 24.96 619.208 24.672C616.52 24.352 614.44 23.888 612.968 23.28C611.528 22.672 610.536 21.904 609.992 20.976C609.448 20.016 609.176 18.88 609.176 17.568C609.176 16.544 609.448 15.536 609.992 14.544C610.536 13.552 611.544 12.736 613.016 12.096C614.52 11.456 616.648 11.136 619.4 11.136C622.376 11.136 624.872 11.296 626.888 11.616C628.936 11.936 630.328 12.256 631.064 12.576V13.536L632.024 17.184C631.224 16.608 629.768 16.016 627.656 15.408C625.544 14.8 623 14.496 620.024 14.496C617.656 14.496 616.072 14.768 615.272 15.312C614.472 15.824 614.072 16.496 614.072 17.328C614.072 17.808 614.168 18.24 614.36 18.624C614.552 18.976 614.936 19.296 615.512 19.584C616.12 19.872 617.016 20.128 618.2 20.352C619.416 20.576 621.032 20.8 623.048 21.024C625.768 21.312 627.832 21.76 629.24 22.368C630.648 22.976 631.608 23.744 632.12 24.672C632.664 25.568 632.936 26.624 632.936 27.84C632.936 29.152 632.568 30.32 631.832 31.344C631.128 32.336 629.96 33.12 628.328 33.696C626.696 34.272 624.536 34.56 621.848 34.56Z" fill="#1A1A1A"/>
<path d="M646.151 34.56C643.943 34.56 642.343 34.096 641.351 33.168C640.359 32.208 639.863 30.656 639.863 28.512V14.976H635.543V11.616C637.015 11.616 638.167 11.44 638.999 11.088C639.831 10.704 640.423 10.048 640.775 9.12C641.127 8.192 641.303 6.896 641.303 5.232H644.759V11.616H653.927C653.703 11.936 653.479 12.416 653.255 13.056C653.063 13.664 652.967 14.304 652.967 14.976H644.759V27.792C644.759 29.264 645.031 30.192 645.575 30.576C646.119 30.96 646.807 31.152 647.639 31.152C648.439 31.152 649.175 30.992 649.847 30.672C650.551 30.32 651.159 29.904 651.671 29.424C652.215 28.944 652.631 28.48 652.919 28.032V29.52L653.399 32.256C653.079 32.576 652.583 32.928 651.911 33.312C651.239 33.664 650.423 33.952 649.463 34.176C648.503 34.432 647.399 34.56 646.151 34.56Z" fill="#1A1A1A"/>
<path d="M668.667 34.56C666.139 34.56 664.059 34.272 662.427 33.696C660.795 33.088 659.515 32.256 658.587 31.2C657.659 30.144 657.003 28.912 656.619 27.504C656.267 26.096 656.091 24.56 656.091 22.896C656.091 19.28 657.115 16.416 659.163 14.304C661.243 12.192 664.315 11.136 668.379 11.136C670.747 11.136 672.651 11.456 674.091 12.096C675.563 12.736 676.667 13.584 677.403 14.64C678.171 15.696 678.683 16.848 678.939 18.096C679.227 19.312 679.371 20.512 679.371 21.696V23.952C679.371 23.856 678.923 23.76 678.027 23.664C677.163 23.536 675.691 23.472 673.611 23.472H660.987C660.987 25.84 661.691 27.712 663.099 29.088C664.507 30.464 666.603 31.152 669.387 31.152C671.787 31.152 673.755 30.864 675.291 30.288C676.859 29.68 677.899 29.088 678.411 28.512V29.472L678.891 32.64C678.187 33.056 676.939 33.488 675.147 33.936C673.387 34.352 671.227 34.56 668.667 34.56ZM662.907 20.304H674.571C674.571 19.472 674.395 18.608 674.043 17.712C673.691 16.816 673.067 16.064 672.171 15.456C671.275 14.816 670.011 14.496 668.379 14.496C667.003 14.496 665.803 14.736 664.779 15.216C663.755 15.664 662.955 16.256 662.379 16.992C661.835 17.728 661.563 18.512 661.563 19.344C661.563 19.664 661.659 19.904 661.851 20.064C662.043 20.224 662.395 20.304 662.907 20.304Z" fill="#1A1A1A"/>
<path d="M683.478 34.08C683.702 34.08 683.91 33.856 684.102 33.408C684.326 32.96 684.438 32.224 684.438 31.2V14.976C684.438 13.952 684.326 13.232 684.102 12.816C683.91 12.368 683.702 12.128 683.478 12.096C684.886 12.096 686.102 12 687.126 11.808C688.182 11.584 688.918 11.36 689.334 11.136V14.064L689.238 14.688L689.334 14.784C689.814 14.176 690.342 13.6 690.918 13.056C691.526 12.512 692.31 12.064 693.27 11.712C694.23 11.328 695.462 11.136 696.966 11.136C699.943 11.136 702.214 11.984 703.782 13.68C705.382 15.376 706.182 18.032 706.182 21.648V31.2C706.182 32.224 706.278 32.96 706.47 33.408C706.694 33.856 706.918 34.08 707.142 34.08H700.326C700.55 34.08 700.758 33.856 700.95 33.408C701.174 32.96 701.286 32.224 701.286 31.2V21.792C701.286 19.904 701.046 18.432 700.566 17.376C700.086 16.32 699.414 15.584 698.55 15.168C697.719 14.72 696.742 14.496 695.622 14.496C694.438 14.496 693.367 14.752 692.406 15.264C691.446 15.776 690.694 16.592 690.15 17.712C689.606 18.832 689.334 20.336 689.334 22.224V31.2C689.334 32.224 689.43 32.96 689.622 33.408C689.846 33.856 690.07 34.08 690.294 34.08H683.478ZM717.126 34.08C717.35 34.08 717.558 33.856 717.75 33.408C717.974 32.96 718.086 32.224 718.086 31.2V21.792C718.086 19.904 717.846 18.432 717.366 17.376C716.886 16.32 716.214 15.584 715.35 15.168C714.518 14.72 713.542 14.496 712.422 14.496C710.566 14.496 709.062 15.088 707.91 16.272C706.758 17.424 706.182 19.392 706.182 22.176L704.214 17.376C704.31 17.024 704.534 16.512 704.886 15.84C705.27 15.168 705.815 14.48 706.518 13.776C707.255 13.04 708.198 12.416 709.35 11.904C710.534 11.392 712.006 11.136 713.766 11.136C715.75 11.136 717.43 11.52 718.806 12.288C720.182 13.024 721.222 14.16 721.926 15.696C722.63 17.232 722.982 19.216 722.982 21.648V31.2C722.982 32.224 723.078 32.96 723.27 33.408C723.494 33.856 723.718 34.08 723.942 34.08H717.126Z" fill="#1A1A1A"/>
</svg>
