<svg width="183" height="201" viewBox="0 0 183 201" fill="none" xmlns="http://www.w3.org/2000/svg">
<path d="M90.9387 33.5566L151.327 68.3453M90.9387 33.5566L30.5508 68.3453M90.9387 33.5566V103.134M151.327 68.3453V137.923M151.327 68.3453L30.5508 137.923M151.327 137.923L90.9387 172.711M151.327 137.923L90.9387 103.134M90.9387 172.711L30.5508 137.923M90.9387 172.711V103.134M30.5508 137.923V68.3453M30.5508 68.3453L90.9387 103.134" stroke="black" stroke-width="2" stroke-linecap="round" stroke-dasharray="0.25 5"/>
<mask id="path-2-outside-1_387_16883" maskUnits="userSpaceOnUse" x="60.6291" y="34.237" width="32.009" height="29.5592" fill="black">
<rect fill="white" x="60.6291" y="34.237" width="32.009" height="29.5592"/>
<path d="M62.3594 37.2402L90.466 53.537L90.467 60.0528L62.3604 43.756L62.3594 37.2402Z"/>
</mask>
<path d="M62.3594 37.2402L90.466 53.537L90.467 60.0528L62.3604 43.756L62.3594 37.2402Z" fill="#5F75EE"/>
<path d="M62.3594 37.2402L62.3593 35.2402L60.6292 36.2373L62.3594 37.2402ZM90.466 53.537L92.1962 54.5399L90.466 51.537L90.466 53.537ZM90.467 60.0528L90.4671 62.0528L92.1972 61.0557L90.467 60.0528ZM62.3604 43.756L60.6302 42.7531C60.6304 43.8577 61.405 45.202 62.3605 45.756L62.3604 43.756ZM62.3594 39.2402L90.4661 55.537L90.466 51.537L62.3593 35.2402L62.3594 39.2402ZM88.7358 52.534L88.7368 59.0499L92.1972 61.0557L92.1962 54.5399L88.7358 52.534ZM90.467 58.0528L62.3603 41.756L62.3605 45.756L90.4671 62.0528L90.467 58.0528ZM64.0906 44.7589L64.0896 38.2431L60.6292 36.2373L60.6302 42.7531L64.0906 44.7589Z" fill="black" mask="url(#path-2-outside-1_387_16883)"/>
<mask id="path-4-outside-2_387_16883" maskUnits="userSpaceOnUse" x="88.7383" y="33.981" width="32.009" height="29.5592" fill="black">
<rect fill="white" x="88.7383" y="33.981" width="32.009" height="29.5592"/>
<path d="M90.4696 53.5366L118.576 37.2398L118.575 43.7556L90.4685 60.0524L90.4696 53.5366Z"/>
</mask>
<path d="M90.4696 53.5366L118.576 37.2398L118.575 43.7556L90.4685 60.0524L90.4696 53.5366Z" fill="black"/>
<path d="M90.4696 53.5366L90.4696 51.5366L88.7394 54.5395L90.4696 53.5366ZM118.576 37.2398L120.306 36.2369L118.576 35.2398L118.576 37.2398ZM118.575 43.7556L118.575 45.7556C119.531 45.2016 120.305 43.8573 120.305 42.7527L118.575 43.7556ZM90.4685 60.0524L88.7383 61.0553L90.4685 62.0524L90.4685 60.0524ZM90.4695 55.5366L118.576 39.2398L118.576 35.2398L90.4696 51.5366L90.4695 55.5366ZM116.846 38.2427L116.845 44.7585L120.305 42.7527L120.306 36.2369L116.846 38.2427ZM118.575 41.7556L90.4686 58.0524L90.4685 62.0524L118.575 45.7556L118.575 41.7556ZM92.1987 59.0495L92.1998 52.5337L88.7394 54.5395L88.7383 61.0553L92.1987 59.0495Z" fill="black" mask="url(#path-4-outside-2_387_16883)"/>
<mask id="path-6-outside-3_387_16883" maskUnits="userSpaceOnUse" x="58.8989" y="18.6869" width="64.0197" height="37.1144" fill="black">
<rect fill="white" x="58.8989" y="18.6869" width="64.0197" height="37.1144"/>
<path d="M62.3594 37.2441L90.4671 20.9491L118.575 37.2441L90.4671 53.5391L62.3594 37.2441Z"/>
</mask>
<path d="M62.3594 37.2441L90.4671 20.9491L118.575 37.2441L90.4671 53.5391L62.3594 37.2441Z" fill="white"/>
<path d="M62.3594 37.2441L60.6291 36.241V38.2472L62.3594 37.2441ZM90.4671 20.9491L92.1973 19.946C91.2417 19.392 89.6924 19.392 88.7368 19.946L90.4671 20.9491ZM118.575 37.2441L120.305 38.2472V36.241L118.575 37.2441ZM90.4671 53.5391L88.7368 54.5422H92.1973L90.4671 53.5391ZM64.0896 38.2472L92.1973 21.9522L88.7368 19.946L60.6291 36.241L64.0896 38.2472ZM88.7368 21.9522L116.844 38.2472L120.305 36.241L92.1973 19.946L88.7368 21.9522ZM116.844 36.241L88.7368 52.536L92.1973 54.5422L120.305 38.2472L116.844 36.241ZM92.1973 52.536L64.0896 36.241L60.6291 38.2472L88.7368 54.5422L92.1973 52.536Z" fill="black" mask="url(#path-6-outside-3_387_16883)"/>
<circle r="16.08" transform="matrix(0.866009 0.500028 3.1868e-05 1 88.0666 24.2005)" fill="white" stroke="black" stroke-width="2" stroke-linecap="round" stroke-linejoin="round"/>
<path d="M77.9439 14.0439C78.3321 16.1243 79.2571 18.199 80.7246 20.146C81.2338 20.8216 81.7925 21.4606 82.3932 22.0661L80.8691 25.2532C80.7533 25.4954 80.78 25.8664 80.9401 26.2403C81.1002 26.6143 81.3723 26.9408 81.664 27.1092L83.78 28.331C84.1253 28.5304 84.4376 28.4738 84.5747 28.1871L86.207 24.7736C86.3594 25.1247 86.6112 25.4348 86.8861 25.6085C87.2706 25.8515 87.6643 26.089 88.0665 26.3212C88.2166 26.4079 88.3639 26.4946 88.5084 26.5812L87.3532 28.997C87.2373 29.2392 87.264 29.6102 87.4241 29.9842C87.5843 30.3581 87.8563 30.6847 88.148 30.8531L90.264 32.0748C90.6093 32.2742 90.9216 32.2177 91.0588 31.9309L92.2746 29.3883C92.7299 29.83 93.1045 30.2548 93.4083 30.6579C94.2625 31.7912 94.7257 32.9665 94.7258 34.492C94.7259 37.2699 92.85 39.0351 88.8777 37.0883C88.6101 36.9567 88.3397 36.8123 88.0668 36.6547C82.1099 33.2152 77.2807 24.8508 77.2805 17.9723C77.2805 16.456 77.5147 15.1392 77.9439 14.0439ZM98.1889 34.356C97.8007 32.2756 96.8757 30.2009 95.4082 28.2539C94.8981 27.5772 94.3384 26.9372 93.7367 26.3308L95.2603 23.1448C95.3761 22.9026 95.3494 22.5315 95.1893 22.1576C95.0291 21.7837 94.7571 21.4571 94.4654 21.2887L92.3494 20.0669C92.0041 19.8675 91.6918 19.9241 91.5547 20.2109L90.0649 23.3262C89.4254 22.8936 88.7583 22.4782 88.0663 22.0787C87.9656 22.0206 87.8661 21.9624 87.7679 21.9042C87.7161 21.8735 87.6649 21.8486 87.615 21.8293L88.7762 19.4009C88.892 19.1587 88.8654 18.7877 88.7052 18.4138C88.5451 18.0399 88.273 17.7133 87.9814 17.5449L85.8654 16.3231C85.5201 16.1237 85.2078 16.1803 85.0706 16.4671L83.8552 19.0088C83.4013 18.5681 83.0277 18.1442 82.7245 17.742C81.8703 16.6087 81.4071 15.4334 81.407 13.9079C81.4069 11.1301 83.2826 9.36499 87.2545 11.3114C87.5222 11.443 87.7929 11.5875 88.066 11.7452C94.0229 15.1847 98.8521 23.5491 98.8523 30.4277C98.8523 31.9439 98.6181 33.2607 98.1889 34.356Z" stroke="black" stroke-width="2" stroke-linecap="round" stroke-linejoin="round"/>
<mask id="path-10-outside-4_387_16883" maskUnits="userSpaceOnUse" x="121.971" y="69.9354" width="32.0427" height="29.501" fill="black">
<rect fill="white" x="121.971" y="69.9354" width="32.0427" height="29.501"/>
<path d="M123.703 72.9355L152.122 89.3446L152.123 95.9053L123.704 79.4962L123.703 72.9355Z"/>
</mask>
<path d="M123.703 72.9355L152.122 89.3446L152.123 95.9053L123.704 79.4962L123.703 72.9355Z" fill="#5F75EE"/>
<path d="M123.703 72.9355L123.703 70.9355L121.971 71.9357L123.703 72.9355ZM152.122 89.3446L153.854 90.3443L152.122 87.3446L152.122 89.3446ZM152.123 95.9053L152.124 97.9053L153.855 96.9051L152.123 95.9053ZM123.704 79.4962L121.972 78.4965C121.972 79.601 122.748 80.944 123.704 81.4962L123.704 79.4962ZM123.703 74.9355L152.122 91.3446L152.122 87.3446L123.703 70.9355L123.703 74.9355ZM150.39 88.3448L150.391 94.9056L153.855 96.9051L153.854 90.3443L150.39 88.3448ZM152.123 93.9053L123.704 77.4962L123.704 81.4962L152.124 97.9053L152.123 93.9053ZM125.436 80.496L125.435 73.9352L121.971 71.9357L121.972 78.4965L125.436 80.496Z" fill="black" mask="url(#path-10-outside-4_387_16883)"/>
<mask id="path-12-outside-5_387_16883" maskUnits="userSpaceOnUse" x="150.393" y="69.8408" width="32.0427" height="29.501" fill="black">
<rect fill="white" x="150.393" y="69.8408" width="32.0427" height="29.501"/>
<path d="M152.126 89.3413L180.545 72.9322L180.544 79.4929L152.125 95.902L152.126 89.3413Z"/>
</mask>
<path d="M152.126 89.3413L180.545 72.9322L180.544 79.4929L152.125 95.902L152.126 89.3413Z" fill="black"/>
<path d="M152.126 89.3413L152.126 87.3413L150.394 90.341L152.126 89.3413ZM180.545 72.9322L182.277 71.9324L180.545 70.9322L180.545 72.9322ZM180.544 79.4929L180.544 81.4929C181.5 80.9407 182.276 79.5977 182.276 78.4932L180.544 79.4929ZM152.125 95.902L150.393 96.9018L152.125 97.902L152.125 95.902ZM152.126 91.3413L180.545 74.9322L180.545 70.9322L152.126 87.3413L152.126 91.3413ZM178.813 73.9319L178.812 80.4927L182.276 78.4932L182.277 71.9324L178.813 73.9319ZM180.544 77.4929L152.125 93.902L152.125 97.902L180.544 81.4929L180.544 77.4929ZM153.857 94.9022L153.858 88.3415L150.394 90.341L150.393 96.9018L153.857 94.9022Z" fill="black" mask="url(#path-12-outside-5_387_16883)"/>
<mask id="path-14-outside-6_387_16883" maskUnits="userSpaceOnUse" x="120.239" y="54.4365" width="64.0871" height="36.998" fill="black">
<rect fill="white" x="120.239" y="54.4365" width="64.0871" height="36.998"/>
<path d="M123.703 72.9355L152.123 56.5282L180.544 72.9355L152.123 89.3428L123.703 72.9355Z"/>
</mask>
<path d="M123.703 72.9355L152.123 56.5282L180.544 72.9355L152.123 89.3428L123.703 72.9355Z" fill="white"/>
<path d="M123.703 72.9355L121.971 71.9355V73.9354L123.703 72.9355ZM152.123 56.5282L153.856 55.5283C152.899 54.976 151.348 54.976 150.391 55.5283L152.123 56.5282ZM180.544 72.9355L182.276 73.9354V71.9355L180.544 72.9355ZM152.123 89.3428L150.391 90.3427H153.856L152.123 89.3428ZM125.435 73.9354L153.856 57.5281L150.391 55.5283L121.971 71.9355L125.435 73.9354ZM150.391 57.5281L178.812 73.9354L182.276 71.9355L153.856 55.5283L150.391 57.5281ZM178.812 71.9355L150.391 88.3428L153.856 90.3427L182.276 73.9354L178.812 71.9355ZM153.856 88.3428L125.435 71.9355L121.971 73.9354L150.391 90.3427L153.856 88.3428Z" fill="black" mask="url(#path-14-outside-6_387_16883)"/>
<path d="M152.17 45.2021L143.309 40.0857C142.722 39.7465 142.158 39.6865 141.743 39.9189C141.327 40.1514 141.094 40.6573 141.094 41.3253L141.094 61.4752C141.094 62.1432 141.328 62.9186 141.743 63.6308C142.159 64.343 142.722 64.9338 143.31 65.273L156.602 72.9477C157.189 73.2869 157.753 73.3469 158.168 73.1144C158.584 72.882 158.817 72.3761 158.817 71.7081L158.817 56.5957L152.17 45.2021Z" fill="white"/>
<path d="M152.17 45.2021L152.171 52.7583L158.817 56.5957" fill="white"/>
<path d="M147.74 51.4595L145.525 50.1804Z" fill="white"/>
<path d="M152.17 45.2021L143.309 40.0857C142.722 39.7465 142.158 39.6865 141.743 39.9189C141.327 40.1514 141.094 40.6573 141.094 41.3253L141.094 61.4752C141.094 62.1432 141.328 62.9186 141.743 63.6308C142.159 64.343 142.722 64.9338 143.31 65.273L156.602 72.9477C157.189 73.2869 157.753 73.3469 158.168 73.1144C158.584 72.882 158.817 72.3761 158.817 71.7081L158.817 56.5957M152.17 45.2021L158.817 56.5957M152.17 45.2021L152.171 52.7583L158.817 56.5957M154.386 60.3343L145.525 55.2178M154.386 65.3717L145.525 60.2553M147.74 51.4595L145.525 50.1804" stroke="black" stroke-width="2" stroke-linecap="round" stroke-linejoin="round"/>
<path d="M155.635 74.5776C157.833 75.8463 159.614 74.8179 159.614 72.2806C159.614 69.7432 157.832 66.6578 155.635 65.389C153.438 64.1203 151.656 65.1487 151.656 67.686C151.656 70.2234 153.438 73.3088 155.635 74.5776Z" fill="white"/>
<path d="M153.481 72.6053L152.793 78.1873L155.635 77.8592L158.477 81.4691L157.789 75.0863" fill="white"/>
<path d="M153.481 72.6053L152.793 78.1873L155.635 77.8592L158.477 81.4691L157.789 75.0863M159.614 72.2806C159.614 74.8179 157.833 75.8463 155.635 74.5776C153.438 73.3088 151.656 70.2234 151.656 67.686C151.656 65.1487 153.438 64.1203 155.635 65.389C157.832 66.6578 159.614 69.7432 159.614 72.2806Z" stroke="black" stroke-width="2" stroke-linecap="round" stroke-linejoin="round"/>
<mask id="path-20-outside-7_387_16883" maskUnits="userSpaceOnUse" x="0.269739" y="70.1706" width="32.009" height="29.5592" fill="black">
<rect fill="white" x="0.269739" y="70.1706" width="32.009" height="29.5592"/>
<path d="M2 73.1738L30.1066 89.4705L30.1077 95.9864L2.00103 79.6896L2 73.1738Z"/>
</mask>
<path d="M2 73.1738L30.1066 89.4705L30.1077 95.9864L2.00103 79.6896L2 73.1738Z" fill="#5F75EE"/>
<path d="M2 73.1738L1.99994 71.1738L0.269802 72.1709L2 73.1738ZM30.1066 89.4705L31.8368 90.4735L30.1066 87.4705L30.1066 89.4705ZM30.1077 95.9864L30.1077 97.9864L31.8379 96.9893L30.1077 95.9864ZM2.00103 79.6896L0.270835 78.6867C0.271011 79.7912 1.04563 81.1356 2.0011 81.6896L2.00103 79.6896ZM2.00006 75.1738L30.1067 91.4705L30.1066 87.4705L1.99994 71.1738L2.00006 75.1738ZM28.3764 88.4676L28.3775 94.9835L31.8379 96.9893L31.8368 90.4735L28.3764 88.4676ZM30.1076 93.9864L2.00097 77.6896L2.0011 81.6896L30.1077 97.9864L30.1076 93.9864ZM3.73123 80.6925L3.7302 74.1767L0.269802 72.1709L0.270835 78.6867L3.73123 80.6925Z" fill="black" mask="url(#path-20-outside-7_387_16883)"/>
<mask id="path-22-outside-8_387_16883" maskUnits="userSpaceOnUse" x="28.375" y="69.9146" width="32.009" height="29.5592" fill="black">
<rect fill="white" x="28.375" y="69.9146" width="32.009" height="29.5592"/>
<path d="M30.1063 89.4702L58.2129 73.1734L58.2119 79.6892L30.1053 95.986L30.1063 89.4702Z"/>
</mask>
<path d="M30.1063 89.4702L58.2129 73.1734L58.2119 79.6892L30.1053 95.986L30.1063 89.4702Z" fill="black"/>
<path d="M30.1063 89.4702L30.1064 87.4702L28.3761 90.4731L30.1063 89.4702ZM58.2129 73.1734L59.9431 72.1705L58.213 71.1734L58.2129 73.1734ZM58.2119 79.6892L58.2118 81.6892C59.1673 81.1352 59.9419 79.7909 59.9421 78.6863L58.2119 79.6892ZM30.1053 95.986L28.3751 96.9889L30.1052 97.986L30.1053 95.986ZM30.1062 91.4702L58.2129 75.1734L58.213 71.1734L30.1064 87.4702L30.1062 91.4702ZM56.4827 74.1763L56.4817 80.6921L59.9421 78.6863L59.9431 72.1705L56.4827 74.1763ZM58.212 77.6892L30.1053 93.986L30.1052 97.986L58.2118 81.6892L58.212 77.6892ZM31.8355 94.9831L31.8365 88.4673L28.3761 90.4731L28.3751 96.9889L31.8355 94.9831Z" fill="black" mask="url(#path-22-outside-8_387_16883)"/>
<mask id="path-24-outside-9_387_16883" maskUnits="userSpaceOnUse" x="-1.46052" y="54.6205" width="64.0197" height="37.1144" fill="black">
<rect fill="white" x="-1.46052" y="54.6205" width="64.0197" height="37.1144"/>
<path d="M2 73.1777L30.1077 56.8827L58.2154 73.1777L30.1077 89.4727L2 73.1777Z"/>
</mask>
<path d="M2 73.1777L30.1077 56.8827L58.2154 73.1777L30.1077 89.4727L2 73.1777Z" fill="white"/>
<path d="M2 73.1777L0.269738 72.1746V74.1808L2 73.1777ZM30.1077 56.8827L31.8379 55.8796C30.8823 55.3256 29.333 55.3256 28.3774 55.8796L30.1077 56.8827ZM58.2154 73.1777L59.9456 74.1808V72.1746L58.2154 73.1777ZM30.1077 89.4727L28.3774 90.4758H31.8379L30.1077 89.4727ZM3.73026 74.1808L31.8379 57.8858L28.3774 55.8796L0.269738 72.1746L3.73026 74.1808ZM28.3774 57.8858L56.4851 74.1808L59.9456 72.1746L31.8379 55.8796L28.3774 57.8858ZM56.4851 72.1746L28.3774 88.4696L31.8379 90.4758L59.9456 74.1808L56.4851 72.1746ZM31.8379 88.4696L3.73026 72.1746L0.269738 74.1808L28.3774 90.4758L31.8379 88.4696Z" fill="black" mask="url(#path-24-outside-9_387_16883)"/>
<path d="M38.3444 52.7478C38.3445 54.5729 37.9862 56.0918 37.3472 57.2629C36.9766 57.9422 36.5686 58.598 36.1495 59.2714C36.1038 59.345 36.0579 59.4187 36.0119 59.4928C35.5484 60.2388 35.077 61.0086 34.6574 61.8283C33.819 63.4659 33.1569 65.3564 33.157 67.8094L33.157 69.4475L23.098 63.6395L23.098 62.0014C23.0979 59.5484 22.4357 56.8933 21.5971 54.2874C21.1774 52.9831 20.706 51.6689 20.2424 50.3876C20.1964 50.2604 20.1505 50.1336 20.1047 50.0072C19.6857 48.8499 19.2776 47.7229 18.9069 46.6156C18.2678 44.7065 17.9094 42.7739 17.9094 40.9487C17.9092 34.4328 22.4836 31.7917 28.1265 35.0499C33.7694 38.308 38.3442 46.2318 38.3444 52.7478Z" fill="white" stroke="black" stroke-width="2"/>
<path d="M28.3791 42.7483L28.3795 57.1875M31.2211 47.0145L26.9582 44.5532C26.4306 44.2485 25.9246 44.1984 25.5515 44.4138C25.1785 44.6292 24.9689 45.0925 24.9689 45.7017C24.9689 46.3109 25.1785 47.0162 25.5516 47.6624C25.9247 48.3087 26.4307 48.8428 26.9583 49.1475L29.8003 50.7884C30.3279 51.093 30.8339 51.6272 31.207 52.2734C31.5801 52.9196 31.7897 53.6249 31.7897 54.2342C31.7897 54.8434 31.5801 55.3067 31.2071 55.5221C30.834 55.7375 30.328 55.6873 29.8004 55.3827L24.9691 52.5931" stroke="black" stroke-width="2" stroke-linecap="round" stroke-linejoin="round"/>
<path d="M23.0966 68.3409L23.0966 67.8421L33.1555 72.2562L33.1555 72.697L23.0966 68.3409ZM26.2363 71.7161L32.8489 74.5797C32.5183 74.9641 31.9524 75.0165 31.3097 74.6455L26.2363 71.7161ZM28.3795 68.146L23.0965 65.8277L23.0965 65.0957L28.3795 68.146Z" fill="white" stroke="black" stroke-width="2"/>
<path d="M25.802 72.9205L30.4523 75.6056C30.2234 75.7511 29.9003 75.7376 29.5421 75.5308L26.7123 73.8968C26.3541 73.69 26.0309 73.3304 25.802 72.9205Z" fill="white" stroke="black" stroke-width="2"/>
<mask id="path-30-outside-10_387_16883" maskUnits="userSpaceOnUse" x="122.424" y="137.545" width="32.0427" height="29.501" fill="black">
<rect fill="white" x="122.424" y="137.545" width="32.0427" height="29.501"/>
<path d="M124.156 140.545L152.576 156.954L152.577 163.515L124.157 147.106L124.156 140.545Z"/>
</mask>
<path d="M124.156 140.545L152.576 156.954L152.577 163.515L124.157 147.106L124.156 140.545Z" fill="#5F75EE"/>
<path d="M124.156 140.545L124.156 138.545L122.424 139.545L124.156 140.545ZM152.576 156.954L154.308 157.954L152.575 154.954L152.576 156.954ZM152.577 163.515L152.577 165.515L154.309 164.514L152.577 163.515ZM124.157 147.106L122.425 146.106C122.425 147.21 123.201 148.553 124.157 149.106L124.157 147.106ZM124.156 142.545L152.576 158.954L152.575 154.954L124.156 138.545L124.156 142.545ZM150.844 155.954L150.845 162.515L154.309 164.514L154.308 157.954L150.844 155.954ZM152.577 161.515L124.157 145.106L124.157 149.106L152.577 165.515L152.577 161.515ZM125.889 148.105L125.888 141.545L122.424 139.545L122.425 146.106L125.889 148.105Z" fill="black" mask="url(#path-30-outside-10_387_16883)"/>
<mask id="path-32-outside-11_387_16883" maskUnits="userSpaceOnUse" x="150.846" y="137.45" width="32.0427" height="29.501" fill="black">
<rect fill="white" x="150.846" y="137.45" width="32.0427" height="29.501"/>
<path d="M152.579 156.951L180.998 140.542L180.997 147.102L152.578 163.511L152.579 156.951Z"/>
</mask>
<path d="M152.579 156.951L180.998 140.542L180.997 147.102L152.578 163.511L152.579 156.951Z" fill="black"/>
<path d="M152.579 156.951L152.579 154.951L150.847 157.95L152.579 156.951ZM180.998 140.542L182.73 139.542L180.998 138.542L180.998 140.542ZM180.997 147.102L180.997 149.102C181.954 148.55 182.729 147.207 182.729 146.103L180.997 147.102ZM152.578 163.511L150.846 164.511L152.578 165.511L152.578 163.511ZM152.579 158.951L180.998 142.542L180.998 138.542L152.579 154.951L152.579 158.951ZM179.266 141.541L179.265 148.102L182.729 146.103L182.73 139.542L179.266 141.541ZM180.997 145.102L152.578 161.511L152.578 165.511L180.997 149.102L180.997 145.102ZM154.31 162.512L154.311 155.951L150.847 157.95L150.846 164.511L154.31 162.512Z" fill="black" mask="url(#path-32-outside-11_387_16883)"/>
<mask id="path-34-outside-12_387_16883" maskUnits="userSpaceOnUse" x="120.692" y="122.046" width="64.0871" height="36.998" fill="black">
<rect fill="white" x="120.692" y="122.046" width="64.0871" height="36.998"/>
<path d="M124.156 140.545L152.577 124.138L180.997 140.545L152.577 156.952L124.156 140.545Z"/>
</mask>
<path d="M124.156 140.545L152.577 124.138L180.997 140.545L152.577 156.952L124.156 140.545Z" fill="white"/>
<path d="M124.156 140.545L122.424 139.545V141.545L124.156 140.545ZM152.577 124.138L154.309 123.138C153.352 122.585 151.801 122.585 150.845 123.138L152.577 124.138ZM180.997 140.545L182.729 141.545V139.545L180.997 140.545ZM152.577 156.952L150.845 157.952H154.309L152.577 156.952ZM125.888 141.545L154.309 125.138L150.845 123.138L122.424 139.545L125.888 141.545ZM150.845 125.138L179.265 141.545L182.729 139.545L154.309 123.138L150.845 125.138ZM179.265 139.545L150.845 155.952L154.309 157.952L182.729 141.545L179.265 139.545ZM154.309 155.952L125.888 139.545L122.424 141.545L150.845 157.952L154.309 155.952Z" fill="black" mask="url(#path-34-outside-12_387_16883)"/>
<path d="M150.409 138.974L158.679 130.704L162.224 134.248L153.953 142.519L150.409 138.974Z" fill="white"/>
<path d="M157.498 131.885L155.726 123.024L138.594 118.889L142.729 136.02L151.59 137.793L157.498 131.885Z" fill="white"/>
<path d="M138.594 118.889L147.557 127.851Z" fill="white"/>
<path d="M149.227 131.885C150.532 131.885 151.59 130.827 151.59 129.522C151.59 128.217 150.532 127.159 149.227 127.159C147.922 127.159 146.864 128.217 146.864 129.522C146.864 130.827 147.922 131.885 149.227 131.885Z" fill="white"/>
<path d="M138.594 118.889L155.726 123.024L157.498 131.885L151.59 137.793L142.729 136.02L138.594 118.889ZM138.594 118.889L147.557 127.851M150.409 138.974L158.679 130.704L162.224 134.248L153.953 142.519L150.409 138.974ZM151.59 129.522C151.59 130.827 150.532 131.885 149.227 131.885C147.922 131.885 146.864 130.827 146.864 129.522C146.864 128.217 147.922 127.159 149.227 127.159C150.532 127.159 151.59 128.217 151.59 129.522Z" stroke="black" stroke-width="2" stroke-linecap="round" stroke-linejoin="round"/>
<mask id="path-38-outside-13_387_16883" maskUnits="userSpaceOnUse" x="0.267917" y="137.545" width="32.0427" height="29.501" fill="black">
<rect fill="white" x="0.267917" y="137.545" width="32.0427" height="29.501"/>
<path d="M2 140.545L30.4193 156.954L30.4203 163.515L2.00104 147.106L2 140.545Z"/>
</mask>
<path d="M2 140.545L30.4193 156.954L30.4203 163.515L2.00104 147.106L2 140.545Z" fill="#5F75EE"/>
<path d="M2 140.545L1.99994 138.545L0.267981 139.545L2 140.545ZM30.4193 156.954L32.1513 157.954L30.4192 154.954L30.4193 156.954ZM30.4203 163.515L30.4204 165.515L32.1524 164.514L30.4203 163.515ZM2.00104 147.106L0.269026 146.106C0.269202 147.21 1.04464 148.553 2.00111 149.106L2.00104 147.106ZM2.00006 142.545L30.4194 158.954L30.4192 154.954L1.99994 138.545L2.00006 142.545ZM28.6873 155.954L28.6883 162.515L32.1524 164.514L32.1513 157.954L28.6873 155.954ZM30.4203 161.515L2.00098 145.106L2.00111 149.106L30.4204 165.515L30.4203 161.515ZM3.73306 148.105L3.73202 141.545L0.267981 139.545L0.269026 146.106L3.73306 148.105Z" fill="black" mask="url(#path-38-outside-13_387_16883)"/>
<mask id="path-40-outside-14_387_16883" maskUnits="userSpaceOnUse" x="28.6857" y="137.45" width="32.0427" height="29.501" fill="black">
<rect fill="white" x="28.6857" y="137.45" width="32.0427" height="29.501"/>
<path d="M30.4188 156.951L58.8381 140.542L58.8371 147.102L30.4178 163.511L30.4188 156.951Z"/>
</mask>
<path d="M30.4188 156.951L58.8381 140.542L58.8371 147.102L30.4178 163.511L30.4188 156.951Z" fill="black"/>
<path d="M30.4188 156.951L30.4189 154.951L28.6868 157.95L30.4188 156.951ZM58.8381 140.542L60.5701 139.542L58.8382 138.542L58.8381 140.542ZM58.8371 147.102L58.837 149.102C59.7935 148.55 60.5689 147.207 60.5691 146.103L58.8371 147.102ZM30.4178 163.511L28.6857 164.511L30.4177 165.511L30.4178 163.511ZM30.4187 158.951L58.838 142.542L58.8382 138.542L30.4189 154.951L30.4187 158.951ZM57.1061 141.541L57.105 148.102L60.5691 146.103L60.5701 139.542L57.1061 141.541ZM58.8371 145.102L30.4178 161.511L30.4177 165.511L58.837 149.102L58.8371 145.102ZM32.1498 162.512L32.1508 155.951L28.6868 157.95L28.6857 164.511L32.1498 162.512Z" fill="black" mask="url(#path-40-outside-14_387_16883)"/>
<mask id="path-42-outside-15_387_16883" maskUnits="userSpaceOnUse" x="-1.46417" y="122.046" width="64.0871" height="36.998" fill="black">
<rect fill="white" x="-1.46417" y="122.046" width="64.0871" height="36.998"/>
<path d="M2 140.545L30.4203 124.138L58.8407 140.545L30.4203 156.952L2 140.545Z"/>
</mask>
<path d="M2 140.545L30.4203 124.138L58.8407 140.545L30.4203 156.952L2 140.545Z" fill="white"/>
<path d="M2 140.545L0.267917 139.545V141.545L2 140.545ZM30.4203 124.138L32.1524 123.138C31.1958 122.585 29.6449 122.585 28.6883 123.138L30.4203 124.138ZM58.8407 140.545L60.5728 141.545V139.545L58.8407 140.545ZM30.4203 156.952L28.6883 157.952H32.1524L30.4203 156.952ZM3.73208 141.545L32.1524 125.138L28.6883 123.138L0.267917 139.545L3.73208 141.545ZM28.6883 125.138L57.1086 141.545L60.5728 139.545L32.1524 123.138L28.6883 125.138ZM57.1086 139.545L28.6883 155.952L32.1524 157.952L60.5728 141.545L57.1086 139.545ZM32.1524 155.952L3.73208 139.545L0.267917 141.545L28.6883 157.952L32.1524 155.952Z" fill="black" mask="url(#path-42-outside-15_387_16883)"/>
<path d="M40.1419 117.624L18.8456 105.328C17.3754 104.479 16.1836 105.171 16.1837 106.874L16.1842 122.291C16.1842 123.994 17.3761 126.063 18.8463 126.912L40.1426 139.208C41.6128 140.057 42.8046 139.365 42.8045 137.662L42.804 122.245C42.804 120.542 41.6121 118.473 40.1419 117.624Z" fill="white"/>
<path d="M24.1706 136.153L34.8187 142.301M29.4945 133.06L29.4947 139.227M18.8456 105.328L40.1419 117.624C41.6121 118.473 42.804 120.542 42.804 122.245L42.8045 137.662C42.8046 139.365 41.6128 140.057 40.1426 139.208L18.8463 126.912C17.3761 126.063 16.1842 123.994 16.1842 122.291L16.1837 106.874C16.1836 105.171 17.3754 104.479 18.8456 105.328Z" stroke="black" stroke-width="2" stroke-linecap="round" stroke-linejoin="round"/>
<path d="M24.6645 116.678L25.171 117.821L22.1782 118.485L25.2018 122.659L24.6647 123.235L20.582 117.599L24.6645 116.678Z" fill="black"/>
<path d="M27.7746 127.264L26.731 126.661L30.721 116.737L31.7647 117.339L27.7746 127.264Z" fill="black"/>
<path d="M33.8401 128.533L33.3336 127.39L36.311 126.716L33.3027 122.551L33.8399 121.975L37.9225 127.611L33.8401 128.533Z" fill="black"/>
<mask id="path-47-outside-16_387_16883" maskUnits="userSpaceOnUse" x="61.3773" y="173.724" width="32.0427" height="29.501" fill="black">
<rect fill="white" x="61.3773" y="173.724" width="32.0427" height="29.501"/>
<path d="M63.1094 176.725L91.5287 193.134L91.5297 199.694L63.1104 183.285L63.1094 176.725Z"/>
</mask>
<path d="M63.1094 176.725L91.5287 193.134L91.5297 199.694L63.1104 183.285L63.1094 176.725Z" fill="#5F75EE"/>
<path d="M63.1094 176.725L63.1093 174.725L61.3774 175.725L63.1094 176.725ZM91.5287 193.134L93.2607 194.133L91.5286 191.134L91.5287 193.134ZM91.5297 199.694L91.5298 201.694L93.2617 200.694L91.5297 199.694ZM63.1104 183.285L61.3784 182.286C61.3786 183.39 62.154 184.733 63.1105 185.285L63.1104 183.285ZM63.1094 178.725L91.5287 195.134L91.5286 191.134L63.1093 174.725L63.1094 178.725ZM89.7967 192.134L89.7977 198.695L93.2617 200.694L93.2607 194.133L89.7967 192.134ZM91.5297 197.694L63.1104 181.285L63.1105 185.285L91.5298 201.694L91.5297 197.694ZM64.8424 184.285L64.8414 177.724L61.3774 175.725L61.3784 182.286L64.8424 184.285Z" fill="black" mask="url(#path-47-outside-16_387_16883)"/>
<mask id="path-49-outside-17_387_16883" maskUnits="userSpaceOnUse" x="89.7989" y="173.63" width="32.0427" height="29.501" fill="black">
<rect fill="white" x="89.7989" y="173.63" width="32.0427" height="29.501"/>
<path d="M91.5321 193.13L119.951 176.721L119.95 183.282L91.531 199.691L91.5321 193.13Z"/>
</mask>
<path d="M91.5321 193.13L119.951 176.721L119.95 183.282L91.531 199.691L91.5321 193.13Z" fill="black"/>
<path d="M91.5321 193.13L91.5321 191.13L89.8001 194.13L91.5321 193.13ZM119.951 176.721L121.683 175.721L119.951 174.721L119.951 176.721ZM119.95 183.282L119.95 185.282C120.907 184.73 121.682 183.387 121.682 182.282L119.95 183.282ZM91.531 199.691L89.799 200.691L91.531 201.691L91.531 199.691ZM91.532 195.13L119.951 178.721L119.951 174.721L91.5321 191.13L91.532 195.13ZM118.219 177.721L118.218 184.282L121.682 182.282L121.683 175.721L118.219 177.721ZM119.95 181.282L91.5311 197.691L91.531 201.691L119.95 185.282L119.95 181.282ZM93.2631 198.691L93.2641 192.131L89.8001 194.13L89.799 200.691L93.2631 198.691Z" fill="black" mask="url(#path-49-outside-17_387_16883)"/>
<mask id="path-51-outside-18_387_16883" maskUnits="userSpaceOnUse" x="59.6452" y="158.226" width="64.0871" height="36.998" fill="black">
<rect fill="white" x="59.6452" y="158.226" width="64.0871" height="36.998"/>
<path d="M63.1094 176.725L91.5297 160.317L119.95 176.725L91.5297 193.132L63.1094 176.725Z"/>
</mask>
<path d="M63.1094 176.725L91.5297 160.317L119.95 176.725L91.5297 193.132L63.1094 176.725Z" fill="white"/>
<path d="M63.1094 176.725L61.3773 175.725V177.724L63.1094 176.725ZM91.5297 160.317L93.2618 159.317C92.3052 158.765 90.7542 158.765 89.7976 159.317L91.5297 160.317ZM119.95 176.725L121.682 177.724V175.725L119.95 176.725ZM91.5297 193.132L89.7976 194.132H93.2618L91.5297 193.132ZM64.8415 177.724L93.2618 161.317L89.7976 159.317L61.3773 175.725L64.8415 177.724ZM89.7976 161.317L118.218 177.724L121.682 175.725L93.2618 159.317L89.7976 161.317ZM118.218 175.725L89.7976 192.132L93.2618 194.132L121.682 177.724L118.218 175.725ZM93.2618 192.132L64.8415 175.725L61.3773 177.724L89.7976 194.132L93.2618 192.132Z" fill="black" mask="url(#path-51-outside-18_387_16883)"/>
<path fill-rule="evenodd" clip-rule="evenodd" d="M101.116 167.093C101.116 165.66 100.119 163.922 98.8899 163.212L94.4387 160.642L85.5363 155.502L81.0851 152.932C79.856 152.222 78.8596 152.809 78.8596 154.243L78.8598 158.721L78.86 167.222C78.8601 168.656 79.8566 170.394 81.0857 171.103L98.8905 181.384C100.12 182.093 101.116 181.506 101.116 180.073L101.116 171.571L101.116 167.093Z" fill="white"/>
<path d="M85.5363 155.502L81.0851 152.932C79.856 152.222 78.8596 152.809 78.8596 154.243L78.8598 158.721M85.5363 155.502L85.5363 152.906C85.5362 152.218 85.7707 151.693 86.1881 151.447C86.6054 151.201 87.1715 151.254 87.7618 151.595L92.213 154.165C92.8032 154.506 93.3693 155.106 93.7867 155.834C94.2041 156.562 94.4386 157.358 94.4386 158.046L94.4387 160.642M85.5363 155.502L94.4387 160.642M94.4387 160.642L98.8899 163.212C100.119 163.922 101.116 165.66 101.116 167.093L101.116 171.571M78.8598 158.721L78.86 167.222C78.8601 168.656 79.8566 170.394 81.0857 171.103L98.8905 181.384C100.12 182.093 101.116 181.506 101.116 180.073L101.116 171.571M78.8598 158.721C82.6735 162.324 85.0168 164.538 88.4704 167.801M101.116 171.571L91.5053 169.553" stroke="black" stroke-width="2" stroke-linecap="round" stroke-linejoin="round"/>
<rect width="3.50481" height="5.25721" transform="matrix(0.86601 0.500028 3.18485e-05 1 88.4688 165.439)" fill="white" stroke="black" stroke-width="2" stroke-linecap="round" stroke-linejoin="round"/>
</svg>
