<svg width="484" height="456" viewBox="0 0 484 456" fill="none" xmlns="http://www.w3.org/2000/svg">
<rect x="43" y="1" width="185" height="185" rx="5.32509" fill="#FEDB9E" stroke="black" stroke-width="2"/>
<rect width="45.6024" height="45.6024" transform="matrix(0.86601 0.500028 3.18351e-05 1 135.496 48)" fill="#6E6E6E"/>
<rect width="45.6024" height="45.6024" transform="matrix(0.86601 -0.500028 -3.18351e-05 1 96 70.8047)" fill="#5A5A5A"/>
<rect width="45.6024" height="45.6024" transform="matrix(0.866041 0.499972 -0.866041 0.499972 135.496 93.6016)" fill="#AAAAAA"/>
<mask id="path-5-outside-1_376_69611" maskUnits="userSpaceOnUse" x="94.2679" y="67.7968" width="43.3021" height="75.0014" fill="black">
<rect fill="white" x="94.2679" y="67.7968" width="43.3021" height="75.0014"/>
<path d="M96 70.7969L135.492 93.5993L135.494 139.202L96.0015 116.399L96 70.7969Z"/>
</mask>
<path d="M96 70.7969L135.492 93.5993L135.494 139.202L96.0015 116.399L96 70.7969Z" fill="#FEDB9E"/>
<path d="M96 70.7969L95.9999 68.7969L94.268 69.7968L96 70.7969ZM135.492 93.5993L137.224 94.5994L135.492 91.5993L135.492 93.5993ZM135.494 139.202L135.494 141.202L137.226 140.202L135.494 139.202ZM96.0015 116.399L94.2694 115.399C94.2695 116.504 95.0449 117.847 96.0015 118.399L96.0015 116.399ZM96.0001 72.7969L135.492 95.5993L135.492 91.5993L95.9999 68.7969L96.0001 72.7969ZM133.76 92.5993L133.762 138.202L137.226 140.202L137.224 94.5994L133.76 92.5993ZM135.493 137.202L96.0014 114.399L96.0015 118.399L135.494 141.202L135.493 137.202ZM97.7335 117.399L97.732 71.7969L94.268 69.7968L94.2694 115.399L97.7335 117.399Z" fill="black" mask="url(#path-5-outside-1_376_69611)"/>
<mask id="path-7-outside-2_376_69611" maskUnits="userSpaceOnUse" x="133.759" y="67.5963" width="43.3021" height="75.0014" fill="black">
<rect fill="white" x="133.759" y="67.5963" width="43.3021" height="75.0014"/>
<path d="M135.492 93.5977L174.984 70.7952L174.983 116.398L135.491 139.2L135.492 93.5977Z"/>
</mask>
<path d="M135.492 93.5977L174.984 70.7952L174.983 116.398L135.491 139.2L135.492 93.5977Z" fill="#BAC4FA"/>
<path d="M135.492 93.5977L135.492 91.5977L133.76 94.5977L135.492 93.5977ZM174.984 70.7952L176.716 69.7951L174.984 68.7952L174.984 70.7952ZM174.983 116.398L174.983 118.398C175.939 117.845 176.715 116.502 176.715 115.398L174.983 116.398ZM135.491 139.2L133.759 140.2L135.491 141.2L135.491 139.2ZM135.492 95.5977L174.984 72.7952L174.984 68.7952L135.492 91.5977L135.492 95.5977ZM173.252 71.7953L173.251 117.398L176.715 115.398L176.716 69.7951L173.252 71.7953ZM174.983 114.398L135.491 137.2L135.491 141.2L174.983 118.398L174.983 114.398ZM137.223 138.2L137.224 92.5976L133.76 94.5977L133.759 140.2L137.223 138.2Z" fill="black" mask="url(#path-7-outside-2_376_69611)"/>
<mask id="path-9-outside-3_376_69611" maskUnits="userSpaceOnUse" x="92.5358" y="45.8022" width="86.6041" height="49.9972" fill="black">
<rect fill="white" x="92.5358" y="45.8022" width="86.6041" height="49.9972"/>
<path d="M96 70.8008L135.494 48.0008L174.987 70.8008L135.494 93.6007L96 70.8008Z"/>
</mask>
<path d="M96 70.8008L135.494 48.0008L174.987 70.8008L135.494 93.6007L96 70.8008Z" fill="white"/>
<path d="M96 70.8008L94.2679 69.8008V71.8007L96 70.8008ZM135.494 48.0008L137.226 47.0009C136.269 46.4486 134.718 46.4486 133.761 47.0009L135.494 48.0008ZM174.987 70.8008L176.719 71.8007V69.8008L174.987 70.8008ZM135.494 93.6007L133.761 94.6007H137.226L135.494 93.6007ZM97.7321 71.8007L137.226 49.0008L133.761 47.0009L94.2679 69.8008L97.7321 71.8007ZM133.761 49.0008L173.255 71.8007L176.719 69.8008L137.226 47.0009L133.761 49.0008ZM173.255 69.8008L133.761 92.6008L137.226 94.6007L176.719 71.8007L173.255 69.8008ZM137.226 92.6008L97.7321 69.8008L94.2679 71.8007L133.761 94.6007L137.226 92.6008Z" fill="black" mask="url(#path-9-outside-3_376_69611)"/>
<rect x="197" y="100" width="285.323" height="285.323" rx="5.32509" fill="#BAC4FA"/>
<rect x="197" y="100" width="285.323" height="285.323" rx="5.32509" fill="white"/>
<rect x="197" y="100" width="285.323" height="285.323" rx="5.32509" fill="url(#paint0_linear_376_69611)"/>
<rect x="197" y="100" width="285.323" height="285.323" rx="5.32509" stroke="black" stroke-width="2"/>
<path d="M426.143 176.215C436.362 186.435 437.533 204.144 430.661 224.871C423.81 245.536 409.047 268.884 387.96 289.971C366.872 311.058 343.524 325.822 322.859 332.673C302.132 339.545 284.423 338.373 274.204 328.154L263.815 317.766C275.51 323.416 290.878 323.397 307.46 318.591C329.167 312.3 353.203 297.754 374.473 276.485C395.743 255.215 410.288 231.179 416.579 209.472C421.385 192.89 421.404 177.522 415.754 165.827L426.143 176.215ZM407.517 157.59C418.798 168.871 420.85 187.551 414.658 208.915C408.478 230.24 394.136 253.993 373.059 275.071C351.981 296.148 328.229 310.49 306.904 316.67C285.539 322.862 266.86 320.81 255.578 309.528C244.296 298.247 242.245 279.567 248.436 258.203C254.617 236.878 268.958 213.125 290.036 192.047C311.113 170.97 334.866 156.628 356.191 150.448C377.555 144.256 396.235 146.308 407.517 157.59Z" fill="#5F75EE" stroke="black" stroke-width="2"/>
<path d="M290.036 192.047C311.113 170.969 334.866 156.627 356.191 150.447C377.555 144.255 396.235 146.307 407.517 157.589C418.798 168.87 420.85 187.55 414.658 208.914C408.478 230.239 394.136 253.992 373.059 275.07C351.981 296.147 328.229 310.489 306.904 316.669C285.539 322.861 266.86 320.809 255.578 309.527C244.296 298.246 242.245 279.566 248.436 258.202C254.617 236.877 268.958 213.124 290.036 192.047Z" fill="white" stroke="black" stroke-width="2"/>
<path d="M296.865 200.116C314.866 182.115 334.795 169.52 352.427 163.68C370.12 157.82 385.181 158.845 393.858 167.521C402.534 176.197 403.559 191.259 397.699 208.952C391.859 226.583 379.264 246.512 361.262 264.514C343.261 282.515 323.332 295.11 305.701 300.95C288.008 306.81 272.946 305.785 264.27 297.109C255.594 288.433 254.569 273.371 260.429 255.678C266.269 238.047 278.864 218.118 296.865 200.116Z" fill="black" stroke="black" stroke-width="2"/>
<path d="M347.121 256.377C345.457 266.608 338.498 277.868 326.956 289.41C324.46 291.906 321.908 294.248 319.323 296.424C333.218 289.718 348.126 279.066 361.97 265.223C396.088 231.105 410.82 190.521 394.875 174.577C394.145 173.846 393.363 173.181 392.533 172.578C380.007 163.54 359.579 172.583 344.055 188.106C335.649 196.513 331.416 203.662 330.334 210.311C329.807 213.552 330.011 216.795 331.034 220.006L353.395 205.168L358.638 210.411L334.318 226.549C335.407 228.116 336.713 229.67 338.248 231.205C339.213 232.17 340.109 233.157 340.934 234.166L328.708 242.278C328.463 242.018 328.21 241.759 327.952 241.501C325.722 239.27 323.86 236.926 322.404 234.455L296.747 251.48L291.504 246.237L319.534 227.638C318.604 224.11 318.424 220.349 319.078 216.328C320.743 206.097 327.702 194.837 339.244 183.295C341.739 180.799 344.291 178.457 346.876 176.281C332.981 182.987 318.073 193.639 304.23 207.482C270.112 241.6 255.379 282.184 271.324 298.128C272.054 298.859 272.836 299.525 273.667 300.127C286.193 309.165 306.621 300.122 322.144 284.599C330.55 276.192 334.783 269.043 335.865 262.394C336.392 259.157 336.189 255.918 335.169 252.71L312.813 267.545L307.57 262.303L369.461 221.234L374.704 226.477L346.669 245.079C347.596 248.604 347.774 252.361 347.121 256.377Z" fill="white"/>
<path d="M347.121 256.377C345.457 266.608 338.498 277.868 326.956 289.41C324.46 291.906 321.908 294.248 319.323 296.424C333.218 289.718 348.126 279.066 361.97 265.223C396.088 231.105 410.82 190.521 394.875 174.577C394.145 173.846 393.363 173.181 392.533 172.578C380.007 163.54 359.579 172.583 344.055 188.106C335.649 196.513 331.416 203.662 330.334 210.311C329.807 213.552 330.011 216.795 331.034 220.006L353.395 205.168L358.638 210.411L334.318 226.549C335.407 228.116 336.713 229.67 338.248 231.205C339.213 232.17 340.109 233.157 340.934 234.166L328.708 242.278C328.463 242.018 328.21 241.759 327.952 241.501C325.722 239.27 323.86 236.926 322.404 234.455L296.747 251.48L291.504 246.237L319.534 227.638C318.604 224.11 318.424 220.349 319.078 216.328C320.743 206.097 327.702 194.837 339.244 183.295C341.739 180.799 344.291 178.457 346.876 176.281C332.981 182.987 318.073 193.639 304.23 207.482C270.112 241.6 255.379 282.184 271.324 298.128C272.054 298.859 272.836 299.525 273.667 300.127C286.193 309.165 306.621 300.122 322.144 284.599C330.55 276.192 334.783 269.043 335.865 262.394C336.392 259.157 336.189 255.918 335.169 252.71L312.813 267.545L307.57 262.303L369.461 221.234L374.704 226.477L346.669 245.079C347.596 248.604 347.774 252.361 347.121 256.377Z" fill="url(#paint1_linear_376_69611)" fill-opacity="0.7"/>
<path d="M304.937 208.19C321.916 191.211 340.471 179.092 356.709 173.197C373.03 167.272 386.634 167.75 394.168 175.285C401.703 182.82 402.181 196.423 396.256 212.744C390.362 228.982 378.242 247.537 361.263 264.516C344.283 281.496 325.728 293.615 309.491 299.51C293.169 305.435 279.566 304.957 272.031 297.422C264.496 289.887 264.018 276.284 269.943 259.962C275.838 243.725 287.957 225.17 304.937 208.19Z" stroke="black" stroke-width="2"/>
<path d="M2 164H1V165V231V232H2H81H82V231V165V164H81H2Z" fill="white" stroke="black" stroke-width="2"/>
<circle cx="17.5738" cy="186.8" r="5.67143" stroke="black" stroke-width="2"/>
<path d="M15.2383 185.657L17.282 188.356L26.1383 178.234" stroke="black" stroke-width="2" stroke-linecap="round" stroke-linejoin="round"/>
<path d="M31.5898 184.906H69.7398" stroke="black" stroke-width="2" stroke-linecap="round"/>
<path d="M31.5898 189.906H53.7398" stroke="black" stroke-width="2" stroke-linecap="round"/>
<circle r="5.67143" transform="matrix(1 0 0 -1 17.5738 212.086)" stroke="black" stroke-width="2"/>
<path d="M32 210H65" stroke="black" stroke-width="2" stroke-linecap="round"/>
<path d="M32 215H57" stroke="black" stroke-width="2" stroke-linecap="round"/>
<circle cx="412.884" cy="390.878" r="46.4943" transform="rotate(30 412.884 390.878)" fill="#BAC4FA" stroke="black" stroke-width="2"/>
<path d="M443.226 408.398C436.767 419.585 427.498 427.693 417.772 431.783C408.046 435.874 397.925 435.931 389.636 431.145C381.347 426.36 376.336 417.566 375.016 407.098C373.695 396.63 376.082 384.548 382.541 373.362C388.999 362.175 398.269 354.067 407.995 349.977C417.72 345.887 427.842 345.829 436.13 350.615C444.419 355.4 449.43 364.194 450.751 374.662C452.071 385.13 449.684 397.212 443.226 408.398Z" stroke="black" stroke-width="2"/>
<path d="M423.706 397.124C417.182 408.424 409.957 417.849 403.573 423.956C400.376 427.014 397.433 429.2 394.931 430.387C392.395 431.591 390.548 431.668 389.321 430.96C388.095 430.251 387.238 428.613 387.012 425.815C386.79 423.055 387.211 419.413 388.261 415.115C390.358 406.534 394.907 395.564 401.431 384.264C407.955 372.964 415.18 363.539 421.564 357.432C424.761 354.374 427.704 352.189 430.206 351.001C432.742 349.797 434.589 349.721 435.816 350.429C437.042 351.137 437.9 352.775 438.125 355.573C438.347 358.334 437.927 361.975 436.877 366.273C434.78 374.855 430.23 385.824 423.706 397.124Z" stroke="black" stroke-width="2"/>
<path d="M454.14 412.626C452.069 416.213 431.896 408.444 409.71 395.636C387.525 382.827 371.358 369.615 373.43 366.027" stroke="black" stroke-width="2"/>
<defs>
<linearGradient id="paint0_linear_376_69611" x1="204.979" y1="580.054" x2="664.084" y2="356.476" gradientUnits="userSpaceOnUse">
<stop stop-color="#98A8FF"/>
<stop offset="0.453125" stop-color="#AFA8D7"/>
<stop offset="1" stop-color="#FEDB9E"/>
</linearGradient>
<linearGradient id="paint1_linear_376_69611" x1="493.282" y1="299.512" x2="389.233" y2="83.2049" gradientUnits="userSpaceOnUse">
<stop stop-color="#98A8FF"/>
<stop offset="0.453125" stop-color="#AFA8D7"/>
<stop offset="1" stop-color="#FEDB9E"/>
</linearGradient>
</defs>
</svg>
