<svg width="571" height="255" viewBox="0 0 571 255" fill="none" xmlns="http://www.w3.org/2000/svg">
<path d="M0.84 67C1.10667 67 1.50667 66.6267 2.04 65.88C2.62667 65.1333 3.29333 63.88 4.04 62.12C4.41333 61.32 5 59.96 5.8 58.04C6.65333 56.0667 7.61333 53.8 8.68 51.24C9.8 48.6267 10.9467 45.9067 12.12 43.08C13.3467 40.2533 14.4933 37.5333 15.56 34.92C16.68 32.3067 17.64 30.0133 18.44 28.04C19.2933 26.0667 19.88 24.6533 20.2 23.8C20.8933 22.0933 21.2667 20.8667 21.32 20.12C21.3733 19.3733 21.2667 19 21 19H38.44C38.2267 19 38.1467 19.3733 38.2 20.12C38.2533 20.8133 38.6267 22.04 39.32 23.8C39.64 24.6533 40.2 26.0667 41 28.04C41.8 29.96 42.7333 32.2267 43.8 34.84C44.8667 37.4 45.9867 40.0933 47.16 42.92C48.3333 45.7467 49.4533 48.4667 50.52 51.08C51.5867 53.64 52.5467 55.9067 53.4 57.88C54.2533 59.8533 54.8667 61.2667 55.24 62.12C56.04 63.88 56.8133 65.1333 57.56 65.88C58.3067 66.6267 58.8667 67 59.24 67H41.08C41.5067 66.9467 41.8533 66.5467 42.12 65.8C42.44 65 42.44 63.7733 42.12 62.12C42.0667 61.7467 42.0133 61.4533 41.96 61.24C41.9067 60.9733 41.8 60.6 41.64 60.12C41.4267 59.32 41.1867 58.76 40.92 58.44C40.6533 58.0667 40.2 57.8533 39.56 57.8C38.9733 57.7467 37.9867 57.72 36.6 57.72H22.84C21.4 57.72 20.3333 57.7733 19.64 57.88C18.9467 57.9333 18.4667 58.12 18.2 58.44C17.9333 58.76 17.72 59.2933 17.56 60.04C17.5067 60.3067 17.4267 60.6533 17.32 61.08C17.2667 61.5067 17.2133 61.8533 17.16 62.12C16.7867 63.8267 16.68 65.0533 16.84 65.8C17.0533 66.5467 17.32 66.9467 17.64 67H0.84ZM24.92 48.92H34.28C35.8267 48.92 36.68 48.7867 36.84 48.52C37 48.2533 36.92 47.6667 36.6 46.76C35.9067 45.0533 35.2133 43.32 34.52 41.56C33.8267 39.7467 33.16 37.9867 32.52 36.28C31.9333 34.5733 31.4 33 30.92 31.56C30.4933 30.0667 30.12 28.8133 29.8 27.8H29.64C28.8933 29.7733 28.12 31.8533 27.32 34.04C26.52 36.2267 25.7733 38.2533 25.08 40.12C24.3867 41.9867 23.8267 43.5333 23.4 44.76C22.9733 45.9333 22.76 46.52 22.76 46.52C22.3867 47.3733 22.2533 47.9867 22.36 48.36C22.4667 48.7333 23.32 48.92 24.92 48.92ZM62.9575 67C63.3308 67 63.6775 66.6267 63.9975 65.88C64.3708 65.1333 64.5575 63.9067 64.5575 62.2V35.16C64.5575 33.4533 64.3708 32.2533 63.9975 31.56C63.6775 30.8133 63.3308 30.4133 62.9575 30.36C65.3042 30.36 67.7042 30.2 70.1575 29.88C72.6108 29.5067 74.5308 29.1333 75.9175 28.76V33.64L75.7575 34.68L75.9175 34.84C76.0775 34.4667 76.5842 33.8 77.4375 32.84C78.2908 31.88 79.5175 30.9733 81.1175 30.12C82.7175 29.2133 84.6908 28.76 87.0375 28.76C91.9975 28.76 95.7842 30.1733 98.3975 33C101.064 35.8267 102.398 40.2533 102.398 46.28V62.2C102.398 63.9067 102.558 65.1333 102.878 65.88C103.251 66.6267 103.624 67 103.998 67H89.4375C89.8108 67 90.1575 66.6267 90.4775 65.88C90.8508 65.1333 91.0375 63.9067 91.0375 62.2V46.52C91.0375 44.0133 90.7708 42.0667 90.2375 40.68C89.7042 39.24 88.9575 38.2267 87.9975 37.64C87.0908 37.0533 86.0242 36.76 84.7975 36.76C83.3042 36.76 81.8642 37.1333 80.4775 37.88C79.1442 38.5733 78.0508 39.6933 77.1975 41.24C76.3442 42.7333 75.9175 44.7333 75.9175 47.24V62.2C75.9175 63.9067 76.0775 65.1333 76.3975 65.88C76.7708 66.6267 77.1442 67 77.5175 67H62.9575ZM150.394 67.8C146.181 67.8 142.661 67.3733 139.834 66.52C137.061 65.6133 134.848 64.3333 133.194 62.68C131.541 60.9733 130.368 58.92 129.674 56.52C128.981 54.12 128.634 51.4 128.634 48.36C128.634 42.3333 130.314 37.56 133.674 34.04C137.034 30.52 142.181 28.76 149.114 28.76C153.168 28.76 156.448 29.32 158.954 30.44C161.514 31.56 163.461 33.0533 164.794 34.92C166.128 36.7867 167.034 38.8667 167.514 41.16C168.048 43.4 168.314 45.6667 168.314 47.96V51.72C168.314 51.56 167.568 51.4 166.074 51.24C164.634 51.0267 162.181 50.92 158.714 50.92H140.154C140.154 53.8533 141.034 56.0667 142.794 57.56C144.608 59 147.541 59.72 151.594 59.72C155.008 59.72 158.048 59.32 160.714 58.52C163.434 57.6667 165.408 56.8667 166.634 56.12V58.52L167.434 64.6C166.421 65.2933 164.474 66.0133 161.594 66.76C158.714 67.4533 154.981 67.8 150.394 67.8ZM143.114 44.04H156.954C156.954 42.8667 156.688 41.72 156.154 40.6C155.674 39.48 154.874 38.5733 153.754 37.88C152.634 37.1333 151.088 36.76 149.114 36.76C147.141 36.76 145.541 37.0533 144.314 37.64C143.141 38.2267 142.261 38.9467 141.674 39.8C141.141 40.6533 140.874 41.5333 140.874 42.44C140.874 42.9733 141.034 43.3733 141.354 43.64C141.674 43.9067 142.261 44.04 143.114 44.04ZM195.627 67.8C190.08 67.8 185.707 66.9467 182.507 65.24C179.36 63.5333 177.147 61.2133 175.867 58.28C174.587 55.3467 173.947 52.04 173.947 48.36C173.947 41.8533 175.707 36.9733 179.227 33.72C182.8 30.4667 188 28.84 194.827 28.84C198.4 28.84 201.654 29.1067 204.587 29.64C207.574 30.1733 209.76 30.68 211.147 31.16V33.56L212.747 42.12C211.574 41 209.44 39.8533 206.347 38.68C203.307 37.4533 199.654 36.84 195.387 36.84C193.094 36.84 191.174 37.2667 189.627 38.12C188.134 38.92 187.014 40.1733 186.267 41.88C185.574 43.5867 185.227 45.7733 185.227 48.44C185.227 51.0533 185.627 53.1867 186.427 54.84C187.227 56.4933 188.534 57.6933 190.347 58.44C192.16 59.1867 194.56 59.56 197.547 59.56C201.334 59.56 204.454 59.08 206.907 58.12C209.414 57.1067 211.094 56.12 211.947 55.16V57.56L212.747 63.96C211.734 64.8133 209.734 65.6667 206.747 66.52C203.814 67.3733 200.107 67.8 195.627 67.8ZM238.962 67.8C233.629 67.8 229.442 66.9467 226.402 65.24C223.415 63.5333 221.309 61.2133 220.082 58.28C218.909 55.3467 218.322 52.04 218.322 48.36C218.322 44.6267 218.935 41.2933 220.162 38.36C221.442 35.4267 223.575 33.1067 226.562 31.4C229.549 29.64 233.682 28.76 238.962 28.76C244.242 28.76 248.375 29.64 251.362 31.4C254.349 33.1067 256.455 35.4267 257.682 38.36C258.962 41.2933 259.602 44.6267 259.602 48.36C259.602 52.04 258.989 55.3467 257.762 58.28C256.589 61.2133 254.509 63.5333 251.522 65.24C248.535 66.9467 244.349 67.8 238.962 67.8ZM238.962 59.72C241.202 59.72 242.989 59.4 244.322 58.76C245.709 58.0667 246.695 56.8933 247.282 55.24C247.922 53.5867 248.242 51.2933 248.242 48.36C248.242 45.4267 247.922 43.1333 247.282 41.48C246.695 39.7733 245.709 38.5733 244.322 37.88C242.989 37.1333 241.202 36.76 238.962 36.76C236.722 36.76 234.909 37.1333 233.522 37.88C232.189 38.6267 231.202 39.8533 230.562 41.56C229.975 43.2667 229.682 45.56 229.682 48.44C229.682 51.2667 229.975 53.5067 230.562 55.16C231.202 56.8133 232.189 57.9867 233.522 58.68C234.909 59.3733 236.722 59.72 238.962 59.72ZM285.616 67.8C280.869 67.8 276.869 67.5333 273.616 67C270.362 66.4667 268.122 65.9333 266.896 65.4V63L265.216 55.16C266.602 56.1733 269.189 57.1867 272.976 58.2C276.762 59.2133 281.402 59.72 286.896 59.72C288.549 59.72 289.856 59.6133 290.816 59.4C291.829 59.1867 292.549 58.84 292.976 58.36C293.402 57.88 293.616 57.2667 293.616 56.52C293.616 55.6133 293.269 54.92 292.576 54.44C291.936 53.96 290.762 53.5867 289.056 53.32C287.349 53 284.869 52.6267 281.616 52.2C277.509 51.6667 274.256 50.92 271.856 49.96C269.456 48.9467 267.749 47.6667 266.736 46.12C265.776 44.52 265.296 42.5733 265.296 40.28C265.296 38.1467 265.802 36.2267 266.816 34.52C267.882 32.76 269.696 31.3733 272.256 30.36C274.869 29.2933 278.496 28.76 283.136 28.76C287.509 28.76 291.349 29.0267 294.656 29.56C297.962 30.0933 300.336 30.6267 301.776 31.16V33.56L303.376 40.6C302.149 39.8 299.749 38.9733 296.176 38.12C292.602 37.2667 288.069 36.84 282.576 36.84C280.442 36.84 278.922 37.0533 278.016 37.48C277.109 37.9067 276.656 38.6533 276.656 39.72C276.656 40.2533 276.789 40.7067 277.056 41.08C277.376 41.4533 277.962 41.8 278.816 42.12C279.669 42.44 280.896 42.76 282.496 43.08C284.096 43.3467 286.202 43.64 288.816 43.96C293.349 44.5467 296.762 45.3733 299.056 46.44C301.349 47.4533 302.896 48.7333 303.696 50.28C304.496 51.7733 304.896 53.5867 304.896 55.72C304.896 58.44 304.202 60.7067 302.816 62.52C301.482 64.28 299.376 65.6133 296.496 66.52C293.669 67.3733 290.042 67.8 285.616 67.8ZM311.652 86.52C308.452 86.52 305.919 86.2 304.052 85.56C302.185 84.92 300.985 84.3067 300.452 83.72L302.052 71.32V68.92C302.692 70.3067 303.572 71.7467 304.692 73.24C305.759 74.7333 307.012 75.9867 308.452 77C309.892 78.0133 311.385 78.52 312.932 78.52C313.999 78.52 314.959 78.28 315.812 77.8C316.719 77.3733 317.545 76.68 318.292 75.72C319.092 74.76 319.865 73.56 320.612 72.12C321.679 69.9867 322.345 68.52 322.612 67.72C322.292 67.2933 321.759 66.3067 321.012 64.76C320.319 63.2133 319.465 61.3467 318.452 59.16C317.492 56.92 316.452 54.5733 315.332 52.12C314.265 49.6133 313.225 47.1867 312.212 44.84C311.252 42.4933 310.372 40.4133 309.572 38.6C308.825 36.7867 308.265 35.4533 307.892 34.6C307.145 32.7867 306.399 31.5067 305.652 30.76C304.852 29.96 304.239 29.56 303.812 29.56H320.212C319.945 29.56 319.759 29.9333 319.652 30.68C319.545 31.4267 319.732 32.7333 320.212 34.6C320.479 35.6133 320.905 37.0533 321.492 38.92C322.079 40.7333 322.745 42.7333 323.492 44.92C324.292 47.1067 325.092 49.32 325.892 51.56C326.745 53.8 327.519 55.8533 328.212 57.72H328.292C329.039 55.7467 329.812 53.6133 330.612 51.32C331.465 48.9733 332.292 46.68 333.092 44.44C333.945 42.2 334.665 40.2 335.252 38.44C335.892 36.68 336.372 35.3467 336.692 34.44C337.279 32.6267 337.519 31.3733 337.412 30.68C337.305 29.9333 337.065 29.56 336.692 29.56H352.612C352.185 29.56 351.599 29.9333 350.852 30.68C350.159 31.3733 349.492 32.6 348.852 34.36C348.479 35.32 347.865 36.8933 347.012 39.08C346.159 41.2667 345.145 43.7733 343.972 46.6C342.799 49.4267 341.572 52.3333 340.292 55.32C339.012 58.3067 337.759 61.1333 336.532 63.8C335.359 66.4133 334.319 68.5733 333.412 70.28C331.599 73.8 329.705 76.76 327.732 79.16C325.759 81.56 323.492 83.3733 320.932 84.6C318.372 85.88 315.279 86.52 311.652 86.52ZM375.381 67.8C370.635 67.8 366.635 67.5333 363.381 67C360.128 66.4667 357.888 65.9333 356.661 65.4V63L354.981 55.16C356.368 56.1733 358.955 57.1867 362.741 58.2C366.528 59.2133 371.168 59.72 376.661 59.72C378.315 59.72 379.621 59.6133 380.581 59.4C381.595 59.1867 382.315 58.84 382.741 58.36C383.168 57.88 383.381 57.2667 383.381 56.52C383.381 55.6133 383.035 54.92 382.341 54.44C381.701 53.96 380.528 53.5867 378.821 53.32C377.115 53 374.635 52.6267 371.381 52.2C367.275 51.6667 364.021 50.92 361.621 49.96C359.221 48.9467 357.515 47.6667 356.501 46.12C355.541 44.52 355.061 42.5733 355.061 40.28C355.061 38.1467 355.568 36.2267 356.581 34.52C357.648 32.76 359.461 31.3733 362.021 30.36C364.635 29.2933 368.261 28.76 372.901 28.76C377.275 28.76 381.115 29.0267 384.421 29.56C387.728 30.0933 390.101 30.6267 391.541 31.16V33.56L393.141 40.6C391.915 39.8 389.515 38.9733 385.941 38.12C382.368 37.2667 377.835 36.84 372.341 36.84C370.208 36.84 368.688 37.0533 367.781 37.48C366.875 37.9067 366.421 38.6533 366.421 39.72C366.421 40.2533 366.555 40.7067 366.821 41.08C367.141 41.4533 367.728 41.8 368.581 42.12C369.435 42.44 370.661 42.76 372.261 43.08C373.861 43.3467 375.968 43.64 378.581 43.96C383.115 44.5467 386.528 45.3733 388.821 46.44C391.115 47.4533 392.661 48.7333 393.461 50.28C394.261 51.7733 394.661 53.5867 394.661 55.72C394.661 58.44 393.968 60.7067 392.581 62.52C391.248 64.28 389.141 65.6133 386.261 66.52C383.435 67.3733 379.808 67.8 375.381 67.8ZM416.218 67.8C412.538 67.8 409.871 67.0267 408.218 65.48C406.564 63.88 405.738 61.2933 405.738 57.72V37.56H398.538V29.56C400.991 29.56 402.911 29.2667 404.298 28.68C405.684 28.04 406.671 26.9467 407.258 25.4C407.844 23.8533 408.138 21.6933 408.138 18.92H417.098V29.56H430.778C430.404 30.6267 430.031 31.96 429.658 33.56C429.338 35.1067 429.178 36.44 429.178 37.56H417.098V53.32C417.098 55.7733 417.284 57.4533 417.658 58.36C418.031 59.2667 418.911 59.72 420.298 59.72C421.204 59.72 422.191 59.4 423.258 58.76C424.378 58.12 425.444 57.3467 426.458 56.44C427.524 55.48 428.404 54.5733 429.098 53.72V56.2L429.898 63.96C429.258 64.4933 428.298 65.08 427.018 65.72C425.738 66.3067 424.164 66.7867 422.298 67.16C420.484 67.5867 418.458 67.8 416.218 67.8ZM455.707 67.8C451.494 67.8 447.974 67.3733 445.147 66.52C442.374 65.6133 440.16 64.3333 438.507 62.68C436.854 60.9733 435.68 58.92 434.987 56.52C434.294 54.12 433.947 51.4 433.947 48.36C433.947 42.3333 435.627 37.56 438.987 34.04C442.347 30.52 447.494 28.76 454.427 28.76C458.48 28.76 461.76 29.32 464.267 30.44C466.827 31.56 468.774 33.0533 470.107 34.92C471.44 36.7867 472.347 38.8667 472.827 41.16C473.36 43.4 473.627 45.6667 473.627 47.96V51.72C473.627 51.56 472.88 51.4 471.387 51.24C469.947 51.0267 467.494 50.92 464.027 50.92H445.467C445.467 53.8533 446.347 56.0667 448.107 57.56C449.92 59 452.854 59.72 456.907 59.72C460.32 59.72 463.36 59.32 466.027 58.52C468.747 57.6667 470.72 56.8667 471.947 56.12V58.52L472.747 64.6C471.734 65.2933 469.787 66.0133 466.907 66.76C464.027 67.4533 460.294 67.8 455.707 67.8ZM448.427 44.04H462.267C462.267 42.8667 462 41.72 461.467 40.6C460.987 39.48 460.187 38.5733 459.067 37.88C457.947 37.1333 456.4 36.76 454.427 36.76C452.454 36.76 450.854 37.0533 449.627 37.64C448.454 38.2267 447.574 38.9467 446.987 39.8C446.454 40.6533 446.187 41.5333 446.187 42.44C446.187 42.9733 446.347 43.3733 446.667 43.64C446.987 43.9067 447.574 44.04 448.427 44.04ZM480.379 67C480.753 67 481.099 66.6267 481.419 65.88C481.793 65.1333 481.979 63.9067 481.979 62.2V35.16C481.979 33.4533 481.793 32.2533 481.419 31.56C481.099 30.8133 480.753 30.4133 480.379 30.36C482.726 30.36 485.126 30.2 487.579 29.88C490.033 29.5067 491.953 29.1333 493.339 28.76V33.64L493.179 34.68L493.339 34.84C493.499 34.4667 494.006 33.8 494.859 32.84C495.713 31.88 496.939 30.9733 498.539 30.12C500.139 29.2133 502.113 28.76 504.459 28.76C509.419 28.76 513.206 30.1733 515.819 33C518.486 35.8267 519.819 40.2533 519.819 46.28V62.2C519.819 63.9067 519.979 65.1333 520.299 65.88C520.673 66.6267 521.046 67 521.419 67H506.859C507.233 67 507.579 66.6267 507.899 65.88C508.273 65.1333 508.459 63.9067 508.459 62.2V46.52C508.459 44.0133 508.193 42.0667 507.659 40.68C507.126 39.24 506.379 38.2267 505.419 37.64C504.513 37.0533 503.446 36.76 502.219 36.76C500.726 36.76 499.286 37.1333 497.899 37.88C496.566 38.5733 495.473 39.6933 494.619 41.24C493.766 42.7333 493.339 44.7333 493.339 47.24V62.2C493.339 63.9067 493.499 65.1333 493.819 65.88C494.193 66.6267 494.566 67 494.939 67H480.379ZM533.259 67C533.633 66.9467 533.979 66.5467 534.299 65.8C534.673 65.0533 534.859 63.8533 534.859 62.2V47.24C534.859 45.1067 534.646 43.2667 534.219 41.72C533.846 40.12 533.206 38.8933 532.299 38.04C531.393 37.1867 530.166 36.76 528.619 36.76C526.006 36.76 523.873 37.6933 522.219 39.56C520.619 41.4267 519.819 44.2533 519.819 48.04H513.979C513.979 45.48 514.379 43.0533 515.179 40.76C515.979 38.4133 517.126 36.36 518.619 34.6C520.113 32.7867 521.899 31.3733 523.979 30.36C526.059 29.2933 528.353 28.76 530.859 28.76C534.059 28.76 536.806 29.3467 539.099 30.52C541.393 31.64 543.153 33.5333 544.379 36.2C545.606 38.8667 546.219 42.4933 546.219 47.08V62.2C546.219 63.8533 546.379 65.0533 546.699 65.8C547.073 66.5467 547.446 66.9467 547.819 67H533.259ZM24.04 151.8C18.7067 151.8 14.52 150.947 11.48 149.24C8.49333 147.533 6.38667 145.213 5.16 142.28C3.98667 139.347 3.4 136.04 3.4 132.36C3.4 128.627 4.01333 125.293 5.24 122.36C6.52 119.427 8.65333 117.107 11.64 115.4C14.6267 113.64 18.76 112.76 24.04 112.76C29.32 112.76 33.4533 113.64 36.44 115.4C39.4267 117.107 41.5333 119.427 42.76 122.36C44.04 125.293 44.68 128.627 44.68 132.36C44.68 136.04 44.0667 139.347 42.84 142.28C41.6667 145.213 39.5867 147.533 36.6 149.24C33.6133 150.947 29.4267 151.8 24.04 151.8ZM24.04 143.72C26.28 143.72 28.0667 143.4 29.4 142.76C30.7867 142.067 31.7733 140.893 32.36 139.24C33 137.587 33.32 135.293 33.32 132.36C33.32 129.427 33 127.133 32.36 125.48C31.7733 123.773 30.7867 122.573 29.4 121.88C28.0667 121.133 26.28 120.76 24.04 120.76C21.8 120.76 19.9867 121.133 18.6 121.88C17.2667 122.627 16.28 123.853 15.64 125.56C15.0533 127.267 14.76 129.56 14.76 132.44C14.76 135.267 15.0533 137.507 15.64 139.16C16.28 140.813 17.2667 141.987 18.6 142.68C19.9867 143.373 21.8 143.72 24.04 143.72ZM52.6938 151C53.0671 151 53.4138 150.627 53.7338 149.88C54.1071 149.133 54.2938 147.907 54.2938 146.2V121.56H47.0938V113.56H55.0938L55.1738 113.4C55.0138 113.133 54.6938 112.253 54.2138 110.76C53.7338 109.213 53.4938 107.4 53.4938 105.32C53.4938 101.107 54.6938 98.0667 57.0938 96.2C59.5471 94.3333 62.8804 93.4 67.0938 93.4C70.5071 93.4 73.5204 93.5867 76.1338 93.96C78.7471 94.28 80.6404 94.6267 81.8138 95V97.48L83.4138 106.2C82.4538 105.507 81.2004 104.813 79.6538 104.12C78.1604 103.373 76.5604 102.76 74.8538 102.28C73.1471 101.747 71.4404 101.48 69.7338 101.48C68.0271 101.48 66.8004 101.88 66.0538 102.68C65.3604 103.48 65.0138 104.653 65.0138 106.2V111.16C65.0138 112.333 65.1204 113.027 65.3338 113.24C65.5471 113.453 66.2671 113.56 67.4938 113.56H79.4938C79.1204 114.04 78.7471 114.973 78.3738 116.36C78.0538 117.693 77.8938 119.427 77.8938 121.56H65.8138V146.2C65.8138 147.907 65.9738 149.133 66.2938 149.88C66.6671 150.627 67.0404 151 67.4138 151H52.6938ZM4.52 252.76C4.89333 252.76 5.24 252.387 5.56 251.64C5.93333 250.893 6.12 249.667 6.12 247.96V202.36C6.12 200.653 5.93333 199.453 5.56 198.76C5.24 198.013 4.89333 197.613 4.52 197.56H17.48V198.2L17.32 199.72L17.48 199.8C18.0133 199.32 18.7867 198.867 19.8 198.44C20.8667 197.96 22.0667 197.56 23.4 197.24C24.7867 196.92 26.1733 196.76 27.56 196.76C32.52 196.76 36.36 197.64 39.08 199.4C41.8533 201.107 43.8 203.427 44.92 206.36C46.04 209.293 46.6 212.627 46.6 216.36C46.6 220.04 46.04 223.347 44.92 226.28C43.8533 229.213 41.9333 231.533 39.16 233.24C36.44 234.947 32.5733 235.8 27.56 235.8C25.48 235.8 23.5333 235.533 21.72 235C19.96 234.52 18.5467 233.8 17.48 232.84L17.32 232.92L17.48 234.52V247.96C17.48 249.667 17.64 250.893 17.96 251.64C18.3333 252.387 18.7067 252.76 19.08 252.76H4.52ZM25.96 227.72C28.2 227.72 29.9867 227.4 31.32 226.76C32.7067 226.067 33.6933 224.893 34.28 223.24C34.92 221.587 35.24 219.293 35.24 216.36C35.24 213.427 34.92 211.133 34.28 209.48C33.6933 207.773 32.7067 206.573 31.32 205.88C29.9867 205.133 28.2 204.76 25.96 204.76C24.2 204.76 22.68 205.187 21.4 206.04C20.12 206.84 19.1333 208.093 18.44 209.8C17.8 211.507 17.48 213.72 17.48 216.44C17.48 219.213 17.8267 221.427 18.52 223.08C19.2133 224.733 20.1733 225.933 21.4 226.68C22.68 227.373 24.2 227.72 25.96 227.72ZM52.4888 235C52.8621 235 53.2088 234.627 53.5288 233.88C53.9021 233.133 54.0888 231.907 54.0888 230.2V203.16C54.0888 201.453 53.9021 200.253 53.5288 199.56C53.2088 198.813 52.8621 198.413 52.4888 198.36C54.8354 198.36 57.2354 198.2 59.6888 197.88C62.1421 197.507 64.0621 197.133 65.4488 196.76V199.96L65.2888 201.32L65.4488 201.48C65.8221 200.893 66.4088 200.253 67.2088 199.56C68.0621 198.813 69.1288 198.173 70.4088 197.64C71.7421 197.053 73.2888 196.76 75.0488 196.76C77.6621 196.76 79.9821 197.133 82.0088 197.88C84.0354 198.573 85.4754 199.293 86.3288 200.04L83.9288 210.76V213.16C83.1288 212.04 82.0354 210.893 80.6488 209.72C79.3154 208.547 77.8221 207.56 76.1688 206.76C74.5688 205.96 72.9154 205.56 71.2088 205.56C69.2888 205.56 67.8488 206.253 66.8888 207.64C65.9288 209.027 65.4488 211.213 65.4488 214.2V230.2C65.4488 231.907 65.6088 233.133 65.9288 233.88C66.3021 234.627 66.6754 235 67.0488 235H52.4888ZM108.571 235.8C103.238 235.8 99.0513 234.947 96.0113 233.24C93.0246 231.533 90.9179 229.213 89.6913 226.28C88.5179 223.347 87.9313 220.04 87.9313 216.36C87.9313 212.627 88.5446 209.293 89.7713 206.36C91.0513 203.427 93.1846 201.107 96.1713 199.4C99.1579 197.64 103.291 196.76 108.571 196.76C113.851 196.76 117.985 197.64 120.971 199.4C123.958 201.107 126.065 203.427 127.291 206.36C128.571 209.293 129.211 212.627 129.211 216.36C129.211 220.04 128.598 223.347 127.371 226.28C126.198 229.213 124.118 231.533 121.131 233.24C118.145 234.947 113.958 235.8 108.571 235.8ZM108.571 227.72C110.811 227.72 112.598 227.4 113.931 226.76C115.318 226.067 116.305 224.893 116.891 223.24C117.531 221.587 117.851 219.293 117.851 216.36C117.851 213.427 117.531 211.133 116.891 209.48C116.305 207.773 115.318 206.573 113.931 205.88C112.598 205.133 110.811 204.76 108.571 204.76C106.331 204.76 104.518 205.133 103.131 205.88C101.798 206.627 100.811 207.853 100.171 209.56C99.5846 211.267 99.2913 213.56 99.2913 216.44C99.2913 219.267 99.5846 221.507 100.171 223.16C100.811 224.813 101.798 225.987 103.131 226.68C104.518 227.373 106.331 227.72 108.571 227.72ZM131.865 254.52C129.625 254.52 127.758 254.333 126.265 253.96C124.718 253.64 123.652 253.293 123.065 252.92L124.665 244.12V241.72C125.145 242.733 126.025 243.8 127.305 244.92C128.585 246.04 130.158 246.6 132.025 246.6C133.732 246.6 134.932 245.72 135.625 243.96C136.372 242.253 136.745 239.56 136.745 235.88V202.36C136.745 200.653 136.558 199.427 136.185 198.68C135.865 197.933 135.518 197.56 135.145 197.56H148.105V235.88C148.105 240.627 147.518 244.36 146.345 247.08C145.172 249.8 143.385 251.72 140.985 252.84C138.638 253.96 135.598 254.52 131.865 254.52ZM141.545 191.48C139.572 191.48 137.998 190.947 136.825 189.88C135.652 188.813 135.065 187.347 135.065 185.48C135.065 183.613 135.625 182.147 136.745 181.08C137.918 180.013 139.518 179.48 141.545 179.48C143.572 179.48 145.145 180.013 146.265 181.08C147.438 182.147 148.025 183.613 148.025 185.48C148.025 187.347 147.438 188.813 146.265 189.88C145.145 190.947 143.572 191.48 141.545 191.48ZM176.879 235.8C172.665 235.8 169.145 235.373 166.319 234.52C163.545 233.613 161.332 232.333 159.679 230.68C158.025 228.973 156.852 226.92 156.159 224.52C155.465 222.12 155.119 219.4 155.119 216.36C155.119 210.333 156.799 205.56 160.159 202.04C163.519 198.52 168.665 196.76 175.599 196.76C179.652 196.76 182.932 197.32 185.439 198.44C187.999 199.56 189.945 201.053 191.279 202.92C192.612 204.787 193.519 206.867 193.999 209.16C194.532 211.4 194.799 213.667 194.799 215.96V219.72C194.799 219.56 194.052 219.4 192.559 219.24C191.119 219.027 188.665 218.92 185.199 218.92H166.639C166.639 221.853 167.519 224.067 169.279 225.56C171.092 227 174.025 227.72 178.079 227.72C181.492 227.72 184.532 227.32 187.199 226.52C189.919 225.667 191.892 224.867 193.119 224.12V226.52L193.919 232.6C192.905 233.293 190.959 234.013 188.079 234.76C185.199 235.453 181.465 235.8 176.879 235.8ZM169.599 212.04H183.439C183.439 210.867 183.172 209.72 182.639 208.6C182.159 207.48 181.359 206.573 180.239 205.88C179.119 205.133 177.572 204.76 175.599 204.76C173.625 204.76 172.025 205.053 170.799 205.64C169.625 206.227 168.745 206.947 168.159 207.8C167.625 208.653 167.359 209.533 167.359 210.44C167.359 210.973 167.519 211.373 167.839 211.64C168.159 211.907 168.745 212.04 169.599 212.04ZM222.111 235.8C216.565 235.8 212.191 234.947 208.991 233.24C205.845 231.533 203.631 229.213 202.351 226.28C201.071 223.347 200.431 220.04 200.431 216.36C200.431 209.853 202.191 204.973 205.711 201.72C209.285 198.467 214.485 196.84 221.311 196.84C224.885 196.84 228.138 197.107 231.071 197.64C234.058 198.173 236.245 198.68 237.631 199.16V201.56L239.231 210.12C238.058 209 235.925 207.853 232.831 206.68C229.791 205.453 226.138 204.84 221.871 204.84C219.578 204.84 217.658 205.267 216.111 206.12C214.618 206.92 213.498 208.173 212.751 209.88C212.058 211.587 211.711 213.773 211.711 216.44C211.711 219.053 212.111 221.187 212.911 222.84C213.711 224.493 215.018 225.693 216.831 226.44C218.645 227.187 221.045 227.56 224.031 227.56C227.818 227.56 230.938 227.08 233.391 226.12C235.898 225.107 237.578 224.12 238.431 223.16V225.56L239.231 231.96C238.218 232.813 236.218 233.667 233.231 234.52C230.298 235.373 226.591 235.8 222.111 235.8ZM261.686 235.8C258.006 235.8 255.34 235.027 253.686 233.48C252.033 231.88 251.206 229.293 251.206 225.72V205.56H244.006V197.56C246.46 197.56 248.38 197.267 249.766 196.68C251.153 196.04 252.14 194.947 252.726 193.4C253.313 191.853 253.606 189.693 253.606 186.92H262.566V197.56H276.246C275.873 198.627 275.5 199.96 275.126 201.56C274.806 203.107 274.646 204.44 274.646 205.56H262.566V221.32C262.566 223.773 262.753 225.453 263.126 226.36C263.5 227.267 264.38 227.72 265.766 227.72C266.673 227.72 267.66 227.4 268.726 226.76C269.846 226.12 270.913 225.347 271.926 224.44C272.993 223.48 273.873 222.573 274.566 221.72V224.2L275.366 231.96C274.726 232.493 273.766 233.08 272.486 233.72C271.206 234.307 269.633 234.787 267.766 235.16C265.953 235.587 263.926 235.8 261.686 235.8ZM300.616 235.8C295.869 235.8 291.869 235.533 288.616 235C285.362 234.467 283.122 233.933 281.896 233.4V231L280.216 223.16C281.602 224.173 284.189 225.187 287.976 226.2C291.762 227.213 296.402 227.72 301.896 227.72C303.549 227.72 304.856 227.613 305.816 227.4C306.829 227.187 307.549 226.84 307.976 226.36C308.402 225.88 308.616 225.267 308.616 224.52C308.616 223.613 308.269 222.92 307.576 222.44C306.936 221.96 305.762 221.587 304.056 221.32C302.349 221 299.869 220.627 296.616 220.2C292.509 219.667 289.256 218.92 286.856 217.96C284.456 216.947 282.749 215.667 281.736 214.12C280.776 212.52 280.296 210.573 280.296 208.28C280.296 206.147 280.802 204.227 281.816 202.52C282.882 200.76 284.696 199.373 287.256 198.36C289.869 197.293 293.496 196.76 298.136 196.76C302.509 196.76 306.349 197.027 309.656 197.56C312.962 198.093 315.336 198.627 316.776 199.16V201.56L318.376 208.6C317.149 207.8 314.749 206.973 311.176 206.12C307.602 205.267 303.069 204.84 297.576 204.84C295.442 204.84 293.922 205.053 293.016 205.48C292.109 205.907 291.656 206.653 291.656 207.72C291.656 208.253 291.789 208.707 292.056 209.08C292.376 209.453 292.962 209.8 293.816 210.12C294.669 210.44 295.896 210.76 297.496 211.08C299.096 211.347 301.202 211.64 303.816 211.96C308.349 212.547 311.762 213.373 314.056 214.44C316.349 215.453 317.896 216.733 318.696 218.28C319.496 219.773 319.896 221.587 319.896 223.72C319.896 226.44 319.202 228.707 317.816 230.52C316.482 232.28 314.376 233.613 311.496 234.52C308.669 235.373 305.042 235.8 300.616 235.8Z" fill="white"/>
<path d="M127.64 151C128.013 151 128.253 150.653 128.36 149.96C128.52 149.267 128.28 148.013 127.64 146.2C127.427 145.507 126.947 144.28 126.2 142.52C125.507 140.76 124.68 138.733 123.72 136.44C122.76 134.147 121.773 131.827 120.76 129.48C119.8 127.133 118.92 124.973 118.12 123C117.32 121.027 116.707 119.533 116.28 118.52C115.587 116.707 114.84 115.427 114.04 114.68C113.293 113.933 112.68 113.56 112.2 113.56H128.52C128.2 113.56 127.987 113.933 127.88 114.68C127.773 115.427 127.987 116.707 128.52 118.52C128.787 119.48 129.213 120.893 129.8 122.76C130.44 124.627 131.133 126.733 131.88 129.08C132.68 131.427 133.48 133.827 134.28 136.28C135.133 138.733 135.907 141 136.6 143.08H136.68C137.267 140.947 137.907 138.653 138.6 136.2C139.293 133.693 139.96 131.267 140.6 128.92C141.24 126.52 141.8 124.387 142.28 122.52C142.813 120.653 143.187 119.267 143.4 118.36C143.88 116.547 144.067 115.293 143.96 114.6C143.853 113.907 143.667 113.56 143.4 113.56H161.16C160.84 113.56 160.627 113.933 160.52 114.68C160.413 115.427 160.627 116.707 161.16 118.52C161.427 119.48 161.827 120.893 162.36 122.76C162.893 124.627 163.48 126.733 164.12 129.08C164.76 131.427 165.427 133.827 166.12 136.28C166.813 138.733 167.427 141 167.96 143.08H168.04C168.84 140.947 169.667 138.653 170.52 136.2C171.427 133.693 172.307 131.267 173.16 128.92C174.013 126.52 174.76 124.387 175.4 122.52C176.04 120.653 176.467 119.267 176.68 118.36C177.16 116.653 177.347 115.427 177.24 114.68C177.133 113.933 176.947 113.56 176.68 113.56H192.6C192.227 113.56 191.693 113.907 191 114.6C190.307 115.293 189.587 116.52 188.84 118.28C188.467 119.24 187.853 120.653 187 122.52C186.147 124.387 185.213 126.467 184.2 128.76C183.187 131.053 182.173 133.347 181.16 135.64C180.147 137.933 179.24 140.013 178.44 141.88C177.693 143.747 177.16 145.187 176.84 146.2C176.307 147.907 176.093 149.133 176.2 149.88C176.307 150.627 176.52 151 176.84 151H159C159.32 151 159.533 150.627 159.64 149.88C159.747 149.133 159.533 147.907 159 146.2C158.84 145.72 158.52 144.627 158.04 142.92C157.613 141.213 157.08 139.16 156.44 136.76C155.8 134.307 155.133 131.773 154.44 129.16C153.747 126.547 153.08 124.067 152.44 121.72H152.2C151.56 123.96 150.893 126.36 150.2 128.92C149.507 131.427 148.84 133.88 148.2 136.28C147.56 138.627 146.973 140.707 146.44 142.52C145.96 144.28 145.64 145.507 145.48 146.2C145 147.96 144.813 149.213 144.92 149.96C145.027 150.653 145.213 151 145.48 151H127.64ZM213.566 151.8C209.353 151.8 205.833 151.373 203.006 150.52C200.233 149.613 198.02 148.333 196.366 146.68C194.713 144.973 193.54 142.92 192.846 140.52C192.153 138.12 191.806 135.4 191.806 132.36C191.806 126.333 193.486 121.56 196.846 118.04C200.206 114.52 205.353 112.76 212.286 112.76C216.34 112.76 219.62 113.32 222.126 114.44C224.686 115.56 226.633 117.053 227.966 118.92C229.3 120.787 230.206 122.867 230.686 125.16C231.22 127.4 231.486 129.667 231.486 131.96V135.72C231.486 135.56 230.74 135.4 229.246 135.24C227.806 135.027 225.353 134.92 221.886 134.92H203.326C203.326 137.853 204.206 140.067 205.966 141.56C207.78 143 210.713 143.72 214.766 143.72C218.18 143.72 221.22 143.32 223.886 142.52C226.606 141.667 228.58 140.867 229.806 140.12V142.52L230.606 148.6C229.593 149.293 227.646 150.013 224.766 150.76C221.886 151.453 218.153 151.8 213.566 151.8ZM206.286 128.04H220.126C220.126 126.867 219.86 125.72 219.326 124.6C218.846 123.48 218.046 122.573 216.926 121.88C215.806 121.133 214.26 120.76 212.286 120.76C210.313 120.76 208.713 121.053 207.486 121.64C206.313 122.227 205.433 122.947 204.846 123.8C204.313 124.653 204.046 125.533 204.046 126.44C204.046 126.973 204.206 127.373 204.526 127.64C204.846 127.907 205.433 128.04 206.286 128.04ZM261.279 151.8C259.199 151.8 257.252 151.533 255.439 151C253.679 150.52 252.265 149.8 251.199 148.84L251.039 149L251.199 150.52V151H238.239C238.612 151 238.959 150.627 239.279 149.88C239.652 149.133 239.839 147.907 239.839 146.2V100.6C239.839 98.8933 239.652 97.6933 239.279 97C238.959 96.2533 238.612 95.8533 238.239 95.8H251.199V114.2L251.039 115.72L251.199 115.8C251.732 115.32 252.505 114.867 253.519 114.44C254.585 113.96 255.785 113.56 257.119 113.24C258.505 112.92 259.892 112.76 261.279 112.76C266.239 112.76 270.079 113.64 272.799 115.4C275.572 117.107 277.519 119.427 278.639 122.36C279.759 125.293 280.319 128.627 280.319 132.36C280.319 136.04 279.759 139.347 278.639 142.28C277.572 145.213 275.652 147.533 272.879 149.24C270.159 150.947 266.292 151.8 261.279 151.8ZM259.679 143.72C261.919 143.72 263.705 143.4 265.039 142.76C266.425 142.067 267.412 140.893 267.999 139.24C268.639 137.587 268.959 135.293 268.959 132.36C268.959 129.427 268.639 127.133 267.999 125.48C267.412 123.773 266.425 122.573 265.039 121.88C263.705 121.133 261.919 120.76 259.679 120.76C257.919 120.76 256.399 121.187 255.119 122.04C253.839 122.84 252.852 124.093 252.159 125.8C251.519 127.507 251.199 129.72 251.199 132.44C251.199 136.6 251.945 139.533 253.439 141.24C254.985 142.893 257.065 143.72 259.679 143.72ZM306.207 151.8C300.768 151.8 296.314 151.453 292.848 150.76C289.381 150.013 287.061 149.293 285.888 148.6L287.568 139.24V136.84C288.314 137.693 289.461 138.6 291.008 139.56C292.554 140.52 294.474 141.347 296.768 142.04C299.114 142.68 301.781 143 304.768 143C306.901 143 308.581 142.787 309.808 142.36C311.088 141.88 311.994 141.213 312.528 140.36C313.114 139.507 313.408 138.467 313.408 137.24C313.408 135.213 312.634 133.747 311.088 132.84C309.541 131.88 306.874 131.4 303.088 131.4H295.488V123H303.088C305.701 123 307.541 122.44 308.608 121.32C309.674 120.147 310.208 118.28 310.208 115.72C310.208 114.653 310.048 113.773 309.728 113.08C309.408 112.387 308.901 111.88 308.208 111.56C307.514 111.187 306.608 111 305.488 111C302.928 111 300.501 111.4 298.208 112.2C295.968 113 293.994 113.987 292.288 115.16C290.581 116.28 289.248 117.373 288.288 118.44V116.04L286.688 107C287.808 105.933 289.968 104.867 293.168 103.8C296.368 102.733 300.421 102.2 305.328 102.2C309.808 102.2 313.274 102.707 315.728 103.72C318.181 104.733 319.888 106.147 320.848 107.96C321.861 109.773 322.368 111.88 322.368 114.28C322.368 117.053 321.701 119.453 320.368 121.48C319.088 123.507 317.408 124.973 315.328 125.88V126.04C318.528 126.573 321.034 127.853 322.848 129.88C324.661 131.907 325.568 134.547 325.568 137.8C325.568 140.467 324.928 142.867 323.648 145C322.368 147.133 320.288 148.813 317.408 150.04C314.581 151.213 310.848 151.8 306.207 151.8Z" fill="white"/>
<path d="M127.64 151C128.013 151 128.253 150.653 128.36 149.96C128.52 149.267 128.28 148.013 127.64 146.2C127.427 145.507 126.947 144.28 126.2 142.52C125.507 140.76 124.68 138.733 123.72 136.44C122.76 134.147 121.773 131.827 120.76 129.48C119.8 127.133 118.92 124.973 118.12 123C117.32 121.027 116.707 119.533 116.28 118.52C115.587 116.707 114.84 115.427 114.04 114.68C113.293 113.933 112.68 113.56 112.2 113.56H128.52C128.2 113.56 127.987 113.933 127.88 114.68C127.773 115.427 127.987 116.707 128.52 118.52C128.787 119.48 129.213 120.893 129.8 122.76C130.44 124.627 131.133 126.733 131.88 129.08C132.68 131.427 133.48 133.827 134.28 136.28C135.133 138.733 135.907 141 136.6 143.08H136.68C137.267 140.947 137.907 138.653 138.6 136.2C139.293 133.693 139.96 131.267 140.6 128.92C141.24 126.52 141.8 124.387 142.28 122.52C142.813 120.653 143.187 119.267 143.4 118.36C143.88 116.547 144.067 115.293 143.96 114.6C143.853 113.907 143.667 113.56 143.4 113.56H161.16C160.84 113.56 160.627 113.933 160.52 114.68C160.413 115.427 160.627 116.707 161.16 118.52C161.427 119.48 161.827 120.893 162.36 122.76C162.893 124.627 163.48 126.733 164.12 129.08C164.76 131.427 165.427 133.827 166.12 136.28C166.813 138.733 167.427 141 167.96 143.08H168.04C168.84 140.947 169.667 138.653 170.52 136.2C171.427 133.693 172.307 131.267 173.16 128.92C174.013 126.52 174.76 124.387 175.4 122.52C176.04 120.653 176.467 119.267 176.68 118.36C177.16 116.653 177.347 115.427 177.24 114.68C177.133 113.933 176.947 113.56 176.68 113.56H192.6C192.227 113.56 191.693 113.907 191 114.6C190.307 115.293 189.587 116.52 188.84 118.28C188.467 119.24 187.853 120.653 187 122.52C186.147 124.387 185.213 126.467 184.2 128.76C183.187 131.053 182.173 133.347 181.16 135.64C180.147 137.933 179.24 140.013 178.44 141.88C177.693 143.747 177.16 145.187 176.84 146.2C176.307 147.907 176.093 149.133 176.2 149.88C176.307 150.627 176.52 151 176.84 151H159C159.32 151 159.533 150.627 159.64 149.88C159.747 149.133 159.533 147.907 159 146.2C158.84 145.72 158.52 144.627 158.04 142.92C157.613 141.213 157.08 139.16 156.44 136.76C155.8 134.307 155.133 131.773 154.44 129.16C153.747 126.547 153.08 124.067 152.44 121.72H152.2C151.56 123.96 150.893 126.36 150.2 128.92C149.507 131.427 148.84 133.88 148.2 136.28C147.56 138.627 146.973 140.707 146.44 142.52C145.96 144.28 145.64 145.507 145.48 146.2C145 147.96 144.813 149.213 144.92 149.96C145.027 150.653 145.213 151 145.48 151H127.64ZM213.566 151.8C209.353 151.8 205.833 151.373 203.006 150.52C200.233 149.613 198.02 148.333 196.366 146.68C194.713 144.973 193.54 142.92 192.846 140.52C192.153 138.12 191.806 135.4 191.806 132.36C191.806 126.333 193.486 121.56 196.846 118.04C200.206 114.52 205.353 112.76 212.286 112.76C216.34 112.76 219.62 113.32 222.126 114.44C224.686 115.56 226.633 117.053 227.966 118.92C229.3 120.787 230.206 122.867 230.686 125.16C231.22 127.4 231.486 129.667 231.486 131.96V135.72C231.486 135.56 230.74 135.4 229.246 135.24C227.806 135.027 225.353 134.92 221.886 134.92H203.326C203.326 137.853 204.206 140.067 205.966 141.56C207.78 143 210.713 143.72 214.766 143.72C218.18 143.72 221.22 143.32 223.886 142.52C226.606 141.667 228.58 140.867 229.806 140.12V142.52L230.606 148.6C229.593 149.293 227.646 150.013 224.766 150.76C221.886 151.453 218.153 151.8 213.566 151.8ZM206.286 128.04H220.126C220.126 126.867 219.86 125.72 219.326 124.6C218.846 123.48 218.046 122.573 216.926 121.88C215.806 121.133 214.26 120.76 212.286 120.76C210.313 120.76 208.713 121.053 207.486 121.64C206.313 122.227 205.433 122.947 204.846 123.8C204.313 124.653 204.046 125.533 204.046 126.44C204.046 126.973 204.206 127.373 204.526 127.64C204.846 127.907 205.433 128.04 206.286 128.04ZM261.279 151.8C259.199 151.8 257.252 151.533 255.439 151C253.679 150.52 252.265 149.8 251.199 148.84L251.039 149L251.199 150.52V151H238.239C238.612 151 238.959 150.627 239.279 149.88C239.652 149.133 239.839 147.907 239.839 146.2V100.6C239.839 98.8933 239.652 97.6933 239.279 97C238.959 96.2533 238.612 95.8533 238.239 95.8H251.199V114.2L251.039 115.72L251.199 115.8C251.732 115.32 252.505 114.867 253.519 114.44C254.585 113.96 255.785 113.56 257.119 113.24C258.505 112.92 259.892 112.76 261.279 112.76C266.239 112.76 270.079 113.64 272.799 115.4C275.572 117.107 277.519 119.427 278.639 122.36C279.759 125.293 280.319 128.627 280.319 132.36C280.319 136.04 279.759 139.347 278.639 142.28C277.572 145.213 275.652 147.533 272.879 149.24C270.159 150.947 266.292 151.8 261.279 151.8ZM259.679 143.72C261.919 143.72 263.705 143.4 265.039 142.76C266.425 142.067 267.412 140.893 267.999 139.24C268.639 137.587 268.959 135.293 268.959 132.36C268.959 129.427 268.639 127.133 267.999 125.48C267.412 123.773 266.425 122.573 265.039 121.88C263.705 121.133 261.919 120.76 259.679 120.76C257.919 120.76 256.399 121.187 255.119 122.04C253.839 122.84 252.852 124.093 252.159 125.8C251.519 127.507 251.199 129.72 251.199 132.44C251.199 136.6 251.945 139.533 253.439 141.24C254.985 142.893 257.065 143.72 259.679 143.72ZM306.207 151.8C300.768 151.8 296.314 151.453 292.848 150.76C289.381 150.013 287.061 149.293 285.888 148.6L287.568 139.24V136.84C288.314 137.693 289.461 138.6 291.008 139.56C292.554 140.52 294.474 141.347 296.768 142.04C299.114 142.68 301.781 143 304.768 143C306.901 143 308.581 142.787 309.808 142.36C311.088 141.88 311.994 141.213 312.528 140.36C313.114 139.507 313.408 138.467 313.408 137.24C313.408 135.213 312.634 133.747 311.088 132.84C309.541 131.88 306.874 131.4 303.088 131.4H295.488V123H303.088C305.701 123 307.541 122.44 308.608 121.32C309.674 120.147 310.208 118.28 310.208 115.72C310.208 114.653 310.048 113.773 309.728 113.08C309.408 112.387 308.901 111.88 308.208 111.56C307.514 111.187 306.608 111 305.488 111C302.928 111 300.501 111.4 298.208 112.2C295.968 113 293.994 113.987 292.288 115.16C290.581 116.28 289.248 117.373 288.288 118.44V116.04L286.688 107C287.808 105.933 289.968 104.867 293.168 103.8C296.368 102.733 300.421 102.2 305.328 102.2C309.808 102.2 313.274 102.707 315.728 103.72C318.181 104.733 319.888 106.147 320.848 107.96C321.861 109.773 322.368 111.88 322.368 114.28C322.368 117.053 321.701 119.453 320.368 121.48C319.088 123.507 317.408 124.973 315.328 125.88V126.04C318.528 126.573 321.034 127.853 322.848 129.88C324.661 131.907 325.568 134.547 325.568 137.8C325.568 140.467 324.928 142.867 323.648 145C322.368 147.133 320.288 148.813 317.408 150.04C314.581 151.213 310.848 151.8 306.207 151.8Z" fill="url(#paint0_linear_381_14206)"/>
<defs>
<linearGradient id="paint0_linear_381_14206" x1="86" y1="151" x2="317.903" y2="44.2918" gradientUnits="userSpaceOnUse">
<stop stop-color="#98A8FF"/>
<stop offset="0.453125" stop-color="#AFA8D7"/>
<stop offset="1" stop-color="#FEDB9E"/>
</linearGradient>
</defs>
</svg>
